<?xml version="1.0" standalone="no"?>
<!DOCTYPE svg PUBLIC "-//W3C//DTD SVG 1.1//EN" "http://www.w3.org/Graphics/SVG/1.1/DTD/svg11.dtd" >
<svg xmlns="http://www.w3.org/2000/svg" xmlns:xlink="http://www.w3.org/1999/xlink" version="1.1">
<metadata>
Created by FontForge 20170731 at Wed Sep 23 00:34:57 2020
 By Aleksey,,,
Copyright 2020 The LibreFranklin Project Authors (https://github.com/impallari/Libre-Franklin)
</metadata>
<defs>
<font id="LibreFranklin-Black" horiz-adv-x="600" >
  <font-face 
    font-family="Libre Franklin Black"
    font-weight="900"
    font-stretch="normal"
    units-per-em="1000"
    panose-1="0 0 0 0 0 0 0 0 0 0"
    ascent="800"
    descent="-200"
    x-height="530"
    cap-height="742"
    bbox="-553.829 -246 1434 1167"
    underline-thickness="50"
    underline-position="-150"
    unicode-range="U+000D-FB02"
  />
<missing-glyph horiz-adv-x="612" 
d="M560 -136q0 -29 -33 -29h-448q-16 0 -21.5 6t-5.5 19v964q0 23 19 23h471q18 0 18 -21v-962v0zM508 779q0 18 -15 18h-373q-16 0 -16 -19v-872q0 -10 5 -15.5t18 -5.5h353q28 0 28 24v870zM73 806l52 27l415 -965l-60 -5z" />
    <glyph glyph-name="fi" unicode="fi" horiz-adv-x="700" 
d="M375 530q13 0 19 -6.5t6 -15.5v-94q0 -19 -22 -19h-62q-12 0 -12 -12v-361q0 -22 -19 -22h-163q-18 0 -18 20v365q0 10 -8 10h-56q-22 0 -22 19v94q0 9 5.5 15.5t18.5 6.5h48q14 0 14 18v53q0 65 42.5 103t115.5 38h113q29 0 29 -26l1 -84q0 -8 -4.5 -14t-13.5 -6h-43
q-17 0 -31 -15t-14 -36v-18q0 -13 13 -13h63v0zM659 29q0 -16 -8 -22.5t-25 -6.5h-141q-15 0 -20.5 6t-5.5 19v482q0 23 19 23h163q18 0 18 -20v-481zM659 603q0 -29 -33 -29h-141q-15 0 -20.5 6.5t-5.5 19.5v119q0 23 19 23h163q18 0 18 -21v-118z" />
    <glyph glyph-name="fl" unicode="fl" horiz-adv-x="702" 
d="M375 530q13 0 19 -6.5t6 -15.5v-94q0 -19 -22 -19h-62q-12 0 -12 -12v-361q0 -22 -19 -22h-163q-18 0 -18 20v365q0 10 -8 10h-56q-22 0 -22 19v94q0 9 5.5 15.5t18.5 6.5h48q14 0 14 18v53q0 65 42.5 103t115.5 38h113q29 0 29 -26l1 -84q0 -8 -4.5 -14t-13.5 -6h-43
q-17 0 -31 -15t-14 -36v-18q0 -13 13 -13h63v0zM660 29q0 -16 -8 -22.5t-25 -6.5h-142q-27 0 -27 25l5 694q0 23 19 23h160q18 0 18 -21v-692z" />
    <glyph glyph-name=".notdef" horiz-adv-x="612" 
d="M560 -136q0 -29 -33 -29h-448q-16 0 -21.5 6t-5.5 19v964q0 23 19 23h471q18 0 18 -21v-962v0zM508 779q0 18 -15 18h-373q-16 0 -16 -19v-872q0 -10 5 -15.5t18 -5.5h353q28 0 28 24v870zM73 806l52 27l415 -965l-60 -5z" />
    <glyph glyph-name="uni0000" horiz-adv-x="0" 
 />
    <glyph glyph-name="uni0000" horiz-adv-x="0" 
 />
    <glyph glyph-name="nonmarkingreturn" horiz-adv-x="333" 
 />
    <glyph glyph-name="CR" unicode="&#xd;" horiz-adv-x="210" 
 />
    <glyph glyph-name="space" unicode=" " horiz-adv-x="200" 
 />
    <glyph glyph-name="exclam" unicode="!" horiz-adv-x="277" 
d="M241 29q0 -29 -33 -29h-150q-27 0 -27 25v150q0 22 19 22h173q18 0 18 -20v-148zM202 294q-1 -15 -8.5 -21.5t-24.5 -6.5h-69q-15 0 -19.5 6t-6.5 19l-50 428q-1 11 4.5 17t14.5 6h189q20 0 18 -21z" />
    <glyph glyph-name="quotedbl" unicode="&#x22;" horiz-adv-x="509" 
d="M437 440q-2 -16 -8.5 -22.5t-24.5 -6.5h-42q-15 0 -20 6t-7 19l-40 284q-1 11 5 16.5t14 5.5h145q21 0 18 -20zM181 440q-2 -16 -8.5 -22.5t-24.5 -6.5h-42q-15 0 -20 6t-7 19l-40 284q-1 11 5 16.5t14 5.5h145q21 0 18 -20z" />
    <glyph glyph-name="numbersign" unicode="#" horiz-adv-x="603" 
d="M190 31q-2 -18 -7.5 -25.5t-24.5 -5.5l-38 5q-15 2 -22.5 6t-6.5 18l101 689q2 11 6.5 18t12.5 6l61 -6q20 -2 17 -20zM414 31q-2 -18 -7.5 -25.5t-24.5 -5.5l-38 5q-15 2 -22.5 6t-6.5 18l101 689q2 11 6.5 18t12.5 6l61 -6q20 -2 17 -20zM565 250q0 -28 -33 -28h-501
q-15 0 -20.5 6t-5.5 19v48q0 23 19 23h523q18 0 18 -20v-48zM598 460q0 -28 -33 -28h-501q-15 0 -20.5 6t-5.5 19v48q0 23 19 23h523q18 0 18 -20v-48z" />
    <glyph glyph-name="dollar" unicode="$" horiz-adv-x="687" 
d="M655 234q0 -62 -28 -112t-80 -82t-123 -41q-14 -1 -17.5 -5t-3.5 -16v-22q0 -29 -31 -29h-67q-27 0 -27 26v27q0 11 -3.5 15t-14.5 4q-68 5 -120.5 25t-100.5 54q-30 21 -14 39l77 87q10 11 18 11t17 -8q25 -23 56.5 -41.5t68.5 -27.5q18 -3 18 11l1 123q0 8 -2 11.5
t-10 5.5q-86 13 -137 46.5t-72.5 80.5t-21.5 99t24.5 96t73.5 76t121 47q7 2 15.5 7t8.5 14v31q0 8 5 12t10 4h85q11 0 16.5 -4.5t5.5 -17.5v-34q0 -7 16 -11q50 -13 90.5 -29.5t74.5 -37.5q19 -10 5 -29l-66 -88q-7 -8 -14.5 -9.5t-19.5 8.5q-13 11 -31.5 23t-41.5 20
q-7 2 -10.5 -0.5t-3.5 -7.5v-115q0 -9 13 -12l67 -16q50 -12 89 -41.5t61.5 -72t22.5 -94.5v0zM281 586q0 17 -14 14q-36 -9 -51.5 -25.5t-15.5 -35.5q0 -17 7 -29.5t20.5 -20.5t33.5 -11q11 -1 15.5 3.5t4.5 17.5v87zM402 144q0 -10 15 -7q36 8 55 24.5t19 38.5
q0 26 -18 44.5t-60 24.5q-6 1 -8.5 -1t-2.5 -10v-114v0z" />
    <glyph glyph-name="percent" unicode="%" horiz-adv-x="963" 
d="M229 753q55 0 99.5 -30.5t71 -78.5t26.5 -103q0 -54 -26 -101.5t-70.5 -76.5t-100.5 -29t-101.5 29t-71.5 76.5t-26 101.5q0 55 26.5 103t72 78.5t100.5 30.5v0zM228 432q32 0 42.5 27.5t10.5 80.5q0 57 -11.5 86.5t-41.5 29.5q-20 0 -31.5 -13.5t-16.5 -39t-5 -63.5
q0 -35 4.5 -59.5t16.5 -36.5t32 -12v0zM736 409q55 0 99.5 -30.5t71 -78.5t26.5 -103q0 -54 -26 -101.5t-70.5 -76.5t-100.5 -29t-101.5 29t-71.5 76.5t-26 101.5q0 55 26.5 103t72 78.5t100.5 30.5v0zM735 88q21 0 32.5 12t16 36.5t4.5 59.5q0 38 -5 64t-16.5 39t-31.5 13
t-31.5 -13.5t-16.5 -39t-5 -63.5q0 -35 4.5 -59.5t16.5 -36.5t32 -12v0zM292 8q-8 -12 -29 -12l-52 1q-16 0 -18.5 11.5t4.5 22.5l469 706q7 10 13.5 11.5t14.5 1.5h66q8 0 12.5 -4.5t-2.5 -15.5z" />
    <glyph glyph-name="ampersand" unicode="&#x26;" horiz-adv-x="878" 
d="M400 753q73 0 129 -21t87.5 -57.5t31.5 -85.5q0 -30 -18 -64.5t-49 -65t-69 -49.5q-7 -4 -8 -7.5t5 -9.5l73 -73q7 -7 12 -6.5t12 9.5q8 11 15 21t13.5 20.5t12 22t10.5 24.5q9 17 28 11l101 -32q11 -3 16 -13t1 -20q-11 -23 -22.5 -43t-27 -43t-38.5 -54
q-7 -10 -7 -13.5t9 -8.5q13 -8 28 -13.5t33 -8.5t38 -5q23 -1 23 -22v-117q0 -13 -6.5 -21t-17.5 -8q-52 0 -95 7t-79.5 21.5t-69.5 36.5q-10 6 -15.5 6t-15.5 -7q-51 -36 -109 -52.5t-133 -16.5q-124 0 -191.5 52t-67.5 148q0 59 42 109t134 100q10 5 10.5 10t-8.5 15
q-28 32 -44.5 69.5t-16.5 71.5q0 53 31.5 94.5t87 65t125.5 23.5v0zM410 638q-18 0 -31 -7.5t-20 -18.5t-7 -23q0 -8 6 -19.5t13 -19.5l37 -45q5 -4 11 -3.5t10 2.5q21 11 34.5 30.5t13.5 43.5q0 27 -18.5 43.5t-48.5 16.5v0zM332 296q-8 9 -14 9t-13 -5q-23 -15 -37 -36
t-14 -43q0 -20 12 -39t32.5 -30.5t44.5 -11.5q20 0 44 7.5t39 19.5q6 5 8.5 10.5t-5.5 14.5l-97 104v0z" />
    <glyph glyph-name="quotesingle" unicode="'" horiz-adv-x="253" 
d="M181 440q-2 -16 -8.5 -22.5t-24.5 -6.5h-42q-15 0 -20 6t-7 19l-40 284q-1 11 5 16.5t14 5.5h145q21 0 18 -20z" />
    <glyph glyph-name="parenleft" unicode="(" horiz-adv-x="332" 
d="M305 742q9 0 11 -5t-1 -10q-49 -98 -78.5 -211t-29.5 -232q0 -113 28 -216t80 -216q3 -6 0.5 -11.5t-11.5 -5.5h-109q-12 0 -21 13q-41 71 -72.5 138.5t-49 140.5t-17.5 158q0 125 37.5 237t99.5 206q11 14 28 14h105v0z" />
    <glyph glyph-name="parenright" unicode=")" horiz-adv-x="332" 
d="M27 742v0h105q17 0 28 -14q62 -94 99.5 -206t37.5 -237q0 -85 -17.5 -158t-49 -140.5t-72.5 -138.5q-9 -13 -21 -13h-109q-9 0 -11.5 5.5t0.5 11.5q53 113 80.5 216t27.5 216q0 119 -29 232t-79 211q-3 5 -1 10t11 5z" />
    <glyph glyph-name="asterisk" unicode="*" horiz-adv-x="521" 
d="M267 421q-2 4 -6 4t-6 -4l-74 -127q-4 -6 -12 -7t-16 5l-68 48q-15 11 -4 24l94 109q3 4 2 8.5t-8 5.5l-133 36q-17 5 -9 26l27 74q7 17 21 10l126 -58q6 -3 10 -1t3 8l-12 144q-1 5 3 10.5t12 5.5h90q8 0 12 -5.5t3 -10.5l-14 -145q-2 -12 10 -8l129 58q19 8 25 -13
l23 -73q6 -19 -13 -24l-130 -35q-5 -1 -5.5 -5.5t3.5 -8.5l90 -105q5 -6 3.5 -14t-12.5 -16l-59 -41q-10 -7 -19 -6t-13 7z" />
    <glyph glyph-name="plus" unicode="+" 
d="M562 331q0 -28 -33 -28h-463q-15 0 -20.5 6t-5.5 19v93q0 23 19 23h485q18 0 18 -20v-93zM259 113q-28 0 -28 33v463q0 15 6 20.5t19 5.5h93q23 0 23 -19v-485q0 -18 -20 -18h-93z" />
    <glyph glyph-name="comma" unicode="," horiz-adv-x="279" 
d="M56 -165q-10 0 -15 8t-1 17l50 108q14 32 -9 32h-22q-27 0 -27 25v151q0 22 19 22h173q18 0 18 -20v-146q0 -8 -4 -15l-114 -159q-8 -11 -21.5 -17t-24.5 -6h-22v0z" />
    <glyph glyph-name="hyphen" unicode="-" horiz-adv-x="380" 
d="M339 221q0 -28 -33 -28h-239q-15 0 -20.5 6t-5.5 19v92q0 23 19 23h261q18 0 18 -20v-92z" />
    <glyph glyph-name="period" unicode="." horiz-adv-x="279" 
d="M242 29q0 -29 -33 -29h-150q-27 0 -27 25v154q0 22 19 22h173q18 0 18 -20v-152z" />
    <glyph glyph-name="slash" unicode="/" horiz-adv-x="380" 
d="M17 0q-22 0 -16 19l249 705q7 18 26 18h83q28 0 17 -33l-241 -683q-5 -15 -13.5 -20.5t-21.5 -5.5h-83v0z" />
    <glyph glyph-name="zero" unicode="0" horiz-adv-x="722" 
d="M362 753q72 0 132 -28.5t104 -80.5t68.5 -122t24.5 -153q0 -110 -42 -195t-116 -133.5t-171 -48.5t-172 48.5t-117 133.5t-42 195q0 83 24.5 153t69 122t105 80.5t132.5 28.5v0zM361 148q37 0 59 21.5t31.5 69.5t9.5 129q0 84 -10 134.5t-32 73.5t-58 23t-58 -23t-32 -74
t-10 -134q0 -80 10 -128.5t32 -70t58 -21.5v0z" />
    <glyph glyph-name="one" unicode="1" horiz-adv-x="537" 
d="M486 164q23 0 23 -19v-123q0 -9 -6 -15.5t-19 -6.5h-425q-24 0 -24 21v124q0 19 22 19h89q12 0 12 9v334q0 17 -17 13l-80 -18q-27 -6 -27 23v84q0 13 4 18.5t14 10.5l180 90q16 8 26 11t24 3h85q18 0 18 -21v-545q0 -12 11 -12h90v0z" />
    <glyph glyph-name="two" unicode="2" horiz-adv-x="673" 
d="M256 328q52 43 83 71t47 47t21.5 34.5t5.5 33.5q0 22 -10.5 39.5t-29.5 27.5t-47 10q-25 0 -46 -10.5t-41 -34.5t-42 -65q-4 -7 -12 -8.5t-20 4.5l-119 59q-12 6 -14 17.5t5 21.5q56 91 128.5 134t172.5 43q91 0 157 -30t102 -83t36 -123q0 -38 -12.5 -72t-41.5 -65.5
t-78 -64.5l-175 -117q-7 -4 -7 -8t13 -4h285q23 0 23 -19v-144q0 -9 -6 -15.5t-19 -6.5h-559q-15 0 -21 5t-6 20v99q0 5 3 11t15.5 18.5t40.5 35.5z" />
    <glyph glyph-name="three" unicode="3" horiz-adv-x="685" 
d="M58 618q-10 11 0 26q24 32 67.5 56t98 38t111.5 14q94 0 161 -24.5t102.5 -69t35.5 -104.5q0 -43 -28 -86t-84 -60q-11 -4 -11.5 -10.5t10.5 -10.5q42 -14 72.5 -39.5t47 -57.5t16.5 -69q0 -77 -37 -128.5t-111 -77t-186 -25.5q-61 0 -119 17.5t-104 48t-72 69.5
q-7 11 -4.5 21t12.5 16l101 70q10 6 16.5 6t10.5 -5q31 -31 56 -50t52 -28t63 -9q47 0 73 19.5t26 51.5q0 24 -13 42t-37 28.5t-56 11.5l-84 2q-21 0 -21 17v121q0 14 21 17l67 4q32 2 54.5 12.5t35 27.5t12.5 39q0 17 -11 31t-29.5 22t-41.5 8q-43 0 -77 -16t-75 -55
q-7 -7 -11.5 -7.5t-12.5 6.5l-97 90v0z" />
    <glyph glyph-name="four" unicode="4" horiz-adv-x="716" 
d="M348 717q13 16 22 20.5t29 4.5h164q19 0 19 -21v-399q0 -12 11 -12h74q22 0 22 -19v-110q0 -22 -24 -22h-71q-12 0 -12 -13v-117q0 -29 -33 -29h-171q-27 0 -27 25l1 124q0 10 -14 10h-285q-25 0 -25 22v104q0 11 8 24.5t25 35.5l287 372v0zM346 310q9 0 9 7v193
q0 14 -3 14.5t-11 -10.5l-137 -191q-10 -13 7 -13h135z" />
    <glyph glyph-name="five" unicode="5" horiz-adv-x="690" 
d="M573 742q22 0 26.5 -5.5t3.5 -23.5l-6 -128q-1 -13 -7.5 -18t-20.5 -5h-299q-20 0 -21 -18l-8 -67q-1 -9 4 -12.5t12 -1.5q40 11 67 16t61 5q81 0 143.5 -28.5t98 -82.5t35.5 -131q0 -79 -39 -135.5t-109 -86.5t-165 -30q-109 0 -193.5 37t-122.5 94q-7 11 -9.5 22
t11.5 20l108 73q18 13 33 -4q20 -23 40.5 -43t46.5 -31.5t62 -11.5q37 0 62.5 12t38.5 32.5t13 44.5q0 23 -11.5 44t-36 34t-63.5 13q-23 0 -44.5 -6t-55.5 -21q-10 -4 -14.5 -4t-15.5 6l-119 64q-11 6 -12.5 15t-0.5 23l29 309q2 17 10.5 23.5t34.5 6.5h433z" />
    <glyph glyph-name="six" unicode="6" horiz-adv-x="701" 
d="M373 750q57 0 103.5 -16t81.5 -40.5t55.5 -52t24.5 -51.5q2 -8 0.5 -16t-12.5 -11l-143 -42q-10 -3 -15 3t-7 10q-16 27 -34.5 44.5t-53.5 17.5t-61.5 -17.5t-41 -49.5t-14.5 -76q0 -19 4.5 -22.5t20.5 2.5q30 12 58 20t70 8q78 0 137.5 -28t93.5 -78t34 -115
q0 -71 -41 -127.5t-111 -88.5t-158 -32q-102 0 -177 45t-115.5 126t-40.5 189q0 125 43.5 214t121 136.5t177.5 47.5v0zM357 317q-16 0 -34 -4t-32.5 -10t-22.5 -12q-6 -4 -8 -9t-2 -19q0 -30 7 -53.5t20 -40t31 -25t40 -8.5q26 0 47.5 12t34 33.5t12.5 49.5q0 29 -13.5 48
t-34.5 28.5t-45 9.5v0z" />
    <glyph glyph-name="seven" unicode="7" horiz-adv-x="632" 
d="M569 742q19 0 28.5 -8.5t8.5 -19.5l-4 -67q-1 -10 -12 -32.5t-20 -36.5q-34 -52 -63 -109.5t-52.5 -117.5t-40.5 -117.5t-27 -108.5t-12 -92q-1 -33 -25 -33h-211q-28 0 -20 29q17 56 36 108.5t46.5 111.5t68 130.5t98.5 164.5q5 8 4 13t-13 5h-305q-29 0 -27 25l14 138
q2 17 30 17h498z" />
    <glyph glyph-name="eight" unicode="8" horiz-adv-x="693" 
d="M339 752q84 0 150.5 -27.5t105 -74.5t38.5 -106q0 -39 -24 -71.5t-69 -54.5q-17 -8 -1 -20q51 -30 78.5 -58.5t38 -57.5t10.5 -63q0 -73 -42.5 -124.5t-117.5 -78t-173 -26.5q-89 0 -158 22t-108 65t-39 105q0 47 24.5 85t91.5 72q7 3 8.5 6t-6.5 9q-23 19 -46 39.5
t-37.5 49.5t-14.5 72q0 64 34 117.5t99 86.5t158 33v0zM343 607q-23 0 -42.5 -7.5t-30.5 -21.5t-11 -34q0 -41 48 -58l64 -22q14 -5 27.5 0.5t24 17t16.5 26.5t6 28q0 27 -26 49t-76 22v0zM347 135q46 0 70 17.5t24 46.5q0 20 -12 37t-53 31l-71 25q-15 5 -30 1.5t-28 -14
t-21 -26.5t-8 -35q0 -38 29 -60.5t100 -22.5v0z" />
    <glyph glyph-name="nine" unicode="9" horiz-adv-x="701" 
d="M328 -8q-57 0 -103.5 16t-81.5 40.5t-55 52t-25 51.5q-1 8 0.5 16t11.5 11l143 42q10 3 15 -2.5t7 -10.5q17 -27 35 -44.5t53 -17.5t61.5 17.5t41 50t14.5 75.5q0 19 -4.5 22.5t-20.5 -2.5q-30 -12 -58 -20t-70 -8q-77 0 -137 28t-94 78t-34 115q0 72 41 128t111.5 88
t157.5 32q103 0 177.5 -45t115 -126t40.5 -189q0 -124 -43.5 -213.5t-120.5 -137t-178 -47.5v0zM344 425q17 0 34.5 4t32 10t22.5 12q6 5 8 10t2 18q0 30 -7 53.5t-20 40t-31 25t-40 8.5q-26 0 -47.5 -12t-34 -33.5t-12.5 -49.5q0 -29 13.5 -48t35 -28.5t44.5 -9.5v0z" />
    <glyph glyph-name="colon" unicode=":" horiz-adv-x="279" 
d="M242 357q0 -29 -33 -29h-150q-27 0 -27 26v149q0 22 19 22h173q18 0 18 -20v-148zM242 32q0 -29 -33 -29h-150q-27 0 -27 26v149q0 22 19 22h173q18 0 18 -20v-148z" />
    <glyph glyph-name="semicolon" unicode=";" horiz-adv-x="279" 
d="M56 -169q-10 0 -15 8t-1 17l50 112q13 32 -9 32h-22q-27 0 -27 25v151q0 22 19 22h173q18 0 18 -20v-146q0 -8 -4 -15l-114 -163q-8 -11 -21.5 -17t-24.5 -6h-22v0zM59 321q-27 0 -27 25v154q0 22 19 22h173q18 0 18 -20v-152q0 -29 -33 -29h-150v0z" />
    <glyph glyph-name="less" unicode="&#x3c;" horiz-adv-x="599" 
d="M544 114q0 -19 -11 -25t-27 0l-443 170q-12 5 -20 13t-8 21v111q0 15 7.5 23.5t20.5 12.5l444 171q15 6 26 -2.5t11 -22.5v-96q0 -30 -45 -47l-253 -95l253 -92q24 -9 34.5 -18.5t10.5 -27.5v-96z" />
    <glyph glyph-name="equal" unicode="=" 
d="M562 427q0 -28 -33 -28h-463q-15 0 -20.5 6t-5.5 19v93q0 23 19 23h485q18 0 18 -20v-93zM562 186q0 -28 -33 -28h-463q-15 0 -20.5 6t-5.5 19v93q0 23 19 23h485q18 0 18 -20v-93z" />
    <glyph glyph-name="greater" unicode="&#x3e;" horiz-adv-x="599" 
d="M55 210q0 18 10.5 27.5t34.5 18.5l253 92l-253 95q-45 17 -45 47v96q0 14 11 22.5t26 2.5l444 -171q13 -4 20.5 -12.5t7.5 -23.5v-111q0 -13 -8 -21t-20 -13l-443 -170q-16 -6 -27 0t-11 25v96v0z" />
    <glyph glyph-name="question" unicode="?" horiz-adv-x="546" 
d="M357 29q0 -29 -33 -29h-151q-15 0 -20.5 6t-5.5 19v150q0 22 19 22h173q18 0 18 -20v-148zM6 561q-10 2 -11.5 10.5t1.5 16.5q32 80 100 122t168 42q78 0 136 -24t90 -63t32 -85q0 -45 -19.5 -75t-47.5 -52.5t-56.5 -44t-48 -48.5t-19.5 -67q0 -10 -7 -17t-18 -7h-105
q-26 0 -26 29q0 50 15.5 85.5t38 61.5t45 46t38 38.5t15.5 39.5q0 24 -19.5 38.5t-45.5 14.5q-21 0 -40.5 -9t-35 -26t-26.5 -42q-4 -10 -9.5 -12t-16.5 0z" />
    <glyph glyph-name="at" unicode="@" horiz-adv-x="834" 
d="M670 -46q-31 -25 -94.5 -46t-147.5 -21q-93 0 -166 29t-124.5 80.5t-78 119.5t-26.5 146q0 81 28.5 153t83 127.5t131.5 87t174 31.5q70 0 135.5 -18.5t118 -57.5t83 -100.5t30.5 -146.5q0 -75 -25 -133t-70 -91t-105 -33q-47 0 -70 16.5t-32 26.5q-4 5 -6 4.5t-7 -5.5
q-22 -25 -55.5 -40.5t-74.5 -15.5q-46 0 -82 22t-56.5 61.5t-20.5 93.5q0 60 25 112.5t72 85.5t112 33q42 0 64 -13t39 -29q3 -3 6 -2t4 6l1 5q1 7 11 7h87q9 0 8 -8l-35 -206q-5 -29 3 -39.5t21 -10.5q18 0 35.5 15t29.5 47.5t12 84.5q0 66 -21 110t-57 70t-82.5 37
t-97.5 11q-83 0 -141 -23.5t-94 -64.5t-52.5 -94t-16.5 -113q0 -72 21.5 -125.5t61 -89t94.5 -53.5t122 -18q44 0 73.5 6.5t52.5 18t45 25.5q14 9 21 -1l40 -54q5 -6 2 -10.5t-9 -9.5v0zM345 258q0 -30 15 -55t48 -25q26 0 46 15.5t31.5 40t11.5 49.5q0 20 -7.5 38.5
t-21.5 30.5t-36 12t-42 -14t-32.5 -38t-12.5 -54v0z" />
    <glyph glyph-name="A" unicode="A" horiz-adv-x="799" 
d="M43 0q-11 0 -16 10.5t1 26.5l242 682q5 12 11 17.5t19 5.5h197q26 0 36 -27l240 -681q4 -10 0.5 -22t-14.5 -12h-196q-17 0 -22 17l-39 115q-2 5 -4.5 8.5t-10.5 3.5h-212q-12 0 -15 -11l-41 -118q-2 -6 -7.5 -10.5t-16.5 -4.5h-152v0zM437 314q15 0 9 20l-60 171
q-2 5 -6 5t-6 -5l-61 -170q-8 -21 10 -21h114z" />
    <glyph glyph-name="B" unicode="B" horiz-adv-x="739" 
d="M75 0q-10 0 -16.5 6.5t-6.5 15.5v694q0 11 7 18.5t18 7.5h298q155 0 236 -49.5t81 -146.5q0 -52 -28 -88.5t-103 -71.5q-2 -1 -2 -3.5t2 -3.5q83 -31 116 -72t33 -105q0 -103 -78.5 -152.5t-240.5 -49.5h-316v0zM386 150q44 0 66 24t22 53q0 21 -10.5 37t-29 25t-43.5 9
h-89q-23 0 -23 -21v-105q0 -22 17 -22h90zM391 452q18 0 32 5t24 14.5t15.5 21.5t5.5 27q0 33 -24.5 52.5t-59.5 19.5h-82q-23 0 -23 -20v-98q0 -22 17 -22h95z" />
    <glyph glyph-name="C" unicode="C" horiz-adv-x="737" 
d="M385 752q63 0 116.5 -17t95 -48t68 -73t36.5 -92q5 -21 1.5 -27t-14.5 -8l-175 -11q-11 0 -14 4.5t-5 14.5q-8 44 -30.5 73.5t-72.5 29.5q-56 0 -89.5 -49.5t-33.5 -171.5q0 -124 30.5 -173.5t91.5 -49.5q50 0 88.5 25.5t64.5 91.5q5 12 28 8l125 -25q5 -1 11 -7t3 -26
q-3 -16 -16 -44t-37 -60.5t-62 -61t-90.5 -47t-121.5 -18.5q-107 0 -186.5 50.5t-123 139t-43.5 201.5t43.5 196t123.5 129t188 46v0z" />
    <glyph glyph-name="D" unicode="D" horiz-adv-x="771" 
d="M79 742h61h75h73.5t56.5 -1q134 -4 221.5 -52t130.5 -129.5t43 -187.5q0 -107 -44 -191.5t-132 -132.5t-220 -48h-263q-29 0 -29 30v687q0 14 6 19.5t21 5.5v0zM289 585q-10 0 -10 -14v-399q0 -15 14 -15h7q63 0 108 21t69.5 69t24.5 127q0 70 -20 116.5t-62 70.5
t-107 24h-24v0z" />
    <glyph glyph-name="E" unicode="E" horiz-adv-x="671" 
d="M52 719q0 23 19 23h540q18 0 18 -21l-1 -116q0 -27 -26 -27h-300q-23 0 -23 -19v-85q0 -21 18 -21h180q21 0 21 -20v-124q0 -7 -4 -12t-14 -5h-185q-16 0 -16 -14v-100q0 -14 12 -14h325q22 0 22 -19v-123q0 -9 -5.5 -15.5t-18.5 -6.5h-535q-27 0 -27 25v694v0z" />
    <glyph glyph-name="F" unicode="F" horiz-adv-x="650" 
d="M52 719q0 23 19 23h533q18 0 18 -21l-1 -116q0 -27 -25 -27h-294q-23 0 -23 -19v-94q0 -20 18 -20h183q20 0 20 -20v-122q0 -17 -18 -17h-187q-16 0 -16 -15v-242q0 -29 -33 -29h-167q-16 0 -21.5 6t-5.5 19v694v0z" />
    <glyph glyph-name="G" unicode="G" horiz-adv-x="761" 
d="M380 -10q-105 0 -184 48t-122.5 133.5t-43.5 196.5q0 116 46 202t128 134t189 48q90 0 157 -32.5t107.5 -82.5t52.5 -104q5 -21 1.5 -27t-15.5 -8l-171 -26q-12 0 -15 5t-5 15q-5 28 -19 51.5t-38 38.5t-60 15q-37 0 -64 -20.5t-41.5 -69t-14.5 -133.5q0 -90 16 -139.5
t45 -69t67 -19.5q21 0 38 4.5t30.5 13.5t23 22t16.5 30l3 9q6 17 -9 17h-94q-10 0 -15 4.5t-5 17.5v96q0 17 21 17l280 -2q19 0 28.5 -8.5t9.5 -22.5v-327q0 -7 -4.5 -12t-12.5 -5h-38q-9 0 -16.5 4.5t-15.5 14.5l-40 58q-2 3 -4.5 3t-6.5 -5q-18 -17 -43 -37t-64 -34
t-98 -14v0z" />
    <glyph glyph-name="H" unicode="H" horiz-adv-x="762" 
d="M295 297q-16 0 -16 -15v-253q0 -29 -33 -29h-167q-16 0 -21.5 6t-5.5 19v694q0 23 19 23h190q18 0 18 -21v-232q0 -20 18 -20h168q18 0 18 20v232q0 21 18 21h190q19 0 19 -23v-694q0 -13 -5.5 -19t-21.5 -6h-167q-33 0 -33 29v253q0 15 -16 15h-172z" />
    <glyph glyph-name="I" unicode="I" horiz-adv-x="331" 
d="M261 742q18 0 18 -21v-692q0 -16 -8 -22.5t-25 -6.5h-167q-16 0 -21.5 6t-5.5 19v694q0 23 19 23h190z" />
    <glyph glyph-name="J" unicode="J" horiz-adv-x="467" 
d="M420 212q0 -123 -60.5 -172.5t-177.5 -49.5q-31 0 -60.5 3t-63.5 9q-17 3 -24.5 12.5t-6.5 30.5l9 114q2 26 24 23q12 -1 25.5 -4t29.5 -3q37 0 57.5 21t20.5 72v451q0 23 20 23h189q18 0 18 -21v-509v0z" />
    <glyph glyph-name="K" unicode="K" horiz-adv-x="772" 
d="M745 31q6 -12 3.5 -21.5t-17.5 -9.5h-195q-27 0 -36 20l-122 278q-8 13 -22 -5l-71 -91q-6 -7 -6 -22v-151q0 -29 -33 -29h-167q-16 0 -21.5 6t-5.5 19v694q0 23 19 23h190q18 0 18 -21v-253q0 -12 4.5 -12t10.5 7l184 258q8 11 16.5 16t26.5 5h152q17 0 24 -9t-3 -20
l-164 -201q-11 -14 -3 -32l218 -449v0z" />
    <glyph glyph-name="L" unicode="L" horiz-adv-x="643" 
d="M52 719q0 23 19 23h190q18 0 18 -21v-543q0 -14 12 -14h301q23 0 23 -19v-123q0 -9 -6 -15.5t-19 -6.5h-511q-16 0 -21.5 6t-5.5 19v694v0z" />
    <glyph glyph-name="M" unicode="M" horiz-adv-x="977" 
d="M78 0q-26 0 -26 28v691q0 23 21 23h280q13 0 18.5 -3.5t9.5 -14.5l104 -318q3 -8 7 -7.5t6 7.5l93 307q8 29 27 29h289q18 0 18 -21v-692q0 -29 -32 -29h-169q-15 0 -20.5 6t-5.5 19v449q0 8 -4.5 8t-7.5 -9l-144 -455q-7 -18 -24 -18h-105q-18 0 -24 18l-144 447
q-4 12 -8 10.5t-4 -11.5v-442q0 -13 -4 -17.5t-18 -4.5h-133v0z" />
    <glyph glyph-name="N" unicode="N" horiz-adv-x="761" 
d="M694 742q15 0 15 -17v-707q0 -8 -6.5 -13t-16.5 -5h-137q-8 0 -13.5 2.5t-13.5 12.5l-275 373q-4 5 -7 4t-3 -6v-364q1 -22 -24 -22h-136q-25 0 -25 20v699q0 23 22 23h163q13 0 19.5 -3.5t14.5 -14.5l240 -334q7 -9 11.5 -8.5t4.5 12.5v327q0 21 22 21h145z" />
    <glyph glyph-name="O" unicode="O" horiz-adv-x="780" 
d="M391 -10q-110 0 -191 46.5t-125 132t-44 200.5q0 116 45 202t126 133.5t189 47.5t188.5 -47.5t125 -133.5t44.5 -202q0 -115 -44 -200t-124.5 -132t-189.5 -47v0zM391 146q65 0 92.5 50t27.5 170q0 124 -28 178t-92 54q-65 0 -93.5 -54t-28.5 -178q0 -120 27.5 -170
t94.5 -50v0z" />
    <glyph glyph-name="P" unicode="P" horiz-adv-x="731" 
d="M703 501q0 -73 -35 -125.5t-96.5 -81t-143.5 -28.5h-137q-12 0 -12 -11v-226q0 -29 -33 -29h-168q-15 0 -20.5 6t-5.5 19v694q0 23 19 23h331q82 0 150.5 -26.5t109.5 -80t41 -134.5v0zM471 504q0 24 -11 41.5t-30 27t-42 9.5h-86q-23 0 -23 -21v-113q0 -22 17 -22h98
q36 0 56.5 23t20.5 55v0z" />
    <glyph glyph-name="Q" unicode="Q" horiz-adv-x="782" 
d="M31 369q0 116 45 202t126 133.5t189 47.5t189 -47.5t125.5 -133.5t44.5 -202q0 -90 -27.5 -161.5t-77.5 -121.5q-2 -2 -2 -8q0 -8 13.5 -18.5t34.5 -18.5t42 -11q11 -1 14 -6.5t3 -10.5v-110q0 -19 -10 -25t-34 -6q-75 0 -130.5 31.5t-98.5 86.5q-4 6 -15 4
q-18 -2 -34.5 -3t-36.5 -1q-110 0 -191 46.5t-125 132t-44 200.5v0zM269 367q0 -121 27.5 -171t94.5 -50q66 0 93.5 50t27.5 171q0 124 -28 177.5t-93 53.5t-93.5 -53.5t-28.5 -177.5v0z" />
    <glyph glyph-name="R" unicode="R" horiz-adv-x="739" 
d="M701 32q5 -13 -0.5 -22.5t-17.5 -9.5h-194q-21 0 -27 21l-94 258q-6 16 -31 16h-46q-7 0 -9.5 -4.5t-2.5 -6.5v-255q0 -29 -33 -29h-168q-15 0 -20.5 6t-5.5 19v694q0 23 19 23h334q145 0 225 -55.5t80 -156.5q0 -47 -17 -87t-46.5 -68.5t-67.5 -43.5q-10 -4 -4 -19
l126 -280v0zM396 444q38 0 58.5 20t20.5 52q0 38 -25.5 58t-59.5 20h-88q-23 0 -23 -20v-109q0 -21 17 -21h100v0z" />
    <glyph glyph-name="S" unicode="S" horiz-adv-x="701" 
d="M494 543q-18 20 -45 37t-86 17q-56 0 -79 -16t-23 -35q0 -9 5.5 -18.5t19.5 -18t39 -14.5l166 -43q94 -23 138.5 -82t44.5 -136q0 -74 -39 -129t-110.5 -85t-170.5 -30q-73 0 -138.5 16.5t-114.5 46.5t-73 69q-6 11 -5 18t11 15l103 71q14 9 23 7.5t15 -9.5
q22 -28 44 -46t50.5 -26t67.5 -8q55 0 88 15t33 43q0 12 -7 22.5t-20.5 18.5t-35.5 13l-152 37q-60 15 -104 47.5t-68 77.5t-24 97q0 65 37.5 119t107 86t163.5 32q60 0 114.5 -13.5t97.5 -37.5t66 -57q5 -7 7.5 -14.5t-7.5 -15.5l-109 -79q-7 -5 -13 -3.5t-17 11.5v0z" />
    <glyph glyph-name="T" unicode="T" horiz-adv-x="704" 
d="M28 719q0 10 6 16.5t19 6.5h598q13 0 19 -6.5t6 -16.5v-119q0 -19 -22 -19h-177q-12 0 -12 -10v-549q0 -22 -19 -22h-190q-18 0 -18 20v547q0 14 -11 14h-176q-23 0 -23 19v119z" />
    <glyph glyph-name="U" unicode="U" horiz-adv-x="728" 
d="M684 293q0 -115 -40 -181.5t-112 -94t-168 -27.5q-120 0 -190 37t-100 109.5t-30 176.5v406q0 23 19 23h190q18 0 18 -21v-432q0 -76 29.5 -108t80.5 -32q31 0 57.5 12.5t42.5 44t16 86.5v427q0 23 19 23h150q18 0 18 -21v-428v0z" />
    <glyph glyph-name="V" unicode="V" horiz-adv-x="751" 
d="M707 742q12 0 17.5 -9t1.5 -20l-232 -688q-7 -25 -37 -25h-162q-30 0 -37 25l-232 688q-4 11 1.5 20t17.5 9h193q19 0 25 -21l134 -439q5 -15 10 1l125 438q5 21 26 21h149v0z" />
    <glyph glyph-name="W" unicode="W" horiz-adv-x="1109" 
d="M1052 742q20 0 27.5 -11.5t2.5 -28.5l-203 -677q-9 -25 -36 -25h-138q-29 0 -36 25l-104 352q-3 12 -7 12.5t-9 -14.5l-103 -350q-7 -25 -36 -25h-143q-27 0 -36 25l-204 677q-4 17 3.5 28.5t26.5 11.5h165q16 0 22.5 -5.5t9.5 -15.5l106 -371q3 -11 6.5 -11.5t5.5 7.5
l105 375q2 10 9 15.5t23 5.5h140q16 0 22.5 -5.5t9.5 -15.5l110 -380q2 -6 6 -7t5 5l102 382q2 10 9 15.5t23 5.5h116v0z" />
    <glyph glyph-name="X" unicode="X" horiz-adv-x="756" 
d="M719 51q19 -29 13 -40t-27 -11h-180q-31 0 -42 20l-110 188q-8 14 -14 14.5t-14 -13.5l-108 -189q-6 -11 -17 -15.5t-26 -4.5h-142q-21 0 -26.5 10.5t13.5 40.5l197 305q8 11 7.5 18t-7.5 18l-202 315q-7 11 -4 23t20 12h189q17 0 25.5 -5t14.5 -16l91 -161q5 -8 11.5 -8
t10.5 8l91 161q6 11 14.5 16t24.5 5h155q18 0 19.5 -11t-6.5 -22l-189 -290q-7 -10 -6 -17.5t8 -18.5l216 -332v0z" />
    <glyph glyph-name="Y" unicode="Y" horiz-adv-x="774" 
d="M733 742q13 0 16.5 -6.5t-2.5 -16.5l-234 -378q-7 -10 -8.5 -22t-1.5 -44v-246q0 -29 -33 -29h-168q-15 0 -20.5 6t-5.5 19v263q0 16 -3.5 24.5t-10.5 19.5l-234 382q-7 12 -2.5 20t20.5 8h201q15 0 21 -4.5t13 -16.5l123 -222q5 -9 8.5 -9.5t8.5 8.5l121 223q6 13 13 17
t21 4h157v0z" />
    <glyph glyph-name="Z" unicode="Z" horiz-adv-x="714" 
d="M52 0q-15 0 -20.5 5t-5.5 20v45q0 16 3.5 23.5t17.5 27.5l308 440q10 16 -9 16h-265q-13 0 -17.5 5.5t-4.5 18.5v120q0 21 18 21h587q19 0 19 -20v-51q0 -11 -3.5 -19t-13.5 -22l-320 -450q-5 -8 0 -11t12 -3h297q22 0 22 -19v-125q0 -9 -5.5 -15.5t-18.5 -6.5h-601v0z
" />
    <glyph glyph-name="bracketleft" unicode="[" horiz-adv-x="336" 
d="M46 720q0 22 26 22h234q15 0 15 -13v-80q0 -14 -15 -14h-76q-25 0 -25 -27v-645q0 -13 4.5 -17t16.5 -4h77q18 0 18 -16v-73q0 -18 -18 -18h-228q-29 0 -29 26v859v0z" />
    <glyph glyph-name="backslash" unicode="\" horiz-adv-x="380" 
d="M279 0q-13 0 -21.5 5.5t-13.5 20.5l-241 683q-11 33 17 33h83q19 0 26 -18l249 -705q6 -19 -16 -19h-83v0z" />
    <glyph glyph-name="bracketright" unicode="]" horiz-adv-x="336" 
d="M290 720v0v-859q0 -26 -29 -26h-228q-18 0 -18 18v73q0 16 18 16h77q12 0 16.5 4t4.5 17v645q0 27 -25 27h-76q-15 0 -15 14v80q0 13 15 13h234q26 0 26 -22z" />
    <glyph glyph-name="asciicircum" unicode="^" horiz-adv-x="475" 
d="M248 319q-4 11 -11.5 11t-12.5 -11l-78 -190q-3 -7 -9.5 -8t-16.5 -1h-83q-21 0 -11 24l156 360q10 23 32 31.5t44.5 1t32.5 -31.5l156 -364q8 -21 -15 -21h-79q-9 0 -17 1t-10 8z" />
    <glyph glyph-name="underscore" unicode="_" horiz-adv-x="562" 
d="M522 -132q0 -28 -33 -28h-423q-15 0 -20.5 6t-5.5 19v92q0 23 19 23h445q18 0 18 -20v-92z" />
    <glyph glyph-name="grave" unicode="`" horiz-adv-x="320" 
d="M41 739q7 18 21 12l239 -98q14 -6 8 -24l-15 -43q-4 -10 -10 -13t-19 0l-233 56q-27 7 -19 32l28 78v0z" />
    <glyph glyph-name="a" unicode="a" horiz-adv-x="573" 
d="M313 42q-27 -22 -62.5 -37t-82.5 -15q-75 0 -117.5 42t-42.5 104q0 59 37.5 103t106.5 68.5t163 24.5h7q4 0 9.5 2.5t5.5 11.5v17q0 28 -14.5 43t-44.5 15q-21 0 -43 -9.5t-35 -37.5q-4 -8 -8.5 -10.5t-18.5 -0.5l-131 26q-7 2 -10.5 7.5t3.5 24.5q23 64 88.5 91.5
t163.5 27.5q93 0 145 -21t73.5 -58t21.5 -86v-348q0 -15 -4.5 -21t-18.5 -6h-137q-13 0 -18.5 10.5t-7.5 24.5l-1 7q-3 20 -27 0v0zM337 224q0 18 -15 18h-4q-12 0 -31.5 -4.5t-38.5 -14t-32.5 -24.5t-13.5 -36t15 -34t42 -13q20 0 33.5 6t21.5 13q9 8 16 16.5t7 19.5v53v0z
" />
    <glyph glyph-name="b" unicode="b" horiz-adv-x="616" 
d="M68 0q-16 0 -21.5 6t-5.5 19v694q0 23 19 23h163q18 0 18 -21v-225q0 -12 6 -13t13 5q21 20 41.5 31t42 16t43.5 5q65 0 111 -33t70.5 -93.5t24.5 -144.5q0 -127 -58.5 -203t-168.5 -76q-31 0 -59.5 10t-52.5 29t-44 44q-4 5 -7.5 4t-5.5 -7l-16 -47q-7 -23 -26 -23h-87z
M241 185q0 -25 9 -42.5t25 -26.5t37 -9q26 0 43.5 15t26.5 50t9 93q0 87 -19.5 120t-56.5 33q-23 0 -41 -10.5t-33 -29.5v-193z" />
    <glyph glyph-name="c" unicode="c" horiz-adv-x="556" 
d="M298 540q72 0 122 -26.5t79 -65.5t37 -78q7 -25 -18 -26l-137 -7q-14 -1 -17 14q-2 13 -7 27.5t-17.5 25t-36.5 10.5t-42 -15t-28 -47.5t-10 -86.5q0 -55 11 -88.5t31.5 -48t48.5 -14.5q41 0 60.5 22.5t38.5 56.5q2 4 6 5.5t14 -0.5l94 -18q14 -3 9 -23q-4 -19 -19 -47.5
t-43 -55.5t-71.5 -45.5t-104.5 -18.5q-80 0 -142.5 34.5t-98.5 96t-36 142.5q0 83 36.5 145t99 97t141.5 35v0z" />
    <glyph glyph-name="d" unicode="d" horiz-adv-x="616" 
d="M403 0q-10 0 -17.5 5t-7.5 18v19q0 7 -5 8t-10 -4q-19 -18 -39.5 -30.5t-45 -19t-55.5 -6.5q-59 0 -104 30.5t-70.5 91.5t-25.5 151q0 84 29.5 146t77.5 96.5t103 34.5q34 0 63.5 -11t60.5 -41q8 -6 13.5 -5t5.5 13v225q0 21 18 21h162q19 0 19 -23v-694q0 -13 -5.5 -19
t-21.5 -6h-145v0zM375 378q-16 19 -31.5 28.5t-38.5 9.5t-41.5 -14t-28.5 -47t-10 -91q0 -57 9.5 -91t27.5 -48.5t43 -14.5q20 0 35.5 8.5t25 23.5t9.5 34v202v0z" />
    <glyph glyph-name="e" unicode="e" horiz-adv-x="590" 
d="M227 212q0 -30 13.5 -50t37 -30t52.5 -10q26 0 51 12t58 44q4 4 7.5 4.5t13.5 -3.5l91 -37q18 -7 4 -24q-36 -50 -72.5 -78t-80 -39t-99.5 -11q-80 0 -144 34t-101 94t-37 138q0 85 38.5 149t102 99.5t137.5 35.5q79 0 140 -34t96.5 -97.5t35.5 -154.5q0 -13 -2.5 -18.5
t-15.5 -6.5h-311q-7 0 -11 -4t-4 -13v0zM360 332q10 0 13.5 2.5t3.5 11.5q0 13 -7 31t-22 32t-40 14q-20 0 -38.5 -9.5t-29 -29.5t-10.5 -51z" />
    <glyph glyph-name="f" unicode="f" horiz-adv-x="418" 
d="M375 530q13 0 19 -6.5t6 -15.5v-94q0 -19 -22 -19h-62q-12 0 -12 -12v-361q0 -22 -19 -22h-163q-18 0 -18 20v365q0 10 -8 10h-56q-22 0 -22 19v94q0 9 5.5 15.5t18.5 6.5h48q14 0 14 18v53q0 65 42.5 103t115.5 38h113q29 0 29 -26l1 -84q0 -8 -4.5 -14t-13.5 -6h-43
q-17 0 -31 -15t-14 -36v-18q0 -13 13 -13h63v0z" />
    <glyph glyph-name="g" unicode="g" horiz-adv-x="653" 
d="M615 562q8 0 14 -5.5t6 -19.5v-90q0 -17 -7.5 -23.5t-18.5 -2.5q-10 3 -22.5 5t-21.5 2q-27 0 -20 -23q2 -7 3.5 -15t1.5 -16q0 -45 -29 -82.5t-86.5 -60t-141.5 -22.5q-33 0 -53.5 -3.5t-30 -9.5t-9.5 -14q0 -11 11 -15t33 -6l152 -9q111 -7 162.5 -47t51.5 -102
q0 -76 -76 -127t-227 -51q-157 0 -234 29.5t-77 92.5q0 34 28.5 52t68.5 29q14 4 0 11q-26 13 -46 32.5t-20 50.5q0 24 16 42.5t41 34t52 26.5q5 2 8 5t-5 7q-49 21 -76.5 55.5t-27.5 80.5q0 72 68 118.5t202 46.5q57 0 99.5 -12.5t67.5 -32.5q8 -6 17 -5t14 8
q14 19 34.5 34t42 23.5t35.5 8.5v0zM291 300q42 0 60 22t18 48q0 31 -18 53t-60 22q-37 0 -57.5 -22t-20.5 -53q0 -27 20.5 -48.5t57.5 -21.5v0zM226 8q-21 1 -36.5 -3.5t-24 -12.5t-8.5 -19q0 -18 14 -31.5t48.5 -20.5t97.5 -7q59 0 89.5 14.5t30.5 36.5q0 14 -17 25
t-49 12z" />
    <glyph glyph-name="h" unicode="h" horiz-adv-x="605" 
d="M68 0q-26 0 -26 25v694q0 23 19 23h160q18 0 18 -21v-249q0 -6 3.5 -7.5t9.5 3.5q29 28 55.5 43.5t52.5 22t52 6.5q74 0 115 -42.5t41 -122.5v-345q0 -30 -30 -30h-147q-13 0 -18 5.5t-5 19.5v326q0 23 -14 35.5t-38 12.5q-15 0 -28.5 -5.5t-24.5 -16.5t-21 -28v-320
q0 -29 -33 -29h-141v0z" />
    <glyph glyph-name="i" unicode="i" horiz-adv-x="282" 
d="M241 29q0 -16 -8 -22.5t-25 -6.5h-141q-15 0 -20.5 6t-5.5 19v482q0 23 19 23h163q18 0 18 -20v-481zM241 603q0 -29 -33 -29h-141q-15 0 -20.5 6.5t-5.5 19.5v119q0 23 19 23h163q18 0 18 -21v-118z" />
    <glyph glyph-name="j" unicode="j" horiz-adv-x="283" 
d="M242 29q0 -99 -51.5 -149t-158.5 -50q-42 0 -55 4.5t-13 20.5l-1 102q0 8 5 16.5t15 10.5l35 6q10 3 17 12t7 34v471q0 23 20 23h162q18 0 18 -20v-481v0zM242 603q0 -29 -32 -29h-141q-27 0 -27 26v119q0 23 20 23h162q18 0 18 -21v-118z" />
    <glyph glyph-name="k" unicode="k" horiz-adv-x="631" 
d="M615 28q5 -8 0 -18t-19 -10h-171q-13 0 -20.5 7t-12.5 19l-72 172q-4 10 -8.5 11.5t-12.5 -6.5l-48 -45q-4 -4 -6.5 -10t-2.5 -18v-101q0 -16 -7.5 -22.5t-24.5 -6.5h-141q-16 0 -21.5 6t-5.5 19v694q0 23 19 23h163q18 0 18 -21v-375q0 -4 3 -6.5t9 4.5l150 169
q17 17 31 17h137q17 0 20.5 -9t-6.5 -20l-129 -129q-7 -8 -8 -14.5t6 -20.5l160 -309v0z" />
    <glyph glyph-name="l" unicode="l" horiz-adv-x="284" 
d="M242 29q0 -16 -8 -22.5t-25 -6.5h-142q-27 0 -27 25l5 694q0 23 19 23h160q18 0 18 -21v-692z" />
    <glyph glyph-name="m" unicode="m" horiz-adv-x="928" 
d="M67 0q-26 0 -26 25v482q0 23 19 23h160q18 0 18 -20v-45q0 -6 3.5 -8t9.5 4q22 23 47 41t54 28.5t59 10.5q50 0 87.5 -24.5t54.5 -71.5q2 -4 5 -3.5t7 4.5q19 26 48 47t62 34t63 13q68 0 111 -43.5t43 -123.5v-343q0 -30 -31 -30h-146q-13 0 -18 5.5t-5 19.5v326
q0 23 -14.5 35.5t-37.5 12.5q-12 0 -24.5 -5.5t-23 -14t-18.5 -19.5q-5 -7 -6.5 -13.5t-1.5 -13.5v-303q0 -30 -30 -30h-146q-12 0 -17.5 5.5t-5.5 19.5v326q0 23 -14 35.5t-38 12.5q-22 0 -41 -12t-33 -38v-320q0 -29 -33 -29h-141v0z" />
    <glyph glyph-name="n" unicode="n" horiz-adv-x="604" 
d="M67 0q-26 0 -26 25v482q0 23 19 23h161q18 0 18 -20v-45q0 -6 3.5 -8t9.5 4q21 23 46 41t53.5 28t59.5 10q70 0 113.5 -44t43.5 -118v-348q0 -30 -30 -30h-147q-13 0 -18 5.5t-5 19.5v326q0 23 -14.5 35.5t-38.5 12.5q-15 0 -28.5 -5.5t-24.5 -16.5t-21 -28v-320
q0 -29 -33 -29h-141v0z" />
    <glyph glyph-name="o" unicode="o" 
d="M299 -10q-82 0 -144.5 35t-98 96.5t-35.5 140.5q0 84 37 146.5t100 97t142 34.5q84 0 146.5 -36t97.5 -98.5t35 -143.5q0 -79 -35.5 -140.5t-98.5 -96.5t-146 -35v0zM300 118q27 0 44 15.5t25 48.5t8 84q0 53 -8 86t-25 48.5t-44 15.5q-26 0 -43.5 -15.5t-25.5 -48.5
t-8 -86q0 -52 8 -84.5t25.5 -48t43.5 -15.5v0z" />
    <glyph glyph-name="p" unicode="p" horiz-adv-x="617" 
d="M216 530q26 0 26 -24v-21q0 -6 5 -6t10 4q20 18 40 30.5t44.5 19.5t55.5 7q56 0 100 -29.5t70 -89.5t26 -154q0 -101 -27.5 -162t-73.5 -88t-102 -27q-34 0 -65 10.5t-63 40.5q-12 11 -16.5 10.5t-4.5 -15.5v-181q0 -20 -18 -20h-163q-19 0 -19 22v647q0 13 5.5 19.5
t21.5 6.5h148v0zM241 151q13 -18 29.5 -29t40.5 -11q25 0 43 14t27.5 49t9.5 99q0 58 -9 89.5t-27 44t-44 12.5q-19 0 -35 -7.5t-25.5 -20t-9.5 -28.5v-212v0z" />
    <glyph glyph-name="q" unicode="q" horiz-adv-x="616" 
d="M548 530q16 0 21.5 -6.5t5.5 -19.5v-647q0 -22 -19 -22h-163q-18 0 -18 20v173q0 14 -5 16t-13 -5q-27 -21 -58.5 -35t-65.5 -14q-64 0 -111.5 31.5t-73 92.5t-25.5 150q0 84 27 146t77 96.5t118 34.5q37 0 67 -10.5t55 -29.5t44 -44q9 -10 13 3l16 46q4 12 10 18t15 6
h83zM375 344q0 25 -8.5 43t-24 28.5t-36.5 10.5q-24 0 -42.5 -16t-28.5 -51.5t-10 -93.5t9 -92t26.5 -48.5t41.5 -14.5q23 0 40.5 8.5t32.5 24.5v201z" />
    <glyph glyph-name="r" unicode="r" horiz-adv-x="454" 
d="M67 0q-15 0 -20.5 6t-5.5 19v482q0 23 19 23h156q18 0 18 -20v-56q0 -7 6 -8.5t11 5.5q16 25 41 45t53 32t51 12q37 0 37 -20v-152q0 -21 -20 -16q-23 6 -47.5 8.5t-38.5 2.5q-16 0 -31.5 -5.5t-28 -15.5t-19.5 -22t-7 -25v-266q0 -29 -33 -29h-141v0z" />
    <glyph glyph-name="s" unicode="s" horiz-adv-x="541" 
d="M373 378q-15 17 -39 31.5t-61 14.5q-26 0 -45 -9t-19 -26q0 -7 6.5 -14t33.5 -12l106 -22q93 -19 130.5 -66t37.5 -105t-32 -98t-89 -61t-132 -21q-96 0 -160 32t-89 77q-5 9 -5 17t7 12l87 44q13 6 19.5 5t11.5 -7q12 -13 26.5 -26.5t39 -22.5t64.5 -8q21 1 38 4.5
t27 11.5t10 20q0 10 -8.5 18t-37.5 13l-102 18q-76 14 -119 52.5t-44 106.5q0 52 27.5 93.5t81.5 65.5t131 24q82 0 139.5 -29.5t79.5 -66.5q5 -7 8 -16t-8 -14l-92 -44q-9 -4 -16 -1.5t-13 9.5v0z" />
    <glyph glyph-name="t" unicode="t" horiz-adv-x="462" 
d="M318 395q-13 0 -13 -13v-192q0 -26 16.5 -39.5t53.5 -13.5h43q8 0 13 -6t5 -14l-1 -80q0 -24 -29 -30q-22 -3 -44.5 -4.5t-45 -2t-45.5 -0.5q-72 0 -119 34.5t-47 98.5v244q0 18 -15 18h-48q-24 0 -24 22v94q0 19 22 19h59q11 0 12 12l16 148q2 20 18 20h147q19 0 19 -22
v-146q0 -11 11 -11h92q22 0 22 -19v-95q0 -22 -25 -22h-93z" />
    <glyph glyph-name="u" unicode="u" horiz-adv-x="601" 
d="M285 130q23 0 42.5 12t32.5 29v330q0 29 33 29h143q26 0 26 -26l-4 -482q0 -22 -19 -22h-158q-18 0 -18 20v44q0 6 -3.5 7.5t-8.5 -3.5q-34 -40 -75 -59t-91 -19q-43 0 -76.5 19.5t-53 57t-19.5 90.5v343q0 30 31 30h146q23 0 23 -26v-325q0 -23 13.5 -36t35.5 -13v0z
" />
    <glyph glyph-name="v" unicode="v" horiz-adv-x="591" 
d="M557 530q12 0 16.5 -9t0.5 -20l-195 -476q-10 -25 -37 -25h-94q-27 0 -37 25l-194 476q-4 11 1.5 20t17.5 9h169q9 0 16 -6t10 -14l88 -231q6 -19 15 1l85 230q4 8 10.5 14t15.5 6h112v0z" />
    <glyph glyph-name="w" unicode="w" horiz-adv-x="832" 
d="M798 530q12 0 17 -9t0 -20l-170 -483q-3 -10 -7.5 -14t-15.5 -4h-104q-22 0 -29 22l-64 210q-4 11 -8.5 11t-7.5 -11l-70 -214q-3 -10 -8 -14t-16 -4h-107q-21 0 -28 22l-163 479q-4 11 1.5 20t17.5 9h155q9 0 16.5 -6t9.5 -14l69 -214q2 -9 6.5 -9t8.5 10l65 213
q2 8 9.5 14t16.5 6h109q8 0 15.5 -6t9.5 -14l63 -214q2 -9 6.5 -9t8.5 10l68 213q4 8 10.5 14t15.5 6h100v0z" />
    <glyph glyph-name="x" unicode="x" horiz-adv-x="622" 
d="M594 43q17 -24 15 -33.5t-24 -9.5h-166q-29 0 -42 20l-78 114q-10 14 -14 14.5t-14 -13.5l-78 -115q-13 -20 -42 -20h-105q-21 0 -28.5 11.5t14.5 39.5l151 197q8 11 7.5 18t-8.5 18l-154 211q-8 11 -3 23t22 12h159q17 0 25.5 -4.5t15.5 -15.5l65 -98q9 -15 18 0l60 98
q7 11 15.5 15.5t25.5 4.5h116q19 0 20.5 -9t-6.5 -20l-136 -186q-8 -11 -7 -18t8 -18l168 -236v0z" />
    <glyph glyph-name="y" unicode="y" horiz-adv-x="589" 
d="M102 -165q-31 0 -43.5 4t-12.5 18v102q0 6 6 12.5t22 6.5h71q17 0 31 5t22.5 12.5t12 17t-0.5 18.5l-194 470q-4 11 1.5 20t17.5 9h169q9 0 16 -6t10 -14l85 -240q3 -9 8 -9.5t9 9.5l86 240q4 8 10.5 14t15.5 6h112q12 0 17 -9t0 -20l-195 -470q-26 -63 -51.5 -101.5
t-56.5 -59t-71.5 -28t-96.5 -7.5v0z" />
    <glyph glyph-name="z" unicode="z" horiz-adv-x="544" 
d="M45 0q-15 0 -20.5 5t-5.5 20v45q0 16 3.5 24t17.5 27l213 271q12 16 -10 16h-180q-13 0 -17.5 5t-4.5 18v79q0 20 18 20h441q19 0 19 -19v-52q0 -11 -4 -19.5t-13 -21.5l-218 -275q-14 -19 8 -19h205q23 0 23 -19v-83q0 -9 -6 -15.5t-19 -6.5h-450v0z" />
    <glyph glyph-name="braceleft" unicode="{" horiz-adv-x="406" 
d="M116 606q0 47 28.5 77t70.5 44.5t81 14.5h80q15 0 15 -13v-80q0 -14 -15 -14h-37q-32 0 -45.5 -8t-16 -20t-2.5 -25v-190q-1 -34 -20 -53.5t-44.5 -29t-49.5 -12.5q-6 -1 -6.5 -3t6.5 -3q23 -2 49 -10.5t45 -30t20 -63.5v-192q0 -28 13.5 -40.5t50.5 -12.5h34
q18 0 18 -16v-73q0 -18 -18 -18h-74q-41 0 -83.5 14t-71 44.5t-28.5 77.5v197q0 24 -10.5 42t-33.5 28t-60 10q-12 0 -12 20v53q0 20 12 20q56 0 80 19.5t24 64.5v181v0z" />
    <glyph glyph-name="bar" unicode="|" horiz-adv-x="245" 
d="M80 -165q-28 0 -28 33v953q0 15 6 20.5t19 5.5h93q23 0 23 -19v-975q0 -18 -20 -18h-93z" />
    <glyph glyph-name="braceright" unicode="}" horiz-adv-x="406" 
d="M290 606v0v-181q0 -45 24 -64.5t80 -19.5q12 0 12 -20v-53q0 -20 -12 -20q-37 0 -60 -10t-33.5 -28t-10.5 -42v-197q0 -47 -28.5 -77.5t-71 -44.5t-83.5 -14h-74q-18 0 -18 18v73q0 16 18 16h34q38 0 51 12.5t13 40.5v192q2 42 20.5 63.5t44.5 30t49 10.5q7 1 6.5 3
t-6.5 3q-23 3 -49 12.5t-44.5 29t-20.5 53.5v190q0 13 -2.5 25t-16 20t-45.5 8h-37q-15 0 -15 14v80q0 13 15 13h80q40 0 81.5 -14.5t70 -44.5t28.5 -77z" />
    <glyph glyph-name="asciitilde" unicode="~" horiz-adv-x="636" 
d="M580 373q-30 -50 -73 -73.5t-84 -23.5q-31 0 -56.5 11t-48 25t-45 25t-47.5 11q-35 0 -61 -23t-51 -50q-4 -5 -10 -5t-10 6l-42 68q-7 12 9 28q42 42 80.5 69t87.5 27q33 0 58 -10.5t46 -25t41.5 -25t44.5 -10.5q31 0 57 19t44 46q14 20 29 -3l33 -54q5 -7 4 -16t-6 -16
v0z" />
    <glyph glyph-name="uni00A0" unicode="&#xa0;" horiz-adv-x="200" 
 />
    <glyph glyph-name="exclamdown" unicode="&#xa1;" horiz-adv-x="277" 
d="M244 353q0 -20 -18 -20h-173q-19 0 -19 22v150q0 25 27 25h150q33 0 33 -29v-148v0zM253 -144q2 -10 -4 -15.5t-14 -5.5h-189q-9 0 -14.5 6t-4.5 17l50 381q2 13 6.5 19t19.5 6h69q17 0 24.5 -6.5t8.5 -21.5l48 -380v0z" />
    <glyph glyph-name="cent" unicode="&#xa2;" horiz-adv-x="558" 
d="M369 29q0 -29 -31 -29h-67q-27 0 -27 26v141q0 29 31 29h67q27 0 27 -26v-141v0zM369 575q0 -29 -31 -29h-67q-27 0 -27 26v141q0 29 31 29h67q27 0 27 -26v-141v0zM298 651q72 0 122 -26.5t79 -65.5t37 -78q7 -25 -18 -26l-137 -7q-14 -1 -17 14q-2 13 -7 27.5t-17.5 25
t-36.5 10.5t-42 -15t-28 -47.5t-10 -86.5q0 -55 11 -88.5t31.5 -48t48.5 -14.5q41 0 60.5 22.5t38.5 56.5q2 4 6 5.5t14 -0.5l94 -18q14 -3 9 -23q-4 -19 -19 -47.5t-43 -55.5t-71.5 -45.5t-104.5 -18.5q-80 0 -142.5 34.5t-98.5 96t-36 142.5q0 83 36.5 145t99 97t141.5 35
v0z" />
    <glyph glyph-name="sterling" unicode="&#xa3;" horiz-adv-x="664" 
d="M30 0q-18 0 -18 20v128q0 15 15 15h17q38 0 60.5 17t22.5 57q0 12 -1 32.5t-6 62.5q-1 11 -13 11h-82q-13 0 -13 14v77q0 12 13 12h59q13 0 12 14l-6 86q-4 51 15.5 90t55.5 64.5t82.5 38.5t97.5 13q49 0 99.5 -15.5t94 -50t67.5 -91.5q3 -7 -0.5 -11.5t-11.5 -6.5
l-137 -40q-17 -5 -23 7q-8 21 -21 37.5t-37 16.5q-15 0 -26 -7.5t-17 -21t-6 -33.5q0 -13 2.5 -32.5t6.5 -45.5q2 -12 14 -12h112q12 0 12 -11v-80q0 -12 -12 -12h-98q-11 0 -11 -11q0 -28 -3 -50t-8 -39q-4 -13 -10.5 -24.5t-14.5 -21t-18 -18.5q-7 -7 -5 -11t10 -4h80
q40 0 62 15.5t34 49.5q6 15 25 11l123 -24q24 -5 19 -25q-22 -92 -87.5 -141.5t-159.5 -49.5h-366v0z" />
    <glyph glyph-name="currency" unicode="&#xa4;" 
d="M303 126q-68 0 -124 33q-11 5 -18 -2l-56 -56q-9 -9 -21 2l-58 58q-9 10 0 19l57 57q7 7 1 18q-15 29 -23 55.5t-8 61.5q0 34 7.5 63t23.5 57q5 11 -2 18l-56 56q-9 9 0 19l59 60q10 11 20 1l57 -57q6 -6 17 -1q27 14 58 23t61 9q68 0 128 -34q7 -3 11 1l54 54q5 5 10 0
l66 -69q6 -6 0 -12l-54 -53q-3 -3 0 -10q17 -28 25.5 -58.5t8.5 -65.5q0 -33 -8.5 -66t-27.5 -60q-2 -3 0 -5l56 -56q6 -6 1 -12l-66 -67q-6 -6 -12 0l-54 54q-3 3 -10 0q-28 -16 -59 -25.5t-64 -9.5v0zM300 250q35 0 63 17t44 45.5t16 60.5q0 33 -16 61t-44 45t-63 17
t-63 -17t-44 -45t-16 -61q0 -32 16 -60.5t44 -45.5t63 -17v0z" />
    <glyph glyph-name="yen" unicode="&#xa5;" horiz-adv-x="690" 
d="M696 742q13 0 16.5 -6.5t-2.5 -16.5l-234 -378q-7 -10 -8.5 -22t-1.5 -44v-246q0 -29 -33 -29h-168q-15 0 -20.5 6t-5.5 19v263q0 16 -3.5 24.5t-10.5 19.5l-234 382q-7 12 -2.5 20t20.5 8h201q15 0 21 -4.5t13 -16.5l123 -222q5 -9 8.5 -9.5t8.5 8.5l121 223q6 13 13 17
t21 4h157v0zM616 293q0 -28 -33 -28h-468q-15 0 -20.5 6t-5.5 19v53q0 23 19 23h490q18 0 18 -20v-53zM616 123q0 -28 -33 -28h-468q-15 0 -20.5 6t-5.5 19v53q0 23 19 23h490q18 0 18 -20v-53z" />
    <glyph glyph-name="brokenbar" unicode="&#xa6;" horiz-adv-x="245" 
d="M80 423q-28 0 -28 33v365q0 15 6 20.5t19 5.5h93q23 0 23 -19v-387q0 -18 -20 -18h-93zM80 -165q-28 0 -28 33v365q0 15 6 20.5t19 5.5h93q23 0 23 -19v-387q0 -18 -20 -18h-93z" />
    <glyph glyph-name="section" unicode="&#xa7;" horiz-adv-x="517" 
d="M416 227q47 -26 66 -56.5t19 -73.5q0 -53 -27 -94.5t-80.5 -64.5t-133.5 -23q-95 0 -155.5 29.5t-81.5 66.5q-9 16 -6.5 22t6.5 8l92 44q9 5 15.5 2t13.5 -10q17 -16 41 -31.5t70 -15.5q32 0 52 9.5t20 30.5q0 15 -13 27.5t-50 25.5l-70 26q-91 34 -132.5 72.5
t-41.5 103.5q0 47 21 81.5t60 53.5q-25 17 -41 35.5t-23 39.5t-7 45q0 49 26.5 87.5t75.5 61.5t118 23q82 0 139.5 -29.5t78.5 -66.5q9 -16 7 -22t-7 -8l-92 -44q-9 -4 -15 -1.5t-14 9.5q-17 17 -38.5 32t-53.5 15q-23 0 -37 -9.5t-14 -26.5q0 -11 9 -19.5t34 -17.5l70 -26
q91 -34 132.5 -72.5t41.5 -103.5q0 -46 -19.5 -79t-55.5 -56v0zM289 283q18 -1 27.5 4.5t13.5 15.5t4 22q0 14 -11 29.5t-59 33.5l-37 14q-19 -1 -30 -8t-15.5 -17t-4.5 -22q0 -18 13.5 -28.5t56.5 -27.5l42 -16v0z" />
    <glyph glyph-name="dieresis" unicode="&#xa8;" horiz-adv-x="431" 
d="M181 623q0 -13 -7 -18.5t-22 -5.5h-120q-13 0 -17.5 5.5t-4.5 16.5v101q0 20 16 20h139q16 0 16 -18v-101zM421 623q0 -13 -7 -18.5t-22 -5.5h-120q-13 0 -17.5 5.5t-4.5 16.5v101q0 20 16 20h139q16 0 16 -18v-101z" />
    <glyph glyph-name="copyright" unicode="&#xa9;" horiz-adv-x="830" 
d="M415 -10q-79 0 -148 29.5t-121.5 81.5t-82 121.5t-29.5 148.5t29.5 148t82 121.5t121.5 82t148 29.5t148 -29.5t121.5 -82t82 -121.5t29.5 -148t-29.5 -148.5t-82 -121.5t-121.5 -81.5t-148 -29.5v0zM415 91q61 0 110.5 19.5t85 56.5t54.5 88.5t19 115.5q0 63 -19 115
t-54.5 89t-85 57t-110.5 20q-62 0 -112 -20t-85 -57t-53.5 -89t-18.5 -115q0 -64 18.5 -115.5t53.5 -88.5t85 -56.5t112 -19.5v0zM418 584q55 0 93.5 -20.5t61 -50.5t28.5 -60q3 -10 -0.5 -14.5t-13.5 -5.5l-105 -5q-10 -1 -13 11q-2 14 -10.5 31t-36.5 17t-44.5 -26
t-16.5 -88q0 -64 18.5 -90t51.5 -26q32 0 47 17.5t29 42.5q3 6 15 4l72 -14q11 -1 7 -17q-3 -15 -14 -36.5t-33 -43t-55.5 -35.5t-80.5 -14q-61 0 -109 26.5t-75.5 74t-27.5 109.5q0 64 28 111.5t76 74.5t108 27v0z" />
    <glyph glyph-name="ordfeminine" unicode="&#xaa;" horiz-adv-x="386" 
d="M180 752q89 -1 120.5 -28t31.5 -75v-174q0 -13 2 -22.5t5 -20.5q4 -11 -6.5 -14.5t-25.5 -3.5h-73q-10 0 -12.5 4.5t-4.5 11.5l-1 4q-2 11 -18 0q-22 -13 -39.5 -19.5t-42.5 -6.5q-52 0 -80 26.5t-28 69.5q0 50 45.5 81t135.5 36l13 1q12 0 12 11v8q0 36 -37 36
q-13 0 -27 -6t-22 -23q-4 -9 -17 -7l-82 16q-4 2 -5 9t1 11q18 37 50.5 56t104.5 19v0zM129 512q0 -13 9.5 -21.5t28.5 -8.5q22 0 37 12q5 4 7.5 8.5t2.5 11.5v35q0 13 -12 12l-14 -2q-18 -1 -38.5 -13.5t-20.5 -33.5v0z" />
    <glyph glyph-name="guillemotleft" unicode="&#xab;" horiz-adv-x="513" 
d="M462 73q4 -13 -16 -13h-73q-11 0 -16 10l-92 165q-13 21 -1 43l93 175q4 7 7.5 8.5t9.5 1.5h75q7 0 11 -4t1 -12l-57 -177q-4 -13 0 -26zM254 73q4 -13 -16 -13h-73q-11 0 -16 10l-92 165q-13 21 -1 43l93 175q4 7 7.5 8.5t9.5 1.5h75q7 0 11 -4t1 -12l-57 -177
q-4 -13 0 -26z" />
    <glyph glyph-name="logicalnot" unicode="&#xac;" 
d="M562 331q0 -28 -33 -28h-463q-15 0 -20.5 6t-5.5 19v93q0 23 19 23h485q18 0 18 -20v-93zM562 167q0 -26 -30 -26h-106q-24 0 -24 23v209q0 20 17 20h127q16 0 16 -18v-208z" />
    <glyph glyph-name="uni00AD" unicode="&#xad;" horiz-adv-x="380" 
d="M339 221q0 -28 -33 -28h-239q-15 0 -20.5 6t-5.5 19v92q0 23 19 23h261q18 0 18 -20v-92z" />
    <glyph glyph-name="registered" unicode="&#xae;" horiz-adv-x="545" 
d="M273 275q-66 0 -120.5 32t-86.5 86t-32 120t32 120t86.5 86.5t120.5 32.5t120 -32.5t86 -86.5t32 -120t-32 -120t-86 -86t-120 -32v0zM273 346q49 0 84.5 20.5t55.5 58t20 88.5t-20 88.5t-55.5 58.5t-84.5 21t-85.5 -21t-56 -58.5t-19.5 -88.5t19.5 -88.5t56 -58
t85.5 -20.5v0zM382 404q2 -4 0 -7t-6 -3h-62q-6 0 -9 7l-29 86q-1 2 -3 3.5t-7 1.5h-18q-4 0 -4 -4v-85q0 -9 -11 -9h-53q-8 0 -8 8v221q0 7 6 7h109q46 0 72 -17t26 -49q0 -22 -12 -37.5t-30 -23.5q-2 -1 -2 -6l41 -93v0zM284 539q13 0 19.5 6.5t6.5 15.5q0 11 -8 16.5
t-19 5.5h-32q-4 0 -5.5 -1t-1.5 -5v-31q0 -7 5 -7h35v0z" />
    <glyph glyph-name="macron" unicode="&#xaf;" horiz-adv-x="431" 
d="M421 643q0 -24 -29 -24h-360q-13 0 -17.5 5.5t-4.5 16.5v81q0 20 16 20h379q16 0 16 -18v-81z" />
    <glyph glyph-name="degree" unicode="&#xb0;" horiz-adv-x="464" 
d="M414 675q0 -53 -24 -94.5t-65 -64.5t-93 -23t-93.5 23t-65 64.5t-23.5 94.5t23.5 94t65 64.5t93.5 23.5t93 -23.5t65 -64.5t24 -94v0zM302 674q0 32 -19.5 53t-52.5 21q-32 0 -52 -21t-19 -53q1 -33 20 -54t52 -21q32 0 51.5 21t19.5 54v0z" />
    <glyph glyph-name="plusminus" unicode="&#xb1;" 
d="M562 43q0 -28 -33 -28h-463q-15 0 -20.5 6t-5.5 19v93q0 23 19 23h485q18 0 18 -20v-93zM562 426q0 -28 -33 -28h-463q-15 0 -20.5 6t-5.5 19v93q0 23 19 23h485q18 0 18 -20v-93zM259 208q-28 0 -28 33v463q0 15 6 20.5t19 5.5h93q23 0 23 -19v-485q0 -18 -20 -18h-93z
" />
    <glyph glyph-name="uni00B2" unicode="&#xb2;" horiz-adv-x="452" 
d="M179 590q44 36 65 56t27.5 33t6.5 28q0 14 -6.5 25t-18.5 17.5t-30 6.5q-24 0 -42 -15.5t-39 -53.5q-5 -10 -20 -3l-75 37q-7 4 -8.5 11t2.5 14q35 57 80.5 84t109.5 27q57 0 98.5 -18.5t64 -52t22.5 -77.5q0 -24 -8 -45.5t-26 -41t-49 -40.5l-110 -74q-4 -3 -4 -5.5
t8 -2.5h179q15 0 15 -12v-90q0 -14 -16 -14h-352q-9 0 -13 3t-4 13v62q0 5 5.5 12t31.5 29z" />
    <glyph glyph-name="uni00B3" unicode="&#xb3;" horiz-adv-x="467" 
d="M64 773q-5 7 0 16q23 30 71.5 49t103.5 19q89 0 138.5 -34.5t49.5 -90.5q0 -26 -17.5 -53t-53.5 -38q-7 -3 -7 -7t7 -7q40 -13 62.5 -41t22.5 -63q0 -73 -52 -109t-158 -36q-58 0 -109.5 24t-75.5 61q-4 6 -3 12.5t8 10.5l63 44q11 7 17 1q29 -29 51.5 -42t56.5 -13
q29 0 45.5 12t16.5 32q0 15 -8 26.5t-23 18.5t-36 7l-53 1q-13 0 -13 11v76q0 9 13 11l43 2q29 2 46.5 15.5t17.5 34.5q0 16 -15 27t-37 11q-27 0 -48 -10t-47 -34q-5 -5 -8 -5t-8 4l-61 57v0z" />
    <glyph glyph-name="acute" unicode="&#xb4;" horiz-adv-x="320" 
d="M308 658q8 -25 -19 -32l-233 -56q-13 -3 -19 0t-10 13l-15 43q-6 18 8 24l240 98q14 6 21 -12z" />
    <glyph glyph-name="uni00B5" unicode="&#xb5;" horiz-adv-x="601" 
d="M285 130q23 0 42.5 12t32.5 29v330q0 29 33 29h143q26 0 26 -26l-4 -482q0 -22 -19 -22h-158q-18 0 -18 20v44q0 6 -3.5 7.5t-8.5 -3.5q-22 -27 -47 -43.5t-50 -24.5q-11 -4 -14.5 -8.5t-3.5 -13.5v-114q0 -16 -8 -22.5t-25 -6.5h-140q-27 0 -27 25v640q0 30 31 30h146
q23 0 23 -26v-325q0 -15 6 -26t17.5 -17t25.5 -6v0z" />
    <glyph glyph-name="paragraph" unicode="&#xb6;" horiz-adv-x="631" 
d="M542 633q-13 0 -13 -14v-686q0 -7 -3 -12.5t-12 -5.5h-84q-19 0 -19 18v688q0 12 -14 12h-39q-13 0 -13 -14v-687q0 -17 -16 -17h-86q-16 0 -16 17v367q0 9 -11 10q-49 6 -94 30t-73 70t-28 116q0 62 28 111t82.5 77.5t131.5 28.5h317q15 0 15 -13v-83q0 -13 -15 -13h-38
z" />
    <glyph glyph-name="periodcentered" unicode="&#xb7;" horiz-adv-x="279" 
d="M230 310q0 -26 -29 -26h-133q-24 0 -24 22v137q0 20 17 20h153q16 0 16 -18v-135z" />
    <glyph glyph-name="cedilla" unicode="&#xb8;" horiz-adv-x="287" 
d="M277 -137q0 -27 -18.5 -46.5t-48.5 -30.5t-66 -11q-33 0 -66 5.5t-61 19.5q-10 7 -6 16l17 41q3 8 12 5q17 -9 38 -16t41 -7q21 0 34 7t13 20q0 18 -19.5 28.5t-71.5 10.5q-7 0 -10.5 2t0.5 10l38 88h81l-19 -49q-4 -9 6 -9q39 0 62.5 -13t33.5 -32.5t10 -38.5v0z" />
    <glyph glyph-name="uni00B9" unicode="&#xb9;" horiz-adv-x="367" 
d="M312 483q14 0 14 -12v-77q0 -14 -16 -14h-267q-15 0 -15 13v78q0 12 14 12h56q7 0 7 6v210q0 11 -10 8l-51 -11q-17 -5 -17 14v53q0 8 2.5 11.5t9.5 6.5l113 57q10 5 16 7t15 2h54q11 0 11 -13v-343q0 -8 7 -8h57v0z" />
    <glyph glyph-name="ordmasculine" unicode="&#xba;" horiz-adv-x="391" 
d="M195 752q53 0 92 -22.5t61 -61.5t22 -90q0 -49 -22.5 -87.5t-61.5 -60.5t-91 -22q-51 0 -90.5 22t-61.5 60.5t-22 87.5q0 52 23 91t62.5 61t88.5 22v0zM195 674q-25 0 -36.5 -22t-11.5 -71t11.5 -71t36.5 -22q26 0 37.5 22t11.5 71t-11.5 71t-37.5 22v0z" />
    <glyph glyph-name="guillemotright" unicode="&#xbb;" horiz-adv-x="513" 
d="M109 244q4 13 0 26l-57 177q-3 8 1 12t11 4h75q6 0 9.5 -1.5t7.5 -8.5l93 -175q12 -22 -1 -43l-92 -165q-5 -10 -16 -10h-73q-20 0 -16 13l58 171v0zM317 244q4 13 0 26l-57 177q-3 8 1 12t11 4h75q6 0 9.5 -1.5t7.5 -8.5l93 -175q12 -22 -1 -43l-92 -165q-5 -10 -16 -10
h-73q-20 0 -16 13l58 171v0z" />
    <glyph glyph-name="onequarter" unicode="&#xbc;" horiz-adv-x="973" 
d="M308 379q14 0 14 -12v-77q0 -14 -16 -14h-267q-15 0 -15 13v78q0 12 14 12h56q7 0 7 6v210q0 11 -10 8l-51 -11q-17 -5 -17 14v53q0 8 2.5 11.5t9.5 6.5l113 57q10 5 16 7t15 2h54q11 0 11 -13v-343q0 -8 7 -8h57v0zM316 8q-8 -12 -29 -12l-52 1q-16 0 -18.5 11.5
t4.5 22.5l469 706q7 10 13.5 11.5t14.5 1.5h66q8 0 12.5 -4.5t-2.5 -15.5zM726 451q8 10 13.5 13t18.5 3h103q12 0 12 -13v-251q0 -8 7 -8h47q13 0 13 -12v-69q0 -14 -15 -14h-44q-8 0 -8 -8v-74q0 -18 -21 -18h-107q-17 0 -17 16v78q0 6 -8 6h-180q-15 0 -15 14v65
q0 8 5 16t15 22l181 234v0zM725 195q5 0 5 4v122q0 9 -2 9.5t-7 -7.5l-86 -120q-5 -8 5 -8h85z" />
    <glyph glyph-name="onehalf" unicode="&#xbd;" horiz-adv-x="1020" 
d="M318 379q14 0 14 -12v-77q0 -14 -16 -14h-267q-15 0 -15 13v78q0 12 14 12h56q7 0 7 6v210q0 11 -10 8l-51 -11q-17 -5 -17 14v53q0 8 2.5 11.5t9.5 6.5l113 57q10 5 16 7t15 2h54q11 0 11 -13v-343q0 -8 7 -8h57v0zM301 8q-8 -12 -29 -12l-52 1q-16 0 -18.5 11.5
t4.5 22.5l469 706q7 10 13.5 11.5t14.5 1.5h66q8 0 12.5 -4.5t-2.5 -15.5zM735 206q44 36 65 56t27.5 33t6.5 28q0 14 -6.5 25t-18.5 17.5t-30 6.5q-24 0 -42 -15.5t-39 -53.5q-5 -10 -20 -3l-75 37q-7 4 -8.5 11t2.5 14q35 57 80.5 84t109.5 27q57 0 98.5 -18.5t64 -52
t22.5 -77.5q0 -24 -8 -45.5t-26 -41t-49 -40.5l-110 -74q-4 -3 -4 -5.5t8 -2.5h179q15 0 15 -12v-90q0 -14 -16 -14h-352q-9 0 -13 3t-4 13v62q0 5 5.5 12t31.5 29z" />
    <glyph glyph-name="threequarters" unicode="&#xbe;" horiz-adv-x="1063" 
d="M50 668q-5 7 0 16q23 30 71.5 49t103.5 19q89 0 138.5 -34.5t49.5 -90.5q0 -26 -17.5 -53t-53.5 -38q-7 -3 -7 -7t7 -7q40 -13 62.5 -41t22.5 -63q0 -73 -52 -109t-158 -36q-58 0 -109.5 24t-75.5 61q-4 6 -3 12.5t8 10.5l63 44q11 7 17 1q29 -29 51.5 -42t56.5 -13
q29 0 45.5 12t16.5 32q0 15 -8 26.5t-23 18.5t-36 7l-53 1q-13 0 -13 11v76q0 9 13 11l43 2q29 2 46.5 15.5t17.5 34.5q0 16 -15 27t-37 11q-27 0 -48 -10t-47 -34q-5 -5 -8 -5t-8 4l-61 57v0zM371 8q-8 -12 -29 -12l-52 1q-16 0 -18.5 11.5t4.5 22.5l469 706
q7 10 13.5 11.5t14.5 1.5h66q8 0 12.5 -4.5t-2.5 -15.5zM804 451q8 10 13.5 13t18.5 3h103q12 0 12 -13v-251q0 -8 7 -8h47q13 0 13 -12v-69q0 -14 -15 -14h-44q-8 0 -8 -8v-74q0 -18 -21 -18h-107q-17 0 -17 16v78q0 6 -8 6h-180q-15 0 -15 14v65q0 8 5 16t15 22l181 234v0
zM803 195q5 0 5 4v122q0 9 -2 9.5t-7 -7.5l-86 -120q-5 -8 5 -8h85z" />
    <glyph glyph-name="questiondown" unicode="&#xbf;" horiz-adv-x="544" 
d="M187 501q0 29 33 29h151q15 0 20.5 -6t5.5 -19v-150q0 -22 -19 -22h-173q-18 0 -18 20v148zM538 16q10 -2 11.5 -10.5t-1.5 -16.5q-32 -80 -99.5 -122t-168.5 -42q-87 0 -144.5 24t-85.5 63.5t-28 84.5q0 37 14 63.5t35.5 45t46 34t46 30.5t35.5 33.5t14 43.5
q0 10 7.5 17t17.5 7h105q26 0 26 -29q0 -34 -11 -60t-28.5 -45.5t-36.5 -35.5t-36.5 -30.5t-28.5 -29.5t-11 -33q0 -20 19.5 -34t45.5 -14q21 0 40.5 8.5t35.5 25t26 38.5q5 10 10 11.5t16 -0.5z" />
    <glyph glyph-name="Agrave" unicode="&#xc0;" horiz-adv-x="799" 
d="M43 0q-11 0 -16 10.5t1 26.5l242 682q5 12 11 17.5t19 5.5h197q26 0 36 -27l240 -681q4 -10 0.5 -22t-14.5 -12h-196q-17 0 -22 17l-39 115q-2 5 -4.5 8.5t-10.5 3.5h-212q-12 0 -15 -11l-41 -118q-2 -6 -7.5 -10.5t-16.5 -4.5h-152v0zM437 314q15 0 9 20l-60 171
q-2 5 -6 5t-6 -5l-61 -170q-8 -21 10 -21h114zM276 951q7 18 21 12l239 -98q14 -6 8 -24l-15 -43q-4 -10 -10 -13t-19 0l-233 56q-27 7 -19 32l28 78v0z" />
    <glyph glyph-name="Aacute" unicode="&#xc1;" horiz-adv-x="799" 
d="M43 0q-11 0 -16 10.5t1 26.5l242 682q5 12 11 17.5t19 5.5h197q26 0 36 -27l240 -681q4 -10 0.5 -22t-14.5 -12h-196q-17 0 -22 17l-39 115q-2 5 -4.5 8.5t-10.5 3.5h-212q-12 0 -15 -11l-41 -118q-2 -6 -7.5 -10.5t-16.5 -4.5h-152v0zM437 314q15 0 9 20l-60 171
q-2 5 -6 5t-6 -5l-61 -170q-8 -21 10 -21h114zM543 870q8 -25 -19 -32l-233 -56q-13 -3 -19 0t-10 13l-15 43q-6 18 8 24l240 98q14 6 21 -12z" />
    <glyph glyph-name="Acircumflex" unicode="&#xc2;" horiz-adv-x="799" 
d="M43 0q-11 0 -16 10.5t1 26.5l242 682q5 12 11 17.5t19 5.5h197q26 0 36 -27l240 -681q4 -10 0.5 -22t-14.5 -12h-196q-17 0 -22 17l-39 115q-2 5 -4.5 8.5t-10.5 3.5h-212q-12 0 -15 -11l-41 -118q-2 -6 -7.5 -10.5t-16.5 -4.5h-152v0zM437 314q15 0 9 20l-60 171
q-2 5 -6 5t-6 -5l-61 -170q-8 -21 10 -21h114zM410 870q-10 14 -15.5 14t-18.5 -14l-46 -54q-7 -7 -11.5 -8t-14.5 -1h-99q-9 0 -9.5 5t6.5 13l112 124q7 8 15 11.5t22 3.5h95q11 0 17 -4t11 -9l111 -126q17 -18 -2 -18h-105q-9 0 -15.5 1t-11.5 8z" />
    <glyph glyph-name="Atilde" unicode="&#xc3;" horiz-adv-x="799" 
d="M43 0q-11 0 -16 10.5t1 26.5l242 682q5 12 11 17.5t19 5.5h197q26 0 36 -27l240 -681q4 -10 0.5 -22t-14.5 -12h-196q-17 0 -22 17l-39 115q-2 5 -4.5 8.5t-10.5 3.5h-212q-12 0 -15 -11l-41 -118q-2 -6 -7.5 -10.5t-16.5 -4.5h-152v0zM437 314q15 0 9 20l-60 171
q-2 5 -6 5t-6 -5l-61 -170q-8 -21 10 -21h114zM579 851q-16 -11 -42.5 -20.5t-57.5 -9.5q-29 0 -55.5 8t-52 15.5t-54.5 7.5q-21 0 -36 -5.5t-35 -19.5q-8 -6 -13.5 -5t-9.5 13l-17 54q-2 8 -2.5 14.5t10.5 16.5q19 16 41 28.5t57 12.5q32 0 61 -8.5t55.5 -17t49.5 -8.5
q24 0 44 9t33 19q8 5 15 3.5t9 -12.5l14 -65q4 -17 -14 -30v0z" />
    <glyph glyph-name="Adieresis" unicode="&#xc4;" horiz-adv-x="799" 
d="M43 0q-11 0 -16 10.5t1 26.5l242 682q5 12 11 17.5t19 5.5h197q26 0 36 -27l240 -681q4 -10 0.5 -22t-14.5 -12h-196q-17 0 -22 17l-39 115q-2 5 -4.5 8.5t-10.5 3.5h-212q-12 0 -15 -11l-41 -118q-2 -6 -7.5 -10.5t-16.5 -4.5h-152v0zM437 314q15 0 9 20l-60 171
q-2 5 -6 5t-6 -5l-61 -170q-8 -21 10 -21h114zM360 835q0 -13 -7 -18.5t-22 -5.5h-120q-13 0 -17.5 5.5t-4.5 16.5v101q0 20 16 20h139q16 0 16 -18v-101zM600 835q0 -13 -7 -18.5t-22 -5.5h-120q-13 0 -17.5 5.5t-4.5 16.5v101q0 20 16 20h139q16 0 16 -18v-101z" />
    <glyph glyph-name="Aring" unicode="&#xc5;" horiz-adv-x="799" 
d="M43 0q-11 0 -16 10.5t1 26.5l242 682q5 12 11 17.5t19 5.5h197q26 0 36 -27l240 -681q4 -10 0.5 -22t-14.5 -12h-196q-17 0 -22 17l-39 115q-2 5 -4.5 8.5t-10.5 3.5h-212q-12 0 -15 -11l-41 -118q-2 -6 -7.5 -10.5t-16.5 -4.5h-152v0zM437 314q15 0 9 20l-60 171
q-2 5 -6 5t-6 -5l-61 -170q-8 -21 10 -21h114zM511 843q0 -49 -34 -83t-83 -34t-83 34.5t-34 84.5q0 32 16 57.5t42.5 40.5t58.5 15q33 0 59.5 -15.5t42 -41.5t15.5 -58v0zM441 842q0 20 -14 33.5t-34 13.5q-19 0 -34 -13.5t-15 -33.5q0 -19 15 -34t34 -15q20 0 34 15t14 34
v0z" />
    <glyph glyph-name="AE" unicode="&#xc6;" horiz-adv-x="1127" 
d="M1072 164q22 0 22 -19v-123q0 -9 -5.5 -15.5t-18.5 -6.5h-535q-27 0 -27 25v105q0 14 -13 14h-201q-12 0 -17 -11l-59 -118q-3 -6 -9 -10.5t-17 -4.5h-152q-11 0 -14.5 10.5t5.5 26.5l354 682q6 12 13 17.5t20 5.5h649q18 0 18 -21l-1 -116q0 -27 -26 -27h-300
q-23 0 -23 -19v-85q0 -21 18 -21h180q21 0 21 -20v-124q0 -7 -4 -12t-14 -5h-185q-16 0 -16 -14v-100q0 -14 12 -14h325v0zM489 314q19 0 19 20v201q0 23 -14 24t-26 -22l-102 -202q-13 -21 6 -21h117v0z" />
    <glyph glyph-name="Ccedilla" unicode="&#xc7;" horiz-adv-x="737" 
d="M385 752q63 0 116.5 -17t95 -48t68 -73t36.5 -92q5 -21 1.5 -27t-14.5 -8l-175 -11q-11 0 -14 4.5t-5 14.5q-8 44 -30.5 73.5t-72.5 29.5q-56 0 -89.5 -49.5t-33.5 -171.5q0 -124 30.5 -173.5t91.5 -49.5q50 0 88.5 25.5t64.5 91.5q5 12 28 8l125 -25q5 -1 11 -7t3 -26
q-3 -16 -16 -44t-37 -60.5t-62 -61t-90.5 -47t-121.5 -18.5q-107 0 -186.5 50.5t-123 139t-43.5 201.5t43.5 196t123.5 129t188 46v0zM521 -137q0 -27 -18.5 -46.5t-48.5 -30.5t-66 -11q-33 0 -66 5.5t-61 19.5q-10 7 -6 16l17 41q3 8 12 5q17 -9 38 -16t41 -7q21 0 34 7
t13 20q0 18 -19.5 28.5t-71.5 10.5q-7 0 -10.5 2t0.5 10l38 88h81l-19 -49q-4 -9 6 -9q39 0 62.5 -13t33.5 -32.5t10 -38.5v0z" />
    <glyph glyph-name="Egrave" unicode="&#xc8;" horiz-adv-x="671" 
d="M52 719q0 23 19 23h540q18 0 18 -21l-1 -116q0 -27 -26 -27h-300q-23 0 -23 -19v-85q0 -21 18 -21h180q21 0 21 -20v-124q0 -7 -4 -12t-14 -5h-185q-16 0 -16 -14v-100q0 -14 12 -14h325q22 0 22 -19v-123q0 -9 -5.5 -15.5t-18.5 -6.5h-535q-27 0 -27 25v694v0zM217 951
q7 18 21 12l239 -98q14 -6 8 -24l-15 -43q-4 -10 -10 -13t-19 0l-233 56q-27 7 -19 32l28 78v0z" />
    <glyph glyph-name="Eacute" unicode="&#xc9;" horiz-adv-x="671" 
d="M52 719q0 23 19 23h540q18 0 18 -21l-1 -116q0 -27 -26 -27h-300q-23 0 -23 -19v-85q0 -21 18 -21h180q21 0 21 -20v-124q0 -7 -4 -12t-14 -5h-185q-16 0 -16 -14v-100q0 -14 12 -14h325q22 0 22 -19v-123q0 -9 -5.5 -15.5t-18.5 -6.5h-535q-27 0 -27 25v694v0zM484 870
q8 -25 -19 -32l-233 -56q-13 -3 -19 0t-10 13l-15 43q-6 18 8 24l240 98q14 6 21 -12z" />
    <glyph glyph-name="Ecircumflex" unicode="&#xca;" horiz-adv-x="671" 
d="M52 719q0 23 19 23h540q18 0 18 -21l-1 -116q0 -27 -26 -27h-300q-23 0 -23 -19v-85q0 -21 18 -21h180q21 0 21 -20v-124q0 -7 -4 -12t-14 -5h-185q-16 0 -16 -14v-100q0 -14 12 -14h325q22 0 22 -19v-123q0 -9 -5.5 -15.5t-18.5 -6.5h-535q-27 0 -27 25v694v0zM351 870
q-10 14 -15.5 14t-18.5 -14l-46 -54q-7 -7 -11.5 -8t-14.5 -1h-99q-9 0 -9.5 5t6.5 13l112 124q7 8 15 11.5t22 3.5h95q11 0 17 -4t11 -9l111 -126q17 -18 -2 -18h-105q-9 0 -15.5 1t-11.5 8z" />
    <glyph glyph-name="Edieresis" unicode="&#xcb;" horiz-adv-x="671" 
d="M52 719q0 23 19 23h540q18 0 18 -21l-1 -116q0 -27 -26 -27h-300q-23 0 -23 -19v-85q0 -21 18 -21h180q21 0 21 -20v-124q0 -7 -4 -12t-14 -5h-185q-16 0 -16 -14v-100q0 -14 12 -14h325q22 0 22 -19v-123q0 -9 -5.5 -15.5t-18.5 -6.5h-535q-27 0 -27 25v694v0zM301 835
q0 -13 -7 -18.5t-22 -5.5h-120q-13 0 -17.5 5.5t-4.5 16.5v101q0 20 16 20h139q16 0 16 -18v-101zM541 835q0 -13 -7 -18.5t-22 -5.5h-120q-13 0 -17.5 5.5t-4.5 16.5v101q0 20 16 20h139q16 0 16 -18v-101z" />
    <glyph glyph-name="Igrave" unicode="&#xcc;" horiz-adv-x="331" 
d="M261 742q18 0 18 -21v-692q0 -16 -8 -22.5t-25 -6.5h-167q-16 0 -21.5 6t-5.5 19v694q0 23 19 23h190zM47 951q7 18 21 12l239 -98q14 -6 8 -24l-15 -43q-4 -10 -10 -13t-19 0l-233 56q-27 7 -19 32l28 78v0z" />
    <glyph glyph-name="Iacute" unicode="&#xcd;" horiz-adv-x="331" 
d="M261 742q18 0 18 -21v-692q0 -16 -8 -22.5t-25 -6.5h-167q-16 0 -21.5 6t-5.5 19v694q0 23 19 23h190zM314 870q8 -25 -19 -32l-233 -56q-13 -3 -19 0t-10 13l-15 43q-6 18 8 24l240 98q14 6 21 -12z" />
    <glyph glyph-name="Icircumflex" unicode="&#xce;" horiz-adv-x="331" 
d="M261 742q18 0 18 -21v-692q0 -16 -8 -22.5t-25 -6.5h-167q-16 0 -21.5 6t-5.5 19v694q0 23 19 23h190zM181 870q-10 14 -15.5 14t-18.5 -14l-46 -54q-7 -7 -11.5 -8t-14.5 -1h-99q-9 0 -9.5 5t6.5 13l112 124q7 8 15 11.5t22 3.5h95q11 0 17 -4t11 -9l111 -126
q17 -18 -2 -18h-105q-9 0 -15.5 1t-11.5 8z" />
    <glyph glyph-name="Idieresis" unicode="&#xcf;" horiz-adv-x="331" 
d="M261 742q18 0 18 -21v-692q0 -16 -8 -22.5t-25 -6.5h-167q-16 0 -21.5 6t-5.5 19v694q0 23 19 23h190zM131 835q0 -13 -7 -18.5t-22 -5.5h-120q-13 0 -17.5 5.5t-4.5 16.5v101q0 20 16 20h139q16 0 16 -18v-101zM371 835q0 -13 -7 -18.5t-22 -5.5h-120q-13 0 -17.5 5.5
t-4.5 16.5v101q0 20 16 20h139q16 0 16 -18v-101z" />
    <glyph glyph-name="Eth" unicode="&#xd0;" horiz-adv-x="791" 
d="M432 321q0 -28 -33 -28h-349q-15 0 -20.5 6t-5.5 19v93q0 23 19 23h371q18 0 18 -20v-93zM99 742h61h75h73.5t56.5 -1q134 -4 221.5 -52t130.5 -129.5t43 -187.5q0 -107 -44 -191.5t-132 -132.5t-220 -48h-263q-29 0 -29 30v687q0 14 6 19.5t21 5.5v0zM309 585
q-10 0 -10 -14v-399q0 -15 14 -15h7q63 0 108 21t69.5 69t24.5 127q0 70 -20 116.5t-62 70.5t-107 24h-24v0z" />
    <glyph glyph-name="Ntilde" unicode="&#xd1;" horiz-adv-x="761" 
d="M694 742q15 0 15 -17v-707q0 -8 -6.5 -13t-16.5 -5h-137q-8 0 -13.5 2.5t-13.5 12.5l-275 373q-4 5 -7 4t-3 -6v-364q1 -22 -24 -22h-136q-25 0 -25 20v699q0 23 22 23h163q13 0 19.5 -3.5t14.5 -14.5l240 -334q7 -9 11.5 -8.5t4.5 12.5v327q0 21 22 21h145zM565 851
q-16 -11 -42.5 -20.5t-57.5 -9.5q-29 0 -55.5 8t-52 15.5t-54.5 7.5q-21 0 -36 -5.5t-35 -19.5q-8 -6 -13.5 -5t-9.5 13l-17 54q-2 8 -2.5 14.5t10.5 16.5q19 16 41 28.5t57 12.5q32 0 61 -8.5t55.5 -17t49.5 -8.5q24 0 44 9t33 19q8 5 15 3.5t9 -12.5l14 -65q4 -17 -14 -30
v0z" />
    <glyph glyph-name="Ograve" unicode="&#xd2;" horiz-adv-x="780" 
d="M391 -10q-110 0 -191 46.5t-125 132t-44 200.5q0 116 45 202t126 133.5t189 47.5t188.5 -47.5t125 -133.5t44.5 -202q0 -115 -44 -200t-124.5 -132t-189.5 -47v0zM391 146q65 0 92.5 50t27.5 170q0 124 -28 178t-92 54q-65 0 -93.5 -54t-28.5 -178q0 -120 27.5 -170
t94.5 -50v0zM271 951q7 18 21 12l239 -98q14 -6 8 -24l-15 -43q-4 -10 -10 -13t-19 0l-233 56q-27 7 -19 32l28 78v0z" />
    <glyph glyph-name="Oacute" unicode="&#xd3;" horiz-adv-x="780" 
d="M391 -10q-110 0 -191 46.5t-125 132t-44 200.5q0 116 45 202t126 133.5t189 47.5t188.5 -47.5t125 -133.5t44.5 -202q0 -115 -44 -200t-124.5 -132t-189.5 -47v0zM391 146q65 0 92.5 50t27.5 170q0 124 -28 178t-92 54q-65 0 -93.5 -54t-28.5 -178q0 -120 27.5 -170
t94.5 -50v0zM538 870q8 -25 -19 -32l-233 -56q-13 -3 -19 0t-10 13l-15 43q-6 18 8 24l240 98q14 6 21 -12z" />
    <glyph glyph-name="Ocircumflex" unicode="&#xd4;" horiz-adv-x="780" 
d="M391 -10q-110 0 -191 46.5t-125 132t-44 200.5q0 116 45 202t126 133.5t189 47.5t188.5 -47.5t125 -133.5t44.5 -202q0 -115 -44 -200t-124.5 -132t-189.5 -47v0zM391 146q65 0 92.5 50t27.5 170q0 124 -28 178t-92 54q-65 0 -93.5 -54t-28.5 -178q0 -120 27.5 -170
t94.5 -50v0zM405 870q-10 14 -15.5 14t-18.5 -14l-46 -54q-7 -7 -11.5 -8t-14.5 -1h-99q-9 0 -9.5 5t6.5 13l112 124q7 8 15 11.5t22 3.5h95q11 0 17 -4t11 -9l111 -126q17 -18 -2 -18h-105q-9 0 -15.5 1t-11.5 8z" />
    <glyph glyph-name="Otilde" unicode="&#xd5;" horiz-adv-x="780" 
d="M391 -10q-110 0 -191 46.5t-125 132t-44 200.5q0 116 45 202t126 133.5t189 47.5t188.5 -47.5t125 -133.5t44.5 -202q0 -115 -44 -200t-124.5 -132t-189.5 -47v0zM391 146q65 0 92.5 50t27.5 170q0 124 -28 178t-92 54q-65 0 -93.5 -54t-28.5 -178q0 -120 27.5 -170
t94.5 -50v0zM574 851q-16 -11 -42.5 -20.5t-57.5 -9.5q-29 0 -55.5 8t-52 15.5t-54.5 7.5q-21 0 -36 -5.5t-35 -19.5q-8 -6 -13.5 -5t-9.5 13l-17 54q-2 8 -2.5 14.5t10.5 16.5q19 16 41 28.5t57 12.5q32 0 61 -8.5t55.5 -17t49.5 -8.5q24 0 44 9t33 19q8 5 15 3.5t9 -12.5
l14 -65q4 -17 -14 -30v0z" />
    <glyph glyph-name="Odieresis" unicode="&#xd6;" horiz-adv-x="780" 
d="M391 -10q-110 0 -191 46.5t-125 132t-44 200.5q0 116 45 202t126 133.5t189 47.5t188.5 -47.5t125 -133.5t44.5 -202q0 -115 -44 -200t-124.5 -132t-189.5 -47v0zM391 146q65 0 92.5 50t27.5 170q0 124 -28 178t-92 54q-65 0 -93.5 -54t-28.5 -178q0 -120 27.5 -170
t94.5 -50v0zM355 835q0 -13 -7 -18.5t-22 -5.5h-120q-13 0 -17.5 5.5t-4.5 16.5v101q0 20 16 20h139q16 0 16 -18v-101zM595 835q0 -13 -7 -18.5t-22 -5.5h-120q-13 0 -17.5 5.5t-4.5 16.5v101q0 20 16 20h139q16 0 16 -18v-101z" />
    <glyph glyph-name="multiply" unicode="&#xd7;" 
d="M476 138q-20 -20 -43 3l-370 370q-10 11 -9.5 19t9.5 17l65 66q17 17 30 3l386 -386q5 -5 5 -12.5t-7 -13.5zM66 198q-21 19 3 43l370 370q11 11 19 10.5t17 -9.5l66 -66q15 -16 3 -30l-386 -385q-12 -12 -27 1z" />
    <glyph glyph-name="Oslash" unicode="&#xd8;" horiz-adv-x="786" 
d="M776 686q14 -14 -1 -27l-76 -74q26 -44 39.5 -98.5t13.5 -117.5q0 -115 -44 -200t-124.5 -132t-189.5 -47q-69 0 -127 19t-103 54l-57 -56q-11 -11 -21 -11.5t-22 11.5l-39 40q-20 21 -4 37l67 66q-26 44 -40 99.5t-14 119.5q0 116 45 202t126 133.5t189 47.5
q70 0 128.5 -20t103.5 -58l65 63q18 18 31 5l54 -56v0zM272 366v-18t1 -19l215 210q-27 59 -94 59q-65 0 -93.5 -54t-28.5 -178v0zM514 366v19t-1 19l-213 -209q27 -49 94 -49q65 0 92.5 50t27.5 170v0z" />
    <glyph glyph-name="Ugrave" unicode="&#xd9;" horiz-adv-x="728" 
d="M684 293q0 -115 -40 -181.5t-112 -94t-168 -27.5q-120 0 -190 37t-100 109.5t-30 176.5v406q0 23 19 23h190q18 0 18 -21v-432q0 -76 29.5 -108t80.5 -32q31 0 57.5 12.5t42.5 44t16 86.5v427q0 23 19 23h150q18 0 18 -21v-428v0zM262 951q7 18 21 12l239 -98
q14 -6 8 -24l-15 -43q-4 -10 -10 -13t-19 0l-233 56q-27 7 -19 32l28 78v0z" />
    <glyph glyph-name="Uacute" unicode="&#xda;" horiz-adv-x="728" 
d="M684 293q0 -115 -40 -181.5t-112 -94t-168 -27.5q-120 0 -190 37t-100 109.5t-30 176.5v406q0 23 19 23h190q18 0 18 -21v-432q0 -76 29.5 -108t80.5 -32q31 0 57.5 12.5t42.5 44t16 86.5v427q0 23 19 23h150q18 0 18 -21v-428v0zM529 870q8 -25 -19 -32l-233 -56
q-13 -3 -19 0t-10 13l-15 43q-6 18 8 24l240 98q14 6 21 -12z" />
    <glyph glyph-name="Ucircumflex" unicode="&#xdb;" horiz-adv-x="728" 
d="M684 293q0 -115 -40 -181.5t-112 -94t-168 -27.5q-120 0 -190 37t-100 109.5t-30 176.5v406q0 23 19 23h190q18 0 18 -21v-432q0 -76 29.5 -108t80.5 -32q31 0 57.5 12.5t42.5 44t16 86.5v427q0 23 19 23h150q18 0 18 -21v-428v0zM396 870q-10 14 -15.5 14t-18.5 -14
l-46 -54q-7 -7 -11.5 -8t-14.5 -1h-99q-9 0 -9.5 5t6.5 13l112 124q7 8 15 11.5t22 3.5h95q11 0 17 -4t11 -9l111 -126q17 -18 -2 -18h-105q-9 0 -15.5 1t-11.5 8z" />
    <glyph glyph-name="Udieresis" unicode="&#xdc;" horiz-adv-x="728" 
d="M684 293q0 -115 -40 -181.5t-112 -94t-168 -27.5q-120 0 -190 37t-100 109.5t-30 176.5v406q0 23 19 23h190q18 0 18 -21v-432q0 -76 29.5 -108t80.5 -32q31 0 57.5 12.5t42.5 44t16 86.5v427q0 23 19 23h150q18 0 18 -21v-428v0zM346 835q0 -13 -7 -18.5t-22 -5.5h-120
q-13 0 -17.5 5.5t-4.5 16.5v101q0 20 16 20h139q16 0 16 -18v-101zM586 835q0 -13 -7 -18.5t-22 -5.5h-120q-13 0 -17.5 5.5t-4.5 16.5v101q0 20 16 20h139q16 0 16 -18v-101z" />
    <glyph glyph-name="Yacute" unicode="&#xdd;" horiz-adv-x="774" 
d="M733 742q13 0 16.5 -6.5t-2.5 -16.5l-234 -378q-7 -10 -8.5 -22t-1.5 -44v-246q0 -29 -33 -29h-168q-15 0 -20.5 6t-5.5 19v263q0 16 -3.5 24.5t-10.5 19.5l-234 382q-7 12 -2.5 20t20.5 8h201q15 0 21 -4.5t13 -16.5l123 -222q5 -9 8.5 -9.5t8.5 8.5l121 223q6 13 13 17
t21 4h157v0zM551 870q8 -25 -19 -32l-233 -56q-13 -3 -19 0t-10 13l-15 43q-6 18 8 24l240 98q14 6 21 -12z" />
    <glyph glyph-name="Thorn" unicode="&#xde;" horiz-adv-x="744" 
d="M716 372q0 -71 -35 -123t-96.5 -79.5t-143.5 -27.5h-150q-12 0 -12 -11v-102q0 -29 -33 -29h-168q-15 0 -20.5 6t-5.5 19v694q0 23 19 23h190q18 0 18 -21v-101q0 -12 10 -12h126q82 0 150.5 -26t109.5 -78.5t41 -131.5v0zM484 375q0 34 -24 53.5t-59 19.5h-99
q-23 0 -23 -21v-103q0 -22 17 -22h111q36 0 56.5 21.5t20.5 51.5v0z" />
    <glyph glyph-name="germandbls" unicode="&#xdf;" horiz-adv-x="676" 
d="M347 742q73 0 125.5 -18t81 -54t28.5 -89q0 -35 -14 -62.5t-45.5 -50t-83.5 -43.5q-2 -1 -3.5 -3t-1.5 -4t1.5 -4t5.5 -4q42 -19 81 -38.5t69.5 -45.5t48.5 -61.5t18 -85.5q0 -62 -28.5 -104t-80 -63.5t-122.5 -21.5q-42 0 -71 7.5t-50 18.5q-14 8 -7 22l41 89q8 14 21 6
q10 -6 25 -13t37 -7q23 0 40.5 10.5t17.5 34.5q0 15 -8 24.5t-25 18.5t-44 20q-31 14 -56.5 34.5t-40 48.5t-14.5 64q0 40 16.5 67t35.5 47q15 15 28 28.5t21.5 27.5t8.5 30q0 20 -15.5 34.5t-47.5 14.5q-40 0 -59.5 -23.5t-19.5 -58.5v-513q6 -22 -15 -22h-163
q-18 0 -18 20v331q0 10 -8 10h-26q-22 0 -22 19v94q0 9 5.5 15.5t18.5 6.5h18q10 0 12 5.5t2 12.5q2 42 16.5 82.5t46 73.5t85.5 52.5t134 19.5v0z" />
    <glyph glyph-name="agrave" unicode="&#xe0;" horiz-adv-x="573" 
d="M313 42q-27 -22 -62.5 -37t-82.5 -15q-75 0 -117.5 42t-42.5 104q0 59 37.5 103t106.5 68.5t163 24.5h7q4 0 9.5 2.5t5.5 11.5v17q0 28 -14.5 43t-44.5 15q-21 0 -43 -9.5t-35 -37.5q-4 -8 -8.5 -10.5t-18.5 -0.5l-131 26q-7 2 -10.5 7.5t3.5 24.5q23 64 88.5 91.5
t163.5 27.5q93 0 145 -21t73.5 -58t21.5 -86v-348q0 -15 -4.5 -21t-18.5 -6h-137q-13 0 -18.5 10.5t-7.5 24.5l-1 7q-3 20 -27 0v0zM337 224q0 18 -15 18h-4q-12 0 -31.5 -4.5t-38.5 -14t-32.5 -24.5t-13.5 -36t15 -34t42 -13q20 0 33.5 6t21.5 13q9 8 16 16.5t7 19.5v53v0z
M168 739q7 18 21 12l239 -98q14 -6 8 -24l-15 -43q-4 -10 -10 -13t-19 0l-233 56q-27 7 -19 32l28 78v0z" />
    <glyph glyph-name="aacute" unicode="&#xe1;" horiz-adv-x="573" 
d="M313 42q-27 -22 -62.5 -37t-82.5 -15q-75 0 -117.5 42t-42.5 104q0 59 37.5 103t106.5 68.5t163 24.5h7q4 0 9.5 2.5t5.5 11.5v17q0 28 -14.5 43t-44.5 15q-21 0 -43 -9.5t-35 -37.5q-4 -8 -8.5 -10.5t-18.5 -0.5l-131 26q-7 2 -10.5 7.5t3.5 24.5q23 64 88.5 91.5
t163.5 27.5q93 0 145 -21t73.5 -58t21.5 -86v-348q0 -15 -4.5 -21t-18.5 -6h-137q-13 0 -18.5 10.5t-7.5 24.5l-1 7q-3 20 -27 0v0zM337 224q0 18 -15 18h-4q-12 0 -31.5 -4.5t-38.5 -14t-32.5 -24.5t-13.5 -36t15 -34t42 -13q20 0 33.5 6t21.5 13q9 8 16 16.5t7 19.5v53v0z
M435 658q8 -25 -19 -32l-233 -56q-13 -3 -19 0t-10 13l-15 43q-6 18 8 24l240 98q14 6 21 -12z" />
    <glyph glyph-name="acircumflex" unicode="&#xe2;" horiz-adv-x="573" 
d="M313 42q-27 -22 -62.5 -37t-82.5 -15q-75 0 -117.5 42t-42.5 104q0 59 37.5 103t106.5 68.5t163 24.5h7q4 0 9.5 2.5t5.5 11.5v17q0 28 -14.5 43t-44.5 15q-21 0 -43 -9.5t-35 -37.5q-4 -8 -8.5 -10.5t-18.5 -0.5l-131 26q-7 2 -10.5 7.5t3.5 24.5q23 64 88.5 91.5
t163.5 27.5q93 0 145 -21t73.5 -58t21.5 -86v-348q0 -15 -4.5 -21t-18.5 -6h-137q-13 0 -18.5 10.5t-7.5 24.5l-1 7q-3 20 -27 0v0zM337 224q0 18 -15 18h-4q-12 0 -31.5 -4.5t-38.5 -14t-32.5 -24.5t-13.5 -36t15 -34t42 -13q20 0 33.5 6t21.5 13q9 8 16 16.5t7 19.5v53v0z
M302 658q-10 14 -15.5 14t-18.5 -14l-46 -54q-7 -7 -11.5 -8t-14.5 -1h-99q-9 0 -9.5 5t6.5 13l112 124q7 8 15 11.5t22 3.5h95q11 0 17 -4t11 -9l111 -126q17 -18 -2 -18h-105q-9 0 -15.5 1t-11.5 8z" />
    <glyph glyph-name="atilde" unicode="&#xe3;" horiz-adv-x="573" 
d="M313 42q-27 -22 -62.5 -37t-82.5 -15q-75 0 -117.5 42t-42.5 104q0 59 37.5 103t106.5 68.5t163 24.5h7q4 0 9.5 2.5t5.5 11.5v17q0 28 -14.5 43t-44.5 15q-21 0 -43 -9.5t-35 -37.5q-4 -8 -8.5 -10.5t-18.5 -0.5l-131 26q-7 2 -10.5 7.5t3.5 24.5q23 64 88.5 91.5
t163.5 27.5q93 0 145 -21t73.5 -58t21.5 -86v-348q0 -15 -4.5 -21t-18.5 -6h-137q-13 0 -18.5 10.5t-7.5 24.5l-1 7q-3 20 -27 0v0zM337 224q0 18 -15 18h-4q-12 0 -31.5 -4.5t-38.5 -14t-32.5 -24.5t-13.5 -36t15 -34t42 -13q20 0 33.5 6t21.5 13q9 8 16 16.5t7 19.5v53v0z
M471 639q-16 -11 -42.5 -20.5t-57.5 -9.5q-29 0 -55.5 8t-52 15.5t-54.5 7.5q-21 0 -36 -5.5t-35 -19.5q-8 -6 -13.5 -5t-9.5 13l-17 54q-2 8 -2.5 14.5t10.5 16.5q19 16 41 28.5t57 12.5q32 0 61 -8.5t55.5 -17t49.5 -8.5q24 0 44 9t33 19q8 5 15 3.5t9 -12.5l14 -65
q4 -17 -14 -30v0z" />
    <glyph glyph-name="adieresis" unicode="&#xe4;" horiz-adv-x="573" 
d="M313 42q-27 -22 -62.5 -37t-82.5 -15q-75 0 -117.5 42t-42.5 104q0 59 37.5 103t106.5 68.5t163 24.5h7q4 0 9.5 2.5t5.5 11.5v17q0 28 -14.5 43t-44.5 15q-21 0 -43 -9.5t-35 -37.5q-4 -8 -8.5 -10.5t-18.5 -0.5l-131 26q-7 2 -10.5 7.5t3.5 24.5q23 64 88.5 91.5
t163.5 27.5q93 0 145 -21t73.5 -58t21.5 -86v-348q0 -15 -4.5 -21t-18.5 -6h-137q-13 0 -18.5 10.5t-7.5 24.5l-1 7q-3 20 -27 0v0zM337 224q0 18 -15 18h-4q-12 0 -31.5 -4.5t-38.5 -14t-32.5 -24.5t-13.5 -36t15 -34t42 -13q20 0 33.5 6t21.5 13q9 8 16 16.5t7 19.5v53v0z
M252 623q0 -13 -7 -18.5t-22 -5.5h-120q-13 0 -17.5 5.5t-4.5 16.5v101q0 20 16 20h139q16 0 16 -18v-101zM492 623q0 -13 -7 -18.5t-22 -5.5h-120q-13 0 -17.5 5.5t-4.5 16.5v101q0 20 16 20h139q16 0 16 -18v-101z" />
    <glyph glyph-name="aring" unicode="&#xe5;" horiz-adv-x="573" 
d="M313 42q-27 -22 -62.5 -37t-82.5 -15q-75 0 -117.5 42t-42.5 104q0 59 37.5 103t106.5 68.5t163 24.5h7q4 0 9.5 2.5t5.5 11.5v17q0 28 -14.5 43t-44.5 15q-21 0 -43 -9.5t-35 -37.5q-4 -8 -8.5 -10.5t-18.5 -0.5l-131 26q-7 2 -10.5 7.5t3.5 24.5q23 64 88.5 91.5
t163.5 27.5q93 0 145 -21t73.5 -58t21.5 -86v-348q0 -15 -4.5 -21t-18.5 -6h-137q-13 0 -18.5 10.5t-7.5 24.5l-1 7q-3 20 -27 0v0zM337 224q0 18 -15 18h-4q-12 0 -31.5 -4.5t-38.5 -14t-32.5 -24.5t-13.5 -36t15 -34t42 -13q20 0 33.5 6t21.5 13q9 8 16 16.5t7 19.5v53v0z
M404 690q0 -49 -34 -83t-83 -34t-83 34.5t-34 84.5q0 32 16 57.5t42.5 40.5t58.5 15q33 0 59.5 -15.5t42 -41.5t15.5 -58v0zM334 689q0 20 -14 33.5t-34 13.5q-19 0 -34 -13.5t-15 -33.5q0 -19 15 -34t34 -15q20 0 34 15t14 34v0z" />
    <glyph glyph-name="ae" unicode="&#xe6;" horiz-adv-x="905" 
d="M557 229q-7 0 -11 -4t-4 -13q0 -23 8 -40t22 -28t32.5 -16.5t40.5 -5.5q17 0 33.5 5t35 17.5t40.5 33.5q4 4 7.5 4.5t13.5 -3.5l91 -37q18 -7 4 -24q-36 -50 -72.5 -78t-80 -39t-99.5 -11q-42 0 -80 9.5t-70.5 28t-57.5 43.5q-5 6 -11 0q-30 -29 -63 -47t-71 -26t-84 -8
q-85 0 -129 42.5t-44 110.5q0 80 72 130.5t216 57.5l23 1q6 0 12 2.5t6 11.5v17q0 28 -14.5 43t-44.5 15q-21 0 -43 -9.5t-35 -37.5q-4 -10 -8.5 -11.5t-18.5 0.5l-131 26q-7 2 -9 13t2 19q19 39 47.5 65.5t76.5 40t124 13.5q67 -1 112.5 -11t73.5 -29q32 20 69 30t76 10
q79 0 140 -34t96.5 -97.5t35.5 -154.5q0 -13 -2.5 -18.5t-15.5 -6.5h-311v0zM623 423q-20 0 -38 -9.5t-29 -29.5t-11 -51l130 -1q10 0 13.5 2.5t3.5 11.5q0 13 -7 31t-22 32t-40 14v0zM337 216q0 9 -4.5 13.5t-13.5 4.5l-14 -1q-19 -1 -43 -10t-42 -25.5t-18 -41.5
q0 -22 15.5 -35t44.5 -13q19 0 36 6t28 18t11 28v56v0z" />
    <glyph glyph-name="ccedilla" unicode="&#xe7;" horiz-adv-x="556" 
d="M298 540q72 0 122 -26.5t79 -65.5t37 -78q7 -25 -18 -26l-137 -7q-14 -1 -17 14q-2 13 -7 27.5t-17.5 25t-36.5 10.5t-42 -15t-28 -47.5t-10 -86.5q0 -55 11 -88.5t31.5 -48t48.5 -14.5q41 0 60.5 22.5t38.5 56.5q2 4 6 5.5t14 -0.5l94 -18q14 -3 9 -23q-4 -19 -19 -47.5
t-43 -55.5t-71.5 -45.5t-104.5 -18.5q-80 0 -142.5 34.5t-98.5 96t-36 142.5q0 83 36.5 145t99 97t141.5 35v0zM435 -137q0 -27 -18.5 -46.5t-48.5 -30.5t-66 -11q-33 0 -66 5.5t-61 19.5q-10 7 -6 16l17 41q3 8 12 5q17 -9 38 -16t41 -7q21 0 34 7t13 20q0 18 -19.5 28.5
t-71.5 10.5q-7 0 -10.5 2t0.5 10l38 88h81l-19 -49q-4 -9 6 -9q39 0 62.5 -13t33.5 -32.5t10 -38.5v0z" />
    <glyph glyph-name="egrave" unicode="&#xe8;" horiz-adv-x="590" 
d="M227 212q0 -30 13.5 -50t37 -30t52.5 -10q26 0 51 12t58 44q4 4 7.5 4.5t13.5 -3.5l91 -37q18 -7 4 -24q-36 -50 -72.5 -78t-80 -39t-99.5 -11q-80 0 -144 34t-101 94t-37 138q0 85 38.5 149t102 99.5t137.5 35.5q79 0 140 -34t96.5 -97.5t35.5 -154.5q0 -13 -2.5 -18.5
t-15.5 -6.5h-311q-7 0 -11 -4t-4 -13v0zM360 332q10 0 13.5 2.5t3.5 11.5q0 13 -7 31t-22 32t-40 14q-20 0 -38.5 -9.5t-29 -29.5t-10.5 -51zM182 739q7 18 21 12l239 -98q14 -6 8 -24l-15 -43q-4 -10 -10 -13t-19 0l-233 56q-27 7 -19 32l28 78v0z" />
    <glyph glyph-name="eacute" unicode="&#xe9;" horiz-adv-x="590" 
d="M227 212q0 -30 13.5 -50t37 -30t52.5 -10q26 0 51 12t58 44q4 4 7.5 4.5t13.5 -3.5l91 -37q18 -7 4 -24q-36 -50 -72.5 -78t-80 -39t-99.5 -11q-80 0 -144 34t-101 94t-37 138q0 85 38.5 149t102 99.5t137.5 35.5q79 0 140 -34t96.5 -97.5t35.5 -154.5q0 -13 -2.5 -18.5
t-15.5 -6.5h-311q-7 0 -11 -4t-4 -13v0zM360 332q10 0 13.5 2.5t3.5 11.5q0 13 -7 31t-22 32t-40 14q-20 0 -38.5 -9.5t-29 -29.5t-10.5 -51zM449 658q8 -25 -19 -32l-233 -56q-13 -3 -19 0t-10 13l-15 43q-6 18 8 24l240 98q14 6 21 -12z" />
    <glyph glyph-name="ecircumflex" unicode="&#xea;" horiz-adv-x="590" 
d="M227 212q0 -30 13.5 -50t37 -30t52.5 -10q26 0 51 12t58 44q4 4 7.5 4.5t13.5 -3.5l91 -37q18 -7 4 -24q-36 -50 -72.5 -78t-80 -39t-99.5 -11q-80 0 -144 34t-101 94t-37 138q0 85 38.5 149t102 99.5t137.5 35.5q79 0 140 -34t96.5 -97.5t35.5 -154.5q0 -13 -2.5 -18.5
t-15.5 -6.5h-311q-7 0 -11 -4t-4 -13v0zM360 332q10 0 13.5 2.5t3.5 11.5q0 13 -7 31t-22 32t-40 14q-20 0 -38.5 -9.5t-29 -29.5t-10.5 -51zM316 658q-10 14 -15.5 14t-18.5 -14l-46 -54q-7 -7 -11.5 -8t-14.5 -1h-99q-9 0 -9.5 5t6.5 13l112 124q7 8 15 11.5t22 3.5h95
q11 0 17 -4t11 -9l111 -126q17 -18 -2 -18h-105q-9 0 -15.5 1t-11.5 8z" />
    <glyph glyph-name="edieresis" unicode="&#xeb;" horiz-adv-x="590" 
d="M227 212q0 -30 13.5 -50t37 -30t52.5 -10q26 0 51 12t58 44q4 4 7.5 4.5t13.5 -3.5l91 -37q18 -7 4 -24q-36 -50 -72.5 -78t-80 -39t-99.5 -11q-80 0 -144 34t-101 94t-37 138q0 85 38.5 149t102 99.5t137.5 35.5q79 0 140 -34t96.5 -97.5t35.5 -154.5q0 -13 -2.5 -18.5
t-15.5 -6.5h-311q-7 0 -11 -4t-4 -13v0zM360 332q10 0 13.5 2.5t3.5 11.5q0 13 -7 31t-22 32t-40 14q-20 0 -38.5 -9.5t-29 -29.5t-10.5 -51zM266 623q0 -13 -7 -18.5t-22 -5.5h-120q-13 0 -17.5 5.5t-4.5 16.5v101q0 20 16 20h139q16 0 16 -18v-101zM506 623
q0 -13 -7 -18.5t-22 -5.5h-120q-13 0 -17.5 5.5t-4.5 16.5v101q0 20 16 20h139q16 0 16 -18v-101z" />
    <glyph glyph-name="igrave" unicode="&#xec;" horiz-adv-x="282" 
d="M241 29q0 -16 -8 -22.5t-25 -6.5h-141q-15 0 -20.5 6t-5.5 19v482q0 23 19 23h163q18 0 18 -20v-481zM26 739q7 18 21 12l239 -98q14 -6 8 -24l-15 -43q-4 -10 -10 -13t-19 0l-233 56q-27 7 -19 32l28 78v0z" />
    <glyph glyph-name="iacute" unicode="&#xed;" horiz-adv-x="282" 
d="M241 29q0 -16 -8 -22.5t-25 -6.5h-141q-15 0 -20.5 6t-5.5 19v482q0 23 19 23h163q18 0 18 -20v-481zM293 658q8 -25 -19 -32l-233 -56q-13 -3 -19 0t-10 13l-15 43q-6 18 8 24l240 98q14 6 21 -12z" />
    <glyph glyph-name="icircumflex" unicode="&#xee;" horiz-adv-x="282" 
d="M241 29q0 -16 -8 -22.5t-25 -6.5h-141q-15 0 -20.5 6t-5.5 19v482q0 23 19 23h163q18 0 18 -20v-481zM160 658q-10 14 -15.5 14t-18.5 -14l-46 -54q-7 -7 -11.5 -8t-14.5 -1h-99q-9 0 -9.5 5t6.5 13l112 124q7 8 15 11.5t22 3.5h95q11 0 17 -4t11 -9l111 -126
q17 -18 -2 -18h-105q-9 0 -15.5 1t-11.5 8z" />
    <glyph glyph-name="idieresis" unicode="&#xef;" horiz-adv-x="282" 
d="M241 29q0 -16 -8 -22.5t-25 -6.5h-141q-15 0 -20.5 6t-5.5 19v482q0 23 19 23h163q18 0 18 -20v-481zM110 623q0 -13 -7 -18.5t-22 -5.5h-120q-13 0 -17.5 5.5t-4.5 16.5v101q0 20 16 20h139q16 0 16 -18v-101zM350 623q0 -13 -7 -18.5t-22 -5.5h-120q-13 0 -17.5 5.5
t-4.5 16.5v101q0 20 16 20h139q16 0 16 -18v-101z" />
    <glyph glyph-name="eth" unicode="&#xf0;" 
d="M579 282q0 -90 -35 -155.5t-98 -101t-147 -35.5q-82 0 -144.5 34.5t-98 94t-35.5 133.5q0 79 37 139t100 94.5t142 34.5q3 0 3.5 1.5t-1.5 3.5q-14 20 -29.5 34.5t-36.5 30.5l-96 -54q-15 -8 -24 7l-15 24q-6 8 -4.5 14t6.5 8l71 39q-19 10 -39 19t-43 16q-4 2 -5.5 6
t3.5 8l84 69q5 5 8.5 5.5t12.5 -1.5q32 -7 62.5 -18t58.5 -25l75 42q10 7 18 -2l21 -38q5 -8 -4 -14l-46 -26q93 -65 146 -166.5t53 -220.5v0zM300 118q27 0 44 15t25 46t8 77q0 48 -8 79t-25 46t-44 15q-26 0 -43.5 -15t-25.5 -46t-8 -79q0 -47 8 -77.5t25.5 -45.5
t43.5 -15v0z" />
    <glyph glyph-name="ntilde" unicode="&#xf1;" horiz-adv-x="604" 
d="M67 0q-26 0 -26 25v482q0 23 19 23h161q18 0 18 -20v-45q0 -6 3.5 -8t9.5 4q21 23 46 41t53.5 28t59.5 10q70 0 113.5 -44t43.5 -118v-348q0 -30 -30 -30h-147q-13 0 -18 5.5t-5 19.5v326q0 23 -14.5 35.5t-38.5 12.5q-15 0 -28.5 -5.5t-24.5 -16.5t-21 -28v-320
q0 -29 -33 -29h-141v0zM488 639q-16 -11 -42.5 -20.5t-57.5 -9.5q-29 0 -55.5 8t-52 15.5t-54.5 7.5q-21 0 -36 -5.5t-35 -19.5q-8 -6 -13.5 -5t-9.5 13l-17 54q-2 8 -2.5 14.5t10.5 16.5q19 16 41 28.5t57 12.5q32 0 61 -8.5t55.5 -17t49.5 -8.5q24 0 44 9t33 19
q8 5 15 3.5t9 -12.5l14 -65q4 -17 -14 -30v0z" />
    <glyph glyph-name="ograve" unicode="&#xf2;" 
d="M299 -10q-82 0 -144.5 35t-98 96.5t-35.5 140.5q0 84 37 146.5t100 97t142 34.5q84 0 146.5 -36t97.5 -98.5t35 -143.5q0 -79 -35.5 -140.5t-98.5 -96.5t-146 -35v0zM300 118q27 0 44 15.5t25 48.5t8 84q0 53 -8 86t-25 48.5t-44 15.5q-26 0 -43.5 -15.5t-25.5 -48.5
t-8 -86q0 -52 8 -84.5t25.5 -48t43.5 -15.5v0zM181 739q7 18 21 12l239 -98q14 -6 8 -24l-15 -43q-4 -10 -10 -13t-19 0l-233 56q-27 7 -19 32l28 78v0z" />
    <glyph glyph-name="oacute" unicode="&#xf3;" 
d="M299 -10q-82 0 -144.5 35t-98 96.5t-35.5 140.5q0 84 37 146.5t100 97t142 34.5q84 0 146.5 -36t97.5 -98.5t35 -143.5q0 -79 -35.5 -140.5t-98.5 -96.5t-146 -35v0zM300 118q27 0 44 15.5t25 48.5t8 84q0 53 -8 86t-25 48.5t-44 15.5q-26 0 -43.5 -15.5t-25.5 -48.5
t-8 -86q0 -52 8 -84.5t25.5 -48t43.5 -15.5v0zM448 658q8 -25 -19 -32l-233 -56q-13 -3 -19 0t-10 13l-15 43q-6 18 8 24l240 98q14 6 21 -12z" />
    <glyph glyph-name="ocircumflex" unicode="&#xf4;" 
d="M299 -10q-82 0 -144.5 35t-98 96.5t-35.5 140.5q0 84 37 146.5t100 97t142 34.5q84 0 146.5 -36t97.5 -98.5t35 -143.5q0 -79 -35.5 -140.5t-98.5 -96.5t-146 -35v0zM300 118q27 0 44 15.5t25 48.5t8 84q0 53 -8 86t-25 48.5t-44 15.5q-26 0 -43.5 -15.5t-25.5 -48.5
t-8 -86q0 -52 8 -84.5t25.5 -48t43.5 -15.5v0zM315 658q-10 14 -15.5 14t-18.5 -14l-46 -54q-7 -7 -11.5 -8t-14.5 -1h-99q-9 0 -9.5 5t6.5 13l112 124q7 8 15 11.5t22 3.5h95q11 0 17 -4t11 -9l111 -126q17 -18 -2 -18h-105q-9 0 -15.5 1t-11.5 8z" />
    <glyph glyph-name="otilde" unicode="&#xf5;" 
d="M299 -10q-82 0 -144.5 35t-98 96.5t-35.5 140.5q0 84 37 146.5t100 97t142 34.5q84 0 146.5 -36t97.5 -98.5t35 -143.5q0 -79 -35.5 -140.5t-98.5 -96.5t-146 -35v0zM300 118q27 0 44 15.5t25 48.5t8 84q0 53 -8 86t-25 48.5t-44 15.5q-26 0 -43.5 -15.5t-25.5 -48.5
t-8 -86q0 -52 8 -84.5t25.5 -48t43.5 -15.5v0zM484 639q-16 -11 -42.5 -20.5t-57.5 -9.5q-29 0 -55.5 8t-52 15.5t-54.5 7.5q-21 0 -36 -5.5t-35 -19.5q-8 -6 -13.5 -5t-9.5 13l-17 54q-2 8 -2.5 14.5t10.5 16.5q19 16 41 28.5t57 12.5q32 0 61 -8.5t55.5 -17t49.5 -8.5
q24 0 44 9t33 19q8 5 15 3.5t9 -12.5l14 -65q4 -17 -14 -30v0z" />
    <glyph glyph-name="odieresis" unicode="&#xf6;" 
d="M299 -10q-82 0 -144.5 35t-98 96.5t-35.5 140.5q0 84 37 146.5t100 97t142 34.5q84 0 146.5 -36t97.5 -98.5t35 -143.5q0 -79 -35.5 -140.5t-98.5 -96.5t-146 -35v0zM300 118q27 0 44 15.5t25 48.5t8 84q0 53 -8 86t-25 48.5t-44 15.5q-26 0 -43.5 -15.5t-25.5 -48.5
t-8 -86q0 -52 8 -84.5t25.5 -48t43.5 -15.5v0zM265 623q0 -13 -7 -18.5t-22 -5.5h-120q-13 0 -17.5 5.5t-4.5 16.5v101q0 20 16 20h139q16 0 16 -18v-101zM505 623q0 -13 -7 -18.5t-22 -5.5h-120q-13 0 -17.5 5.5t-4.5 16.5v101q0 20 16 20h139q16 0 16 -18v-101z" />
    <glyph glyph-name="divide" unicode="&#xf7;" horiz-adv-x="602" 
d="M397 87q0 -26 -30 -26h-136q-24 0 -24 22v140q0 20 17 20h157q16 0 16 -18v-138zM562 331q0 -28 -33 -28h-463q-15 0 -20.5 6t-5.5 19v93q0 23 19 23h485q18 0 18 -20v-93zM397 530q0 -26 -30 -26h-136q-24 0 -24 23v139q0 20 17 20h157q16 0 16 -18v-138z" />
    <glyph glyph-name="oslash" unicode="&#xf8;" horiz-adv-x="604" 
d="M94 12q-12 -11 -22 -11.5t-21 11.5l-19 20q-20 22 -4 37l485 451q19 17 31 5l34 -36q14 -14 -1 -27zM299 -10q-82 0 -144.5 35t-98 96.5t-35.5 140.5q0 84 37 146.5t100 97t142 34.5q84 0 146.5 -36t97.5 -98.5t35 -143.5q0 -79 -35.5 -140.5t-98.5 -96.5t-146 -35v0z
M300 118q27 0 44 15.5t25 48.5t8 84q0 53 -8 86t-25 48.5t-44 15.5q-26 0 -43.5 -15.5t-25.5 -48.5t-8 -86q0 -52 8 -84.5t25.5 -48t43.5 -15.5v0z" />
    <glyph glyph-name="ugrave" unicode="&#xf9;" horiz-adv-x="601" 
d="M285 130q23 0 42.5 12t32.5 29v330q0 29 33 29h143q26 0 26 -26l-4 -482q0 -22 -19 -22h-158q-18 0 -18 20v44q0 6 -3.5 7.5t-8.5 -3.5q-34 -40 -75 -59t-91 -19q-43 0 -76.5 19.5t-53 57t-19.5 90.5v343q0 30 31 30h146q23 0 23 -26v-325q0 -23 13.5 -36t35.5 -13v0z
M180 739q7 18 21 12l239 -98q14 -6 8 -24l-15 -43q-4 -10 -10 -13t-19 0l-233 56q-27 7 -19 32l28 78v0z" />
    <glyph glyph-name="uacute" unicode="&#xfa;" horiz-adv-x="601" 
d="M285 130q23 0 42.5 12t32.5 29v330q0 29 33 29h143q26 0 26 -26l-4 -482q0 -22 -19 -22h-158q-18 0 -18 20v44q0 6 -3.5 7.5t-8.5 -3.5q-34 -40 -75 -59t-91 -19q-43 0 -76.5 19.5t-53 57t-19.5 90.5v343q0 30 31 30h146q23 0 23 -26v-325q0 -23 13.5 -36t35.5 -13v0z
M447 658q8 -25 -19 -32l-233 -56q-13 -3 -19 0t-10 13l-15 43q-6 18 8 24l240 98q14 6 21 -12z" />
    <glyph glyph-name="ucircumflex" unicode="&#xfb;" horiz-adv-x="601" 
d="M285 130q23 0 42.5 12t32.5 29v330q0 29 33 29h143q26 0 26 -26l-4 -482q0 -22 -19 -22h-158q-18 0 -18 20v44q0 6 -3.5 7.5t-8.5 -3.5q-34 -40 -75 -59t-91 -19q-43 0 -76.5 19.5t-53 57t-19.5 90.5v343q0 30 31 30h146q23 0 23 -26v-325q0 -23 13.5 -36t35.5 -13v0z
M314 658q-10 14 -15.5 14t-18.5 -14l-46 -54q-7 -7 -11.5 -8t-14.5 -1h-99q-9 0 -9.5 5t6.5 13l112 124q7 8 15 11.5t22 3.5h95q11 0 17 -4t11 -9l111 -126q17 -18 -2 -18h-105q-9 0 -15.5 1t-11.5 8z" />
    <glyph glyph-name="udieresis" unicode="&#xfc;" horiz-adv-x="601" 
d="M285 130q23 0 42.5 12t32.5 29v330q0 29 33 29h143q26 0 26 -26l-4 -482q0 -22 -19 -22h-158q-18 0 -18 20v44q0 6 -3.5 7.5t-8.5 -3.5q-34 -40 -75 -59t-91 -19q-43 0 -76.5 19.5t-53 57t-19.5 90.5v343q0 30 31 30h146q23 0 23 -26v-325q0 -23 13.5 -36t35.5 -13v0z
M264 623q0 -13 -7 -18.5t-22 -5.5h-120q-13 0 -17.5 5.5t-4.5 16.5v101q0 20 16 20h139q16 0 16 -18v-101zM504 623q0 -13 -7 -18.5t-22 -5.5h-120q-13 0 -17.5 5.5t-4.5 16.5v101q0 20 16 20h139q16 0 16 -18v-101z" />
    <glyph glyph-name="yacute" unicode="&#xfd;" horiz-adv-x="589" 
d="M102 -165q-31 0 -43.5 4t-12.5 18v102q0 6 6 12.5t22 6.5h71q17 0 31 5t22.5 12.5t12 17t-0.5 18.5l-194 470q-4 11 1.5 20t17.5 9h169q9 0 16 -6t10 -14l85 -240q3 -9 8 -9.5t9 9.5l86 240q4 8 10.5 14t15.5 6h112q12 0 17 -9t0 -20l-195 -470q-26 -63 -51.5 -101.5
t-56.5 -59t-71.5 -28t-96.5 -7.5v0zM474 658q8 -25 -19 -32l-233 -56q-13 -3 -19 0t-10 13l-15 43q-6 18 8 24l240 98q14 6 21 -12z" />
    <glyph glyph-name="thorn" unicode="&#xfe;" horiz-adv-x="614" 
d="M216 742q26 0 26 -24v-233q0 -6 5 -6t10 4q20 18 40 30.5t44.5 19.5t55.5 7q56 0 100 -29.5t70 -89.5t26 -154q0 -101 -27.5 -162t-73.5 -88t-102 -27q-34 0 -65 10.5t-63 40.5q-12 11 -16.5 10.5t-4.5 -15.5v-181q0 -20 -18 -20h-163q-19 0 -19 22v859q0 13 5.5 19.5
t21.5 6.5h148v0zM241 151q13 -18 29.5 -29t40.5 -11q25 0 43 14t27.5 49t9.5 99q0 58 -9 89.5t-27 44t-44 12.5q-19 0 -35 -7.5t-25.5 -20t-9.5 -28.5v-212v0z" />
    <glyph glyph-name="ydieresis" unicode="&#xff;" horiz-adv-x="589" 
d="M102 -165q-31 0 -43.5 4t-12.5 18v102q0 6 6 12.5t22 6.5h71q17 0 31 5t22.5 12.5t12 17t-0.5 18.5l-194 470q-4 11 1.5 20t17.5 9h169q9 0 16 -6t10 -14l85 -240q3 -9 8 -9.5t9 9.5l86 240q4 8 10.5 14t15.5 6h112q12 0 17 -9t0 -20l-195 -470q-26 -63 -51.5 -101.5
t-56.5 -59t-71.5 -28t-96.5 -7.5v0zM291 623q0 -13 -7 -18.5t-22 -5.5h-120q-13 0 -17.5 5.5t-4.5 16.5v101q0 20 16 20h139q16 0 16 -18v-101zM531 623q0 -13 -7 -18.5t-22 -5.5h-120q-13 0 -17.5 5.5t-4.5 16.5v101q0 20 16 20h139q16 0 16 -18v-101z" />
    <glyph glyph-name="Amacron" unicode="&#x100;" horiz-adv-x="799" 
d="M43 0q-11 0 -16 10.5t1 26.5l242 682q5 12 11 17.5t19 5.5h197q26 0 36 -27l240 -681q4 -10 0.5 -22t-14.5 -12h-196q-17 0 -22 17l-39 115q-2 5 -4.5 8.5t-10.5 3.5h-212q-12 0 -15 -11l-41 -118q-2 -6 -7.5 -10.5t-16.5 -4.5h-152v0zM437 314q15 0 9 20l-60 171
q-2 5 -6 5t-6 -5l-61 -170q-8 -21 10 -21h114zM600 855q0 -24 -29 -24h-360q-13 0 -17.5 5.5t-4.5 16.5v81q0 20 16 20h379q16 0 16 -18v-81z" />
    <glyph glyph-name="amacron" unicode="&#x101;" horiz-adv-x="573" 
d="M313 42q-27 -22 -62.5 -37t-82.5 -15q-75 0 -117.5 42t-42.5 104q0 59 37.5 103t106.5 68.5t163 24.5h7q4 0 9.5 2.5t5.5 11.5v17q0 28 -14.5 43t-44.5 15q-21 0 -43 -9.5t-35 -37.5q-4 -8 -8.5 -10.5t-18.5 -0.5l-131 26q-7 2 -10.5 7.5t3.5 24.5q23 64 88.5 91.5
t163.5 27.5q93 0 145 -21t73.5 -58t21.5 -86v-348q0 -15 -4.5 -21t-18.5 -6h-137q-13 0 -18.5 10.5t-7.5 24.5l-1 7q-3 20 -27 0v0zM337 224q0 18 -15 18h-4q-12 0 -31.5 -4.5t-38.5 -14t-32.5 -24.5t-13.5 -36t15 -34t42 -13q20 0 33.5 6t21.5 13q9 8 16 16.5t7 19.5v53v0z
M492 643q0 -24 -29 -24h-360q-13 0 -17.5 5.5t-4.5 16.5v81q0 20 16 20h379q16 0 16 -18v-81z" />
    <glyph glyph-name="Abreve" unicode="&#x102;" horiz-adv-x="799" 
d="M43 0q-11 0 -16 10.5t1 26.5l242 682q5 12 11 17.5t19 5.5h197q26 0 36 -27l240 -681q4 -10 0.5 -22t-14.5 -12h-196q-17 0 -22 17l-39 115q-2 5 -4.5 8.5t-10.5 3.5h-212q-12 0 -15 -11l-41 -118q-2 -6 -7.5 -10.5t-16.5 -4.5h-152v0zM437 314q15 0 9 20l-60 171
q-2 5 -6 5t-6 -5l-61 -170q-8 -21 10 -21h114zM579 954q20 0 13 -18q-16 -44 -45.5 -73t-68 -43.5t-82.5 -14.5q-43 0 -84 13.5t-71.5 43t-42.5 76.5q-1 6 1.5 11t9.5 5h77q9 0 13.5 -3t10.5 -11q10 -13 23.5 -23.5t30 -16.5t32.5 -6q23 0 47.5 13t37.5 34q5 9 9.5 11
t10.5 2h78v0z" />
    <glyph glyph-name="abreve" unicode="&#x103;" horiz-adv-x="573" 
d="M313 42q-27 -22 -62.5 -37t-82.5 -15q-75 0 -117.5 42t-42.5 104q0 59 37.5 103t106.5 68.5t163 24.5h7q4 0 9.5 2.5t5.5 11.5v17q0 28 -14.5 43t-44.5 15q-21 0 -43 -9.5t-35 -37.5q-4 -8 -8.5 -10.5t-18.5 -0.5l-131 26q-7 2 -10.5 7.5t3.5 24.5q23 64 88.5 91.5
t163.5 27.5q93 0 145 -21t73.5 -58t21.5 -86v-348q0 -15 -4.5 -21t-18.5 -6h-137q-13 0 -18.5 10.5t-7.5 24.5l-1 7q-3 20 -27 0v0zM337 224q0 18 -15 18h-4q-12 0 -31.5 -4.5t-38.5 -14t-32.5 -24.5t-13.5 -36t15 -34t42 -13q20 0 33.5 6t21.5 13q9 8 16 16.5t7 19.5v53v0z
M471 742q20 0 13 -18q-16 -44 -45.5 -73t-68 -43.5t-82.5 -14.5q-43 0 -84 13.5t-71.5 43t-42.5 76.5q-1 6 1.5 11t9.5 5h77q9 0 13.5 -3t10.5 -11q10 -13 23.5 -23.5t30 -16.5t32.5 -6q23 0 47.5 13t37.5 34q5 9 9.5 11t10.5 2h78v0z" />
    <glyph glyph-name="Aogonek" unicode="&#x104;" horiz-adv-x="799" 
d="M43 0q-11 0 -16 10.5t1 26.5l242 682q5 12 11 17.5t19 5.5h197q26 0 36 -27l240 -681q4 -10 0.5 -22t-14.5 -12h-196q-17 0 -22 17l-39 115q-2 5 -4.5 8.5t-10.5 3.5h-212q-12 0 -15 -11l-41 -118q-2 -6 -7.5 -10.5t-16.5 -4.5h-152v0zM437 314q15 0 9 20l-60 171
q-2 5 -6 5t-6 -5l-61 -170q-8 -21 10 -21h114zM538 -88q0 26 18 49t76 44h136q-56 -18 -74 -33t-18 -32q0 -15 7 -22t21 -7q17 0 30 4.5t26 11.5q18 9 18 -11v-52q0 -12 -10 -18q-13 -7 -43 -14t-66 -7q-54 0 -87.5 21t-33.5 66v0z" />
    <glyph glyph-name="aogonek" unicode="&#x105;" horiz-adv-x="573" 
d="M313 42q-27 -22 -62.5 -37t-82.5 -15q-75 0 -117.5 42t-42.5 104q0 59 37.5 103t106.5 68.5t163 24.5h7q4 0 9.5 2.5t5.5 11.5v17q0 28 -14.5 43t-44.5 15q-21 0 -43 -9.5t-35 -37.5q-4 -8 -8.5 -10.5t-18.5 -0.5l-131 26q-7 2 -10.5 7.5t3.5 24.5q23 64 88.5 91.5
t163.5 27.5q93 0 145 -21t73.5 -58t21.5 -86v-348q0 -15 -4.5 -21t-18.5 -6h-137q-13 0 -18.5 10.5t-7.5 24.5l-1 7q-3 20 -27 0v0zM337 224q0 18 -15 18h-4q-12 0 -31.5 -4.5t-38.5 -14t-32.5 -24.5t-13.5 -36t15 -34t42 -13q20 0 33.5 6t21.5 13q9 8 16 16.5t7 19.5v53v0z
M291 -87q0 26 18 49t76 44h136q-56 -18 -74 -33t-18 -32q0 -15 7 -22t21 -7q17 0 30 4.5t26 11.5q18 9 18 -11v-52q0 -12 -10 -18q-13 -7 -43 -14t-66 -7q-54 0 -87.5 21t-33.5 66v0z" />
    <glyph glyph-name="Cacute" unicode="&#x106;" horiz-adv-x="737" 
d="M385 752q63 0 116.5 -17t95 -48t68 -73t36.5 -92q5 -21 1.5 -27t-14.5 -8l-175 -11q-11 0 -14 4.5t-5 14.5q-8 44 -30.5 73.5t-72.5 29.5q-56 0 -89.5 -49.5t-33.5 -171.5q0 -124 30.5 -173.5t91.5 -49.5q50 0 88.5 25.5t64.5 91.5q5 12 28 8l125 -25q5 -1 11 -7t3 -26
q-3 -16 -16 -44t-37 -60.5t-62 -61t-90.5 -47t-121.5 -18.5q-107 0 -186.5 50.5t-123 139t-43.5 201.5t43.5 196t123.5 129t188 46v0zM533 870q8 -25 -19 -32l-233 -56q-13 -3 -19 0t-10 13l-15 43q-6 18 8 24l240 98q14 6 21 -12z" />
    <glyph glyph-name="cacute" unicode="&#x107;" horiz-adv-x="556" 
d="M298 540q72 0 122 -26.5t79 -65.5t37 -78q7 -25 -18 -26l-137 -7q-14 -1 -17 14q-2 13 -7 27.5t-17.5 25t-36.5 10.5t-42 -15t-28 -47.5t-10 -86.5q0 -55 11 -88.5t31.5 -48t48.5 -14.5q41 0 60.5 22.5t38.5 56.5q2 4 6 5.5t14 -0.5l94 -18q14 -3 9 -23q-4 -19 -19 -47.5
t-43 -55.5t-71.5 -45.5t-104.5 -18.5q-80 0 -142.5 34.5t-98.5 96t-36 142.5q0 83 36.5 145t99 97t141.5 35v0zM446 658q8 -25 -19 -32l-233 -56q-13 -3 -19 0t-10 13l-15 43q-6 18 8 24l240 98q14 6 21 -12z" />
    <glyph glyph-name="Ccircumflex" unicode="&#x108;" horiz-adv-x="737" 
d="M385 752q63 0 116.5 -17t95 -48t68 -73t36.5 -92q5 -21 1.5 -27t-14.5 -8l-175 -11q-11 0 -14 4.5t-5 14.5q-8 44 -30.5 73.5t-72.5 29.5q-56 0 -89.5 -49.5t-33.5 -171.5q0 -124 30.5 -173.5t91.5 -49.5q50 0 88.5 25.5t64.5 91.5q5 12 28 8l125 -25q5 -1 11 -7t3 -26
q-3 -16 -16 -44t-37 -60.5t-62 -61t-90.5 -47t-121.5 -18.5q-107 0 -186.5 50.5t-123 139t-43.5 201.5t43.5 196t123.5 129t188 46v0zM400 870q-10 14 -15.5 14t-18.5 -14l-46 -54q-7 -7 -11.5 -8t-14.5 -1h-99q-9 0 -9.5 5t6.5 13l112 124q7 8 15 11.5t22 3.5h95
q11 0 17 -4t11 -9l111 -126q17 -18 -2 -18h-105q-9 0 -15.5 1t-11.5 8z" />
    <glyph glyph-name="ccircumflex" unicode="&#x109;" horiz-adv-x="556" 
d="M298 540q72 0 122 -26.5t79 -65.5t37 -78q7 -25 -18 -26l-137 -7q-14 -1 -17 14q-2 13 -7 27.5t-17.5 25t-36.5 10.5t-42 -15t-28 -47.5t-10 -86.5q0 -55 11 -88.5t31.5 -48t48.5 -14.5q41 0 60.5 22.5t38.5 56.5q2 4 6 5.5t14 -0.5l94 -18q14 -3 9 -23q-4 -19 -19 -47.5
t-43 -55.5t-71.5 -45.5t-104.5 -18.5q-80 0 -142.5 34.5t-98.5 96t-36 142.5q0 83 36.5 145t99 97t141.5 35v0zM313 658q-10 14 -15.5 14t-18.5 -14l-46 -54q-7 -7 -11.5 -8t-14.5 -1h-99q-9 0 -9.5 5t6.5 13l112 124q7 8 15 11.5t22 3.5h95q11 0 17 -4t11 -9l111 -126
q17 -18 -2 -18h-105q-9 0 -15.5 1t-11.5 8z" />
    <glyph glyph-name="Cdotaccent" unicode="&#x10a;" horiz-adv-x="737" 
d="M385 752q63 0 116.5 -17t95 -48t68 -73t36.5 -92q5 -21 1.5 -27t-14.5 -8l-175 -11q-11 0 -14 4.5t-5 14.5q-8 44 -30.5 73.5t-72.5 29.5q-56 0 -89.5 -49.5t-33.5 -171.5q0 -124 30.5 -173.5t91.5 -49.5q50 0 88.5 25.5t64.5 91.5q5 12 28 8l125 -25q5 -1 11 -7t3 -26
q-3 -16 -16 -44t-37 -60.5t-62 -61t-90.5 -47t-121.5 -18.5q-107 0 -186.5 50.5t-123 139t-43.5 201.5t43.5 196t123.5 129t188 46v0zM485 815q0 -15 -8 -22t-25 -7h-141q-15 0 -20.5 6.5t-5.5 19.5v119q0 23 19 23h163q18 0 18 -21v-118z" />
    <glyph glyph-name="cdotaccent" unicode="&#x10b;" horiz-adv-x="556" 
d="M298 540q72 0 122 -26.5t79 -65.5t37 -78q7 -25 -18 -26l-137 -7q-14 -1 -17 14q-2 13 -7 27.5t-17.5 25t-36.5 10.5t-42 -15t-28 -47.5t-10 -86.5q0 -55 11 -88.5t31.5 -48t48.5 -14.5q41 0 60.5 22.5t38.5 56.5q2 4 6 5.5t14 -0.5l94 -18q14 -3 9 -23q-4 -19 -19 -47.5
t-43 -55.5t-71.5 -45.5t-104.5 -18.5q-80 0 -142.5 34.5t-98.5 96t-36 142.5q0 83 36.5 145t99 97t141.5 35v0zM398 603q0 -15 -8 -22t-25 -7h-141q-15 0 -20.5 6.5t-5.5 19.5v119q0 23 19 23h163q18 0 18 -21v-118z" />
    <glyph glyph-name="Ccaron" unicode="&#x10c;" horiz-adv-x="737" 
d="M385 752q63 0 116.5 -17t95 -48t68 -73t36.5 -92q5 -21 1.5 -27t-14.5 -8l-175 -11q-11 0 -14 4.5t-5 14.5q-8 44 -30.5 73.5t-72.5 29.5q-56 0 -89.5 -49.5t-33.5 -171.5q0 -124 30.5 -173.5t91.5 -49.5q50 0 88.5 25.5t64.5 91.5q5 12 28 8l125 -25q5 -1 11 -7t3 -26
q-3 -16 -16 -44t-37 -60.5t-62 -61t-90.5 -47t-121.5 -18.5q-107 0 -186.5 50.5t-123 139t-43.5 201.5t43.5 196t123.5 129t188 46v0zM441 946q5 7 11.5 8t15.5 1h105q19 0 2 -18l-111 -127q-5 -5 -11 -9t-17 -4h-95q-14 0 -22 4t-15 11l-112 125q-7 8 -6.5 13t9.5 5h99
q10 0 15 -0.5t11 -8.5l46 -55q12 -15 18 -14t16 14l41 55v0z" />
    <glyph glyph-name="ccaron" unicode="&#x10d;" horiz-adv-x="556" 
d="M298 540q72 0 122 -26.5t79 -65.5t37 -78q7 -25 -18 -26l-137 -7q-14 -1 -17 14q-2 13 -7 27.5t-17.5 25t-36.5 10.5t-42 -15t-28 -47.5t-10 -86.5q0 -55 11 -88.5t31.5 -48t48.5 -14.5q41 0 60.5 22.5t38.5 56.5q2 4 6 5.5t14 -0.5l94 -18q14 -3 9 -23q-4 -19 -19 -47.5
t-43 -55.5t-71.5 -45.5t-104.5 -18.5q-80 0 -142.5 34.5t-98.5 96t-36 142.5q0 83 36.5 145t99 97t141.5 35v0zM354 734q5 7 11.5 8t15.5 1h105q19 0 2 -18l-111 -127q-5 -5 -11 -9t-17 -4h-95q-14 0 -22 4t-15 11l-112 125q-7 8 -6.5 13t9.5 5h99q10 0 15 -0.5t11 -8.5
l46 -55q12 -15 18 -14t16 14l41 55v0z" />
    <glyph glyph-name="Dcaron" unicode="&#x10e;" horiz-adv-x="771" 
d="M79 742h61h75h73.5t56.5 -1q134 -4 221.5 -52t130.5 -129.5t43 -187.5q0 -107 -44 -191.5t-132 -132.5t-220 -48h-263q-29 0 -29 30v687q0 14 6 19.5t21 5.5v0zM289 585q-10 0 -10 -14v-399q0 -15 14 -15h7q63 0 108 21t69.5 69t24.5 127q0 70 -20 116.5t-62 70.5
t-107 24h-24v0zM420 946q5 7 11.5 8t15.5 1h105q19 0 2 -18l-111 -127q-5 -5 -11 -9t-17 -4h-95q-14 0 -22 4t-15 11l-112 125q-7 8 -6.5 13t9.5 5h99q10 0 15 -0.5t11 -8.5l46 -55q12 -15 18 -14t16 14l41 55v0z" />
    <glyph glyph-name="dcaron" unicode="&#x10f;" horiz-adv-x="788" 
d="M403 0q-10 0 -17.5 5t-7.5 18v19q0 7 -5 8t-10 -4q-19 -18 -39.5 -30.5t-45 -19t-55.5 -6.5q-59 0 -104 30.5t-70.5 91.5t-25.5 151q0 84 29.5 146t77.5 96.5t103 34.5q34 0 63.5 -11t60.5 -41q8 -6 13.5 -5t5.5 13v225q0 21 18 21h162q19 0 19 -23v-694q0 -13 -5.5 -19
t-21.5 -6h-145v0zM375 378q-16 19 -31.5 28.5t-38.5 9.5t-41.5 -14t-28.5 -47t-10 -91q0 -57 9.5 -91t27.5 -48.5t43 -14.5q20 0 35.5 8.5t25 23.5t9.5 34v202v0zM645 495q-7 0 -9.5 5.5t-0.5 10.5l31 77q7 18 -7 21l-12 2q-18 1 -18 17v98q0 16 14 16h97q13 0 13 -13v-118
q0 -3 -1 -5.5t-2 -4.5l-38 -90q-3 -9 -9.5 -12.5t-20.5 -3.5h-37v0z" />
    <glyph glyph-name="Dcroat" unicode="&#x110;" horiz-adv-x="791" 
d="M432 321q0 -28 -33 -28h-349q-15 0 -20.5 6t-5.5 19v93q0 23 19 23h371q18 0 18 -20v-93zM99 742h61h75h73.5t56.5 -1q134 -4 221.5 -52t130.5 -129.5t43 -187.5q0 -107 -44 -191.5t-132 -132.5t-220 -48h-263q-29 0 -29 30v687q0 14 6 19.5t21 5.5v0zM309 585
q-10 0 -10 -14v-399q0 -15 14 -15h7q63 0 108 21t69.5 69t24.5 127q0 70 -20 116.5t-62 70.5t-107 24h-24v0z" />
    <glyph glyph-name="dcroat" unicode="&#x111;" horiz-adv-x="626" 
d="M613 604q0 -24 -29 -24h-320q-13 0 -17.5 5.5t-4.5 16.5v65q0 20 16 20h339q16 0 16 -18v-65zM403 0q-10 0 -17.5 5t-7.5 18v19q0 7 -5 8t-10 -4q-19 -18 -39.5 -30.5t-45 -19t-55.5 -6.5q-59 0 -104 30.5t-70.5 91.5t-25.5 151q0 84 29.5 146t77.5 96.5t103 34.5
q34 0 63.5 -11t60.5 -41q8 -6 13.5 -5t5.5 13v225q0 21 18 21h162q19 0 19 -23v-694q0 -13 -5.5 -19t-21.5 -6h-145v0zM375 378q-16 19 -31.5 28.5t-38.5 9.5t-41.5 -14t-28.5 -47t-10 -91q0 -57 9.5 -91t27.5 -48.5t43 -14.5q20 0 35.5 8.5t25 23.5t9.5 34v202v0z" />
    <glyph glyph-name="Emacron" unicode="&#x112;" horiz-adv-x="671" 
d="M52 719q0 23 19 23h540q18 0 18 -21l-1 -116q0 -27 -26 -27h-300q-23 0 -23 -19v-85q0 -21 18 -21h180q21 0 21 -20v-124q0 -7 -4 -12t-14 -5h-185q-16 0 -16 -14v-100q0 -14 12 -14h325q22 0 22 -19v-123q0 -9 -5.5 -15.5t-18.5 -6.5h-535q-27 0 -27 25v694v0zM541 855
q0 -24 -29 -24h-360q-13 0 -17.5 5.5t-4.5 16.5v81q0 20 16 20h379q16 0 16 -18v-81z" />
    <glyph glyph-name="emacron" unicode="&#x113;" horiz-adv-x="590" 
d="M227 212q0 -30 13.5 -50t37 -30t52.5 -10q26 0 51 12t58 44q4 4 7.5 4.5t13.5 -3.5l91 -37q18 -7 4 -24q-36 -50 -72.5 -78t-80 -39t-99.5 -11q-80 0 -144 34t-101 94t-37 138q0 85 38.5 149t102 99.5t137.5 35.5q79 0 140 -34t96.5 -97.5t35.5 -154.5q0 -13 -2.5 -18.5
t-15.5 -6.5h-311q-7 0 -11 -4t-4 -13v0zM360 332q10 0 13.5 2.5t3.5 11.5q0 13 -7 31t-22 32t-40 14q-20 0 -38.5 -9.5t-29 -29.5t-10.5 -51zM506 643q0 -24 -29 -24h-360q-13 0 -17.5 5.5t-4.5 16.5v81q0 20 16 20h379q16 0 16 -18v-81z" />
    <glyph glyph-name="Ebreve" unicode="&#x114;" horiz-adv-x="671" 
d="M52 719q0 23 19 23h540q18 0 18 -21l-1 -116q0 -27 -26 -27h-300q-23 0 -23 -19v-85q0 -21 18 -21h180q21 0 21 -20v-124q0 -7 -4 -12t-14 -5h-185q-16 0 -16 -14v-100q0 -14 12 -14h325q22 0 22 -19v-123q0 -9 -5.5 -15.5t-18.5 -6.5h-535q-27 0 -27 25v694v0zM520 954
q20 0 13 -18q-16 -44 -45.5 -73t-68 -43.5t-82.5 -14.5q-43 0 -84 13.5t-71.5 43t-42.5 76.5q-1 6 1.5 11t9.5 5h77q9 0 13.5 -3t10.5 -11q10 -13 23.5 -23.5t30 -16.5t32.5 -6q23 0 47.5 13t37.5 34q5 9 9.5 11t10.5 2h78v0z" />
    <glyph glyph-name="ebreve" unicode="&#x115;" horiz-adv-x="590" 
d="M227 212q0 -30 13.5 -50t37 -30t52.5 -10q26 0 51 12t58 44q4 4 7.5 4.5t13.5 -3.5l91 -37q18 -7 4 -24q-36 -50 -72.5 -78t-80 -39t-99.5 -11q-80 0 -144 34t-101 94t-37 138q0 85 38.5 149t102 99.5t137.5 35.5q79 0 140 -34t96.5 -97.5t35.5 -154.5q0 -13 -2.5 -18.5
t-15.5 -6.5h-311q-7 0 -11 -4t-4 -13v0zM360 332q10 0 13.5 2.5t3.5 11.5q0 13 -7 31t-22 32t-40 14q-20 0 -38.5 -9.5t-29 -29.5t-10.5 -51zM485 742q20 0 13 -18q-16 -44 -45.5 -73t-68 -43.5t-82.5 -14.5q-43 0 -84 13.5t-71.5 43t-42.5 76.5q-1 6 1.5 11t9.5 5h77
q9 0 13.5 -3t10.5 -11q10 -13 23.5 -23.5t30 -16.5t32.5 -6q23 0 47.5 13t37.5 34q5 9 9.5 11t10.5 2h78v0z" />
    <glyph glyph-name="Edotaccent" unicode="&#x116;" horiz-adv-x="671" 
d="M52 719q0 23 19 23h540q18 0 18 -21l-1 -116q0 -27 -26 -27h-300q-23 0 -23 -19v-85q0 -21 18 -21h180q21 0 21 -20v-124q0 -7 -4 -12t-14 -5h-185q-16 0 -16 -14v-100q0 -14 12 -14h325q22 0 22 -19v-123q0 -9 -5.5 -15.5t-18.5 -6.5h-535q-27 0 -27 25v694v0zM436 815
q0 -15 -8 -22t-25 -7h-141q-15 0 -20.5 6.5t-5.5 19.5v119q0 23 19 23h163q18 0 18 -21v-118z" />
    <glyph glyph-name="edotaccent" unicode="&#x117;" horiz-adv-x="590" 
d="M227 212q0 -30 13.5 -50t37 -30t52.5 -10q26 0 51 12t58 44q4 4 7.5 4.5t13.5 -3.5l91 -37q18 -7 4 -24q-36 -50 -72.5 -78t-80 -39t-99.5 -11q-80 0 -144 34t-101 94t-37 138q0 85 38.5 149t102 99.5t137.5 35.5q79 0 140 -34t96.5 -97.5t35.5 -154.5q0 -13 -2.5 -18.5
t-15.5 -6.5h-311q-7 0 -11 -4t-4 -13v0zM360 332q10 0 13.5 2.5t3.5 11.5q0 13 -7 31t-22 32t-40 14q-20 0 -38.5 -9.5t-29 -29.5t-10.5 -51zM415 603q0 -15 -8 -22t-25 -7h-141q-15 0 -20.5 6.5t-5.5 19.5v119q0 23 19 23h163q18 0 18 -21v-118z" />
    <glyph glyph-name="Eogonek" unicode="&#x118;" horiz-adv-x="671" 
d="M52 719q0 23 19 23h540q18 0 18 -21l-1 -116q0 -27 -26 -27h-300q-23 0 -23 -19v-85q0 -21 18 -21h180q21 0 21 -20v-124q0 -7 -4 -12t-14 -5h-185q-16 0 -16 -14v-100q0 -14 12 -14h325q22 0 22 -19v-123q0 -9 -5.5 -15.5t-18.5 -6.5h-535q-27 0 -27 25v694v0zM402 -87
q0 26 18 49t76 44h136q-56 -18 -74 -33t-18 -32q0 -15 7 -22t21 -7q17 0 30 4.5t26 11.5q18 9 18 -11v-52q0 -12 -10 -18q-13 -7 -43 -14t-66 -7q-54 0 -87.5 21t-33.5 66v0z" />
    <glyph glyph-name="eogonek" unicode="&#x119;" horiz-adv-x="590" 
d="M227 212q0 -30 13.5 -50t37 -30t52.5 -10q26 0 51 12t58 44q4 4 7.5 4.5t13.5 -3.5l91 -37q18 -7 4 -24q-36 -50 -72.5 -78t-80 -39t-99.5 -11q-80 0 -144 34t-101 94t-37 138q0 85 38.5 149t102 99.5t137.5 35.5q79 0 140 -34t96.5 -97.5t35.5 -154.5q0 -13 -2.5 -18.5
t-15.5 -6.5h-311q-7 0 -11 -4t-4 -13v0zM360 332q10 0 13.5 2.5t3.5 11.5q0 13 -7 31t-22 32t-40 14q-20 0 -38.5 -9.5t-29 -29.5t-10.5 -51zM225 -71q0 26 18 49t76 44h136q-56 -18 -74 -33t-18 -32q0 -15 7 -22t21 -7q17 0 30 4.5t26 11.5q18 9 18 -11v-52q0 -12 -10 -18
q-13 -7 -43 -14t-66 -7q-54 0 -87.5 21t-33.5 66v0z" />
    <glyph glyph-name="Ecaron" unicode="&#x11a;" horiz-adv-x="671" 
d="M52 719q0 23 19 23h540q18 0 18 -21l-1 -116q0 -27 -26 -27h-300q-23 0 -23 -19v-85q0 -21 18 -21h180q21 0 21 -20v-124q0 -7 -4 -12t-14 -5h-185q-16 0 -16 -14v-100q0 -14 12 -14h325q22 0 22 -19v-123q0 -9 -5.5 -15.5t-18.5 -6.5h-535q-27 0 -27 25v694v0zM392 946
q5 7 11.5 8t15.5 1h105q19 0 2 -18l-111 -127q-5 -5 -11 -9t-17 -4h-95q-14 0 -22 4t-15 11l-112 125q-7 8 -6.5 13t9.5 5h99q10 0 15 -0.5t11 -8.5l46 -55q12 -15 18 -14t16 14l41 55v0z" />
    <glyph glyph-name="ecaron" unicode="&#x11b;" horiz-adv-x="590" 
d="M227 212q0 -30 13.5 -50t37 -30t52.5 -10q26 0 51 12t58 44q4 4 7.5 4.5t13.5 -3.5l91 -37q18 -7 4 -24q-36 -50 -72.5 -78t-80 -39t-99.5 -11q-80 0 -144 34t-101 94t-37 138q0 85 38.5 149t102 99.5t137.5 35.5q79 0 140 -34t96.5 -97.5t35.5 -154.5q0 -13 -2.5 -18.5
t-15.5 -6.5h-311q-7 0 -11 -4t-4 -13v0zM360 332q10 0 13.5 2.5t3.5 11.5q0 13 -7 31t-22 32t-40 14q-20 0 -38.5 -9.5t-29 -29.5t-10.5 -51zM357 734q5 7 11.5 8t15.5 1h105q19 0 2 -18l-111 -127q-5 -5 -11 -9t-17 -4h-95q-14 0 -22 4t-15 11l-112 125q-7 8 -6.5 13t9.5 5
h99q10 0 15 -0.5t11 -8.5l46 -55q12 -15 18 -14t16 14l41 55v0z" />
    <glyph glyph-name="Gcircumflex" unicode="&#x11c;" horiz-adv-x="761" 
d="M380 -10q-105 0 -184 48t-122.5 133.5t-43.5 196.5q0 116 46 202t128 134t189 48q90 0 157 -32.5t107.5 -82.5t52.5 -104q5 -21 1.5 -27t-15.5 -8l-171 -26q-12 0 -15 5t-5 15q-5 28 -19 51.5t-38 38.5t-60 15q-37 0 -64 -20.5t-41.5 -69t-14.5 -133.5q0 -90 16 -139.5
t45 -69t67 -19.5q21 0 38 4.5t30.5 13.5t23 22t16.5 30l3 9q6 17 -9 17h-94q-10 0 -15 4.5t-5 17.5v96q0 17 21 17l280 -2q19 0 28.5 -8.5t9.5 -22.5v-327q0 -7 -4.5 -12t-12.5 -5h-38q-9 0 -16.5 4.5t-15.5 14.5l-40 58q-2 3 -4.5 3t-6.5 -5q-18 -17 -43 -37t-64 -34
t-98 -14v0zM397 870q-10 14 -15.5 14t-18.5 -14l-46 -54q-7 -7 -11.5 -8t-14.5 -1h-99q-9 0 -9.5 5t6.5 13l112 124q7 8 15 11.5t22 3.5h95q11 0 17 -4t11 -9l111 -126q17 -18 -2 -18h-105q-9 0 -15.5 1t-11.5 8z" />
    <glyph glyph-name="gcircumflex" unicode="&#x11d;" horiz-adv-x="653" 
d="M615 562q8 0 14 -5.5t6 -19.5v-90q0 -17 -7.5 -23.5t-18.5 -2.5q-10 3 -22.5 5t-21.5 2q-27 0 -20 -23q2 -7 3.5 -15t1.5 -16q0 -45 -29 -82.5t-86.5 -60t-141.5 -22.5q-33 0 -53.5 -3.5t-30 -9.5t-9.5 -14q0 -11 11 -15t33 -6l152 -9q111 -7 162.5 -47t51.5 -102
q0 -76 -76 -127t-227 -51q-157 0 -234 29.5t-77 92.5q0 34 28.5 52t68.5 29q14 4 0 11q-26 13 -46 32.5t-20 50.5q0 24 16 42.5t41 34t52 26.5q5 2 8 5t-5 7q-49 21 -76.5 55.5t-27.5 80.5q0 72 68 118.5t202 46.5q57 0 99.5 -12.5t67.5 -32.5q8 -6 17 -5t14 8
q14 19 34.5 34t42 23.5t35.5 8.5v0zM291 300q42 0 60 22t18 48q0 31 -18 53t-60 22q-37 0 -57.5 -22t-20.5 -53q0 -27 20.5 -48.5t57.5 -21.5v0zM226 8q-21 1 -36.5 -3.5t-24 -12.5t-8.5 -19q0 -18 14 -31.5t48.5 -20.5t97.5 -7q59 0 89.5 14.5t30.5 36.5q0 14 -17 25
t-49 12zM321 658q-10 14 -15.5 14t-18.5 -14l-46 -54q-7 -7 -11.5 -8t-14.5 -1h-99q-9 0 -9.5 5t6.5 13l112 124q7 8 15 11.5t22 3.5h95q11 0 17 -4t11 -9l111 -126q17 -18 -2 -18h-105q-9 0 -15.5 1t-11.5 8z" />
    <glyph glyph-name="Gbreve" unicode="&#x11e;" horiz-adv-x="761" 
d="M380 -10q-105 0 -184 48t-122.5 133.5t-43.5 196.5q0 116 46 202t128 134t189 48q90 0 157 -32.5t107.5 -82.5t52.5 -104q5 -21 1.5 -27t-15.5 -8l-171 -26q-12 0 -15 5t-5 15q-5 28 -19 51.5t-38 38.5t-60 15q-37 0 -64 -20.5t-41.5 -69t-14.5 -133.5q0 -90 16 -139.5
t45 -69t67 -19.5q21 0 38 4.5t30.5 13.5t23 22t16.5 30l3 9q6 17 -9 17h-94q-10 0 -15 4.5t-5 17.5v96q0 17 21 17l280 -2q19 0 28.5 -8.5t9.5 -22.5v-327q0 -7 -4.5 -12t-12.5 -5h-38q-9 0 -16.5 4.5t-15.5 14.5l-40 58q-2 3 -4.5 3t-6.5 -5q-18 -17 -43 -37t-64 -34
t-98 -14v0zM566 954q20 0 13 -18q-16 -44 -45.5 -73t-68 -43.5t-82.5 -14.5q-43 0 -84 13.5t-71.5 43t-42.5 76.5q-1 6 1.5 11t9.5 5h77q9 0 13.5 -3t10.5 -11q10 -13 23.5 -23.5t30 -16.5t32.5 -6q23 0 47.5 13t37.5 34q5 9 9.5 11t10.5 2h78v0z" />
    <glyph glyph-name="gbreve" unicode="&#x11f;" horiz-adv-x="653" 
d="M615 562q8 0 14 -5.5t6 -19.5v-90q0 -17 -7.5 -23.5t-18.5 -2.5q-10 3 -22.5 5t-21.5 2q-27 0 -20 -23q2 -7 3.5 -15t1.5 -16q0 -45 -29 -82.5t-86.5 -60t-141.5 -22.5q-33 0 -53.5 -3.5t-30 -9.5t-9.5 -14q0 -11 11 -15t33 -6l152 -9q111 -7 162.5 -47t51.5 -102
q0 -76 -76 -127t-227 -51q-157 0 -234 29.5t-77 92.5q0 34 28.5 52t68.5 29q14 4 0 11q-26 13 -46 32.5t-20 50.5q0 24 16 42.5t41 34t52 26.5q5 2 8 5t-5 7q-49 21 -76.5 55.5t-27.5 80.5q0 72 68 118.5t202 46.5q57 0 99.5 -12.5t67.5 -32.5q8 -6 17 -5t14 8
q14 19 34.5 34t42 23.5t35.5 8.5v0zM291 300q42 0 60 22t18 48q0 31 -18 53t-60 22q-37 0 -57.5 -22t-20.5 -53q0 -27 20.5 -48.5t57.5 -21.5v0zM226 8q-21 1 -36.5 -3.5t-24 -12.5t-8.5 -19q0 -18 14 -31.5t48.5 -20.5t97.5 -7q59 0 89.5 14.5t30.5 36.5q0 14 -17 25
t-49 12zM490 742q20 0 13 -18q-16 -44 -45.5 -73t-68 -43.5t-82.5 -14.5q-43 0 -84 13.5t-71.5 43t-42.5 76.5q-1 6 1.5 11t9.5 5h77q9 0 13.5 -3t10.5 -11q10 -13 23.5 -23.5t30 -16.5t32.5 -6q23 0 47.5 13t37.5 34q5 9 9.5 11t10.5 2h78v0z" />
    <glyph glyph-name="Gdotaccent" unicode="&#x120;" horiz-adv-x="761" 
d="M380 -10q-105 0 -184 48t-122.5 133.5t-43.5 196.5q0 116 46 202t128 134t189 48q90 0 157 -32.5t107.5 -82.5t52.5 -104q5 -21 1.5 -27t-15.5 -8l-171 -26q-12 0 -15 5t-5 15q-5 28 -19 51.5t-38 38.5t-60 15q-37 0 -64 -20.5t-41.5 -69t-14.5 -133.5q0 -90 16 -139.5
t45 -69t67 -19.5q21 0 38 4.5t30.5 13.5t23 22t16.5 30l3 9q6 17 -9 17h-94q-10 0 -15 4.5t-5 17.5v96q0 17 21 17l280 -2q19 0 28.5 -8.5t9.5 -22.5v-327q0 -7 -4.5 -12t-12.5 -5h-38q-9 0 -16.5 4.5t-15.5 14.5l-40 58q-2 3 -4.5 3t-6.5 -5q-18 -17 -43 -37t-64 -34
t-98 -14v0zM482 815q0 -15 -8 -22t-25 -7h-141q-15 0 -20.5 6.5t-5.5 19.5v119q0 23 19 23h163q18 0 18 -21v-118z" />
    <glyph glyph-name="gdotaccent" unicode="&#x121;" horiz-adv-x="653" 
d="M615 562q8 0 14 -5.5t6 -19.5v-90q0 -17 -7.5 -23.5t-18.5 -2.5q-10 3 -22.5 5t-21.5 2q-27 0 -20 -23q2 -7 3.5 -15t1.5 -16q0 -45 -29 -82.5t-86.5 -60t-141.5 -22.5q-33 0 -53.5 -3.5t-30 -9.5t-9.5 -14q0 -11 11 -15t33 -6l152 -9q111 -7 162.5 -47t51.5 -102
q0 -76 -76 -127t-227 -51q-157 0 -234 29.5t-77 92.5q0 34 28.5 52t68.5 29q14 4 0 11q-26 13 -46 32.5t-20 50.5q0 24 16 42.5t41 34t52 26.5q5 2 8 5t-5 7q-49 21 -76.5 55.5t-27.5 80.5q0 72 68 118.5t202 46.5q57 0 99.5 -12.5t67.5 -32.5q8 -6 17 -5t14 8
q14 19 34.5 34t42 23.5t35.5 8.5v0zM291 300q42 0 60 22t18 48q0 31 -18 53t-60 22q-37 0 -57.5 -22t-20.5 -53q0 -27 20.5 -48.5t57.5 -21.5v0zM226 8q-21 1 -36.5 -3.5t-24 -12.5t-8.5 -19q0 -18 14 -31.5t48.5 -20.5t97.5 -7q59 0 89.5 14.5t30.5 36.5q0 14 -17 25
t-49 12zM406 603q0 -15 -8 -22t-25 -7h-141q-15 0 -20.5 6.5t-5.5 19.5v119q0 23 19 23h163q18 0 18 -21v-118z" />
    <glyph glyph-name="uni0122" unicode="&#x122;" horiz-adv-x="761" 
d="M380 -10q-105 0 -184 48t-122.5 133.5t-43.5 196.5q0 116 46 202t128 134t189 48q90 0 157 -32.5t107.5 -82.5t52.5 -104q5 -21 1.5 -27t-15.5 -8l-171 -26q-12 0 -15 5t-5 15q-5 28 -19 51.5t-38 38.5t-60 15q-37 0 -64 -20.5t-41.5 -69t-14.5 -133.5q0 -90 16 -139.5
t45 -69t67 -19.5q21 0 38 4.5t30.5 13.5t23 22t16.5 30l3 9q6 17 -9 17h-94q-10 0 -15 4.5t-5 17.5v96q0 17 21 17l280 -2q19 0 28.5 -8.5t9.5 -22.5v-327q0 -7 -4.5 -12t-12.5 -5h-38q-9 0 -16.5 4.5t-15.5 14.5l-40 58q-2 3 -4.5 3t-6.5 -5q-18 -17 -43 -37t-64 -34
t-98 -14v0zM337 -246q-8 0 -12 7t0 13l33 45q8 11 5 20t-14 9h-9q-23 0 -23 22v61q0 20 18 20h94q17 0 17 -16v-87q0 -4 -1.5 -7.5t-2.5 -5.5l-54 -67q-6 -8 -12.5 -11t-20.5 -3h-18v0z" />
    <glyph glyph-name="uni0123" unicode="&#x123;" horiz-adv-x="653" 
d="M256 599q-17 0 -17 16v87q0 4 1.5 7.5t2.5 5.5l54 67q6 8 13 11t20 3h18q8 0 12.5 -7t-0.5 -13l-33 -45q-8 -10 -4.5 -19.5t13.5 -9.5h9q23 0 23 -22v-61q0 -20 -18 -20h-94v0zM615 562q8 0 14 -5.5t6 -19.5v-90q0 -17 -7.5 -23.5t-18.5 -2.5q-10 3 -22.5 5t-21.5 2
q-27 0 -20 -23q2 -7 3.5 -15t1.5 -16q0 -45 -29 -82.5t-86.5 -60t-141.5 -22.5q-33 0 -53.5 -3.5t-30 -9.5t-9.5 -14q0 -11 11 -15t33 -6l152 -9q111 -7 162.5 -47t51.5 -102q0 -76 -76 -127t-227 -51q-157 0 -234 29.5t-77 92.5q0 34 28.5 52t68.5 29q14 4 0 11
q-26 13 -46 32.5t-20 50.5q0 24 16 42.5t41 34t52 26.5q5 2 8 5t-5 7q-49 21 -76.5 55.5t-27.5 80.5q0 72 68 118.5t202 46.5q57 0 99.5 -12.5t67.5 -32.5q8 -6 17 -5t14 8q14 19 34.5 34t42 23.5t35.5 8.5v0zM291 300q42 0 60 22t18 48q0 31 -18 53t-60 22q-37 0 -57.5 -22
t-20.5 -53q0 -27 20.5 -48.5t57.5 -21.5v0zM226 8q-21 1 -36.5 -3.5t-24 -12.5t-8.5 -19q0 -18 14 -31.5t48.5 -20.5t97.5 -7q59 0 89.5 14.5t30.5 36.5q0 14 -17 25t-49 12z" />
    <glyph glyph-name="Hcircumflex" unicode="&#x124;" horiz-adv-x="762" 
d="M295 297q-16 0 -16 -15v-253q0 -29 -33 -29h-167q-16 0 -21.5 6t-5.5 19v694q0 23 19 23h190q18 0 18 -21v-232q0 -20 18 -20h168q18 0 18 20v232q0 21 18 21h190q19 0 19 -23v-694q0 -13 -5.5 -19t-21.5 -6h-167q-33 0 -33 29v253q0 15 -16 15h-172zM395 870
q-10 14 -15.5 14t-18.5 -14l-46 -54q-7 -7 -11.5 -8t-14.5 -1h-99q-9 0 -9.5 5t6.5 13l112 124q7 8 15 11.5t22 3.5h95q11 0 17 -4t11 -9l111 -126q17 -18 -2 -18h-105q-9 0 -15.5 1t-11.5 8z" />
    <glyph glyph-name="hcircumflex" unicode="&#x125;" horiz-adv-x="605" 
d="M68 0q-26 0 -26 25v694q0 23 19 23h160q18 0 18 -21v-249q0 -6 3.5 -7.5t9.5 3.5q29 28 55.5 43.5t52.5 22t52 6.5q74 0 115 -42.5t41 -122.5v-345q0 -30 -30 -30h-147q-13 0 -18 5.5t-5 19.5v326q0 23 -14 35.5t-38 12.5q-15 0 -28.5 -5.5t-24.5 -16.5t-21 -28v-320
q0 -29 -33 -29h-141v0zM314 869q-10 14 -15.5 14t-18.5 -14l-46 -54q-7 -7 -11.5 -8t-14.5 -1h-99q-9 0 -9.5 5t6.5 13l112 124q7 8 15 11.5t22 3.5h95q11 0 17 -4t11 -9l111 -126q17 -18 -2 -18h-105q-9 0 -15.5 1t-11.5 8z" />
    <glyph glyph-name="Hbar" unicode="&#x126;" horiz-adv-x="799" 
d="M799 579q0 -24 -29 -24h-748q-13 0 -17.5 5.5t-4.5 16.5v61q0 20 16 20h767q16 0 16 -18v-61zM320 297q-16 0 -16 -15v-253q0 -29 -33 -29h-167q-16 0 -21.5 6t-5.5 19v694q0 23 19 23h190q18 0 18 -21v-232q0 -20 18 -20h168q18 0 18 20v232q0 21 18 21h190q19 0 19 -23
v-694q0 -13 -5.5 -19t-21.5 -6h-167q-33 0 -33 29v253q0 15 -16 15h-172z" />
    <glyph glyph-name="hbar" unicode="&#x127;" horiz-adv-x="608" 
d="M374 604q0 -24 -29 -24h-320q-13 0 -17.5 5.5t-4.5 16.5v65q0 20 16 20h339q16 0 16 -18v-65zM71 0q-26 0 -26 25v694q0 23 19 23h160q18 0 18 -21v-249q0 -6 3.5 -7.5t9.5 3.5q29 28 55.5 43.5t52.5 22t52 6.5q74 0 115 -42.5t41 -122.5v-345q0 -30 -30 -30h-147
q-13 0 -18 5.5t-5 19.5v326q0 23 -14 35.5t-38 12.5q-15 0 -28.5 -5.5t-24.5 -16.5t-21 -28v-320q0 -29 -33 -29h-141v0z" />
    <glyph glyph-name="Itilde" unicode="&#x128;" horiz-adv-x="331" 
d="M261 742q18 0 18 -21v-692q0 -16 -8 -22.5t-25 -6.5h-167q-16 0 -21.5 6t-5.5 19v694q0 23 19 23h190zM350 851q-16 -11 -42.5 -20.5t-57.5 -9.5q-29 0 -55.5 8t-52 15.5t-54.5 7.5q-21 0 -36 -5.5t-35 -19.5q-8 -6 -13.5 -5t-9.5 13l-17 54q-2 8 -2.5 14.5t10.5 16.5
q19 16 41 28.5t57 12.5q32 0 61 -8.5t55.5 -17t49.5 -8.5q24 0 44 9t33 19q8 5 15 3.5t9 -12.5l14 -65q4 -17 -14 -30v0z" />
    <glyph glyph-name="itilde" unicode="&#x129;" horiz-adv-x="282" 
d="M241 29q0 -16 -8 -22.5t-25 -6.5h-141q-15 0 -20.5 6t-5.5 19v482q0 23 19 23h163q18 0 18 -20v-481zM329 639q-16 -11 -42.5 -20.5t-57.5 -9.5q-29 0 -55.5 8t-52 15.5t-54.5 7.5q-21 0 -36 -5.5t-35 -19.5q-8 -6 -13.5 -5t-9.5 13l-17 54q-2 8 -2.5 14.5t10.5 16.5
q19 16 41 28.5t57 12.5q32 0 61 -8.5t55.5 -17t49.5 -8.5q24 0 44 9t33 19q8 5 15 3.5t9 -12.5l14 -65q4 -17 -14 -30v0z" />
    <glyph glyph-name="Imacron" unicode="&#x12a;" horiz-adv-x="331" 
d="M261 742q18 0 18 -21v-692q0 -16 -8 -22.5t-25 -6.5h-167q-16 0 -21.5 6t-5.5 19v694q0 23 19 23h190zM371 855q0 -24 -29 -24h-360q-13 0 -17.5 5.5t-4.5 16.5v81q0 20 16 20h379q16 0 16 -18v-81z" />
    <glyph glyph-name="imacron" unicode="&#x12b;" horiz-adv-x="282" 
d="M241 29q0 -16 -8 -22.5t-25 -6.5h-141q-15 0 -20.5 6t-5.5 19v482q0 23 19 23h163q18 0 18 -20v-481zM350 643q0 -24 -29 -24h-360q-13 0 -17.5 5.5t-4.5 16.5v81q0 20 16 20h379q16 0 16 -18v-81z" />
    <glyph glyph-name="Ibreve" unicode="&#x12c;" horiz-adv-x="331" 
d="M261 742q18 0 18 -21v-692q0 -16 -8 -22.5t-25 -6.5h-167q-16 0 -21.5 6t-5.5 19v694q0 23 19 23h190zM350 954q20 0 13 -18q-16 -44 -45.5 -73t-68 -43.5t-82.5 -14.5q-43 0 -84 13.5t-71.5 43t-42.5 76.5q-1 6 1.5 11t9.5 5h77q9 0 13.5 -3t10.5 -11q10 -13 23.5 -23.5
t30 -16.5t32.5 -6q23 0 47.5 13t37.5 34q5 9 9.5 11t10.5 2h78v0z" />
    <glyph glyph-name="ibreve" unicode="&#x12d;" horiz-adv-x="282" 
d="M241 29q0 -16 -8 -22.5t-25 -6.5h-141q-15 0 -20.5 6t-5.5 19v482q0 23 19 23h163q18 0 18 -20v-481zM329 742q20 0 13 -18q-16 -44 -45.5 -73t-68 -43.5t-82.5 -14.5q-43 0 -84 13.5t-71.5 43t-42.5 76.5q-1 6 1.5 11t9.5 5h77q9 0 13.5 -3t10.5 -11q10 -13 23.5 -23.5
t30 -16.5t32.5 -6q23 0 47.5 13t37.5 34q5 9 9.5 11t10.5 2h78v0z" />
    <glyph glyph-name="Iogonek" unicode="&#x12e;" horiz-adv-x="331" 
d="M261 742q18 0 18 -21v-692q0 -16 -8 -22.5t-25 -6.5h-167q-16 0 -21.5 6t-5.5 19v694q0 23 19 23h190zM39 -87q0 26 18 49t76 44h136q-56 -18 -74 -33t-18 -32q0 -15 7 -22t21 -7q17 0 30 4.5t26 11.5q18 9 18 -11v-52q0 -12 -10 -18q-13 -7 -43 -14t-66 -7
q-54 0 -87.5 21t-33.5 66v0z" />
    <glyph glyph-name="iogonek" unicode="&#x12f;" horiz-adv-x="282" 
d="M241 29q0 -16 -8 -22.5t-25 -6.5h-141q-15 0 -20.5 6t-5.5 19v482q0 23 19 23h163q18 0 18 -20v-481zM245 603q0 -15 -8 -22t-25 -7h-141q-15 0 -20.5 6.5t-5.5 19.5v119q0 23 19 23h163q18 0 18 -21v-118zM5 -88q0 26 18 49t76 44h136q-56 -18 -74 -33t-18 -32
q0 -15 7 -22t21 -7q17 0 30 4.5t26 11.5q18 9 18 -11v-52q0 -12 -10 -18q-13 -7 -43 -14t-66 -7q-54 0 -87.5 21t-33.5 66v0z" />
    <glyph glyph-name="Idotaccent" unicode="&#x130;" horiz-adv-x="331" 
d="M261 742q18 0 18 -21v-692q0 -16 -8 -22.5t-25 -6.5h-167q-16 0 -21.5 6t-5.5 19v694q0 23 19 23h190zM266 815q0 -15 -8 -22t-25 -7h-141q-15 0 -20.5 6.5t-5.5 19.5v119q0 23 19 23h163q18 0 18 -21v-118z" />
    <glyph glyph-name="dotlessi" unicode="&#x131;" horiz-adv-x="282" 
d="M241 29q0 -16 -8 -22.5t-25 -6.5h-141q-15 0 -20.5 6t-5.5 19v482q0 23 19 23h163q18 0 18 -20v-481z" />
    <glyph glyph-name="IJ" unicode="&#x132;" horiz-adv-x="798" 
d="M261 742q18 0 18 -21v-692q0 -16 -8 -22.5t-25 -6.5h-167q-16 0 -21.5 6t-5.5 19v694q0 23 19 23h190zM751 212q0 -123 -60.5 -172.5t-177.5 -49.5q-31 0 -60.5 3t-63.5 9q-17 3 -24.5 12.5t-6.5 30.5l9 114q2 26 24 23q12 -1 25.5 -4t29.5 -3q37 0 57.5 21t20.5 72v451
q0 23 20 23h189q18 0 18 -21v-509v0z" />
    <glyph glyph-name="ij" unicode="&#x133;" horiz-adv-x="565" 
d="M241 29q0 -16 -8 -22.5t-25 -6.5h-141q-15 0 -20.5 6t-5.5 19v482q0 23 19 23h163q18 0 18 -20v-481zM241 603q0 -29 -33 -29h-141q-15 0 -20.5 6.5t-5.5 19.5v119q0 23 19 23h163q18 0 18 -21v-118zM524 29q0 -99 -51.5 -149t-158.5 -50q-42 0 -55 4.5t-13 20.5l-1 102
q0 8 5 16.5t15 10.5l35 6q10 3 17 12t7 34v471q0 23 20 23h162q18 0 18 -20v-481v0zM524 603q0 -29 -32 -29h-141q-27 0 -27 26v119q0 23 20 23h162q18 0 18 -21v-118z" />
    <glyph glyph-name="Jcircumflex" unicode="&#x134;" horiz-adv-x="467" 
d="M420 212q0 -123 -60.5 -172.5t-177.5 -49.5q-31 0 -60.5 3t-63.5 9q-17 3 -24.5 12.5t-6.5 30.5l9 114q2 26 24 23q12 -1 25.5 -4t29.5 -3q37 0 57.5 21t20.5 72v451q0 23 20 23h189q18 0 18 -21v-509v0zM321 870q-10 14 -15.5 14t-18.5 -14l-46 -54q-7 -7 -11.5 -8
t-14.5 -1h-99q-9 0 -9.5 5t6.5 13l112 124q7 8 15 11.5t22 3.5h95q11 0 17 -4t11 -9l111 -126q17 -18 -2 -18h-105q-9 0 -15.5 1t-11.5 8z" />
    <glyph glyph-name="jcircumflex" unicode="&#x135;" horiz-adv-x="283" 
d="M242 29q0 -99 -51.5 -149t-158.5 -50q-42 0 -55 4.5t-13 20.5l-1 102q0 8 5 16.5t15 10.5l35 6q10 3 17 12t7 34v471q0 23 20 23h162q18 0 18 -20v-481v0zM157 658q-10 14 -15.5 14t-18.5 -14l-46 -54q-7 -7 -11.5 -8t-14.5 -1h-99q-9 0 -9.5 5t6.5 13l112 124
q7 8 15 11.5t22 3.5h95q11 0 17 -4t11 -9l111 -126q17 -18 -2 -18h-105q-9 0 -15.5 1t-11.5 8z" />
    <glyph glyph-name="uni0136" unicode="&#x136;" horiz-adv-x="772" 
d="M745 31q6 -12 3.5 -21.5t-17.5 -9.5h-195q-27 0 -36 20l-122 278q-8 13 -22 -5l-71 -91q-6 -7 -6 -22v-151q0 -29 -33 -29h-167q-16 0 -21.5 6t-5.5 19v694q0 23 19 23h190q18 0 18 -21v-253q0 -12 4.5 -12t10.5 7l184 258q8 11 16.5 16t26.5 5h152q17 0 24 -9t-3 -20
l-164 -201q-11 -14 -3 -32l218 -449v0zM347 -246q-8 0 -12 7t0 13l33 45q8 11 5 20t-14 9h-9q-23 0 -23 22v61q0 20 18 20h94q17 0 17 -16v-87q0 -4 -1.5 -7.5t-2.5 -5.5l-54 -67q-6 -8 -12.5 -11t-20.5 -3h-18v0z" />
    <glyph glyph-name="uni0137" unicode="&#x137;" horiz-adv-x="631" 
d="M615 28q5 -8 0 -18t-19 -10h-171q-13 0 -20.5 7t-12.5 19l-72 172q-4 10 -8.5 11.5t-12.5 -6.5l-48 -45q-4 -4 -6.5 -10t-2.5 -18v-101q0 -16 -7.5 -22.5t-24.5 -6.5h-141q-16 0 -21.5 6t-5.5 19v694q0 23 19 23h163q18 0 18 -21v-375q0 -4 3 -6.5t9 4.5l150 169
q17 17 31 17h137q17 0 20.5 -9t-6.5 -20l-129 -129q-7 -8 -8 -14.5t6 -20.5l160 -309v0zM257 -246q-8 0 -12 7t0 13l33 45q8 11 5 20t-14 9h-9q-23 0 -23 22v61q0 20 18 20h94q17 0 17 -16v-87q0 -4 -1.5 -7.5t-2.5 -5.5l-54 -67q-6 -8 -12.5 -11t-20.5 -3h-18v0z" />
    <glyph glyph-name="kgreenlandic" unicode="&#x138;" horiz-adv-x="631" 
d="M615 28q5 -8 0 -18t-19 -10h-171q-13 0 -20.5 7t-12.5 19l-72 172q-4 10 -8.5 11.5t-12.5 -6.5l-48 -45q-4 -4 -6.5 -10t-2.5 -18v-101q0 -16 -7.5 -22.5t-24.5 -6.5h-141q-16 0 -21.5 6t-5.5 19v482q0 23 19 23h163q18 0 18 -21v-163q0 -4 3 -6.5t9 4.5l150 169
q17 17 31 17h137q17 0 20.5 -9t-6.5 -20l-129 -129q-7 -8 -8 -14.5t6 -20.5l160 -309v0z" />
    <glyph glyph-name="Lacute" unicode="&#x139;" horiz-adv-x="643" 
d="M52 719q0 23 19 23h190q18 0 18 -21v-543q0 -14 12 -14h301q23 0 23 -19v-123q0 -9 -6 -15.5t-19 -6.5h-511q-16 0 -21.5 6t-5.5 19v694v0zM310 870q8 -25 -19 -32l-233 -56q-13 -3 -19 0t-10 13l-15 43q-6 18 8 24l240 98q14 6 21 -12z" />
    <glyph glyph-name="lacute" unicode="&#x13a;" horiz-adv-x="284" 
d="M242 29q0 -16 -8 -22.5t-25 -6.5h-142q-27 0 -27 25l5 694q0 23 19 23h160q18 0 18 -21v-692zM294 870q8 -25 -19 -32l-233 -56q-13 -3 -19 0t-10 13l-15 43q-6 18 8 24l240 98q14 6 21 -12z" />
    <glyph glyph-name="uni013B" unicode="&#x13b;" horiz-adv-x="643" 
d="M52 719q0 23 19 23h190q18 0 18 -21v-543q0 -14 12 -14h301q23 0 23 -19v-123q0 -9 -6 -15.5t-19 -6.5h-511q-16 0 -21.5 6t-5.5 19v694v0zM293 -246q-8 0 -12 7t0 13l33 45q8 11 5 20t-14 9h-9q-23 0 -23 22v61q0 20 18 20h94q17 0 17 -16v-87q0 -4 -1.5 -7.5t-2.5 -5.5
l-54 -67q-6 -8 -12.5 -11t-20.5 -3h-18v0z" />
    <glyph glyph-name="uni013C" unicode="&#x13c;" horiz-adv-x="284" 
d="M242 29q0 -16 -8 -22.5t-25 -6.5h-142q-27 0 -27 25l5 694q0 23 19 23h160q18 0 18 -21v-692zM101 -246q-8 0 -12 7t0 13l33 45q8 11 5 20t-14 9h-9q-23 0 -23 22v61q0 20 18 20h94q17 0 17 -16v-87q0 -4 -1.5 -7.5t-2.5 -5.5l-54 -67q-6 -8 -12.5 -11t-20.5 -3h-18v0z
" />
    <glyph glyph-name="Lcaron" unicode="&#x13d;" horiz-adv-x="643" 
d="M52 719q0 23 19 23h190q18 0 18 -21v-543q0 -14 12 -14h301q23 0 23 -19v-123q0 -9 -6 -15.5t-19 -6.5h-511q-16 0 -21.5 6t-5.5 19v694v0zM435 495q-7 0 -9.5 5.5t-0.5 10.5l31 77q7 18 -7 21l-12 2q-18 1 -18 17v98q0 16 14 16h97q13 0 13 -13v-118q0 -3 -1 -5.5
t-2 -4.5l-38 -90q-3 -9 -9.5 -12.5t-20.5 -3.5h-37v0z" />
    <glyph glyph-name="lcaron" unicode="&#x13e;" horiz-adv-x="457" 
d="M242 29q0 -16 -8 -22.5t-25 -6.5h-142q-27 0 -27 25l5 694q0 23 19 23h160q18 0 18 -21v-692zM314 495q-7 0 -9.5 5.5t-0.5 10.5l31 77q7 18 -7 21l-12 2q-18 1 -18 17v98q0 16 14 16h97q13 0 13 -13v-118q0 -3 -1 -5.5t-2 -4.5l-38 -90q-3 -9 -9.5 -12.5t-20.5 -3.5h-37
v0z" />
    <glyph glyph-name="Ldot" unicode="&#x13f;" horiz-adv-x="616" 
d="M52 719q0 23 19 23h190q18 0 18 -21v-543q0 -14 12 -14h301q23 0 23 -19v-123q0 -9 -6 -15.5t-19 -6.5h-511q-16 0 -21.5 6t-5.5 19v694v0zM571 353q0 -26 -29 -26h-133q-24 0 -24 22v137q0 20 17 20h153q16 0 16 -18v-135z" />
    <glyph glyph-name="ldot" unicode="&#x140;" horiz-adv-x="442" 
d="M242 29q0 -16 -8 -22.5t-25 -6.5h-142q-27 0 -27 25l5 694q0 23 19 23h160q18 0 18 -21v-692zM453 224q0 -26 -29 -26h-133q-24 0 -24 22v137q0 20 17 20h153q16 0 16 -18v-135z" />
    <glyph glyph-name="Lslash" unicode="&#x141;" horiz-adv-x="643" 
d="M439 421q0 -18 -20 -24l-402 -114q-15 -4 -20.5 0.5t-5.5 17.5v120q0 11 5 16t14 7l405 108q24 7 24 -18v-113zM52 719q0 23 19 23h190q18 0 18 -21v-543q0 -14 12 -14h301q23 0 23 -19v-123q0 -9 -6 -15.5t-19 -6.5h-511q-16 0 -21.5 6t-5.5 19v694v0z" />
    <glyph glyph-name="lslash" unicode="&#x142;" horiz-adv-x="364" 
d="M344 378q0 -19 -20 -33l-278 -182q-15 -10 -20.5 -8t-5.5 15v120q0 21 19 34l281 176q24 16 24 -9v-113zM282 29q0 -16 -8 -22.5t-25 -6.5h-142q-27 0 -27 25l5 694q0 23 19 23h160q18 0 18 -21v-692z" />
    <glyph glyph-name="Nacute" unicode="&#x143;" horiz-adv-x="761" 
d="M694 742q15 0 15 -17v-707q0 -8 -6.5 -13t-16.5 -5h-137q-8 0 -13.5 2.5t-13.5 12.5l-275 373q-4 5 -7 4t-3 -6v-364q1 -22 -24 -22h-136q-25 0 -25 20v699q0 23 22 23h163q13 0 19.5 -3.5t14.5 -14.5l240 -334q7 -9 11.5 -8.5t4.5 12.5v327q0 21 22 21h145zM529 870
q8 -25 -19 -32l-233 -56q-13 -3 -19 0t-10 13l-15 43q-6 18 8 24l240 98q14 6 21 -12z" />
    <glyph glyph-name="nacute" unicode="&#x144;" horiz-adv-x="604" 
d="M67 0q-26 0 -26 25v482q0 23 19 23h161q18 0 18 -20v-45q0 -6 3.5 -8t9.5 4q21 23 46 41t53.5 28t59.5 10q70 0 113.5 -44t43.5 -118v-348q0 -30 -30 -30h-147q-13 0 -18 5.5t-5 19.5v326q0 23 -14.5 35.5t-38.5 12.5q-15 0 -28.5 -5.5t-24.5 -16.5t-21 -28v-320
q0 -29 -33 -29h-141v0zM452 658q8 -25 -19 -32l-233 -56q-13 -3 -19 0t-10 13l-15 43q-6 18 8 24l240 98q14 6 21 -12z" />
    <glyph glyph-name="uni0145" unicode="&#x145;" horiz-adv-x="761" 
d="M694 742q15 0 15 -17v-707q0 -8 -6.5 -13t-16.5 -5h-137q-8 0 -13.5 2.5t-13.5 12.5l-275 373q-4 5 -7 4t-3 -6v-364q1 -22 -24 -22h-136q-25 0 -25 20v699q0 23 22 23h163q13 0 19.5 -3.5t14.5 -14.5l240 -334q7 -9 11.5 -8.5t4.5 12.5v327q0 21 22 21h145zM344 -246
q-8 0 -12 7t0 13l33 45q8 11 5 20t-14 9h-9q-23 0 -23 22v61q0 20 18 20h94q17 0 17 -16v-87q0 -4 -1.5 -7.5t-2.5 -5.5l-54 -67q-6 -8 -12.5 -11t-20.5 -3h-18v0z" />
    <glyph glyph-name="uni0146" unicode="&#x146;" horiz-adv-x="604" 
d="M67 0q-26 0 -26 25v482q0 23 19 23h161q18 0 18 -20v-45q0 -6 3.5 -8t9.5 4q21 23 46 41t53.5 28t59.5 10q70 0 113.5 -44t43.5 -118v-348q0 -30 -30 -30h-147q-13 0 -18 5.5t-5 19.5v326q0 23 -14.5 35.5t-38.5 12.5q-15 0 -28.5 -5.5t-24.5 -16.5t-21 -28v-320
q0 -29 -33 -29h-141v0zM259 -246q-8 0 -12 7t0 13l33 45q8 11 5 20t-14 9h-9q-23 0 -23 22v61q0 20 18 20h94q17 0 17 -16v-87q0 -4 -1.5 -7.5t-2.5 -5.5l-54 -67q-6 -8 -12.5 -11t-20.5 -3h-18v0z" />
    <glyph glyph-name="Ncaron" unicode="&#x147;" horiz-adv-x="761" 
d="M694 742q15 0 15 -17v-707q0 -8 -6.5 -13t-16.5 -5h-137q-8 0 -13.5 2.5t-13.5 12.5l-275 373q-4 5 -7 4t-3 -6v-364q1 -22 -24 -22h-136q-25 0 -25 20v699q0 23 22 23h163q13 0 19.5 -3.5t14.5 -14.5l240 -334q7 -9 11.5 -8.5t4.5 12.5v327q0 21 22 21h145zM437 946
q5 7 11.5 8t15.5 1h105q19 0 2 -18l-111 -127q-5 -5 -11 -9t-17 -4h-95q-14 0 -22 4t-15 11l-112 125q-7 8 -6.5 13t9.5 5h99q10 0 15 -0.5t11 -8.5l46 -55q12 -15 18 -14t16 14l41 55v0z" />
    <glyph glyph-name="ncaron" unicode="&#x148;" horiz-adv-x="604" 
d="M67 0q-26 0 -26 25v482q0 23 19 23h161q18 0 18 -20v-45q0 -6 3.5 -8t9.5 4q21 23 46 41t53.5 28t59.5 10q70 0 113.5 -44t43.5 -118v-348q0 -30 -30 -30h-147q-13 0 -18 5.5t-5 19.5v326q0 23 -14.5 35.5t-38.5 12.5q-15 0 -28.5 -5.5t-24.5 -16.5t-21 -28v-320
q0 -29 -33 -29h-141v0zM360 734q5 7 11.5 8t15.5 1h105q19 0 2 -18l-111 -127q-5 -5 -11 -9t-17 -4h-95q-14 0 -22 4t-15 11l-112 125q-7 8 -6.5 13t9.5 5h99q10 0 15 -0.5t11 -8.5l46 -55q12 -15 18 -14t16 14l41 55v0z" />
    <glyph glyph-name="napostrophe" unicode="&#x149;" horiz-adv-x="742" 
d="M50 445q-7 0 -9 5.5t-1 10.5l31 107q3 10 2 15t-9 6l-12 2q-18 1 -18 17v118q0 16 14 16h99q13 0 13 -13v-138q0 -3 -1 -5.5t-2 -4.5l-38 -120q-3 -9 -9.5 -12.5t-20.5 -3.5h-39v0zM205 0q-26 0 -26 25v482q0 23 19 23h161q18 0 18 -20v-45q0 -6 3.5 -8t9.5 4
q21 23 46 41t53.5 28t59.5 10q70 0 113.5 -44t43.5 -118v-348q0 -30 -30 -30h-147q-13 0 -18 5.5t-5 19.5v326q0 23 -14.5 35.5t-38.5 12.5q-15 0 -28.5 -5.5t-24.5 -16.5t-21 -28v-320q0 -29 -33 -29h-141v0z" />
    <glyph glyph-name="Eng" unicode="&#x14a;" horiz-adv-x="761" 
d="M694 742q15 0 15 -17v-678q0 -121 -59.5 -171.5t-173.5 -50.5q-31 0 -63.5 3t-66.5 9q-17 3 -24.5 12.5t-6.5 30.5l8 91q2 26 24 23q12 -1 38.5 -4t42.5 -3q44 0 61 17t20 58v9l-262 317q-4 5 -7 4t-3 -6v-364q1 -22 -24 -22h-136q-25 0 -25 20v699q0 23 22 23h163
q13 0 19 -3.5t15 -14.5l240 -294q7 -9 11.5 -8.5t4.5 12.5v287q0 21 22 21h145v0z" />
    <glyph glyph-name="eng" unicode="&#x14b;" horiz-adv-x="610" 
d="M412 540q70 0 113.5 -44t43.5 -118v-349q0 -66 -28 -110t-75.5 -66.5t-106.5 -22.5q-34 0 -46 4.5t-12 20.5l-1 102q0 8 5 16.5t15 10.5l25 6q10 3 17 12t7 34v315q0 23 -14.5 35.5t-38.5 12.5q-23 0 -41 -12t-32 -38v-320q0 -29 -33 -29h-143q-26 0 -26 25l4 482
q0 23 19 23h158q18 0 18 -20v-45q0 -6 3.5 -8t9.5 4q21 23 46 41t53.5 28t59.5 10v0z" />
    <glyph glyph-name="Omacron" unicode="&#x14c;" horiz-adv-x="780" 
d="M391 -10q-110 0 -191 46.5t-125 132t-44 200.5q0 116 45 202t126 133.5t189 47.5t188.5 -47.5t125 -133.5t44.5 -202q0 -115 -44 -200t-124.5 -132t-189.5 -47v0zM391 146q65 0 92.5 50t27.5 170q0 124 -28 178t-92 54q-65 0 -93.5 -54t-28.5 -178q0 -120 27.5 -170
t94.5 -50v0zM595 855q0 -24 -29 -24h-360q-13 0 -17.5 5.5t-4.5 16.5v81q0 20 16 20h379q16 0 16 -18v-81z" />
    <glyph glyph-name="omacron" unicode="&#x14d;" 
d="M299 -10q-82 0 -144.5 35t-98 96.5t-35.5 140.5q0 84 37 146.5t100 97t142 34.5q84 0 146.5 -36t97.5 -98.5t35 -143.5q0 -79 -35.5 -140.5t-98.5 -96.5t-146 -35v0zM300 118q27 0 44 15.5t25 48.5t8 84q0 53 -8 86t-25 48.5t-44 15.5q-26 0 -43.5 -15.5t-25.5 -48.5
t-8 -86q0 -52 8 -84.5t25.5 -48t43.5 -15.5v0zM505 643q0 -24 -29 -24h-360q-13 0 -17.5 5.5t-4.5 16.5v81q0 20 16 20h379q16 0 16 -18v-81z" />
    <glyph glyph-name="Obreve" unicode="&#x14e;" horiz-adv-x="780" 
d="M391 -10q-110 0 -191 46.5t-125 132t-44 200.5q0 116 45 202t126 133.5t189 47.5t188.5 -47.5t125 -133.5t44.5 -202q0 -115 -44 -200t-124.5 -132t-189.5 -47v0zM391 146q65 0 92.5 50t27.5 170q0 124 -28 178t-92 54q-65 0 -93.5 -54t-28.5 -178q0 -120 27.5 -170
t94.5 -50v0zM574 954q20 0 13 -18q-16 -44 -45.5 -73t-68 -43.5t-82.5 -14.5q-43 0 -84 13.5t-71.5 43t-42.5 76.5q-1 6 1.5 11t9.5 5h77q9 0 13.5 -3t10.5 -11q10 -13 23.5 -23.5t30 -16.5t32.5 -6q23 0 47.5 13t37.5 34q5 9 9.5 11t10.5 2h78v0z" />
    <glyph glyph-name="obreve" unicode="&#x14f;" 
d="M299 -10q-82 0 -144.5 35t-98 96.5t-35.5 140.5q0 84 37 146.5t100 97t142 34.5q84 0 146.5 -36t97.5 -98.5t35 -143.5q0 -79 -35.5 -140.5t-98.5 -96.5t-146 -35v0zM300 118q27 0 44 15.5t25 48.5t8 84q0 53 -8 86t-25 48.5t-44 15.5q-26 0 -43.5 -15.5t-25.5 -48.5
t-8 -86q0 -52 8 -84.5t25.5 -48t43.5 -15.5v0zM484 742q20 0 13 -18q-16 -44 -45.5 -73t-68 -43.5t-82.5 -14.5q-43 0 -84 13.5t-71.5 43t-42.5 76.5q-1 6 1.5 11t9.5 5h77q9 0 13.5 -3t10.5 -11q10 -13 23.5 -23.5t30 -16.5t32.5 -6q23 0 47.5 13t37.5 34q5 9 9.5 11
t10.5 2h78v0z" />
    <glyph glyph-name="Ohungarumlaut" unicode="&#x150;" horiz-adv-x="780" 
d="M391 -10q-110 0 -191 46.5t-125 132t-44 200.5q0 116 45 202t126 133.5t189 47.5t188.5 -47.5t125 -133.5t44.5 -202q0 -115 -44 -200t-124.5 -132t-189.5 -47v0zM391 146q65 0 92.5 50t27.5 170q0 124 -28 178t-92 54q-65 0 -93.5 -54t-28.5 -178q0 -120 27.5 -170
t94.5 -50v0zM385 895q8 -10 9 -19.5t-13 -17.5l-143 -80q-12 -7 -18 -7.5t-14 7.5l-33 35q-15 15 -3 25l141 119q13 12 24 -2zM604 895q8 -10 9 -19.5t-13 -17.5l-143 -80q-12 -7 -18 -7.5t-14 7.5l-33 35q-15 15 -3 25l141 119q13 12 24 -2z" />
    <glyph glyph-name="ohungarumlaut" unicode="&#x151;" 
d="M299 -10q-82 0 -144.5 35t-98 96.5t-35.5 140.5q0 84 37 146.5t100 97t142 34.5q84 0 146.5 -36t97.5 -98.5t35 -143.5q0 -79 -35.5 -140.5t-98.5 -96.5t-146 -35v0zM300 118q27 0 44 15.5t25 48.5t8 84q0 53 -8 86t-25 48.5t-44 15.5q-26 0 -43.5 -15.5t-25.5 -48.5
t-8 -86q0 -52 8 -84.5t25.5 -48t43.5 -15.5v0zM295 683q8 -10 9 -19.5t-13 -17.5l-143 -80q-12 -7 -18 -7.5t-14 7.5l-33 35q-15 15 -3 25l141 119q13 12 24 -2zM514 683q8 -10 9 -19.5t-13 -17.5l-143 -80q-12 -7 -18 -7.5t-14 7.5l-33 35q-15 15 -3 25l141 119
q13 12 24 -2z" />
    <glyph glyph-name="OE" unicode="&#x152;" horiz-adv-x="1130" 
d="M1075 164q22 0 22 -19v-123q0 -9 -5.5 -15.5t-18.5 -6.5h-551q-10 0 -10 8v18q-22 -16 -62 -26t-87 -10q-97 0 -172 46.5t-117.5 131.5t-42.5 200q0 117 44 203t122 133.5t181 47.5q40 0 76 -7.5t58 -24.5v15q0 7 10 7h548q18 0 18 -21l-1 -116q0 -27 -26 -27h-300
q-23 0 -23 -19v-85q0 -21 18 -21h180q21 0 21 -20v-124q0 -7 -4 -12t-14 -5h-185q-16 0 -16 -14v-100q0 -14 12 -14h325v0zM390 146q66 0 93.5 47t27.5 153v44q0 77 -12.5 122.5t-39 65.5t-68.5 20q-65 0 -93.5 -54.5t-28.5 -177.5q0 -120 27.5 -170t93.5 -50v0z" />
    <glyph glyph-name="oe" unicode="&#x153;" horiz-adv-x="940" 
d="M299 -10q-82 0 -144.5 35t-98 96.5t-35.5 140.5q0 84 37 146.5t100 97t142 34.5q49 0 91 -13t76 -36q13 -9 25 0q34 24 74 36.5t83 12.5q79 0 140 -34t96.5 -97.5t35.5 -154.5q0 -13 -2.5 -18.5t-15.5 -6.5h-311q-15 0 -15 -17q0 -30 13.5 -50t37 -30t52.5 -10
q26 0 51 12t58 44q4 4 7.5 4.5t13.5 -3.5l91 -37q18 -7 4 -24q-36 -50 -72.5 -78t-80 -39t-99.5 -11q-49 0 -91.5 13t-77.5 37q-8 5 -17 -1q-34 -23 -76.5 -36t-91.5 -13v0zM300 118q27 0 44 15.5t25 48.5t8 84q0 53 -8 86t-25 48.5t-44 15.5q-26 0 -43.5 -15.5t-25.5 -48.5
t-8 -86q0 -52 8 -84.5t25.5 -48t43.5 -15.5v0zM658 423q-20 0 -38 -9.5t-29 -29.5t-11 -51l130 -1q10 0 13.5 2.5t3.5 11.5q0 13 -7 31t-22 32t-40 14v0z" />
    <glyph glyph-name="Racute" unicode="&#x154;" horiz-adv-x="739" 
d="M701 32q5 -13 -0.5 -22.5t-17.5 -9.5h-194q-21 0 -27 21l-94 258q-6 16 -31 16h-46q-7 0 -9.5 -4.5t-2.5 -6.5v-255q0 -29 -33 -29h-168q-15 0 -20.5 6t-5.5 19v694q0 23 19 23h334q145 0 225 -55.5t80 -156.5q0 -47 -17 -87t-46.5 -68.5t-67.5 -43.5q-10 -4 -4 -19
l126 -280v0zM396 444q38 0 58.5 20t20.5 52q0 38 -25.5 58t-59.5 20h-88q-23 0 -23 -20v-109q0 -21 17 -21h100v0zM506 870q8 -25 -19 -32l-233 -56q-13 -3 -19 0t-10 13l-15 43q-6 18 8 24l240 98q14 6 21 -12z" />
    <glyph glyph-name="racute" unicode="&#x155;" horiz-adv-x="454" 
d="M67 0q-15 0 -20.5 6t-5.5 19v482q0 23 19 23h156q18 0 18 -20v-56q0 -7 6 -8.5t11 5.5q16 25 41 45t53 32t51 12q37 0 37 -20v-152q0 -21 -20 -16q-23 6 -47.5 8.5t-38.5 2.5q-16 0 -31.5 -5.5t-28 -15.5t-19.5 -22t-7 -25v-266q0 -29 -33 -29h-141v0zM380 658
q8 -25 -19 -32l-233 -56q-13 -3 -19 0t-10 13l-15 43q-6 18 8 24l240 98q14 6 21 -12z" />
    <glyph glyph-name="uni0156" unicode="&#x156;" horiz-adv-x="739" 
d="M701 32q5 -13 -0.5 -22.5t-17.5 -9.5h-194q-21 0 -27 21l-94 258q-6 16 -31 16h-46q-7 0 -9.5 -4.5t-2.5 -6.5v-255q0 -29 -33 -29h-168q-15 0 -20.5 6t-5.5 19v694q0 23 19 23h334q145 0 225 -55.5t80 -156.5q0 -47 -17 -87t-46.5 -68.5t-67.5 -43.5q-10 -4 -4 -19
l126 -280v0zM396 444q38 0 58.5 20t20.5 52q0 38 -25.5 58t-59.5 20h-88q-23 0 -23 -20v-109q0 -21 17 -21h100v0zM323 -246q-8 0 -12 7t0 13l33 45q8 11 5 20t-14 9h-9q-23 0 -23 22v61q0 20 18 20h94q17 0 17 -16v-87q0 -4 -1.5 -7.5t-2.5 -5.5l-54 -67q-6 -8 -12.5 -11
t-20.5 -3h-18v0z" />
    <glyph glyph-name="uni0157" unicode="&#x157;" horiz-adv-x="454" 
d="M67 0q-15 0 -20.5 6t-5.5 19v482q0 23 19 23h156q18 0 18 -20v-56q0 -7 6 -8.5t11 5.5q16 25 41 45t53 32t51 12q37 0 37 -20v-152q0 -21 -20 -16q-23 6 -47.5 8.5t-38.5 2.5q-16 0 -31.5 -5.5t-28 -15.5t-19.5 -22t-7 -25v-266q0 -29 -33 -29h-141v0zM96 -246
q-8 0 -12 7t0 13l33 45q8 11 5 20t-14 9h-9q-23 0 -23 22v61q0 20 18 20h94q17 0 17 -16v-87q0 -4 -1.5 -7.5t-2.5 -5.5l-54 -67q-6 -8 -12.5 -11t-20.5 -3h-18v0z" />
    <glyph glyph-name="Rcaron" unicode="&#x158;" horiz-adv-x="739" 
d="M701 32q5 -13 -0.5 -22.5t-17.5 -9.5h-194q-21 0 -27 21l-94 258q-6 16 -31 16h-46q-7 0 -9.5 -4.5t-2.5 -6.5v-255q0 -29 -33 -29h-168q-15 0 -20.5 6t-5.5 19v694q0 23 19 23h334q145 0 225 -55.5t80 -156.5q0 -47 -17 -87t-46.5 -68.5t-67.5 -43.5q-10 -4 -4 -19
l126 -280v0zM396 444q38 0 58.5 20t20.5 52q0 38 -25.5 58t-59.5 20h-88q-23 0 -23 -20v-109q0 -21 17 -21h100v0zM414 946q5 7 11.5 8t15.5 1h105q19 0 2 -18l-111 -127q-5 -5 -11 -9t-17 -4h-95q-14 0 -22 4t-15 11l-112 125q-7 8 -6.5 13t9.5 5h99q10 0 15 -0.5t11 -8.5
l46 -55q12 -15 18 -14t16 14l41 55v0z" />
    <glyph glyph-name="rcaron" unicode="&#x159;" horiz-adv-x="454" 
d="M67 0q-15 0 -20.5 6t-5.5 19v482q0 23 19 23h156q18 0 18 -20v-56q0 -7 6 -8.5t11 5.5q16 25 41 45t53 32t51 12q37 0 37 -20v-152q0 -21 -20 -16q-23 6 -47.5 8.5t-38.5 2.5q-16 0 -31.5 -5.5t-28 -15.5t-19.5 -22t-7 -25v-266q0 -29 -33 -29h-141v0zM288 734
q5 7 11.5 8t15.5 1h105q19 0 2 -18l-111 -127q-5 -5 -11 -9t-17 -4h-95q-14 0 -22 4t-15 11l-112 125q-7 8 -6.5 13t9.5 5h99q10 0 15 -0.5t11 -8.5l46 -55q12 -15 18 -14t16 14l41 55v0z" />
    <glyph glyph-name="Sacute" unicode="&#x15a;" horiz-adv-x="701" 
d="M494 543q-18 20 -45 37t-86 17q-56 0 -79 -16t-23 -35q0 -9 5.5 -18.5t19.5 -18t39 -14.5l166 -43q94 -23 138.5 -82t44.5 -136q0 -74 -39 -129t-110.5 -85t-170.5 -30q-73 0 -138.5 16.5t-114.5 46.5t-73 69q-6 11 -5 18t11 15l103 71q14 9 23 7.5t15 -9.5
q22 -28 44 -46t50.5 -26t67.5 -8q55 0 88 15t33 43q0 12 -7 22.5t-20.5 18.5t-35.5 13l-152 37q-60 15 -104 47.5t-68 77.5t-24 97q0 65 37.5 119t107 86t163.5 32q60 0 114.5 -13.5t97.5 -37.5t66 -57q5 -7 7.5 -14.5t-7.5 -15.5l-109 -79q-7 -5 -13 -3.5t-17 11.5v0z
M503 870q8 -25 -19 -32l-233 -56q-13 -3 -19 0t-10 13l-15 43q-6 18 8 24l240 98q14 6 21 -12z" />
    <glyph glyph-name="sacute" unicode="&#x15b;" horiz-adv-x="541" 
d="M373 378q-15 17 -39 31.5t-61 14.5q-26 0 -45 -9t-19 -26q0 -7 6.5 -14t33.5 -12l106 -22q93 -19 130.5 -66t37.5 -105t-32 -98t-89 -61t-132 -21q-96 0 -160 32t-89 77q-5 9 -5 17t7 12l87 44q13 6 19.5 5t11.5 -7q12 -13 26.5 -26.5t39 -22.5t64.5 -8q21 1 38 4.5
t27 11.5t10 20q0 10 -8.5 18t-37.5 13l-102 18q-76 14 -119 52.5t-44 106.5q0 52 27.5 93.5t81.5 65.5t131 24q82 0 139.5 -29.5t79.5 -66.5q5 -7 8 -16t-8 -14l-92 -44q-9 -4 -16 -1.5t-13 9.5v0zM417 658q8 -25 -19 -32l-233 -56q-13 -3 -19 0t-10 13l-15 43q-6 18 8 24
l240 98q14 6 21 -12z" />
    <glyph glyph-name="Scircumflex" unicode="&#x15c;" horiz-adv-x="701" 
d="M494 543q-18 20 -45 37t-86 17q-56 0 -79 -16t-23 -35q0 -9 5.5 -18.5t19.5 -18t39 -14.5l166 -43q94 -23 138.5 -82t44.5 -136q0 -74 -39 -129t-110.5 -85t-170.5 -30q-73 0 -138.5 16.5t-114.5 46.5t-73 69q-6 11 -5 18t11 15l103 71q14 9 23 7.5t15 -9.5
q22 -28 44 -46t50.5 -26t67.5 -8q55 0 88 15t33 43q0 12 -7 22.5t-20.5 18.5t-35.5 13l-152 37q-60 15 -104 47.5t-68 77.5t-24 97q0 65 37.5 119t107 86t163.5 32q60 0 114.5 -13.5t97.5 -37.5t66 -57q5 -7 7.5 -14.5t-7.5 -15.5l-109 -79q-7 -5 -13 -3.5t-17 11.5v0z
M370 870q-10 14 -15.5 14t-18.5 -14l-46 -54q-7 -7 -11.5 -8t-14.5 -1h-99q-9 0 -9.5 5t6.5 13l112 124q7 8 15 11.5t22 3.5h95q11 0 17 -4t11 -9l111 -126q17 -18 -2 -18h-105q-9 0 -15.5 1t-11.5 8z" />
    <glyph glyph-name="scircumflex" unicode="&#x15d;" horiz-adv-x="541" 
d="M373 378q-15 17 -39 31.5t-61 14.5q-26 0 -45 -9t-19 -26q0 -7 6.5 -14t33.5 -12l106 -22q93 -19 130.5 -66t37.5 -105t-32 -98t-89 -61t-132 -21q-96 0 -160 32t-89 77q-5 9 -5 17t7 12l87 44q13 6 19.5 5t11.5 -7q12 -13 26.5 -26.5t39 -22.5t64.5 -8q21 1 38 4.5
t27 11.5t10 20q0 10 -8.5 18t-37.5 13l-102 18q-76 14 -119 52.5t-44 106.5q0 52 27.5 93.5t81.5 65.5t131 24q82 0 139.5 -29.5t79.5 -66.5q5 -7 8 -16t-8 -14l-92 -44q-9 -4 -16 -1.5t-13 9.5v0zM284 658q-10 14 -15.5 14t-18.5 -14l-46 -54q-7 -7 -11.5 -8t-14.5 -1h-99
q-9 0 -9.5 5t6.5 13l112 124q7 8 15 11.5t22 3.5h95q11 0 17 -4t11 -9l111 -126q17 -18 -2 -18h-105q-9 0 -15.5 1t-11.5 8z" />
    <glyph glyph-name="Scedilla" unicode="&#x15e;" horiz-adv-x="701" 
d="M494 543q-18 20 -45 37t-86 17q-56 0 -79 -16t-23 -35q0 -9 5.5 -18.5t19.5 -18t39 -14.5l166 -43q94 -23 138.5 -82t44.5 -136q0 -74 -39 -129t-110.5 -85t-170.5 -30q-73 0 -138.5 16.5t-114.5 46.5t-73 69q-6 11 -5 18t11 15l103 71q14 9 23 7.5t15 -9.5
q22 -28 44 -46t50.5 -26t67.5 -8q55 0 88 15t33 43q0 12 -7 22.5t-20.5 18.5t-35.5 13l-152 37q-60 15 -104 47.5t-68 77.5t-24 97q0 65 37.5 119t107 86t163.5 32q60 0 114.5 -13.5t97.5 -37.5t66 -57q5 -7 7.5 -14.5t-7.5 -15.5l-109 -79q-7 -5 -13 -3.5t-17 11.5v0z
M493 -137q0 -27 -18.5 -46.5t-48.5 -30.5t-66 -11q-33 0 -66 5.5t-61 19.5q-10 7 -6 16l17 41q3 8 12 5q17 -9 38 -16t41 -7q21 0 34 7t13 20q0 18 -19.5 28.5t-71.5 10.5q-7 0 -10.5 2t0.5 10l38 88h81l-19 -49q-4 -9 6 -9q39 0 62.5 -13t33.5 -32.5t10 -38.5v0z" />
    <glyph glyph-name="scedilla" unicode="&#x15f;" horiz-adv-x="541" 
d="M373 378q-15 17 -39 31.5t-61 14.5q-26 0 -45 -9t-19 -26q0 -7 6.5 -14t33.5 -12l106 -22q93 -19 130.5 -66t37.5 -105t-32 -98t-89 -61t-132 -21q-96 0 -160 32t-89 77q-5 9 -5 17t7 12l87 44q13 6 19.5 5t11.5 -7q12 -13 26.5 -26.5t39 -22.5t64.5 -8q21 1 38 4.5
t27 11.5t10 20q0 10 -8.5 18t-37.5 13l-102 18q-76 14 -119 52.5t-44 106.5q0 52 27.5 93.5t81.5 65.5t131 24q82 0 139.5 -29.5t79.5 -66.5q5 -7 8 -16t-8 -14l-92 -44q-9 -4 -16 -1.5t-13 9.5v0zM406 -137q0 -27 -18.5 -46.5t-48.5 -30.5t-66 -11q-33 0 -66 5.5t-61 19.5
q-10 7 -6 16l17 41q3 8 12 5q17 -9 38 -16t41 -7q21 0 34 7t13 20q0 18 -19.5 28.5t-71.5 10.5q-7 0 -10.5 2t0.5 10l38 88h81l-19 -49q-4 -9 6 -9q39 0 62.5 -13t33.5 -32.5t10 -38.5v0z" />
    <glyph glyph-name="Scaron" unicode="&#x160;" horiz-adv-x="701" 
d="M494 543q-18 20 -45 37t-86 17q-56 0 -79 -16t-23 -35q0 -9 5.5 -18.5t19.5 -18t39 -14.5l166 -43q94 -23 138.5 -82t44.5 -136q0 -74 -39 -129t-110.5 -85t-170.5 -30q-73 0 -138.5 16.5t-114.5 46.5t-73 69q-6 11 -5 18t11 15l103 71q14 9 23 7.5t15 -9.5
q22 -28 44 -46t50.5 -26t67.5 -8q55 0 88 15t33 43q0 12 -7 22.5t-20.5 18.5t-35.5 13l-152 37q-60 15 -104 47.5t-68 77.5t-24 97q0 65 37.5 119t107 86t163.5 32q60 0 114.5 -13.5t97.5 -37.5t66 -57q5 -7 7.5 -14.5t-7.5 -15.5l-109 -79q-7 -5 -13 -3.5t-17 11.5v0z
M411 946q5 7 11.5 8t15.5 1h105q19 0 2 -18l-111 -127q-5 -5 -11 -9t-17 -4h-95q-14 0 -22 4t-15 11l-112 125q-7 8 -6.5 13t9.5 5h99q10 0 15 -0.5t11 -8.5l46 -55q12 -15 18 -14t16 14l41 55v0z" />
    <glyph glyph-name="scaron" unicode="&#x161;" horiz-adv-x="541" 
d="M373 378q-15 17 -39 31.5t-61 14.5q-26 0 -45 -9t-19 -26q0 -7 6.5 -14t33.5 -12l106 -22q93 -19 130.5 -66t37.5 -105t-32 -98t-89 -61t-132 -21q-96 0 -160 32t-89 77q-5 9 -5 17t7 12l87 44q13 6 19.5 5t11.5 -7q12 -13 26.5 -26.5t39 -22.5t64.5 -8q21 1 38 4.5
t27 11.5t10 20q0 10 -8.5 18t-37.5 13l-102 18q-76 14 -119 52.5t-44 106.5q0 52 27.5 93.5t81.5 65.5t131 24q82 0 139.5 -29.5t79.5 -66.5q5 -7 8 -16t-8 -14l-92 -44q-9 -4 -16 -1.5t-13 9.5v0zM325 734q5 7 11.5 8t15.5 1h105q19 0 2 -18l-111 -127q-5 -5 -11 -9t-17 -4
h-95q-14 0 -22 4t-15 11l-112 125q-7 8 -6.5 13t9.5 5h99q10 0 15 -0.5t11 -8.5l46 -55q12 -15 18 -14t16 14l41 55v0z" />
    <glyph glyph-name="uni0162" unicode="&#x162;" horiz-adv-x="704" 
d="M28 719q0 10 6 16.5t19 6.5h598q13 0 19 -6.5t6 -16.5v-119q0 -19 -22 -19h-177q-12 0 -12 -10v-549q0 -22 -19 -22h-190q-18 0 -18 20v547q0 14 -11 14h-176q-23 0 -23 19v119zM490 -137q0 -27 -18.5 -46.5t-48.5 -30.5t-66 -11q-33 0 -66 5.5t-61 19.5q-10 7 -6 16
l17 41q3 8 12 5q17 -9 38 -16t41 -7q21 0 34 7t13 20q0 18 -19.5 28.5t-71.5 10.5q-7 0 -10.5 2t0.5 10l38 88h81l-19 -49q-4 -9 6 -9q39 0 62.5 -13t33.5 -32.5t10 -38.5v0z" />
    <glyph glyph-name="uni0163" unicode="&#x163;" horiz-adv-x="462" 
d="M318 395q-13 0 -13 -13v-192q0 -26 16.5 -39.5t53.5 -13.5h43q8 0 13 -6t5 -14l-1 -80q0 -24 -29 -30q-22 -3 -44.5 -4.5t-45 -2t-45.5 -0.5q-72 0 -119 34.5t-47 98.5v244q0 18 -15 18h-48q-24 0 -24 22v94q0 19 22 19h59q11 0 12 12l16 148q2 20 18 20h147q19 0 19 -22
v-146q0 -11 11 -11h92q22 0 22 -19v-95q0 -22 -25 -22h-93zM405 -137q0 -27 -18.5 -46.5t-48.5 -30.5t-66 -11q-33 0 -66 5.5t-61 19.5q-10 7 -6 16l17 41q3 8 12 5q17 -9 38 -16t41 -7q21 0 34 7t13 20q0 18 -19.5 28.5t-71.5 10.5q-7 0 -10.5 2t0.5 10l38 88h81l-19 -49
q-4 -9 6 -9q39 0 62.5 -13t33.5 -32.5t10 -38.5v0z" />
    <glyph glyph-name="Tcaron" unicode="&#x164;" horiz-adv-x="704" 
d="M28 719q0 10 6 16.5t19 6.5h598q13 0 19 -6.5t6 -16.5v-119q0 -19 -22 -19h-177q-12 0 -12 -10v-549q0 -22 -19 -22h-190q-18 0 -18 20v547q0 14 -11 14h-176q-23 0 -23 19v119zM408 946q5 7 11.5 8t15.5 1h105q19 0 2 -18l-111 -127q-5 -5 -11 -9t-17 -4h-95
q-14 0 -22 4t-15 11l-112 125q-7 8 -6.5 13t9.5 5h99q10 0 15 -0.5t11 -8.5l46 -55q12 -15 18 -14t16 14l41 55v0z" />
    <glyph glyph-name="tcaron" unicode="&#x165;" horiz-adv-x="528" 
d="M318 395q-13 0 -13 -13v-192q0 -26 16.5 -39.5t53.5 -13.5h43q8 0 13 -6t5 -14l-1 -80q0 -24 -29 -30q-22 -3 -44.5 -4.5t-45 -2t-45.5 -0.5q-72 0 -119 34.5t-47 98.5v244q0 18 -15 18h-48q-24 0 -24 22v94q0 19 22 19h59q11 0 12 12l16 148q2 20 18 20h147q19 0 19 -22
v-146q0 -11 11 -11h92q22 0 22 -19v-95q0 -22 -25 -22h-93zM421 568q-7 0 -9.5 5.5t-0.5 10.5l31 77q7 18 -7 21l-12 2q-18 1 -18 17v98q0 16 14 16h97q13 0 13 -13v-118q0 -3 -1 -5.5t-2 -4.5l-38 -90q-3 -9 -9.5 -12.5t-20.5 -3.5h-37v0z" />
    <glyph glyph-name="Tbar" unicode="&#x166;" horiz-adv-x="704" 
d="M554 309q0 -28 -33 -28h-379q-15 0 -20.5 6t-5.5 19v93q0 23 19 23h401q18 0 18 -20v-93zM28 719q0 10 6 16.5t19 6.5h598q13 0 19 -6.5t6 -16.5v-119q0 -19 -22 -19h-177q-12 0 -12 -10v-549q0 -22 -19 -22h-190q-18 0 -18 20v547q0 14 -11 14h-176q-23 0 -23 19v119z
" />
    <glyph glyph-name="tbar" unicode="&#x167;" horiz-adv-x="462" 
d="M401 255q0 -24 -29 -24h-320q-13 0 -17.5 5.5t-4.5 16.5v65q0 20 16 20h339q16 0 16 -18v-65zM318 395q-13 0 -13 -13v-192q0 -26 16.5 -39.5t53.5 -13.5h43q8 0 13 -6t5 -14l-1 -80q0 -24 -29 -30q-22 -3 -44.5 -4.5t-45 -2t-45.5 -0.5q-72 0 -119 34.5t-47 98.5v244
q0 18 -15 18h-48q-24 0 -24 22v94q0 19 22 19h59q11 0 12 12l16 148q2 20 18 20h147q19 0 19 -22v-146q0 -11 11 -11h92q22 0 22 -19v-95q0 -22 -25 -22h-93z" />
    <glyph glyph-name="Utilde" unicode="&#x168;" horiz-adv-x="728" 
d="M684 293q0 -115 -40 -181.5t-112 -94t-168 -27.5q-120 0 -190 37t-100 109.5t-30 176.5v406q0 23 19 23h190q18 0 18 -21v-432q0 -76 29.5 -108t80.5 -32q31 0 57.5 12.5t42.5 44t16 86.5v427q0 23 19 23h150q18 0 18 -21v-428v0zM565 851q-16 -11 -42.5 -20.5
t-57.5 -9.5q-29 0 -55.5 8t-52 15.5t-54.5 7.5q-21 0 -36 -5.5t-35 -19.5q-8 -6 -13.5 -5t-9.5 13l-17 54q-2 8 -2.5 14.5t10.5 16.5q19 16 41 28.5t57 12.5q32 0 61 -8.5t55.5 -17t49.5 -8.5q24 0 44 9t33 19q8 5 15 3.5t9 -12.5l14 -65q4 -17 -14 -30v0z" />
    <glyph glyph-name="utilde" unicode="&#x169;" horiz-adv-x="601" 
d="M285 130q23 0 42.5 12t32.5 29v330q0 29 33 29h143q26 0 26 -26l-4 -482q0 -22 -19 -22h-158q-18 0 -18 20v44q0 6 -3.5 7.5t-8.5 -3.5q-34 -40 -75 -59t-91 -19q-43 0 -76.5 19.5t-53 57t-19.5 90.5v343q0 30 31 30h146q23 0 23 -26v-325q0 -23 13.5 -36t35.5 -13v0z
M483 639q-16 -11 -42.5 -20.5t-57.5 -9.5q-29 0 -55.5 8t-52 15.5t-54.5 7.5q-21 0 -36 -5.5t-35 -19.5q-8 -6 -13.5 -5t-9.5 13l-17 54q-2 8 -2.5 14.5t10.5 16.5q19 16 41 28.5t57 12.5q32 0 61 -8.5t55.5 -17t49.5 -8.5q24 0 44 9t33 19q8 5 15 3.5t9 -12.5l14 -65
q4 -17 -14 -30v0z" />
    <glyph glyph-name="Umacron" unicode="&#x16a;" horiz-adv-x="728" 
d="M684 293q0 -115 -40 -181.5t-112 -94t-168 -27.5q-120 0 -190 37t-100 109.5t-30 176.5v406q0 23 19 23h190q18 0 18 -21v-432q0 -76 29.5 -108t80.5 -32q31 0 57.5 12.5t42.5 44t16 86.5v427q0 23 19 23h150q18 0 18 -21v-428v0zM586 855q0 -24 -29 -24h-360
q-13 0 -17.5 5.5t-4.5 16.5v81q0 20 16 20h379q16 0 16 -18v-81z" />
    <glyph glyph-name="umacron" unicode="&#x16b;" horiz-adv-x="601" 
d="M285 130q23 0 42.5 12t32.5 29v330q0 29 33 29h143q26 0 26 -26l-4 -482q0 -22 -19 -22h-158q-18 0 -18 20v44q0 6 -3.5 7.5t-8.5 -3.5q-34 -40 -75 -59t-91 -19q-43 0 -76.5 19.5t-53 57t-19.5 90.5v343q0 30 31 30h146q23 0 23 -26v-325q0 -23 13.5 -36t35.5 -13v0z
M504 643q0 -24 -29 -24h-360q-13 0 -17.5 5.5t-4.5 16.5v81q0 20 16 20h379q16 0 16 -18v-81z" />
    <glyph glyph-name="Ubreve" unicode="&#x16c;" horiz-adv-x="728" 
d="M684 293q0 -115 -40 -181.5t-112 -94t-168 -27.5q-120 0 -190 37t-100 109.5t-30 176.5v406q0 23 19 23h190q18 0 18 -21v-432q0 -76 29.5 -108t80.5 -32q31 0 57.5 12.5t42.5 44t16 86.5v427q0 23 19 23h150q18 0 18 -21v-428v0zM565 954q20 0 13 -18q-16 -44 -45.5 -73
t-68 -43.5t-82.5 -14.5q-43 0 -84 13.5t-71.5 43t-42.5 76.5q-1 6 1.5 11t9.5 5h77q9 0 13.5 -3t10.5 -11q10 -13 23.5 -23.5t30 -16.5t32.5 -6q23 0 47.5 13t37.5 34q5 9 9.5 11t10.5 2h78v0z" />
    <glyph glyph-name="ubreve" unicode="&#x16d;" horiz-adv-x="601" 
d="M285 130q23 0 42.5 12t32.5 29v330q0 29 33 29h143q26 0 26 -26l-4 -482q0 -22 -19 -22h-158q-18 0 -18 20v44q0 6 -3.5 7.5t-8.5 -3.5q-34 -40 -75 -59t-91 -19q-43 0 -76.5 19.5t-53 57t-19.5 90.5v343q0 30 31 30h146q23 0 23 -26v-325q0 -23 13.5 -36t35.5 -13v0z
M483 742q20 0 13 -18q-16 -44 -45.5 -73t-68 -43.5t-82.5 -14.5q-43 0 -84 13.5t-71.5 43t-42.5 76.5q-1 6 1.5 11t9.5 5h77q9 0 13.5 -3t10.5 -11q10 -13 23.5 -23.5t30 -16.5t32.5 -6q23 0 47.5 13t37.5 34q5 9 9.5 11t10.5 2h78v0z" />
    <glyph glyph-name="Uring" unicode="&#x16e;" horiz-adv-x="728" 
d="M684 293q0 -115 -40 -181.5t-112 -94t-168 -27.5q-120 0 -190 37t-100 109.5t-30 176.5v406q0 23 19 23h190q18 0 18 -21v-432q0 -76 29.5 -108t80.5 -32q31 0 57.5 12.5t42.5 44t16 86.5v427q0 23 19 23h150q18 0 18 -21v-428v0zM495 836q0 -49 -34 -83t-83 -34
t-83 34.5t-34 84.5q0 32 16 57.5t42.5 40.5t58.5 15q33 0 59.5 -15.5t42 -41.5t15.5 -58v0zM425 835q0 20 -14 33.5t-34 13.5q-19 0 -34 -13.5t-15 -33.5q0 -19 15 -34t34 -15q20 0 34 15t14 34v0z" />
    <glyph glyph-name="uring" unicode="&#x16f;" horiz-adv-x="601" 
d="M285 130q23 0 42.5 12t32.5 29v330q0 29 33 29h143q26 0 26 -26l-4 -482q0 -22 -19 -22h-158q-18 0 -18 20v44q0 6 -3.5 7.5t-8.5 -3.5q-34 -40 -75 -59t-91 -19q-43 0 -76.5 19.5t-53 57t-19.5 90.5v343q0 30 31 30h146q23 0 23 -26v-325q0 -23 13.5 -36t35.5 -13v0z
M416 690q0 -49 -34 -83t-83 -34t-83 34.5t-34 84.5q0 32 16 57.5t42.5 40.5t58.5 15q33 0 59.5 -15.5t42 -41.5t15.5 -58v0zM346 689q0 20 -14 33.5t-34 13.5q-19 0 -34 -13.5t-15 -33.5q0 -19 15 -34t34 -15q20 0 34 15t14 34v0z" />
    <glyph glyph-name="Uhungarumlaut" unicode="&#x170;" horiz-adv-x="728" 
d="M684 293q0 -115 -40 -181.5t-112 -94t-168 -27.5q-120 0 -190 37t-100 109.5t-30 176.5v406q0 23 19 23h190q18 0 18 -21v-432q0 -76 29.5 -108t80.5 -32q31 0 57.5 12.5t42.5 44t16 86.5v427q0 23 19 23h150q18 0 18 -21v-428v0zM376 895q8 -10 9 -19.5t-13 -17.5
l-143 -80q-12 -7 -18 -7.5t-14 7.5l-33 35q-15 15 -3 25l141 119q13 12 24 -2zM595 895q8 -10 9 -19.5t-13 -17.5l-143 -80q-12 -7 -18 -7.5t-14 7.5l-33 35q-15 15 -3 25l141 119q13 12 24 -2z" />
    <glyph glyph-name="uhungarumlaut" unicode="&#x171;" horiz-adv-x="601" 
d="M285 130q23 0 42.5 12t32.5 29v330q0 29 33 29h143q26 0 26 -26l-4 -482q0 -22 -19 -22h-158q-18 0 -18 20v44q0 6 -3.5 7.5t-8.5 -3.5q-34 -40 -75 -59t-91 -19q-43 0 -76.5 19.5t-53 57t-19.5 90.5v343q0 30 31 30h146q23 0 23 -26v-325q0 -23 13.5 -36t35.5 -13v0z
M294 683q8 -10 9 -19.5t-13 -17.5l-143 -80q-12 -7 -18 -7.5t-14 7.5l-33 35q-15 15 -3 25l141 119q13 12 24 -2zM513 683q8 -10 9 -19.5t-13 -17.5l-143 -80q-12 -7 -18 -7.5t-14 7.5l-33 35q-15 15 -3 25l141 119q13 12 24 -2z" />
    <glyph glyph-name="Uogonek" unicode="&#x172;" horiz-adv-x="728" 
d="M684 293q0 -115 -40 -181.5t-112 -94t-168 -27.5q-120 0 -190 37t-100 109.5t-30 176.5v406q0 23 19 23h190q18 0 18 -21v-432q0 -76 29.5 -108t80.5 -32q31 0 57.5 12.5t42.5 44t16 86.5v427q0 23 19 23h150q18 0 18 -21v-428v0zM268 -87q0 26 18 49t76 44h136
q-56 -18 -74 -33t-18 -32q0 -15 7 -22t21 -7q17 0 30 4.5t26 11.5q18 9 18 -11v-52q0 -12 -10 -18q-13 -7 -43 -14t-66 -7q-54 0 -87.5 21t-33.5 66v0z" />
    <glyph glyph-name="uogonek" unicode="&#x173;" horiz-adv-x="601" 
d="M285 130q23 0 42.5 12t32.5 29v330q0 29 33 29h143q26 0 26 -26l-4 -482q0 -22 -19 -22h-158q-18 0 -18 20v44q0 6 -3.5 7.5t-8.5 -3.5q-34 -40 -75 -59t-91 -19q-43 0 -76.5 19.5t-53 57t-19.5 90.5v343q0 30 31 30h146q23 0 23 -26v-325q0 -23 13.5 -36t35.5 -13v0z
M323 -87q0 26 18 49t76 44h136q-56 -18 -74 -33t-18 -32q0 -15 7 -22t21 -7q17 0 30 4.5t26 11.5q18 9 18 -11v-52q0 -12 -10 -18q-13 -7 -43 -14t-66 -7q-54 0 -87.5 21t-33.5 66v0z" />
    <glyph glyph-name="Wcircumflex" unicode="&#x174;" horiz-adv-x="1109" 
d="M1052 742q20 0 27.5 -11.5t2.5 -28.5l-203 -677q-9 -25 -36 -25h-138q-29 0 -36 25l-104 352q-3 12 -7 12.5t-9 -14.5l-103 -350q-7 -25 -36 -25h-143q-27 0 -36 25l-204 677q-4 17 3.5 28.5t26.5 11.5h165q16 0 22.5 -5.5t9.5 -15.5l106 -371q3 -11 6.5 -11.5t5.5 7.5
l105 375q2 10 9 15.5t23 5.5h140q16 0 22.5 -5.5t9.5 -15.5l110 -380q2 -6 6 -7t5 5l102 382q2 10 9 15.5t23 5.5h116v0zM571 870q-10 14 -15.5 14t-18.5 -14l-46 -54q-7 -7 -11.5 -8t-14.5 -1h-99q-9 0 -9.5 5t6.5 13l112 124q7 8 15 11.5t22 3.5h95q11 0 17 -4t11 -9
l111 -126q17 -18 -2 -18h-105q-9 0 -15.5 1t-11.5 8z" />
    <glyph glyph-name="wcircumflex" unicode="&#x175;" horiz-adv-x="832" 
d="M798 530q12 0 17 -9t0 -20l-170 -483q-3 -10 -7.5 -14t-15.5 -4h-104q-22 0 -29 22l-64 210q-4 11 -8.5 11t-7.5 -11l-70 -214q-3 -10 -8 -14t-16 -4h-107q-21 0 -28 22l-163 479q-4 11 1.5 20t17.5 9h155q9 0 16.5 -6t9.5 -14l69 -214q2 -9 6.5 -9t8.5 10l65 213
q2 8 9.5 14t16.5 6h109q8 0 15.5 -6t9.5 -14l63 -214q2 -9 6.5 -9t8.5 10l68 213q4 8 10.5 14t15.5 6h100v0zM430 658q-10 14 -15.5 14t-18.5 -14l-46 -54q-7 -7 -11.5 -8t-14.5 -1h-99q-9 0 -9.5 5t6.5 13l112 124q7 8 15 11.5t22 3.5h95q11 0 17 -4t11 -9l111 -126
q17 -18 -2 -18h-105q-9 0 -15.5 1t-11.5 8z" />
    <glyph glyph-name="Ycircumflex" unicode="&#x176;" horiz-adv-x="774" 
d="M733 742q13 0 16.5 -6.5t-2.5 -16.5l-234 -378q-7 -10 -8.5 -22t-1.5 -44v-246q0 -29 -33 -29h-168q-15 0 -20.5 6t-5.5 19v263q0 16 -3.5 24.5t-10.5 19.5l-234 382q-7 12 -2.5 20t20.5 8h201q15 0 21 -4.5t13 -16.5l123 -222q5 -9 8.5 -9.5t8.5 8.5l121 223q6 13 13 17
t21 4h157v0zM418 870q-10 14 -15.5 14t-18.5 -14l-46 -54q-7 -7 -11.5 -8t-14.5 -1h-99q-9 0 -9.5 5t6.5 13l112 124q7 8 15 11.5t22 3.5h95q11 0 17 -4t11 -9l111 -126q17 -18 -2 -18h-105q-9 0 -15.5 1t-11.5 8z" />
    <glyph glyph-name="ycircumflex" unicode="&#x177;" horiz-adv-x="589" 
d="M102 -165q-31 0 -43.5 4t-12.5 18v102q0 6 6 12.5t22 6.5h71q17 0 31 5t22.5 12.5t12 17t-0.5 18.5l-194 470q-4 11 1.5 20t17.5 9h169q9 0 16 -6t10 -14l85 -240q3 -9 8 -9.5t9 9.5l86 240q4 8 10.5 14t15.5 6h112q12 0 17 -9t0 -20l-195 -470q-26 -63 -51.5 -101.5
t-56.5 -59t-71.5 -28t-96.5 -7.5v0zM341 658q-10 14 -15.5 14t-18.5 -14l-46 -54q-7 -7 -11.5 -8t-14.5 -1h-99q-9 0 -9.5 5t6.5 13l112 124q7 8 15 11.5t22 3.5h95q11 0 17 -4t11 -9l111 -126q17 -18 -2 -18h-105q-9 0 -15.5 1t-11.5 8z" />
    <glyph glyph-name="Ydieresis" unicode="&#x178;" horiz-adv-x="774" 
d="M733 742q13 0 16.5 -6.5t-2.5 -16.5l-234 -378q-7 -10 -8.5 -22t-1.5 -44v-246q0 -29 -33 -29h-168q-15 0 -20.5 6t-5.5 19v263q0 16 -3.5 24.5t-10.5 19.5l-234 382q-7 12 -2.5 20t20.5 8h201q15 0 21 -4.5t13 -16.5l123 -222q5 -9 8.5 -9.5t8.5 8.5l121 223q6 13 13 17
t21 4h157v0zM368 835q0 -13 -7 -18.5t-22 -5.5h-120q-13 0 -17.5 5.5t-4.5 16.5v101q0 20 16 20h139q16 0 16 -18v-101zM608 835q0 -13 -7 -18.5t-22 -5.5h-120q-13 0 -17.5 5.5t-4.5 16.5v101q0 20 16 20h139q16 0 16 -18v-101z" />
    <glyph glyph-name="Zacute" unicode="&#x179;" horiz-adv-x="714" 
d="M52 0q-15 0 -20.5 5t-5.5 20v45q0 16 3.5 23.5t17.5 27.5l308 440q10 16 -9 16h-265q-13 0 -17.5 5.5t-4.5 18.5v120q0 21 18 21h587q19 0 19 -20v-51q0 -11 -3.5 -19t-13.5 -22l-320 -450q-5 -8 0 -11t12 -3h297q22 0 22 -19v-125q0 -9 -5.5 -15.5t-18.5 -6.5h-601v0z
M519 870q8 -25 -19 -32l-233 -56q-13 -3 -19 0t-10 13l-15 43q-6 18 8 24l240 98q14 6 21 -12z" />
    <glyph glyph-name="zacute" unicode="&#x17a;" horiz-adv-x="544" 
d="M45 0q-15 0 -20.5 5t-5.5 20v45q0 16 3.5 24t17.5 27l213 271q12 16 -10 16h-180q-13 0 -17.5 5t-4.5 18v79q0 20 18 20h441q19 0 19 -19v-52q0 -11 -4 -19.5t-13 -21.5l-218 -275q-14 -19 8 -19h205q23 0 23 -19v-83q0 -9 -6 -15.5t-19 -6.5h-450v0zM426 658
q8 -25 -19 -32l-233 -56q-13 -3 -19 0t-10 13l-15 43q-6 18 8 24l240 98q14 6 21 -12z" />
    <glyph glyph-name="Zdotaccent" unicode="&#x17b;" horiz-adv-x="714" 
d="M52 0q-15 0 -20.5 5t-5.5 20v45q0 16 3.5 23.5t17.5 27.5l308 440q10 16 -9 16h-265q-13 0 -17.5 5.5t-4.5 18.5v120q0 21 18 21h587q19 0 19 -20v-51q0 -11 -3.5 -19t-13.5 -22l-320 -450q-5 -8 0 -11t12 -3h297q22 0 22 -19v-125q0 -9 -5.5 -15.5t-18.5 -6.5h-601v0z
M471 815q0 -15 -8 -22t-25 -7h-141q-15 0 -20.5 6.5t-5.5 19.5v119q0 23 19 23h163q18 0 18 -21v-118z" />
    <glyph glyph-name="zdotaccent" unicode="&#x17c;" horiz-adv-x="544" 
d="M45 0q-15 0 -20.5 5t-5.5 20v45q0 16 3.5 24t17.5 27l213 271q12 16 -10 16h-180q-13 0 -17.5 5t-4.5 18v79q0 20 18 20h441q19 0 19 -19v-52q0 -11 -4 -19.5t-13 -21.5l-218 -275q-14 -19 8 -19h205q23 0 23 -19v-83q0 -9 -6 -15.5t-19 -6.5h-450v0zM378 603
q0 -15 -8 -22t-25 -7h-141q-15 0 -20.5 6.5t-5.5 19.5v119q0 23 19 23h163q18 0 18 -21v-118z" />
    <glyph glyph-name="Zcaron" unicode="&#x17d;" horiz-adv-x="714" 
d="M52 0q-15 0 -20.5 5t-5.5 20v45q0 16 3.5 23.5t17.5 27.5l308 440q10 16 -9 16h-265q-13 0 -17.5 5.5t-4.5 18.5v120q0 21 18 21h587q19 0 19 -20v-51q0 -11 -3.5 -19t-13.5 -22l-320 -450q-5 -8 0 -11t12 -3h297q22 0 22 -19v-125q0 -9 -5.5 -15.5t-18.5 -6.5h-601v0z
M427 946q5 7 11.5 8t15.5 1h105q19 0 2 -18l-111 -127q-5 -5 -11 -9t-17 -4h-95q-14 0 -22 4t-15 11l-112 125q-7 8 -6.5 13t9.5 5h99q10 0 15 -0.5t11 -8.5l46 -55q12 -15 18 -14t16 14l41 55v0z" />
    <glyph glyph-name="zcaron" unicode="&#x17e;" horiz-adv-x="544" 
d="M45 0q-15 0 -20.5 5t-5.5 20v45q0 16 3.5 24t17.5 27l213 271q12 16 -10 16h-180q-13 0 -17.5 5t-4.5 18v79q0 20 18 20h441q19 0 19 -19v-52q0 -11 -4 -19.5t-13 -21.5l-218 -275q-14 -19 8 -19h205q23 0 23 -19v-83q0 -9 -6 -15.5t-19 -6.5h-450v0zM334 734q5 7 11.5 8
t15.5 1h105q19 0 2 -18l-111 -127q-5 -5 -11 -9t-17 -4h-95q-14 0 -22 4t-15 11l-112 125q-7 8 -6.5 13t9.5 5h99q10 0 15 -0.5t11 -8.5l46 -55q12 -15 18 -14t16 14l41 55v0z" />
    <glyph glyph-name="uni018F" unicode="&#x18f;" horiz-adv-x="778" 
d="M507 447q0 18 -3 36.5t-10 35.5t-20.5 30t-34 21t-49.5 8q-19 0 -35 -4t-30 -12.5t-27.5 -21.5t-26.5 -30.5t-27 -40.5q-3 -5 -8.5 -6.5t-18.5 5.5l-138 68q-16 8 -5 31q19 37 42.5 66.5t52.5 51.5t63 37t73 22.5t83 7.5q67 0 122.5 -17.5t99.5 -50.5t74.5 -78.5
t46.5 -102.5t16 -123q0 -83 -29 -154t-79.5 -124t-116 -82.5t-137.5 -29.5q-87 0 -153.5 26.5t-111 78.5t-67 126.5t-22.5 170.5q0 17 3.5 25t19.5 8h433q20 0 20 22v0zM296 285q-13 0 -17.5 -3.5t-4.5 -14.5q0 -25 7.5 -47t21.5 -38.5t34.5 -26t45.5 -9.5q30 0 51.5 8.5
t35.5 26t22.5 43.5t12.5 60z" />
    <glyph glyph-name="florin" unicode="&#x192;" horiz-adv-x="558" 
d="M496 530q13 0 18 -6.5t3 -15.5l-17 -94q-3 -19 -25 -19h-62q-12 0 -14 -12l-73 -414q-11 -65 -60.5 -103t-122.5 -38h-118q-29 0 -24 26l13 84q2 8 7.5 14t14.5 6h43q26 0 37.5 12t18.5 50l64 365q1 10 -6 10h-56q-22 0 -19 19l17 94q2 9 8.5 15.5t19.5 6.5h48
q14 0 17 18l9 53q12 65 61 103t122 38h113q28 0 25 -26l-14 -84q-1 -8 -7 -14t-15 -6h-43q-17 0 -33.5 -15t-20.5 -36l-3 -18q-3 -13 11 -13h63v0z" />
    <glyph glyph-name="Ohorn" unicode="&#x1a0;" horiz-adv-x="780" 
d="M391 -10q-110 0 -191 46.5t-125 132t-44 200.5q0 116 45 202t126 133.5t189 47.5t188.5 -47.5t125 -133.5t44.5 -202q0 -115 -44 -200t-124.5 -132t-189.5 -47v0zM391 146q65 0 92.5 50t27.5 170q0 124 -28 178t-92 54q-65 0 -93.5 -54t-28.5 -178q0 -120 27.5 -170
t94.5 -50v0zM673 801q11 0 14 -10t-2 -21q-21 -41 -54 -67.5t-73 -38.5t-82 -12l3 89q26 0 53.5 10.5t43.5 36.5q5 8 12 10.5t13 2.5h72v0z" />
    <glyph glyph-name="ohorn" unicode="&#x1a1;" 
d="M299 -10q-82 0 -144.5 35t-98 96.5t-35.5 140.5q0 84 37 146.5t100 97t142 34.5q84 0 146.5 -36t97.5 -98.5t35 -143.5q0 -79 -35.5 -140.5t-98.5 -96.5t-146 -35v0zM300 118q27 0 44 15.5t25 48.5t8 84q0 53 -8 86t-25 48.5t-44 15.5q-26 0 -43.5 -15.5t-25.5 -48.5
t-8 -86q0 -52 8 -84.5t25.5 -48t43.5 -15.5v0zM550 589q11 0 14 -10t-2 -21q-21 -41 -54 -67.5t-73 -38.5t-82 -12l3 89q26 0 53.5 10.5t43.5 36.5q5 8 12 10.5t13 2.5h72v0z" />
    <glyph glyph-name="Uhorn" unicode="&#x1af;" horiz-adv-x="728" 
d="M684 293q0 -115 -40 -181.5t-112 -94t-168 -27.5q-120 0 -190 37t-100 109.5t-30 176.5v406q0 23 19 23h190q18 0 18 -21v-432q0 -76 29.5 -108t80.5 -32q31 0 57.5 12.5t42.5 44t16 86.5v427q0 23 19 23h150q18 0 18 -21v-428v0zM799 801q11 0 14 -10t-2 -21
q-21 -41 -54 -67.5t-73 -38.5t-82 -12l3 89q26 0 53.5 10.5t43.5 36.5q5 8 12 10.5t13 2.5h72v0z" />
    <glyph glyph-name="uhorn" unicode="&#x1b0;" horiz-adv-x="601" 
d="M285 130q23 0 42.5 12t32.5 29v330q0 29 33 29h143q26 0 26 -26l-4 -482q0 -22 -19 -22h-158q-18 0 -18 20v44q0 6 -3.5 7.5t-8.5 -3.5q-34 -40 -75 -59t-91 -19q-43 0 -76.5 19.5t-53 57t-19.5 90.5v343q0 30 31 30h146q23 0 23 -26v-325q0 -23 13.5 -36t35.5 -13v0z
M672 589q11 0 14 -10t-2 -21q-21 -41 -54 -67.5t-73 -38.5t-82 -12l3 89q26 0 53.5 10.5t43.5 36.5q5 8 12 10.5t13 2.5h72v0z" />
    <glyph glyph-name="DZcaron" unicode="&#x1c4;" horiz-adv-x="1465" 
d="M79 742h61h75h73.5t56.5 -1q134 -4 221.5 -52t130.5 -129.5t43 -187.5q0 -107 -44 -191.5t-132 -132.5t-220 -48h-263q-29 0 -29 30v687q0 14 6 19.5t21 5.5v0zM289 585q-10 0 -10 -14v-399q0 -15 14 -15h7q63 0 108 21t69.5 69t24.5 127q0 70 -20 116.5t-62 70.5
t-107 24h-24v0zM803 0q-15 0 -20.5 5t-5.5 20v45q0 16 3.5 23.5t17.5 27.5l308 440q10 16 -9 16h-265q-13 0 -17.5 5.5t-4.5 18.5v120q0 21 18 21h587q19 0 19 -20v-51q0 -11 -3.5 -19t-13.5 -22l-320 -450q-5 -8 0 -11t12 -3h297q22 0 22 -19v-125q0 -9 -5.5 -15.5
t-18.5 -6.5h-601v0zM1178 946q5 7 11.5 8t15.5 1h105q19 0 2 -18l-111 -127q-5 -5 -11 -9t-17 -4h-95q-14 0 -22 4t-15 11l-112 125q-7 8 -6.5 13t9.5 5h99q10 0 15 -0.5t11 -8.5l46 -55q12 -15 18 -14t16 14l41 55v0z" />
    <glyph glyph-name="Dzcaron" unicode="&#x1c5;" horiz-adv-x="1315" 
d="M79 742h61h75h73.5t56.5 -1q134 -4 221.5 -52t130.5 -129.5t43 -187.5q0 -107 -44 -191.5t-132 -132.5t-220 -48h-263q-29 0 -29 30v687q0 14 6 19.5t21 5.5v0zM289 585q-10 0 -10 -14v-399q0 -15 14 -15h7q63 0 108 21t69.5 69t24.5 127q0 70 -20 116.5t-62 70.5
t-107 24h-24v0zM816 0q-15 0 -20.5 5t-5.5 20v45q0 16 3.5 24t17.5 27l213 271q12 16 -10 16h-180q-13 0 -17.5 5t-4.5 18v79q0 20 18 20h441q19 0 19 -19v-52q0 -11 -4 -19.5t-13 -21.5l-218 -275q-14 -19 8 -19h205q23 0 23 -19v-83q0 -9 -6 -15.5t-19 -6.5h-450v0z
M1105 734q5 7 11.5 8t15.5 1h105q19 0 2 -18l-111 -127q-5 -5 -11 -9t-17 -4h-95q-14 0 -22 4t-15 11l-112 125q-7 8 -6.5 13t9.5 5h99q10 0 15 -0.5t11 -8.5l46 -55q12 -15 18 -14t16 14l41 55v0z" />
    <glyph glyph-name="dzcaron" unicode="&#x1c6;" horiz-adv-x="1160" 
d="M403 0q-10 0 -17.5 5t-7.5 18v19q0 7 -5 8t-10 -4q-19 -18 -39.5 -30.5t-45 -19t-55.5 -6.5q-59 0 -104 30.5t-70.5 91.5t-25.5 151q0 84 29.5 146t77.5 96.5t103 34.5q34 0 63.5 -11t60.5 -41q8 -6 13.5 -5t5.5 13v225q0 21 18 21h162q19 0 19 -23v-694q0 -13 -5.5 -19
t-21.5 -6h-145v0zM375 378q-16 19 -31.5 28.5t-38.5 9.5t-41.5 -14t-28.5 -47t-10 -91q0 -57 9.5 -91t27.5 -48.5t43 -14.5q20 0 35.5 8.5t25 23.5t9.5 34v202v0zM661 0q-15 0 -20.5 5t-5.5 20v45q0 16 3.5 24t17.5 27l213 271q12 16 -10 16h-180q-13 0 -17.5 5t-4.5 18v79
q0 20 18 20h441q19 0 19 -19v-52q0 -11 -4 -19.5t-13 -21.5l-218 -275q-14 -19 8 -19h205q23 0 23 -19v-83q0 -9 -6 -15.5t-19 -6.5h-450v0zM950 734q5 7 11.5 8t15.5 1h105q19 0 2 -18l-111 -127q-5 -5 -11 -9t-17 -4h-95q-14 0 -22 4t-15 11l-112 125q-7 8 -6.5 13t9.5 5
h99q10 0 15 -0.5t11 -8.5l46 -55q12 -15 18 -14t16 14l41 55v0z" />
    <glyph glyph-name="LJ" unicode="&#x1c7;" horiz-adv-x="1110" 
d="M52 719q0 23 19 23h190q18 0 18 -21v-543q0 -14 12 -14h301q23 0 23 -19v-123q0 -9 -6 -15.5t-19 -6.5h-511q-16 0 -21.5 6t-5.5 19v694v0zM1063 212q0 -123 -60.5 -172.5t-177.5 -49.5q-31 0 -60.5 3t-63.5 9q-17 3 -24.5 12.5t-6.5 30.5l9 114q2 26 24 23
q12 -1 25.5 -4t29.5 -3q37 0 57.5 21t20.5 72v451q0 23 20 23h189q18 0 18 -21v-509v0z" />
    <glyph glyph-name="Lj" unicode="&#x1c8;" horiz-adv-x="926" 
d="M52 719q0 23 19 23h190q18 0 18 -21v-543q0 -14 12 -14h301q23 0 23 -19v-123q0 -9 -6 -15.5t-19 -6.5h-511q-16 0 -21.5 6t-5.5 19v694v0zM885 29q0 -99 -51.5 -149t-158.5 -50q-42 0 -55 4.5t-13 20.5l-1 102q0 8 5 16.5t15 10.5l35 6q10 3 17 12t7 34v471q0 23 20 23
h162q18 0 18 -20v-481v0zM885 603q0 -29 -32 -29h-141q-27 0 -27 26v119q0 23 20 23h162q18 0 18 -21v-118z" />
    <glyph glyph-name="lj" unicode="&#x1c9;" horiz-adv-x="567" 
d="M242 29q0 -16 -8 -22.5t-25 -6.5h-142q-27 0 -27 25l5 694q0 23 19 23h160q18 0 18 -21v-692zM526 29q0 -99 -51.5 -149t-158.5 -50q-42 0 -55 4.5t-13 20.5l-1 102q0 8 5 16.5t15 10.5l35 6q10 3 17 12t7 34v471q0 23 20 23h162q18 0 18 -20v-481v0zM526 603
q0 -29 -32 -29h-141q-27 0 -27 26v119q0 23 20 23h162q18 0 18 -21v-118z" />
    <glyph glyph-name="NJ" unicode="&#x1ca;" horiz-adv-x="1228" 
d="M694 742q15 0 15 -17v-707q0 -8 -6.5 -13t-16.5 -5h-137q-8 0 -13.5 2.5t-13.5 12.5l-275 373q-4 5 -7 4t-3 -6v-364q1 -22 -24 -22h-136q-25 0 -25 20v699q0 23 22 23h163q13 0 19.5 -3.5t14.5 -14.5l240 -334q7 -9 11.5 -8.5t4.5 12.5v327q0 21 22 21h145zM1181 212
q0 -123 -60.5 -172.5t-177.5 -49.5q-31 0 -60.5 3t-63.5 9q-17 3 -24.5 12.5t-6.5 30.5l9 114q2 26 24 23q12 -1 25.5 -4t29.5 -3q37 0 57.5 21t20.5 72v451q0 23 20 23h189q18 0 18 -21v-509v0z" />
    <glyph glyph-name="Nj" unicode="&#x1cb;" horiz-adv-x="1044" 
d="M694 742q15 0 15 -17v-707q0 -8 -6.5 -13t-16.5 -5h-137q-8 0 -13.5 2.5t-13.5 12.5l-275 373q-4 5 -7 4t-3 -6v-364q1 -22 -24 -22h-136q-25 0 -25 20v699q0 23 22 23h163q13 0 19.5 -3.5t14.5 -14.5l240 -334q7 -9 11.5 -8.5t4.5 12.5v327q0 21 22 21h145zM1003 29
q0 -99 -51.5 -149t-158.5 -50q-42 0 -55 4.5t-13 20.5l-1 102q0 8 5 16.5t15 10.5l35 6q10 3 17 12t7 34v471q0 23 20 23h162q18 0 18 -20v-481v0zM1003 603q0 -29 -32 -29h-141q-27 0 -27 26v119q0 23 20 23h162q18 0 18 -21v-118z" />
    <glyph glyph-name="nj" unicode="&#x1cc;" horiz-adv-x="887" 
d="M67 0q-26 0 -26 25v482q0 23 19 23h161q18 0 18 -20v-45q0 -6 3.5 -8t9.5 4q21 23 46 41t53.5 28t59.5 10q70 0 113.5 -44t43.5 -118v-348q0 -30 -30 -30h-147q-13 0 -18 5.5t-5 19.5v326q0 23 -14.5 35.5t-38.5 12.5q-15 0 -28.5 -5.5t-24.5 -16.5t-21 -28v-320
q0 -29 -33 -29h-141v0zM846 29q0 -99 -51.5 -149t-158.5 -50q-42 0 -55 4.5t-13 20.5l-1 102q0 8 5 16.5t15 10.5l35 6q10 3 17 12t7 34v471q0 23 20 23h162q18 0 18 -20v-481v0zM846 603q0 -29 -32 -29h-141q-27 0 -27 26v119q0 23 20 23h162q18 0 18 -21v-118z" />
    <glyph glyph-name="uni01EA" unicode="&#x1ea;" horiz-adv-x="780" 
d="M391 -10q-110 0 -191 46.5t-125 132t-44 200.5q0 116 45 202t126 133.5t189 47.5t188.5 -47.5t125 -133.5t44.5 -202q0 -115 -44 -200t-124.5 -132t-189.5 -47v0zM391 146q65 0 92.5 50t27.5 170q0 124 -28 178t-92 54q-65 0 -93.5 -54t-28.5 -178q0 -120 27.5 -170
t94.5 -50v0zM275 -87q0 26 18 49t76 44h136q-56 -18 -74 -33t-18 -32q0 -15 7 -22t21 -7q17 0 30 4.5t26 11.5q18 9 18 -11v-52q0 -12 -10 -18q-13 -7 -43 -14t-66 -7q-54 0 -87.5 21t-33.5 66v0z" />
    <glyph glyph-name="uni01EB" unicode="&#x1eb;" 
d="M299 -10q-82 0 -144.5 35t-98 96.5t-35.5 140.5q0 84 37 146.5t100 97t142 34.5q84 0 146.5 -36t97.5 -98.5t35 -143.5q0 -79 -35.5 -140.5t-98.5 -96.5t-146 -35v0zM300 118q27 0 44 15.5t25 48.5t8 84q0 53 -8 86t-25 48.5t-44 15.5q-26 0 -43.5 -15.5t-25.5 -48.5
t-8 -86q0 -52 8 -84.5t25.5 -48t43.5 -15.5v0zM170 -87q0 26 18 49t76 44h136q-56 -18 -74 -33t-18 -32q0 -15 7 -22t21 -7q17 0 30 4.5t26 11.5q18 9 18 -11v-52q0 -12 -10 -18q-13 -7 -43 -14t-66 -7q-54 0 -87.5 21t-33.5 66v0z" />
    <glyph glyph-name="DZ" unicode="&#x1f1;" horiz-adv-x="1452" 
d="M79 742h61h75h73.5t56.5 -1q134 -4 221.5 -52t130.5 -129.5t43 -187.5q0 -107 -44 -191.5t-132 -132.5t-220 -48h-263q-29 0 -29 30v687q0 14 6 19.5t21 5.5v0zM289 585q-10 0 -10 -14v-399q0 -15 14 -15h7q63 0 108 21t69.5 69t24.5 127q0 70 -20 116.5t-62 70.5
t-107 24h-24v0zM790 0q-15 0 -20.5 5t-5.5 20v45q0 16 3.5 23.5t17.5 27.5l308 440q10 16 -9 16h-265q-13 0 -17.5 5.5t-4.5 18.5v120q0 21 18 21h587q19 0 19 -20v-51q0 -11 -3.5 -19t-13.5 -22l-320 -450q-5 -8 0 -11t12 -3h297q22 0 22 -19v-125q0 -9 -5.5 -15.5
t-18.5 -6.5h-601v0z" />
    <glyph glyph-name="Dz" unicode="&#x1f2;" horiz-adv-x="1292" 
d="M79 742h61h75h73.5t56.5 -1q134 -4 221.5 -52t130.5 -129.5t43 -187.5q0 -107 -44 -191.5t-132 -132.5t-220 -48h-263q-29 0 -29 30v687q0 14 6 19.5t21 5.5v0zM289 585q-10 0 -10 -14v-399q0 -15 14 -15h7q63 0 108 21t69.5 69t24.5 127q0 70 -20 116.5t-62 70.5
t-107 24h-24v0zM793 0q-15 0 -20.5 5t-5.5 20v45q0 16 3.5 24t17.5 27l213 271q12 16 -10 16h-180q-13 0 -17.5 5t-4.5 18v79q0 20 18 20h441q19 0 19 -19v-52q0 -11 -4 -19.5t-13 -21.5l-218 -275q-14 -19 8 -19h205q23 0 23 -19v-83q0 -9 -6 -15.5t-19 -6.5h-450v0z" />
    <glyph glyph-name="dz" unicode="&#x1f3;" horiz-adv-x="1160" 
d="M403 0q-10 0 -17.5 5t-7.5 18v19q0 7 -5 8t-10 -4q-19 -18 -39.5 -30.5t-45 -19t-55.5 -6.5q-59 0 -104 30.5t-70.5 91.5t-25.5 151q0 84 29.5 146t77.5 96.5t103 34.5q34 0 63.5 -11t60.5 -41q8 -6 13.5 -5t5.5 13v225q0 21 18 21h162q19 0 19 -23v-694q0 -13 -5.5 -19
t-21.5 -6h-145v0zM375 378q-16 19 -31.5 28.5t-38.5 9.5t-41.5 -14t-28.5 -47t-10 -91q0 -57 9.5 -91t27.5 -48.5t43 -14.5q20 0 35.5 8.5t25 23.5t9.5 34v202v0zM661 0q-15 0 -20.5 5t-5.5 20v45q0 16 3.5 24t17.5 27l213 271q12 16 -10 16h-180q-13 0 -17.5 5t-4.5 18v79
q0 20 18 20h441q19 0 19 -19v-52q0 -11 -4 -19.5t-13 -21.5l-218 -275q-14 -19 8 -19h205q23 0 23 -19v-83q0 -9 -6 -15.5t-19 -6.5h-450v0z" />
    <glyph glyph-name="Gacute" unicode="&#x1f4;" horiz-adv-x="761" 
d="M380 -10q-105 0 -184 48t-122.5 133.5t-43.5 196.5q0 116 46 202t128 134t189 48q90 0 157 -32.5t107.5 -82.5t52.5 -104q5 -21 1.5 -27t-15.5 -8l-171 -26q-12 0 -15 5t-5 15q-5 28 -19 51.5t-38 38.5t-60 15q-37 0 -64 -20.5t-41.5 -69t-14.5 -133.5q0 -90 16 -139.5
t45 -69t67 -19.5q21 0 38 4.5t30.5 13.5t23 22t16.5 30l3 9q6 17 -9 17h-94q-10 0 -15 4.5t-5 17.5v96q0 17 21 17l280 -2q19 0 28.5 -8.5t9.5 -22.5v-327q0 -7 -4.5 -12t-12.5 -5h-38q-9 0 -16.5 4.5t-15.5 14.5l-40 58q-2 3 -4.5 3t-6.5 -5q-18 -17 -43 -37t-64 -34
t-98 -14v0zM530 870q8 -25 -19 -32l-233 -56q-13 -3 -19 0t-10 13l-15 43q-6 18 8 24l240 98q14 6 21 -12z" />
    <glyph glyph-name="gacute" unicode="&#x1f5;" horiz-adv-x="653" 
d="M615 562q8 0 14 -5.5t6 -19.5v-90q0 -17 -7.5 -23.5t-18.5 -2.5q-10 3 -22.5 5t-21.5 2q-27 0 -20 -23q2 -7 3.5 -15t1.5 -16q0 -45 -29 -82.5t-86.5 -60t-141.5 -22.5q-33 0 -53.5 -3.5t-30 -9.5t-9.5 -14q0 -11 11 -15t33 -6l152 -9q111 -7 162.5 -47t51.5 -102
q0 -76 -76 -127t-227 -51q-157 0 -234 29.5t-77 92.5q0 34 28.5 52t68.5 29q14 4 0 11q-26 13 -46 32.5t-20 50.5q0 24 16 42.5t41 34t52 26.5q5 2 8 5t-5 7q-49 21 -76.5 55.5t-27.5 80.5q0 72 68 118.5t202 46.5q57 0 99.5 -12.5t67.5 -32.5q8 -6 17 -5t14 8
q14 19 34.5 34t42 23.5t35.5 8.5v0zM291 300q42 0 60 22t18 48q0 31 -18 53t-60 22q-37 0 -57.5 -22t-20.5 -53q0 -27 20.5 -48.5t57.5 -21.5v0zM226 8q-21 1 -36.5 -3.5t-24 -12.5t-8.5 -19q0 -18 14 -31.5t48.5 -20.5t97.5 -7q59 0 89.5 14.5t30.5 36.5q0 14 -17 25
t-49 12zM454 658q8 -25 -19 -32l-233 -56q-13 -3 -19 0t-10 13l-15 43q-6 18 8 24l240 98q14 6 21 -12z" />
    <glyph glyph-name="Aringacute" unicode="&#x1fa;" horiz-adv-x="710" 
d="M471 796q0 -46 -32 -74.5t-78 -28.5t-78 29t-32 76q0 44 32.5 72.5t77.5 28.5q46 0 78 -29t32 -74v0zM408 795q0 20 -14 33.5t-34 13.5q-19 0 -34 -13.5t-15 -33.5q0 -19 15 -34t34 -15q20 0 34 15t14 34v0zM457 742q27 0 35 -27l232 -681q4 -10 0.5 -22t-14.5 -12h-196
q-17 0 -22 17l-36 115q-2 5 -4.5 8.5t-10.5 3.5h-201q-12 0 -15 -11l-38 -118q-2 -6 -7.5 -10.5t-16.5 -4.5h-152q-11 0 -16 10.5t1 26.5l234 682q4 12 10 17.5t19 5.5h198zM345 505q-2 5 -5.5 5t-5.5 -5l-56 -170q-8 -21 10 -21h103q15 0 9 20zM415 964q12 0 15.5 -9
t-1.5 -20l-25 -60h-86l14 58q5 19 14.5 25t23.5 6h45z" />
    <glyph glyph-name="aringacute" unicode="&#x1fb;" horiz-adv-x="573" 
d="M313 42q-27 -22 -62.5 -37t-82.5 -15q-75 0 -117.5 42t-42.5 104q0 59 37.5 103t106.5 68.5t163 24.5h7q4 0 9.5 2.5t5.5 11.5v17q0 28 -14.5 43t-44.5 15q-21 0 -43 -9.5t-35 -37.5q-4 -8 -8.5 -10.5t-18.5 -0.5l-131 26q-7 2 -10.5 7.5t3.5 24.5q23 64 88.5 91.5
t163.5 27.5q93 0 145 -21t73.5 -58t21.5 -86v-348q0 -15 -4.5 -21t-18.5 -6h-137q-13 0 -18.5 10.5t-7.5 24.5l-1 7q-3 20 -27 0v0zM337 224q0 18 -15 18h-4q-12 0 -31.5 -4.5t-38.5 -14t-32.5 -24.5t-13.5 -36t15 -34t42 -13q20 0 33.5 6t21.5 13q9 8 16 16.5t7 19.5v53v0z
M448 864q8 -25 -19 -32l-233 -56q-13 -3 -19 0t-10 13l-15 43q-6 18 8 24l240 98q14 6 21 -12zM423 670q0 -49 -34 -83t-83 -34t-83 34.5t-34 84.5q0 32 16 57.5t42.5 40.5t58.5 15q33 0 59.5 -15.5t42 -41.5t15.5 -58v0zM353 669q0 20 -14 33.5t-34 13.5q-19 0 -34 -13.5
t-15 -33.5q0 -19 15 -34t34 -15q20 0 34 15t14 34v0z" />
    <glyph glyph-name="AEacute" unicode="&#x1fc;" horiz-adv-x="1127" 
d="M1072 164q22 0 22 -19v-123q0 -9 -5.5 -15.5t-18.5 -6.5h-535q-27 0 -27 25v105q0 14 -13 14h-201q-12 0 -17 -11l-59 -118q-3 -6 -9 -10.5t-17 -4.5h-152q-11 0 -14.5 10.5t5.5 26.5l354 682q6 12 13 17.5t20 5.5h649q18 0 18 -21l-1 -116q0 -27 -26 -27h-300
q-23 0 -23 -19v-85q0 -21 18 -21h180q21 0 21 -20v-124q0 -7 -4 -12t-14 -5h-185q-16 0 -16 -14v-100q0 -14 12 -14h325v0zM489 314q19 0 19 20v201q0 23 -14 24t-26 -22l-102 -202q-13 -21 6 -21h117v0zM869 870q8 -25 -19 -32l-233 -56q-13 -3 -19 0t-10 13l-15 43
q-6 18 8 24l240 98q14 6 21 -12z" />
    <glyph glyph-name="aeacute" unicode="&#x1fd;" horiz-adv-x="905" 
d="M557 229q-7 0 -11 -4t-4 -13q0 -23 8 -40t22 -28t32.5 -16.5t40.5 -5.5q17 0 33.5 5t35 17.5t40.5 33.5q4 4 7.5 4.5t13.5 -3.5l91 -37q18 -7 4 -24q-36 -50 -72.5 -78t-80 -39t-99.5 -11q-42 0 -80 9.5t-70.5 28t-57.5 43.5q-5 6 -11 0q-30 -29 -63 -47t-71 -26t-84 -8
q-85 0 -129 42.5t-44 110.5q0 80 72 130.5t216 57.5l23 1q6 0 12 2.5t6 11.5v17q0 28 -14.5 43t-44.5 15q-21 0 -43 -9.5t-35 -37.5q-4 -10 -8.5 -11.5t-18.5 0.5l-131 26q-7 2 -9 13t2 19q19 39 47.5 65.5t76.5 40t124 13.5q67 -1 112.5 -11t73.5 -29q32 20 69 30t76 10
q79 0 140 -34t96.5 -97.5t35.5 -154.5q0 -13 -2.5 -18.5t-15.5 -6.5h-311v0zM623 423q-20 0 -38 -9.5t-29 -29.5t-11 -51l130 -1q10 0 13.5 2.5t3.5 11.5q0 13 -7 31t-22 32t-40 14v0zM337 216q0 9 -4.5 13.5t-13.5 4.5l-14 -1q-19 -1 -43 -10t-42 -25.5t-18 -41.5
q0 -22 15.5 -35t44.5 -13q19 0 36 6t28 18t11 28v56v0zM594 658q8 -25 -19 -32l-233 -56q-13 -3 -19 0t-10 13l-15 43q-6 18 8 24l240 98q14 6 21 -12z" />
    <glyph glyph-name="Oslashacute" unicode="&#x1fe;" horiz-adv-x="786" 
d="M776 686q14 -14 -1 -27l-76 -74q26 -44 39.5 -98.5t13.5 -117.5q0 -115 -44 -200t-124.5 -132t-189.5 -47q-69 0 -127 19t-103 54l-57 -56q-11 -11 -21 -11.5t-22 11.5l-39 40q-20 21 -4 37l67 66q-26 44 -40 99.5t-14 119.5q0 116 45 202t126 133.5t189 47.5
q70 0 128.5 -20t103.5 -58l65 63q18 18 31 5l54 -56v0zM272 366v-18t1 -19l215 210q-27 59 -94 59q-65 0 -93.5 -54t-28.5 -178v0zM514 366v19t-1 19l-213 -209q27 -49 94 -49q65 0 92.5 50t27.5 170v0zM541 870q8 -25 -19 -32l-233 -56q-13 -3 -19 0t-10 13l-15 43
q-6 18 8 24l240 98q14 6 21 -12z" />
    <glyph glyph-name="oslashacute" unicode="&#x1ff;" horiz-adv-x="604" 
d="M94 12q-12 -11 -22 -11.5t-21 11.5l-19 20q-20 22 -4 37l485 451q19 17 31 5l34 -36q14 -14 -1 -27zM299 -10q-82 0 -144.5 35t-98 96.5t-35.5 140.5q0 84 37 146.5t100 97t142 34.5q84 0 146.5 -36t97.5 -98.5t35 -143.5q0 -79 -35.5 -140.5t-98.5 -96.5t-146 -35v0z
M300 118q27 0 44 15.5t25 48.5t8 84q0 53 -8 86t-25 48.5t-44 15.5q-26 0 -43.5 -15.5t-25.5 -48.5t-8 -86q0 -52 8 -84.5t25.5 -48t43.5 -15.5v0zM450 658q8 -25 -19 -32l-233 -56q-13 -3 -19 0t-10 13l-15 43q-6 18 8 24l240 98q14 6 21 -12z" />
    <glyph glyph-name="uni0200" unicode="&#x200;" horiz-adv-x="799" 
d="M43 0q-11 0 -16 10.5t1 26.5l242 682q5 12 11 17.5t19 5.5h197q26 0 36 -27l240 -681q4 -10 0.5 -22t-14.5 -12h-196q-17 0 -22 17l-39 115q-2 5 -4.5 8.5t-10.5 3.5h-212q-12 0 -15 -11l-41 -118q-2 -6 -7.5 -10.5t-16.5 -4.5h-152v0zM437 314q15 0 9 20l-60 171
q-2 5 -6 5t-6 -5l-61 -170q-8 -21 10 -21h114zM205 955q11 14 24 2l140 -119q12 -10 -3 -25l-33 -35q-7 -8 -13.5 -7.5t-18.5 7.5l-143 80q-13 8 -12.5 17.5t8.5 19.5l51 60v0zM424 955q11 14 24 2l140 -119q12 -10 -3 -25l-33 -35q-7 -8 -13.5 -7.5t-18.5 7.5l-143 80
q-13 8 -12.5 17.5t8.5 19.5l51 60v0z" />
    <glyph glyph-name="uni0201" unicode="&#x201;" horiz-adv-x="573" 
d="M313 42q-27 -22 -62.5 -37t-82.5 -15q-75 0 -117.5 42t-42.5 104q0 59 37.5 103t106.5 68.5t163 24.5h7q4 0 9.5 2.5t5.5 11.5v17q0 28 -14.5 43t-44.5 15q-21 0 -43 -9.5t-35 -37.5q-4 -8 -8.5 -10.5t-18.5 -0.5l-131 26q-7 2 -10.5 7.5t3.5 24.5q23 64 88.5 91.5
t163.5 27.5q93 0 145 -21t73.5 -58t21.5 -86v-348q0 -15 -4.5 -21t-18.5 -6h-137q-13 0 -18.5 10.5t-7.5 24.5l-1 7q-3 20 -27 0v0zM337 224q0 18 -15 18h-4q-12 0 -31.5 -4.5t-38.5 -14t-32.5 -24.5t-13.5 -36t15 -34t42 -13q20 0 33.5 6t21.5 13q9 8 16 16.5t7 19.5v53v0z
M97 743q11 14 24 2l140 -119q12 -10 -3 -25l-33 -35q-7 -8 -13.5 -7.5t-18.5 7.5l-143 80q-13 8 -12.5 17.5t8.5 19.5l51 60v0zM316 743q11 14 24 2l140 -119q12 -10 -3 -25l-33 -35q-7 -8 -13.5 -7.5t-18.5 7.5l-143 80q-13 8 -12.5 17.5t8.5 19.5l51 60v0z" />
    <glyph glyph-name="uni0202" unicode="&#x202;" horiz-adv-x="799" 
d="M43 0q-11 0 -16 10.5t1 26.5l242 682q5 12 11 17.5t19 5.5h197q26 0 36 -27l240 -681q4 -10 0.5 -22t-14.5 -12h-196q-17 0 -22 17l-39 115q-2 5 -4.5 8.5t-10.5 3.5h-212q-12 0 -15 -11l-41 -118q-2 -6 -7.5 -10.5t-16.5 -4.5h-152v0zM437 314q15 0 9 20l-60 171
q-2 5 -6 5t-6 -5l-61 -170q-8 -21 10 -21h114zM579 805v0h-78q-6 0 -10.5 2t-9.5 11q-13 21 -37.5 34t-47.5 13q-16 0 -32.5 -6t-30 -16.5t-23.5 -23.5q-6 -8 -10.5 -11t-13.5 -3h-77q-7 0 -9.5 5t-1.5 11q12 48 42.5 77t71.5 42.5t84 13.5q44 0 82.5 -14.5t68 -43.5
t45.5 -73q7 -18 -13 -18z" />
    <glyph glyph-name="uni0203" unicode="&#x203;" horiz-adv-x="573" 
d="M313 42q-27 -22 -62.5 -37t-82.5 -15q-75 0 -117.5 42t-42.5 104q0 59 37.5 103t106.5 68.5t163 24.5h7q4 0 9.5 2.5t5.5 11.5v17q0 28 -14.5 43t-44.5 15q-21 0 -43 -9.5t-35 -37.5q-4 -8 -8.5 -10.5t-18.5 -0.5l-131 26q-7 2 -10.5 7.5t3.5 24.5q23 64 88.5 91.5
t163.5 27.5q93 0 145 -21t73.5 -58t21.5 -86v-348q0 -15 -4.5 -21t-18.5 -6h-137q-13 0 -18.5 10.5t-7.5 24.5l-1 7q-3 20 -27 0v0zM337 224q0 18 -15 18h-4q-12 0 -31.5 -4.5t-38.5 -14t-32.5 -24.5t-13.5 -36t15 -34t42 -13q20 0 33.5 6t21.5 13q9 8 16 16.5t7 19.5v53v0z
M471 593v0h-78q-6 0 -10.5 2t-9.5 11q-13 21 -37.5 34t-47.5 13q-16 0 -32.5 -6t-30 -16.5t-23.5 -23.5q-6 -8 -10.5 -11t-13.5 -3h-77q-7 0 -9.5 5t-1.5 11q12 48 42.5 77t71.5 42.5t84 13.5q44 0 82.5 -14.5t68 -43.5t45.5 -73q7 -18 -13 -18z" />
    <glyph glyph-name="uni0204" unicode="&#x204;" horiz-adv-x="671" 
d="M52 719q0 23 19 23h540q18 0 18 -21l-1 -116q0 -27 -26 -27h-300q-23 0 -23 -19v-85q0 -21 18 -21h180q21 0 21 -20v-124q0 -7 -4 -12t-14 -5h-185q-16 0 -16 -14v-100q0 -14 12 -14h325q22 0 22 -19v-123q0 -9 -5.5 -15.5t-18.5 -6.5h-535q-27 0 -27 25v694v0zM146 955
q11 14 24 2l140 -119q12 -10 -3 -25l-33 -35q-7 -8 -13.5 -7.5t-18.5 7.5l-143 80q-13 8 -12.5 17.5t8.5 19.5l51 60v0zM365 955q11 14 24 2l140 -119q12 -10 -3 -25l-33 -35q-7 -8 -13.5 -7.5t-18.5 7.5l-143 80q-13 8 -12.5 17.5t8.5 19.5l51 60v0z" />
    <glyph glyph-name="uni0205" unicode="&#x205;" horiz-adv-x="590" 
d="M227 212q0 -30 13.5 -50t37 -30t52.5 -10q26 0 51 12t58 44q4 4 7.5 4.5t13.5 -3.5l91 -37q18 -7 4 -24q-36 -50 -72.5 -78t-80 -39t-99.5 -11q-80 0 -144 34t-101 94t-37 138q0 85 38.5 149t102 99.5t137.5 35.5q79 0 140 -34t96.5 -97.5t35.5 -154.5q0 -13 -2.5 -18.5
t-15.5 -6.5h-311q-7 0 -11 -4t-4 -13v0zM360 332q10 0 13.5 2.5t3.5 11.5q0 13 -7 31t-22 32t-40 14q-20 0 -38.5 -9.5t-29 -29.5t-10.5 -51zM111 743q11 14 24 2l140 -119q12 -10 -3 -25l-33 -35q-7 -8 -13.5 -7.5t-18.5 7.5l-143 80q-13 8 -12.5 17.5t8.5 19.5l51 60v0z
M330 743q11 14 24 2l140 -119q12 -10 -3 -25l-33 -35q-7 -8 -13.5 -7.5t-18.5 7.5l-143 80q-13 8 -12.5 17.5t8.5 19.5l51 60v0z" />
    <glyph glyph-name="uni0206" unicode="&#x206;" horiz-adv-x="671" 
d="M52 719q0 23 19 23h540q18 0 18 -21l-1 -116q0 -27 -26 -27h-300q-23 0 -23 -19v-85q0 -21 18 -21h180q21 0 21 -20v-124q0 -7 -4 -12t-14 -5h-185q-16 0 -16 -14v-100q0 -14 12 -14h325q22 0 22 -19v-123q0 -9 -5.5 -15.5t-18.5 -6.5h-535q-27 0 -27 25v694v0zM520 805
v0h-78q-6 0 -10.5 2t-9.5 11q-13 21 -37.5 34t-47.5 13q-16 0 -32.5 -6t-30 -16.5t-23.5 -23.5q-6 -8 -10.5 -11t-13.5 -3h-77q-7 0 -9.5 5t-1.5 11q12 48 42.5 77t71.5 42.5t84 13.5q44 0 82.5 -14.5t68 -43.5t45.5 -73q7 -18 -13 -18z" />
    <glyph glyph-name="uni0207" unicode="&#x207;" horiz-adv-x="590" 
d="M227 212q0 -30 13.5 -50t37 -30t52.5 -10q26 0 51 12t58 44q4 4 7.5 4.5t13.5 -3.5l91 -37q18 -7 4 -24q-36 -50 -72.5 -78t-80 -39t-99.5 -11q-80 0 -144 34t-101 94t-37 138q0 85 38.5 149t102 99.5t137.5 35.5q79 0 140 -34t96.5 -97.5t35.5 -154.5q0 -13 -2.5 -18.5
t-15.5 -6.5h-311q-7 0 -11 -4t-4 -13v0zM360 332q10 0 13.5 2.5t3.5 11.5q0 13 -7 31t-22 32t-40 14q-20 0 -38.5 -9.5t-29 -29.5t-10.5 -51zM485 593v0h-78q-6 0 -10.5 2t-9.5 11q-13 21 -37.5 34t-47.5 13q-16 0 -32.5 -6t-30 -16.5t-23.5 -23.5q-6 -8 -10.5 -11t-13.5 -3
h-77q-7 0 -9.5 5t-1.5 11q12 48 42.5 77t71.5 42.5t84 13.5q44 0 82.5 -14.5t68 -43.5t45.5 -73q7 -18 -13 -18z" />
    <glyph glyph-name="uni0208" unicode="&#x208;" horiz-adv-x="331" 
d="M261 742q18 0 18 -21v-692q0 -16 -8 -22.5t-25 -6.5h-167q-16 0 -21.5 6t-5.5 19v694q0 23 19 23h190zM-24 955q11 14 24 2l140 -119q12 -10 -3 -25l-33 -35q-7 -8 -13.5 -7.5t-18.5 7.5l-143 80q-13 8 -12.5 17.5t8.5 19.5l51 60v0zM195 955q11 14 24 2l140 -119
q12 -10 -3 -25l-33 -35q-7 -8 -13.5 -7.5t-18.5 7.5l-143 80q-13 8 -12.5 17.5t8.5 19.5l51 60v0z" />
    <glyph glyph-name="uni0209" unicode="&#x209;" horiz-adv-x="282" 
d="M241 29q0 -16 -8 -22.5t-25 -6.5h-141q-15 0 -20.5 6t-5.5 19v482q0 23 19 23h163q18 0 18 -20v-481zM-45 743q11 14 24 2l140 -119q12 -10 -3 -25l-33 -35q-7 -8 -13.5 -7.5t-18.5 7.5l-143 80q-13 8 -12.5 17.5t8.5 19.5l51 60v0zM174 743q11 14 24 2l140 -119
q12 -10 -3 -25l-33 -35q-7 -8 -13.5 -7.5t-18.5 7.5l-143 80q-13 8 -12.5 17.5t8.5 19.5l51 60v0z" />
    <glyph glyph-name="uni020A" unicode="&#x20a;" horiz-adv-x="331" 
d="M261 742q18 0 18 -21v-692q0 -16 -8 -22.5t-25 -6.5h-167q-16 0 -21.5 6t-5.5 19v694q0 23 19 23h190zM350 805v0h-78q-6 0 -10.5 2t-9.5 11q-13 21 -37.5 34t-47.5 13q-16 0 -32.5 -6t-30 -16.5t-23.5 -23.5q-6 -8 -10.5 -11t-13.5 -3h-77q-7 0 -9.5 5t-1.5 11
q12 48 42.5 77t71.5 42.5t84 13.5q44 0 82.5 -14.5t68 -43.5t45.5 -73q7 -18 -13 -18z" />
    <glyph glyph-name="uni020B" unicode="&#x20b;" horiz-adv-x="282" 
d="M241 29q0 -16 -8 -22.5t-25 -6.5h-141q-15 0 -20.5 6t-5.5 19v482q0 23 19 23h163q18 0 18 -20v-481zM329 593v0h-78q-6 0 -10.5 2t-9.5 11q-13 21 -37.5 34t-47.5 13q-16 0 -32.5 -6t-30 -16.5t-23.5 -23.5q-6 -8 -10.5 -11t-13.5 -3h-77q-7 0 -9.5 5t-1.5 11
q12 48 42.5 77t71.5 42.5t84 13.5q44 0 82.5 -14.5t68 -43.5t45.5 -73q7 -18 -13 -18z" />
    <glyph glyph-name="uni020C" unicode="&#x20c;" horiz-adv-x="780" 
d="M391 -10q-110 0 -191 46.5t-125 132t-44 200.5q0 116 45 202t126 133.5t189 47.5t188.5 -47.5t125 -133.5t44.5 -202q0 -115 -44 -200t-124.5 -132t-189.5 -47v0zM391 146q65 0 92.5 50t27.5 170q0 124 -28 178t-92 54q-65 0 -93.5 -54t-28.5 -178q0 -120 27.5 -170
t94.5 -50v0zM200 955q11 14 24 2l140 -119q12 -10 -3 -25l-33 -35q-7 -8 -13.5 -7.5t-18.5 7.5l-143 80q-13 8 -12.5 17.5t8.5 19.5l51 60v0zM419 955q11 14 24 2l140 -119q12 -10 -3 -25l-33 -35q-7 -8 -13.5 -7.5t-18.5 7.5l-143 80q-13 8 -12.5 17.5t8.5 19.5l51 60v0z
" />
    <glyph glyph-name="uni020D" unicode="&#x20d;" 
d="M299 -10q-82 0 -144.5 35t-98 96.5t-35.5 140.5q0 84 37 146.5t100 97t142 34.5q84 0 146.5 -36t97.5 -98.5t35 -143.5q0 -79 -35.5 -140.5t-98.5 -96.5t-146 -35v0zM300 118q27 0 44 15.5t25 48.5t8 84q0 53 -8 86t-25 48.5t-44 15.5q-26 0 -43.5 -15.5t-25.5 -48.5
t-8 -86q0 -52 8 -84.5t25.5 -48t43.5 -15.5v0zM110 743q11 14 24 2l140 -119q12 -10 -3 -25l-33 -35q-7 -8 -13.5 -7.5t-18.5 7.5l-143 80q-13 8 -12.5 17.5t8.5 19.5l51 60v0zM329 743q11 14 24 2l140 -119q12 -10 -3 -25l-33 -35q-7 -8 -13.5 -7.5t-18.5 7.5l-143 80
q-13 8 -12.5 17.5t8.5 19.5l51 60v0z" />
    <glyph glyph-name="uni020E" unicode="&#x20e;" horiz-adv-x="780" 
d="M391 -10q-110 0 -191 46.5t-125 132t-44 200.5q0 116 45 202t126 133.5t189 47.5t188.5 -47.5t125 -133.5t44.5 -202q0 -115 -44 -200t-124.5 -132t-189.5 -47v0zM391 146q65 0 92.5 50t27.5 170q0 124 -28 178t-92 54q-65 0 -93.5 -54t-28.5 -178q0 -120 27.5 -170
t94.5 -50v0zM574 805v0h-78q-6 0 -10.5 2t-9.5 11q-13 21 -37.5 34t-47.5 13q-16 0 -32.5 -6t-30 -16.5t-23.5 -23.5q-6 -8 -10.5 -11t-13.5 -3h-77q-7 0 -9.5 5t-1.5 11q12 48 42.5 77t71.5 42.5t84 13.5q44 0 82.5 -14.5t68 -43.5t45.5 -73q7 -18 -13 -18z" />
    <glyph glyph-name="uni020F" unicode="&#x20f;" 
d="M299 -10q-82 0 -144.5 35t-98 96.5t-35.5 140.5q0 84 37 146.5t100 97t142 34.5q84 0 146.5 -36t97.5 -98.5t35 -143.5q0 -79 -35.5 -140.5t-98.5 -96.5t-146 -35v0zM300 118q27 0 44 15.5t25 48.5t8 84q0 53 -8 86t-25 48.5t-44 15.5q-26 0 -43.5 -15.5t-25.5 -48.5
t-8 -86q0 -52 8 -84.5t25.5 -48t43.5 -15.5v0zM484 593v0h-78q-6 0 -10.5 2t-9.5 11q-13 21 -37.5 34t-47.5 13q-16 0 -32.5 -6t-30 -16.5t-23.5 -23.5q-6 -8 -10.5 -11t-13.5 -3h-77q-7 0 -9.5 5t-1.5 11q12 48 42.5 77t71.5 42.5t84 13.5q44 0 82.5 -14.5t68 -43.5
t45.5 -73q7 -18 -13 -18z" />
    <glyph glyph-name="uni0210" unicode="&#x210;" horiz-adv-x="739" 
d="M701 32q5 -13 -0.5 -22.5t-17.5 -9.5h-194q-21 0 -27 21l-94 258q-6 16 -31 16h-46q-7 0 -9.5 -4.5t-2.5 -6.5v-255q0 -29 -33 -29h-168q-15 0 -20.5 6t-5.5 19v694q0 23 19 23h334q145 0 225 -55.5t80 -156.5q0 -47 -17 -87t-46.5 -68.5t-67.5 -43.5q-10 -4 -4 -19
l126 -280v0zM396 444q38 0 58.5 20t20.5 52q0 38 -25.5 58t-59.5 20h-88q-23 0 -23 -20v-109q0 -21 17 -21h100v0zM168 955q11 14 24 2l140 -119q12 -10 -3 -25l-33 -35q-7 -8 -13.5 -7.5t-18.5 7.5l-143 80q-13 8 -12.5 17.5t8.5 19.5l51 60v0zM387 955q11 14 24 2
l140 -119q12 -10 -3 -25l-33 -35q-7 -8 -13.5 -7.5t-18.5 7.5l-143 80q-13 8 -12.5 17.5t8.5 19.5l51 60v0z" />
    <glyph glyph-name="uni0211" unicode="&#x211;" horiz-adv-x="454" 
d="M67 0q-15 0 -20.5 6t-5.5 19v482q0 23 19 23h156q18 0 18 -20v-56q0 -7 6 -8.5t11 5.5q16 25 41 45t53 32t51 12q37 0 37 -20v-152q0 -21 -20 -16q-23 6 -47.5 8.5t-38.5 2.5q-16 0 -31.5 -5.5t-28 -15.5t-19.5 -22t-7 -25v-266q0 -29 -33 -29h-141v0zM42 743q11 14 24 2
l140 -119q12 -10 -3 -25l-33 -35q-7 -8 -13.5 -7.5t-18.5 7.5l-143 80q-13 8 -12.5 17.5t8.5 19.5l51 60v0zM261 743q11 14 24 2l140 -119q12 -10 -3 -25l-33 -35q-7 -8 -13.5 -7.5t-18.5 7.5l-143 80q-13 8 -12.5 17.5t8.5 19.5l51 60v0z" />
    <glyph glyph-name="uni0212" unicode="&#x212;" horiz-adv-x="739" 
d="M701 32q5 -13 -0.5 -22.5t-17.5 -9.5h-194q-21 0 -27 21l-94 258q-6 16 -31 16h-46q-7 0 -9.5 -4.5t-2.5 -6.5v-255q0 -29 -33 -29h-168q-15 0 -20.5 6t-5.5 19v694q0 23 19 23h334q145 0 225 -55.5t80 -156.5q0 -47 -17 -87t-46.5 -68.5t-67.5 -43.5q-10 -4 -4 -19
l126 -280v0zM396 444q38 0 58.5 20t20.5 52q0 38 -25.5 58t-59.5 20h-88q-23 0 -23 -20v-109q0 -21 17 -21h100v0zM542 805v0h-78q-6 0 -10.5 2t-9.5 11q-13 21 -37.5 34t-47.5 13q-16 0 -32.5 -6t-30 -16.5t-23.5 -23.5q-6 -8 -10.5 -11t-13.5 -3h-77q-7 0 -9.5 5t-1.5 11
q12 48 42.5 77t71.5 42.5t84 13.5q44 0 82.5 -14.5t68 -43.5t45.5 -73q7 -18 -13 -18z" />
    <glyph glyph-name="uni0213" unicode="&#x213;" horiz-adv-x="454" 
d="M67 0q-15 0 -20.5 6t-5.5 19v482q0 23 19 23h156q18 0 18 -20v-56q0 -7 6 -8.5t11 5.5q16 25 41 45t53 32t51 12q37 0 37 -20v-152q0 -21 -20 -16q-23 6 -47.5 8.5t-38.5 2.5q-16 0 -31.5 -5.5t-28 -15.5t-19.5 -22t-7 -25v-266q0 -29 -33 -29h-141v0zM416 593v0h-78
q-6 0 -10.5 2t-9.5 11q-13 21 -37.5 34t-47.5 13q-16 0 -32.5 -6t-30 -16.5t-23.5 -23.5q-6 -8 -10.5 -11t-13.5 -3h-77q-7 0 -9.5 5t-1.5 11q12 48 42.5 77t71.5 42.5t84 13.5q44 0 82.5 -14.5t68 -43.5t45.5 -73q7 -18 -13 -18z" />
    <glyph glyph-name="uni0214" unicode="&#x214;" horiz-adv-x="728" 
d="M684 293q0 -115 -40 -181.5t-112 -94t-168 -27.5q-120 0 -190 37t-100 109.5t-30 176.5v406q0 23 19 23h190q18 0 18 -21v-432q0 -76 29.5 -108t80.5 -32q31 0 57.5 12.5t42.5 44t16 86.5v427q0 23 19 23h150q18 0 18 -21v-428v0zM191 955q11 14 24 2l140 -119
q12 -10 -3 -25l-33 -35q-7 -8 -13.5 -7.5t-18.5 7.5l-143 80q-13 8 -12.5 17.5t8.5 19.5l51 60v0zM410 955q11 14 24 2l140 -119q12 -10 -3 -25l-33 -35q-7 -8 -13.5 -7.5t-18.5 7.5l-143 80q-13 8 -12.5 17.5t8.5 19.5l51 60v0z" />
    <glyph glyph-name="uni0215" unicode="&#x215;" horiz-adv-x="601" 
d="M285 130q23 0 42.5 12t32.5 29v330q0 29 33 29h143q26 0 26 -26l-4 -482q0 -22 -19 -22h-158q-18 0 -18 20v44q0 6 -3.5 7.5t-8.5 -3.5q-34 -40 -75 -59t-91 -19q-43 0 -76.5 19.5t-53 57t-19.5 90.5v343q0 30 31 30h146q23 0 23 -26v-325q0 -23 13.5 -36t35.5 -13v0z
M109 743q11 14 24 2l140 -119q12 -10 -3 -25l-33 -35q-7 -8 -13.5 -7.5t-18.5 7.5l-143 80q-13 8 -12.5 17.5t8.5 19.5l51 60v0zM328 743q11 14 24 2l140 -119q12 -10 -3 -25l-33 -35q-7 -8 -13.5 -7.5t-18.5 7.5l-143 80q-13 8 -12.5 17.5t8.5 19.5l51 60v0z" />
    <glyph glyph-name="uni0216" unicode="&#x216;" horiz-adv-x="728" 
d="M684 293q0 -115 -40 -181.5t-112 -94t-168 -27.5q-120 0 -190 37t-100 109.5t-30 176.5v406q0 23 19 23h190q18 0 18 -21v-432q0 -76 29.5 -108t80.5 -32q31 0 57.5 12.5t42.5 44t16 86.5v427q0 23 19 23h150q18 0 18 -21v-428v0zM565 805v0h-78q-6 0 -10.5 2t-9.5 11
q-13 21 -37.5 34t-47.5 13q-16 0 -32.5 -6t-30 -16.5t-23.5 -23.5q-6 -8 -10.5 -11t-13.5 -3h-77q-7 0 -9.5 5t-1.5 11q12 48 42.5 77t71.5 42.5t84 13.5q44 0 82.5 -14.5t68 -43.5t45.5 -73q7 -18 -13 -18z" />
    <glyph glyph-name="uni0217" unicode="&#x217;" horiz-adv-x="601" 
d="M285 130q23 0 42.5 12t32.5 29v330q0 29 33 29h143q26 0 26 -26l-4 -482q0 -22 -19 -22h-158q-18 0 -18 20v44q0 6 -3.5 7.5t-8.5 -3.5q-34 -40 -75 -59t-91 -19q-43 0 -76.5 19.5t-53 57t-19.5 90.5v343q0 30 31 30h146q23 0 23 -26v-325q0 -23 13.5 -36t35.5 -13v0z
M483 593v0h-78q-6 0 -10.5 2t-9.5 11q-13 21 -37.5 34t-47.5 13q-16 0 -32.5 -6t-30 -16.5t-23.5 -23.5q-6 -8 -10.5 -11t-13.5 -3h-77q-7 0 -9.5 5t-1.5 11q12 48 42.5 77t71.5 42.5t84 13.5q44 0 82.5 -14.5t68 -43.5t45.5 -73q7 -18 -13 -18z" />
    <glyph glyph-name="uni0218" unicode="&#x218;" horiz-adv-x="701" 
d="M494 543q-18 20 -45 37t-86 17q-56 0 -79 -16t-23 -35q0 -9 5.5 -18.5t19.5 -18t39 -14.5l166 -43q94 -23 138.5 -82t44.5 -136q0 -74 -39 -129t-110.5 -85t-170.5 -30q-73 0 -138.5 16.5t-114.5 46.5t-73 69q-6 11 -5 18t11 15l103 71q14 9 23 7.5t15 -9.5
q22 -28 44 -46t50.5 -26t67.5 -8q55 0 88 15t33 43q0 12 -7 22.5t-20.5 18.5t-35.5 13l-152 37q-60 15 -104 47.5t-68 77.5t-24 97q0 65 37.5 119t107 86t163.5 32q60 0 114.5 -13.5t97.5 -37.5t66 -57q5 -7 7.5 -14.5t-7.5 -15.5l-109 -79q-7 -5 -13 -3.5t-17 11.5v0z
M310 -246q-8 0 -12 7t0 13l33 45q8 11 5 20t-14 9h-9q-23 0 -23 22v61q0 20 18 20h94q17 0 17 -16v-87q0 -4 -1.5 -7.5t-2.5 -5.5l-54 -67q-6 -8 -12.5 -11t-20.5 -3h-18v0z" />
    <glyph glyph-name="uni0219" unicode="&#x219;" horiz-adv-x="541" 
d="M373 378q-15 17 -39 31.5t-61 14.5q-26 0 -45 -9t-19 -26q0 -7 6.5 -14t33.5 -12l106 -22q93 -19 130.5 -66t37.5 -105t-32 -98t-89 -61t-132 -21q-96 0 -160 32t-89 77q-5 9 -5 17t7 12l87 44q13 6 19.5 5t11.5 -7q12 -13 26.5 -26.5t39 -22.5t64.5 -8q21 1 38 4.5
t27 11.5t10 20q0 10 -8.5 18t-37.5 13l-102 18q-76 14 -119 52.5t-44 106.5q0 52 27.5 93.5t81.5 65.5t131 24q82 0 139.5 -29.5t79.5 -66.5q5 -7 8 -16t-8 -14l-92 -44q-9 -4 -16 -1.5t-13 9.5v0zM223 -246q-8 0 -12 7t0 13l33 45q8 11 5 20t-14 9h-9q-23 0 -23 22v61
q0 20 18 20h94q17 0 17 -16v-87q0 -4 -1.5 -7.5t-2.5 -5.5l-54 -67q-6 -8 -12.5 -11t-20.5 -3h-18v0z" />
    <glyph glyph-name="uni021A" unicode="&#x21a;" horiz-adv-x="704" 
d="M28 719q0 10 6 16.5t19 6.5h598q13 0 19 -6.5t6 -16.5v-119q0 -19 -22 -19h-177q-12 0 -12 -10v-549q0 -22 -19 -22h-190q-18 0 -18 20v547q0 14 -11 14h-176q-23 0 -23 19v119zM307 -246q-8 0 -12 7t0 13l33 45q8 11 5 20t-14 9h-9q-23 0 -23 22v61q0 20 18 20h94
q17 0 17 -16v-87q0 -4 -1.5 -7.5t-2.5 -5.5l-54 -67q-6 -8 -12.5 -11t-20.5 -3h-18v0z" />
    <glyph glyph-name="uni021B" unicode="&#x21b;" horiz-adv-x="462" 
d="M318 395q-13 0 -13 -13v-192q0 -26 16.5 -39.5t53.5 -13.5h43q8 0 13 -6t5 -14l-1 -80q0 -24 -29 -30q-22 -3 -44.5 -4.5t-45 -2t-45.5 -0.5q-72 0 -119 34.5t-47 98.5v244q0 18 -15 18h-48q-24 0 -24 22v94q0 19 22 19h59q11 0 12 12l16 148q2 20 18 20h147q19 0 19 -22
v-146q0 -11 11 -11h92q22 0 22 -19v-95q0 -22 -25 -22h-93zM222 -246q-8 0 -12 7t0 13l33 45q8 11 5 20t-14 9h-9q-23 0 -23 22v61q0 20 18 20h94q17 0 17 -16v-87q0 -4 -1.5 -7.5t-2.5 -5.5l-54 -67q-6 -8 -12.5 -11t-20.5 -3h-18v0z" />
    <glyph glyph-name="uni0237" unicode="&#x237;" horiz-adv-x="283" 
d="M242 29q0 -99 -51.5 -149t-158.5 -50q-42 0 -55 4.5t-13 20.5l-1 102q0 8 5 16.5t15 10.5l35 6q10 3 17 12t7 34v471q0 23 20 23h162q18 0 18 -20v-481v0z" />
    <glyph glyph-name="uni0259" unicode="&#x259;" horiz-adv-x="590" 
d="M363 318q0 31 -13.5 50.5t-37 29.5t-52.5 10q-25 0 -50.5 -12t-58.5 -44q-4 -4 -7.5 -4.5t-13.5 3.5l-91 37q-18 7 -4 24q36 51 72.5 78.5t80 38.5t99.5 11q80 0 144 -34t101 -93.5t37 -138.5q0 -85 -38.5 -149t-102 -99.5t-137.5 -35.5q-78 0 -139.5 34t-97 98
t-35.5 154q0 13 2.5 18.5t15.5 6.5h311q8 0 11.5 4t3.5 13v0zM230 198q-10 0 -13.5 -2.5t-3.5 -11.5q0 -13 7 -31t22 -32t40 -14q21 0 39 9.5t29 29.5t10 51z" />
    <glyph glyph-name="uni02BC" unicode="&#x2bc;" horiz-adv-x="194" 
d="M50 445q-7 0 -9 5.5t-1 10.5l31 107q3 10 2 15t-9 6l-12 2q-18 1 -18 17v118q0 16 14 16h99q13 0 13 -13v-138q0 -3 -1 -5.5t-2 -4.5l-38 -120q-3 -9 -9.5 -12.5t-20.5 -3.5h-39v0z" />
    <glyph glyph-name="circumflex" unicode="&#x2c6;" horiz-adv-x="420" 
d="M225 658q-10 14 -15.5 14t-18.5 -14l-46 -54q-7 -7 -11.5 -8t-14.5 -1h-99q-9 0 -9.5 5t6.5 13l112 124q7 8 15 11.5t22 3.5h95q11 0 17 -4t11 -9l111 -126q17 -18 -2 -18h-105q-9 0 -15.5 1t-11.5 8z" />
    <glyph glyph-name="caron" unicode="&#x2c7;" horiz-adv-x="420" 
d="M266 734q5 7 11.5 8t15.5 1h105q19 0 2 -18l-111 -127q-5 -5 -11 -9t-17 -4h-95q-14 0 -22 4t-15 11l-112 125q-7 8 -6.5 13t9.5 5h99q10 0 15 -0.5t11 -8.5l46 -55q12 -15 18 -14t16 14l41 55v0z" />
    <glyph glyph-name="breve" unicode="&#x2d8;" horiz-adv-x="423" 
d="M395 742q20 0 13 -18q-16 -44 -45.5 -73t-68 -43.5t-82.5 -14.5q-43 0 -84 13.5t-71.5 43t-42.5 76.5q-1 6 1.5 11t9.5 5h77q9 0 13.5 -3t10.5 -11q10 -13 23.5 -23.5t30 -16.5t32.5 -6q23 0 47.5 13t37.5 34q5 9 9.5 11t10.5 2h78v0z" />
    <glyph glyph-name="dotaccent" unicode="&#x2d9;" horiz-adv-x="220" 
d="M210 603q0 -15 -8 -22t-25 -7h-141q-15 0 -20.5 6.5t-5.5 19.5v119q0 23 19 23h163q18 0 18 -21v-118z" />
    <glyph glyph-name="ring" unicode="&#x2da;" horiz-adv-x="254" 
d="M244 679q0 -49 -34 -83t-83 -34t-83 34.5t-34 84.5q0 32 16 57.5t42.5 40.5t58.5 15q33 0 59.5 -15.5t42 -41.5t15.5 -58v0zM174 678q0 20 -14 33.5t-34 13.5q-19 0 -34 -13.5t-15 -33.5q0 -19 15 -34t34 -15q20 0 34 15t14 34v0z" />
    <glyph glyph-name="ogonek" unicode="&#x2db;" horiz-adv-x="260" 
d="M10 -87q0 26 18 49t76 44h136q-56 -18 -74 -33t-18 -32q0 -15 7 -22t21 -7q17 0 30 4.5t26 11.5q18 9 18 -11v-52q0 -12 -10 -18q-13 -7 -43 -14t-66 -7q-54 0 -87.5 21t-33.5 66v0z" />
    <glyph glyph-name="tilde" unicode="&#x2dc;" horiz-adv-x="460" 
d="M413 639q-16 -11 -42.5 -20.5t-57.5 -9.5q-29 0 -55.5 8t-52 15.5t-54.5 7.5q-21 0 -36 -5.5t-35 -19.5q-8 -6 -13.5 -5t-9.5 13l-17 54q-2 8 -2.5 14.5t10.5 16.5q19 16 41 28.5t57 12.5q32 0 61 -8.5t55.5 -17t49.5 -8.5q24 0 44 9t33 19q8 5 15 3.5t9 -12.5l14 -65
q4 -17 -14 -30v0z" />
    <glyph glyph-name="hungarumlaut" unicode="&#x2dd;" horiz-adv-x="467" 
d="M229 683q8 -10 9 -19.5t-13 -17.5l-143 -80q-12 -7 -18 -7.5t-14 7.5l-33 35q-15 15 -3 25l141 119q13 12 24 -2zM448 683q8 -10 9 -19.5t-13 -17.5l-143 -80q-12 -7 -18 -7.5t-14 7.5l-33 35q-15 15 -3 25l141 119q13 12 24 -2z" />
    <glyph glyph-name="gravecomb" unicode="&#x300;" horiz-adv-x="0" 
d="M-279 739q7 18 21 12l239 -98q14 -6 8 -24l-15 -43q-4 -10 -10 -13t-19 0l-233 56q-27 7 -19 32l28 78v0z" />
    <glyph glyph-name="acutecomb" unicode="&#x301;" horiz-adv-x="0" 
d="M-12 658q8 -25 -19 -32l-233 -56q-13 -3 -19 0t-10 13l-15 43q-6 18 8 24l240 98q14 6 21 -12z" />
    <glyph glyph-name="uni0302" unicode="&#x302;" horiz-adv-x="0" 
d="M-195 658q-10 14 -15.5 14t-18.5 -14l-46 -54q-7 -7 -11.5 -8t-14.5 -1h-99q-9 0 -9.5 5t6.5 13l112 124q7 8 15 11.5t22 3.5h95q11 0 17 -4t11 -9l111 -126q17 -18 -2 -18h-105q-9 0 -15.5 1t-11.5 8z" />
    <glyph glyph-name="tildecomb" unicode="&#x303;" horiz-adv-x="0" 
d="M-47 639q-16 -11 -42.5 -20.5t-57.5 -9.5q-29 0 -55.5 8t-52 15.5t-54.5 7.5q-21 0 -36 -5.5t-35 -19.5q-8 -6 -13.5 -5t-9.5 13l-17 54q-2 8 -2.5 14.5t10.5 16.5q19 16 41 28.5t57 12.5q32 0 61 -8.5t55.5 -17t49.5 -8.5q24 0 44 9t33 19q8 5 15 3.5t9 -12.5l14 -65
q4 -17 -14 -30v0z" />
    <glyph glyph-name="uni0304" unicode="&#x304;" horiz-adv-x="0" 
d="M-10 643q0 -24 -29 -24h-360q-13 0 -17.5 5.5t-4.5 16.5v81q0 20 16 20h379q16 0 16 -18v-81z" />
    <glyph glyph-name="uni0306" unicode="&#x306;" horiz-adv-x="0" 
d="M-28 742q20 0 13 -18q-16 -44 -45.5 -73t-68 -43.5t-82.5 -14.5q-43 0 -84 13.5t-71.5 43t-42.5 76.5q-1 6 1.5 11t9.5 5h77q9 0 13.5 -3t10.5 -11q10 -13 23.5 -23.5t30 -16.5t32.5 -6q23 0 47.5 13t37.5 34q5 9 9.5 11t10.5 2h78v0z" />
    <glyph glyph-name="uni0307" unicode="&#x307;" horiz-adv-x="0" 
d="M-10 603q0 -15 -8 -22t-25 -7h-141q-15 0 -20.5 6.5t-5.5 19.5v119q0 23 19 23h163q18 0 18 -21v-118z" />
    <glyph glyph-name="uni0308" unicode="&#x308;" horiz-adv-x="0" 
d="M-250 623q0 -13 -7 -18.5t-22 -5.5h-120q-13 0 -17.5 5.5t-4.5 16.5v101q0 20 16 20h139q16 0 16 -18v-101zM-10 623q0 -13 -7 -18.5t-22 -5.5h-120q-13 0 -17.5 5.5t-4.5 16.5v101q0 20 16 20h139q16 0 16 -18v-101z" />
    <glyph glyph-name="hookabovecomb" unicode="&#x309;" horiz-adv-x="0" 
d="M-404 799q-13 -5 -7 -17l25 -47q7 -13 17 -7q15 8 27.5 12t25.5 4q11 0 22.5 -4.5t11.5 -16.5q0 -16 -12.5 -27.5t-39.5 -31.5q-3 -2 -4.5 -7.5t2.5 -10.5l28 -39q9 -11 20 -3q36 27 60.5 56.5t24.5 67.5q0 44 -32.5 69.5t-79.5 25.5q-22 0 -42 -7t-47 -17v0z" />
    <glyph glyph-name="uni030A" unicode="&#x30a;" horiz-adv-x="0" 
d="M-10 679q0 -49 -34 -83t-83 -34t-83 34.5t-34 84.5q0 32 16 57.5t42.5 40.5t58.5 15q33 0 59.5 -15.5t42 -41.5t15.5 -58v0zM-80 678q0 20 -14 33.5t-34 13.5q-19 0 -34 -13.5t-15 -33.5q0 -19 15 -34t34 -15q20 0 34 15t14 34v0z" />
    <glyph glyph-name="uni030B" unicode="&#x30b;" horiz-adv-x="0" 
d="M-238 683q8 -10 9 -19.5t-13 -17.5l-143 -80q-12 -7 -18 -7.5t-14 7.5l-33 35q-15 15 -3 25l141 119q13 12 24 -2zM-19 683q8 -10 9 -19.5t-13 -17.5l-143 -80q-12 -7 -18 -7.5t-14 7.5l-33 35q-15 15 -3 25l141 119q13 12 24 -2z" />
    <glyph glyph-name="uni030C" unicode="&#x30c;" horiz-adv-x="0" 
d="M-154 734q5 7 11.5 8t15.5 1h105q19 0 2 -18l-111 -127q-5 -5 -11 -9t-17 -4h-95q-14 0 -22 4t-15 11l-112 125q-7 8 -6.5 13t9.5 5h99q10 0 15 -0.5t11 -8.5l46 -55q12 -15 18 -14t16 14l41 55v0z" />
    <glyph glyph-name="uni030F" unicode="&#x30f;" horiz-adv-x="0" 
d="M-398 743q11 14 24 2l140 -119q12 -10 -3 -25l-33 -35q-7 -8 -13.5 -7.5t-18.5 7.5l-143 80q-13 8 -12.5 17.5t8.5 19.5l51 60v0zM-179 743q11 14 24 2l140 -119q12 -10 -3 -25l-33 -35q-7 -8 -13.5 -7.5t-18.5 7.5l-143 80q-13 8 -12.5 17.5t8.5 19.5l51 60v0z" />
    <glyph glyph-name="uni0311" unicode="&#x311;" horiz-adv-x="0" 
d="M-24 593v0h-78q-6 0 -10.5 2t-9.5 11q-13 21 -37.5 34t-47.5 13q-16 0 -32.5 -6t-30 -16.5t-23.5 -23.5q-6 -8 -10.5 -11t-13.5 -3h-77q-7 0 -9.5 5t-1.5 11q12 48 42.5 77t71.5 42.5t84 13.5q44 0 82.5 -14.5t68 -43.5t45.5 -73q7 -18 -13 -18z" />
    <glyph glyph-name="uni031B" unicode="&#x31b;" horiz-adv-x="0" 
d="M74 589q11 0 14 -10t-2 -21q-21 -41 -54 -67.5t-73 -38.5t-82 -12l3 89q26 0 53.5 10.5t43.5 36.5q5 8 12 10.5t13 2.5h72v0z" />
    <glyph glyph-name="dotbelowcomb" unicode="&#x323;" horiz-adv-x="0" 
d="M-10 -143q0 -11 -5.5 -16.5t-18.5 -5.5h-105q-11 0 -15 5t-4 14v89q0 18 13 18h122q13 0 13 -16v-88z" />
    <glyph glyph-name="uni0326" unicode="&#x326;" horiz-adv-x="0" 
d="M-119 -246q-8 0 -12 7t0 13l33 45q8 11 5 20t-14 9h-9q-23 0 -23 22v61q0 20 18 20h94q17 0 17 -16v-87q0 -4 -1.5 -7.5t-2.5 -5.5l-54 -67q-6 -8 -12.5 -11t-20.5 -3h-18v0z" />
    <glyph glyph-name="uni0327" unicode="&#x327;" horiz-adv-x="0" 
d="M-10 -137q0 -27 -18.5 -46.5t-48.5 -30.5t-66 -11q-33 0 -66 5.5t-61 19.5q-10 7 -6 16l17 41q3 8 12 5q17 -9 38 -16t41 -7q21 0 34 7t13 20q0 18 -19.5 28.5t-71.5 10.5q-7 0 -10.5 2t0.5 10l38 88h81l-19 -49q-4 -9 6 -9q39 0 62.5 -13t33.5 -32.5t10 -38.5v0z" />
    <glyph glyph-name="uni0328" unicode="&#x328;" horiz-adv-x="0" 
d="M-250 -87q0 26 18 49t76 44h136q-56 -18 -74 -33t-18 -32q0 -15 7 -22t21 -7q17 0 30 4.5t26 11.5q18 9 18 -11v-52q0 -12 -10 -18q-13 -7 -43 -14t-66 -7q-54 0 -87.5 21t-33.5 66v0z" />
    <glyph glyph-name="Delta" unicode="&#x394;" horiz-adv-x="700" 
d="M15 39v46q0 16 2 30t9 33l204 572q8 22 28 22h185q21 0 29 -25l202 -567q7 -19 9 -31t2 -26v-66q0 -13 -4.5 -20t-17.5 -7h-615q-13 0 -23 9.5t-10 29.5zM251 159h194q17 0 11 20l-100 328q-4 16 -10 15.5t-11 -16.5l-100 -326q-6 -21 16 -21z" />
    <glyph glyph-name="Omega" unicode="&#x3a9;" horiz-adv-x="767" 
d="M387 598q-24 0 -48 -10.5t-43 -34.5t-30.5 -64t-11.5 -99q0 -44 6.5 -79.5t18 -64t26.5 -50t33 -36.5q11 -10 17 -20t6 -22v-96q0 -22 -19 -22h-284q-7 0 -12.5 5t-5.5 15v129q0 15 18 15h82q8 0 9 4.5t-5 10.5q-16 15 -32 34t-30 41t-25 48t-17 55t-6 61q0 62 23.5 121
t69 107.5t111 77t149.5 28.5q87 0 152 -30.5t108 -80.5t64.5 -108t21.5 -114q0 -30 -6 -58.5t-16.5 -54.5t-25 -49t-31.5 -43t-36 -37q-4 -4 -3.5 -8.5t6.5 -4.5h91q15 0 15 -17v-129q0 -18 -15 -18h-283q-22 0 -22 24v93q0 12 3.5 20.5t16.5 19.5q16 14 31.5 35t27.5 50
t19.5 67t7.5 86q0 55 -10 94t-27.5 63t-40 35t-48.5 11z" />
    <glyph glyph-name="mu" unicode="&#x3bc;" horiz-adv-x="601" 
d="M285 130q23 0 42.5 12t32.5 29v330q0 29 33 29h143q26 0 26 -26l-4 -482q0 -22 -19 -22h-158q-18 0 -18 20v44q0 6 -3.5 7.5t-8.5 -3.5q-22 -27 -47 -43.5t-50 -24.5q-11 -4 -14.5 -8.5t-3.5 -13.5v-114q0 -16 -8 -22.5t-25 -6.5h-140q-27 0 -27 25v640q0 30 31 30h146
q23 0 23 -26v-325q0 -15 6 -26t17.5 -17t25.5 -6z" />
    <glyph glyph-name="pi" unicode="&#x3c0;" horiz-adv-x="676" 
d="M601 395q-15 0 -15 -14v-362q0 -19 -18 -19h-155q-18 0 -18 19v363q0 13 -14 13h-87q-10 0 -10 -9q0 -36 -4.5 -85.5t-12 -103t-17.5 -102t-22 -83.5q-4 -12 -16 -12h-159q-18 0 -13 17q11 41 20 90.5t16.5 100.5t11.5 97t4 80q0 10 -9 10h-51q-22 0 -22 20v95
q0 20 23 20h613q20 0 20 -22v-90q0 -12 -6 -17.5t-14 -5.5h-45z" />
    <glyph glyph-name="uni1E0C" unicode="&#x1e0c;" horiz-adv-x="771" 
d="M79 742h61h75h73.5t56.5 -1q134 -4 221.5 -52t130.5 -129.5t43 -187.5q0 -107 -44 -191.5t-132 -132.5t-220 -48h-263q-29 0 -29 30v687q0 14 6 19.5t21 5.5v0zM289 585q-10 0 -10 -14v-399q0 -15 14 -15h7q63 0 108 21t69.5 69t24.5 127q0 70 -20 116.5t-62 70.5
t-107 24h-24v0zM434 -143q0 -11 -5.5 -16.5t-18.5 -5.5h-105q-11 0 -15 5t-4 14v89q0 18 13 18h122q13 0 13 -16v-88z" />
    <glyph glyph-name="uni1E0D" unicode="&#x1e0d;" horiz-adv-x="616" 
d="M403 0q-10 0 -17.5 5t-7.5 18v19q0 7 -5 8t-10 -4q-19 -18 -39.5 -30.5t-45 -19t-55.5 -6.5q-59 0 -104 30.5t-70.5 91.5t-25.5 151q0 84 29.5 146t77.5 96.5t103 34.5q34 0 63.5 -11t60.5 -41q8 -6 13.5 -5t5.5 13v225q0 21 18 21h162q19 0 19 -23v-694q0 -13 -5.5 -19
t-21.5 -6h-145v0zM375 378q-16 19 -31.5 28.5t-38.5 9.5t-41.5 -14t-28.5 -47t-10 -91q0 -57 9.5 -91t27.5 -48.5t43 -14.5q20 0 35.5 8.5t25 23.5t9.5 34v202v0zM381 -143q0 -11 -5.5 -16.5t-18.5 -5.5h-105q-11 0 -15 5t-4 14v89q0 18 13 18h122q13 0 13 -16v-88z" />
    <glyph glyph-name="uni1E24" unicode="&#x1e24;" horiz-adv-x="762" 
d="M295 297q-16 0 -16 -15v-253q0 -29 -33 -29h-167q-16 0 -21.5 6t-5.5 19v694q0 23 19 23h190q18 0 18 -21v-232q0 -20 18 -20h168q18 0 18 20v232q0 21 18 21h190q19 0 19 -23v-694q0 -13 -5.5 -19t-21.5 -6h-167q-33 0 -33 29v253q0 15 -16 15h-172zM452 -143
q0 -11 -5.5 -16.5t-18.5 -5.5h-105q-11 0 -15 5t-4 14v89q0 18 13 18h122q13 0 13 -16v-88z" />
    <glyph glyph-name="uni1E25" unicode="&#x1e25;" horiz-adv-x="605" 
d="M68 0q-26 0 -26 25v694q0 23 19 23h160q18 0 18 -21v-249q0 -6 3.5 -7.5t9.5 3.5q29 28 55.5 43.5t52.5 22t52 6.5q74 0 115 -42.5t41 -122.5v-345q0 -30 -30 -30h-147q-13 0 -18 5.5t-5 19.5v326q0 23 -14 35.5t-38 12.5q-15 0 -28.5 -5.5t-24.5 -16.5t-21 -28v-320
q0 -29 -33 -29h-141v0zM380 -143q0 -11 -5.5 -16.5t-18.5 -5.5h-105q-11 0 -15 5t-4 14v89q0 18 13 18h122q13 0 13 -16v-88z" />
    <glyph glyph-name="uni1E44" unicode="&#x1e44;" horiz-adv-x="761" 
d="M694 742q15 0 15 -17v-707q0 -8 -6.5 -13t-16.5 -5h-137q-8 0 -13.5 2.5t-13.5 12.5l-275 373q-4 5 -7 4t-3 -6v-364q1 -22 -24 -22h-136q-25 0 -25 20v699q0 23 22 23h163q13 0 19.5 -3.5t14.5 -14.5l240 -334q7 -9 11.5 -8.5t4.5 12.5v327q0 21 22 21h145zM481 815
q0 -15 -8 -22t-25 -7h-141q-15 0 -20.5 6.5t-5.5 19.5v119q0 23 19 23h163q18 0 18 -21v-118z" />
    <glyph glyph-name="uni1E45" unicode="&#x1e45;" horiz-adv-x="604" 
d="M67 0q-26 0 -26 25v482q0 23 19 23h161q18 0 18 -20v-45q0 -6 3.5 -8t9.5 4q21 23 46 41t53.5 28t59.5 10q70 0 113.5 -44t43.5 -118v-348q0 -30 -30 -30h-147q-13 0 -18 5.5t-5 19.5v326q0 23 -14.5 35.5t-38.5 12.5q-15 0 -28.5 -5.5t-24.5 -16.5t-21 -28v-320
q0 -29 -33 -29h-141v0zM404 603q0 -15 -8 -22t-25 -7h-141q-15 0 -20.5 6.5t-5.5 19.5v119q0 23 19 23h163q18 0 18 -21v-118z" />
    <glyph glyph-name="uni1E5A" unicode="&#x1e5a;" horiz-adv-x="739" 
d="M701 32q5 -13 -0.5 -22.5t-17.5 -9.5h-194q-21 0 -27 21l-94 258q-6 16 -31 16h-46q-7 0 -9.5 -4.5t-2.5 -6.5v-255q0 -29 -33 -29h-168q-15 0 -20.5 6t-5.5 19v694q0 23 19 23h334q145 0 225 -55.5t80 -156.5q0 -47 -17 -87t-46.5 -68.5t-67.5 -43.5q-10 -4 -4 -19
l126 -280v0zM396 444q38 0 58.5 20t20.5 52q0 38 -25.5 58t-59.5 20h-88q-23 0 -23 -20v-109q0 -21 17 -21h100v0zM442 -143q0 -11 -5.5 -16.5t-18.5 -5.5h-105q-11 0 -15 5t-4 14v89q0 18 13 18h122q13 0 13 -16v-88z" />
    <glyph glyph-name="uni1E5B" unicode="&#x1e5b;" horiz-adv-x="454" 
d="M67 0q-15 0 -20.5 6t-5.5 19v482q0 23 19 23h156q18 0 18 -20v-56q0 -7 6 -8.5t11 5.5q16 25 41 45t53 32t51 12q37 0 37 -20v-152q0 -21 -20 -16q-23 6 -47.5 8.5t-38.5 2.5q-16 0 -31.5 -5.5t-28 -15.5t-19.5 -22t-7 -25v-266q0 -29 -33 -29h-141v0zM207 -143
q0 -11 -5.5 -16.5t-18.5 -5.5h-105q-11 0 -15 5t-4 14v89q0 18 13 18h122q13 0 13 -16v-88z" />
    <glyph glyph-name="uni1E62" unicode="&#x1e62;" horiz-adv-x="701" 
d="M494 543q-18 20 -45 37t-86 17q-56 0 -79 -16t-23 -35q0 -9 5.5 -18.5t19.5 -18t39 -14.5l166 -43q94 -23 138.5 -82t44.5 -136q0 -74 -39 -129t-110.5 -85t-170.5 -30q-73 0 -138.5 16.5t-114.5 46.5t-73 69q-6 11 -5 18t11 15l103 71q14 9 23 7.5t15 -9.5
q22 -28 44 -46t50.5 -26t67.5 -8q55 0 88 15t33 43q0 12 -7 22.5t-20.5 18.5t-35.5 13l-152 37q-60 15 -104 47.5t-68 77.5t-24 97q0 65 37.5 119t107 86t163.5 32q60 0 114.5 -13.5t97.5 -37.5t66 -57q5 -7 7.5 -14.5t-7.5 -15.5l-109 -79q-7 -5 -13 -3.5t-17 11.5v0z
M429 -143q0 -11 -5.5 -16.5t-18.5 -5.5h-105q-11 0 -15 5t-4 14v89q0 18 13 18h122q13 0 13 -16v-88z" />
    <glyph glyph-name="uni1E63" unicode="&#x1e63;" horiz-adv-x="541" 
d="M373 378q-15 17 -39 31.5t-61 14.5q-26 0 -45 -9t-19 -26q0 -7 6.5 -14t33.5 -12l106 -22q93 -19 130.5 -66t37.5 -105t-32 -98t-89 -61t-132 -21q-96 0 -160 32t-89 77q-5 9 -5 17t7 12l87 44q13 6 19.5 5t11.5 -7q12 -13 26.5 -26.5t39 -22.5t64.5 -8q21 1 38 4.5
t27 11.5t10 20q0 10 -8.5 18t-37.5 13l-102 18q-76 14 -119 52.5t-44 106.5q0 52 27.5 93.5t81.5 65.5t131 24q82 0 139.5 -29.5t79.5 -66.5q5 -7 8 -16t-8 -14l-92 -44q-9 -4 -16 -1.5t-13 9.5v0zM342 -143q0 -11 -5.5 -16.5t-18.5 -5.5h-105q-11 0 -15 5t-4 14v89
q0 18 13 18h122q13 0 13 -16v-88z" />
    <glyph glyph-name="uni1E6C" unicode="&#x1e6c;" horiz-adv-x="704" 
d="M28 719q0 10 6 16.5t19 6.5h598q13 0 19 -6.5t6 -16.5v-119q0 -19 -22 -19h-177q-12 0 -12 -10v-549q0 -22 -19 -22h-190q-18 0 -18 20v547q0 14 -11 14h-176q-23 0 -23 19v119zM426 -143q0 -11 -5.5 -16.5t-18.5 -5.5h-105q-11 0 -15 5t-4 14v89q0 18 13 18h122
q13 0 13 -16v-88z" />
    <glyph glyph-name="uni1E6D" unicode="&#x1e6d;" horiz-adv-x="462" 
d="M318 395q-13 0 -13 -13v-192q0 -26 16.5 -39.5t53.5 -13.5h43q8 0 13 -6t5 -14l-1 -80q0 -24 -29 -30q-22 -3 -44.5 -4.5t-45 -2t-45.5 -0.5q-72 0 -119 34.5t-47 98.5v244q0 18 -15 18h-48q-24 0 -24 22v94q0 19 22 19h59q11 0 12 12l16 148q2 20 18 20h147q19 0 19 -22
v-146q0 -11 11 -11h92q22 0 22 -19v-95q0 -22 -25 -22h-93zM318 -143q0 -11 -5.5 -16.5t-18.5 -5.5h-105q-11 0 -15 5t-4 14v89q0 18 13 18h122q13 0 13 -16v-88z" />
    <glyph glyph-name="Wgrave" unicode="&#x1e80;" horiz-adv-x="1109" 
d="M1052 742q20 0 27.5 -11.5t2.5 -28.5l-203 -677q-9 -25 -36 -25h-138q-29 0 -36 25l-104 352q-3 12 -7 12.5t-9 -14.5l-103 -350q-7 -25 -36 -25h-143q-27 0 -36 25l-204 677q-4 17 3.5 28.5t26.5 11.5h165q16 0 22.5 -5.5t9.5 -15.5l106 -371q3 -11 6.5 -11.5t5.5 7.5
l105 375q2 10 9 15.5t23 5.5h140q16 0 22.5 -5.5t9.5 -15.5l110 -380q2 -6 6 -7t5 5l102 382q2 10 9 15.5t23 5.5h116v0zM437 951q7 18 21 12l239 -98q14 -6 8 -24l-15 -43q-4 -10 -10 -13t-19 0l-233 56q-27 7 -19 32l28 78v0z" />
    <glyph glyph-name="wgrave" unicode="&#x1e81;" horiz-adv-x="832" 
d="M798 530q12 0 17 -9t0 -20l-170 -483q-3 -10 -7.5 -14t-15.5 -4h-104q-22 0 -29 22l-64 210q-4 11 -8.5 11t-7.5 -11l-70 -214q-3 -10 -8 -14t-16 -4h-107q-21 0 -28 22l-163 479q-4 11 1.5 20t17.5 9h155q9 0 16.5 -6t9.5 -14l69 -214q2 -9 6.5 -9t8.5 10l65 213
q2 8 9.5 14t16.5 6h109q8 0 15.5 -6t9.5 -14l63 -214q2 -9 6.5 -9t8.5 10l68 213q4 8 10.5 14t15.5 6h100v0zM296 739q7 18 21 12l239 -98q14 -6 8 -24l-15 -43q-4 -10 -10 -13t-19 0l-233 56q-27 7 -19 32l28 78v0z" />
    <glyph glyph-name="Wacute" unicode="&#x1e82;" horiz-adv-x="1109" 
d="M1052 742q20 0 27.5 -11.5t2.5 -28.5l-203 -677q-9 -25 -36 -25h-138q-29 0 -36 25l-104 352q-3 12 -7 12.5t-9 -14.5l-103 -350q-7 -25 -36 -25h-143q-27 0 -36 25l-204 677q-4 17 3.5 28.5t26.5 11.5h165q16 0 22.5 -5.5t9.5 -15.5l106 -371q3 -11 6.5 -11.5t5.5 7.5
l105 375q2 10 9 15.5t23 5.5h140q16 0 22.5 -5.5t9.5 -15.5l110 -380q2 -6 6 -7t5 5l102 382q2 10 9 15.5t23 5.5h116v0zM704 870q8 -25 -19 -32l-233 -56q-13 -3 -19 0t-10 13l-15 43q-6 18 8 24l240 98q14 6 21 -12z" />
    </font>
</defs>
</svg>
