<?xml version="1.0" standalone="no"?>
<!DOCTYPE svg PUBLIC "-//W3C//DTD SVG 1.1//EN" "http://www.w3.org/Graphics/SVG/1.1/DTD/svg11.dtd" >
<svg xmlns="http://www.w3.org/2000/svg" xmlns:xlink="http://www.w3.org/1999/xlink" version="1.1">
<metadata>
Created by FontForge 20170731 at Wed Sep 23 00:34:57 2020
 By Aleksey,,,
Copyright 2020 The LibreFranklin Project Authors (https://github.com/impallari/Libre-Franklin)
</metadata>
<defs>
<font id="LibreFranklin-Italic" horiz-adv-x="599" >
  <font-face 
    font-family="Libre Franklin"
    font-weight="400"
    font-style="italic"
    font-stretch="normal"
    units-per-em="1000"
    panose-1="0 0 0 0 0 0 0 0 0 0"
    ascent="800"
    descent="-200"
    x-height="530"
    cap-height="742"
    bbox="-405.333 -239 1350.09 1129.4"
    underline-thickness="50"
    underline-position="-150"
    slope="-8"
    unicode-range="U+000D-FB02"
  />
<missing-glyph horiz-adv-x="702" 
d="M549 -138q-2 -16 -10 -21.5t-25 -5.5h-448q-16 0 -21.5 7t-4.5 20l136 964q2 11 7 16t13 5h471q8 0 13.5 -6.5t3.5 -16.5l-135 -962v0zM625 781q2 8 -0.5 12t-9.5 4h-373q-7 0 -13 -6t-8 -15l-123 -872q-1 -10 2.5 -14.5t16.5 -4.5h353q14 0 23 6.5t10 19.5zM194 806
l55 27l280 -965l-60 -5z" />
    <glyph glyph-name="fi" unicode="fi" horiz-adv-x="617" 
d="M382 530q5 0 7.5 -2.5t1.5 -7.5l-6 -44q-2 -9 -10 -9h-116q-7 0 -9 -10l-63 -445q-1 -8 -3 -10t-8 -2h-62q-5 0 -8.5 4.5t-2.5 10.5l63 446q2 6 -5 6h-99q-5 0 -7 4t-1 8l6 43q1 5 2.5 6.5t7.5 1.5h95q5 0 8.5 3.5t4.5 8.5l10 74q9 63 43.5 94.5t97.5 31.5h84q6 0 9.5 -3
t2.5 -9l-5 -41q-1 -8 -11 -8h-69q-32 0 -49 -19t-21 -53l-11 -71q-1 -8 8 -8h115v0zM505 14q-1 -9 -4 -11.5t-14 -2.5h-51q-9 0 -12.5 4.5t-2.5 12.5l71 502q1 7 3 9t8 2h63q6 0 8.5 -4t1.5 -11zM597 642q-2 -9 -5 -13t-14 -4h-61q-8 0 -10.5 5.5t-0.5 13.5l12 83
q2 15 15 15h65q5 0 8.5 -5t1.5 -13z" />
    <glyph glyph-name="fl" unicode="fl" horiz-adv-x="618" 
d="M382 530q5 0 7.5 -2.5t1.5 -7.5l-6 -44q-2 -9 -10 -9h-116q-7 0 -9 -10l-63 -445q-1 -8 -3 -10t-8 -2h-62q-5 0 -8.5 4.5t-2.5 10.5l63 446q2 6 -5 6h-99q-5 0 -7 4t-1 8l6 43q1 5 2.5 6.5t7.5 1.5h95q5 0 8.5 3.5t4.5 8.5l10 74q9 63 43.5 94.5t97.5 31.5h84q6 0 9.5 -3
t2.5 -9l-5 -41q-1 -8 -11 -8h-69q-32 0 -49 -19t-21 -53l-11 -71q-1 -8 8 -8h115v0zM505 14q-1 -9 -4 -11.5t-13 -2.5h-52q-9 0 -12.5 4.5t-2.5 12.5l102 714q1 7 3 9t8 2h62q12 0 9 -14z" />
    <glyph glyph-name=".notdef" horiz-adv-x="702" 
d="M549 -138q-2 -16 -10 -21.5t-25 -5.5h-448q-16 0 -21.5 7t-4.5 20l136 964q2 11 7 16t13 5h471q8 0 13.5 -6.5t3.5 -16.5l-135 -962v0zM625 781q2 8 -0.5 12t-9.5 4h-373q-7 0 -13 -6t-8 -15l-123 -872q-1 -10 2.5 -14.5t16.5 -4.5h353q14 0 23 6.5t10 19.5zM194 806
l55 27l280 -965l-60 -5z" />
    <glyph glyph-name="uni0000" horiz-adv-x="0" 
 />
    <glyph glyph-name="uni0000" horiz-adv-x="0" 
 />
    <glyph glyph-name="nonmarkingreturn" horiz-adv-x="333" 
 />
    <glyph glyph-name="CR" unicode="&#xd;" horiz-adv-x="214" 
 />
    <glyph glyph-name="space" unicode=" " horiz-adv-x="214" 
 />
    <glyph glyph-name="exclam" unicode="!" horiz-adv-x="244" 
d="M137 14q-1 -9 -4 -11.5t-14 -2.5h-69q-9 0 -12.5 4.5t-2.5 12.5l12 84q2 7 4 8.5t6 1.5h82q6 0 8.5 -3.5t2.5 -9.5zM141 192q-2 -7 -5 -9.5t-11 -2.5h-29q-7 0 -10.5 4t-2.5 11l55 538q1 6 2.5 7.5t5.5 1.5h82q5 0 7.5 -4t2.5 -9z" />
    <glyph glyph-name="quotedbl" unicode="&#x22;" horiz-adv-x="409" 
d="M316 524q-2 -7 -4.5 -9.5t-11.5 -2.5h-25q-7 0 -10 4t-3 10l5 208q0 5 2.5 6.5t5.5 1.5h86q5 0 8 -3.5t2 -8.5zM147 524q-2 -7 -4.5 -9.5t-11.5 -2.5h-25q-7 0 -10 4t-3 10l5 208q0 5 2.5 6.5t5.5 1.5h86q5 0 8 -3.5t2 -8.5z" />
    <glyph glyph-name="numbersign" unicode="#" horiz-adv-x="603" 
d="M139 11q-1 -8 -4 -10t-10 -1l-28 5q-7 1 -10 4t-2 9l209 715q3 5 5 7.5t5 1.5l34 -5q5 -1 8.5 -5t1.5 -10zM348 11q-2 -8 -4.5 -10t-9.5 -1l-28 5q-7 1 -10 4t-2 9l209 715q2 5 4.5 7.5t5.5 1.5l33 -5q6 -1 9.5 -5t1.5 -10zM534 253q-1 -7 -4 -9t-12 -2h-472
q-7 0 -10.5 4t-2.5 11l4 30q1 6 3.5 7.5t5.5 1.5h484q4 0 7 -3.5t2 -8.5zM597 463q-1 -7 -4.5 -9t-11.5 -2h-473q-7 0 -10.5 4t-1.5 11l4 30q1 6 3.5 7.5t5.5 1.5h484q4 0 6.5 -3.5t1.5 -8.5z" />
    <glyph glyph-name="dollar" unicode="$" horiz-adv-x="605" 
d="M555 180q-7 -53 -38.5 -94.5t-81.5 -66t-113 -27.5q-9 0 -12.5 -3.5t-4.5 -8.5l-8 -56q-1 -7 -3.5 -9t-9.5 -2h-36q-7 0 -10 4t-2 9l8 59q1 6 0 6.5t-4 0.5q-85 2 -135.5 31t-83.5 84q-5 6 -7 11t4 9l37 31q6 4 12 2t8 -8q29 -41 66.5 -64.5t99.5 -26.5q7 0 11 3t5 8
l34 245q2 9 -1.5 14t-11.5 10q-73 27 -115 56.5t-56.5 66.5t-6.5 87q7 53 38.5 94.5t82 68t114.5 34.5q6 0 11.5 4t6.5 8l6 49q2 5 3 6t5 1h41q6 0 9.5 -4t2.5 -11l-7 -49q-1 -3 0 -4.5t5 -2.5q58 -6 99.5 -29.5t72.5 -59.5q5 -2 7 -7t-4 -10l-40 -36q-5 -5 -8.5 -2.5
t-8.5 11.5q-18 23 -49.5 40.5t-70.5 24.5q-7 1 -11 -3t-5 -9l-35 -250q-1 -7 0 -8.5t8 -3.5l36 -13q53 -21 87.5 -51t50.5 -70t8 -89v0zM340 672q1 5 -0.5 6t-6.5 -1q-63 -6 -105 -41.5t-49 -87.5q-3 -24 5 -44t31.5 -38.5t66.5 -39.5q10 -2 17.5 2.5t8.5 14.5zM317 66
q-1 -4 0.5 -4t4.5 1q62 1 104 35t49 84q7 44 -17.5 74t-86.5 56q-19 4 -22 -12l-32 -234v0z" />
    <glyph glyph-name="percent" unicode="%" horiz-adv-x="916" 
d="M294 753q51 0 87 -26.5t52 -75t6 -114.5q-9 -65 -37 -111.5t-69.5 -71.5t-90.5 -25q-51 0 -88 26.5t-53 75t-6 114.5q9 65 37.5 111.5t70.5 71.5t91 25v0zM240 378q35 0 63 21t46.5 59t25.5 86q10 72 -11 116.5t-71 44.5q-34 0 -62.5 -21.5t-46.5 -60t-26 -87.5
q-9 -70 11.5 -114t70.5 -44v0zM706 414q50 0 86 -26.5t52 -75t7 -114.5q-9 -65 -37.5 -111.5t-70 -71.5t-89.5 -25q-51 0 -87.5 26.5t-52.5 75t-7 115.5q10 64 38 110.5t70 71.5t91 25v0zM653 39q34 0 61.5 21.5t47 59t25.5 86.5q7 46 -1 82.5t-28 57t-52 20.5
q-34 0 -62 -22.5t-47 -60.5t-26 -86q-6 -46 1.5 -82t28 -56t52.5 -20v0zM196 3q-5 -5 -8.5 -6t-11.5 -1h-26q-9 0 -10.5 7.5t2.5 13.5l587 728q4 6 7.5 5.5t8.5 -0.5h33q5 0 8.5 -3.5t-1.5 -9.5z" />
    <glyph glyph-name="ampersand" unicode="&#x26;" horiz-adv-x="778" 
d="M403 753q55 0 95.5 -19t61 -53.5t13.5 -82.5q-5 -34 -28 -69t-65.5 -67.5t-107.5 -60.5q-18 -4 -10 -16l130 -183q5 -5 8.5 -3t10.5 11q20 16 43.5 40t45.5 50.5t38.5 51t25.5 42.5q3 4 7 4t10 -2l38 -14q5 -1 8 -7t1 -13q-14 -28 -41.5 -64.5t-61.5 -75t-70 -73.5
q-6 -4 -8 -7t2 -9q17 -16 43 -29t56 -21t59 -9q10 0 14 -4.5t3 -10.5l-6 -43q-1 -10 -4.5 -13t-12.5 -3q-39 0 -81 12t-78 30.5t-60 40.5q-6 4 -10.5 2t-9.5 -9q-54 -40 -112.5 -60.5t-122.5 -20.5q-104 0 -157 54t-40 145q8 58 49 107t129 99q13 5 15.5 10t-4.5 16
q-28 33 -40.5 70t-6.5 77q7 52 39.5 92.5t82.5 64t109 23.5v0zM404 693q-40 0 -71 -17.5t-50 -45.5t-24 -61q-3 -23 3 -45t23 -46l23 -30q3 -3 8 -1.5t10 4.5q82 36 122 72.5t46 82.5q7 44 -20.5 65.5t-69.5 21.5v0zM282 345q-6 8 -12 6.5t-15 -6.5q-55 -23 -91.5 -65
t-42.5 -91q-8 -56 27.5 -91.5t96.5 -35.5q44 0 88.5 19t77.5 48q8 4 11.5 9.5t-0.5 11.5l-140 195v0z" />
    <glyph glyph-name="quotesingle" unicode="'" horiz-adv-x="240" 
d="M184 524q-2 -7 -4.5 -9.5t-11.5 -2.5h-25q-7 0 -10 4t-3 10l5 208q0 5 2.5 6.5t5.5 1.5h86q5 0 8 -3.5t2 -8.5z" />
    <glyph glyph-name="parenleft" unicode="(" horiz-adv-x="286" 
d="M156 -165q-10 0 -11 11q-32 70 -53 138.5t-27 143.5t6 161q17 124 72 239t130 210q7 4 18 4h34q6 0 7.5 -4.5t-0.5 -8.5q-42 -65 -78.5 -138t-63 -152t-38.5 -159q-16 -112 -4 -219t48 -220q7 -6 -3 -6h-37v0z" />
    <glyph glyph-name="parenright" unicode=")" horiz-adv-x="286" 
d="M-32 -165q-5 0 -7 4.5t-1 8.5q42 65 79 138t63.5 152t37.5 159q16 113 4 219.5t-48 219.5q-6 6 4 6h37q9 0 11 -11q32 -70 52.5 -138.5t26.5 -143.5t-6 -161q-17 -124 -72 -238.5t-130 -210.5q-6 -4 -17 -4h-34v0z" />
    <glyph glyph-name="asterisk" unicode="*" horiz-adv-x="380" 
d="M236 533q-1 1 -2.5 -1t-3.5 -4l-92 -119q-2 -3 -5 -1.5t-7 4.5l-31 24q-4 3 -5 6t2 7l101 106q1 3 2 4t-3 2l-111 34q-3 1 -4.5 4.5t-0.5 8.5l19 37q3 3 4.5 3.5t5.5 -2.5l104 -43q3 -2 6 1t4 6l9 126q1 3 2 4.5t7 1.5h46q4 0 7 -4t1 -6l-25 -127q-1 -3 0 -3t4 1l119 49
q6 2 8.5 -0.5t2.5 -7.5l8 -35q0 -6 -0.5 -7.5t-4.5 -3.5l-119 -37q-3 -1 -5.5 -4t-1.5 -6l67 -100q3 -4 3 -8t-6 -8l-34 -22q-6 -3 -10.5 -0.5t-4.5 4.5z" />
    <glyph glyph-name="plus" unicode="+" horiz-adv-x="557" 
d="M508 351q-1 -7 -4 -9t-12 -2l-405 -1q-7 0 -10.5 4t-2.5 11l6 43q2 5 3.5 7t5.5 2h415q4 0 7.5 -3.5t2.5 -8.5zM246 156q-7 0 -10.5 5t-2.5 13l56 405q2 8 4 9.5t8 1.5h43q6 0 9.5 -3.5t1.5 -7.5l-57 -416q-1 -4 -2.5 -5.5t-6.5 -1.5h-43z" />
    <glyph glyph-name="comma" unicode="," horiz-adv-x="212" 
d="M-8 -143q-9 0 -2 12l62 113q4 9 2 13.5t-10 4.5h-14q-7 0 -9 2t-1 8l13 89q0 5 3.5 9t8.5 4h83q10 0 8 -12l-12 -77q-1 -5 -2 -9t-3 -6l-93 -138q-5 -7 -9.5 -10t-11.5 -3h-13v0z" />
    <glyph glyph-name="hyphen" unicode="-" horiz-adv-x="381" 
d="M315 243q-1 -7 -4 -9.5t-12 -2.5h-227q-7 0 -10 4t-3 10l6 44q2 6 3.5 7.5t5.5 1.5l238 1q4 0 7.5 -4t2.5 -8z" />
    <glyph glyph-name="period" unicode="." horiz-adv-x="209" 
d="M120 14q-2 -9 -5 -11.5t-14 -2.5h-69q-9 0 -12.5 4.5t-2.5 12.5l13 85q1 7 3 9t6 2h83q5 0 7.5 -4t2.5 -10z" />
    <glyph glyph-name="slash" unicode="/" horiz-adv-x="342" 
d="M-21 -43q-6 0 -8.5 3.5t-1.5 6.5l359 768q3 4 6 5.5t7 1.5h44q8 0 10 -5t-1 -13l-354 -757q-3 -7 -7 -8.5t-10 -1.5h-44v0z" />
    <glyph glyph-name="zero" unicode="0" horiz-adv-x="688" 
d="M409 752q70 0 122.5 -33.5t82 -98.5t29.5 -160q0 -22 -1.5 -45.5t-5.5 -49.5q-17 -123 -65 -206t-115.5 -125.5t-146.5 -42.5q-70 0 -123 32.5t-82.5 96.5t-29.5 157q0 22 2 46t5 49q14 93 44.5 163.5t74.5 119t97.5 73t111.5 24.5v0zM313 64q56 0 101.5 31.5t77.5 100
t47 177.5q5 31 7 58t2 50q0 105 -38 151.5t-103 46.5q-55 0 -101.5 -32.5t-79.5 -102t-48 -180.5q-4 -29 -6.5 -55t-2.5 -49q0 -103 39.5 -149.5t104.5 -46.5v0z" />
    <glyph glyph-name="one" unicode="1" horiz-adv-x="465" 
d="M386 76q12 0 10 -10l-9 -57q-1 -5 -3 -7t-8 -2h-352q-6 0 -8 2.5t-1 7.5l8 58q1 5 2.5 6.5t6.5 1.5h128q8 0 9 8l78 549q1 5 -1 6t-7 -1l-130 -45q-15 -4 -12 10l6 42q1 8 3 11t8 6l157 73q11 5 17 6t14 1h45q11 0 9 -13l-91 -647q-1 -6 5 -6h116v0z" />
    <glyph glyph-name="two" unicode="2" 
d="M295 312q56 48 98.5 90t66 83t23.5 83q0 37 -18 61t-47 36t-63 12q-45 0 -96.5 -24.5t-90.5 -77.5q-5 -7 -13 -2l-55 37q-3 3 -2.5 7t6.5 11q51 63 122 93.5t139 30.5q59 0 106.5 -19.5t75.5 -59t28 -99.5q0 -58 -24.5 -106.5t-69 -93t-103.5 -93.5l-225 -188
q-6 -4 -5.5 -8t7.5 -4h348q13 0 11 -11l-8 -60q-1 -5 -3 -7.5t-9 -2.5h-464q-17 0 -15 18l5 42q1 7 3.5 12.5t8.5 12t19 16.5z" />
    <glyph glyph-name="three" unicode="3" horiz-adv-x="641" 
d="M129 641q-7 9 1 17q37 32 76 52.5t80.5 31t86.5 10.5q107 0 167.5 -47t60.5 -120q0 -44 -20.5 -81.5t-55.5 -65t-81 -43.5q-5 -1 -5.5 -3.5t6.5 -4.5q55 -14 91.5 -56t36.5 -103q0 -69 -37 -123t-107 -84.5t-167 -30.5q-64 0 -108.5 15t-75.5 40t-54 55q-6 9 -1 13l51 36
q3 3 6 2.5t5 -2.5q34 -46 81 -66t103 -20q60 0 107.5 20t75.5 56.5t28 85.5q0 42 -23.5 70t-62 42t-82.5 14l-91 1q-12 0 -10 9l7 55q1 7 11 7l72 1q54 0 101 20.5t76 55t29 77.5q0 45 -37.5 74t-99.5 29q-43 0 -76 -11.5t-60.5 -29t-53.5 -38.5q-10 -7 -18 2l-33 38v0z" />
    <glyph glyph-name="four" unicode="4" horiz-adv-x="649" 
d="M451 733q5 6 9.5 7.5t13.5 1.5h71q12 0 10 -13l-63 -451q-1 -7 5 -7h96q7 0 10 -2.5t2 -8.5l-7 -50q-1 -6 -3.5 -8.5t-10.5 -2.5h-95q-9 0 -11 -10l-24 -177q-1 -7 -4 -9.5t-12 -2.5h-68q-14 0 -12 14l25 178q2 7 -7 7h-327q-13 0 -11 13l8 54q1 8 4.5 14.5t13.5 17.5
l387 435v0zM384 271q8 0 9 9l48 338q2 14 -13 -4l-292 -331q-6 -7 -5 -9.5t5 -2.5h248z" />
    <glyph glyph-name="five" unicode="5" horiz-adv-x="654" 
d="M613 742q8 0 10.5 -3t0.5 -11l-12 -57q-1 -5 -4 -7t-10 -2h-342q-6 0 -8.5 -2.5t-4.5 -8.5l-48 -220q-1 -5 1 -7t6 0q38 18 80.5 32t95.5 14q61 0 110.5 -20.5t79.5 -62.5t30 -108q0 -87 -42.5 -152t-114.5 -101t-163 -36q-52 0 -97 12t-82 36.5t-66 59.5q-5 7 -4.5 10.5
t5.5 6.5l46 33q4 4 8 2t9 -7q28 -31 68.5 -56t103.5 -25q69 0 121 27t82 75t30 108q0 42 -19 70t-52 41.5t-75 13.5q-36 0 -68 -9.5t-60 -23.5t-53 -28q-5 -2 -9 -2t-10 4l-47 30q-5 5 -5.5 10t1.5 14l76 338q2 9 5.5 10.5t15.5 1.5h411z" />
    <glyph glyph-name="six" unicode="6" horiz-adv-x="661" 
d="M434 751q34 0 64 -8.5t54 -23t41 -33.5t26 -39q2 -6 -4 -10l-58 -24q-7 -3 -17 12q-17 25 -42 39.5t-66 14.5q-73 0 -125.5 -36t-83.5 -97t-42 -138q-1 -5 -1.5 -8.5t-0.5 -5.5q0 -4 4 -4t9 3q41 18 88.5 34t105.5 16q70 0 118.5 -24t74 -66t25.5 -96q0 -58 -23 -106.5
t-63.5 -84.5t-92.5 -55.5t-111 -19.5q-77 0 -130.5 33t-82 96t-28.5 152q0 21 1.5 44.5t5.5 47.5q17 122 65 208.5t122 132.5t167 46v0zM371 373q-27 0 -60 -6.5t-64 -17t-53 -23.5q-21 -13 -26 -31.5t-5 -50.5t8.5 -64.5t27 -59.5t47.5 -43t70 -16q53 0 96.5 26t70 69
t26.5 93q0 54 -35.5 89t-102.5 35v0z" />
    <glyph glyph-name="seven" unicode="7" 
d="M608 742q8 0 10.5 -4t1.5 -10l-6 -36q-1 -9 -5 -19t-13 -19q-48 -59 -95 -128t-89.5 -141.5t-78.5 -141.5t-61 -128t-38 -100q-1 -8 -4.5 -11.5t-10.5 -3.5h-80q-8 0 -10.5 6t0.5 16q22 54 55.5 124.5t79 152t104.5 170.5t131 182q4 5 3 8t-8 3h-386q-6 0 -8.5 3.5
t-0.5 9.5l14 58q2 5 5 7t9 2h481z" />
    <glyph glyph-name="eight" unicode="8" horiz-adv-x="668" 
d="M399 752q66 0 116 -22t77 -62t27 -96q0 -40 -14.5 -71.5t-35.5 -54.5t-42 -38.5t-34 -24.5q-6 -4 -6.5 -7t6.5 -7q15 -7 34 -18.5t36 -29t28.5 -44t11.5 -65.5q0 -54 -24 -96t-66.5 -69.5t-98 -42t-120.5 -14.5q-75 0 -130.5 20t-85.5 60t-30 97q0 50 20.5 87.5t53 66
t70.5 50.5q6 4 7.5 7.5t-6.5 8.5q-20 14 -37.5 29.5t-27.5 38.5t-10 59q0 66 37 120t100.5 86t143.5 32v0zM397 682q-54 0 -97 -22t-67 -57t-24 -77q0 -37 22 -58.5t65 -33.5l95 -25q19 -5 43.5 7.5t47.5 37t38 56t15 62.5q0 50 -37 80t-101 30v0zM300 60q63 0 109.5 19
t72.5 52t26 77q0 38 -22 64.5t-69 39.5l-129 35q-12 4 -37.5 -8t-52.5 -37t-45.5 -58.5t-18.5 -72.5q0 -50 44 -80.5t122 -30.5v0z" />
    <glyph glyph-name="nine" unicode="9" horiz-adv-x="658" 
d="M257 -9q-39 0 -70 9t-55 23.5t-40 32.5t-25 37q-4 8 3 12l56 22q11 5 18 -9q18 -27 45 -41t71 -14q71 0 122.5 35.5t82.5 97t42 138.5q1 13 -2 15.5t-11 -1.5q-41 -19 -86 -34t-103 -15q-70 0 -118.5 24t-73.5 66.5t-25 97.5q0 58 23.5 106.5t63.5 84t92.5 54.5t109.5 19
q76 0 129 -33t81 -95.5t28 -151.5q0 -93 -23.5 -179.5t-69 -154.5t-112 -107t-153.5 -39v0zM318 369q29 0 61 7t62.5 19t52.5 27q21 12 27 30.5t6 49.5t-8.5 63t-26.5 58t-47 42t-69 16q-52 0 -96 -25.5t-70.5 -68t-26.5 -93.5q0 -53 36 -89t99 -36v0z" />
    <glyph glyph-name="colon" unicode=":" horiz-adv-x="209" 
d="M175 409q-1 -8 -4 -11t-14 -3h-70q-8 0 -11.5 5t-2.5 12l12 85q1 6 3 8t7 2h82q6 0 9 -3.5t1 -10.5zM120 17q-1 -9 -4.5 -11.5t-14.5 -2.5h-69q-9 0 -12 5t-2 12l12 84q1 7 3 8.5t6 1.5h83q5 0 8 -3.5t2 -9.5z" />
    <glyph glyph-name="semicolon" unicode=";" horiz-adv-x="229" 
d="M-4 -144q-5 0 -7.5 5t-0.5 12l62 113q5 8 5 11t-8 3h-13q-7 0 -10.5 4.5t-2.5 9.5l12 90q1 5 3 6.5t6 1.5h84q5 0 7.5 -4t1.5 -8l-11 -82q-1 -8 -3 -13l-93 -140q-4 -5 -9 -7t-12 -2h-11v0zM87 393q-9 0 -12.5 5t-2.5 12l13 86q1 7 3 8.5t7 1.5h82q5 0 8 -3.5t2 -10.5
l-12 -85q-2 -9 -5 -11.5t-14 -2.5h-69v0z" />
    <glyph glyph-name="less" unicode="&#x3c;" horiz-adv-x="544" 
d="M464 170q-2 -11 -7.5 -13t-13.5 1l-368 153q-6 3 -10 7.5t-3 10.5l8 56q1 8 4.5 11t9.5 5l411 154q11 5 17 -1t4 -15l-6 -46q-1 -7 -6 -11t-17 -9l-319 -118l282 -118q11 -5 16 -10.5t4 -14.5z" />
    <glyph glyph-name="equal" unicode="=" horiz-adv-x="557" 
d="M522 450q-1 -7 -4 -9t-12 -2l-405 -1q-7 0 -10.5 4t-2.5 10l6 43q1 6 3 7.5t6 1.5l415 1q4 0 7.5 -3.5t2.5 -8.5zM491 224q-2 -7 -5 -9t-11 -2l-406 -1q-7 0 -10 4t-2 11l5 43q2 6 3.5 7.5t5.5 1.5h415q5 0 8.5 -3.5t1.5 -8.5z" />
    <glyph glyph-name="greater" unicode="&#x3e;" horiz-adv-x="544" 
d="M60 217q1 8 6 12t17 9l318 117l-282 119q-22 10 -20 24l6 45q2 19 22 11l367 -154q7 -2 10.5 -7t2.5 -12l-8 -56q0 -7 -3.5 -9.5t-10.5 -5.5l-409 -153q-10 -4 -17 1.5t-5 16.5l6 42v0z" />
    <glyph glyph-name="question" unicode="?" horiz-adv-x="523" 
d="M262 14q-1 -9 -4.5 -11.5t-13.5 -2.5h-70q-8 0 -11.5 4.5t-2.5 12.5l12 84q1 7 2.5 8.5t7.5 1.5h82q5 0 8 -3.5t2 -9.5zM83 605q-5 2 -6.5 6.5t0.5 10.5q41 62 108 96t144 34q69 0 117 -23.5t70.5 -65t15.5 -95.5q-7 -50 -33.5 -87.5t-61 -68.5t-70 -63t-61.5 -69.5
t-33 -88.5q-2 -8 -11 -8h-49q-6 0 -10 5t-2 14q7 56 32.5 97t58.5 74t66 63.5t57 63t30 74.5q7 52 -25.5 82t-92.5 30q-34 0 -69.5 -13t-64 -35t-43.5 -50q-2 -2 -4 -2t-8 1z" />
    <glyph glyph-name="at" unicode="@" horiz-adv-x="834" 
d="M614 -49q-48 -29 -106 -46.5t-123 -17.5q-92 0 -160 29.5t-111.5 81.5t-60 120.5t-5.5 147.5q11 80 49.5 151t98.5 126.5t138 86.5t168 31q65 0 126 -19t107 -58.5t67.5 -101.5t9.5 -147q-10 -75 -43 -132.5t-80.5 -89.5t-101.5 -32q-27 0 -45 6.5t-27.5 19.5t-12.5 31
q-1 6 -4 3.5t-7 -10.5q-27 -28 -63 -46t-84 -18q-39 0 -68.5 22.5t-43.5 63t-7 95.5q9 63 40 114.5t79 82t104 30.5q42 0 68 -19t38 -48q3 -1 6.5 1.5t4.5 7.5l11 29q2 3 3 3h4h45q4 0 6.5 -2.5t1.5 -6.5l-69 -222q-14 -45 -6.5 -61t31.5 -16q34 0 66 24t56 68t33 105
q10 72 -8 122.5t-54.5 81.5t-85 45.5t-99.5 14.5q-81 0 -148 -27.5t-117 -75.5t-81 -110.5t-41 -133.5q-9 -65 4 -121.5t48.5 -99t94 -66.5t139.5 -24q45 0 76.5 8.5t57 22t51.5 29.5q8 4 13 1.5t7 -7.5l16 -26q5 -7 2 -12t-8 -9v0zM297 243q-7 -52 9 -83t53 -31
q35 0 67 20.5t56 53.5t34 72q13 46 6 76.5t-27 46t-45 15.5q-38 0 -70.5 -23t-54 -61.5t-28.5 -85.5v0z" />
    <glyph glyph-name="A" unicode="A" horiz-adv-x="727" 
d="M16 0q-6 0 -8 5t2 14l360 711q4 7 9 9.5t13 2.5h78q10 0 14 -5t5 -12l157 -710q1 -6 -1 -10.5t-9 -4.5h-71q-13 0 -14 13l-43 192q-1 7 -10 7h-291q-9 0 -13 -9l-100 -196q-1 -4 -4 -5.5t-10 -1.5h-64v0zM483 288q12 0 9 13l-74 329q-2 10 -6 9.5t-9 -11.5l-167 -327
q-3 -8 -2.5 -10.5t5.5 -2.5h244z" />
    <glyph glyph-name="B" unicode="B" horiz-adv-x="699" 
d="M71 0q-6 0 -8.5 3.5t-0.5 10.5l100 715q2 13 15 13h229q122 0 188 -42.5t66 -124.5q0 -75 -41.5 -122.5t-113.5 -70.5q-6 -2 -6 -5t5 -5q59 -14 92 -50.5t33 -95.5q0 -65 -26 -108.5t-70 -69.5t-99.5 -37t-115.5 -11h-247v0zM313 70q39 0 77.5 7t70.5 24.5t50.5 48
t18.5 78.5q0 40 -21 64.5t-57.5 35.5t-84.5 11h-150q-7 0 -10.5 -3t-5.5 -9l-34 -246q-1 -6 1.5 -8.5t7.5 -2.5h137zM372 411q53 0 96 17t69 51.5t26 84.5q0 56 -44 82t-120 26h-136q-7 0 -10.5 -3t-4.5 -10l-33 -237q-1 -6 1 -8.5t7 -2.5h149z" />
    <glyph glyph-name="C" unicode="C" horiz-adv-x="707" 
d="M444 752q69 0 124 -29t87.5 -76.5t32.5 -104.5q0 -12 -10 -12l-72 -5q-8 0 -10 16q-5 62 -46 100t-108 38q-60 0 -105.5 -25t-77 -67t-50.5 -94.5t-28 -108.5t-9 -109q0 -104 45 -156.5t136 -52.5q72 0 126 35t92 110q3 7 15 3l59 -16q7 -3 1 -18q-13 -27 -33 -55
t-47.5 -52t-61.5 -42.5t-73.5 -29.5t-84.5 -11q-87 0 -148 36t-92.5 102.5t-31.5 158.5q0 66 13.5 132.5t42 126t72.5 106.5t104 73.5t138 26.5v0z" />
    <glyph glyph-name="D" unicode="D" horiz-adv-x="722" 
d="M76 0q-7 0 -11 5t-3 13l100 714q2 6 5 8t10 2h151q120 0 197.5 -33.5t115.5 -97t38 -156.5q0 -144 -51 -245.5t-151 -155.5t-249 -54h-152v0zM234 72q123 0 199 45.5t111 132t35 209.5q0 78 -28.5 124t-85 66t-142.5 20h-62q-12 0 -14 -13l-78 -569q-1 -8 1.5 -11.5
t9.5 -3.5h54z" />
    <glyph glyph-name="E" unicode="E" horiz-adv-x="628" 
d="M163 731q1 7 3 9t8 2h452q10 0 7 -13l-7 -50q-1 -6 -3.5 -8.5t-10.5 -2.5h-352q-6 0 -8.5 -2t-3.5 -9l-34 -238q-1 -4 1 -6t7 -2h264q5 0 6.5 -2.5t0.5 -8.5l-8 -54q-1 -8 -11 -8h-262q-9 0 -11 -12l-34 -243q-1 -9 7 -9h369q7 0 9 -2t1 -9l-7 -54q-1 -6 -3 -7.5t-8 -1.5
h-460q-15 0 -13 17l101 714v0z" />
    <glyph glyph-name="F" unicode="F" horiz-adv-x="601" 
d="M163 730q1 8 3.5 10t8.5 2h441q11 0 8 -11l-7 -52q-1 -6 -3 -8.5t-10 -2.5h-344q-6 0 -8.5 -2.5t-3.5 -10.5l-35 -245q-1 -6 0.5 -8.5t7.5 -2.5h270q5 0 7 -1.5t1 -6.5l-6 -54q-1 -5 -3.5 -7.5t-8.5 -2.5h-270q-6 0 -8 -2.5t-4 -10.5l-42 -303q-1 -7 -4 -9t-10 -2h-72
q-8 0 -9.5 3.5t0.5 13.5l101 713v0z" />
    <glyph glyph-name="G" unicode="G" horiz-adv-x="739" 
d="M340 -10q-85 0 -144.5 35.5t-90.5 101.5t-31 158q0 93 24.5 177t72 149.5t116 103t157.5 37.5q70 0 125.5 -29t88 -75.5t32.5 -100.5q0 -11 -6 -12l-76 -12q-4 -1 -5.5 3t-2.5 13q-3 39 -22.5 70.5t-54.5 50.5t-83 19q-70 0 -120 -34.5t-83 -92.5t-48.5 -130t-15.5 -147
q0 -107 44.5 -159.5t130.5 -52.5q50 0 88.5 17.5t67 44.5t46 59t24.5 62l9 59q3 9 -9 9h-164q-9 0 -8 10l6 46q1 7 7 7l255 -1q6 0 8.5 -2.5t1.5 -7.5l-50 -355q-1 -11 -14 -11h-22q-13 0 -14 12l2 93q0 6 -3.5 5.5t-8.5 -6.5q-21 -30 -53.5 -56.5t-77 -42t-99.5 -15.5v0z
" />
    <glyph glyph-name="H" unicode="H" horiz-adv-x="735" 
d="M213 347q-4 0 -6.5 -3t-3.5 -8l-46 -324q-1 -7 -4 -9.5t-12 -2.5h-67q-9 0 -11.5 3.5t-1.5 10.5l102 717q1 7 3 9t8 2h75q6 0 8 -3t0 -10l-41 -295q-1 -7 1 -9t8 -2h330q5 0 7.5 4t3.5 10l42 295q1 6 3.5 8t7.5 2h75q6 0 8.5 -3.5t0.5 -12.5l-100 -714q-1 -7 -3.5 -9.5
t-10.5 -2.5h-68q-8 0 -11.5 3.5t-2.5 11.5l46 325q1 7 -8 7h-332z" />
    <glyph glyph-name="I" unicode="I" horiz-adv-x="290" 
d="M248 742q12 0 9 -15l-100 -713q-1 -9 -4 -11.5t-13 -2.5h-65q-9 0 -11.5 4.5t-1.5 12.5l101 714q1 7 3 9t8 2h74z" />
    <glyph glyph-name="J" unicode="J" horiz-adv-x="418" 
d="M311 160q-8 -56 -29.5 -94t-59 -57t-93.5 -19q-40 0 -68.5 9t-41.5 13q-8 3 -11 6t-1 9l18 57q2 5 5 6.5t10 -1.5q12 -5 31 -10.5t45 -5.5q47 0 70 26.5t33 88.5l76 544q1 6 3 8t8 2h75q11 0 8 -15l-78 -567v0z" />
    <glyph glyph-name="K" unicode="K" horiz-adv-x="701" 
d="M618 14q7 -14 -5 -14h-82q-11 0 -14 11l-170 370q-2 5 -5.5 2.5t-8.5 -8.5l-134 -131q-4 -4 -7.5 -8t-4.5 -11l-30 -213q-1 -6 -4 -9t-12 -3h-67q-7 0 -10 4.5t-2 11.5l101 716q1 6 3 8t7 2h74q6 0 9 -4t2 -10l-52 -367q-1 -7 1 -5l7 7l380 371q5 5 10 6.5t13 1.5h74
q9 0 9.5 -4t-4.5 -9l-272 -263q-3 -3 -5 -5.5t-1 -7.5l200 -439v0z" />
    <glyph glyph-name="L" unicode="L" horiz-adv-x="602" 
d="M162 730q2 12 13 12h75q10 0 7 -15l-89 -642q-3 -11 7 -11h347q11 0 10 -13l-7 -52q-1 -6 -3 -7.5t-8 -1.5h-439q-16 0 -13 17l100 713v0z" />
    <glyph glyph-name="M" unicode="M" horiz-adv-x="906" 
d="M71 0q-7 0 -9 3t0 14l101 714q1 7 3 9t8 2h98q7 0 9.5 -2.5t4.5 -8.5l143 -574q2 -9 6 -8t8 10l304 572q5 11 15 11h103q11 0 9 -12l-100 -717q-2 -8 -4.5 -10.5t-10.5 -2.5h-67q-7 0 -11.5 3.5t-2.5 12.5l79 564q2 5 0 5t-4 -4l-301 -570q-3 -7 -6.5 -9t-11.5 -2h-53
q-6 0 -9 2.5t-6 11.5l-136 563q-2 6 -4 6t-3 -5l-80 -568q-1 -5 -3.5 -7.5t-9.5 -2.5h-59v0z" />
    <glyph glyph-name="N" unicode="N" horiz-adv-x="757" 
d="M716 742q10 0 9 -12l-101 -720q-1 -10 -12 -10h-49q-6 0 -11 2t-9 9l-308 560q-4 7 -8 6t-5 -10l-78 -556q-1 -6 -3.5 -8.5t-10.5 -2.5h-58q-6 0 -9 4t-2 11l102 716q1 7 3 9t9 2h58q7 0 11 -2.5t7 -9.5l299 -548q5 -8 10.5 -7t6.5 11l76 546q2 6 4 8t8 2h61z" />
    <glyph glyph-name="O" unicode="O" horiz-adv-x="764" 
d="M347 -10q-87 0 -148 34t-93 99.5t-32 158.5q0 21 1.5 44t4.5 46q18 122 67.5 206.5t126.5 129t173 44.5q86 0 147 -35t93 -101t32 -162q0 -20 -1.5 -42.5t-4.5 -46.5q-17 -120 -66.5 -204t-125.5 -127.5t-174 -43.5v0zM352 63q109 0 174.5 76t87.5 234q4 27 5.5 52
t1.5 47q0 105 -44 156t-132 51q-108 0 -175.5 -77.5t-90.5 -237.5q-4 -26 -5.5 -50t-1.5 -45q0 -104 45 -155t135 -51v0z" />
    <glyph glyph-name="P" unicode="P" horiz-adv-x="690" 
d="M210 310q-5 0 -8.5 -3t-4.5 -9l-40 -286q-1 -7 -4 -9.5t-10 -2.5h-71q-13 0 -10 15l101 714q1 8 3 10.5t8 2.5h252q72 0 128.5 -19.5t89 -59.5t32.5 -105q0 -81 -38 -136t-104.5 -83.5t-152.5 -28.5h-171zM577 559q0 61 -43.5 85.5t-118.5 24.5h-153q-6 0 -9.5 -3
t-4.5 -10l-37 -260q-1 -8 1 -10.5t7 -2.5h158q62 0 106.5 21t69 60t24.5 95v0z" />
    <glyph glyph-name="Q" unicode="Q" horiz-adv-x="765" 
d="M80 373q18 122 67.5 207t126 128.5t173.5 43.5q86 0 147 -34.5t93 -100.5t32 -161q0 -21 -1 -44t-5 -47q-17 -121 -63.5 -200.5t-119.5 -125.5q-10 -6 -9 -13q2 -12 18 -28.5t41.5 -29.5t56.5 -18q6 -1 8 -3.5t1 -7.5l-7 -51q-2 -8 -7.5 -10t-18.5 -2q-25 0 -56 11.5
t-61 37.5t-55 71q-4 6 -16 3q-19 -4 -39.5 -6.5t-38.5 -2.5q-86 0 -147 33.5t-93.5 99t-32.5 161.5q0 20 1.5 43t4.5 46v0zM179 363q-4 -27 -5.5 -51t-1.5 -45q0 -105 45 -154.5t133 -49.5q109 0 175.5 75.5t88.5 234.5q4 27 6 51.5t2 45.5q0 104 -44 156.5t-133 52.5
q-110 0 -177 -79t-89 -237v0z" />
    <glyph glyph-name="R" unicode="R" horiz-adv-x="696" 
d="M592 17q6 -17 -11 -17h-74q-6 0 -9.5 3.5t-5.5 10.5l-85 315q-1 5 -4.5 7t-12.5 2h-176q-11 0 -12 -12l-45 -312q-1 -9 -4.5 -11.5t-12.5 -2.5h-65q-8 0 -11 4.5t-2 11.5l101 715q1 7 3 9t8 2h279q108 0 166.5 -42t58.5 -121q0 -55 -21 -100t-59.5 -77t-90.5 -47
q-7 -3 -9.5 -5.5t-1.5 -5.5l96 -327v0zM378 408q61 0 106 17.5t69.5 53t24.5 92.5q0 52 -34.5 76.5t-102.5 24.5h-179q-11 0 -14 -12l-34 -242q-1 -5 1 -7.5t6 -2.5h157v0z" />
    <glyph glyph-name="S" unicode="S" horiz-adv-x="641" 
d="M548 608q-23 30 -62.5 50.5t-99.5 20.5q-52 0 -93 -18t-64.5 -50t-23.5 -76q0 -17 8 -34.5t28.5 -34t54.5 -29.5l139 -51q76 -27 109.5 -66.5t33.5 -96.5q0 -75 -38.5 -127.5t-105 -79t-149.5 -26.5q-93 0 -155 32.5t-97 96.5q-3 7 -2.5 12.5t8.5 9.5l38 24q8 5 14 3.5
t11 -8.5q23 -33 47 -55t57.5 -33t85.5 -11q56 0 99 15t68 47t25 82q0 31 -21 54.5t-78 44.5l-144 55q-69 25 -98.5 68t-29.5 93q0 53 21.5 95.5t60 73t89 47t107.5 16.5q52 0 93.5 -13t74 -35.5t55.5 -53.5q6 -7 6.5 -10.5t-5.5 -7.5l-49 -34q-4 -2 -7.5 0.5t-10.5 9.5v0z
" />
    <glyph glyph-name="T" unicode="T" horiz-adv-x="645" 
d="M107 733q2 6 3.5 7.5t8.5 1.5h542q6 0 7.5 -2.5t0.5 -7.5l-8 -54q-1 -5 -3.5 -7t-9.5 -2h-201q-7 0 -10 -2.5t-4 -9.5l-91 -645q-1 -8 -3.5 -10t-7.5 -2h-73q-8 0 -10.5 3.5t-0.5 11.5l91 642q1 12 -11 12h-217q-11 0 -10 10z" />
    <glyph glyph-name="U" unicode="U" horiz-adv-x="709" 
d="M619 245q-13 -90 -51 -146.5t-100.5 -82.5t-148.5 -26q-122 0 -179.5 52t-57.5 155q0 16 1.5 33.5t4.5 35.5l65 464q1 7 3.5 9.5t7.5 2.5h72q7 0 10.5 -4t1.5 -11l-68 -486q-1 -12 -2.5 -22.5t-1.5 -21.5q0 -68 38.5 -100.5t114.5 -32.5q60 0 103.5 20t70.5 61t36 104
l68 483q1 6 3 8t7 2h59q6 0 8.5 -4t2.5 -11l-68 -482v0z" />
    <glyph glyph-name="V" unicode="V" horiz-adv-x="707" 
d="M722 742q13 0 7 -14l-356 -715q-4 -8 -8.5 -10.5t-13.5 -2.5h-68q-10 0 -15 2.5t-7 10.5l-150 716q-2 13 11 13h71q12 0 14 -14l124 -604q3 -18 12 -2l299 611q3 6 6.5 7.5t8.5 1.5h65v0z" />
    <glyph glyph-name="W" unicode="W" horiz-adv-x="1045" 
d="M1055 742q10 0 11.5 -5t-1.5 -15l-307 -709q-4 -8 -8 -10.5t-14 -2.5h-61q-9 0 -14.5 3.5t-7.5 10.5l-80 565q-1 5 -3 5t-4 -5l-244 -566q-3 -8 -7.5 -10.5t-14.5 -2.5h-63q-19 0 -20 15l-104 711q-1 8 2 12t12 4h64q9 0 12 -3.5t4 -10.5l82 -580q2 -9 5 -9t7 9l249 585
q2 6 5 7.5t13 1.5h58q8 0 11 -3.5t4 -10.5l83 -583q1 -8 4 -7.5t7 9.5l248 586q3 6 6.5 7.5t10.5 1.5h55v0z" />
    <glyph glyph-name="X" unicode="X" horiz-adv-x="688" 
d="M602 19q6 -11 4.5 -15t-10.5 -4h-76q-5 0 -8.5 1.5t-6.5 7.5l-150 287q-4 8 -8 8.5t-10 -7.5l-233 -291q-3 -3 -7.5 -4.5t-10.5 -1.5h-70q-8 0 -9 5.5t8 17.5l278 345q7 7 8.5 12.5t-2.5 12.5l-177 337q-2 5 -1.5 8.5t6.5 3.5h81q7 0 10 -2t5 -7l139 -268q6 -12 15 0
l217 270q3 5 6.5 6t9.5 1h76q7 0 7 -5.5t-4 -10.5l-271 -334q-5 -5 -5.5 -9t1.5 -9l188 -355v0z" />
    <glyph glyph-name="Y" unicode="Y" horiz-adv-x="675" 
d="M692 742q7 0 9 -4.5t-2 -10.5l-295 -399q-4 -6 -6.5 -12t-4.5 -21l-40 -280q-1 -9 -5.5 -12t-14.5 -3h-64q-9 0 -11 4t-1 11l40 280q2 11 1 15.5t-3 11.5l-185 406q-3 7 -1.5 10.5t10.5 3.5h73q9 0 12.5 -3.5t6.5 -10.5l141 -320q8 -18 21 0l232 324q5 6 8.5 8t12.5 2h66
v0z" />
    <glyph glyph-name="Z" unicode="Z" horiz-adv-x="631" 
d="M25 0q-7 0 -10.5 3t-2.5 10l3 25q1 7 3.5 12.5t8.5 13.5l475 596q3 5 2.5 6.5t-5.5 1.5h-366q-13 0 -11 14l7 52q1 5 2.5 6.5t6.5 1.5h501q10 0 9 -11l-4 -28q-1 -6 -2.5 -9.5t-6.5 -9.5l-481 -602q-7 -7 1 -7h389q5 0 7.5 -2t1.5 -7l-8 -57q-1 -5 -3 -7t-8 -2h-509v0z
" />
    <glyph glyph-name="bracketleft" unicode="[" horiz-adv-x="287" 
d="M47 -165q-7 0 -11.5 4.5t-3.5 10.5l123 884q1 5 3.5 6.5t9.5 1.5h160q5 0 7.5 -2.5t1.5 -7.5l-5 -40q-1 -5 -2.5 -5.5t-5.5 -0.5h-86q-6 0 -10.5 -4.5t-5.5 -11.5l-109 -771q-1 -6 0 -7t7 -1h86q6 0 8.5 -3.5t2.5 -8.5l-5 -36q-1 -5 -2.5 -6.5t-7.5 -1.5h-155v0z" />
    <glyph glyph-name="backslash" unicode="\" horiz-adv-x="342" 
d="M235 -43q-14 0 -15 15l-141 756q-2 8 -0.5 11t8.5 3h43q5 0 9 -3.5t3 -7.5l144 -768q1 -4 0 -5t-7 -1h-44v0z" />
    <glyph glyph-name="bracketright" unicode="]" horiz-adv-x="287" 
d="M-34 -165q-5 0 -7.5 2.5t-1.5 7.5l5 40q1 5 2.5 5.5t5.5 0.5h86q6 0 10.5 4.5t4.5 11.5l110 771q1 7 -0.5 7.5t-7.5 0.5h-85q-6 0 -9 3.5t-2 8.5l5 36q1 6 2.5 7t7.5 1h155q8 0 12 -4.5t3 -10.5l-124 -884q-1 -5 -2.5 -6.5t-9.5 -1.5h-160v0z" />
    <glyph glyph-name="asciicircum" unicode="^" horiz-adv-x="476" 
d="M267 425q-2 6 -6.5 4t-6.5 -8l-154 -282q-2 -5 -5 -5h-8h-46q-5 0 -7.5 5t0.5 11l197 356q12 23 27.5 30.5t29.5 -1t20 -33.5l98 -359q2 -6 0.5 -8.5t-7.5 -2.5h-44q-5 0 -10 3t-6 8z" />
    <glyph glyph-name="underscore" unicode="_" horiz-adv-x="518" 
d="M404 -106q-1 -7 -4.5 -9t-11.5 -2l-366 -1q-7 0 -10 4t-2 10l6 45q1 5 2.5 7t5.5 2h376q4 0 7.5 -3.5t2.5 -8.5z" />
    <glyph glyph-name="grave" unicode="`" horiz-adv-x="285" 
d="M93 745q2 4 5 5t7 -1l217 -94q4 -2 6 -5.5t0 -9.5l-12 -24q-2 -5 -5 -5.5t-10 1.5l-219 69q-9 3 -11 7t1 10l21 47v0z" />
    <glyph glyph-name="a" unicode="a" horiz-adv-x="548" 
d="M358 62q-41 -37 -87.5 -54.5t-98.5 -17.5q-72 0 -112 34.5t-40 91.5q0 53 25.5 89.5t67.5 60t93.5 35t101.5 14.5l79 6q19 2 21 17l4 27q1 6 1.5 11t0.5 11q0 44 -28.5 68.5t-78.5 24.5q-44 0 -83.5 -20t-73.5 -62q-3 -4 -5.5 -4.5t-8.5 1.5l-51 18q-4 2 -5.5 6t3.5 14
q36 49 94.5 78t135.5 29q61 0 101.5 -17.5t60.5 -49.5t20 -76q0 -7 -0.5 -14.5t-1.5 -15.5l-49 -355q-2 -8 -4 -10t-10 -2h-50q-7 0 -10 4.5t-3 11.5l5 48q-1 13 -14 -2v0zM396 257q2 8 -0.5 11t-9.5 2l-69 -6q-30 -2 -66.5 -9t-69.5 -21.5t-54.5 -40t-21.5 -65.5
q0 -35 26 -55.5t72 -20.5q34 0 65.5 12t56.5 30q26 19 42 39.5t18 39.5z" />
    <glyph glyph-name="b" unicode="b" 
d="M57 0q-8 0 -11.5 5t-2.5 14l100 712q1 6 3.5 8.5t7.5 2.5h64q6 0 7.5 -4.5t0.5 -11.5l-34 -243q-1 -9 2 -9t10 7q11 8 33.5 22t56.5 25.5t77 11.5q64 0 104 -27t59.5 -74.5t19.5 -109.5q0 -59 -15.5 -119t-48 -109.5t-83.5 -80t-121 -30.5q-45 0 -76 14.5t-49 33
t-27 32.5q-3 5 -7 3.5t-6 -9.5l-12 -50q-1 -8 -4.5 -11t-13.5 -3h-34zM149 177q-5 -36 11 -65t45.5 -45.5t64.5 -16.5q52 0 89 25.5t61.5 67.5t36 91t11.5 95q0 72 -30.5 111t-93.5 39q-47 0 -89.5 -22.5t-72.5 -53.5z" />
    <glyph glyph-name="c" unicode="c" horiz-adv-x="542" 
d="M332 540q53 0 90.5 -17.5t62.5 -46.5t38 -65q2 -5 1 -7.5t-6 -4.5l-55 -12q-4 -1 -6.5 2.5t-5.5 9.5q-16 27 -33 44.5t-37 26t-46 8.5q-51 0 -89.5 -24t-64.5 -63.5t-39.5 -86t-13.5 -93.5q0 -75 38 -117t105 -42q49 0 88 23.5t75 72.5q5 5 12 1l40 -16q4 -1 6 -5.5
t-1 -11.5q-18 -25 -41 -48.5t-52 -40.5t-63 -27t-74 -10q-67 0 -116 28t-75.5 79.5t-26.5 119.5q0 60 19.5 117.5t57 104t91 74t121.5 27.5v0z" />
    <glyph glyph-name="d" unicode="d" 
d="M419 0q-7 0 -11.5 3.5t-2.5 10.5l6 43q2 8 -1 8t-11 -7q-12 -10 -34.5 -26.5t-54.5 -29t-75 -12.5q-84 0 -138 53.5t-54 157.5q0 61 18 121t53 109.5t86 79t117 29.5q51 0 81.5 -17.5t51.5 -38.5q8 -8 13 -5.5t7 17.5l33 235q2 6 4.5 8.5t8.5 2.5h61q11 0 10 -15
l-101 -713q-1 -9 -4.5 -11.5t-12.5 -2.5h-50zM460 415q-26 31 -56 47t-69 16q-51 0 -90 -25t-65 -66t-39 -89.5t-13 -94.5q0 -53 18 -87t48.5 -49.5t68.5 -15.5q41 0 76.5 19.5t58.5 48t27 55.5z" />
    <glyph glyph-name="e" unicode="e" horiz-adv-x="581" 
d="M265 -10q-67 0 -117.5 28t-77.5 78.5t-27 118.5q0 62 20 120t58 104t92 73.5t121 27.5q65 0 112 -25.5t72.5 -74.5t25.5 -118q0 -14 -1 -28.5t-3 -29.5q-1 -8 -6 -12.5t-15 -4.5h-379q-8 0 -11 -9.5t-3 -35.5q0 -69 41.5 -108.5t106.5 -39.5q53 0 94.5 21t74.5 63
q4 4 8 3.5t7 -2.5l39 -21q11 -6 4 -17q-33 -40 -69 -64t-77 -35.5t-90 -11.5v0zM443 300q10 0 16 8t6 37q0 59 -35 97t-97 38q-53 0 -94.5 -26t-67 -67.5t-31.5 -86.5h303z" />
    <glyph glyph-name="f" unicode="f" horiz-adv-x="379" 
d="M382 530q5 0 7.5 -2.5t1.5 -7.5l-6 -44q-2 -9 -10 -9h-116q-7 0 -9 -10l-63 -445q-1 -8 -3 -10t-8 -2h-62q-5 0 -8.5 4.5t-2.5 10.5l63 446q2 6 -5 6h-99q-5 0 -7 4t-1 8l6 43q1 5 2.5 6.5t7.5 1.5h95q5 0 8.5 3.5t4.5 8.5l10 74q9 63 43.5 94.5t97.5 31.5h84q6 0 9.5 -3
t2.5 -9l-5 -41q-1 -8 -11 -8h-69q-32 0 -49 -19t-21 -53l-11 -71q-1 -8 8 -8h115v0z" />
    <glyph glyph-name="g" unicode="g" horiz-adv-x="602" 
d="M215 -175q-114 0 -174.5 34.5t-60.5 92.5q0 42 29.5 74t75.5 52q8 3 10 6.5t-5 6.5q-18 11 -26.5 23t-8.5 29q0 21 13.5 37t33.5 27.5t39 18.5q8 2 10.5 6.5t-4.5 6.5q-34 18 -51.5 45t-17.5 64q0 47 19.5 82.5t52.5 59.5t75 36t88 12q64 0 100.5 -14.5t55.5 -33.5
q5 -4 11.5 -1.5t11.5 8.5q14 11 30 20.5t34.5 15.5t33.5 6q12 0 17 -3.5t3 -12.5l-4 -34q-2 -10 -5.5 -14t-12.5 -4q-19 -1 -32 -3.5t-24 -6.5q-31 -11 -26 -25q3 -8 6 -19.5t3 -28.5q0 -47 -20 -81t-54 -55.5t-76 -32t-86 -10.5q-10 0 -33 -1.5t-48.5 -6t-43.5 -14
t-18 -25.5q0 -14 20 -20t65 -9l127 -7q80 -5 117.5 -37t37.5 -89q0 -40 -16.5 -69.5t-45 -49.5t-65 -32.5t-78 -18t-83.5 -5.5v0zM218 -123q38 0 75 5.5t66 18t46.5 35t17.5 55.5q0 31 -19.5 46t-69.5 18l-163 10q-30 -7 -56 -20.5t-42 -34t-16 -48.5q0 -45 42.5 -65
t118.5 -20v0zM281 262q42 0 77.5 13.5t57.5 43t22 76.5q0 43 -31 66.5t-93 23.5q-41 0 -77.5 -15.5t-59 -45.5t-22.5 -76q0 -41 33.5 -63.5t92.5 -22.5v0z" />
    <glyph glyph-name="h" unicode="h" horiz-adv-x="584" 
d="M56 0q-7 0 -11 4.5t-3 11.5l101 716q2 6 4.5 8t7.5 2h59q12 0 10 -13l-37 -258q-1 -12 7 -7q40 26 71.5 43t60.5 25t62 8q72 0 108 -34.5t36 -91.5q0 -7 -0.5 -14t-1.5 -14l-53 -373q-1 -8 -3.5 -10.5t-10.5 -2.5h-56q-16 0 -13 16l50 356q1 7 1.5 13t0.5 12q0 37 -21 57
t-67 20q-31 0 -58 -9.5t-55.5 -28t-64.5 -45.5l-54 -379q-1 -7 -4 -9.5t-11 -2.5h-55z" />
    <glyph glyph-name="i" unicode="i" horiz-adv-x="239" 
d="M126 14q-1 -9 -4 -11.5t-14 -2.5h-51q-9 0 -12.5 4.5t-2.5 12.5l71 502q1 7 3 9t8 2h63q6 0 8.5 -4t1.5 -11zM218 642q-2 -9 -5 -13t-14 -4h-61q-8 0 -10.5 5.5t-0.5 13.5l12 83q2 15 15 15h65q5 0 8.5 -5t1.5 -13z" />
    <glyph glyph-name="j" unicode="j" horiz-adv-x="239" 
d="M120 -31q-10 -72 -44 -105.5t-111 -33.5q-45 0 -57 3.5t-11 12.5l6 43q1 4 3 6.5t6 3.5l52 2q32 2 49.5 19t23.5 59l76 540q2 6 4 8.5t8 2.5h61q6 0 9 -4.5t2 -10.5l-77 -546v0zM218 642q-2 -9 -5 -13t-14 -4h-61q-8 0 -10.5 5.5t-0.5 13.5l12 83q2 15 15 15h65
q5 0 8.5 -5t1.5 -13z" />
    <glyph glyph-name="k" unicode="k" horiz-adv-x="564" 
d="M498 14q3 -6 2 -10t-9 -4h-70q-6 0 -10 4t-6 10l-116 258q-3 8 -11 0l-122 -108q-4 -4 -7 -9t-5 -11l-18 -130q-1 -9 -4 -11.5t-13 -2.5h-51q-10 0 -13.5 4.5t-2.5 12.5l101 714q2 7 4 9t7 2h63q6 0 8.5 -4t0.5 -11l-64 -465q-1 -7 0 -6.5t8 6.5l283 258q7 6 12 8t10 2
h61q11 0 13 -6.5t-6 -14.5l-182 -161q-4 -3 -6 -7t-1 -10l144 -317v0z" />
    <glyph glyph-name="l" unicode="l" horiz-adv-x="239" 
d="M126 14q-1 -9 -4 -11.5t-13 -2.5h-52q-9 0 -12.5 4.5t-2.5 12.5l102 714q1 7 3 9t8 2h62q12 0 9 -14z" />
    <glyph glyph-name="m" unicode="m" horiz-adv-x="906" 
d="M56 0q-7 0 -11 4.5t-3 11.5l71 504q1 6 3 8t7 2h62q7 0 8.5 -3t0.5 -9l-7 -51q-2 -10 6 -5q37 25 66.5 42.5t59 26.5t61.5 9q61 0 92.5 -27t37.5 -62q1 -4 5.5 -1t11.5 8q36 26 67 44.5t61 28t63 9.5q66 0 101 -34.5t35 -92.5q0 -7 -0.5 -13.5t-1.5 -14.5l-53 -372
q-1 -8 -3.5 -10.5t-10.5 -2.5h-57q-15 0 -12 16l50 354q1 7 1.5 14.5t0.5 13.5q0 36 -19.5 56t-61.5 20q-30 0 -58.5 -11.5t-52 -27.5t-42.5 -31q-8 -7 -13.5 -13.5t-7.5 -16.5l-51 -361q-1 -8 -4 -10.5t-10 -2.5h-56q-6 0 -10 4.5t-3 11.5l50 356q7 49 -11.5 75.5
t-66.5 26.5q-30 0 -56 -9.5t-53 -28t-62 -45.5l-54 -379q-1 -7 -4 -9.5t-12 -2.5h-54v0z" />
    <glyph glyph-name="n" unicode="n" horiz-adv-x="584" 
d="M53 0q-6 0 -9 4.5t-2 11.5l71 504q1 6 3 8t7 2h63q5 0 7.5 -2t0.5 -9l-8 -57q-1 -11 8 -3q48 38 95.5 59.5t98.5 21.5q70 0 107 -35t37 -92q0 -6 -0.5 -12.5t-1.5 -14.5l-53 -373q-1 -8 -4 -10.5t-11 -2.5h-58q-6 0 -9 4.5t-1 11.5l50 355q1 7 1.5 13.5t0.5 11.5
q0 38 -21 58t-67 20q-31 0 -58 -9.5t-55.5 -28t-64.5 -45.5l-54 -379q-1 -7 -4 -9.5t-12 -2.5h-57v0z" />
    <glyph glyph-name="o" unicode="o" 
d="M264 -10q-68 0 -118 28t-76.5 79.5t-26.5 118.5q0 70 23 129.5t63 103t93.5 67.5t112.5 24q69 0 118 -29t75.5 -81t26.5 -121q0 -92 -39 -164.5t-105 -113.5t-147 -41v0zM267 53q58 0 104 33t72.5 93t26.5 143q0 73 -35.5 114.5t-101.5 41.5q-56 0 -103 -33.5t-74.5 -94
t-27.5 -142.5q0 -72 36.5 -113.5t102.5 -41.5v0z" />
    <glyph glyph-name="p" unicode="p" horiz-adv-x="597" 
d="M28 -165q-5 0 -7.5 4.5t-1.5 10.5l94 667q1 8 3.5 10.5t12.5 2.5h52q7 0 11 -3.5t3 -10.5l-7 -43q-1 -6 3 -6t11 6q12 10 33 26t53 28.5t77 12.5q83 0 136 -52.5t53 -157.5q0 -58 -16.5 -118.5t-50 -110t-84 -80.5t-119.5 -31q-48 0 -82 16t-54 38q-9 8 -13.5 3.5
t-6.5 -16.5l-25 -186q-1 -6 -3 -8t-8 -2h-64v0zM263 51q51 0 90 25.5t64.5 66.5t38.5 90t13 96q0 53 -18 86t-48 48.5t-67 15.5q-42 0 -77.5 -18.5t-58 -46t-25.5 -53.5l-36 -246q26 -30 55.5 -47t68.5 -17v0z" />
    <glyph glyph-name="q" unicode="q" 
d="M388 -165q-10 0 -8 16l26 181q2 10 0 11.5t-12 -5.5q-30 -20 -70 -34t-84 -14q-94 0 -145 59t-51 160q0 56 15.5 114t48 107.5t83.5 79.5t121 30q52 0 82.5 -13t47.5 -30.5t25 -30.5q4 -5 8 -3.5t7 11.5l14 42q3 9 6.5 11.5t12.5 2.5h31q8 0 10.5 -4t0.5 -15l-94 -665
q-1 -7 -4.5 -9t-9.5 -2h-61v0zM264 51q41 0 81 18t71 48l35 236q5 34 -9 63.5t-43 47t-69 17.5q-50 0 -87.5 -24.5t-62.5 -65.5t-37.5 -88t-12.5 -94q0 -77 37 -117.5t97 -40.5v0z" />
    <glyph glyph-name="r" unicode="r" horiz-adv-x="383" 
d="M56 0q-7 0 -11 4.5t-3 11.5l71 504q1 6 3 8t7 2h59q6 0 9 -3t2 -11l-9 -57q-1 -7 2 -8t8 4q30 30 58 49t55 27.5t51 8.5q20 0 29 -3t8 -10l-8 -59q-1 -5 -2.5 -7t-4.5 -1q-10 1 -21.5 1.5t-23.5 0.5q-22 0 -49 -10t-52 -27t-42 -38.5t-20 -43.5l-46 -331q-1 -7 -4 -9.5
t-12 -2.5h-54v0z" />
    <glyph glyph-name="s" unicode="s" horiz-adv-x="512" 
d="M218 -10q-82 0 -138 32.5t-74 81.5q-5 10 4 15l39 20q6 3 10 2t7 -7q18 -37 55 -60t97 -23q20 0 46 4.5t50.5 15.5t40.5 29t16 46q0 24 -20.5 43t-67.5 32l-99 28q-64 19 -91.5 48.5t-27.5 69.5q0 55 32 94t83 59t109 20q69 0 117 -26.5t71 -70.5q3 -4 2 -7.5t-6 -6.5
l-38 -19q-4 -2 -7.5 -0.5t-8.5 7.5q-17 29 -50.5 46.5t-82.5 17.5q-30 0 -63 -10t-55.5 -30.5t-22.5 -52.5q0 -19 14.5 -35t56.5 -30l121 -37q59 -16 86.5 -49.5t27.5 -75.5q0 -43 -21 -75t-55 -53.5t-75 -32t-82 -10.5v0z" />
    <glyph glyph-name="t" unicode="t" horiz-adv-x="387" 
d="M213 0q-55 0 -82.5 22.5t-27.5 69.5q0 8 0.5 16.5t1.5 16.5l47 334q1 5 -1.5 6.5t-7.5 1.5h-82q-8 0 -7 13l6 43q1 5 2.5 6t6.5 1h85q4 0 7 3.5t3 7.5l34 159q2 10 13 10h51q6 0 8 -3.5t1 -12.5l-23 -156q-1 -4 1 -6t6 -2h125q5 0 8.5 -2.5t2.5 -6.5l-6 -45q-1 -5 -3 -7
t-8 -2h-127q-9 0 -12 -11l-44 -316q-1 -8 -1.5 -15t-0.5 -13q0 -30 13.5 -39.5t40.5 -9.5h69q5 0 8 -4t3 -9l-6 -34q-1 -10 -10 -12q-11 -2 -29 -2.5l-36 -1t-29 -0.5v0z" />
    <glyph glyph-name="u" unicode="u" horiz-adv-x="579" 
d="M195 -10q-64 0 -103.5 35.5t-39.5 95.5v11.5t1 12.5l53 372q1 8 4 10.5t10 2.5h56q8 0 11.5 -4.5t1.5 -11.5l-49 -351q-1 -6 -1.5 -12t-0.5 -10q0 -45 22.5 -65t63.5 -20q45 0 88 24.5t88 64.5l53 373q2 8 5 10t11 2h55q8 0 11.5 -4.5t2.5 -11.5l-72 -504q-1 -5 -3 -7.5
t-8 -2.5h-58q-6 0 -9 2.5t-2 8.5l8 56q1 6 -1.5 7t-8.5 -4q-61 -47 -105 -63.5t-84 -16.5v0z" />
    <glyph glyph-name="v" unicode="v" horiz-adv-x="547" 
d="M544 530q7 0 10 -5.5t0 -11.5l-274 -500q-4 -8 -9 -10.5t-14 -2.5h-36q-9 0 -15.5 4.5t-7.5 11.5l-134 501q-2 13 11 13h62q6 0 10.5 -4t4.5 -9l102 -393q5 -18 16 5l212 393q5 8 15 8h47v0z" />
    <glyph glyph-name="w" unicode="w" horiz-adv-x="796" 
d="M790 530q7 0 10 -5.5t1 -11.5l-225 -502q-2 -7 -6 -9t-12 -2h-48q-20 0 -20 15l-67 374q-2 9 -5.5 7t-6.5 -11l-167 -374q-2 -7 -6 -9t-12 -2h-51q-19 0 -19 15l-89 502q-2 13 11 13h59q6 0 10.5 -4t4.5 -9l66 -389q2 -10 6 -7.5t8 12.5l174 389q3 8 13 8h47q6 0 10 -4
t4 -9l70 -389q2 -10 5.5 -7.5t7.5 12.5l170 389q6 8 17 8h40v0z" />
    <glyph glyph-name="x" unicode="x" horiz-adv-x="544" 
d="M474 18q7 -11 6 -14.5t-10 -3.5h-70q-7 0 -11.5 3.5t-6.5 7.5l-115 193q-4 8 -7.5 6.5t-10.5 -9.5l-175 -194q-2 -4 -8.5 -5.5t-14.5 -1.5h-49q-10 0 -12 6.5t10 19.5l215 232q6 6 7.5 11t-1.5 11l-142 236q-3 5 -1.5 9.5t9.5 4.5h66q8 0 12 -3t6 -8l110 -183
q2 -5 6.5 -3.5t8.5 7.5l157 183q4 5 8 6t12 1h55q9 0 9.5 -5.5t-4.5 -10.5l-201 -226q-6 -6 -7.5 -11t1.5 -11l148 -248v0z" />
    <glyph glyph-name="y" unicode="y" horiz-adv-x="530" 
d="M43 -165q-28 0 -43 2t-14 11l5 39q1 7 8.5 10t24.5 3h60q22 0 42 14.5t35.5 35.5t22 43.5t2.5 39.5l-125 478q-4 19 11 19h68q11 0 13 -9l96 -388q2 -10 7 -10t12 12l200 382q3 7 7 10t9 3h48q13 0 5 -12l-300 -563q-19 -35 -39.5 -58.5t-44 -37t-50.5 -19t-60 -5.5v0z
" />
    <glyph glyph-name="z" unicode="z" horiz-adv-x="482" 
d="M6 0q-7 0 -9 2.5t-1 9.5l4 27q1 8 5 13.5t12 15.5l346 391q5 5 4 8.5t-9 3.5h-267q-6 0 -7.5 3t-0.5 10l6 37q1 5 4.5 7t7.5 2h371q7 0 7 -9l-5 -31q-1 -7 -4.5 -13t-10.5 -13l-347 -392q-5 -5 -3.5 -9t6.5 -4h294q11 0 9 -9l-6 -38q-1 -6 -3 -9t-9 -3h-394v0z" />
    <glyph glyph-name="braceleft" unicode="{" horiz-adv-x="305" 
d="M187 -165q-30 0 -53 8t-38.5 22t-22 33.5t-2.5 42.5l31 225q4 24 -4.5 46.5t-30 36.5t-57.5 14q-4 0 -6.5 3.5t-1.5 8.5l4 35q1 5 2 6t2 1q57 1 89.5 31t38.5 75l31 219q5 31 24 53.5t48.5 34.5t67.5 12h37q5 0 8 -2.5t2 -7.5l-6 -40q-1 -5 -2.5 -5.5t-5.5 -0.5h-25
q-26 0 -41.5 -7t-22.5 -19t-10 -30l-31 -221q-6 -38 -23.5 -63t-40.5 -37.5t-48 -15.5q-8 -1 -11 -3.5t2 -3.5q26 -2 47.5 -14t33 -37.5t5.5 -67.5l-31 -224q-4 -28 7.5 -40t48.5 -12h23q6 0 9 -3.5t2 -8.5l-5 -36q-1 -5 -2 -6.5t-8 -1.5h-34v0z" />
    <glyph glyph-name="bar" unicode="|" horiz-adv-x="261" 
d="M52 -165q-7 0 -10.5 4.5t-2.5 10.5l138 987q2 6 4 8t7 2h44q7 0 10 -4.5t1 -10.5l-138 -989q-1 -5 -2.5 -6.5t-7.5 -1.5h-43z" />
    <glyph glyph-name="braceright" unicode="}" horiz-adv-x="305" 
d="M-34 -165q-5 0 -7.5 2.5t-1.5 7.5l5 40q1 5 2.5 5.5t5.5 0.5h26q25 0 40.5 7t23.5 19.5t9 29.5l31 221q6 39 23.5 63.5t41 37.5t47.5 15q8 1 11 3.5t-2 3.5q-25 2 -47 14t-33.5 38t-5.5 67l31 224q4 29 -7 40.5t-49 11.5h-23q-6 0 -8.5 3.5t-2.5 8.5l5 36q1 6 2.5 7
t7.5 1h34q30 0 53.5 -8t38.5 -22t21.5 -33.5t2.5 -42.5l-31 -225q-3 -24 5 -46.5t29 -36.5t57 -14q4 0 7 -3.5t2 -8.5l-5 -35q-1 -5 -1.5 -6t-2.5 -1q-57 -1 -88.5 -31t-38.5 -75l-31 -219q-4 -31 -23 -53.5t-49 -34.5t-68 -12h-37v0z" />
    <glyph glyph-name="asciitilde" unicode="~" horiz-adv-x="568" 
d="M519 368q-18 -20 -50.5 -34.5t-74.5 -14.5q-31 0 -54 7.5t-42.5 18t-39.5 18t-45 7.5q-38 0 -65 -16t-47 -35q-5 -3 -8 -0.5t-4 8.5l-13 32q-1 5 -1 8.5t4 7.5q29 22 60 38.5t73 16.5q29 0 52 -8t43.5 -18t41.5 -18t45 -8q37 0 61 15t39 33q6 3 10 0.5t6 -9.5l11 -30
q4 -7 -2 -19v0z" />
    <glyph glyph-name="uni00A0" unicode="&#xa0;" horiz-adv-x="214" 
 />
    <glyph glyph-name="exclamdown" unicode="&#xa1;" horiz-adv-x="244" 
d="M197 427q-1 -5 -3 -6.5t-7 -1.5h-82q-5 0 -8 4t-2 10l12 85q1 7 3 9.5t11 2.5h69q11 0 15.5 -5t3.5 -13l-12 -85v0zM114 -157q0 -4 -2 -6t-6 -2h-83q-4 0 -7 4t-2 10l90 491q2 6 3.5 8t8.5 2h30q8 0 12.5 -4.5t2.5 -11.5l-47 -491v0z" />
    <glyph glyph-name="cent" unicode="&#xa2;" horiz-adv-x="558" 
d="M287 15q-1 -9 -4.5 -12t-13.5 -3h-30q-9 0 -12.5 5t-2.5 13l16 112q0 7 3.5 9.5t10.5 2.5h36q8 0 11 -4.5t2 -11.5l-16 -111v0zM372 615q-1 -9 -5 -12t-14 -3h-30q-9 0 -12.5 5.5t-2.5 13.5l16 111q1 8 4 10t11 2h36q7 0 10 -4.5t3 -10.5l-16 -112v0zM310 651
q53 0 90.5 -17.5t62.5 -46.5t38 -65q2 -5 1 -7.5t-6 -4.5l-55 -12q-4 -1 -6.5 2.5t-5.5 9.5q-16 27 -33 44.5t-37 26t-46 8.5q-51 0 -89.5 -24t-64.5 -63.5t-39.5 -86t-13.5 -93.5q0 -75 38 -117t105 -42q49 0 88 23.5t75 72.5q5 5 12 1l40 -16q4 -1 6 -5.5t-1 -11.5
q-18 -25 -41 -48.5t-52 -40.5t-63 -27t-74 -10q-67 0 -116 28t-75.5 79.5t-26.5 119.5q0 60 19.5 117.5t57 104t91 74t121.5 27.5v0z" />
    <glyph glyph-name="sterling" unicode="&#xa3;" horiz-adv-x="615" 
d="M-12 0q-6 0 -9 4t-2 10l7 52q1 5 2 6t6 1h30q40 -1 73 36.5t44 115.5q4 21 5.5 52t1.5 75q-1 2 -1.5 2h-3.5h-90q-3 0 -6 3t-2 7l6 40q1 4 2 5t4 1h77q4 0 8 3t4 7l-5 75q-4 61 14 108.5t52.5 80.5t79 50.5t92.5 17.5q45 0 84.5 -15t67 -40.5t35.5 -59.5q2 -3 0.5 -4
t-6.5 -3l-56 -19q-5 -1 -9.5 1.5t-5.5 7.5q-11 27 -35 42.5t-68 15.5q-36 0 -68.5 -14.5t-54 -42.5t-26.5 -67q-5 -34 -3 -73.5t5 -66.5q3 -4 7 -4h155q3 0 5.5 -3t2.5 -6l-6 -41q-1 -4 -2 -4.5t-5 -0.5h-142q-5 0 -9 -3.5t-4 -9.5q0 -27 -1.5 -54t-7.5 -57q-8 -44 -21 -74
t-26.5 -49t-23.5 -28q-5 -4 -6 -5t4 -1h175q50 0 85.5 18t57.5 60q4 3 7 3t7 -1l49 -13q4 -1 7.5 -5.5t0.5 -11.5q-31 -62 -86.5 -93t-129.5 -31h-342v0z" />
    <glyph glyph-name="currency" unicode="&#xa4;" horiz-adv-x="537" 
d="M260 183q-30 0 -55.5 8.5t-44.5 24.5q-6 2 -9.5 0.5t-6.5 -5.5l-51 -45q-6 -4 -10 -2t-9 6l-21 25q-4 5 -4.5 9t3.5 8l52 45q7 8 5 19q-10 21 -15 46t-1 55q5 28 16 54t28 50q8 6 4 11l-39 45q-3 4 -3.5 9t3.5 10l28 24q6 5 9.5 3.5t7.5 -6.5l40 -46q2 -2 5 -0.5t7 4.5
q25 13 52.5 20.5t53.5 7.5q30 0 55.5 -9t44.5 -25q6 -1 9 0.5t6 4.5l55 48q4 3 6.5 1t5.5 -5l26 -31q2 -4 3 -6.5t-1 -5.5l-57 -49q-6 -6 -4 -13q11 -20 16.5 -47t1.5 -57q-4 -27 -15 -54t-29 -50q-3 -1 -5 -3.5t1 -5.5l41 -48q3 -4 4 -7t-2 -6l-35 -30q-3 -3 -6 -1.5
t-5 4.5l-40 48q-4 2 -7 1t-5 -5q-26 -14 -53.5 -21.5t-55.5 -7.5v0zM263 249q36 0 67.5 18t53 47.5t25.5 62.5q5 33 -7 60t-37 43.5t-60 16.5q-36 0 -68 -18t-52.5 -47t-25.5 -63q-4 -32 8 -59.5t37 -44t59 -16.5v0z" />
    <glyph glyph-name="yen" unicode="&#xa5;" horiz-adv-x="609" 
d="M655 742q8 0 11 -5t-2 -11l-291 -392q-5 -6 -7 -12.5t-4 -20.5l-41 -286q-1 -9 -5 -12t-15 -3h-60q-9 0 -12.5 5t-2.5 12l39 281q2 11 1.5 15.5t-3.5 11.5l-184 403q-3 7 -1 10.5t11 3.5h75q9 0 13 -3.5t7 -10.5l140 -321q4 -9 7.5 -7.5t9.5 10.5l234 322q5 8 8.5 9
t12.5 1h59v0zM519 301q-1 -7 -4.5 -9t-11.5 -2l-381 -1q-7 0 -10.5 4t-2.5 10l4 32q2 6 3.5 7.5t5.5 1.5l391 1q4 0 7.5 -4t2.5 -8zM498 153q-1 -8 -4.5 -10t-11.5 -2h-381q-7 0 -10.5 4t-2.5 10l4 32q1 6 3 7.5t6 1.5l391 1q4 0 7.5 -4t2.5 -9z" />
    <glyph glyph-name="brokenbar" unicode="&#xa6;" horiz-adv-x="261" 
d="M136 437q-7 0 -10 4.5t-2 11.5l53 384q2 6 4 8t7 2h44q7 0 10 -4.5t1 -10.5l-54 -386q-1 -5 -2.5 -7t-7.5 -2h-43zM52 -165q-7 0 -10.5 4.5t-2.5 10.5l54 385q0 6 2 8t8 2h44q7 0 10 -4.5t2 -10.5l-54 -387q-1 -5 -2.5 -6.5t-7.5 -1.5h-43z" />
    <glyph glyph-name="section" unicode="&#xa7;" horiz-adv-x="488" 
d="M346 201q42 -25 62.5 -56.5t14.5 -75.5q-5 -41 -33.5 -73t-74.5 -50.5t-106 -18.5q-72 0 -126 31.5t-73 80.5q-3 5 -3.5 7.5t1.5 3.5l46 23q5 2 8.5 -0.5t5.5 -8.5q19 -32 55 -54t88 -22t90 21.5t43 60.5q4 25 -13.5 47.5t-74.5 45.5l-86 35q-65 27 -91.5 64.5
t-18.5 87.5q6 46 39.5 79t80.5 51q-36 22 -55 43t-23.5 44.5t-1.5 48.5q5 38 32.5 69.5t71.5 49t100 17.5q67 0 113 -29t64 -68q4 -4 4.5 -7t-3.5 -5l-43 -21q-6 -3 -10 0t-5 7q-19 26 -47.5 44t-68.5 18q-55 0 -89.5 -21.5t-39.5 -55.5q-2 -20 10.5 -40.5t61.5 -41.5
l80 -34q75 -32 104.5 -73t21.5 -95q-6 -49 -38 -79t-73 -50v0zM271 239q26 -2 50 9.5t40.5 32t19.5 43.5q3 20 -0.5 37t-20 32.5t-53.5 30.5l-54 22q-29 -2 -55 -16t-42.5 -35t-20.5 -44q-3 -26 10.5 -44.5t65.5 -42.5l60 -25v0z" />
    <glyph glyph-name="dieresis" unicode="&#xa8;" horiz-adv-x="250" 
d="M147 645q-1 -9 -4 -11t-13 -2h-53q-8 0 -11 4t-2 11l12 85q1 7 3 8.5t7 1.5h62q6 0 9 -4t1 -11zM293 645q-1 -9 -4 -11t-13 -2h-52q-9 0 -11.5 4t-1.5 11l11 85q2 7 3.5 8.5t7.5 1.5h61q6 0 9 -4t2 -11z" />
    <glyph glyph-name="copyright" unicode="&#xa9;" horiz-adv-x="830" 
d="M380 -10q-80 0 -145.5 30t-111 82.5t-65.5 122.5t-9 150q11 78 50 146.5t98 120.5t131.5 81t150.5 29q80 0 145.5 -30t111 -83t66 -123t8.5 -149q-11 -79 -50 -147.5t-98 -120t-132 -80.5t-150 -29v0zM382 50q65 0 126.5 23t111.5 65.5t83.5 103t44.5 133.5
q10 72 -6.5 130.5t-54.5 100.5t-91 64.5t-118 22.5q-66 0 -128 -23.5t-111.5 -66.5t-83 -103.5t-43.5 -132.5q-11 -73 5.5 -131.5t53.5 -100t91 -63.5t120 -22v0zM459 588q42 0 71.5 -14.5t49 -39t30.5 -52.5q3 -3 2 -4.5t-4 -2.5l-50 -13q-4 -1 -6.5 2t-3.5 8
q-14 29 -34.5 45t-51.5 16q-37 0 -68.5 -19.5t-53 -56.5t-28.5 -87q-10 -73 18 -114.5t83 -41.5q39 0 70.5 22t54.5 56q2 1 4.5 0t5.5 -3l33 -13q6 -2 4 -14q-14 -19 -32.5 -37.5t-41 -33.5t-49 -23t-56.5 -8q-58 0 -99 27t-59.5 76.5t-9.5 113.5q9 62 40.5 110t78.5 74.5
t102 26.5v0z" />
    <glyph glyph-name="ordfeminine" unicode="&#xaa;" horiz-adv-x="399" 
d="M254 750q46 0 74 -14t39.5 -39.5t6.5 -60.5l-24 -166q-2 -14 -2 -24t2 -28q2 -4 -0.5 -5t-9.5 -1h-38q-6 0 -8.5 3t-2.5 8l-1 29q0 4 -2 2l-7 -7q-29 -21 -53.5 -31t-54.5 -10q-53 0 -80 26.5t-21 70.5q7 47 51 73.5t128 32.5l48 5q6 1 10 4.5t5 7.5l2 15q4 33 -12 48.5
t-53 15.5q-27 0 -49 -10.5t-43 -38.5q-1 -1 -3 -0.5t-7 1.5l-38 13q-1 1 -2 5t0 9q22 32 57.5 49t87.5 17v0zM133 497q-4 -22 12 -35t46 -13q22 0 40.5 8t34.5 23q14 9 23 19.5t10 21.5l6 46q1 5 0 6.5t-8 0.5l-40 -3q-36 -3 -63 -12.5t-42.5 -25t-18.5 -36.5v0z" />
    <glyph glyph-name="guillemotleft" unicode="&#xab;" horiz-adv-x="446" 
d="M368 78q2 -4 0.5 -4.5t-7.5 -0.5h-29q-3 0 -6.5 3t-3.5 5l-102 167q-2 6 -3 11t3 10l152 177q3 5 4.5 4.5t4.5 -0.5h31q4 0 8 -3.5t1 -8.5l-124 -175l-4 -8t0 -8zM189 78q2 -4 1 -4.5t-7 -0.5h-29q-4 0 -7 3t-3 5l-102 167q-3 6 -3.5 11t3.5 10l152 177q2 5 4 4.5t5 -0.5
h31q4 0 7.5 -3.5t0.5 -8.5l-123 -175q-3 -4 -4.5 -8t0.5 -8z" />
    <glyph glyph-name="logicalnot" unicode="&#xac;" horiz-adv-x="557" 
d="M508 351q-1 -7 -4 -9t-12 -2l-405 -1q-7 0 -10.5 4t-2.5 11l6 43q2 5 3.5 7t5.5 2h415q4 0 7.5 -3.5t2.5 -8.5zM488 204q-1 -6 -3.5 -8t-9.5 -2h-46q-7 0 -10 3.5t-2 8.5l23 173q2 5 3.5 6.5t5.5 1.5h52q6 0 8.5 -4t1.5 -10z" />
    <glyph glyph-name="uni00AD" unicode="&#xad;" horiz-adv-x="381" 
d="M278 243q-1 -7 -4 -9.5t-12 -2.5h-227q-7 0 -10 4t-3 10l6 44q2 6 3.5 7.5t5.5 1.5l238 1q4 0 7.5 -4t2.5 -8z" />
    <glyph glyph-name="registered" unicode="&#xae;" horiz-adv-x="545" 
d="M278 275q-68 0 -118 33t-75 88t-16 121q10 66 48.5 119t96.5 84.5t123 31.5q67 0 117 -33t75.5 -88t15.5 -122q-9 -65 -48.5 -118.5t-97 -84.5t-121.5 -31v0zM277 320q57 0 104 24t78.5 69t39.5 104q8 58 -10 100.5t-56 66t-94 23.5q-58 0 -105.5 -24.5t-78 -69.5
t-39.5 -104q-12 -87 32.5 -138t128.5 -51v0zM380 398q1 -3 0.5 -4t-2.5 -1h-35q-1 0 -3 2.5t-1 3.5l-25 102q-1 2 -0.5 2t-5.5 0h-46q-2 0 -4 -2.5t-3 -4.5l-14 -100v-2.5t-3 -0.5h-32q-2 0 -4 2.5t-1 4.5l32 228v2h1h103q38 0 58 -17t16 -48q-4 -26 -20 -39t-33 -19
q-1 0 -3.5 -1.5t-1.5 -2.5l27 -105v0zM318 536q18 0 33 8t17 27q2 11 -5.5 18.5t-34.5 7.5h-52q-2 0 -4 -1t-3 -5l-8 -53v-2h2h55v0z" />
    <glyph glyph-name="macron" unicode="&#xaf;" horiz-adv-x="316" 
d="M364 676q-1 -6 -3.5 -8t-11.5 -2h-269q-7 0 -9.5 4t-1.5 10l5 39q1 5 2.5 7t4.5 2h280q4 0 6.5 -4.5t1.5 -7.5z" />
    <glyph glyph-name="degree" unicode="&#xb0;" horiz-adv-x="464" 
d="M451 694q-6 -45 -31 -80t-63 -54.5t-83 -19.5q-47 0 -80.5 21t-49 58t-9.5 84q6 46 31 80.5t62.5 54.5t82.5 20q47 0 81 -21t50 -58t9 -85v0zM390 702q7 44 -15 70.5t-66 26.5q-46 0 -78.5 -29.5t-37.5 -76.5q-6 -43 15.5 -70.5t65.5 -27.5q45 0 77.5 30t38.5 77v0z" />
    <glyph glyph-name="plusminus" unicode="&#xb1;" horiz-adv-x="557" 
d="M470 76q-1 -7 -4.5 -9t-11.5 -2l-406 -1q-7 0 -10 4t-2 11l6 43q1 6 2.5 7.5t5.5 1.5h416q4 0 7 -3.5t3 -8.5zM519 428q-2 -7 -5 -9t-11 -2l-405 -1q-7 0 -10.5 4t-2.5 10l6 43q1 6 3 7.5t6 1.5l415 1q5 0 8 -3.5t2 -8.5zM257 233q-7 0 -10.5 5t-2.5 13l57 405
q1 8 2.5 9.5t8.5 1.5h43q6 0 9.5 -3.5t2.5 -7.5l-58 -416q-1 -4 -3 -5.5t-7 -1.5h-42z" />
    <glyph glyph-name="uni00B2" unicode="&#xb2;" horiz-adv-x="452" 
d="M183 581q36 30 62.5 56t41 52t14.5 52q0 35 -24 52t-56 17q-27 0 -60 -15.5t-57 -48.5q-4 -5 -8 -2l-36 24q-3 3 3 12q33 39 77 58t88 19q36 0 66 -12.5t48 -37t18 -62.5q0 -37 -15.5 -67t-43.5 -58t-65 -60l-142 -118q-4 -2 -3.5 -4.5t4.5 -2.5h219q8 0 7 -7l-4 -38
q-1 -2 -2.5 -4t-5.5 -2h-292q-11 0 -10 11l4 27q1 7 4 11.5t15 14.5z" />
    <glyph glyph-name="uni00B3" unicode="&#xb3;" horiz-adv-x="467" 
d="M89 787q-2 2 -2 5t3 6q35 30 72.5 44.5t79.5 14.5q68 0 106 -29.5t38 -75.5q0 -41 -27.5 -73t-71.5 -46q-3 -1 -3 -3t4 -3q34 -8 57 -34.5t23 -65.5q0 -43 -23 -77t-67 -53t-105 -19q-41 0 -68.5 9.5t-47 25.5t-34.5 34q-3 5 0 8l31 23q4 3 7 0q22 -29 51.5 -41.5
t65.5 -12.5q56 0 94 27.5t38 74.5q0 26 -15 43.5t-39 26.5t-52 9h-57q-8 0 -6 6l4 35q0 4 7 4l45 1q35 0 64 12.5t47 34.5t18 49q0 28 -22.5 46.5t-62.5 18.5q-41 0 -68 -15.5t-52 -34.5q-6 -5 -11 2l-21 23v0z" />
    <glyph glyph-name="acute" unicode="&#xb4;" horiz-adv-x="285" 
d="M334 698q2 -6 0.5 -9.5t-10.5 -6.5l-239 -71q-6 -2 -10 1t-5 9l-5 22q-2 11 3 13l245 95q3 1 7 -0.5t5 -7.5z" />
    <glyph glyph-name="uni00B5" unicode="&#xb5;" horiz-adv-x="579" 
d="M225 56q43 0 86.5 24.5t88.5 64.5l53 373q2 8 5 10t11 2h55q8 0 11.5 -4.5t2.5 -11.5l-72 -504q-1 -5 -3 -7.5t-8 -2.5h-58q-6 0 -9 4t-2 10l8 59q1 5 -1 4.5t-8 -7.5q-37 -27 -65.5 -44t-53.5 -25t-51 -9q-31 -1 -54 5t-41 23l-24 -171q-2 -9 -4.5 -11.5t-13.5 -2.5h-51
q-9 0 -12.5 4.5t-2.5 12.5l94 665q1 8 4 10.5t10 2.5h56q8 0 11.5 -4.5t1.5 -11.5l-52 -368q-3 -25 7.5 -45.5t31.5 -32.5t49 -12v0z" />
    <glyph glyph-name="paragraph" unicode="&#xb6;" horiz-adv-x="561" 
d="M497 689q-3 0 -6.5 -3.5t-3.5 -6.5l-107 -758q-1 -2 -1 -4t-5 -2h-41q-5 0 -7.5 4t-1.5 7l106 759q0 3 -0.5 3.5t-4.5 0.5h-36q-3 0 -6 -3.5t-3 -6.5l-108 -758q0 -3 -1 -4.5t-5 -1.5h-42q-3 0 -6 3t-2 8l53 377q0 2 -0.5 2.5t-1.5 0.5q-66 2 -110 31t-63.5 77.5
t-11.5 107.5q8 56 41 106.5t89 82t134 31.5h202q4 0 6.5 -2.5t0.5 -6.5l-5 -41q-1 -3 -1.5 -3h-3.5h-48z" />
    <glyph glyph-name="periodcentered" unicode="&#xb7;" horiz-adv-x="201" 
d="M165 333q-1 -8 -4 -10.5t-13 -2.5h-80q-7 0 -11 4.5t-2 11.5l11 81q2 7 3.5 8.5t6.5 1.5h91q5 0 7.5 -3.5t1.5 -9.5z" />
    <glyph glyph-name="cedilla" unicode="&#xb8;" horiz-adv-x="221" 
d="M154 -136q-5 -37 -38.5 -55.5t-76.5 -18.5q-26 0 -47.5 6.5t-37.5 18.5q-3 0 -5.5 2.5t-1.5 5.5l16 26q1 3 2.5 1t3.5 -4q11 -7 24.5 -11.5t33.5 -4.5q30 0 47 11t20 32q2 20 -14.5 30t-57.5 11q-6 0 -8.5 2.5t-0.5 5.5l48 83h48l-30 -59q-2 -2 -2 -2.5t1 -0.5
q33 -2 50.5 -14t23 -29t2.5 -36v0z" />
    <glyph glyph-name="uni00B9" unicode="&#xb9;" horiz-adv-x="367" 
d="M227 427q7 0 7 -6l-5 -35q-1 -6 -7 -6h-222q-7 0 -5 6l4 37q1 4 7 4h80q4 0 5 6l49 345q2 5 -5 4l-82 -29q-8 -3 -8 6l4 27l3 6t5 4l98 47q7 2 11 3t9 1h28q8 0 6 -9l-57 -406q-2 -5 2 -5h73v0z" />
    <glyph glyph-name="ordmasculine" unicode="&#xba;" horiz-adv-x="411" 
d="M269 751q51 0 84 -22.5t48 -62.5t7 -93q-6 -49 -30 -86.5t-61.5 -58.5t-87.5 -21q-51 0 -84.5 22.5t-47 62t-6.5 90.5q8 51 32 89t62 59t84 21v0zM270 704q-48 0 -78 -34.5t-38 -93.5q-8 -58 10 -90.5t64 -32.5q49 0 79 35.5t39 96.5q7 55 -11.5 87t-64.5 32v0z" />
    <glyph glyph-name="guillemotright" unicode="&#xbb;" horiz-adv-x="446" 
d="M146 251q3 4 4.5 8t-0.5 8l-74 175q-1 5 0 6.5t5 1.5h31q5 0 10 -8l102 -177q3 -5 3 -10t-4 -11l-150 -167q-2 -2 -4 -3t-5 -1h-29q-6 0 -9.5 2.5t-1.5 6.5l122 169v0zM324 251q3 4 4.5 8t0.5 8l-75 175q-1 5 0.5 6.5t5.5 1.5h31q5 0 9 -8l102 -177q3 -5 3.5 -10
t-4.5 -11l-150 -167q-2 -2 -4 -3t-5 -1h-29q-6 0 -9.5 2.5t-1.5 6.5l122 169v0z" />
    <glyph glyph-name="onequarter" unicode="&#xbc;" horiz-adv-x="891" 
d="M276 323q7 0 7 -6l-5 -35q-1 -6 -7 -6h-222q-7 0 -5 6l4 37q1 4 7 4h80q4 0 5 6l49 345q2 5 -5 4l-82 -29q-8 -3 -8 6l4 27l3 6t5 4l98 47q7 2 11 3t9 1h28q8 0 6 -9l-57 -406q-2 -5 2 -5h73v0zM199 3q-4 -5 -8 -6t-11 -1h-26q-10 0 -11.5 7.5t3.5 13.5l586 728
q4 6 7.5 5.5t8.5 -0.5h33q5 0 9 -3.5t-1 -9.5zM709 461q4 4 6.5 5t8.5 1h45q7 0 6 -9l-40 -284q0 -4 4 -4h60q8 0 8 -6l-5 -32q-1 -4 -2.5 -5.5t-5.5 -1.5h-61q-6 0 -6 -6l-15 -112q-1 -4 -2.5 -5.5t-7.5 -1.5h-44q-8 0 -7 8l16 112q1 5 -5 5h-205q-8 0 -7 9l5 33q1 6 3 10
t8 10l243 274v0zM667 170q6 0 7 6l29 212q1 5 -1 4.5t-7 -6.5l-184 -208q-7 -8 0 -8h156z" />
    <glyph glyph-name="onehalf" unicode="&#xbd;" horiz-adv-x="950" 
d="M293 323q7 0 7 -6l-5 -35q-1 -6 -7 -6h-222q-7 0 -5 6l4 37q1 4 7 4h80q4 0 5 6l49 345q2 5 -5 4l-82 -29q-8 -3 -8 6l4 27l3 6t5 4l98 47q7 2 11 3t9 1h28q8 0 6 -9l-57 -406q-2 -5 2 -5h73v0zM180 3q-4 -5 -8 -6t-11 -1h-26q-10 0 -11.5 7.5t3.5 13.5l586 728
q4 6 7.5 5.5t8.5 -0.5h33q5 0 9 -3.5t-1 -9.5zM684 197q36 30 62.5 56t41 52t14.5 52q0 35 -24 52t-56 17q-27 0 -60 -15.5t-57 -48.5q-4 -5 -8 -2l-36 24q-3 3 3 12q33 39 77 58t88 19q36 0 66 -12.5t48 -37t18 -62.5q0 -37 -15.5 -67t-43.5 -58t-65 -60l-142 -118
q-4 -2 -3.5 -4.5t4.5 -2.5h219q8 0 7 -7l-4 -38q-1 -2 -2.5 -4t-5.5 -2h-292q-11 0 -10 11l4 27q1 7 4 11.5t15 14.5z" />
    <glyph glyph-name="threequarters" unicode="&#xbe;" horiz-adv-x="932" 
d="M108 682q-2 2 -2 5t3 6q35 30 72.5 44.5t79.5 14.5q68 0 106 -29.5t38 -75.5q0 -41 -27.5 -73t-71.5 -46q-3 -1 -3 -3t4 -3q34 -8 57 -34.5t23 -65.5q0 -43 -23 -77t-67 -53t-105 -19q-41 0 -68.5 9.5t-47 25.5t-34.5 34q-3 5 0 8l31 23q4 3 7 0q22 -29 51.5 -41.5
t65.5 -12.5q56 0 94 27.5t38 74.5q0 26 -15 43.5t-39 26.5t-52 9h-57q-8 0 -6 6l4 35q0 4 7 4l45 1q35 0 64 12.5t47 34.5t18 49q0 28 -22.5 46.5t-62.5 18.5q-41 0 -68 -15.5t-52 -34.5q-6 -5 -11 2l-21 23v0zM252 3q-4 -5 -8 -6t-11 -1h-26q-10 0 -11.5 7.5t3.5 13.5
l586 728q4 6 7.5 5.5t8.5 -0.5h33q5 0 9 -3.5t-1 -9.5zM772 461q4 4 6.5 5t8.5 1h45q7 0 6 -9l-40 -284q0 -4 4 -4h60q8 0 8 -6l-5 -32q-1 -4 -2.5 -5.5t-5.5 -1.5h-61q-6 0 -6 -6l-15 -112q-1 -4 -2.5 -5.5t-7.5 -1.5h-44q-8 0 -7 8l16 112q1 5 -5 5h-205q-8 0 -7 9l5 33
q1 6 3 10t8 10l243 274v0zM730 170q6 0 7 6l29 212q1 5 -1 4.5t-7 -6.5l-184 -208q-7 -8 0 -8h156z" />
    <glyph glyph-name="questiondown" unicode="&#xbf;" horiz-adv-x="516" 
d="M254 516q2 9 5.5 11.5t13.5 2.5h69q8 0 12 -4.5t3 -12.5l-13 -84q-1 -6 -2.5 -8t-6.5 -2h-83q-5 0 -7.5 4t-2.5 9zM440 -28q4 -1 6 -6t-1 -11q-40 -61 -106.5 -95.5t-145.5 -34.5q-71 0 -118.5 23.5t-69 65t-13.5 95.5q6 40 24.5 69t45 51.5t56 42.5t56 43.5t45.5 54
t25 72.5q2 8 11 8h49q6 0 10 -5t2 -14q-8 -55 -32.5 -92.5t-57 -64.5t-64.5 -51.5t-55.5 -52.5t-28.5 -67q-7 -51 25.5 -80.5t92.5 -29.5q35 0 70 12.5t64 35t42 48.5q4 3 4.5 3t6.5 -2z" />
    <glyph glyph-name="Agrave" unicode="&#xc0;" horiz-adv-x="727" 
d="M16 0q-6 0 -8 5t2 14l360 711q4 7 9 9.5t13 2.5h78q10 0 14 -5t5 -12l157 -710q1 -6 -1 -10.5t-9 -4.5h-71q-13 0 -14 13l-43 192q-1 7 -10 7h-291q-9 0 -13 -9l-100 -196q-1 -4 -4 -5.5t-10 -1.5h-64v0zM483 288q12 0 9 13l-74 329q-2 10 -6 9.5t-9 -11.5l-167 -327
q-3 -8 -2.5 -10.5t5.5 -2.5h244zM330 957q2 4 5 5t7 -1l217 -94q4 -2 6 -5.5t0 -9.5l-12 -24q-2 -5 -5 -5.5t-10 1.5l-219 69q-9 3 -11 7t1 10l21 47v0z" />
    <glyph glyph-name="Aacute" unicode="&#xc1;" horiz-adv-x="727" 
d="M16 0q-6 0 -8 5t2 14l360 711q4 7 9 9.5t13 2.5h78q10 0 14 -5t5 -12l157 -710q1 -6 -1 -10.5t-9 -4.5h-71q-13 0 -14 13l-43 192q-1 7 -10 7h-291q-9 0 -13 -9l-100 -196q-1 -4 -4 -5.5t-10 -1.5h-64v0zM483 288q12 0 9 13l-74 329q-2 10 -6 9.5t-9 -11.5l-167 -327
q-3 -8 -2.5 -10.5t5.5 -2.5h244zM584 910q2 -6 0.5 -9.5t-10.5 -6.5l-239 -71q-6 -2 -10 1t-5 9l-5 22q-2 11 3 13l245 95q3 1 7 -0.5t5 -7.5z" />
    <glyph glyph-name="Acircumflex" unicode="&#xc2;" horiz-adv-x="727" 
d="M16 0q-6 0 -8 5t2 14l360 711q4 7 9 9.5t13 2.5h78q10 0 14 -5t5 -12l157 -710q1 -6 -1 -10.5t-9 -4.5h-71q-13 0 -14 13l-43 192q-1 7 -10 7h-291q-9 0 -13 -9l-100 -196q-1 -4 -4 -5.5t-10 -1.5h-64v0zM483 288q12 0 9 13l-74 329q-2 10 -6 9.5t-9 -11.5l-167 -327
q-3 -8 -2.5 -10.5t5.5 -2.5h244zM461 901q-7 7 -9 6.5t-12 -7.5l-66 -51q-6 -5 -9.5 -5.5t-9.5 -0.5h-55q-7 0 -7.5 4t4.5 8l116 93q6 5 11.5 7t13.5 2h40q7 0 10.5 -4.5t6.5 -6.5l89 -93q6 -6 5 -8t-8 -2h-56q-6 0 -9 2t-7 6z" />
    <glyph glyph-name="Atilde" unicode="&#xc3;" horiz-adv-x="727" 
d="M16 0q-6 0 -8 5t2 14l360 711q4 7 9 9.5t13 2.5h78q10 0 14 -5t5 -12l157 -710q1 -6 -1 -10.5t-9 -4.5h-71q-13 0 -14 13l-43 192q-1 7 -10 7h-291q-9 0 -13 -9l-100 -196q-1 -4 -4 -5.5t-10 -1.5h-64v0zM483 288q12 0 9 13l-74 329q-2 10 -6 9.5t-9 -11.5l-167 -327
q-3 -8 -2.5 -10.5t5.5 -2.5h244zM594 886q-13 -7 -32.5 -13t-45.5 -6q-28 0 -47.5 6.5t-36.5 12.5t-39 6q-24 0 -37 -9t-28 -15q-7 -2 -9.5 0.5t-4.5 9.5l-7 27q-1 5 -2 9t4 7q18 11 36 18.5t43 7.5q26 0 47 -6.5t40.5 -13.5t40.5 -7q14 0 24 3.5t19 9t18 9.5q8 2 12.5 -0.5
t5.5 -9.5l5 -31q1 -4 1 -8.5t-7 -6.5v0z" />
    <glyph glyph-name="Adieresis" unicode="&#xc4;" horiz-adv-x="727" 
d="M16 0q-6 0 -8 5t2 14l360 711q4 7 9 9.5t13 2.5h78q10 0 14 -5t5 -12l157 -710q1 -6 -1 -10.5t-9 -4.5h-71q-13 0 -14 13l-43 192q-1 7 -10 7h-291q-9 0 -13 -9l-100 -196q-1 -4 -4 -5.5t-10 -1.5h-64v0zM483 288q12 0 9 13l-74 329q-2 10 -6 9.5t-9 -11.5l-167 -327
q-3 -8 -2.5 -10.5t5.5 -2.5h244zM414 857q-1 -9 -4 -11t-13 -2h-53q-8 0 -11 4t-2 11l12 85q1 7 3 8.5t7 1.5h62q6 0 9 -4t1 -11zM560 857q-1 -9 -4 -11t-13 -2h-52q-9 0 -11.5 4t-1.5 11l11 85q2 7 3.5 8.5t7.5 1.5h61q6 0 9 -4t2 -11z" />
    <glyph glyph-name="Aring" unicode="&#xc5;" horiz-adv-x="727" 
d="M16 0q-6 0 -8 5t2 14l360 711q4 7 9 9.5t13 2.5h78q10 0 14 -5t5 -12l157 -710q1 -6 -1 -10.5t-9 -4.5h-71q-13 0 -14 13l-43 192q-1 7 -10 7h-291q-9 0 -13 -9l-100 -196q-1 -4 -4 -5.5t-10 -1.5h-64v0zM483 288q12 0 9 13l-74 329q-2 10 -6 9.5t-9 -11.5l-167 -327
q-3 -8 -2.5 -10.5t5.5 -2.5h244zM545 855q-6 -43 -39.5 -71.5t-75.5 -28.5q-30 0 -53 14.5t-33.5 40t-6.5 56.5q5 41 39 69t75 28q31 0 53.5 -14.5t33.5 -39t7 -54.5v0zM495 863q4 24 -9 38t-35 14q-24 0 -44 -17t-24 -44q-3 -20 11 -35.5t34 -15.5q25 0 44.5 18.5
t22.5 41.5v0z" />
    <glyph glyph-name="AE" unicode="&#xc6;" horiz-adv-x="1008" 
d="M920 74q7 0 10 -3t2 -10l-7 -52q-1 -6 -2.5 -7.5t-8.5 -1.5h-437q-8 0 -11.5 4.5t-2.5 12.5l27 190q1 3 0 4t-5 1h-239q-5 0 -9 -3t-6 -7l-137 -195q-6 -7 -17 -7h-60q-5 0 -8.5 6t1.5 13l499 711q5 7 9 9.5t13 2.5h472q5 0 8 -4t2 -9l-8 -51q-1 -6 -3 -8t-9 -2h-328
q-7 0 -11 -3.5t-6 -10.5l-32 -235q-1 -5 0.5 -6.5t7.5 -1.5h244q6 0 9.5 -3.5t1.5 -9.5l-7 -53q-1 -5 -2 -6t-8 -1h-245q-5 0 -9.5 -3.5t-5.5 -9.5l-33 -243q-1 -6 -0.5 -7t6.5 -1h345v0zM489 288q6 0 10 4.5t4 9.5l48 339q2 14 -4.5 12t-16.5 -17l-241 -339
q-5 -6 -5.5 -7.5t4.5 -1.5h201v0z" />
    <glyph glyph-name="Ccedilla" unicode="&#xc7;" horiz-adv-x="707" 
d="M444 752q69 0 124 -29t87.5 -76.5t32.5 -104.5q0 -12 -10 -12l-72 -5q-8 0 -10 16q-5 62 -46 100t-108 38q-60 0 -105.5 -25t-77 -67t-50.5 -94.5t-28 -108.5t-9 -109q0 -104 45 -156.5t136 -52.5q72 0 126 35t92 110q3 7 15 3l59 -16q7 -3 1 -18q-13 -27 -33 -55
t-47.5 -52t-61.5 -42.5t-73.5 -29.5t-84.5 -11q-87 0 -148 36t-92.5 102.5t-31.5 158.5q0 66 13.5 132.5t42 126t72.5 106.5t104 73.5t138 26.5v0zM415 -136q-5 -37 -38.5 -55.5t-76.5 -18.5q-26 0 -47.5 6.5t-37.5 18.5q-3 0 -5.5 2.5t-1.5 5.5l16 26q1 3 2.5 1t3.5 -4
q11 -7 24.5 -11.5t33.5 -4.5q30 0 47 11t20 32q2 20 -14.5 30t-57.5 11q-6 0 -8.5 2.5t-0.5 5.5l48 83h48l-30 -59q-2 -2 -2 -2.5t1 -0.5q33 -2 50.5 -14t23 -29t2.5 -36v0z" />
    <glyph glyph-name="Egrave" unicode="&#xc8;" horiz-adv-x="628" 
d="M163 731q1 7 3 9t8 2h452q10 0 7 -13l-7 -50q-1 -6 -3.5 -8.5t-10.5 -2.5h-352q-6 0 -8.5 -2t-3.5 -9l-34 -238q-1 -4 1 -6t7 -2h264q5 0 6.5 -2.5t0.5 -8.5l-8 -54q-1 -8 -11 -8h-262q-9 0 -11 -12l-34 -243q-1 -9 7 -9h369q7 0 9 -2t1 -9l-7 -54q-1 -6 -3 -7.5t-8 -1.5
h-460q-15 0 -13 17l101 714v0zM310 957q2 4 5 5t7 -1l217 -94q4 -2 6 -5.5t0 -9.5l-12 -24q-2 -5 -5 -5.5t-10 1.5l-219 69q-9 3 -11 7t1 10l21 47v0z" />
    <glyph glyph-name="Eacute" unicode="&#xc9;" horiz-adv-x="628" 
d="M163 731q1 7 3 9t8 2h452q10 0 7 -13l-7 -50q-1 -6 -3.5 -8.5t-10.5 -2.5h-352q-6 0 -8.5 -2t-3.5 -9l-34 -238q-1 -4 1 -6t7 -2h264q5 0 6.5 -2.5t0.5 -8.5l-8 -54q-1 -8 -11 -8h-262q-9 0 -11 -12l-34 -243q-1 -9 7 -9h369q7 0 9 -2t1 -9l-7 -54q-1 -6 -3 -7.5t-8 -1.5
h-460q-15 0 -13 17l101 714v0zM564 910q2 -6 0.5 -9.5t-10.5 -6.5l-239 -71q-6 -2 -10 1t-5 9l-5 22q-2 11 3 13l245 95q3 1 7 -0.5t5 -7.5z" />
    <glyph glyph-name="Ecircumflex" unicode="&#xca;" horiz-adv-x="628" 
d="M163 731q1 7 3 9t8 2h452q10 0 7 -13l-7 -50q-1 -6 -3.5 -8.5t-10.5 -2.5h-352q-6 0 -8.5 -2t-3.5 -9l-34 -238q-1 -4 1 -6t7 -2h264q5 0 6.5 -2.5t0.5 -8.5l-8 -54q-1 -8 -11 -8h-262q-9 0 -11 -12l-34 -243q-1 -9 7 -9h369q7 0 9 -2t1 -9l-7 -54q-1 -6 -3 -7.5t-8 -1.5
h-460q-15 0 -13 17l101 714v0zM441 901q-7 7 -9 6.5t-12 -7.5l-66 -51q-6 -5 -9.5 -5.5t-9.5 -0.5h-55q-7 0 -7.5 4t4.5 8l116 93q6 5 11.5 7t13.5 2h40q7 0 10.5 -4.5t6.5 -6.5l89 -93q6 -6 5 -8t-8 -2h-56q-6 0 -9 2t-7 6z" />
    <glyph glyph-name="Edieresis" unicode="&#xcb;" horiz-adv-x="628" 
d="M163 731q1 7 3 9t8 2h452q10 0 7 -13l-7 -50q-1 -6 -3.5 -8.5t-10.5 -2.5h-352q-6 0 -8.5 -2t-3.5 -9l-34 -238q-1 -4 1 -6t7 -2h264q5 0 6.5 -2.5t0.5 -8.5l-8 -54q-1 -8 -11 -8h-262q-9 0 -11 -12l-34 -243q-1 -9 7 -9h369q7 0 9 -2t1 -9l-7 -54q-1 -6 -3 -7.5t-8 -1.5
h-460q-15 0 -13 17l101 714v0zM394 857q-1 -9 -4 -11t-13 -2h-53q-8 0 -11 4t-2 11l12 85q1 7 3 8.5t7 1.5h62q6 0 9 -4t1 -11zM540 857q-1 -9 -4 -11t-13 -2h-52q-9 0 -11.5 4t-1.5 11l11 85q2 7 3.5 8.5t7.5 1.5h61q6 0 9 -4t2 -11z" />
    <glyph glyph-name="Igrave" unicode="&#xcc;" horiz-adv-x="290" 
d="M248 742q12 0 9 -15l-100 -713q-1 -9 -4 -11.5t-13 -2.5h-65q-9 0 -11.5 4.5t-1.5 12.5l101 714q1 7 3 9t8 2h74zM115 957q2 4 5 5t7 -1l217 -94q4 -2 6 -5.5t0 -9.5l-12 -24q-2 -5 -5 -5.5t-10 1.5l-219 69q-9 3 -11 7t1 10l21 47v0z" />
    <glyph glyph-name="Iacute" unicode="&#xcd;" horiz-adv-x="290" 
d="M248 742q12 0 9 -15l-100 -713q-1 -9 -4 -11.5t-13 -2.5h-65q-9 0 -11.5 4.5t-1.5 12.5l101 714q1 7 3 9t8 2h74zM369 910q2 -6 0.5 -9.5t-10.5 -6.5l-239 -71q-6 -2 -10 1t-5 9l-5 22q-2 11 3 13l245 95q3 1 7 -0.5t5 -7.5z" />
    <glyph glyph-name="Icircumflex" unicode="&#xce;" horiz-adv-x="290" 
d="M248 742q12 0 9 -15l-100 -713q-1 -9 -4 -11.5t-13 -2.5h-65q-9 0 -11.5 4.5t-1.5 12.5l101 714q1 7 3 9t8 2h74zM245 901q-7 7 -9 6.5t-12 -7.5l-66 -51q-6 -5 -9.5 -5.5t-9.5 -0.5h-55q-7 0 -7.5 4t4.5 8l116 93q6 5 11.5 7t13.5 2h40q7 0 10.5 -4.5t6.5 -6.5l89 -93
q6 -6 5 -8t-8 -2h-56q-6 0 -9 2t-7 6z" />
    <glyph glyph-name="Idieresis" unicode="&#xcf;" horiz-adv-x="290" 
d="M248 742q12 0 9 -15l-100 -713q-1 -9 -4 -11.5t-13 -2.5h-65q-9 0 -11.5 4.5t-1.5 12.5l101 714q1 7 3 9t8 2h74zM199 857q-1 -9 -4 -11t-13 -2h-53q-8 0 -11 4t-2 11l12 85q1 7 3 8.5t7 1.5h62q6 0 9 -4t1 -11zM345 857q-1 -9 -4 -11t-13 -2h-52q-9 0 -11.5 4t-1.5 11
l11 85q2 7 3.5 8.5t7.5 1.5h61q6 0 9 -4t2 -11z" />
    <glyph glyph-name="Eth" unicode="&#xd0;" horiz-adv-x="690" 
d="M359 350q-1 -9 -5 -11.5t-14 -2.5h-302q-8 0 -11.5 5t-2.5 12l6 42q1 7 3 9t7 2h315q5 0 8 -4.5t2 -9.5zM45 0q-7 0 -11.5 5t-2.5 13l100 714q1 6 4.5 8t10.5 2h150q121 0 198.5 -33.5t115 -97t37.5 -156.5q0 -144 -50.5 -245.5t-150.5 -155.5t-250 -54h-151v0zM202 72
q124 0 199.5 45.5t110.5 132t35 209.5q0 78 -28.5 124t-85 66t-142.5 20h-62q-12 0 -13 -13l-79 -569q-1 -8 1.5 -11.5t9.5 -3.5h54z" />
    <glyph glyph-name="Ntilde" unicode="&#xd1;" horiz-adv-x="757" 
d="M716 742q10 0 9 -12l-101 -720q-1 -10 -12 -10h-49q-6 0 -11 2t-9 9l-308 560q-4 7 -8 6t-5 -10l-78 -556q-1 -6 -3.5 -8.5t-10.5 -2.5h-58q-6 0 -9 4t-2 11l102 716q1 7 3 9t9 2h58q7 0 11 -2.5t7 -9.5l299 -548q5 -8 10.5 -7t6.5 11l76 546q2 6 4 8t8 2h61zM622 886
q-13 -7 -32.5 -13t-45.5 -6q-28 0 -47.5 6.5t-36.5 12.5t-39 6q-24 0 -37 -9t-28 -15q-7 -2 -9.5 0.5t-4.5 9.5l-7 27q-1 5 -2 9t4 7q18 11 36 18.5t43 7.5q26 0 47 -6.5t40.5 -13.5t40.5 -7q14 0 24 3.5t19 9t18 9.5q8 2 12.5 -0.5t5.5 -9.5l5 -31q1 -4 1 -8.5t-7 -6.5v0z
" />
    <glyph glyph-name="Ograve" unicode="&#xd2;" horiz-adv-x="764" 
d="M347 -10q-87 0 -148 34t-93 99.5t-32 158.5q0 21 1.5 44t4.5 46q18 122 67.5 206.5t126.5 129t173 44.5q86 0 147 -35t93 -101t32 -162q0 -20 -1.5 -42.5t-4.5 -46.5q-17 -120 -66.5 -204t-125.5 -127.5t-174 -43.5v0zM352 63q109 0 174.5 76t87.5 234q4 27 5.5 52
t1.5 47q0 105 -44 156t-132 51q-108 0 -175.5 -77.5t-90.5 -237.5q-4 -26 -5.5 -50t-1.5 -45q0 -104 45 -155t135 -51v0zM350 957q2 4 5 5t7 -1l217 -94q4 -2 6 -5.5t0 -9.5l-12 -24q-2 -5 -5 -5.5t-10 1.5l-219 69q-9 3 -11 7t1 10l21 47v0z" />
    <glyph glyph-name="Oacute" unicode="&#xd3;" horiz-adv-x="764" 
d="M347 -10q-87 0 -148 34t-93 99.5t-32 158.5q0 21 1.5 44t4.5 46q18 122 67.5 206.5t126.5 129t173 44.5q86 0 147 -35t93 -101t32 -162q0 -20 -1.5 -42.5t-4.5 -46.5q-17 -120 -66.5 -204t-125.5 -127.5t-174 -43.5v0zM352 63q109 0 174.5 76t87.5 234q4 27 5.5 52
t1.5 47q0 105 -44 156t-132 51q-108 0 -175.5 -77.5t-90.5 -237.5q-4 -26 -5.5 -50t-1.5 -45q0 -104 45 -155t135 -51v0zM604 910q2 -6 0.5 -9.5t-10.5 -6.5l-239 -71q-6 -2 -10 1t-5 9l-5 22q-2 11 3 13l245 95q3 1 7 -0.5t5 -7.5z" />
    <glyph glyph-name="Ocircumflex" unicode="&#xd4;" horiz-adv-x="764" 
d="M347 -10q-87 0 -148 34t-93 99.5t-32 158.5q0 21 1.5 44t4.5 46q18 122 67.5 206.5t126.5 129t173 44.5q86 0 147 -35t93 -101t32 -162q0 -20 -1.5 -42.5t-4.5 -46.5q-17 -120 -66.5 -204t-125.5 -127.5t-174 -43.5v0zM352 63q109 0 174.5 76t87.5 234q4 27 5.5 52
t1.5 47q0 105 -44 156t-132 51q-108 0 -175.5 -77.5t-90.5 -237.5q-4 -26 -5.5 -50t-1.5 -45q0 -104 45 -155t135 -51v0zM480 901q-7 7 -9 6.5t-12 -7.5l-66 -51q-6 -5 -9.5 -5.5t-9.5 -0.5h-55q-7 0 -7.5 4t4.5 8l116 93q6 5 11.5 7t13.5 2h40q7 0 10.5 -4.5t6.5 -6.5
l89 -93q6 -6 5 -8t-8 -2h-56q-6 0 -9 2t-7 6z" />
    <glyph glyph-name="Otilde" unicode="&#xd5;" horiz-adv-x="764" 
d="M347 -10q-87 0 -148 34t-93 99.5t-32 158.5q0 21 1.5 44t4.5 46q18 122 67.5 206.5t126.5 129t173 44.5q86 0 147 -35t93 -101t32 -162q0 -20 -1.5 -42.5t-4.5 -46.5q-17 -120 -66.5 -204t-125.5 -127.5t-174 -43.5v0zM352 63q109 0 174.5 76t87.5 234q4 27 5.5 52
t1.5 47q0 105 -44 156t-132 51q-108 0 -175.5 -77.5t-90.5 -237.5q-4 -26 -5.5 -50t-1.5 -45q0 -104 45 -155t135 -51v0zM614 886q-13 -7 -32.5 -13t-45.5 -6q-28 0 -47.5 6.5t-36.5 12.5t-39 6q-24 0 -37 -9t-28 -15q-7 -2 -9.5 0.5t-4.5 9.5l-7 27q-1 5 -2 9t4 7
q18 11 36 18.5t43 7.5q26 0 47 -6.5t40.5 -13.5t40.5 -7q14 0 24 3.5t19 9t18 9.5q8 2 12.5 -0.5t5.5 -9.5l5 -31q1 -4 1 -8.5t-7 -6.5v0z" />
    <glyph glyph-name="Odieresis" unicode="&#xd6;" horiz-adv-x="764" 
d="M347 -10q-87 0 -148 34t-93 99.5t-32 158.5q0 21 1.5 44t4.5 46q18 122 67.5 206.5t126.5 129t173 44.5q86 0 147 -35t93 -101t32 -162q0 -20 -1.5 -42.5t-4.5 -46.5q-17 -120 -66.5 -204t-125.5 -127.5t-174 -43.5v0zM352 63q109 0 174.5 76t87.5 234q4 27 5.5 52
t1.5 47q0 105 -44 156t-132 51q-108 0 -175.5 -77.5t-90.5 -237.5q-4 -26 -5.5 -50t-1.5 -45q0 -104 45 -155t135 -51v0zM433 857q-1 -9 -4 -11t-13 -2h-53q-8 0 -11 4t-2 11l12 85q1 7 3 8.5t7 1.5h62q6 0 9 -4t1 -11zM579 857q-1 -9 -4 -11t-13 -2h-52q-9 0 -11.5 4
t-1.5 11l11 85q2 7 3.5 8.5t7.5 1.5h61q6 0 9 -4t2 -11z" />
    <glyph glyph-name="multiply" unicode="&#xd7;" horiz-adv-x="540" 
d="M430 172q-6 -5 -10.5 -3t-10.5 9l-301 349q-4 5 -5 9t5 8l34 31q5 4 8.5 2.5t5.5 -4.5l308 -356q2 -3 3.5 -7t-2.5 -7zM64 203q-4 6 -4.5 11t6.5 11l398 349q6 6 10 4t7 -7l27 -30q3 -4 4.5 -7.5t-1.5 -7.5l-407 -356q-4 -3 -7 -1.5t-6 4.5z" />
    <glyph glyph-name="Oslash" unicode="&#xd8;" horiz-adv-x="729" 
d="M771 714q3 -3 4.5 -7t-3.5 -9l-98 -92q20 -45 26 -106t-5 -135q-16 -120 -65.5 -204t-126 -127.5t-173.5 -43.5q-71 0 -123.5 22.5t-86.5 65.5l-80 -80q-8 -7 -13.5 -5.5t-11.5 7.5l-21 23q-5 6 -7 10.5t4 10.5l94 88q-20 46 -26.5 106t4.5 134q17 122 67 206.5t127 129
t173 44.5q70 0 123 -23.5t87 -67.5l85 84q4 5 8.5 4.5t8.5 -4.5l29 -31v0zM164 364q-7 -48 -6 -87.5t10 -71.5l407 398q-20 39 -57.5 57t-90.5 18q-108 0 -174 -77t-89 -237v0zM595 373q6 48 5.5 88.5t-9.5 72.5l-407 -398q22 -37 60 -54.5t90 -17.5q110 0 174 75.5
t87 233.5v0z" />
    <glyph glyph-name="Ugrave" unicode="&#xd9;" horiz-adv-x="709" 
d="M619 245q-13 -90 -51 -146.5t-100.5 -82.5t-148.5 -26q-122 0 -179.5 52t-57.5 155q0 16 1.5 33.5t4.5 35.5l65 464q1 7 3.5 9.5t7.5 2.5h72q7 0 10.5 -4t1.5 -11l-68 -486q-1 -12 -2.5 -22.5t-1.5 -21.5q0 -68 38.5 -100.5t114.5 -32.5q60 0 103.5 20t70.5 61t36 104
l68 483q1 6 3 8t7 2h59q6 0 8.5 -4t2.5 -11l-68 -482v0zM330 957q2 4 5 5t7 -1l217 -94q4 -2 6 -5.5t0 -9.5l-12 -24q-2 -5 -5 -5.5t-10 1.5l-219 69q-9 3 -11 7t1 10l21 47v0z" />
    <glyph glyph-name="Uacute" unicode="&#xda;" horiz-adv-x="709" 
d="M619 245q-13 -90 -51 -146.5t-100.5 -82.5t-148.5 -26q-122 0 -179.5 52t-57.5 155q0 16 1.5 33.5t4.5 35.5l65 464q1 7 3.5 9.5t7.5 2.5h72q7 0 10.5 -4t1.5 -11l-68 -486q-1 -12 -2.5 -22.5t-1.5 -21.5q0 -68 38.5 -100.5t114.5 -32.5q60 0 103.5 20t70.5 61t36 104
l68 483q1 6 3 8t7 2h59q6 0 8.5 -4t2.5 -11l-68 -482v0zM584 910q2 -6 0.5 -9.5t-10.5 -6.5l-239 -71q-6 -2 -10 1t-5 9l-5 22q-2 11 3 13l245 95q3 1 7 -0.5t5 -7.5z" />
    <glyph glyph-name="Ucircumflex" unicode="&#xdb;" horiz-adv-x="709" 
d="M619 245q-13 -90 -51 -146.5t-100.5 -82.5t-148.5 -26q-122 0 -179.5 52t-57.5 155q0 16 1.5 33.5t4.5 35.5l65 464q1 7 3.5 9.5t7.5 2.5h72q7 0 10.5 -4t1.5 -11l-68 -486q-1 -12 -2.5 -22.5t-1.5 -21.5q0 -68 38.5 -100.5t114.5 -32.5q60 0 103.5 20t70.5 61t36 104
l68 483q1 6 3 8t7 2h59q6 0 8.5 -4t2.5 -11l-68 -482v0zM460 901q-7 7 -9 6.5t-12 -7.5l-66 -51q-6 -5 -9.5 -5.5t-9.5 -0.5h-55q-7 0 -7.5 4t4.5 8l116 93q6 5 11.5 7t13.5 2h40q7 0 10.5 -4.5t6.5 -6.5l89 -93q6 -6 5 -8t-8 -2h-56q-6 0 -9 2t-7 6z" />
    <glyph glyph-name="Udieresis" unicode="&#xdc;" horiz-adv-x="709" 
d="M619 245q-13 -90 -51 -146.5t-100.5 -82.5t-148.5 -26q-122 0 -179.5 52t-57.5 155q0 16 1.5 33.5t4.5 35.5l65 464q1 7 3.5 9.5t7.5 2.5h72q7 0 10.5 -4t1.5 -11l-68 -486q-1 -12 -2.5 -22.5t-1.5 -21.5q0 -68 38.5 -100.5t114.5 -32.5q60 0 103.5 20t70.5 61t36 104
l68 483q1 6 3 8t7 2h59q6 0 8.5 -4t2.5 -11l-68 -482v0zM414 857q-1 -9 -4 -11t-13 -2h-53q-8 0 -11 4t-2 11l12 85q1 7 3 8.5t7 1.5h62q6 0 9 -4t1 -11zM560 857q-1 -9 -4 -11t-13 -2h-52q-9 0 -11.5 4t-1.5 11l11 85q2 7 3.5 8.5t7.5 1.5h61q6 0 9 -4t2 -11z" />
    <glyph glyph-name="Yacute" unicode="&#xdd;" horiz-adv-x="675" 
d="M692 742q7 0 9 -4.5t-2 -10.5l-295 -399q-4 -6 -6.5 -12t-4.5 -21l-40 -280q-1 -9 -5.5 -12t-14.5 -3h-64q-9 0 -11 4t-1 11l40 280q2 11 1 15.5t-3 11.5l-185 406q-3 7 -1.5 10.5t10.5 3.5h73q9 0 12.5 -3.5t6.5 -10.5l141 -320q8 -18 21 0l232 324q5 6 8.5 8t12.5 2h66
v0zM560 910q2 -6 0.5 -9.5t-10.5 -6.5l-239 -71q-6 -2 -10 1t-5 9l-5 22q-2 11 3 13l245 95q3 1 7 -0.5t5 -7.5z" />
    <glyph glyph-name="Thorn" unicode="&#xde;" horiz-adv-x="692" 
d="M656 381q-10 -74 -50 -120t-102.5 -68t-139.5 -22h-174q-5 0 -8 -3.5t-4 -8.5l-21 -147q-1 -7 -4 -9.5t-10 -2.5h-68q-7 0 -10.5 4.5t-2.5 10.5l101 716q1 7 3 9t8 2h72q7 0 10 -4t1 -11l-18 -135q-1 -4 0 -4.5t4 -0.5h165q79 0 138.5 -22t89.5 -67.5t20 -116.5v0z
M559 390q9 69 -35 96.5t-127 27.5h-154q-7 0 -11.5 -3.5t-5.5 -10.5l-35 -245q-1 -7 0 -9t7 -2h164q79 0 132.5 35t64.5 111v0z" />
    <glyph glyph-name="germandbls" unicode="&#xdf;" horiz-adv-x="608" 
d="M384 742q64 0 100 -20.5t49.5 -53.5t8.5 -71t-24 -62t-48 -40.5t-65 -33.5q-37 -18 -53.5 -29.5t-20.5 -32.5q-2 -18 9 -25.5t42 -19.5q27 -9 59 -22.5t58.5 -35t41 -55t7.5 -82.5q-8 -55 -40 -93t-78.5 -57t-101.5 -19q-37 0 -71 9t-56 24q-5 2 -7.5 5t-0.5 8l30 42
q2 3 5.5 1t4.5 -5q20 -10 40 -16.5t50 -6.5q59 0 98.5 28.5t47.5 80.5q5 37 -10 58t-42 34.5t-59 25.5q-25 9 -49.5 21.5t-38 35t-8.5 58.5q5 37 29.5 61.5t71.5 50.5q22 12 43.5 24.5t37 30t19.5 44.5q5 35 -18 55.5t-70 20.5q-62 0 -106 -37.5t-54 -109.5l-73 -522
q0 -6 -1.5 -8.5t-7.5 -2.5h-63q-5 0 -8.5 4t-2.5 10l62 437q1 5 0 6t-6 1h-52q-5 0 -7.5 3.5t-2.5 8.5l6 43q1 4 2.5 6t7.5 2h51q6 0 8.5 4.5t3.5 10.5q7 46 26.5 83.5t51.5 65t75.5 42.5t98.5 15v0z" />
    <glyph glyph-name="agrave" unicode="&#xe0;" horiz-adv-x="548" 
d="M358 62q-41 -37 -87.5 -54.5t-98.5 -17.5q-72 0 -112 34.5t-40 91.5q0 53 25.5 89.5t67.5 60t93.5 35t101.5 14.5l79 6q19 2 21 17l4 27q1 6 1.5 11t0.5 11q0 44 -28.5 68.5t-78.5 24.5q-44 0 -83.5 -20t-73.5 -62q-3 -4 -5.5 -4.5t-8.5 1.5l-51 18q-4 2 -5.5 6t3.5 14
q36 49 94.5 78t135.5 29q61 0 101.5 -17.5t60.5 -49.5t20 -76q0 -7 -0.5 -14.5t-1.5 -15.5l-49 -355q-2 -8 -4 -10t-10 -2h-50q-7 0 -10 4.5t-3 11.5l5 48q-1 13 -14 -2v0zM396 257q2 8 -0.5 11t-9.5 2l-69 -6q-30 -2 -66.5 -9t-69.5 -21.5t-54.5 -40t-21.5 -65.5
q0 -35 26 -55.5t72 -20.5q34 0 65.5 12t56.5 30q26 19 42 39.5t18 39.5zM212 745q2 4 5 5t7 -1l217 -94q4 -2 6 -5.5t0 -9.5l-12 -24q-2 -5 -5 -5.5t-10 1.5l-219 69q-9 3 -11 7t1 10l21 47v0z" />
    <glyph glyph-name="aacute" unicode="&#xe1;" horiz-adv-x="548" 
d="M358 62q-41 -37 -87.5 -54.5t-98.5 -17.5q-72 0 -112 34.5t-40 91.5q0 53 25.5 89.5t67.5 60t93.5 35t101.5 14.5l79 6q19 2 21 17l4 27q1 6 1.5 11t0.5 11q0 44 -28.5 68.5t-78.5 24.5q-44 0 -83.5 -20t-73.5 -62q-3 -4 -5.5 -4.5t-8.5 1.5l-51 18q-4 2 -5.5 6t3.5 14
q36 49 94.5 78t135.5 29q61 0 101.5 -17.5t60.5 -49.5t20 -76q0 -7 -0.5 -14.5t-1.5 -15.5l-49 -355q-2 -8 -4 -10t-10 -2h-50q-7 0 -10 4.5t-3 11.5l5 48q-1 13 -14 -2v0zM396 257q2 8 -0.5 11t-9.5 2l-69 -6q-30 -2 -66.5 -9t-69.5 -21.5t-54.5 -40t-21.5 -65.5
q0 -35 26 -55.5t72 -20.5q34 0 65.5 12t56.5 30q26 19 42 39.5t18 39.5zM466 698q2 -6 0.5 -9.5t-10.5 -6.5l-239 -71q-6 -2 -10 1t-5 9l-5 22q-2 11 3 13l245 95q3 1 7 -0.5t5 -7.5z" />
    <glyph glyph-name="acircumflex" unicode="&#xe2;" horiz-adv-x="548" 
d="M358 62q-41 -37 -87.5 -54.5t-98.5 -17.5q-72 0 -112 34.5t-40 91.5q0 53 25.5 89.5t67.5 60t93.5 35t101.5 14.5l79 6q19 2 21 17l4 27q1 6 1.5 11t0.5 11q0 44 -28.5 68.5t-78.5 24.5q-44 0 -83.5 -20t-73.5 -62q-3 -4 -5.5 -4.5t-8.5 1.5l-51 18q-4 2 -5.5 6t3.5 14
q36 49 94.5 78t135.5 29q61 0 101.5 -17.5t60.5 -49.5t20 -76q0 -7 -0.5 -14.5t-1.5 -15.5l-49 -355q-2 -8 -4 -10t-10 -2h-50q-7 0 -10 4.5t-3 11.5l5 48q-1 13 -14 -2v0zM396 257q2 8 -0.5 11t-9.5 2l-69 -6q-30 -2 -66.5 -9t-69.5 -21.5t-54.5 -40t-21.5 -65.5
q0 -35 26 -55.5t72 -20.5q34 0 65.5 12t56.5 30q26 19 42 39.5t18 39.5zM343 689q-7 7 -9 6.5t-12 -7.5l-66 -51q-6 -5 -9.5 -5.5t-9.5 -0.5h-55q-7 0 -7.5 4t4.5 8l116 93q6 5 11.5 7t13.5 2h40q7 0 10.5 -4.5t6.5 -6.5l89 -93q6 -6 5 -8t-8 -2h-56q-6 0 -9 2t-7 6z" />
    <glyph glyph-name="atilde" unicode="&#xe3;" horiz-adv-x="548" 
d="M358 62q-41 -37 -87.5 -54.5t-98.5 -17.5q-72 0 -112 34.5t-40 91.5q0 53 25.5 89.5t67.5 60t93.5 35t101.5 14.5l79 6q19 2 21 17l4 27q1 6 1.5 11t0.5 11q0 44 -28.5 68.5t-78.5 24.5q-44 0 -83.5 -20t-73.5 -62q-3 -4 -5.5 -4.5t-8.5 1.5l-51 18q-4 2 -5.5 6t3.5 14
q36 49 94.5 78t135.5 29q61 0 101.5 -17.5t60.5 -49.5t20 -76q0 -7 -0.5 -14.5t-1.5 -15.5l-49 -355q-2 -8 -4 -10t-10 -2h-50q-7 0 -10 4.5t-3 11.5l5 48q-1 13 -14 -2v0zM396 257q2 8 -0.5 11t-9.5 2l-69 -6q-30 -2 -66.5 -9t-69.5 -21.5t-54.5 -40t-21.5 -65.5
q0 -35 26 -55.5t72 -20.5q34 0 65.5 12t56.5 30q26 19 42 39.5t18 39.5zM476 674q-13 -7 -32.5 -13t-45.5 -6q-28 0 -47.5 6.5t-36.5 12.5t-39 6q-24 0 -37 -9t-28 -15q-7 -2 -9.5 0.5t-4.5 9.5l-7 27q-1 5 -2 9t4 7q18 11 36 18.5t43 7.5q26 0 47 -6.5t40.5 -13.5t40.5 -7
q14 0 24 3.5t19 9t18 9.5q8 2 12.5 -0.5t5.5 -9.5l5 -31q1 -4 1 -8.5t-7 -6.5v0z" />
    <glyph glyph-name="adieresis" unicode="&#xe4;" horiz-adv-x="548" 
d="M358 62q-41 -37 -87.5 -54.5t-98.5 -17.5q-72 0 -112 34.5t-40 91.5q0 53 25.5 89.5t67.5 60t93.5 35t101.5 14.5l79 6q19 2 21 17l4 27q1 6 1.5 11t0.5 11q0 44 -28.5 68.5t-78.5 24.5q-44 0 -83.5 -20t-73.5 -62q-3 -4 -5.5 -4.5t-8.5 1.5l-51 18q-4 2 -5.5 6t3.5 14
q36 49 94.5 78t135.5 29q61 0 101.5 -17.5t60.5 -49.5t20 -76q0 -7 -0.5 -14.5t-1.5 -15.5l-49 -355q-2 -8 -4 -10t-10 -2h-50q-7 0 -10 4.5t-3 11.5l5 48q-1 13 -14 -2v0zM396 257q2 8 -0.5 11t-9.5 2l-69 -6q-30 -2 -66.5 -9t-69.5 -21.5t-54.5 -40t-21.5 -65.5
q0 -35 26 -55.5t72 -20.5q34 0 65.5 12t56.5 30q26 19 42 39.5t18 39.5zM296 645q-1 -9 -4 -11t-13 -2h-53q-8 0 -11 4t-2 11l12 85q1 7 3 8.5t7 1.5h62q6 0 9 -4t1 -11zM442 645q-1 -9 -4 -11t-13 -2h-52q-9 0 -11.5 4t-1.5 11l11 85q2 7 3.5 8.5t7.5 1.5h61q6 0 9 -4
t2 -11z" />
    <glyph glyph-name="aring" unicode="&#xe5;" horiz-adv-x="548" 
d="M358 62q-41 -37 -87.5 -54.5t-98.5 -17.5q-72 0 -112 34.5t-40 91.5q0 53 25.5 89.5t67.5 60t93.5 35t101.5 14.5l79 6q19 2 21 17l4 27q1 6 1.5 11t0.5 11q0 44 -28.5 68.5t-78.5 24.5q-44 0 -83.5 -20t-73.5 -62q-3 -4 -5.5 -4.5t-8.5 1.5l-51 18q-4 2 -5.5 6t3.5 14
q36 49 94.5 78t135.5 29q61 0 101.5 -17.5t60.5 -49.5t20 -76q0 -7 -0.5 -14.5t-1.5 -15.5l-49 -355q-2 -8 -4 -10t-10 -2h-50q-7 0 -10 4.5t-3 11.5l5 48q-1 13 -14 -2v0zM396 257q2 8 -0.5 11t-9.5 2l-69 -6q-30 -2 -66.5 -9t-69.5 -21.5t-54.5 -40t-21.5 -65.5
q0 -35 26 -55.5t72 -20.5q34 0 65.5 12t56.5 30q26 19 42 39.5t18 39.5zM439 693q-6 -43 -39.5 -71.5t-75.5 -28.5q-30 0 -53 14.5t-33.5 40t-6.5 56.5q5 41 39 69t75 28q31 0 53.5 -14.5t33.5 -39t7 -54.5v0zM389 701q4 24 -9 38t-35 14q-24 0 -44 -17t-24 -44
q-3 -20 11 -35.5t34 -15.5q25 0 44.5 18.5t22.5 41.5v0z" />
    <glyph glyph-name="ae" unicode="&#xe6;" horiz-adv-x="925" 
d="M495 246q-11 0 -16 -5.5t-7 -21.5q-6 -41 11 -79t52.5 -62t82.5 -24q44 0 74.5 12.5t54 33t42.5 40.5q5 4 7 2.5t7 -3.5l38 -21q3 -2 5 -6t-2 -11q-27 -36 -63.5 -60.5t-80 -37.5t-93.5 -13q-56 0 -93.5 18t-60.5 44t-38 49q-1 2 -3.5 -1t-4.5 -6q-24 -23 -56.5 -47.5
t-76 -40.5t-103.5 -16q-81 0 -120.5 41.5t-29.5 110.5q11 75 78 119t197 53l88 7q9 1 15.5 5.5t7.5 11.5l4 27q8 54 -19.5 84.5t-88.5 30.5q-43 0 -81.5 -21t-73.5 -63q-4 -5 -6.5 -4t-8.5 3l-49 18q-4 2 -4.5 7.5t2.5 12.5q25 34 59 58t76.5 36.5t93.5 12.5q74 0 114.5 -25
t50.5 -72q38 49 90 73t113 24q72 0 122.5 -32.5t72.5 -94t10 -149.5q-1 -9 -4 -13t-15 -4l-370 -1v0zM677 480q-46 0 -87 -22t-69 -62.5t-36 -95.5l301 2q12 0 16.5 4.5t5.5 14.5q6 43 -8 79t-45.5 58t-77.5 22v0zM395 254q2 8 0 10.5t-12 2.5l-73 -6q-61 -4 -105 -20
t-69 -41.5t-30 -61.5q-6 -40 19 -64.5t78 -22.5q45 2 84.5 19t66 44.5t30.5 60.5l11 79v0z" />
    <glyph glyph-name="ccedilla" unicode="&#xe7;" horiz-adv-x="542" 
d="M332 540q53 0 90.5 -17.5t62.5 -46.5t38 -65q2 -5 1 -7.5t-6 -4.5l-55 -12q-4 -1 -6.5 2.5t-5.5 9.5q-16 27 -33 44.5t-37 26t-46 8.5q-51 0 -89.5 -24t-64.5 -63.5t-39.5 -86t-13.5 -93.5q0 -75 38 -117t105 -42q49 0 88 23.5t75 72.5q5 5 12 1l40 -16q4 -1 6 -5.5
t-1 -11.5q-18 -25 -41 -48.5t-52 -40.5t-63 -27t-74 -10q-67 0 -116 28t-75.5 79.5t-26.5 119.5q0 60 19.5 117.5t57 104t91 74t121.5 27.5v0zM331 -136q-5 -37 -38.5 -55.5t-76.5 -18.5q-26 0 -47.5 6.5t-37.5 18.5q-3 0 -5.5 2.5t-1.5 5.5l16 26q1 3 2.5 1t3.5 -4
q11 -7 24.5 -11.5t33.5 -4.5q30 0 47 11t20 32q2 20 -14.5 30t-57.5 11q-6 0 -8.5 2.5t-0.5 5.5l48 83h48l-30 -59q-2 -2 -2 -2.5t1 -0.5q33 -2 50.5 -14t23 -29t2.5 -36v0z" />
    <glyph glyph-name="egrave" unicode="&#xe8;" horiz-adv-x="581" 
d="M265 -10q-67 0 -117.5 28t-77.5 78.5t-27 118.5q0 62 20 120t58 104t92 73.5t121 27.5q65 0 112 -25.5t72.5 -74.5t25.5 -118q0 -14 -1 -28.5t-3 -29.5q-1 -8 -6 -12.5t-15 -4.5h-379q-8 0 -11 -9.5t-3 -35.5q0 -69 41.5 -108.5t106.5 -39.5q53 0 94.5 21t74.5 63
q4 4 8 3.5t7 -2.5l39 -21q11 -6 4 -17q-33 -40 -69 -64t-77 -35.5t-90 -11.5v0zM443 300q10 0 16 8t6 37q0 59 -35 97t-97 38q-53 0 -94.5 -26t-67 -67.5t-31.5 -86.5h303zM236 745q2 4 5 5t7 -1l217 -94q4 -2 6 -5.5t0 -9.5l-12 -24q-2 -5 -5 -5.5t-10 1.5l-219 69
q-9 3 -11 7t1 10l21 47v0z" />
    <glyph glyph-name="eacute" unicode="&#xe9;" horiz-adv-x="581" 
d="M265 -10q-67 0 -117.5 28t-77.5 78.5t-27 118.5q0 62 20 120t58 104t92 73.5t121 27.5q65 0 112 -25.5t72.5 -74.5t25.5 -118q0 -14 -1 -28.5t-3 -29.5q-1 -8 -6 -12.5t-15 -4.5h-379q-8 0 -11 -9.5t-3 -35.5q0 -69 41.5 -108.5t106.5 -39.5q53 0 94.5 21t74.5 63
q4 4 8 3.5t7 -2.5l39 -21q11 -6 4 -17q-33 -40 -69 -64t-77 -35.5t-90 -11.5v0zM443 300q10 0 16 8t6 37q0 59 -35 97t-97 38q-53 0 -94.5 -26t-67 -67.5t-31.5 -86.5h303zM490 698q2 -6 0.5 -9.5t-10.5 -6.5l-239 -71q-6 -2 -10 1t-5 9l-5 22q-2 11 3 13l245 95q3 1 7 -0.5
t5 -7.5z" />
    <glyph glyph-name="ecircumflex" unicode="&#xea;" horiz-adv-x="581" 
d="M265 -10q-67 0 -117.5 28t-77.5 78.5t-27 118.5q0 62 20 120t58 104t92 73.5t121 27.5q65 0 112 -25.5t72.5 -74.5t25.5 -118q0 -14 -1 -28.5t-3 -29.5q-1 -8 -6 -12.5t-15 -4.5h-379q-8 0 -11 -9.5t-3 -35.5q0 -69 41.5 -108.5t106.5 -39.5q53 0 94.5 21t74.5 63
q4 4 8 3.5t7 -2.5l39 -21q11 -6 4 -17q-33 -40 -69 -64t-77 -35.5t-90 -11.5v0zM443 300q10 0 16 8t6 37q0 59 -35 97t-97 38q-53 0 -94.5 -26t-67 -67.5t-31.5 -86.5h303zM366 689q-7 7 -9 6.5t-12 -7.5l-66 -51q-6 -5 -9.5 -5.5t-9.5 -0.5h-55q-7 0 -7.5 4t4.5 8l116 93
q6 5 11.5 7t13.5 2h40q7 0 10.5 -4.5t6.5 -6.5l89 -93q6 -6 5 -8t-8 -2h-56q-6 0 -9 2t-7 6z" />
    <glyph glyph-name="edieresis" unicode="&#xeb;" horiz-adv-x="581" 
d="M265 -10q-67 0 -117.5 28t-77.5 78.5t-27 118.5q0 62 20 120t58 104t92 73.5t121 27.5q65 0 112 -25.5t72.5 -74.5t25.5 -118q0 -14 -1 -28.5t-3 -29.5q-1 -8 -6 -12.5t-15 -4.5h-379q-8 0 -11 -9.5t-3 -35.5q0 -69 41.5 -108.5t106.5 -39.5q53 0 94.5 21t74.5 63
q4 4 8 3.5t7 -2.5l39 -21q11 -6 4 -17q-33 -40 -69 -64t-77 -35.5t-90 -11.5v0zM443 300q10 0 16 8t6 37q0 59 -35 97t-97 38q-53 0 -94.5 -26t-67 -67.5t-31.5 -86.5h303zM319 645q-1 -9 -4 -11t-13 -2h-53q-8 0 -11 4t-2 11l12 85q1 7 3 8.5t7 1.5h62q6 0 9 -4t1 -11z
M465 645q-1 -9 -4 -11t-13 -2h-52q-9 0 -11.5 4t-1.5 11l11 85q2 7 3.5 8.5t7.5 1.5h61q6 0 9 -4t2 -11z" />
    <glyph glyph-name="igrave" unicode="&#xec;" horiz-adv-x="239" 
d="M126 14q-1 -9 -4 -11.5t-14 -2.5h-51q-9 0 -12.5 4.5t-2.5 12.5l71 502q1 7 3 9t8 2h61q6 0 9.5 -4t2.5 -11zM57 745q2 4 5 5t7 -1l217 -94q4 -2 6 -5.5t0 -9.5l-12 -24q-2 -5 -5 -5.5t-10 1.5l-219 69q-9 3 -11 7t1 10l21 47v0z" />
    <glyph glyph-name="iacute" unicode="&#xed;" horiz-adv-x="239" 
d="M126 14q-1 -9 -4 -11.5t-14 -2.5h-51q-9 0 -12.5 4.5t-2.5 12.5l71 502q1 7 3 9t8 2h61q6 0 9.5 -4t2.5 -11zM311 698q2 -6 0.5 -9.5t-10.5 -6.5l-239 -71q-6 -2 -10 1t-5 9l-5 22q-2 11 3 13l245 95q3 1 7 -0.5t5 -7.5z" />
    <glyph glyph-name="icircumflex" unicode="&#xee;" horiz-adv-x="239" 
d="M126 14q-1 -9 -4 -11.5t-14 -2.5h-51q-9 0 -12.5 4.5t-2.5 12.5l71 502q1 7 3 9t8 2h61q6 0 9.5 -4t2.5 -11zM187 689q-7 7 -9 6.5t-12 -7.5l-66 -51q-6 -5 -9.5 -5.5t-9.5 -0.5h-55q-7 0 -7.5 4t4.5 8l116 93q6 5 11.5 7t13.5 2h40q7 0 10.5 -4.5t6.5 -6.5l89 -93
q6 -6 5 -8t-8 -2h-56q-6 0 -9 2t-7 6z" />
    <glyph glyph-name="idieresis" unicode="&#xef;" horiz-adv-x="239" 
d="M126 14q-1 -9 -4 -11.5t-14 -2.5h-51q-9 0 -12.5 4.5t-2.5 12.5l71 502q1 7 3 9t8 2h61q6 0 9.5 -4t2.5 -11zM141 645q-1 -9 -4 -11t-13 -2h-53q-8 0 -11 4t-2 11l12 85q1 7 3 8.5t7 1.5h62q6 0 9 -4t1 -11zM287 645q-1 -9 -4 -11t-13 -2h-52q-9 0 -11.5 4t-1.5 11l11 85
q2 7 3.5 8.5t7.5 1.5h61q6 0 9 -4t2 -11z" />
    <glyph glyph-name="eth" unicode="&#xf0;" 
d="M551 258q-11 -79 -50 -139.5t-99.5 -94.5t-139.5 -34q-75 0 -127.5 34t-76 94.5t-13.5 137.5q11 78 51 137.5t99.5 93t129.5 33.5q41 0 72 -12t52 -34q-15 44 -42.5 84t-75.5 76l-161 -87q-5 -2 -8.5 1t-6.5 8l-8 17q-6 10 0 13l146 74q-22 13 -45.5 25t-50.5 24
q-5 1 -7 5t2 7l40 28q6 3 9 2.5t8 -4.5q33 -10 60.5 -23.5t51.5 -28.5l104 56q4 3 7.5 0.5t3.5 -5.5l11 -26q1 -3 2 -5t-2 -4l-87 -44q100 -75 134.5 -179.5t16.5 -229.5v0zM267 53q50 0 92 26.5t70 73t36 106.5q9 58 -5.5 103t-47.5 70.5t-82 25.5t-91.5 -27t-71 -74
t-37.5 -107q-7 -57 7.5 -102t48 -70t81.5 -25v0z" />
    <glyph glyph-name="ntilde" unicode="&#xf1;" horiz-adv-x="584" 
d="M53 0q-6 0 -9 4.5t-2 11.5l71 504q1 6 3 8t7 2h63q5 0 7.5 -2t0.5 -9l-8 -57q-1 -11 8 -3q48 38 95.5 59.5t98.5 21.5q70 0 107 -35t37 -92q0 -6 -0.5 -12.5t-1.5 -14.5l-53 -373q-1 -8 -4 -10.5t-11 -2.5h-58q-6 0 -9 4.5t-1 11.5l50 355q1 7 1.5 13.5t0.5 11.5
q0 38 -21 58t-67 20q-31 0 -58 -9.5t-55.5 -28t-64.5 -45.5l-54 -379q-1 -7 -4 -9.5t-12 -2.5h-57v0zM505 674q-13 -7 -32.5 -13t-45.5 -6q-28 0 -47.5 6.5t-36.5 12.5t-39 6q-24 0 -37 -9t-28 -15q-7 -2 -9.5 0.5t-4.5 9.5l-7 27q-1 5 -2 9t4 7q18 11 36 18.5t43 7.5
q26 0 47 -6.5t40.5 -13.5t40.5 -7q14 0 24 3.5t19 9t18 9.5q8 2 12.5 -0.5t5.5 -9.5l5 -31q1 -4 1 -8.5t-7 -6.5v0z" />
    <glyph glyph-name="ograve" unicode="&#xf2;" 
d="M264 -10q-68 0 -118 28t-76.5 79.5t-26.5 118.5q0 70 23 129.5t63 103t93.5 67.5t112.5 24q69 0 118 -29t75.5 -81t26.5 -121q0 -92 -39 -164.5t-105 -113.5t-147 -41v0zM267 53q58 0 104 33t72.5 93t26.5 143q0 73 -35.5 114.5t-101.5 41.5q-56 0 -103 -33.5t-74.5 -94
t-27.5 -142.5q0 -72 36.5 -113.5t102.5 -41.5v0zM238 745q2 4 5 5t7 -1l217 -94q4 -2 6 -5.5t0 -9.5l-12 -24q-2 -5 -5 -5.5t-10 1.5l-219 69q-9 3 -11 7t1 10l21 47v0z" />
    <glyph glyph-name="oacute" unicode="&#xf3;" 
d="M264 -10q-68 0 -118 28t-76.5 79.5t-26.5 118.5q0 70 23 129.5t63 103t93.5 67.5t112.5 24q69 0 118 -29t75.5 -81t26.5 -121q0 -92 -39 -164.5t-105 -113.5t-147 -41v0zM267 53q58 0 104 33t72.5 93t26.5 143q0 73 -35.5 114.5t-101.5 41.5q-56 0 -103 -33.5t-74.5 -94
t-27.5 -142.5q0 -72 36.5 -113.5t102.5 -41.5v0zM492 698q2 -6 0.5 -9.5t-10.5 -6.5l-239 -71q-6 -2 -10 1t-5 9l-5 22q-2 11 3 13l245 95q3 1 7 -0.5t5 -7.5z" />
    <glyph glyph-name="ocircumflex" unicode="&#xf4;" 
d="M264 -10q-68 0 -118 28t-76.5 79.5t-26.5 118.5q0 70 23 129.5t63 103t93.5 67.5t112.5 24q69 0 118 -29t75.5 -81t26.5 -121q0 -92 -39 -164.5t-105 -113.5t-147 -41v0zM267 53q58 0 104 33t72.5 93t26.5 143q0 73 -35.5 114.5t-101.5 41.5q-56 0 -103 -33.5t-74.5 -94
t-27.5 -142.5q0 -72 36.5 -113.5t102.5 -41.5v0zM369 689q-7 7 -9 6.5t-12 -7.5l-66 -51q-6 -5 -9.5 -5.5t-9.5 -0.5h-55q-7 0 -7.5 4t4.5 8l116 93q6 5 11.5 7t13.5 2h40q7 0 10.5 -4.5t6.5 -6.5l89 -93q6 -6 5 -8t-8 -2h-56q-6 0 -9 2t-7 6z" />
    <glyph glyph-name="otilde" unicode="&#xf5;" 
d="M264 -10q-68 0 -118 28t-76.5 79.5t-26.5 118.5q0 70 23 129.5t63 103t93.5 67.5t112.5 24q69 0 118 -29t75.5 -81t26.5 -121q0 -92 -39 -164.5t-105 -113.5t-147 -41v0zM267 53q58 0 104 33t72.5 93t26.5 143q0 73 -35.5 114.5t-101.5 41.5q-56 0 -103 -33.5t-74.5 -94
t-27.5 -142.5q0 -72 36.5 -113.5t102.5 -41.5v0zM502 674q-13 -7 -32.5 -13t-45.5 -6q-28 0 -47.5 6.5t-36.5 12.5t-39 6q-24 0 -37 -9t-28 -15q-7 -2 -9.5 0.5t-4.5 9.5l-7 27q-1 5 -2 9t4 7q18 11 36 18.5t43 7.5q26 0 47 -6.5t40.5 -13.5t40.5 -7q14 0 24 3.5t19 9
t18 9.5q8 2 12.5 -0.5t5.5 -9.5l5 -31q1 -4 1 -8.5t-7 -6.5v0z" />
    <glyph glyph-name="odieresis" unicode="&#xf6;" 
d="M264 -10q-68 0 -118 28t-76.5 79.5t-26.5 118.5q0 70 23 129.5t63 103t93.5 67.5t112.5 24q69 0 118 -29t75.5 -81t26.5 -121q0 -92 -39 -164.5t-105 -113.5t-147 -41v0zM267 53q58 0 104 33t72.5 93t26.5 143q0 73 -35.5 114.5t-101.5 41.5q-56 0 -103 -33.5t-74.5 -94
t-27.5 -142.5q0 -72 36.5 -113.5t102.5 -41.5v0zM322 645q-1 -9 -4 -11t-13 -2h-53q-8 0 -11 4t-2 11l12 85q1 7 3 8.5t7 1.5h62q6 0 9 -4t1 -11zM468 645q-1 -9 -4 -11t-13 -2h-52q-9 0 -11.5 4t-1.5 11l11 85q2 7 3.5 8.5t7.5 1.5h61q6 0 9 -4t2 -11z" />
    <glyph glyph-name="divide" unicode="&#xf7;" horiz-adv-x="558" 
d="M320 156q-1 -9 -4 -11t-14 -2h-80q-8 0 -11 4.5t-2 11.5l11 82q1 6 3 7.5t6 1.5h93q5 0 8 -3.5t2 -9.5zM508 351q-1 -7 -4 -9t-12 -2l-405 -1q-7 0 -10.5 4t-2.5 11l6 43q2 5 3.5 7t5.5 2h415q4 0 7.5 -3.5t2.5 -8.5zM369 508q-1 -8 -3.5 -10.5t-13.5 -2.5h-80
q-8 0 -11.5 4.5t-2.5 11.5l12 82q1 7 3 8.5t6 1.5h92q6 0 8.5 -3.5t1.5 -9.5z" />
    <glyph glyph-name="oslash" unicode="&#xf8;" horiz-adv-x="583" 
d="M28 4q-7 -6 -13 -4t-10 8l-11 14q-6 7 -7 12.5t6 11.5l562 479q6 6 11 4.5t9 -7.5l16 -19q3 -4 4.5 -8.5t-4.5 -8.5zM254 -10q-68 0 -118 28t-76.5 79.5t-26.5 118.5q0 70 23 129.5t63 103t93.5 67.5t112.5 24q69 0 118 -29t75.5 -81t26.5 -121q0 -92 -39 -164.5
t-104.5 -113.5t-147.5 -41v0zM257 53q58 0 104 33t72.5 93t26.5 143q0 73 -35.5 114.5t-101.5 41.5q-56 0 -103 -33.5t-74.5 -94t-27.5 -142.5q0 -72 36.5 -113.5t102.5 -41.5v0z" />
    <glyph glyph-name="ugrave" unicode="&#xf9;" horiz-adv-x="579" 
d="M195 -10q-64 0 -103.5 35.5t-39.5 95.5v11.5t1 12.5l53 372q1 8 4 10.5t10 2.5h56q8 0 11.5 -4.5t1.5 -11.5l-49 -351q-1 -6 -1.5 -12t-0.5 -10q0 -45 22.5 -65t63.5 -20q45 0 88 24.5t88 64.5l53 373q2 8 5 10t11 2h55q8 0 11.5 -4.5t2.5 -11.5l-72 -504q-1 -5 -3 -7.5
t-8 -2.5h-58q-6 0 -9 2.5t-2 8.5l8 56q1 6 -1.5 7t-8.5 -4q-61 -47 -105 -63.5t-84 -16.5v0zM214 745q2 4 5 5t7 -1l217 -94q4 -2 6 -5.5t0 -9.5l-12 -24q-2 -5 -5 -5.5t-10 1.5l-219 69q-9 3 -11 7t1 10l21 47v0z" />
    <glyph glyph-name="uacute" unicode="&#xfa;" horiz-adv-x="579" 
d="M195 -10q-64 0 -103.5 35.5t-39.5 95.5v11.5t1 12.5l53 372q1 8 4 10.5t10 2.5h56q8 0 11.5 -4.5t1.5 -11.5l-49 -351q-1 -6 -1.5 -12t-0.5 -10q0 -45 22.5 -65t63.5 -20q45 0 88 24.5t88 64.5l53 373q2 8 5 10t11 2h55q8 0 11.5 -4.5t2.5 -11.5l-72 -504q-1 -5 -3 -7.5
t-8 -2.5h-58q-6 0 -9 2.5t-2 8.5l8 56q1 6 -1.5 7t-8.5 -4q-61 -47 -105 -63.5t-84 -16.5v0zM468 698q2 -6 0.5 -9.5t-10.5 -6.5l-239 -71q-6 -2 -10 1t-5 9l-5 22q-2 11 3 13l245 95q3 1 7 -0.5t5 -7.5z" />
    <glyph glyph-name="ucircumflex" unicode="&#xfb;" horiz-adv-x="579" 
d="M195 -10q-64 0 -103.5 35.5t-39.5 95.5v11.5t1 12.5l53 372q1 8 4 10.5t10 2.5h56q8 0 11.5 -4.5t1.5 -11.5l-49 -351q-1 -6 -1.5 -12t-0.5 -10q0 -45 22.5 -65t63.5 -20q45 0 88 24.5t88 64.5l53 373q2 8 5 10t11 2h55q8 0 11.5 -4.5t2.5 -11.5l-72 -504q-1 -5 -3 -7.5
t-8 -2.5h-58q-6 0 -9 2.5t-2 8.5l8 56q1 6 -1.5 7t-8.5 -4q-61 -47 -105 -63.5t-84 -16.5v0zM345 689q-7 7 -9 6.5t-12 -7.5l-66 -51q-6 -5 -9.5 -5.5t-9.5 -0.5h-55q-7 0 -7.5 4t4.5 8l116 93q6 5 11.5 7t13.5 2h40q7 0 10.5 -4.5t6.5 -6.5l89 -93q6 -6 5 -8t-8 -2h-56
q-6 0 -9 2t-7 6z" />
    <glyph glyph-name="udieresis" unicode="&#xfc;" horiz-adv-x="579" 
d="M195 -10q-64 0 -103.5 35.5t-39.5 95.5v11.5t1 12.5l53 372q1 8 4 10.5t10 2.5h56q8 0 11.5 -4.5t1.5 -11.5l-49 -351q-1 -6 -1.5 -12t-0.5 -10q0 -45 22.5 -65t63.5 -20q45 0 88 24.5t88 64.5l53 373q2 8 5 10t11 2h55q8 0 11.5 -4.5t2.5 -11.5l-72 -504q-1 -5 -3 -7.5
t-8 -2.5h-58q-6 0 -9 2.5t-2 8.5l8 56q1 6 -1.5 7t-8.5 -4q-61 -47 -105 -63.5t-84 -16.5v0zM298 645q-1 -9 -4 -11t-13 -2h-53q-8 0 -11 4t-2 11l12 85q1 7 3 8.5t7 1.5h62q6 0 9 -4t1 -11zM444 645q-1 -9 -4 -11t-13 -2h-52q-9 0 -11.5 4t-1.5 11l11 85q2 7 3.5 8.5
t7.5 1.5h61q6 0 9 -4t2 -11z" />
    <glyph glyph-name="yacute" unicode="&#xfd;" horiz-adv-x="530" 
d="M43 -165q-28 0 -43 2t-14 11l5 39q1 7 8.5 10t24.5 3h60q22 0 42 14.5t35.5 35.5t22 43.5t2.5 39.5l-125 478q-4 19 11 19h68q11 0 13 -9l96 -388q2 -10 7 -10t12 12l200 382q3 7 7 10t9 3h48q13 0 5 -12l-300 -563q-19 -35 -39.5 -58.5t-44 -37t-50.5 -19t-60 -5.5v0z
M466 698q2 -6 0.5 -9.5t-10.5 -6.5l-239 -71q-6 -2 -10 1t-5 9l-5 22q-2 11 3 13l245 95q3 1 7 -0.5t5 -7.5z" />
    <glyph glyph-name="thorn" unicode="&#xfe;" horiz-adv-x="595" 
d="M211 742q7 0 11 -5t3 -12l-36 -255q-1 -7 2 -5.5t9 8.5q13 10 34 26t53.5 28.5t77.5 12.5q63 0 109 -30t67.5 -90.5t7.5 -151.5q-12 -88 -49 -150.5t-93 -95t-123 -32.5q-48 0 -81.5 15.5t-52.5 37.5q-18 13 -22 -12l-25 -186q-1 -6 -3 -8t-8 -2h-62q-5 0 -8.5 4.5
t-2.5 10.5l123 879q2 8 4.5 10.5t12.5 2.5h52v0zM139 115q26 -30 55.5 -47t68.5 -17q49 0 91 25.5t71.5 76t38.5 123.5q10 73 -5 117.5t-47.5 65t-75.5 20.5q-42 0 -77.5 -18.5t-58 -46t-25.5 -53.5l-36 -246v0z" />
    <glyph glyph-name="ydieresis" unicode="&#xff;" horiz-adv-x="530" 
d="M43 -165q-28 0 -43 2t-14 11l5 39q1 7 8.5 10t24.5 3h60q22 0 42 14.5t35.5 35.5t22 43.5t2.5 39.5l-125 478q-4 19 11 19h68q11 0 13 -9l96 -388q2 -10 7 -10t12 12l200 382q3 7 7 10t9 3h48q13 0 5 -12l-300 -563q-19 -35 -39.5 -58.5t-44 -37t-50.5 -19t-60 -5.5v0z
M296 645q-1 -9 -4 -11t-13 -2h-53q-8 0 -11 4t-2 11l12 85q1 7 3 8.5t7 1.5h62q6 0 9 -4t1 -11zM442 645q-1 -9 -4 -11t-13 -2h-52q-9 0 -11.5 4t-1.5 11l11 85q2 7 3.5 8.5t7.5 1.5h61q6 0 9 -4t2 -11z" />
    <glyph glyph-name="Amacron" unicode="&#x100;" horiz-adv-x="727" 
d="M16 0q-6 0 -8 5t2 14l360 711q4 7 9 9.5t13 2.5h78q10 0 14 -5t5 -12l157 -710q1 -6 -1 -10.5t-9 -4.5h-71q-13 0 -14 13l-43 192q-1 7 -10 7h-291q-9 0 -13 -9l-100 -196q-1 -4 -4 -5.5t-10 -1.5h-64v0zM483 288q12 0 9 13l-74 329q-2 10 -6 9.5t-9 -11.5l-167 -327
q-3 -8 -2.5 -10.5t5.5 -2.5h244zM598 888q-1 -6 -3.5 -8t-11.5 -2h-269q-7 0 -9.5 4t-1.5 10l5 39q1 5 2.5 7t4.5 2h280q4 0 6.5 -4.5t1.5 -7.5z" />
    <glyph glyph-name="amacron" unicode="&#x101;" horiz-adv-x="548" 
d="M358 62q-41 -37 -87.5 -54.5t-98.5 -17.5q-72 0 -112 34.5t-40 91.5q0 53 25.5 89.5t67.5 60t93.5 35t101.5 14.5l79 6q19 2 21 17l4 27q1 6 1.5 11t0.5 11q0 44 -28.5 68.5t-78.5 24.5q-44 0 -83.5 -20t-73.5 -62q-3 -4 -5.5 -4.5t-8.5 1.5l-51 18q-4 2 -5.5 6t3.5 14
q36 49 94.5 78t135.5 29q61 0 101.5 -17.5t60.5 -49.5t20 -76q0 -7 -0.5 -14.5t-1.5 -15.5l-49 -355q-2 -8 -4 -10t-10 -2h-50q-7 0 -10 4.5t-3 11.5l5 48q-1 13 -14 -2v0zM396 257q2 8 -0.5 11t-9.5 2l-69 -6q-30 -2 -66.5 -9t-69.5 -21.5t-54.5 -40t-21.5 -65.5
q0 -35 26 -55.5t72 -20.5q34 0 65.5 12t56.5 30q26 19 42 39.5t18 39.5zM480 676q-1 -6 -3.5 -8t-11.5 -2h-269q-7 0 -9.5 4t-1.5 10l5 39q1 5 2.5 7t4.5 2h280q4 0 6.5 -4.5t1.5 -7.5z" />
    <glyph glyph-name="Abreve" unicode="&#x102;" horiz-adv-x="727" 
d="M16 0q-6 0 -8 5t2 14l360 711q4 7 9 9.5t13 2.5h78q10 0 14 -5t5 -12l157 -710q1 -6 -1 -10.5t-9 -4.5h-71q-13 0 -14 13l-43 192q-1 7 -10 7h-291q-9 0 -13 -9l-100 -196q-1 -4 -4 -5.5t-10 -1.5h-64v0zM483 288q12 0 9 13l-74 329q-2 10 -6 9.5t-9 -11.5l-167 -327
q-3 -8 -2.5 -10.5t5.5 -2.5h244zM590 953q7 0 9.5 -4.5t-1.5 -11.5q-11 -22 -33 -43.5t-54 -34.5t-72 -13q-41 0 -70 12.5t-45.5 34.5t-18.5 49q-1 4 1 7.5t9 3.5h45q7 0 9 -3.5t6 -9.5q6 -7 13.5 -16.5t20.5 -16.5t34 -7q33 0 54.5 15t35.5 32q3 4 6.5 5t7.5 1h43v0z" />
    <glyph glyph-name="abreve" unicode="&#x103;" horiz-adv-x="548" 
d="M358 62q-41 -37 -87.5 -54.5t-98.5 -17.5q-72 0 -112 34.5t-40 91.5q0 53 25.5 89.5t67.5 60t93.5 35t101.5 14.5l79 6q19 2 21 17l4 27q1 6 1.5 11t0.5 11q0 44 -28.5 68.5t-78.5 24.5q-44 0 -83.5 -20t-73.5 -62q-3 -4 -5.5 -4.5t-8.5 1.5l-51 18q-4 2 -5.5 6t3.5 14
q36 49 94.5 78t135.5 29q61 0 101.5 -17.5t60.5 -49.5t20 -76q0 -7 -0.5 -14.5t-1.5 -15.5l-49 -355q-2 -8 -4 -10t-10 -2h-50q-7 0 -10 4.5t-3 11.5l5 48q-1 13 -14 -2v0zM396 257q2 8 -0.5 11t-9.5 2l-69 -6q-30 -2 -66.5 -9t-69.5 -21.5t-54.5 -40t-21.5 -65.5
q0 -35 26 -55.5t72 -20.5q34 0 65.5 12t56.5 30q26 19 42 39.5t18 39.5zM472 741q7 0 9.5 -4.5t-1.5 -11.5q-11 -22 -33 -43.5t-54 -34.5t-72 -13q-41 0 -70 12.5t-45.5 34.5t-18.5 49q-1 4 1 7.5t9 3.5h45q7 0 9 -3.5t6 -9.5q6 -7 13.5 -16.5t20.5 -16.5t34 -7
q33 0 54.5 15t35.5 32q3 4 6.5 5t7.5 1h43v0z" />
    <glyph glyph-name="Aogonek" unicode="&#x104;" horiz-adv-x="727" 
d="M16 0q-6 0 -8 5t2 14l360 711q4 7 9 9.5t13 2.5h78q10 0 14 -5t5 -12l157 -710q1 -6 -1 -10.5t-9 -4.5h-71q-13 0 -14 13l-43 192q-1 7 -10 7h-291q-9 0 -13 -9l-100 -196q-1 -4 -4 -5.5t-10 -1.5h-64v0zM483 288q12 0 9 13l-74 329q-2 10 -6 9.5t-9 -11.5l-167 -327
q-3 -8 -2.5 -10.5t5.5 -2.5h244zM461 -86q2 20 13.5 36.5t36.5 31.5t68 27l62 -8q-54 -22 -80.5 -42t-29.5 -47q-3 -18 7 -27t35 -9q22 0 39.5 5.5t25.5 9.5q7 2 10 0t1 -8l-4 -29q-1 -4 -3 -7t-5 -5q-13 -4 -36 -8.5t-49 -4.5q-51 0 -73.5 23.5t-17.5 61.5v0z" />
    <glyph glyph-name="aogonek" unicode="&#x105;" horiz-adv-x="548" 
d="M358 62q-41 -37 -87.5 -54.5t-98.5 -17.5q-72 0 -112 34.5t-40 91.5q0 53 25.5 89.5t67.5 60t93.5 35t101.5 14.5l79 6q19 2 21 17l4 27q1 6 1.5 11t0.5 11q0 44 -28.5 68.5t-78.5 24.5q-44 0 -83.5 -20t-73.5 -62q-3 -4 -5.5 -4.5t-8.5 1.5l-51 18q-4 2 -5.5 6t3.5 14
q36 49 94.5 78t135.5 29q61 0 101.5 -17.5t60.5 -49.5t20 -76q0 -7 -0.5 -14.5t-1.5 -15.5l-49 -355q-2 -8 -4 -10t-10 -2h-50q-7 0 -10 4.5t-3 11.5l5 48q-1 13 -14 -2v0zM396 257q2 8 -0.5 11t-9.5 2l-69 -6q-30 -2 -66.5 -9t-69.5 -21.5t-54.5 -40t-21.5 -65.5
q0 -35 26 -55.5t72 -20.5q34 0 65.5 12t56.5 30q26 19 42 39.5t18 39.5zM260 -84q2 20 13.5 36.5t36.5 31.5t68 27l62 -8q-54 -22 -80.5 -42t-29.5 -47q-3 -18 7 -27t35 -9q22 0 39.5 5.5t25.5 9.5q7 2 10 0t1 -8l-4 -29q-1 -4 -3 -7t-5 -5q-13 -4 -36 -8.5t-49 -4.5
q-51 0 -73.5 23.5t-17.5 61.5v0z" />
    <glyph glyph-name="Cacute" unicode="&#x106;" horiz-adv-x="707" 
d="M444 752q69 0 124 -29t87.5 -76.5t32.5 -104.5q0 -12 -10 -12l-72 -5q-8 0 -10 16q-5 62 -46 100t-108 38q-60 0 -105.5 -25t-77 -67t-50.5 -94.5t-28 -108.5t-9 -109q0 -104 45 -156.5t136 -52.5q72 0 126 35t92 110q3 7 15 3l59 -16q7 -3 1 -18q-13 -27 -33 -55
t-47.5 -52t-61.5 -42.5t-73.5 -29.5t-84.5 -11q-87 0 -148 36t-92.5 102.5t-31.5 158.5q0 66 13.5 132.5t42 126t72.5 106.5t104 73.5t138 26.5v0zM599 910q2 -6 0.5 -9.5t-10.5 -6.5l-239 -71q-6 -2 -10 1t-5 9l-5 22q-2 11 3 13l245 95q3 1 7 -0.5t5 -7.5z" />
    <glyph glyph-name="cacute" unicode="&#x107;" horiz-adv-x="542" 
d="M332 540q53 0 90.5 -17.5t62.5 -46.5t38 -65q2 -5 1 -7.5t-6 -4.5l-55 -12q-4 -1 -6.5 2.5t-5.5 9.5q-16 27 -33 44.5t-37 26t-46 8.5q-51 0 -89.5 -24t-64.5 -63.5t-39.5 -86t-13.5 -93.5q0 -75 38 -117t105 -42q49 0 88 23.5t75 72.5q5 5 12 1l40 -16q4 -1 6 -5.5
t-1 -11.5q-18 -25 -41 -48.5t-52 -40.5t-63 -27t-74 -10q-67 0 -116 28t-75.5 79.5t-26.5 119.5q0 60 19.5 117.5t57 104t91 74t121.5 27.5v0zM487 698q2 -6 0.5 -9.5t-10.5 -6.5l-239 -71q-6 -2 -10 1t-5 9l-5 22q-2 11 3 13l245 95q3 1 7 -0.5t5 -7.5z" />
    <glyph glyph-name="Ccircumflex" unicode="&#x108;" horiz-adv-x="707" 
d="M444 752q69 0 124 -29t87.5 -76.5t32.5 -104.5q0 -12 -10 -12l-72 -5q-8 0 -10 16q-5 62 -46 100t-108 38q-60 0 -105.5 -25t-77 -67t-50.5 -94.5t-28 -108.5t-9 -109q0 -104 45 -156.5t136 -52.5q72 0 126 35t92 110q3 7 15 3l59 -16q7 -3 1 -18q-13 -27 -33 -55
t-47.5 -52t-61.5 -42.5t-73.5 -29.5t-84.5 -11q-87 0 -148 36t-92.5 102.5t-31.5 158.5q0 66 13.5 132.5t42 126t72.5 106.5t104 73.5t138 26.5v0zM476 901q-7 7 -9 6.5t-12 -7.5l-66 -51q-6 -5 -9.5 -5.5t-9.5 -0.5h-55q-7 0 -7.5 4t4.5 8l116 93q6 5 11.5 7t13.5 2h40
q7 0 10.5 -4.5t6.5 -6.5l89 -93q6 -6 5 -8t-8 -2h-56q-6 0 -9 2t-7 6z" />
    <glyph glyph-name="ccircumflex" unicode="&#x109;" horiz-adv-x="542" 
d="M332 540q53 0 90.5 -17.5t62.5 -46.5t38 -65q2 -5 1 -7.5t-6 -4.5l-55 -12q-4 -1 -6.5 2.5t-5.5 9.5q-16 27 -33 44.5t-37 26t-46 8.5q-51 0 -89.5 -24t-64.5 -63.5t-39.5 -86t-13.5 -93.5q0 -75 38 -117t105 -42q49 0 88 23.5t75 72.5q5 5 12 1l40 -16q4 -1 6 -5.5
t-1 -11.5q-18 -25 -41 -48.5t-52 -40.5t-63 -27t-74 -10q-67 0 -116 28t-75.5 79.5t-26.5 119.5q0 60 19.5 117.5t57 104t91 74t121.5 27.5v0zM364 689q-7 7 -9 6.5t-12 -7.5l-66 -51q-6 -5 -9.5 -5.5t-9.5 -0.5h-55q-7 0 -7.5 4t4.5 8l116 93q6 5 11.5 7t13.5 2h40
q7 0 10.5 -4.5t6.5 -6.5l89 -93q6 -6 5 -8t-8 -2h-56q-6 0 -9 2t-7 6z" />
    <glyph glyph-name="Cdotaccent" unicode="&#x10a;" horiz-adv-x="707" 
d="M444 752q69 0 124 -29t87.5 -76.5t32.5 -104.5q0 -12 -10 -12l-72 -5q-8 0 -10 16q-5 62 -46 100t-108 38q-60 0 -105.5 -25t-77 -67t-50.5 -94.5t-28 -108.5t-9 -109q0 -104 45 -156.5t136 -52.5q72 0 126 35t92 110q3 7 15 3l59 -16q7 -3 1 -18q-13 -27 -33 -55
t-47.5 -52t-61.5 -42.5t-73.5 -29.5t-84.5 -11q-87 0 -148 36t-92.5 102.5t-31.5 158.5q0 66 13.5 132.5t42 126t72.5 106.5t104 73.5t138 26.5v0zM506 851q-1 -9 -4.5 -11.5t-14.5 -2.5h-58q-9 0 -12 4.5t-2 12.5l12 89q2 7 4 9t8 2h68q6 0 9 -4t1 -11z" />
    <glyph glyph-name="cdotaccent" unicode="&#x10b;" horiz-adv-x="542" 
d="M332 540q53 0 90.5 -17.5t62.5 -46.5t38 -65q2 -5 1 -7.5t-6 -4.5l-55 -12q-4 -1 -6.5 2.5t-5.5 9.5q-16 27 -33 44.5t-37 26t-46 8.5q-51 0 -89.5 -24t-64.5 -63.5t-39.5 -86t-13.5 -93.5q0 -75 38 -117t105 -42q49 0 88 23.5t75 72.5q5 5 12 1l40 -16q4 -1 6 -5.5
t-1 -11.5q-18 -25 -41 -48.5t-52 -40.5t-63 -27t-74 -10q-67 0 -116 28t-75.5 79.5t-26.5 119.5q0 60 19.5 117.5t57 104t91 74t121.5 27.5v0zM394 639q-1 -9 -4.5 -11.5t-14.5 -2.5h-58q-9 0 -12 4.5t-2 12.5l12 89q2 7 4 9t8 2h68q6 0 9 -4t1 -11z" />
    <glyph glyph-name="Ccaron" unicode="&#x10c;" horiz-adv-x="707" 
d="M444 752q69 0 124 -29t87.5 -76.5t32.5 -104.5q0 -12 -10 -12l-72 -5q-8 0 -10 16q-5 62 -46 100t-108 38q-60 0 -105.5 -25t-77 -67t-50.5 -94.5t-28 -108.5t-9 -109q0 -104 45 -156.5t136 -52.5q72 0 126 35t92 110q3 7 15 3l59 -16q7 -3 1 -18q-13 -27 -33 -55
t-47.5 -52t-61.5 -42.5t-73.5 -29.5t-84.5 -11q-87 0 -148 36t-92.5 102.5t-31.5 158.5q0 66 13.5 132.5t42 126t72.5 106.5t104 73.5t138 26.5v0zM537 949q6 4 10 4.5t9 0.5h59q7 0 8 -4t-6 -10l-115 -93q-3 -3 -7.5 -5t-12.5 -2h-39q-9 0 -13.5 3.5t-8.5 8.5l-91 92
q-4 5 -4.5 7.5t5.5 2.5h54q6 0 9.5 -2t7.5 -7l51 -49q8 -9 11 -6.5t12 10.5l61 49v0z" />
    <glyph glyph-name="ccaron" unicode="&#x10d;" horiz-adv-x="542" 
d="M332 540q53 0 90.5 -17.5t62.5 -46.5t38 -65q2 -5 1 -7.5t-6 -4.5l-55 -12q-4 -1 -6.5 2.5t-5.5 9.5q-16 27 -33 44.5t-37 26t-46 8.5q-51 0 -89.5 -24t-64.5 -63.5t-39.5 -86t-13.5 -93.5q0 -75 38 -117t105 -42q49 0 88 23.5t75 72.5q5 5 12 1l40 -16q4 -1 6 -5.5
t-1 -11.5q-18 -25 -41 -48.5t-52 -40.5t-63 -27t-74 -10q-67 0 -116 28t-75.5 79.5t-26.5 119.5q0 60 19.5 117.5t57 104t91 74t121.5 27.5v0zM425 737q6 4 10 4.5t9 0.5h59q7 0 8 -4t-6 -10l-115 -93q-3 -3 -7.5 -5t-12.5 -2h-39q-9 0 -13.5 3.5t-8.5 8.5l-91 92
q-4 5 -4.5 7.5t5.5 2.5h54q6 0 9.5 -2t7.5 -7l51 -49q8 -9 11 -6.5t12 10.5l61 49v0z" />
    <glyph glyph-name="Dcaron" unicode="&#x10e;" horiz-adv-x="722" 
d="M76 0q-7 0 -11 5t-3 13l100 714q2 6 5 8t10 2h151q120 0 197.5 -33.5t115.5 -97t38 -156.5q0 -144 -51 -245.5t-151 -155.5t-249 -54h-152v0zM234 72q123 0 199 45.5t111 132t35 209.5q0 78 -28.5 124t-85 66t-142.5 20h-62q-12 0 -14 -13l-78 -569q-1 -8 1.5 -11.5
t9.5 -3.5h54zM493 949q6 4 10 4.5t9 0.5h59q7 0 8 -4t-6 -10l-115 -93q-3 -3 -7.5 -5t-12.5 -2h-39q-9 0 -13.5 3.5t-8.5 8.5l-91 92q-4 5 -4.5 7.5t5.5 2.5h54q6 0 9.5 -2t7.5 -7l51 -49q8 -9 11 -6.5t12 10.5l61 49v0z" />
    <glyph glyph-name="dcaron" unicode="&#x10f;" horiz-adv-x="682" 
d="M419 0q-7 0 -11.5 3.5t-2.5 10.5l6 43q2 8 -1 8t-11 -7q-12 -10 -34.5 -26.5t-54.5 -29t-75 -12.5q-84 0 -138 53.5t-54 157.5q0 61 18 121t53 109.5t86 79t117 29.5q51 0 81.5 -17.5t51.5 -38.5q8 -8 13 -5.5t7 17.5l33 235q2 6 4.5 8.5t8.5 2.5h61q11 0 10 -15
l-101 -713q-1 -9 -4.5 -11.5t-12.5 -2.5h-50zM460 415q-26 31 -56 47t-69 16q-51 0 -90 -25t-65 -66t-39 -89.5t-13 -94.5q0 -53 18 -87t48.5 -49.5t68.5 -15.5q41 0 76.5 19.5t58.5 48t27 55.5zM631 547q-4 0 -6.5 4.5t-0.5 7.5l40 72q3 6 4 7.5t-4 2.5l-6 1q-6 1 -9 4.5
t-2 8.5l11 80q1 5 2 6t5 1h58q3 0 6 -3t2 -7l-13 -92q-1 -2 -1.5 -3.5t-0.5 -2.5l-46 -79q-2 -6 -5.5 -7t-11.5 -1h-22v0z" />
    <glyph glyph-name="Dcroat" unicode="&#x110;" horiz-adv-x="690" 
d="M359 350q-1 -9 -5 -11.5t-14 -2.5h-302q-8 0 -11.5 5t-2.5 12l6 42q1 7 3 9t7 2h315q5 0 8 -4.5t2 -9.5zM45 0q-7 0 -11.5 5t-2.5 13l100 714q1 6 4.5 8t10.5 2h150q121 0 198.5 -33.5t115 -97t37.5 -156.5q0 -144 -50.5 -245.5t-150.5 -155.5t-250 -54h-151v0zM202 72
q124 0 199.5 45.5t110.5 132t35 209.5q0 78 -28.5 124t-85 66t-142.5 20h-62q-12 0 -13 -13l-79 -569q-1 -8 1.5 -11.5t9.5 -3.5h54z" />
    <glyph glyph-name="dcroat" unicode="&#x111;" horiz-adv-x="609" 
d="M675 624q-2 -6 -5 -8t-10 -2h-286q-6 0 -9 4t-2 10l5 33q1 5 2.5 6.5t4.5 1.5h296q4 0 6 -3.5t2 -8.5zM419 0q-7 0 -11.5 3.5t-2.5 10.5l6 43q2 8 -1 8t-11 -7q-12 -10 -34.5 -26.5t-54.5 -29t-75 -12.5q-84 0 -138 53.5t-54 157.5q0 61 18 121t53 109.5t86 79t117 29.5
q51 0 81.5 -17.5t51.5 -38.5q8 -8 13 -5.5t7 17.5l33 235q2 6 4.5 8.5t8.5 2.5h61q11 0 10 -15l-101 -713q-1 -9 -4.5 -11.5t-12.5 -2.5h-50zM460 415q-26 31 -56 47t-69 16q-51 0 -90 -25t-65 -66t-39 -89.5t-13 -94.5q0 -53 18 -87t48.5 -49.5t68.5 -15.5q41 0 76.5 19.5
t58.5 48t27 55.5z" />
    <glyph glyph-name="Emacron" unicode="&#x112;" horiz-adv-x="628" 
d="M163 731q1 7 3 9t8 2h452q10 0 7 -13l-7 -50q-1 -6 -3.5 -8.5t-10.5 -2.5h-352q-6 0 -8.5 -2t-3.5 -9l-34 -238q-1 -4 1 -6t7 -2h264q5 0 6.5 -2.5t0.5 -8.5l-8 -54q-1 -8 -11 -8h-262q-9 0 -11 -12l-34 -243q-1 -9 7 -9h369q7 0 9 -2t1 -9l-7 -54q-1 -6 -3 -7.5t-8 -1.5
h-460q-15 0 -13 17l101 714v0zM578 888q-1 -6 -3.5 -8t-11.5 -2h-269q-7 0 -9.5 4t-1.5 10l5 39q1 5 2.5 7t4.5 2h280q4 0 6.5 -4.5t1.5 -7.5z" />
    <glyph glyph-name="emacron" unicode="&#x113;" horiz-adv-x="581" 
d="M265 -10q-67 0 -117.5 28t-77.5 78.5t-27 118.5q0 62 20 120t58 104t92 73.5t121 27.5q65 0 112 -25.5t72.5 -74.5t25.5 -118q0 -14 -1 -28.5t-3 -29.5q-1 -8 -6 -12.5t-15 -4.5h-379q-8 0 -11 -9.5t-3 -35.5q0 -69 41.5 -108.5t106.5 -39.5q53 0 94.5 21t74.5 63
q4 4 8 3.5t7 -2.5l39 -21q11 -6 4 -17q-33 -40 -69 -64t-77 -35.5t-90 -11.5v0zM443 300q10 0 16 8t6 37q0 59 -35 97t-97 38q-53 0 -94.5 -26t-67 -67.5t-31.5 -86.5h303zM504 676q-1 -6 -3.5 -8t-11.5 -2h-269q-7 0 -9.5 4t-1.5 10l5 39q1 5 2.5 7t4.5 2h280q4 0 6.5 -4.5
t1.5 -7.5z" />
    <glyph glyph-name="Ebreve" unicode="&#x114;" horiz-adv-x="628" 
d="M163 731q1 7 3 9t8 2h452q10 0 7 -13l-7 -50q-1 -6 -3.5 -8.5t-10.5 -2.5h-352q-6 0 -8.5 -2t-3.5 -9l-34 -238q-1 -4 1 -6t7 -2h264q5 0 6.5 -2.5t0.5 -8.5l-8 -54q-1 -8 -11 -8h-262q-9 0 -11 -12l-34 -243q-1 -9 7 -9h369q7 0 9 -2t1 -9l-7 -54q-1 -6 -3 -7.5t-8 -1.5
h-460q-15 0 -13 17l101 714v0zM570 953q7 0 9.5 -4.5t-1.5 -11.5q-11 -22 -33 -43.5t-54 -34.5t-72 -13q-41 0 -70 12.5t-45.5 34.5t-18.5 49q-1 4 1 7.5t9 3.5h45q7 0 9 -3.5t6 -9.5q6 -7 13.5 -16.5t20.5 -16.5t34 -7q33 0 54.5 15t35.5 32q3 4 6.5 5t7.5 1h43v0z" />
    <glyph glyph-name="ebreve" unicode="&#x115;" horiz-adv-x="581" 
d="M265 -10q-67 0 -117.5 28t-77.5 78.5t-27 118.5q0 62 20 120t58 104t92 73.5t121 27.5q65 0 112 -25.5t72.5 -74.5t25.5 -118q0 -14 -1 -28.5t-3 -29.5q-1 -8 -6 -12.5t-15 -4.5h-379q-8 0 -11 -9.5t-3 -35.5q0 -69 41.5 -108.5t106.5 -39.5q53 0 94.5 21t74.5 63
q4 4 8 3.5t7 -2.5l39 -21q11 -6 4 -17q-33 -40 -69 -64t-77 -35.5t-90 -11.5v0zM443 300q10 0 16 8t6 37q0 59 -35 97t-97 38q-53 0 -94.5 -26t-67 -67.5t-31.5 -86.5h303zM495 741q7 0 9.5 -4.5t-1.5 -11.5q-11 -22 -33 -43.5t-54 -34.5t-72 -13q-41 0 -70 12.5t-45.5 34.5
t-18.5 49q-1 4 1 7.5t9 3.5h45q7 0 9 -3.5t6 -9.5q6 -7 13.5 -16.5t20.5 -16.5t34 -7q33 0 54.5 15t35.5 32q3 4 6.5 5t7.5 1h43v0z" />
    <glyph glyph-name="Edotaccent" unicode="&#x116;" horiz-adv-x="628" 
d="M163 731q1 7 3 9t8 2h452q10 0 7 -13l-7 -50q-1 -6 -3.5 -8.5t-10.5 -2.5h-352q-6 0 -8.5 -2t-3.5 -9l-34 -238q-1 -4 1 -6t7 -2h264q5 0 6.5 -2.5t0.5 -8.5l-8 -54q-1 -8 -11 -8h-262q-9 0 -11 -12l-34 -243q-1 -9 7 -9h369q7 0 9 -2t1 -9l-7 -54q-1 -6 -3 -7.5t-8 -1.5
h-460q-15 0 -13 17l101 714v0zM471 851q-1 -9 -4.5 -11.5t-14.5 -2.5h-58q-9 0 -12 4.5t-2 12.5l12 89q2 7 4 9t8 2h68q6 0 9 -4t1 -11z" />
    <glyph glyph-name="edotaccent" unicode="&#x117;" horiz-adv-x="581" 
d="M265 -10q-67 0 -117.5 28t-77.5 78.5t-27 118.5q0 62 20 120t58 104t92 73.5t121 27.5q65 0 112 -25.5t72.5 -74.5t25.5 -118q0 -14 -1 -28.5t-3 -29.5q-1 -8 -6 -12.5t-15 -4.5h-379q-8 0 -11 -9.5t-3 -35.5q0 -69 41.5 -108.5t106.5 -39.5q53 0 94.5 21t74.5 63
q4 4 8 3.5t7 -2.5l39 -21q11 -6 4 -17q-33 -40 -69 -64t-77 -35.5t-90 -11.5v0zM443 300q10 0 16 8t6 37q0 59 -35 97t-97 38q-53 0 -94.5 -26t-67 -67.5t-31.5 -86.5h303zM322 639q-1 -9 -4.5 -11.5t-14.5 -2.5h-58q-9 0 -12 4.5t-2 12.5l12 89q2 7 4 9t8 2h68q6 0 9 -4
t1 -11z" />
    <glyph glyph-name="Eogonek" unicode="&#x118;" horiz-adv-x="628" 
d="M163 731q1 7 3 9t8 2h452q10 0 7 -13l-7 -50q-1 -6 -3.5 -8.5t-10.5 -2.5h-352q-6 0 -8.5 -2t-3.5 -9l-34 -238q-1 -4 1 -6t7 -2h264q5 0 6.5 -2.5t0.5 -8.5l-8 -54q-1 -8 -11 -8h-262q-9 0 -11 -12l-34 -243q-1 -9 7 -9h369q7 0 9 -2t1 -9l-7 -54q-1 -6 -3 -7.5t-8 -1.5
h-460q-15 0 -13 17l101 714v0zM358 -86q2 20 13.5 36.5t36.5 31.5t68 27l62 -8q-54 -22 -80.5 -42t-29.5 -47q-3 -18 7 -27t35 -9q22 0 39.5 5.5t25.5 9.5q7 2 10 0t1 -8l-4 -29q-1 -4 -3 -7t-5 -5q-13 -4 -36 -8.5t-49 -4.5q-51 0 -73.5 23.5t-17.5 61.5v0z" />
    <glyph glyph-name="eogonek" unicode="&#x119;" horiz-adv-x="581" 
d="M265 -10q-67 0 -117.5 28t-77.5 78.5t-27 118.5q0 62 20 120t58 104t92 73.5t121 27.5q65 0 112 -25.5t72.5 -74.5t25.5 -118q0 -14 -1 -28.5t-3 -29.5q-1 -8 -6 -12.5t-15 -4.5h-379q-8 0 -11 -9.5t-3 -35.5q0 -69 41.5 -108.5t106.5 -39.5q53 0 94.5 21t74.5 63
q4 4 8 3.5t7 -2.5l39 -21q11 -6 4 -17q-33 -40 -69 -64t-77 -35.5t-90 -11.5v0zM443 300q10 0 16 8t6 37q0 59 -35 97t-97 38q-53 0 -94.5 -26t-67 -67.5t-31.5 -86.5h303zM197 -76q2 20 13.5 36.5t36.5 31.5t68 27l62 -8q-54 -22 -80.5 -42t-29.5 -47q-3 -18 7 -27t35 -9
q22 0 39.5 5.5t25.5 9.5q7 2 10 0t1 -8l-4 -29q-1 -4 -3 -7t-5 -5q-13 -4 -36 -8.5t-49 -4.5q-51 0 -73.5 23.5t-17.5 61.5v0z" />
    <glyph glyph-name="Ecaron" unicode="&#x11a;" horiz-adv-x="628" 
d="M163 731q1 7 3 9t8 2h452q10 0 7 -13l-7 -50q-1 -6 -3.5 -8.5t-10.5 -2.5h-352q-6 0 -8.5 -2t-3.5 -9l-34 -238q-1 -4 1 -6t7 -2h264q5 0 6.5 -2.5t0.5 -8.5l-8 -54q-1 -8 -11 -8h-262q-9 0 -11 -12l-34 -243q-1 -9 7 -9h369q7 0 9 -2t1 -9l-7 -54q-1 -6 -3 -7.5t-8 -1.5
h-460q-15 0 -13 17l101 714v0zM502 949q6 4 10 4.5t9 0.5h59q7 0 8 -4t-6 -10l-115 -93q-3 -3 -7.5 -5t-12.5 -2h-39q-9 0 -13.5 3.5t-8.5 8.5l-91 92q-4 5 -4.5 7.5t5.5 2.5h54q6 0 9.5 -2t7.5 -7l51 -49q8 -9 11 -6.5t12 10.5l61 49v0z" />
    <glyph glyph-name="ecaron" unicode="&#x11b;" horiz-adv-x="581" 
d="M265 -10q-67 0 -117.5 28t-77.5 78.5t-27 118.5q0 62 20 120t58 104t92 73.5t121 27.5q65 0 112 -25.5t72.5 -74.5t25.5 -118q0 -14 -1 -28.5t-3 -29.5q-1 -8 -6 -12.5t-15 -4.5h-379q-8 0 -11 -9.5t-3 -35.5q0 -69 41.5 -108.5t106.5 -39.5q53 0 94.5 21t74.5 63
q4 4 8 3.5t7 -2.5l39 -21q11 -6 4 -17q-33 -40 -69 -64t-77 -35.5t-90 -11.5v0zM443 300q10 0 16 8t6 37q0 59 -35 97t-97 38q-53 0 -94.5 -26t-67 -67.5t-31.5 -86.5h303zM427 737q6 4 10 4.5t9 0.5h59q7 0 8 -4t-6 -10l-115 -93q-3 -3 -7.5 -5t-12.5 -2h-39
q-9 0 -13.5 3.5t-8.5 8.5l-91 92q-4 5 -4.5 7.5t5.5 2.5h54q6 0 9.5 -2t7.5 -7l51 -49q8 -9 11 -6.5t12 10.5l61 49v0z" />
    <glyph glyph-name="Gcircumflex" unicode="&#x11c;" horiz-adv-x="739" 
d="M340 -10q-85 0 -144.5 35.5t-90.5 101.5t-31 158q0 93 24.5 177t72 149.5t116 103t157.5 37.5q70 0 125.5 -29t88 -75.5t32.5 -100.5q0 -11 -6 -12l-76 -12q-4 -1 -5.5 3t-2.5 13q-3 39 -22.5 70.5t-54.5 50.5t-83 19q-70 0 -120 -34.5t-83 -92.5t-48.5 -130t-15.5 -147
q0 -107 44.5 -159.5t130.5 -52.5q50 0 88.5 17.5t67 44.5t46 59t24.5 62l9 59q3 9 -9 9h-164q-9 0 -8 10l6 46q1 7 7 7l255 -1q6 0 8.5 -2.5t1.5 -7.5l-50 -355q-1 -11 -14 -11h-22q-13 0 -14 12l2 93q0 6 -3.5 5.5t-8.5 -6.5q-21 -30 -53.5 -56.5t-77 -42t-99.5 -15.5v0z
M474 901q-7 7 -9 6.5t-12 -7.5l-66 -51q-6 -5 -9.5 -5.5t-9.5 -0.5h-55q-7 0 -7.5 4t4.5 8l116 93q6 5 11.5 7t13.5 2h40q7 0 10.5 -4.5t6.5 -6.5l89 -93q6 -6 5 -8t-8 -2h-56q-6 0 -9 2t-7 6z" />
    <glyph glyph-name="gcircumflex" unicode="&#x11d;" horiz-adv-x="602" 
d="M215 -175q-114 0 -174.5 34.5t-60.5 92.5q0 42 29.5 74t75.5 52q8 3 10 6.5t-5 6.5q-18 11 -26.5 23t-8.5 29q0 21 13.5 37t33.5 27.5t39 18.5q8 2 10.5 6.5t-4.5 6.5q-34 18 -51.5 45t-17.5 64q0 47 19.5 82.5t52.5 59.5t75 36t88 12q64 0 100.5 -14.5t55.5 -33.5
q5 -4 11.5 -1.5t11.5 8.5q14 11 30 20.5t34.5 15.5t33.5 6q12 0 17 -3.5t3 -12.5l-4 -34q-2 -10 -5.5 -14t-12.5 -4q-19 -1 -32 -3.5t-24 -6.5q-31 -11 -26 -25q3 -8 6 -19.5t3 -28.5q0 -47 -20 -81t-54 -55.5t-76 -32t-86 -10.5q-10 0 -33 -1.5t-48.5 -6t-43.5 -14
t-18 -25.5q0 -14 20 -20t65 -9l127 -7q80 -5 117.5 -37t37.5 -89q0 -40 -16.5 -69.5t-45 -49.5t-65 -32.5t-78 -18t-83.5 -5.5v0zM218 -123q38 0 75 5.5t66 18t46.5 35t17.5 55.5q0 31 -19.5 46t-69.5 18l-163 10q-30 -7 -56 -20.5t-42 -34t-16 -48.5q0 -45 42.5 -65
t118.5 -20v0zM281 262q42 0 77.5 13.5t57.5 43t22 76.5q0 43 -31 66.5t-93 23.5q-41 0 -77.5 -15.5t-59 -45.5t-22.5 -76q0 -41 33.5 -63.5t92.5 -22.5v0zM357 689q-7 7 -9 6.5t-12 -7.5l-66 -51q-6 -5 -9.5 -5.5t-9.5 -0.5h-55q-7 0 -7.5 4t4.5 8l116 93q6 5 11.5 7t13.5 2
h40q7 0 10.5 -4.5t6.5 -6.5l89 -93q6 -6 5 -8t-8 -2h-56q-6 0 -9 2t-7 6z" />
    <glyph glyph-name="Gbreve" unicode="&#x11e;" horiz-adv-x="739" 
d="M340 -10q-85 0 -144.5 35.5t-90.5 101.5t-31 158q0 93 24.5 177t72 149.5t116 103t157.5 37.5q70 0 125.5 -29t88 -75.5t32.5 -100.5q0 -11 -6 -12l-76 -12q-4 -1 -5.5 3t-2.5 13q-3 39 -22.5 70.5t-54.5 50.5t-83 19q-70 0 -120 -34.5t-83 -92.5t-48.5 -130t-15.5 -147
q0 -107 44.5 -159.5t130.5 -52.5q50 0 88.5 17.5t67 44.5t46 59t24.5 62l9 59q3 9 -9 9h-164q-9 0 -8 10l6 46q1 7 7 7l255 -1q6 0 8.5 -2.5t1.5 -7.5l-50 -355q-1 -11 -14 -11h-22q-13 0 -14 12l2 93q0 6 -3.5 5.5t-8.5 -6.5q-21 -30 -53.5 -56.5t-77 -42t-99.5 -15.5v0z
M603 953q7 0 9.5 -4.5t-1.5 -11.5q-11 -22 -33 -43.5t-54 -34.5t-72 -13q-41 0 -70 12.5t-45.5 34.5t-18.5 49q-1 4 1 7.5t9 3.5h45q7 0 9 -3.5t6 -9.5q6 -7 13.5 -16.5t20.5 -16.5t34 -7q33 0 54.5 15t35.5 32q3 4 6.5 5t7.5 1h43v0z" />
    <glyph glyph-name="gbreve" unicode="&#x11f;" horiz-adv-x="602" 
d="M215 -175q-114 0 -174.5 34.5t-60.5 92.5q0 42 29.5 74t75.5 52q8 3 10 6.5t-5 6.5q-18 11 -26.5 23t-8.5 29q0 21 13.5 37t33.5 27.5t39 18.5q8 2 10.5 6.5t-4.5 6.5q-34 18 -51.5 45t-17.5 64q0 47 19.5 82.5t52.5 59.5t75 36t88 12q64 0 100.5 -14.5t55.5 -33.5
q5 -4 11.5 -1.5t11.5 8.5q14 11 30 20.5t34.5 15.5t33.5 6q12 0 17 -3.5t3 -12.5l-4 -34q-2 -10 -5.5 -14t-12.5 -4q-19 -1 -32 -3.5t-24 -6.5q-31 -11 -26 -25q3 -8 6 -19.5t3 -28.5q0 -47 -20 -81t-54 -55.5t-76 -32t-86 -10.5q-10 0 -33 -1.5t-48.5 -6t-43.5 -14
t-18 -25.5q0 -14 20 -20t65 -9l127 -7q80 -5 117.5 -37t37.5 -89q0 -40 -16.5 -69.5t-45 -49.5t-65 -32.5t-78 -18t-83.5 -5.5v0zM218 -123q38 0 75 5.5t66 18t46.5 35t17.5 55.5q0 31 -19.5 46t-69.5 18l-163 10q-30 -7 -56 -20.5t-42 -34t-16 -48.5q0 -45 42.5 -65
t118.5 -20v0zM281 262q42 0 77.5 13.5t57.5 43t22 76.5q0 43 -31 66.5t-93 23.5q-41 0 -77.5 -15.5t-59 -45.5t-22.5 -76q0 -41 33.5 -63.5t92.5 -22.5v0zM487 741q7 0 9.5 -4.5t-1.5 -11.5q-11 -22 -33 -43.5t-54 -34.5t-72 -13q-41 0 -70 12.5t-45.5 34.5t-18.5 49
q-1 4 1 7.5t9 3.5h45q7 0 9 -3.5t6 -9.5q6 -7 13.5 -16.5t20.5 -16.5t34 -7q33 0 54.5 15t35.5 32q3 4 6.5 5t7.5 1h43v0z" />
    <glyph glyph-name="Gdotaccent" unicode="&#x120;" horiz-adv-x="739" 
d="M340 -10q-85 0 -144.5 35.5t-90.5 101.5t-31 158q0 93 24.5 177t72 149.5t116 103t157.5 37.5q70 0 125.5 -29t88 -75.5t32.5 -100.5q0 -11 -6 -12l-76 -12q-4 -1 -5.5 3t-2.5 13q-3 39 -22.5 70.5t-54.5 50.5t-83 19q-70 0 -120 -34.5t-83 -92.5t-48.5 -130t-15.5 -147
q0 -107 44.5 -159.5t130.5 -52.5q50 0 88.5 17.5t67 44.5t46 59t24.5 62l9 59q3 9 -9 9h-164q-9 0 -8 10l6 46q1 7 7 7l255 -1q6 0 8.5 -2.5t1.5 -7.5l-50 -355q-1 -11 -14 -11h-22q-13 0 -14 12l2 93q0 6 -3.5 5.5t-8.5 -6.5q-21 -30 -53.5 -56.5t-77 -42t-99.5 -15.5v0z
M505 851q-1 -9 -4.5 -11.5t-14.5 -2.5h-58q-9 0 -12 4.5t-2 12.5l12 89q2 7 4 9t8 2h68q6 0 9 -4t1 -11z" />
    <glyph glyph-name="gdotaccent" unicode="&#x121;" horiz-adv-x="602" 
d="M215 -175q-114 0 -174.5 34.5t-60.5 92.5q0 42 29.5 74t75.5 52q8 3 10 6.5t-5 6.5q-18 11 -26.5 23t-8.5 29q0 21 13.5 37t33.5 27.5t39 18.5q8 2 10.5 6.5t-4.5 6.5q-34 18 -51.5 45t-17.5 64q0 47 19.5 82.5t52.5 59.5t75 36t88 12q64 0 100.5 -14.5t55.5 -33.5
q5 -4 11.5 -1.5t11.5 8.5q14 11 30 20.5t34.5 15.5t33.5 6q12 0 17 -3.5t3 -12.5l-4 -34q-2 -10 -5.5 -14t-12.5 -4q-19 -1 -32 -3.5t-24 -6.5q-31 -11 -26 -25q3 -8 6 -19.5t3 -28.5q0 -47 -20 -81t-54 -55.5t-76 -32t-86 -10.5q-10 0 -33 -1.5t-48.5 -6t-43.5 -14
t-18 -25.5q0 -14 20 -20t65 -9l127 -7q80 -5 117.5 -37t37.5 -89q0 -40 -16.5 -69.5t-45 -49.5t-65 -32.5t-78 -18t-83.5 -5.5v0zM218 -123q38 0 75 5.5t66 18t46.5 35t17.5 55.5q0 31 -19.5 46t-69.5 18l-163 10q-30 -7 -56 -20.5t-42 -34t-16 -48.5q0 -45 42.5 -65
t118.5 -20v0zM281 262q42 0 77.5 13.5t57.5 43t22 76.5q0 43 -31 66.5t-93 23.5q-41 0 -77.5 -15.5t-59 -45.5t-22.5 -76q0 -41 33.5 -63.5t92.5 -22.5v0zM388 639q-1 -9 -4.5 -11.5t-14.5 -2.5h-58q-9 0 -12 4.5t-2 12.5l12 89q2 7 4 9t8 2h68q6 0 9 -4t1 -11z" />
    <glyph glyph-name="uni0122" unicode="&#x122;" horiz-adv-x="739" 
d="M340 -10q-85 0 -144.5 35.5t-90.5 101.5t-31 158q0 93 24.5 177t72 149.5t116 103t157.5 37.5q70 0 125.5 -29t88 -75.5t32.5 -100.5q0 -11 -6 -12l-76 -12q-4 -1 -5.5 3t-2.5 13q-3 39 -22.5 70.5t-54.5 50.5t-83 19q-70 0 -120 -34.5t-83 -92.5t-48.5 -130t-15.5 -147
q0 -107 44.5 -159.5t130.5 -52.5q50 0 88.5 17.5t67 44.5t46 59t24.5 62l9 59q3 9 -9 9h-164q-9 0 -8 10l6 46q1 7 7 7l255 -1q6 0 8.5 -2.5t1.5 -7.5l-50 -355q-1 -11 -14 -11h-22q-13 0 -14 12l2 93q0 6 -3.5 5.5t-8.5 -6.5q-21 -30 -53.5 -56.5t-77 -42t-99.5 -15.5v0z
M275 -239q-4 0 -4.5 3t2.5 7l37 53q4 7 3 11t-7 4h-14q-5 0 -6.5 2t-0.5 9l9 65q3 12 12 12h59q8 0 7 -8l-10 -78q-2 -6 -5 -10l-46 -59q-4 -5 -7.5 -8t-11.5 -3h-17v0z" />
    <glyph glyph-name="uni0123" unicode="&#x123;" horiz-adv-x="602" 
d="M344 623q-8 0 -7 8l10 77q2 9 8 16l42 54q5 6 8.5 8.5t8.5 2.5h20q3 0 3.5 -3t-2.5 -7l-36 -53q-5 -7 -4.5 -11t5.5 -4h16q6 0 7.5 -2.5t0.5 -8.5l-10 -65q-1 -12 -10 -12h-60v0zM215 -175q-114 0 -174.5 34.5t-60.5 92.5q0 42 29.5 74t75.5 52q8 3 10 6.5t-5 6.5
q-18 11 -26.5 23t-8.5 29q0 21 13.5 37t33.5 27.5t39 18.5q8 2 10.5 6.5t-4.5 6.5q-34 18 -51.5 45t-17.5 64q0 47 19.5 82.5t52.5 59.5t75 36t88 12q64 0 100.5 -14.5t55.5 -33.5q5 -4 11.5 -1.5t11.5 8.5q14 11 30 20.5t34.5 15.5t33.5 6q12 0 17 -3.5t3 -12.5l-4 -34
q-2 -10 -5.5 -14t-12.5 -4q-19 -1 -32 -3.5t-24 -6.5q-31 -11 -26 -25q3 -8 6 -19.5t3 -28.5q0 -47 -20 -81t-54 -55.5t-76 -32t-86 -10.5q-10 0 -33 -1.5t-48.5 -6t-43.5 -14t-18 -25.5q0 -14 20 -20t65 -9l127 -7q80 -5 117.5 -37t37.5 -89q0 -40 -16.5 -69.5t-45 -49.5
t-65 -32.5t-78 -18t-83.5 -5.5v0zM218 -123q38 0 75 5.5t66 18t46.5 35t17.5 55.5q0 31 -19.5 46t-69.5 18l-163 10q-30 -7 -56 -20.5t-42 -34t-16 -48.5q0 -45 42.5 -65t118.5 -20v0zM281 262q42 0 77.5 13.5t57.5 43t22 76.5q0 43 -31 66.5t-93 23.5q-41 0 -77.5 -15.5
t-59 -45.5t-22.5 -76q0 -41 33.5 -63.5t92.5 -22.5v0z" />
    <glyph glyph-name="Hcircumflex" unicode="&#x124;" horiz-adv-x="735" 
d="M213 347q-4 0 -6.5 -3t-3.5 -8l-46 -324q-1 -7 -4 -9.5t-12 -2.5h-67q-9 0 -11.5 3.5t-1.5 10.5l102 717q1 7 3 9t8 2h75q6 0 8 -3t0 -10l-41 -295q-1 -7 1 -9t8 -2h330q5 0 7.5 4t3.5 10l42 295q1 6 3.5 8t7.5 2h75q6 0 8.5 -3.5t0.5 -12.5l-100 -714q-1 -7 -3.5 -9.5
t-10.5 -2.5h-68q-8 0 -11.5 3.5t-2.5 11.5l46 325q1 7 -8 7h-332zM466 901q-7 7 -9 6.5t-12 -7.5l-66 -51q-6 -5 -9.5 -5.5t-9.5 -0.5h-55q-7 0 -7.5 4t4.5 8l116 93q6 5 11.5 7t13.5 2h40q7 0 10.5 -4.5t6.5 -6.5l89 -93q6 -6 5 -8t-8 -2h-56q-6 0 -9 2t-7 6z" />
    <glyph glyph-name="hcircumflex" unicode="&#x125;" horiz-adv-x="584" 
d="M56 0q-7 0 -11 4.5t-3 11.5l101 716q2 6 4.5 8t7.5 2h59q12 0 10 -13l-37 -258q-1 -12 7 -7q40 26 71.5 43t60.5 25t62 8q72 0 108 -34.5t36 -91.5q0 -7 -0.5 -14t-1.5 -14l-53 -373q-1 -8 -3.5 -10.5t-10.5 -2.5h-56q-16 0 -13 16l50 356q1 7 1.5 13t0.5 12q0 37 -21 57
t-67 20q-31 0 -58 -9.5t-55.5 -28t-64.5 -45.5l-54 -379q-1 -7 -4 -9.5t-11 -2.5h-55zM350 908q-7 7 -9 6.5t-12 -7.5l-66 -51q-6 -5 -9.5 -5.5t-9.5 -0.5h-55q-7 0 -7.5 4t4.5 8l116 93q6 5 11.5 7t13.5 2h40q7 0 10.5 -4.5t6.5 -6.5l89 -93q6 -6 5 -8t-8 -2h-56q-6 0 -9 2
t-7 6z" />
    <glyph glyph-name="Hbar" unicode="&#x126;" horiz-adv-x="732" 
d="M773 584q-1 -8 -4.5 -10t-12.5 -2h-694q-8 0 -11 4.5t-2 10.5l4 32q1 7 3 8.5t7 1.5h706q5 0 7.5 -4t1.5 -9zM183 347q-4 0 -7 -3t-4 -8l-46 -324q-1 -7 -4 -9.5t-12 -2.5h-67q-8 0 -10.5 3.5t-1.5 10.5l101 717q1 7 3 9t8 2h75q6 0 8.5 -3t0.5 -10l-41 -295
q-1 -7 0.5 -9t7.5 -2h330q6 0 8.5 4t3.5 10l41 295q2 6 4 8t7 2h75q6 0 8.5 -3.5t0.5 -12.5l-100 -714q-1 -7 -3.5 -9.5t-10.5 -2.5h-67q-9 0 -12.5 3.5t-2.5 11.5l46 325q1 7 -8 7h-331z" />
    <glyph glyph-name="hbar" unicode="&#x127;" horiz-adv-x="548" 
d="M369 624q-1 -6 -4 -8t-11 -2h-285q-6 0 -9 4t-2 10l5 33q1 5 2.5 6.5t4.5 1.5h296q3 0 5.5 -3.5t2.5 -8.5zM20 0q-7 0 -11 4.5t-3 11.5l101 716q1 6 4 8t8 2h59q12 0 10 -13l-37 -258q-1 -12 7 -7q40 26 71.5 43t60.5 25t62 8q71 0 107.5 -34.5t36.5 -91.5q0 -7 -0.5 -14
t-1.5 -14l-53 -373q-1 -8 -3.5 -10.5t-10.5 -2.5h-57q-15 0 -12 16l50 356q1 7 1.5 13t0.5 12q0 37 -21 57t-67 20q-31 0 -58 -9.5t-55.5 -28t-64.5 -45.5l-54 -379q-1 -7 -4 -9.5t-11 -2.5h-55z" />
    <glyph glyph-name="Itilde" unicode="&#x128;" horiz-adv-x="290" 
d="M248 742q12 0 9 -15l-100 -713q-1 -9 -4 -11.5t-13 -2.5h-65q-9 0 -11.5 4.5t-1.5 12.5l101 714q1 7 3 9t8 2h74zM379 886q-13 -7 -32.5 -13t-45.5 -6q-28 0 -47.5 6.5t-36.5 12.5t-39 6q-24 0 -37 -9t-28 -15q-7 -2 -9.5 0.5t-4.5 9.5l-7 27q-1 5 -2 9t4 7
q18 11 36 18.5t43 7.5q26 0 47 -6.5t40.5 -13.5t40.5 -7q14 0 24 3.5t19 9t18 9.5q8 2 12.5 -0.5t5.5 -9.5l5 -31q1 -4 1 -8.5t-7 -6.5v0z" />
    <glyph glyph-name="itilde" unicode="&#x129;" horiz-adv-x="239" 
d="M126 14q-1 -9 -4 -11.5t-14 -2.5h-51q-9 0 -12.5 4.5t-2.5 12.5l71 502q1 7 3 9t8 2h61q6 0 9.5 -4t2.5 -11zM321 674q-13 -7 -32.5 -13t-45.5 -6q-28 0 -47.5 6.5t-36.5 12.5t-39 6q-24 0 -37 -9t-28 -15q-7 -2 -9.5 0.5t-4.5 9.5l-7 27q-1 5 -2 9t4 7q18 11 36 18.5
t43 7.5q26 0 47 -6.5t40.5 -13.5t40.5 -7q14 0 24 3.5t19 9t18 9.5q8 2 12.5 -0.5t5.5 -9.5l5 -31q1 -4 1 -8.5t-7 -6.5v0z" />
    <glyph glyph-name="Imacron" unicode="&#x12a;" horiz-adv-x="290" 
d="M248 742q12 0 9 -15l-100 -713q-1 -9 -4 -11.5t-13 -2.5h-65q-9 0 -11.5 4.5t-1.5 12.5l101 714q1 7 3 9t8 2h74zM383 888q-1 -6 -3.5 -8t-11.5 -2h-269q-7 0 -9.5 4t-1.5 10l5 39q1 5 2.5 7t4.5 2h280q4 0 6.5 -4.5t1.5 -7.5z" />
    <glyph glyph-name="imacron" unicode="&#x12b;" horiz-adv-x="239" 
d="M126 14q-1 -9 -4 -11.5t-14 -2.5h-51q-9 0 -12.5 4.5t-2.5 12.5l71 502q1 7 3 9t8 2h61q6 0 9.5 -4t2.5 -11zM325 676q-1 -6 -3.5 -8t-11.5 -2h-269q-7 0 -9.5 4t-1.5 10l5 39q1 5 2.5 7t4.5 2h280q4 0 6.5 -4.5t1.5 -7.5z" />
    <glyph glyph-name="Ibreve" unicode="&#x12c;" horiz-adv-x="290" 
d="M248 742q12 0 9 -15l-100 -713q-1 -9 -4 -11.5t-13 -2.5h-65q-9 0 -11.5 4.5t-1.5 12.5l101 714q1 7 3 9t8 2h74zM374 953q7 0 9.5 -4.5t-1.5 -11.5q-11 -22 -33 -43.5t-54 -34.5t-72 -13q-41 0 -70 12.5t-45.5 34.5t-18.5 49q-1 4 1 7.5t9 3.5h45q7 0 9 -3.5t6 -9.5
q6 -7 13.5 -16.5t20.5 -16.5t34 -7q33 0 54.5 15t35.5 32q3 4 6.5 5t7.5 1h43v0z" />
    <glyph glyph-name="ibreve" unicode="&#x12d;" horiz-adv-x="239" 
d="M126 14q-1 -9 -4 -11.5t-14 -2.5h-51q-9 0 -12.5 4.5t-2.5 12.5l71 502q1 7 3 9t8 2h61q6 0 9.5 -4t2.5 -11zM317 741q7 0 9.5 -4.5t-1.5 -11.5q-11 -22 -33 -43.5t-54 -34.5t-72 -13q-41 0 -70 12.5t-45.5 34.5t-18.5 49q-1 4 1 7.5t9 3.5h45q7 0 9 -3.5t6 -9.5
q6 -7 13.5 -16.5t20.5 -16.5t34 -7q33 0 54.5 15t35.5 32q3 4 6.5 5t7.5 1h43v0z" />
    <glyph glyph-name="Iogonek" unicode="&#x12e;" horiz-adv-x="290" 
d="M248 742q12 0 9 -15l-100 -713q-1 -9 -4 -11.5t-13 -2.5h-65q-9 0 -11.5 4.5t-1.5 12.5l101 714q1 7 3 9t8 2h74zM-30 -86q2 20 13.5 36.5t36.5 31.5t68 27l62 -8q-54 -22 -80.5 -42t-29.5 -47q-3 -18 7 -27t35 -9q22 0 39.5 5.5t25.5 9.5q7 2 10 0t1 -8l-4 -29
q-1 -4 -3 -7t-5 -5q-13 -4 -36 -8.5t-49 -4.5q-51 0 -73.5 23.5t-17.5 61.5v0z" />
    <glyph glyph-name="iogonek" unicode="&#x12f;" horiz-adv-x="239" 
d="M126 14q-1 -9 -4 -11.5t-14 -2.5h-51q-9 0 -12.5 4.5t-2.5 12.5l71 502q1 7 3 9t8 2h61q6 0 9.5 -4t2.5 -11zM218 639q-1 -9 -4.5 -11.5t-14.5 -2.5h-58q-9 0 -12 4.5t-2 12.5l12 89q2 7 4 9t8 2h68q6 0 9 -4t1 -11zM-60 -85q2 20 13.5 36.5t36.5 31.5t68 27l62 -8
q-54 -22 -80.5 -42t-29.5 -47q-3 -18 7 -27t35 -9q22 0 39.5 5.5t25.5 9.5q7 2 10 0t1 -8l-4 -29q-1 -4 -3 -7t-5 -5q-13 -4 -36 -8.5t-49 -4.5q-51 0 -73.5 23.5t-17.5 61.5v0z" />
    <glyph glyph-name="Idotaccent" unicode="&#x130;" horiz-adv-x="290" 
d="M248 742q12 0 9 -15l-100 -713q-1 -9 -4 -11.5t-13 -2.5h-65q-9 0 -11.5 4.5t-1.5 12.5l101 714q1 7 3 9t8 2h74zM276 851q-1 -9 -4.5 -11.5t-14.5 -2.5h-58q-9 0 -12 4.5t-2 12.5l12 89q2 7 4 9t8 2h68q6 0 9 -4t1 -11z" />
    <glyph glyph-name="dotlessi" unicode="&#x131;" horiz-adv-x="239" 
d="M126 14q-1 -9 -4 -11.5t-14 -2.5h-51q-9 0 -12.5 4.5t-2.5 12.5l71 502q1 7 3 9t8 2h61q6 0 9.5 -4t2.5 -11z" />
    <glyph glyph-name="IJ" unicode="&#x132;" horiz-adv-x="707" 
d="M248 742q12 0 9 -15l-100 -713q-1 -9 -4 -11.5t-13 -2.5h-65q-9 0 -11.5 4.5t-1.5 12.5l101 714q1 7 3 9t8 2h74zM601 160q-8 -56 -29.5 -94t-59 -57t-93.5 -19q-40 0 -68.5 9t-41.5 13q-8 3 -11 6t-1 9l18 57q2 5 5 6.5t10 -1.5q12 -5 31 -10.5t45 -5.5q47 0 70 26.5
t33 88.5l76 544q1 6 3 8t8 2h75q11 0 8 -15l-78 -567v0z" />
    <glyph glyph-name="ij" unicode="&#x133;" horiz-adv-x="477" 
d="M126 14q-1 -9 -4 -11.5t-14 -2.5h-51q-9 0 -12.5 4.5t-2.5 12.5l71 502q1 7 3 9t8 2h63q6 0 8.5 -4t1.5 -11zM218 642q-2 -9 -5 -13t-14 -4h-61q-8 0 -10.5 5.5t-0.5 13.5l12 83q2 15 15 15h65q5 0 8.5 -5t1.5 -13zM359 -31q-10 -72 -44 -105.5t-111 -33.5q-45 0 -57 3.5
t-11 12.5l6 43q1 4 3 6.5t6 3.5l52 2q32 2 49.5 19t23.5 59l76 540q2 6 4 8.5t8 2.5h61q6 0 9 -4.5t2 -10.5l-77 -546v0zM457 642q-2 -9 -5 -13t-14 -4h-61q-8 0 -10.5 5.5t-0.5 13.5l12 83q2 15 15 15h65q5 0 8.5 -5t1.5 -13z" />
    <glyph glyph-name="Jcircumflex" unicode="&#x134;" horiz-adv-x="418" 
d="M311 160q-8 -56 -29.5 -94t-59 -57t-93.5 -19q-40 0 -68.5 9t-41.5 13q-8 3 -11 6t-1 9l18 57q2 5 5 6.5t10 -1.5q12 -5 31 -10.5t45 -5.5q47 0 70 26.5t33 88.5l76 544q1 6 3 8t8 2h75q11 0 8 -15l-78 -567v0zM375 901q-7 7 -9 6.5t-12 -7.5l-66 -51q-6 -5 -9.5 -5.5
t-9.5 -0.5h-55q-7 0 -7.5 4t4.5 8l116 93q6 5 11.5 7t13.5 2h40q7 0 10.5 -4.5t6.5 -6.5l89 -93q6 -6 5 -8t-8 -2h-56q-6 0 -9 2t-7 6z" />
    <glyph glyph-name="jcircumflex" unicode="&#x135;" horiz-adv-x="236" 
d="M117 -31q-6 -48 -24.5 -78.5t-50.5 -45.5t-80 -15q-43 0 -54.5 3.5t-10.5 12.5l6 43q1 4 3 6.5t6 3.5l50 2q31 2 48.5 19t23.5 59l76 540q2 6 4.5 8.5t8.5 2.5h60q6 0 9 -4.5t2 -10.5l-77 -546v0zM184 689q-7 7 -9 6.5t-12 -7.5l-66 -51q-6 -5 -9.5 -5.5t-9.5 -0.5h-55
q-7 0 -7.5 4t4.5 8l116 93q6 5 11.5 7t13.5 2h40q7 0 10.5 -4.5t6.5 -6.5l89 -93q6 -6 5 -8t-8 -2h-56q-6 0 -9 2t-7 6z" />
    <glyph glyph-name="uni0136" unicode="&#x136;" horiz-adv-x="701" 
d="M618 14q7 -14 -5 -14h-82q-11 0 -14 11l-170 370q-2 5 -5.5 2.5t-8.5 -8.5l-134 -131q-4 -4 -7.5 -8t-4.5 -11l-30 -213q-1 -6 -4 -9t-12 -3h-67q-7 0 -10 4.5t-2 11.5l101 716q1 6 3 8t7 2h74q6 0 9 -4t2 -10l-52 -367q-1 -7 1 -5l7 7l380 371q5 5 10 6.5t13 1.5h74
q9 0 9.5 -4t-4.5 -9l-272 -263q-3 -3 -5 -5.5t-1 -7.5l200 -439v0zM241 -239q-4 0 -4.5 3t2.5 7l37 53q4 7 3 11t-7 4h-14q-5 0 -6.5 2t-0.5 9l9 65q3 12 12 12h59q8 0 7 -8l-10 -78q-2 -6 -5 -10l-46 -59q-4 -5 -7.5 -8t-11.5 -3h-17v0z" />
    <glyph glyph-name="uni0137" unicode="&#x137;" horiz-adv-x="564" 
d="M498 14q3 -6 2 -10t-9 -4h-70q-6 0 -10 4t-6 10l-116 258q-3 8 -11 0l-122 -108q-4 -4 -7 -9t-5 -11l-18 -130q-1 -9 -4 -11.5t-13 -2.5h-51q-10 0 -13.5 4.5t-2.5 12.5l101 714q2 7 4 9t7 2h63q6 0 8.5 -4t0.5 -11l-64 -465q-1 -7 0 -6.5t8 6.5l283 258q7 6 12 8t10 2
h61q11 0 13 -6.5t-6 -14.5l-182 -161q-4 -3 -6 -7t-1 -10l144 -317v0zM176 -239q-4 0 -4.5 3t2.5 7l37 53q4 7 3 11t-7 4h-14q-5 0 -6.5 2t-0.5 9l9 65q3 12 12 12h59q8 0 7 -8l-10 -78q-2 -6 -5 -10l-46 -59q-4 -5 -7.5 -8t-11.5 -3h-17v0z" />
    <glyph glyph-name="kgreenlandic" unicode="&#x138;" horiz-adv-x="564" 
d="M498 14q3 -6 2 -10t-9 -4h-70q-6 0 -10 4t-6 10l-116 259q-1 5 -3.5 4t-7.5 -6l-122 -107q-4 -4 -7 -9t-5 -11l-18 -130q-1 -9 -4 -11.5t-13 -2.5h-51q-10 0 -13.5 4.5t-2.5 12.5l71 502q2 7 4 9t7 2h61q6 0 9.5 -4t2.5 -11l-35 -253q-1 -7 0 -6.5t8 6.5l283 258
q7 6 12 8t10 2h61q11 0 13 -6.5t-6 -14.5l-182 -161q-4 -3 -6 -7t-1 -10l144 -317v0z" />
    <glyph glyph-name="Lacute" unicode="&#x139;" horiz-adv-x="602" 
d="M162 730q2 12 13 12h75q10 0 7 -15l-89 -642q-3 -11 7 -11h347q11 0 10 -13l-7 -52q-1 -6 -3 -7.5t-8 -1.5h-439q-16 0 -13 17l100 713v0zM493 910q2 -6 0.5 -9.5t-10.5 -6.5l-239 -71q-6 -2 -10 1t-5 9l-5 22q-2 11 3 13l245 95q3 1 7 -0.5t5 -7.5z" />
    <glyph glyph-name="lacute" unicode="&#x13a;" horiz-adv-x="239" 
d="M126 14q-1 -9 -4 -11.5t-13 -2.5h-52q-9 0 -12.5 4.5t-2.5 12.5l102 714q1 7 3 9t8 2h62q12 0 9 -14zM342 910q2 -6 0.5 -9.5t-10.5 -6.5l-239 -71q-6 -2 -10 1t-5 9l-5 22q-2 11 3 13l245 95q3 1 7 -0.5t5 -7.5z" />
    <glyph glyph-name="uni013B" unicode="&#x13b;" horiz-adv-x="602" 
d="M162 730q2 12 13 12h75q10 0 7 -15l-89 -642q-3 -11 7 -11h347q11 0 10 -13l-7 -52q-1 -6 -3 -7.5t-8 -1.5h-439q-16 0 -13 17l100 713v0zM172 -239q-4 0 -4.5 3t2.5 7l37 53q4 7 3 11t-7 4h-14q-5 0 -6.5 2t-0.5 9l9 65q3 12 12 12h59q8 0 7 -8l-10 -78q-2 -6 -5 -10
l-46 -59q-4 -5 -7.5 -8t-11.5 -3h-17v0z" />
    <glyph glyph-name="uni013C" unicode="&#x13c;" horiz-adv-x="239" 
d="M126 14q-1 -9 -4 -11.5t-13 -2.5h-52q-9 0 -12.5 4.5t-2.5 12.5l102 714q1 7 3 9t8 2h62q12 0 9 -14zM15 -239q-4 0 -4.5 3t2.5 7l37 53q4 7 3 11t-7 4h-14q-5 0 -6.5 2t-0.5 9l9 65q3 12 12 12h59q8 0 7 -8l-10 -78q-2 -6 -5 -10l-46 -59q-4 -5 -7.5 -8t-11.5 -3h-17v0z
" />
    <glyph glyph-name="Lcaron" unicode="&#x13d;" horiz-adv-x="602" 
d="M162 730q2 12 13 12h75q10 0 7 -15l-89 -642q-3 -11 7 -11h347q11 0 10 -13l-7 -52q-1 -6 -3 -7.5t-8 -1.5h-439q-16 0 -13 17l100 713v0zM430 547q-4 0 -6.5 4.5t-0.5 7.5l40 72q3 6 4 7.5t-4 2.5l-6 1q-6 1 -9 4.5t-2 8.5l11 80q1 5 2 6t5 1h58q3 0 6 -3t2 -7l-13 -92
q-1 -2 -1.5 -3.5t-0.5 -2.5l-46 -79q-2 -6 -5.5 -7t-11.5 -1h-22v0z" />
    <glyph glyph-name="lcaron" unicode="&#x13e;" horiz-adv-x="287" 
d="M126 14q-1 -9 -4 -11.5t-13 -2.5h-52q-9 0 -12.5 4.5t-2.5 12.5l102 714q1 7 3 9t8 2h62q12 0 9 -14zM271 547q-4 0 -6.5 4.5t-0.5 7.5l40 72q3 6 4 7.5t-4 2.5l-6 1q-6 1 -9 4.5t-2 8.5l11 80q1 5 2 6t5 1h58q3 0 6 -3t2 -7l-13 -92q-1 -2 -1.5 -3.5t-0.5 -2.5l-46 -79
q-2 -6 -5.5 -7t-11.5 -1h-22v0z" />
    <glyph glyph-name="Ldot" unicode="&#x13f;" horiz-adv-x="616" 
d="M125 730q2 12 13 12h75q10 0 7 -15l-89 -642q-3 -11 7 -11h347q11 0 10 -13l-7 -52q-1 -6 -3 -7.5t-8 -1.5h-439q-16 0 -13 17l100 713v0zM495 362q-1 -8 -4 -10.5t-13 -2.5h-80q-7 0 -11 4.5t-2 11.5l11 81q2 7 3.5 8.5t6.5 1.5h91q5 0 7.5 -3.5t1.5 -9.5z" />
    <glyph glyph-name="ldot" unicode="&#x140;" horiz-adv-x="343" 
d="M126 14q-1 -9 -4 -11.5t-13 -2.5h-52q-9 0 -12.5 4.5t-2.5 12.5l102 714q1 7 3 9t8 2h62q12 0 9 -14zM312 255q-1 -8 -4 -10.5t-13 -2.5h-80q-7 0 -11 4.5t-2 11.5l11 81q2 7 3.5 8.5t6.5 1.5h91q5 0 7.5 -3.5t1.5 -9.5z" />
    <glyph glyph-name="Lslash" unicode="&#x141;" horiz-adv-x="565" 
d="M370 409q-1 -4 -3 -6.5t-7 -3.5l-326 -85q-7 -1 -10 2t-2 10l7 50q1 6 2.5 8t5.5 3l328 82q6 2 9.5 -2t1.5 -9zM125 730q2 12 13 12h75q10 0 7 -15l-89 -642q-3 -11 7 -11h347q11 0 10 -13l-7 -52q-1 -6 -3 -7.5t-8 -1.5h-439q-16 0 -13 17l100 713v0z" />
    <glyph glyph-name="lslash" unicode="&#x142;" horiz-adv-x="276" 
d="M287 394q-1 -9 -10 -16l-268 -204q-8 -4 -11 -0.5t-2 10.5l8 54q2 10 10 16l268 200q7 5 10 1.5t2 -8.5zM133 14q-1 -9 -4 -11.5t-14 -2.5h-51q-9 0 -12.5 4.5t-2.5 12.5l102 714q1 7 3 9t8 2h62q12 0 9 -14z" />
    <glyph glyph-name="Nacute" unicode="&#x143;" horiz-adv-x="757" 
d="M716 742q10 0 9 -12l-101 -720q-1 -10 -12 -10h-49q-6 0 -11 2t-9 9l-308 560q-4 7 -8 6t-5 -10l-78 -556q-1 -6 -3.5 -8.5t-10.5 -2.5h-58q-6 0 -9 4t-2 11l102 716q1 7 3 9t9 2h58q7 0 11 -2.5t7 -9.5l299 -548q5 -8 10.5 -7t6.5 11l76 546q2 6 4 8t8 2h61zM612 910
q2 -6 0.5 -9.5t-10.5 -6.5l-239 -71q-6 -2 -10 1t-5 9l-5 22q-2 11 3 13l245 95q3 1 7 -0.5t5 -7.5z" />
    <glyph glyph-name="nacute" unicode="&#x144;" horiz-adv-x="584" 
d="M53 0q-6 0 -9 4.5t-2 11.5l71 504q1 6 3 8t7 2h63q5 0 7.5 -2t0.5 -9l-8 -57q-1 -11 8 -3q48 38 95.5 59.5t98.5 21.5q70 0 107 -35t37 -92q0 -6 -0.5 -12.5t-1.5 -14.5l-53 -373q-1 -8 -4 -10.5t-11 -2.5h-58q-6 0 -9 4.5t-1 11.5l50 355q1 7 1.5 13.5t0.5 11.5
q0 38 -21 58t-67 20q-31 0 -58 -9.5t-55.5 -28t-64.5 -45.5l-54 -379q-1 -7 -4 -9.5t-12 -2.5h-57v0zM495 698q2 -6 0.5 -9.5t-10.5 -6.5l-239 -71q-6 -2 -10 1t-5 9l-5 22q-2 11 3 13l245 95q3 1 7 -0.5t5 -7.5z" />
    <glyph glyph-name="uni0145" unicode="&#x145;" horiz-adv-x="757" 
d="M716 742q10 0 9 -12l-101 -720q-1 -10 -12 -10h-49q-6 0 -11 2t-9 9l-308 560q-4 7 -8 6t-5 -10l-78 -556q-1 -6 -3.5 -8.5t-10.5 -2.5h-58q-6 0 -9 4t-2 11l102 716q1 7 3 9t9 2h58q7 0 11 -2.5t7 -9.5l299 -548q5 -8 10.5 -7t6.5 11l76 546q2 6 4 8t8 2h61zM252 -239
q-4 0 -4.5 3t2.5 7l37 53q4 7 3 11t-7 4h-14q-5 0 -6.5 2t-0.5 9l9 65q3 12 12 12h59q8 0 7 -8l-10 -78q-2 -6 -5 -10l-46 -59q-4 -5 -7.5 -8t-11.5 -3h-17v0z" />
    <glyph glyph-name="uni0146" unicode="&#x146;" horiz-adv-x="584" 
d="M53 0q-6 0 -9 4.5t-2 11.5l71 504q1 6 3 8t7 2h63q5 0 7.5 -2t0.5 -9l-8 -57q-1 -11 8 -3q48 38 95.5 59.5t98.5 21.5q70 0 107 -35t37 -92q0 -6 -0.5 -12.5t-1.5 -14.5l-53 -373q-1 -8 -4 -10.5t-11 -2.5h-58q-6 0 -9 4.5t-1 11.5l50 355q1 7 1.5 13.5t0.5 11.5
q0 38 -21 58t-67 20q-31 0 -58 -9.5t-55.5 -28t-64.5 -45.5l-54 -379q-1 -7 -4 -9.5t-12 -2.5h-57v0zM191 -239q-4 0 -4.5 3t2.5 7l37 53q4 7 3 11t-7 4h-14q-5 0 -6.5 2t-0.5 9l9 65q3 12 12 12h59q8 0 7 -8l-10 -78q-2 -6 -5 -10l-46 -59q-4 -5 -7.5 -8t-11.5 -3h-17v0z
" />
    <glyph glyph-name="Ncaron" unicode="&#x147;" horiz-adv-x="757" 
d="M716 742q10 0 9 -12l-101 -720q-1 -10 -12 -10h-49q-6 0 -11 2t-9 9l-308 560q-4 7 -8 6t-5 -10l-78 -556q-1 -6 -3.5 -8.5t-10.5 -2.5h-58q-6 0 -9 4t-2 11l102 716q1 7 3 9t9 2h58q7 0 11 -2.5t7 -9.5l299 -548q5 -8 10.5 -7t6.5 11l76 546q2 6 4 8t8 2h61zM550 949
q6 4 10 4.5t9 0.5h59q7 0 8 -4t-6 -10l-115 -93q-3 -3 -7.5 -5t-12.5 -2h-39q-9 0 -13.5 3.5t-8.5 8.5l-91 92q-4 5 -4.5 7.5t5.5 2.5h54q6 0 9.5 -2t7.5 -7l51 -49q8 -9 11 -6.5t12 10.5l61 49v0z" />
    <glyph glyph-name="ncaron" unicode="&#x148;" horiz-adv-x="584" 
d="M53 0q-6 0 -9 4.5t-2 11.5l71 504q1 6 3 8t7 2h63q5 0 7.5 -2t0.5 -9l-8 -57q-1 -11 8 -3q48 38 95.5 59.5t98.5 21.5q70 0 107 -35t37 -92q0 -6 -0.5 -12.5t-1.5 -14.5l-53 -373q-1 -8 -4 -10.5t-11 -2.5h-58q-6 0 -9 4.5t-1 11.5l50 355q1 7 1.5 13.5t0.5 11.5
q0 38 -21 58t-67 20q-31 0 -58 -9.5t-55.5 -28t-64.5 -45.5l-54 -379q-1 -7 -4 -9.5t-12 -2.5h-57v0zM433 737q6 4 10 4.5t9 0.5h59q7 0 8 -4t-6 -10l-115 -93q-3 -3 -7.5 -5t-12.5 -2h-39q-9 0 -13.5 3.5t-8.5 8.5l-91 92q-4 5 -4.5 7.5t5.5 2.5h54q6 0 9.5 -2t7.5 -7
l51 -49q8 -9 11 -6.5t12 10.5l61 49v0z" />
    <glyph glyph-name="napostrophe" unicode="&#x149;" horiz-adv-x="636" 
d="M66 468q-4 0 -4 2.5t1 5.5l48 116q5 14 -5 15l-7 1q-6 0 -7.5 1t-0.5 7l16 114q1 5 4.5 8.5t7.5 3.5h58q4 0 5 -1t0 -5l-18 -126q0 -2 -1 -3.5t-1 -2.5l-53 -124q-4 -12 -21 -12h-22v0zM105 0q-6 0 -9 4.5t-2 11.5l71 504q1 6 3 8t7 2h63q5 0 7.5 -2t0.5 -9l-8 -57
q-1 -11 8 -3q48 38 95.5 59.5t98.5 21.5q70 0 107 -35t37 -92q0 -6 -0.5 -12.5t-1.5 -14.5l-53 -373q-1 -8 -4 -10.5t-11 -2.5h-58q-6 0 -9 4.5t-1 11.5l50 355q1 7 1.5 13.5t0.5 11.5q0 38 -21 58t-67 20q-31 0 -58 -9.5t-55.5 -28t-64.5 -45.5l-54 -379q-1 -7 -4 -9.5
t-12 -2.5h-57v0z" />
    <glyph glyph-name="Eng" unicode="&#x14a;" horiz-adv-x="757" 
d="M714 742q13 0 10 -14l-105 -751q-10 -75 -51.5 -113.5t-122.5 -38.5q-32 0 -56 5.5t-36 9.5q-15 5 -12 20l10 45q2 6 4 6.5t6 -1.5q9 -2 22 -4.5t27.5 -4.5t27.5 -2q41 0 63.5 20t30.5 69l5 41l-303 544q-4 7 -7 4.5t-4 -9.5l-79 -558q-1 -6 -3.5 -8t-9.5 -2h-56
q-6 0 -10.5 4t-3.5 11l102 716q1 7 3 9t9 2h59q7 0 11.5 -2.5t7.5 -9.5l299 -538q5 -7 10.5 -3t6.5 10l75 533q1 6 3.5 8t7.5 2h59v0z" />
    <glyph glyph-name="eng" unicode="&#x14b;" horiz-adv-x="587" 
d="M388 540q77 0 114.5 -43t27.5 -111l-57 -410q-7 -48 -27.5 -80.5t-52.5 -49t-77 -16.5q-39 0 -50 3.5t-10 12.5l6 42q1 4 3 6.5t7 2.5l44 3q32 1 49.5 19t23.5 60l55 389q6 49 -12.5 77.5t-76.5 28.5q-42 0 -86 -22.5t-88 -61.5l-55 -378q-1 -7 -3.5 -9.5t-11.5 -2.5h-55
q-7 0 -11 4.5t-3 11.5l72 504q1 6 3 8t8 2h58q6 0 9 -4t2 -10l-8 -58q-1 -5 1 -3.5t6 6.5q43 30 75 47.5t61 24.5t59 7v0z" />
    <glyph glyph-name="Omacron" unicode="&#x14c;" horiz-adv-x="764" 
d="M347 -10q-87 0 -148 34t-93 99.5t-32 158.5q0 21 1.5 44t4.5 46q18 122 67.5 206.5t126.5 129t173 44.5q86 0 147 -35t93 -101t32 -162q0 -20 -1.5 -42.5t-4.5 -46.5q-17 -120 -66.5 -204t-125.5 -127.5t-174 -43.5v0zM352 63q109 0 174.5 76t87.5 234q4 27 5.5 52
t1.5 47q0 105 -44 156t-132 51q-108 0 -175.5 -77.5t-90.5 -237.5q-4 -26 -5.5 -50t-1.5 -45q0 -104 45 -155t135 -51v0zM618 888q-1 -6 -3.5 -8t-11.5 -2h-269q-7 0 -9.5 4t-1.5 10l5 39q1 5 2.5 7t4.5 2h280q4 0 6.5 -4.5t1.5 -7.5z" />
    <glyph glyph-name="omacron" unicode="&#x14d;" 
d="M264 -10q-68 0 -118 28t-76.5 79.5t-26.5 118.5q0 70 23 129.5t63 103t93.5 67.5t112.5 24q69 0 118 -29t75.5 -81t26.5 -121q0 -92 -39 -164.5t-105 -113.5t-147 -41v0zM267 53q58 0 104 33t72.5 93t26.5 143q0 73 -35.5 114.5t-101.5 41.5q-56 0 -103 -33.5t-74.5 -94
t-27.5 -142.5q0 -72 36.5 -113.5t102.5 -41.5v0zM506 676q-1 -6 -3.5 -8t-11.5 -2h-269q-7 0 -9.5 4t-1.5 10l5 39q1 5 2.5 7t4.5 2h280q4 0 6.5 -4.5t1.5 -7.5z" />
    <glyph glyph-name="Obreve" unicode="&#x14e;" horiz-adv-x="764" 
d="M347 -10q-87 0 -148 34t-93 99.5t-32 158.5q0 21 1.5 44t4.5 46q18 122 67.5 206.5t126.5 129t173 44.5q86 0 147 -35t93 -101t32 -162q0 -20 -1.5 -42.5t-4.5 -46.5q-17 -120 -66.5 -204t-125.5 -127.5t-174 -43.5v0zM352 63q109 0 174.5 76t87.5 234q4 27 5.5 52
t1.5 47q0 105 -44 156t-132 51q-108 0 -175.5 -77.5t-90.5 -237.5q-4 -26 -5.5 -50t-1.5 -45q0 -104 45 -155t135 -51v0zM609 953q7 0 9.5 -4.5t-1.5 -11.5q-11 -22 -33 -43.5t-54 -34.5t-72 -13q-41 0 -70 12.5t-45.5 34.5t-18.5 49q-1 4 1 7.5t9 3.5h45q7 0 9 -3.5t6 -9.5
q6 -7 13.5 -16.5t20.5 -16.5t34 -7q33 0 54.5 15t35.5 32q3 4 6.5 5t7.5 1h43v0z" />
    <glyph glyph-name="obreve" unicode="&#x14f;" 
d="M264 -10q-68 0 -118 28t-76.5 79.5t-26.5 118.5q0 70 23 129.5t63 103t93.5 67.5t112.5 24q69 0 118 -29t75.5 -81t26.5 -121q0 -92 -39 -164.5t-105 -113.5t-147 -41v0zM267 53q58 0 104 33t72.5 93t26.5 143q0 73 -35.5 114.5t-101.5 41.5q-56 0 -103 -33.5t-74.5 -94
t-27.5 -142.5q0 -72 36.5 -113.5t102.5 -41.5v0zM498 741q7 0 9.5 -4.5t-1.5 -11.5q-11 -22 -33 -43.5t-54 -34.5t-72 -13q-41 0 -70 12.5t-45.5 34.5t-18.5 49q-1 4 1 7.5t9 3.5h45q7 0 9 -3.5t6 -9.5q6 -7 13.5 -16.5t20.5 -16.5t34 -7q33 0 54.5 15t35.5 32q3 4 6.5 5
t7.5 1h43v0z" />
    <glyph glyph-name="Ohungarumlaut" unicode="&#x150;" horiz-adv-x="764" 
d="M347 -10q-87 0 -148 34t-93 99.5t-32 158.5q0 21 1.5 44t4.5 46q18 122 67.5 206.5t126.5 129t173 44.5q86 0 147 -35t93 -101t32 -162q0 -20 -1.5 -42.5t-4.5 -46.5q-17 -120 -66.5 -204t-125.5 -127.5t-174 -43.5v0zM352 63q109 0 174.5 76t87.5 234q4 27 5.5 52
t1.5 47q0 105 -44 156t-132 51q-108 0 -175.5 -77.5t-90.5 -237.5q-4 -26 -5.5 -50t-1.5 -45q0 -104 45 -155t135 -51v0zM509 921q4 -6 4.5 -10t-7.5 -10l-144 -107q-6 -5 -10 -3.5t-7 6.5l-14 18q-3 5 -3.5 9.5t1.5 6.5l140 127q5 5 9 3.5t7 -5.5zM672 921q3 -6 4 -10
t-7 -10l-144 -107q-7 -5 -11 -3.5t-7 6.5l-13 18q-3 5 -3.5 9.5t1.5 6.5l140 127q4 5 8.5 3.5t6.5 -5.5z" />
    <glyph glyph-name="ohungarumlaut" unicode="&#x151;" 
d="M264 -10q-68 0 -118 28t-76.5 79.5t-26.5 118.5q0 70 23 129.5t63 103t93.5 67.5t112.5 24q69 0 118 -29t75.5 -81t26.5 -121q0 -92 -39 -164.5t-105 -113.5t-147 -41v0zM267 53q58 0 104 33t72.5 93t26.5 143q0 73 -35.5 114.5t-101.5 41.5q-56 0 -103 -33.5t-74.5 -94
t-27.5 -142.5q0 -72 36.5 -113.5t102.5 -41.5v0zM398 709q4 -6 4.5 -10t-7.5 -10l-144 -107q-6 -5 -10 -3.5t-7 6.5l-14 18q-3 5 -3.5 9.5t1.5 6.5l140 127q5 5 9 3.5t7 -5.5zM561 709q3 -6 4 -10t-7 -10l-144 -107q-7 -5 -11 -3.5t-7 6.5l-13 18q-3 5 -3.5 9.5t1.5 6.5
l140 127q4 5 8.5 3.5t6.5 -5.5z" />
    <glyph glyph-name="OE" unicode="&#x152;" horiz-adv-x="1124" 
d="M1037 74q6 0 9.5 -3t2.5 -10l-7 -52q-1 -6 -3 -7.5t-8 -1.5h-431q-5 0 -8.5 2t-3.5 6v92q-43 -55 -103.5 -82.5t-134.5 -27.5q-101 0 -167 45t-92.5 130t-10.5 207q18 122 68 206.5t128 129t178 44.5q76 0 128 -29t79 -85l25 97q2 5 4.5 6t7.5 1h421q6 0 9 -4t1 -9
l-7 -51q-1 -6 -3.5 -8t-9.5 -2h-342q-7 0 -11 -3.5t-6 -10.5l-32 -235q-1 -5 0.5 -6.5t7.5 -1.5h251q6 0 9 -3.5t2 -9.5l-8 -53q0 -5 -1.5 -6t-7.5 -1h-252q-5 0 -9.5 -3.5t-5.5 -9.5l-33 -243q-1 -6 -0.5 -7t6.5 -1h360v0zM352 63q109 0 173.5 76t86.5 234
q22 157 -20 231.5t-147 74.5q-108 0 -175.5 -77.5t-90.5 -237.5q-21 -155 22 -228t151 -73v0z" />
    <glyph glyph-name="oe" unicode="&#x153;" horiz-adv-x="997" 
d="M264 -10q-77 0 -129.5 34.5t-75.5 97t-12 144.5q12 83 52 144.5t101.5 95.5t134.5 34q69 0 117 -31.5t69 -85.5q5 -5 9 -2.5t9 9.5q37 51 92 80.5t118 29.5q76 0 126.5 -33.5t72 -95.5t8.5 -149q-1 -7 -4 -11t-14 -4h-373q-7 0 -12.5 -5.5t-6.5 -16.5q-7 -48 10.5 -86.5
t53 -61t81.5 -22.5q52 0 94 21t76 64q5 4 7.5 2.5t6.5 -3.5l39 -21q3 -2 5 -6.5t-2 -10.5q-32 -40 -68 -64t-77.5 -35.5t-90.5 -11.5q-67 0 -115 30t-71 81q-5 6 -9 4t-10 -13q-39 -48 -93.5 -75t-118.5 -27v0zM267 53q53 0 94.5 26.5t69 75t36.5 114.5q9 65 -4.5 111.5
t-46.5 72t-83 25.5q-52 0 -94 -27t-69.5 -75.5t-37.5 -115.5q-9 -64 4.5 -110.5t47 -71.5t83.5 -25v0zM751 480q-47 0 -88.5 -23t-69 -63.5t-34.5 -93.5l301 2q11 0 15.5 4t5.5 14q7 43 -7 79t-45 58.5t-78 22.5v0z" />
    <glyph glyph-name="Racute" unicode="&#x154;" horiz-adv-x="696" 
d="M592 17q6 -17 -11 -17h-74q-6 0 -9.5 3.5t-5.5 10.5l-85 315q-1 5 -4.5 7t-12.5 2h-176q-11 0 -12 -12l-45 -312q-1 -9 -4.5 -11.5t-12.5 -2.5h-65q-8 0 -11 4.5t-2 11.5l101 715q1 7 3 9t8 2h279q108 0 166.5 -42t58.5 -121q0 -55 -21 -100t-59.5 -77t-90.5 -47
q-7 -3 -9.5 -5.5t-1.5 -5.5l96 -327v0zM378 408q61 0 106 17.5t69.5 53t24.5 92.5q0 52 -34.5 76.5t-102.5 24.5h-179q-11 0 -14 -12l-34 -242q-1 -5 1 -7.5t6 -2.5h157v0zM562 910q2 -6 0.5 -9.5t-10.5 -6.5l-239 -71q-6 -2 -10 1t-5 9l-5 22q-2 11 3 13l245 95q3 1 7 -0.5
t5 -7.5z" />
    <glyph glyph-name="racute" unicode="&#x155;" horiz-adv-x="383" 
d="M56 0q-7 0 -11 4.5t-3 11.5l71 504q1 6 3 8t7 2h59q6 0 9 -3t2 -11l-9 -57q-1 -7 2 -8t8 4q30 30 58 49t55 27.5t51 8.5q20 0 29 -3t8 -10l-8 -59q-1 -5 -2.5 -7t-4.5 -1q-10 1 -21.5 1.5t-23.5 0.5q-22 0 -49 -10t-52 -27t-42 -38.5t-20 -43.5l-46 -331q-1 -7 -4 -9.5
t-12 -2.5h-54v0zM403 698q2 -6 0.5 -9.5t-10.5 -6.5l-239 -71q-6 -2 -10 1t-5 9l-5 22q-2 11 3 13l245 95q3 1 7 -0.5t5 -7.5z" />
    <glyph glyph-name="uni0156" unicode="&#x156;" horiz-adv-x="696" 
d="M592 17q6 -17 -11 -17h-74q-6 0 -9.5 3.5t-5.5 10.5l-85 315q-1 5 -4.5 7t-12.5 2h-176q-11 0 -12 -12l-45 -312q-1 -9 -4.5 -11.5t-12.5 -2.5h-65q-8 0 -11 4.5t-2 11.5l101 715q1 7 3 9t8 2h279q108 0 166.5 -42t58.5 -121q0 -55 -21 -100t-59.5 -77t-90.5 -47
q-7 -3 -9.5 -5.5t-1.5 -5.5l96 -327v0zM378 408q61 0 106 17.5t69.5 53t24.5 92.5q0 52 -34.5 76.5t-102.5 24.5h-179q-11 0 -14 -12l-34 -242q-1 -5 1 -7.5t6 -2.5h157v0zM243 -239q-4 0 -4.5 3t2.5 7l37 53q4 7 3 11t-7 4h-14q-5 0 -6.5 2t-0.5 9l9 65q3 12 12 12h59
q8 0 7 -8l-10 -78q-2 -6 -5 -10l-46 -59q-4 -5 -7.5 -8t-11.5 -3h-17v0z" />
    <glyph glyph-name="uni0157" unicode="&#x157;" horiz-adv-x="383" 
d="M56 0q-7 0 -11 4.5t-3 11.5l71 504q1 6 3 8t7 2h59q6 0 9 -3t2 -11l-9 -57q-1 -7 2 -8t8 4q30 30 58 49t55 27.5t51 8.5q20 0 29 -3t8 -10l-8 -59q-1 -5 -2.5 -7t-4.5 -1q-10 1 -21.5 1.5t-23.5 0.5q-22 0 -49 -10t-52 -27t-42 -38.5t-20 -43.5l-46 -331q-1 -7 -4 -9.5
t-12 -2.5h-54v0zM22 -239q-4 0 -4.5 3t2.5 7l37 53q4 7 3 11t-7 4h-14q-5 0 -6.5 2t-0.5 9l9 65q3 12 12 12h59q8 0 7 -8l-10 -78q-2 -6 -5 -10l-46 -59q-4 -5 -7.5 -8t-11.5 -3h-17v0z" />
    <glyph glyph-name="Rcaron" unicode="&#x158;" horiz-adv-x="696" 
d="M592 17q6 -17 -11 -17h-74q-6 0 -9.5 3.5t-5.5 10.5l-85 315q-1 5 -4.5 7t-12.5 2h-176q-11 0 -12 -12l-45 -312q-1 -9 -4.5 -11.5t-12.5 -2.5h-65q-8 0 -11 4.5t-2 11.5l101 715q1 7 3 9t8 2h279q108 0 166.5 -42t58.5 -121q0 -55 -21 -100t-59.5 -77t-90.5 -47
q-7 -3 -9.5 -5.5t-1.5 -5.5l96 -327v0zM378 408q61 0 106 17.5t69.5 53t24.5 92.5q0 52 -34.5 76.5t-102.5 24.5h-179q-11 0 -14 -12l-34 -242q-1 -5 1 -7.5t6 -2.5h157v0zM500 949q6 4 10 4.5t9 0.5h59q7 0 8 -4t-6 -10l-115 -93q-3 -3 -7.5 -5t-12.5 -2h-39
q-9 0 -13.5 3.5t-8.5 8.5l-91 92q-4 5 -4.5 7.5t5.5 2.5h54q6 0 9.5 -2t7.5 -7l51 -49q8 -9 11 -6.5t12 10.5l61 49v0z" />
    <glyph glyph-name="rcaron" unicode="&#x159;" horiz-adv-x="383" 
d="M56 0q-7 0 -11 4.5t-3 11.5l71 504q1 6 3 8t7 2h59q6 0 9 -3t2 -11l-9 -57q-1 -7 2 -8t8 4q30 30 58 49t55 27.5t51 8.5q20 0 29 -3t8 -10l-8 -59q-1 -5 -2.5 -7t-4.5 -1q-10 1 -21.5 1.5t-23.5 0.5q-22 0 -49 -10t-52 -27t-42 -38.5t-20 -43.5l-46 -331q-1 -7 -4 -9.5
t-12 -2.5h-54v0zM340 737q6 4 10 4.5t9 0.5h59q7 0 8 -4t-6 -10l-115 -93q-3 -3 -7.5 -5t-12.5 -2h-39q-9 0 -13.5 3.5t-8.5 8.5l-91 92q-4 5 -4.5 7.5t5.5 2.5h54q6 0 9.5 -2t7.5 -7l51 -49q8 -9 11 -6.5t12 10.5l61 49v0z" />
    <glyph glyph-name="Sacute" unicode="&#x15a;" horiz-adv-x="641" 
d="M548 608q-23 30 -62.5 50.5t-99.5 20.5q-52 0 -93 -18t-64.5 -50t-23.5 -76q0 -17 8 -34.5t28.5 -34t54.5 -29.5l139 -51q76 -27 109.5 -66.5t33.5 -96.5q0 -75 -38.5 -127.5t-105 -79t-149.5 -26.5q-93 0 -155 32.5t-97 96.5q-3 7 -2.5 12.5t8.5 9.5l38 24q8 5 14 3.5
t11 -8.5q23 -33 47 -55t57.5 -33t85.5 -11q56 0 99 15t68 47t25 82q0 31 -21 54.5t-78 44.5l-144 55q-69 25 -98.5 68t-29.5 93q0 53 21.5 95.5t60 73t89 47t107.5 16.5q52 0 93.5 -13t74 -35.5t55.5 -53.5q6 -7 6.5 -10.5t-5.5 -7.5l-49 -34q-4 -2 -7.5 0.5t-10.5 9.5v0z
M551 910q2 -6 0.5 -9.5t-10.5 -6.5l-239 -71q-6 -2 -10 1t-5 9l-5 22q-2 11 3 13l245 95q3 1 7 -0.5t5 -7.5z" />
    <glyph glyph-name="sacute" unicode="&#x15b;" horiz-adv-x="512" 
d="M218 -10q-82 0 -138 32.5t-74 81.5q-5 10 4 15l39 20q6 3 10 2t7 -7q18 -37 55 -60t97 -23q20 0 46 4.5t50.5 15.5t40.5 29t16 46q0 24 -20.5 43t-67.5 32l-99 28q-64 19 -91.5 48.5t-27.5 69.5q0 55 32 94t83 59t109 20q69 0 117 -26.5t71 -70.5q3 -4 2 -7.5t-6 -6.5
l-38 -19q-4 -2 -7.5 -0.5t-8.5 7.5q-17 29 -50.5 46.5t-82.5 17.5q-30 0 -63 -10t-55.5 -30.5t-22.5 -52.5q0 -19 14.5 -35t56.5 -30l121 -37q59 -16 86.5 -49.5t27.5 -75.5q0 -43 -21 -75t-55 -53.5t-75 -32t-82 -10.5v0zM435 698q2 -6 0.5 -9.5t-10.5 -6.5l-239 -71
q-6 -2 -10 1t-5 9l-5 22q-2 11 3 13l245 95q3 1 7 -0.5t5 -7.5z" />
    <glyph glyph-name="Scircumflex" unicode="&#x15c;" horiz-adv-x="641" 
d="M548 608q-23 30 -62.5 50.5t-99.5 20.5q-52 0 -93 -18t-64.5 -50t-23.5 -76q0 -17 8 -34.5t28.5 -34t54.5 -29.5l139 -51q76 -27 109.5 -66.5t33.5 -96.5q0 -75 -38.5 -127.5t-105 -79t-149.5 -26.5q-93 0 -155 32.5t-97 96.5q-3 7 -2.5 12.5t8.5 9.5l38 24q8 5 14 3.5
t11 -8.5q23 -33 47 -55t57.5 -33t85.5 -11q56 0 99 15t68 47t25 82q0 31 -21 54.5t-78 44.5l-144 55q-69 25 -98.5 68t-29.5 93q0 53 21.5 95.5t60 73t89 47t107.5 16.5q52 0 93.5 -13t74 -35.5t55.5 -53.5q6 -7 6.5 -10.5t-5.5 -7.5l-49 -34q-4 -2 -7.5 0.5t-10.5 9.5v0z
M427 901q-7 7 -9 6.5t-12 -7.5l-66 -51q-6 -5 -9.5 -5.5t-9.5 -0.5h-55q-7 0 -7.5 4t4.5 8l116 93q6 5 11.5 7t13.5 2h40q7 0 10.5 -4.5t6.5 -6.5l89 -93q6 -6 5 -8t-8 -2h-56q-6 0 -9 2t-7 6z" />
    <glyph glyph-name="scircumflex" unicode="&#x15d;" horiz-adv-x="512" 
d="M218 -10q-82 0 -138 32.5t-74 81.5q-5 10 4 15l39 20q6 3 10 2t7 -7q18 -37 55 -60t97 -23q20 0 46 4.5t50.5 15.5t40.5 29t16 46q0 24 -20.5 43t-67.5 32l-99 28q-64 19 -91.5 48.5t-27.5 69.5q0 55 32 94t83 59t109 20q69 0 117 -26.5t71 -70.5q3 -4 2 -7.5t-6 -6.5
l-38 -19q-4 -2 -7.5 -0.5t-8.5 7.5q-17 29 -50.5 46.5t-82.5 17.5q-30 0 -63 -10t-55.5 -30.5t-22.5 -52.5q0 -19 14.5 -35t56.5 -30l121 -37q59 -16 86.5 -49.5t27.5 -75.5q0 -43 -21 -75t-55 -53.5t-75 -32t-82 -10.5v0zM312 689q-7 7 -9 6.5t-12 -7.5l-66 -51
q-6 -5 -9.5 -5.5t-9.5 -0.5h-55q-7 0 -7.5 4t4.5 8l116 93q6 5 11.5 7t13.5 2h40q7 0 10.5 -4.5t6.5 -6.5l89 -93q6 -6 5 -8t-8 -2h-56q-6 0 -9 2t-7 6z" />
    <glyph glyph-name="Scedilla" unicode="&#x15e;" horiz-adv-x="641" 
d="M548 608q-23 30 -62.5 50.5t-99.5 20.5q-52 0 -93 -18t-64.5 -50t-23.5 -76q0 -17 8 -34.5t28.5 -34t54.5 -29.5l139 -51q76 -27 109.5 -66.5t33.5 -96.5q0 -75 -38.5 -127.5t-105 -79t-149.5 -26.5q-93 0 -155 32.5t-97 96.5q-3 7 -2.5 12.5t8.5 9.5l38 24q8 5 14 3.5
t11 -8.5q23 -33 47 -55t57.5 -33t85.5 -11q56 0 99 15t68 47t25 82q0 31 -21 54.5t-78 44.5l-144 55q-69 25 -98.5 68t-29.5 93q0 53 21.5 95.5t60 73t89 47t107.5 16.5q52 0 93.5 -13t74 -35.5t55.5 -53.5q6 -7 6.5 -10.5t-5.5 -7.5l-49 -34q-4 -2 -7.5 0.5t-10.5 9.5v0z
M366 -136q-5 -37 -38.5 -55.5t-76.5 -18.5q-26 0 -47.5 6.5t-37.5 18.5q-3 0 -5.5 2.5t-1.5 5.5l16 26q1 3 2.5 1t3.5 -4q11 -7 24.5 -11.5t33.5 -4.5q30 0 47 11t20 32q2 20 -14.5 30t-57.5 11q-6 0 -8.5 2.5t-0.5 5.5l48 83h48l-30 -59q-2 -2 -2 -2.5t1 -0.5
q33 -2 50.5 -14t23 -29t2.5 -36v0z" />
    <glyph glyph-name="scedilla" unicode="&#x15f;" horiz-adv-x="512" 
d="M218 -10q-82 0 -138 32.5t-74 81.5q-5 10 4 15l39 20q6 3 10 2t7 -7q18 -37 55 -60t97 -23q20 0 46 4.5t50.5 15.5t40.5 29t16 46q0 24 -20.5 43t-67.5 32l-99 28q-64 19 -91.5 48.5t-27.5 69.5q0 55 32 94t83 59t109 20q69 0 117 -26.5t71 -70.5q3 -4 2 -7.5t-6 -6.5
l-38 -19q-4 -2 -7.5 -0.5t-8.5 7.5q-17 29 -50.5 46.5t-82.5 17.5q-30 0 -63 -10t-55.5 -30.5t-22.5 -52.5q0 -19 14.5 -35t56.5 -30l121 -37q59 -16 86.5 -49.5t27.5 -75.5q0 -43 -21 -75t-55 -53.5t-75 -32t-82 -10.5v0zM283 -136q-5 -37 -38.5 -55.5t-76.5 -18.5
q-26 0 -47.5 6.5t-37.5 18.5q-3 0 -5.5 2.5t-1.5 5.5l16 26q1 3 2.5 1t3.5 -4q11 -7 24.5 -11.5t33.5 -4.5q30 0 47 11t20 32q2 20 -14.5 30t-57.5 11q-6 0 -8.5 2.5t-0.5 5.5l48 83h48l-30 -59q-2 -2 -2 -2.5t1 -0.5q33 -2 50.5 -14t23 -29t2.5 -36v0z" />
    <glyph glyph-name="Scaron" unicode="&#x160;" horiz-adv-x="641" 
d="M548 608q-23 30 -62.5 50.5t-99.5 20.5q-52 0 -93 -18t-64.5 -50t-23.5 -76q0 -17 8 -34.5t28.5 -34t54.5 -29.5l139 -51q76 -27 109.5 -66.5t33.5 -96.5q0 -75 -38.5 -127.5t-105 -79t-149.5 -26.5q-93 0 -155 32.5t-97 96.5q-3 7 -2.5 12.5t8.5 9.5l38 24q8 5 14 3.5
t11 -8.5q23 -33 47 -55t57.5 -33t85.5 -11q56 0 99 15t68 47t25 82q0 31 -21 54.5t-78 44.5l-144 55q-69 25 -98.5 68t-29.5 93q0 53 21.5 95.5t60 73t89 47t107.5 16.5q52 0 93.5 -13t74 -35.5t55.5 -53.5q6 -7 6.5 -10.5t-5.5 -7.5l-49 -34q-4 -2 -7.5 0.5t-10.5 9.5v0z
M488 949q6 4 10 4.5t9 0.5h59q7 0 8 -4t-6 -10l-115 -93q-3 -3 -7.5 -5t-12.5 -2h-39q-9 0 -13.5 3.5t-8.5 8.5l-91 92q-4 5 -4.5 7.5t5.5 2.5h54q6 0 9.5 -2t7.5 -7l51 -49q8 -9 11 -6.5t12 10.5l61 49v0z" />
    <glyph glyph-name="scaron" unicode="&#x161;" horiz-adv-x="512" 
d="M218 -10q-82 0 -138 32.5t-74 81.5q-5 10 4 15l39 20q6 3 10 2t7 -7q18 -37 55 -60t97 -23q20 0 46 4.5t50.5 15.5t40.5 29t16 46q0 24 -20.5 43t-67.5 32l-99 28q-64 19 -91.5 48.5t-27.5 69.5q0 55 32 94t83 59t109 20q69 0 117 -26.5t71 -70.5q3 -4 2 -7.5t-6 -6.5
l-38 -19q-4 -2 -7.5 -0.5t-8.5 7.5q-17 29 -50.5 46.5t-82.5 17.5q-30 0 -63 -10t-55.5 -30.5t-22.5 -52.5q0 -19 14.5 -35t56.5 -30l121 -37q59 -16 86.5 -49.5t27.5 -75.5q0 -43 -21 -75t-55 -53.5t-75 -32t-82 -10.5v0zM373 737q6 4 10 4.5t9 0.5h59q7 0 8 -4t-6 -10
l-115 -93q-3 -3 -7.5 -5t-12.5 -2h-39q-9 0 -13.5 3.5t-8.5 8.5l-91 92q-4 5 -4.5 7.5t5.5 2.5h54q6 0 9.5 -2t7.5 -7l51 -49q8 -9 11 -6.5t12 10.5l61 49v0z" />
    <glyph glyph-name="uni0162" unicode="&#x162;" horiz-adv-x="645" 
d="M107 733q2 6 3.5 7.5t8.5 1.5h542q6 0 7.5 -2.5t0.5 -7.5l-8 -54q-1 -5 -3.5 -7t-9.5 -2h-201q-7 0 -10 -2.5t-4 -9.5l-91 -645q-1 -8 -3.5 -10t-7.5 -2h-73q-8 0 -10.5 3.5t-0.5 11.5l91 642q1 12 -11 12h-217q-11 0 -10 10zM365 -136q-5 -37 -38.5 -55.5t-76.5 -18.5
q-26 0 -47.5 6.5t-37.5 18.5q-3 0 -5.5 2.5t-1.5 5.5l16 26q1 3 2.5 1t3.5 -4q11 -7 24.5 -11.5t33.5 -4.5q30 0 47 11t20 32q2 20 -14.5 30t-57.5 11q-6 0 -8.5 2.5t-0.5 5.5l48 83h48l-30 -59q-2 -2 -2 -2.5t1 -0.5q33 -2 50.5 -14t23 -29t2.5 -36v0z" />
    <glyph glyph-name="uni0163" unicode="&#x163;" horiz-adv-x="387" 
d="M213 0q-55 0 -82.5 22.5t-27.5 69.5q0 8 0.5 16.5t1.5 16.5l47 334q1 5 -1.5 6.5t-7.5 1.5h-82q-8 0 -7 13l6 43q1 5 2.5 6t6.5 1h85q4 0 7 3.5t3 7.5l34 159q2 10 13 10h51q6 0 8 -3.5t1 -12.5l-23 -156q-1 -4 1 -6t6 -2h125q5 0 8.5 -2.5t2.5 -6.5l-6 -45q-1 -5 -3 -7
t-8 -2h-127q-9 0 -12 -11l-44 -316q-1 -8 -1.5 -15t-0.5 -13q0 -30 13.5 -39.5t40.5 -9.5h69q5 0 8 -4t3 -9l-6 -34q-1 -10 -10 -12q-11 -2 -29 -2.5l-36 -1t-29 -0.5v0zM275 -136q-5 -37 -38.5 -55.5t-76.5 -18.5q-26 0 -47.5 6.5t-37.5 18.5q-3 0 -5.5 2.5t-1.5 5.5l16 26
q1 3 2.5 1t3.5 -4q11 -7 24.5 -11.5t33.5 -4.5q30 0 47 11t20 32q2 20 -14.5 30t-57.5 11q-6 0 -8.5 2.5t-0.5 5.5l48 83h48l-30 -59q-2 -2 -2 -2.5t1 -0.5q33 -2 50.5 -14t23 -29t2.5 -36v0z" />
    <glyph glyph-name="Tcaron" unicode="&#x164;" horiz-adv-x="645" 
d="M107 733q2 6 3.5 7.5t8.5 1.5h542q6 0 7.5 -2.5t0.5 -7.5l-8 -54q-1 -5 -3.5 -7t-9.5 -2h-201q-7 0 -10 -2.5t-4 -9.5l-91 -645q-1 -8 -3.5 -10t-7.5 -2h-73q-8 0 -10.5 3.5t-0.5 11.5l91 642q1 12 -11 12h-217q-11 0 -10 10zM490 949q6 4 10 4.5t9 0.5h59q7 0 8 -4
t-6 -10l-115 -93q-3 -3 -7.5 -5t-12.5 -2h-39q-9 0 -13.5 3.5t-8.5 8.5l-91 92q-4 5 -4.5 7.5t5.5 2.5h54q6 0 9.5 -2t7.5 -7l51 -49q8 -9 11 -6.5t12 10.5l61 49v0z" />
    <glyph glyph-name="tcaron" unicode="&#x165;" horiz-adv-x="415" 
d="M213 0q-55 0 -82.5 22.5t-27.5 69.5q0 8 0.5 16.5t1.5 16.5l47 334q1 5 -1.5 6.5t-7.5 1.5h-82q-8 0 -7 13l6 43q1 5 2.5 6t6.5 1h85q4 0 7 3.5t3 7.5l34 159q2 10 13 10h51q6 0 8 -3.5t1 -12.5l-23 -156q-1 -4 1 -6t6 -2h125q5 0 8.5 -2.5t2.5 -6.5l-6 -45q-1 -5 -3 -7
t-8 -2h-127q-9 0 -12 -11l-44 -316q-1 -8 -1.5 -15t-0.5 -13q0 -30 13.5 -39.5t40.5 -9.5h69q5 0 8 -4t3 -9l-6 -34q-1 -10 -10 -12q-11 -2 -29 -2.5l-36 -1t-29 -0.5v0zM363 577q-4 0 -6.5 4.5t-0.5 7.5l40 72q3 6 4 7.5t-4 2.5l-6 1q-6 1 -9 4.5t-2 8.5l11 80q1 5 2 6t5 1
h58q3 0 6 -3t2 -7l-13 -92q-1 -2 -1.5 -3.5t-0.5 -2.5l-46 -79q-2 -6 -5.5 -7t-11.5 -1h-22v0z" />
    <glyph glyph-name="Tbar" unicode="&#x166;" horiz-adv-x="645" 
d="M538 352q-1 -9 -5 -11.5t-14 -2.5h-353q-8 0 -11 5t-2 12l6 42q1 7 2.5 9t7.5 2h365q5 0 8 -4.5t2 -9.5zM107 733q2 6 3.5 7.5t8.5 1.5h542q6 0 7.5 -2.5t0.5 -7.5l-8 -54q-1 -5 -3.5 -7t-9.5 -2h-201q-7 0 -10 -2.5t-4 -9.5l-91 -645q-1 -8 -3.5 -10t-7.5 -2h-73
q-8 0 -10.5 3.5t-0.5 11.5l91 642q1 12 -11 12h-217q-11 0 -10 10z" />
    <glyph glyph-name="tbar" unicode="&#x167;" horiz-adv-x="387" 
d="M321 277q-1 -7 -4.5 -8.5t-10.5 -1.5h-242q-7 0 -9.5 4t-1.5 10l4 32q2 6 3.5 7t4.5 1h252q4 0 6.5 -3.5t1.5 -7.5zM213 0q-55 0 -82.5 22.5t-27.5 69.5q0 8 0.5 16.5t1.5 16.5l47 334q1 5 -1.5 6.5t-7.5 1.5h-82q-8 0 -7 13l6 43q1 5 2.5 6t6.5 1h85q4 0 7 3.5t3 7.5
l34 159q2 10 13 10h51q6 0 8 -3.5t1 -12.5l-23 -156q-1 -4 1 -6t6 -2h125q5 0 8.5 -2.5t2.5 -6.5l-6 -45q-1 -5 -3 -7t-8 -2h-127q-9 0 -12 -11l-44 -316q-1 -8 -1.5 -15t-0.5 -13q0 -30 13.5 -39.5t40.5 -9.5h69q5 0 8 -4t3 -9l-6 -34q-1 -10 -10 -12q-11 -2 -29 -2.5
l-36 -1t-29 -0.5v0z" />
    <glyph glyph-name="Utilde" unicode="&#x168;" horiz-adv-x="709" 
d="M619 245q-13 -90 -51 -146.5t-100.5 -82.5t-148.5 -26q-122 0 -179.5 52t-57.5 155q0 16 1.5 33.5t4.5 35.5l65 464q1 7 3.5 9.5t7.5 2.5h72q7 0 10.5 -4t1.5 -11l-68 -486q-1 -12 -2.5 -22.5t-1.5 -21.5q0 -68 38.5 -100.5t114.5 -32.5q60 0 103.5 20t70.5 61t36 104
l68 483q1 6 3 8t7 2h59q6 0 8.5 -4t2.5 -11l-68 -482v0zM594 886q-13 -7 -32.5 -13t-45.5 -6q-28 0 -47.5 6.5t-36.5 12.5t-39 6q-24 0 -37 -9t-28 -15q-7 -2 -9.5 0.5t-4.5 9.5l-7 27q-1 5 -2 9t4 7q18 11 36 18.5t43 7.5q26 0 47 -6.5t40.5 -13.5t40.5 -7q14 0 24 3.5
t19 9t18 9.5q8 2 12.5 -0.5t5.5 -9.5l5 -31q1 -4 1 -8.5t-7 -6.5v0z" />
    <glyph glyph-name="utilde" unicode="&#x169;" horiz-adv-x="579" 
d="M195 -10q-64 0 -103.5 35.5t-39.5 95.5v11.5t1 12.5l53 372q1 8 4 10.5t10 2.5h56q8 0 11.5 -4.5t1.5 -11.5l-49 -351q-1 -6 -1.5 -12t-0.5 -10q0 -45 22.5 -65t63.5 -20q45 0 88 24.5t88 64.5l53 373q2 8 5 10t11 2h55q8 0 11.5 -4.5t2.5 -11.5l-72 -504q-1 -5 -3 -7.5
t-8 -2.5h-58q-6 0 -9 2.5t-2 8.5l8 56q1 6 -1.5 7t-8.5 -4q-61 -47 -105 -63.5t-84 -16.5v0zM478 674q-13 -7 -32.5 -13t-45.5 -6q-28 0 -47.5 6.5t-36.5 12.5t-39 6q-24 0 -37 -9t-28 -15q-7 -2 -9.5 0.5t-4.5 9.5l-7 27q-1 5 -2 9t4 7q18 11 36 18.5t43 7.5q26 0 47 -6.5
t40.5 -13.5t40.5 -7q14 0 24 3.5t19 9t18 9.5q8 2 12.5 -0.5t5.5 -9.5l5 -31q1 -4 1 -8.5t-7 -6.5v0z" />
    <glyph glyph-name="Umacron" unicode="&#x16a;" horiz-adv-x="709" 
d="M619 245q-13 -90 -51 -146.5t-100.5 -82.5t-148.5 -26q-122 0 -179.5 52t-57.5 155q0 16 1.5 33.5t4.5 35.5l65 464q1 7 3.5 9.5t7.5 2.5h72q7 0 10.5 -4t1.5 -11l-68 -486q-1 -12 -2.5 -22.5t-1.5 -21.5q0 -68 38.5 -100.5t114.5 -32.5q60 0 103.5 20t70.5 61t36 104
l68 483q1 6 3 8t7 2h59q6 0 8.5 -4t2.5 -11l-68 -482v0zM598 888q-1 -6 -3.5 -8t-11.5 -2h-269q-7 0 -9.5 4t-1.5 10l5 39q1 5 2.5 7t4.5 2h280q4 0 6.5 -4.5t1.5 -7.5z" />
    <glyph glyph-name="umacron" unicode="&#x16b;" horiz-adv-x="579" 
d="M195 -10q-64 0 -103.5 35.5t-39.5 95.5v11.5t1 12.5l53 372q1 8 4 10.5t10 2.5h56q8 0 11.5 -4.5t1.5 -11.5l-49 -351q-1 -6 -1.5 -12t-0.5 -10q0 -45 22.5 -65t63.5 -20q45 0 88 24.5t88 64.5l53 373q2 8 5 10t11 2h55q8 0 11.5 -4.5t2.5 -11.5l-72 -504q-1 -5 -3 -7.5
t-8 -2.5h-58q-6 0 -9 2.5t-2 8.5l8 56q1 6 -1.5 7t-8.5 -4q-61 -47 -105 -63.5t-84 -16.5v0zM482 676q-1 -6 -3.5 -8t-11.5 -2h-269q-7 0 -9.5 4t-1.5 10l5 39q1 5 2.5 7t4.5 2h280q4 0 6.5 -4.5t1.5 -7.5z" />
    <glyph glyph-name="Ubreve" unicode="&#x16c;" horiz-adv-x="709" 
d="M619 245q-13 -90 -51 -146.5t-100.5 -82.5t-148.5 -26q-122 0 -179.5 52t-57.5 155q0 16 1.5 33.5t4.5 35.5l65 464q1 7 3.5 9.5t7.5 2.5h72q7 0 10.5 -4t1.5 -11l-68 -486q-1 -12 -2.5 -22.5t-1.5 -21.5q0 -68 38.5 -100.5t114.5 -32.5q60 0 103.5 20t70.5 61t36 104
l68 483q1 6 3 8t7 2h59q6 0 8.5 -4t2.5 -11l-68 -482v0zM589 953q7 0 9.5 -4.5t-1.5 -11.5q-11 -22 -33 -43.5t-54 -34.5t-72 -13q-41 0 -70 12.5t-45.5 34.5t-18.5 49q-1 4 1 7.5t9 3.5h45q7 0 9 -3.5t6 -9.5q6 -7 13.5 -16.5t20.5 -16.5t34 -7q33 0 54.5 15t35.5 32
q3 4 6.5 5t7.5 1h43v0z" />
    <glyph glyph-name="ubreve" unicode="&#x16d;" horiz-adv-x="579" 
d="M195 -10q-64 0 -103.5 35.5t-39.5 95.5v11.5t1 12.5l53 372q1 8 4 10.5t10 2.5h56q8 0 11.5 -4.5t1.5 -11.5l-49 -351q-1 -6 -1.5 -12t-0.5 -10q0 -45 22.5 -65t63.5 -20q45 0 88 24.5t88 64.5l53 373q2 8 5 10t11 2h55q8 0 11.5 -4.5t2.5 -11.5l-72 -504q-1 -5 -3 -7.5
t-8 -2.5h-58q-6 0 -9 2.5t-2 8.5l8 56q1 6 -1.5 7t-8.5 -4q-61 -47 -105 -63.5t-84 -16.5v0zM474 741q7 0 9.5 -4.5t-1.5 -11.5q-11 -22 -33 -43.5t-54 -34.5t-72 -13q-41 0 -70 12.5t-45.5 34.5t-18.5 49q-1 4 1 7.5t9 3.5h45q7 0 9 -3.5t6 -9.5q6 -7 13.5 -16.5
t20.5 -16.5t34 -7q33 0 54.5 15t35.5 32q3 4 6.5 5t7.5 1h43v0z" />
    <glyph glyph-name="Uring" unicode="&#x16e;" horiz-adv-x="709" 
d="M619 245q-13 -90 -51 -146.5t-100.5 -82.5t-148.5 -26q-122 0 -179.5 52t-57.5 155q0 16 1.5 33.5t4.5 35.5l65 464q1 7 3.5 9.5t7.5 2.5h72q7 0 10.5 -4t1.5 -11l-68 -486q-1 -12 -2.5 -22.5t-1.5 -21.5q0 -68 38.5 -100.5t114.5 -32.5q60 0 103.5 20t70.5 61t36 104
l68 483q1 6 3 8t7 2h59q6 0 8.5 -4t2.5 -11l-68 -482v0zM551 853q-6 -43 -39.5 -71.5t-75.5 -28.5q-30 0 -53 14.5t-33.5 40t-6.5 56.5q5 41 39 69t75 28q31 0 53.5 -14.5t33.5 -39t7 -54.5v0zM501 861q4 24 -9 38t-35 14q-24 0 -44 -17t-24 -44q-3 -20 11 -35.5t34 -15.5
q25 0 44.5 18.5t22.5 41.5v0z" />
    <glyph glyph-name="uring" unicode="&#x16f;" horiz-adv-x="579" 
d="M195 -10q-64 0 -103.5 35.5t-39.5 95.5v11.5t1 12.5l53 372q1 8 4 10.5t10 2.5h56q8 0 11.5 -4.5t1.5 -11.5l-49 -351q-1 -6 -1.5 -12t-0.5 -10q0 -45 22.5 -65t63.5 -20q45 0 88 24.5t88 64.5l53 373q2 8 5 10t11 2h55q8 0 11.5 -4.5t2.5 -11.5l-72 -504q-1 -5 -3 -7.5
t-8 -2.5h-58q-6 0 -9 2.5t-2 8.5l8 56q1 6 -1.5 7t-8.5 -4q-61 -47 -105 -63.5t-84 -16.5v0zM441 693q-6 -43 -39.5 -71.5t-75.5 -28.5q-30 0 -53 14.5t-33.5 40t-6.5 56.5q5 41 39 69t75 28q31 0 53.5 -14.5t33.5 -39t7 -54.5v0zM391 701q4 24 -9 38t-35 14q-24 0 -44 -17
t-24 -44q-3 -20 11 -35.5t34 -15.5q25 0 44.5 18.5t22.5 41.5v0z" />
    <glyph glyph-name="Uhungarumlaut" unicode="&#x170;" horiz-adv-x="709" 
d="M619 245q-13 -90 -51 -146.5t-100.5 -82.5t-148.5 -26q-122 0 -179.5 52t-57.5 155q0 16 1.5 33.5t4.5 35.5l65 464q1 7 3.5 9.5t7.5 2.5h72q7 0 10.5 -4t1.5 -11l-68 -486q-1 -12 -2.5 -22.5t-1.5 -21.5q0 -68 38.5 -100.5t114.5 -32.5q60 0 103.5 20t70.5 61t36 104
l68 483q1 6 3 8t7 2h59q6 0 8.5 -4t2.5 -11l-68 -482v0zM489 921q4 -6 4.5 -10t-7.5 -10l-144 -107q-6 -5 -10 -3.5t-7 6.5l-14 18q-3 5 -3.5 9.5t1.5 6.5l140 127q5 5 9 3.5t7 -5.5zM652 921q3 -6 4 -10t-7 -10l-144 -107q-7 -5 -11 -3.5t-7 6.5l-13 18q-3 5 -3.5 9.5
t1.5 6.5l140 127q4 5 8.5 3.5t6.5 -5.5z" />
    <glyph glyph-name="uhungarumlaut" unicode="&#x171;" horiz-adv-x="579" 
d="M195 -10q-64 0 -103.5 35.5t-39.5 95.5v11.5t1 12.5l53 372q1 8 4 10.5t10 2.5h56q8 0 11.5 -4.5t1.5 -11.5l-49 -351q-1 -6 -1.5 -12t-0.5 -10q0 -45 22.5 -65t63.5 -20q45 0 88 24.5t88 64.5l53 373q2 8 5 10t11 2h55q8 0 11.5 -4.5t2.5 -11.5l-72 -504q-1 -5 -3 -7.5
t-8 -2.5h-58q-6 0 -9 2.5t-2 8.5l8 56q1 6 -1.5 7t-8.5 -4q-61 -47 -105 -63.5t-84 -16.5v0zM374 709q4 -6 4.5 -10t-7.5 -10l-144 -107q-6 -5 -10 -3.5t-7 6.5l-14 18q-3 5 -3.5 9.5t1.5 6.5l140 127q5 5 9 3.5t7 -5.5zM537 709q3 -6 4 -10t-7 -10l-144 -107
q-7 -5 -11 -3.5t-7 6.5l-13 18q-3 5 -3.5 9.5t1.5 6.5l140 127q4 5 8.5 3.5t6.5 -5.5z" />
    <glyph glyph-name="Uogonek" unicode="&#x172;" horiz-adv-x="709" 
d="M619 245q-13 -90 -51 -146.5t-100.5 -82.5t-148.5 -26q-122 0 -179.5 52t-57.5 155q0 16 1.5 33.5t4.5 35.5l65 464q1 7 3.5 9.5t7.5 2.5h72q7 0 10.5 -4t1.5 -11l-68 -486q-1 -12 -2.5 -22.5t-1.5 -21.5q0 -68 38.5 -100.5t114.5 -32.5q60 0 103.5 20t70.5 61t36 104
l68 483q1 6 3 8t7 2h59q6 0 8.5 -4t2.5 -11l-68 -482v0zM230 -87q2 20 13.5 36.5t36.5 31.5t68 27l62 -8q-54 -22 -80.5 -42t-29.5 -47q-3 -18 7 -27t35 -9q22 0 39.5 5.5t25.5 9.5q7 2 10 0t1 -8l-4 -29q-1 -4 -3 -7t-5 -5q-13 -4 -36 -8.5t-49 -4.5q-51 0 -73.5 23.5
t-17.5 61.5v0z" />
    <glyph glyph-name="uogonek" unicode="&#x173;" horiz-adv-x="579" 
d="M195 -10q-64 0 -103.5 35.5t-39.5 95.5v11.5t1 12.5l53 372q1 8 4 10.5t10 2.5h56q8 0 11.5 -4.5t1.5 -11.5l-49 -351q-1 -6 -1.5 -12t-0.5 -10q0 -45 22.5 -65t63.5 -20q45 0 88 24.5t88 64.5l53 373q2 8 5 10t11 2h55q8 0 11.5 -4.5t2.5 -11.5l-72 -504q-1 -5 -3 -7.5
t-8 -2.5h-58q-6 0 -9 2.5t-2 8.5l8 56q1 6 -1.5 7t-8.5 -4q-61 -47 -105 -63.5t-84 -16.5v0zM283 -84q2 20 13.5 36.5t36.5 31.5t68 27l62 -8q-54 -22 -80.5 -42t-29.5 -47q-3 -18 7 -27t35 -9q22 0 39.5 5.5t25.5 9.5q7 2 10 0t1 -8l-4 -29q-1 -4 -3 -7t-5 -5
q-13 -4 -36 -8.5t-49 -4.5q-51 0 -73.5 23.5t-17.5 61.5v0z" />
    <glyph glyph-name="Wcircumflex" unicode="&#x174;" horiz-adv-x="1045" 
d="M1055 742q10 0 11.5 -5t-1.5 -15l-307 -709q-4 -8 -8 -10.5t-14 -2.5h-61q-9 0 -14.5 3.5t-7.5 10.5l-80 565q-1 5 -3 5t-4 -5l-244 -566q-3 -8 -7.5 -10.5t-14.5 -2.5h-63q-19 0 -20 15l-104 711q-1 8 2 12t12 4h64q9 0 12 -3.5t4 -10.5l82 -580q2 -9 5 -9t7 9l249 585
q2 6 5 7.5t13 1.5h58q8 0 11 -3.5t4 -10.5l83 -583q1 -8 4 -7.5t7 9.5l248 586q3 6 6.5 7.5t10.5 1.5h55v0zM623 901q-7 7 -9 6.5t-12 -7.5l-66 -51q-6 -5 -9.5 -5.5t-9.5 -0.5h-55q-7 0 -7.5 4t4.5 8l116 93q6 5 11.5 7t13.5 2h40q7 0 10.5 -4.5t6.5 -6.5l89 -93q6 -6 5 -8
t-8 -2h-56q-6 0 -9 2t-7 6z" />
    <glyph glyph-name="wcircumflex" unicode="&#x175;" horiz-adv-x="796" 
d="M790 530q7 0 10 -5.5t1 -11.5l-225 -502q-2 -7 -6 -9t-12 -2h-48q-20 0 -20 15l-67 374q-2 9 -5.5 7t-6.5 -11l-167 -374q-2 -7 -6 -9t-12 -2h-51q-19 0 -19 15l-89 502q-2 13 11 13h59q6 0 10.5 -4t4.5 -9l66 -389q2 -10 6 -7.5t8 12.5l174 389q3 8 13 8h47q6 0 10 -4
t4 -9l70 -389q2 -10 5.5 -7.5t7.5 12.5l170 389q6 8 17 8h40v0zM469 689q-7 7 -9 6.5t-12 -7.5l-66 -51q-6 -5 -9.5 -5.5t-9.5 -0.5h-55q-7 0 -7.5 4t4.5 8l116 93q6 5 11.5 7t13.5 2h40q7 0 10.5 -4.5t6.5 -6.5l89 -93q6 -6 5 -8t-8 -2h-56q-6 0 -9 2t-7 6z" />
    <glyph glyph-name="Ycircumflex" unicode="&#x176;" horiz-adv-x="675" 
d="M692 742q7 0 9 -4.5t-2 -10.5l-295 -399q-4 -6 -6.5 -12t-4.5 -21l-40 -280q-1 -9 -5.5 -12t-14.5 -3h-64q-9 0 -11 4t-1 11l40 280q2 11 1 15.5t-3 11.5l-185 406q-3 7 -1.5 10.5t10.5 3.5h73q9 0 12.5 -3.5t6.5 -10.5l141 -320q8 -18 21 0l232 324q5 6 8.5 8t12.5 2h66
v0zM437 901q-7 7 -9 6.5t-12 -7.5l-66 -51q-6 -5 -9.5 -5.5t-9.5 -0.5h-55q-7 0 -7.5 4t4.5 8l116 93q6 5 11.5 7t13.5 2h40q7 0 10.5 -4.5t6.5 -6.5l89 -93q6 -6 5 -8t-8 -2h-56q-6 0 -9 2t-7 6z" />
    <glyph glyph-name="ycircumflex" unicode="&#x177;" horiz-adv-x="530" 
d="M43 -165q-28 0 -43 2t-14 11l5 39q1 7 8.5 10t24.5 3h60q22 0 42 14.5t35.5 35.5t22 43.5t2.5 39.5l-125 478q-4 19 11 19h68q11 0 13 -9l96 -388q2 -10 7 -10t12 12l200 382q3 7 7 10t9 3h48q13 0 5 -12l-300 -563q-19 -35 -39.5 -58.5t-44 -37t-50.5 -19t-60 -5.5v0z
M343 689q-7 7 -9 6.5t-12 -7.5l-66 -51q-6 -5 -9.5 -5.5t-9.5 -0.5h-55q-7 0 -7.5 4t4.5 8l116 93q6 5 11.5 7t13.5 2h40q7 0 10.5 -4.5t6.5 -6.5l89 -93q6 -6 5 -8t-8 -2h-56q-6 0 -9 2t-7 6z" />
    <glyph glyph-name="Ydieresis" unicode="&#x178;" horiz-adv-x="675" 
d="M692 742q7 0 9 -4.5t-2 -10.5l-295 -399q-4 -6 -6.5 -12t-4.5 -21l-40 -280q-1 -9 -5.5 -12t-14.5 -3h-64q-9 0 -11 4t-1 11l40 280q2 11 1 15.5t-3 11.5l-185 406q-3 7 -1.5 10.5t10.5 3.5h73q9 0 12.5 -3.5t6.5 -10.5l141 -320q8 -18 21 0l232 324q5 6 8.5 8t12.5 2h66
v0zM390 857q-1 -9 -4 -11t-13 -2h-53q-8 0 -11 4t-2 11l12 85q1 7 3 8.5t7 1.5h62q6 0 9 -4t1 -11zM536 857q-1 -9 -4 -11t-13 -2h-52q-9 0 -11.5 4t-1.5 11l11 85q2 7 3.5 8.5t7.5 1.5h61q6 0 9 -4t2 -11z" />
    <glyph glyph-name="Zacute" unicode="&#x179;" horiz-adv-x="631" 
d="M25 0q-7 0 -10.5 3t-2.5 10l3 25q1 7 3.5 12.5t8.5 13.5l475 596q3 5 2.5 6.5t-5.5 1.5h-366q-13 0 -11 14l7 52q1 5 2.5 6.5t6.5 1.5h501q10 0 9 -11l-4 -28q-1 -6 -2.5 -9.5t-6.5 -9.5l-481 -602q-7 -7 1 -7h389q5 0 7.5 -2t1.5 -7l-8 -57q-1 -5 -3 -7t-8 -2h-509v0z
M545 910q2 -6 0.5 -9.5t-10.5 -6.5l-239 -71q-6 -2 -10 1t-5 9l-5 22q-2 11 3 13l245 95q3 1 7 -0.5t5 -7.5z" />
    <glyph glyph-name="zacute" unicode="&#x17a;" horiz-adv-x="482" 
d="M6 0q-7 0 -9 2.5t-1 9.5l4 27q1 8 5 13.5t12 15.5l346 391q5 5 4 8.5t-9 3.5h-267q-6 0 -7.5 3t-0.5 10l6 37q1 5 4.5 7t7.5 2h371q7 0 7 -9l-5 -31q-1 -7 -4.5 -13t-10.5 -13l-347 -392q-5 -5 -3.5 -9t6.5 -4h294q11 0 9 -9l-6 -38q-1 -6 -3 -9t-9 -3h-394v0zM445 698
q2 -6 0.5 -9.5t-10.5 -6.5l-239 -71q-6 -2 -10 1t-5 9l-5 22q-2 11 3 13l245 95q3 1 7 -0.5t5 -7.5z" />
    <glyph glyph-name="Zdotaccent" unicode="&#x17b;" horiz-adv-x="631" 
d="M25 0q-7 0 -10.5 3t-2.5 10l3 25q1 7 3.5 12.5t8.5 13.5l475 596q3 5 2.5 6.5t-5.5 1.5h-366q-13 0 -11 14l7 52q1 5 2.5 6.5t6.5 1.5h501q10 0 9 -11l-4 -28q-1 -6 -2.5 -9.5t-6.5 -9.5l-481 -602q-7 -7 1 -7h389q5 0 7.5 -2t1.5 -7l-8 -57q-1 -5 -3 -7t-8 -2h-509v0z
M452 851q-1 -9 -4.5 -11.5t-14.5 -2.5h-58q-9 0 -12 4.5t-2 12.5l12 89q2 7 4 9t8 2h68q6 0 9 -4t1 -11z" />
    <glyph glyph-name="zdotaccent" unicode="&#x17c;" horiz-adv-x="482" 
d="M6 0q-7 0 -9 2.5t-1 9.5l4 27q1 8 5 13.5t12 15.5l346 391q5 5 4 8.5t-9 3.5h-267q-6 0 -7.5 3t-0.5 10l6 37q1 5 4.5 7t7.5 2h371q7 0 7 -9l-5 -31q-1 -7 -4.5 -13t-10.5 -13l-347 -392q-5 -5 -3.5 -9t6.5 -4h294q11 0 9 -9l-6 -38q-1 -6 -3 -9t-9 -3h-394v0zM352 639
q-1 -9 -4.5 -11.5t-14.5 -2.5h-58q-9 0 -12 4.5t-2 12.5l12 89q2 7 4 9t8 2h68q6 0 9 -4t1 -11z" />
    <glyph glyph-name="Zcaron" unicode="&#x17d;" horiz-adv-x="631" 
d="M25 0q-7 0 -10.5 3t-2.5 10l3 25q1 7 3.5 12.5t8.5 13.5l475 596q3 5 2.5 6.5t-5.5 1.5h-366q-13 0 -11 14l7 52q1 5 2.5 6.5t6.5 1.5h501q10 0 9 -11l-4 -28q-1 -6 -2.5 -9.5t-6.5 -9.5l-481 -602q-7 -7 1 -7h389q5 0 7.5 -2t1.5 -7l-8 -57q-1 -5 -3 -7t-8 -2h-509v0z
M482 949q6 4 10 4.5t9 0.5h59q7 0 8 -4t-6 -10l-115 -93q-3 -3 -7.5 -5t-12.5 -2h-39q-9 0 -13.5 3.5t-8.5 8.5l-91 92q-4 5 -4.5 7.5t5.5 2.5h54q6 0 9.5 -2t7.5 -7l51 -49q8 -9 11 -6.5t12 10.5l61 49v0z" />
    <glyph glyph-name="zcaron" unicode="&#x17e;" horiz-adv-x="482" 
d="M6 0q-7 0 -9 2.5t-1 9.5l4 27q1 8 5 13.5t12 15.5l346 391q5 5 4 8.5t-9 3.5h-267q-6 0 -7.5 3t-0.5 10l6 37q1 5 4.5 7t7.5 2h371q7 0 7 -9l-5 -31q-1 -7 -4.5 -13t-10.5 -13l-347 -392q-5 -5 -3.5 -9t6.5 -4h294q11 0 9 -9l-6 -38q-1 -6 -3 -9t-9 -3h-394v0zM383 737
q6 4 10 4.5t9 0.5h59q7 0 8 -4t-6 -10l-115 -93q-3 -3 -7.5 -5t-12.5 -2h-39q-9 0 -13.5 3.5t-8.5 8.5l-91 92q-4 5 -4.5 7.5t5.5 2.5h54q6 0 9.5 -2t7.5 -7l51 -49q8 -9 11 -6.5t12 10.5l61 49v0z" />
    <glyph glyph-name="uni018F" unicode="&#x18f;" horiz-adv-x="763" 
d="M614 407q4 30 4.5 66t-6 71t-26 64.5t-54 47t-89.5 17.5q-51 0 -88.5 -14.5t-63 -37.5t-43 -49t-28.5 -48.5t-20 -36.5q-1 -1 -3.5 0.5t-8.5 4.5l-61 28q-8 3 -3 19q11 17 28 44t42.5 56t61 55t82.5 42t108 16q73 0 124 -22.5t82.5 -61t47 -88t18 -105t-5.5 -110.5
q-11 -72 -38.5 -139.5t-73.5 -120.5t-109.5 -84t-145.5 -31q-88 0 -145 30.5t-87 84.5t-36.5 124.5t4.5 150.5q1 6 2 9t10 3h507q6 0 9 4t5 11v0zM191 323q-13 0 -15 -13q-6 -44 -2 -87.5t22 -79.5t55 -57.5t97 -21.5q62 0 106.5 22t74 59t47 84t26.5 97z" />
    <glyph glyph-name="florin" unicode="&#x192;" horiz-adv-x="447" 
d="M404 530q5 0 7.5 -4t1.5 -9l-14 -42q-1 -5 -4 -6.5t-8 -1.5h-114q-4 0 -7 -3t-5 -7l-157 -498q-19 -62 -60.5 -96t-104.5 -34h-68q-7 0 -10.5 5t-1.5 12l11 36q3 8 11 8l50 1q36 0 57 19t35 65l154 487q2 4 1.5 4.5t-4.5 0.5h-69q-5 0 -7 4t-1 8l14 43q1 5 3.5 6.5
t8.5 1.5h66q5 0 8.5 3.5t5.5 8.5l23 73q20 63 62 95t102 32h83q7 0 10 -4t1 -11l-12 -38q-3 -8 -13 -8h-65q-28 0 -52.5 -22t-35.5 -55l-21 -67q-1 -5 -0.5 -6t4.5 -1h115v0z" />
    <glyph glyph-name="Ohorn" unicode="&#x1a0;" horiz-adv-x="764" 
d="M347 -10q-87 0 -148 34t-93 99.5t-32 158.5q0 21 1.5 44t4.5 46q18 122 67.5 206.5t126.5 129t173 44.5q86 0 147 -35t93 -101t32 -162q0 -20 -1.5 -42.5t-4.5 -46.5q-17 -120 -66.5 -204t-125.5 -127.5t-174 -43.5v0zM352 63q109 0 174.5 76t87.5 234q4 27 5.5 52
t1.5 47q0 105 -44 156t-132 51q-108 0 -175.5 -77.5t-90.5 -237.5q-4 -26 -5.5 -50t-1.5 -45q0 -104 45 -155t135 -51v0zM665 801q8 0 9.5 -4.5t-0.5 -11.5q-9 -24 -28.5 -46.5t-49.5 -37t-71 -14.5l5 54q32 0 50.5 17t27.5 37q3 5 6.5 5.5t7.5 0.5h43v0z" />
    <glyph glyph-name="ohorn" unicode="&#x1a1;" 
d="M264 -10q-68 0 -118 28t-76.5 79.5t-26.5 118.5q0 70 23 129.5t63 103t93.5 67.5t112.5 24q69 0 118 -29t75.5 -81t26.5 -121q0 -92 -39 -164.5t-105 -113.5t-147 -41v0zM267 53q58 0 104 33t72.5 93t26.5 143q0 73 -35.5 114.5t-101.5 41.5q-56 0 -103 -33.5t-74.5 -94
t-27.5 -142.5q0 -72 36.5 -113.5t102.5 -41.5v0zM535 589q8 0 9.5 -4.5t-0.5 -11.5q-9 -24 -28.5 -46.5t-49.5 -37t-71 -14.5l5 54q32 0 50.5 17t27.5 37q3 5 6.5 5.5t7.5 0.5h43v0z" />
    <glyph glyph-name="Uhorn" unicode="&#x1af;" horiz-adv-x="709" 
d="M619 245q-13 -90 -51 -146.5t-100.5 -82.5t-148.5 -26q-122 0 -179.5 52t-57.5 155q0 16 1.5 33.5t4.5 35.5l65 464q1 7 3.5 9.5t7.5 2.5h72q7 0 10.5 -4t1.5 -11l-68 -486q-1 -12 -2.5 -22.5t-1.5 -21.5q0 -68 38.5 -100.5t114.5 -32.5q60 0 103.5 20t70.5 61t36 104
l68 483q1 6 3 8t7 2h59q6 0 8.5 -4t2.5 -11l-68 -482v0zM788 801q8 0 9.5 -4.5t-0.5 -11.5q-9 -24 -28.5 -46.5t-49.5 -37t-71 -14.5l5 54q32 0 50.5 17t27.5 37q3 5 6.5 5.5t7.5 0.5h43v0z" />
    <glyph glyph-name="uhorn" unicode="&#x1b0;" horiz-adv-x="579" 
d="M195 -10q-64 0 -103.5 35.5t-39.5 95.5v11.5t1 12.5l53 372q1 8 4 10.5t10 2.5h56q8 0 11.5 -4.5t1.5 -11.5l-49 -351q-1 -6 -1.5 -12t-0.5 -10q0 -45 22.5 -65t63.5 -20q45 0 88 24.5t88 64.5l53 373q2 8 5 10t11 2h55q8 0 11.5 -4.5t2.5 -11.5l-72 -504q-1 -5 -3 -7.5
t-8 -2.5h-58q-6 0 -9 2.5t-2 8.5l8 56q1 6 -1.5 7t-8.5 -4q-61 -47 -105 -63.5t-84 -16.5v0zM633 589q8 0 9.5 -4.5t-0.5 -11.5q-9 -24 -28.5 -46.5t-49.5 -37t-71 -14.5l5 54q32 0 50.5 17t27.5 37q3 5 6.5 5.5t7.5 0.5h43v0z" />
    <glyph glyph-name="DZcaron" unicode="&#x1c4;" horiz-adv-x="1333" 
d="M76 0q-7 0 -11 5t-3 13l100 714q2 6 5 8t10 2h151q120 0 197.5 -33.5t115.5 -97t38 -156.5q0 -144 -51 -245.5t-151 -155.5t-249 -54h-152v0zM234 72q123 0 199 45.5t111 132t35 209.5q0 78 -28.5 124t-85 66t-142.5 20h-62q-12 0 -14 -13l-78 -569q-1 -8 1.5 -11.5
t9.5 -3.5h54zM727 0q-7 0 -10.5 3t-2.5 10l3 25q1 7 3.5 12.5t8.5 13.5l475 596q3 5 2.5 6.5t-5.5 1.5h-366q-13 0 -11 14l7 52q1 5 2.5 6.5t6.5 1.5h501q10 0 9 -11l-4 -28q-1 -6 -2.5 -9.5t-6.5 -9.5l-481 -602q-7 -7 1 -7h389q5 0 7.5 -2t1.5 -7l-8 -57q-1 -5 -3 -7
t-8 -2h-509v0zM1184 949q6 4 10 4.5t9 0.5h59q7 0 8 -4t-6 -10l-115 -93q-3 -3 -7.5 -5t-12.5 -2h-39q-9 0 -13.5 3.5t-8.5 8.5l-91 92q-4 5 -4.5 7.5t5.5 2.5h54q6 0 9.5 -2t7.5 -7l51 -49q8 -9 11 -6.5t12 10.5l61 49v0z" />
    <glyph glyph-name="Dzcaron" unicode="&#x1c5;" horiz-adv-x="1203" 
d="M76 0q-7 0 -11 5t-3 13l100 714q2 6 5 8t10 2h151q120 0 197.5 -33.5t115.5 -97t38 -156.5q0 -144 -51 -245.5t-151 -155.5t-249 -54h-152v0zM234 72q123 0 199 45.5t111 132t35 209.5q0 78 -28.5 124t-85 66t-142.5 20h-62q-12 0 -14 -13l-78 -569q-1 -8 1.5 -11.5
t9.5 -3.5h54zM728 0q-7 0 -9 2.5t-1 9.5l4 27q1 8 5 13.5t12 15.5l346 391q5 5 4 8.5t-9 3.5h-267q-6 0 -7.5 3t-0.5 10l6 37q1 5 4.5 7t7.5 2h371q7 0 7 -9l-5 -31q-1 -7 -4.5 -13t-10.5 -13l-347 -392q-5 -5 -3.5 -9t6.5 -4h294q11 0 9 -9l-6 -38q-1 -6 -3 -9t-9 -3h-394
v0zM1104 737q6 4 10 4.5t9 0.5h59q7 0 8 -4t-6 -10l-115 -93q-3 -3 -7.5 -5t-12.5 -2h-39q-9 0 -13.5 3.5t-8.5 8.5l-91 92q-4 5 -4.5 7.5t5.5 2.5h54q6 0 9.5 -2t7.5 -7l51 -49q8 -9 11 -6.5t12 10.5l61 49v0z" />
    <glyph glyph-name="dzcaron" unicode="&#x1c6;" horiz-adv-x="1080" 
d="M419 0q-7 0 -11.5 3.5t-2.5 10.5l6 43q2 8 -1 8t-11 -7q-12 -10 -34.5 -26.5t-54.5 -29t-75 -12.5q-84 0 -138 53.5t-54 157.5q0 61 18 121t53 109.5t86 79t117 29.5q51 0 81.5 -17.5t51.5 -38.5q8 -8 13 -5.5t7 17.5l33 235q2 6 4.5 8.5t8.5 2.5h61q11 0 10 -15
l-101 -713q-1 -9 -4.5 -11.5t-12.5 -2.5h-50zM460 415q-26 31 -56 47t-69 16q-51 0 -90 -25t-65 -66t-39 -89.5t-13 -94.5q0 -53 18 -87t48.5 -49.5t68.5 -15.5q41 0 76.5 19.5t58.5 48t27 55.5zM605 0q-7 0 -9 2.5t-1 9.5l4 27q1 8 5 13.5t12 15.5l346 391q5 5 4 8.5
t-9 3.5h-267q-6 0 -7.5 3t-0.5 10l6 37q1 5 4.5 7t7.5 2h371q7 0 7 -9l-5 -31q-1 -7 -4.5 -13t-10.5 -13l-347 -392q-5 -5 -3.5 -9t6.5 -4h294q11 0 9 -9l-6 -38q-1 -6 -3 -9t-9 -3h-394v0zM981 737q6 4 10 4.5t9 0.5h59q7 0 8 -4t-6 -10l-115 -93q-3 -3 -7.5 -5t-12.5 -2
h-39q-9 0 -13.5 3.5t-8.5 8.5l-91 92q-4 5 -4.5 7.5t5.5 2.5h54q6 0 9.5 -2t7.5 -7l51 -49q8 -9 11 -6.5t12 10.5l61 49v0z" />
    <glyph glyph-name="LJ" unicode="&#x1c7;" horiz-adv-x="1020" 
d="M162 730q2 12 13 12h75q10 0 7 -15l-89 -642q-3 -11 7 -11h347q11 0 10 -13l-7 -52q-1 -6 -3 -7.5t-8 -1.5h-439q-16 0 -13 17l100 713v0zM913 160q-8 -56 -29.5 -94t-59 -57t-93.5 -19q-40 0 -68.5 9t-41.5 13q-8 3 -11 6t-1 9l18 57q2 5 5 6.5t10 -1.5q12 -5 31 -10.5
t45 -5.5q47 0 70 26.5t33 88.5l76 544q1 6 3 8t8 2h75q11 0 8 -15l-78 -567v0z" />
    <glyph glyph-name="Lj" unicode="&#x1c8;" horiz-adv-x="841" 
d="M162 730q2 12 13 12h75q10 0 7 -15l-89 -642q-3 -11 7 -11h347q11 0 10 -13l-7 -52q-1 -6 -3 -7.5t-8 -1.5h-439q-16 0 -13 17l100 713v0zM722 -31q-10 -72 -44 -105.5t-111 -33.5q-45 0 -57 3.5t-11 12.5l6 43q1 4 3 6.5t6 3.5l52 2q32 2 49.5 19t23.5 59l76 540
q2 6 4 8.5t8 2.5h61q6 0 9 -4.5t2 -10.5l-77 -546v0zM820 642q-2 -9 -5 -13t-14 -4h-61q-8 0 -10.5 5.5t-0.5 13.5l12 83q2 15 15 15h65q5 0 8.5 -5t1.5 -13z" />
    <glyph glyph-name="lj" unicode="&#x1c9;" horiz-adv-x="478" 
d="M126 14q-1 -9 -4 -11.5t-13 -2.5h-52q-9 0 -12.5 4.5t-2.5 12.5l102 714q1 7 3 9t8 2h62q12 0 9 -14zM359 -31q-10 -72 -44 -105.5t-111 -33.5q-45 0 -57 3.5t-11 12.5l6 43q1 4 3 6.5t6 3.5l52 2q32 2 49.5 19t23.5 59l76 540q2 6 4 8.5t8 2.5h61q6 0 9 -4.5t2 -10.5
l-77 -546v0zM457 642q-2 -9 -5 -13t-14 -4h-61q-8 0 -10.5 5.5t-0.5 13.5l12 83q2 15 15 15h65q5 0 8.5 -5t1.5 -13z" />
    <glyph glyph-name="NJ" unicode="&#x1ca;" horiz-adv-x="1174" 
d="M716 742q10 0 9 -12l-101 -720q-1 -10 -12 -10h-49q-6 0 -11 2t-9 9l-308 560q-4 7 -8 6t-5 -10l-78 -556q-1 -6 -3.5 -8.5t-10.5 -2.5h-58q-6 0 -9 4t-2 11l102 716q1 7 3 9t9 2h58q7 0 11 -2.5t7 -9.5l299 -548q5 -8 10.5 -7t6.5 11l76 546q2 6 4 8t8 2h61zM1068 160
q-8 -56 -29.5 -94t-59 -57t-93.5 -19q-40 0 -68.5 9t-41.5 13q-8 3 -11 6t-1 9l18 57q2 5 5 6.5t10 -1.5q12 -5 31 -10.5t45 -5.5q47 0 70 26.5t33 88.5l76 544q1 6 3 8t8 2h75q11 0 8 -15l-78 -567v0z" />
    <glyph glyph-name="Nj" unicode="&#x1cb;" horiz-adv-x="995" 
d="M716 742q10 0 9 -12l-101 -720q-1 -10 -12 -10h-49q-6 0 -11 2t-9 9l-308 560q-4 7 -8 6t-5 -10l-78 -556q-1 -6 -3.5 -8.5t-10.5 -2.5h-58q-6 0 -9 4t-2 11l102 716q1 7 3 9t9 2h58q7 0 11 -2.5t7 -9.5l299 -548q5 -8 10.5 -7t6.5 11l76 546q2 6 4 8t8 2h61zM877 -31
q-10 -72 -44 -105.5t-111 -33.5q-45 0 -57 3.5t-11 12.5l6 43q1 4 3 6.5t6 3.5l52 2q32 2 49.5 19t23.5 59l76 540q2 6 4 8.5t8 2.5h61q6 0 9 -4.5t2 -10.5l-77 -546v0zM975 642q-2 -9 -5 -13t-14 -4h-61q-8 0 -10.5 5.5t-0.5 13.5l12 83q2 15 15 15h65q5 0 8.5 -5t1.5 -13z
" />
    <glyph glyph-name="nj" unicode="&#x1cc;" horiz-adv-x="822" 
d="M53 0q-6 0 -9 4.5t-2 11.5l71 504q1 6 3 8t7 2h63q5 0 7.5 -2t0.5 -9l-8 -57q-1 -11 8 -3q48 38 95.5 59.5t98.5 21.5q70 0 107 -35t37 -92q0 -6 -0.5 -12.5t-1.5 -14.5l-53 -373q-1 -8 -4 -10.5t-11 -2.5h-58q-6 0 -9 4.5t-1 11.5l50 355q1 7 1.5 13.5t0.5 11.5
q0 38 -21 58t-67 20q-31 0 -58 -9.5t-55.5 -28t-64.5 -45.5l-54 -379q-1 -7 -4 -9.5t-12 -2.5h-57v0zM704 -31q-10 -72 -44 -105.5t-111 -33.5q-45 0 -57 3.5t-11 12.5l6 43q1 4 3 6.5t6 3.5l52 2q32 2 49.5 19t23.5 59l76 540q2 6 4 8.5t8 2.5h61q6 0 9 -4.5t2 -10.5
l-77 -546v0zM802 642q-2 -9 -5 -13t-14 -4h-61q-8 0 -10.5 5.5t-0.5 13.5l12 83q2 15 15 15h65q5 0 8.5 -5t1.5 -13z" />
    <glyph glyph-name="uni01EA" unicode="&#x1ea;" horiz-adv-x="764" 
d="M347 -10q-87 0 -148 34t-93 99.5t-32 158.5q0 21 1.5 44t4.5 46q18 122 67.5 206.5t126.5 129t173 44.5q86 0 147 -35t93 -101t32 -162q0 -20 -1.5 -42.5t-4.5 -46.5q-17 -120 -66.5 -204t-125.5 -127.5t-174 -43.5v0zM352 63q109 0 174.5 76t87.5 234q4 27 5.5 52
t1.5 47q0 105 -44 156t-132 51q-108 0 -175.5 -77.5t-90.5 -237.5q-4 -26 -5.5 -50t-1.5 -45q0 -104 45 -155t135 -51v0zM252 -87q2 20 13.5 36.5t36.5 31.5t68 27l62 -8q-54 -22 -80.5 -42t-29.5 -47q-3 -18 7 -27t35 -9q22 0 39.5 5.5t25.5 9.5q7 2 10 0t1 -8l-4 -29
q-1 -4 -3 -7t-5 -5q-13 -4 -36 -8.5t-49 -4.5q-51 0 -73.5 23.5t-17.5 61.5v0z" />
    <glyph glyph-name="uni01EB" unicode="&#x1eb;" 
d="M264 -10q-68 0 -118 28t-76.5 79.5t-26.5 118.5q0 70 23 129.5t63 103t93.5 67.5t112.5 24q69 0 118 -29t75.5 -81t26.5 -121q0 -92 -39 -164.5t-105 -113.5t-147 -41v0zM267 53q58 0 104 33t72.5 93t26.5 143q0 73 -35.5 114.5t-101.5 41.5q-56 0 -103 -33.5t-74.5 -94
t-27.5 -142.5q0 -72 36.5 -113.5t102.5 -41.5v0zM159 -86q2 20 13.5 36.5t36.5 31.5t68 27l62 -8q-54 -22 -80.5 -42t-29.5 -47q-3 -18 7 -27t35 -9q22 0 39.5 5.5t25.5 9.5q7 2 10 0t1 -8l-4 -29q-1 -4 -3 -7t-5 -5q-13 -4 -36 -8.5t-49 -4.5q-51 0 -73.5 23.5t-17.5 61.5
v0z" />
    <glyph glyph-name="DZ" unicode="&#x1f1;" horiz-adv-x="1272" 
d="M76 0q-7 0 -11 5t-3 13l100 714q2 6 5 8t10 2h151q120 0 197.5 -33.5t115.5 -97t38 -156.5q0 -144 -51 -245.5t-151 -155.5t-249 -54h-152v0zM234 72q123 0 199 45.5t111 132t35 209.5q0 78 -28.5 124t-85 66t-142.5 20h-62q-12 0 -14 -13l-78 -569q-1 -8 1.5 -11.5
t9.5 -3.5h54zM666 0q-7 0 -10.5 3t-2.5 10l3 25q1 7 3.5 12.5t8.5 13.5l475 596q3 5 2.5 6.5t-5.5 1.5h-366q-13 0 -11 14l7 52q1 5 2.5 6.5t6.5 1.5h501q10 0 9 -11l-4 -28q-1 -6 -2.5 -9.5t-6.5 -9.5l-481 -602q-7 -7 1 -7h389q5 0 7.5 -2t1.5 -7l-8 -57q-1 -5 -3 -7
t-8 -2h-509v0z" />
    <glyph glyph-name="Dz" unicode="&#x1f2;" horiz-adv-x="1123" 
d="M76 0q-7 0 -11 5t-3 13l100 714q2 6 5 8t10 2h151q120 0 197.5 -33.5t115.5 -97t38 -156.5q0 -144 -51 -245.5t-151 -155.5t-249 -54h-152v0zM234 72q123 0 199 45.5t111 132t35 209.5q0 78 -28.5 124t-85 66t-142.5 20h-62q-12 0 -14 -13l-78 -569q-1 -8 1.5 -11.5
t9.5 -3.5h54zM647 0q-7 0 -9 2.5t-1 9.5l4 27q1 8 5 13.5t12 15.5l346 391q5 5 4 8.5t-9 3.5h-267q-6 0 -7.5 3t-0.5 10l6 37q1 5 4.5 7t7.5 2h371q7 0 7 -9l-5 -31q-1 -7 -4.5 -13t-10.5 -13l-347 -392q-5 -5 -3.5 -9t6.5 -4h294q11 0 9 -9l-6 -38q-1 -6 -3 -9t-9 -3h-394
v0z" />
    <glyph glyph-name="dz" unicode="&#x1f3;" horiz-adv-x="1080" 
d="M419 0q-7 0 -11.5 3.5t-2.5 10.5l6 43q2 8 -1 8t-11 -7q-12 -10 -34.5 -26.5t-54.5 -29t-75 -12.5q-84 0 -138 53.5t-54 157.5q0 61 18 121t53 109.5t86 79t117 29.5q51 0 81.5 -17.5t51.5 -38.5q8 -8 13 -5.5t7 17.5l33 235q2 6 4.5 8.5t8.5 2.5h61q11 0 10 -15
l-101 -713q-1 -9 -4.5 -11.5t-12.5 -2.5h-50zM460 415q-26 31 -56 47t-69 16q-51 0 -90 -25t-65 -66t-39 -89.5t-13 -94.5q0 -53 18 -87t48.5 -49.5t68.5 -15.5q41 0 76.5 19.5t58.5 48t27 55.5zM605 0q-7 0 -9 2.5t-1 9.5l4 27q1 8 5 13.5t12 15.5l346 391q5 5 4 8.5
t-9 3.5h-267q-6 0 -7.5 3t-0.5 10l6 37q1 5 4.5 7t7.5 2h371q7 0 7 -9l-5 -31q-1 -7 -4.5 -13t-10.5 -13l-347 -392q-5 -5 -3.5 -9t6.5 -4h294q11 0 9 -9l-6 -38q-1 -6 -3 -9t-9 -3h-394v0z" />
    <glyph glyph-name="Gacute" unicode="&#x1f4;" horiz-adv-x="739" 
d="M340 -10q-85 0 -144.5 35.5t-90.5 101.5t-31 158q0 93 24.5 177t72 149.5t116 103t157.5 37.5q70 0 125.5 -29t88 -75.5t32.5 -100.5q0 -11 -6 -12l-76 -12q-4 -1 -5.5 3t-2.5 13q-3 39 -22.5 70.5t-54.5 50.5t-83 19q-70 0 -120 -34.5t-83 -92.5t-48.5 -130t-15.5 -147
q0 -107 44.5 -159.5t130.5 -52.5q50 0 88.5 17.5t67 44.5t46 59t24.5 62l9 59q3 9 -9 9h-164q-9 0 -8 10l6 46q1 7 7 7l255 -1q6 0 8.5 -2.5t1.5 -7.5l-50 -355q-1 -11 -14 -11h-22q-13 0 -14 12l2 93q0 6 -3.5 5.5t-8.5 -6.5q-21 -30 -53.5 -56.5t-77 -42t-99.5 -15.5v0z
M598 910q2 -6 0.5 -9.5t-10.5 -6.5l-239 -71q-6 -2 -10 1t-5 9l-5 22q-2 11 3 13l245 95q3 1 7 -0.5t5 -7.5z" />
    <glyph glyph-name="gacute" unicode="&#x1f5;" horiz-adv-x="602" 
d="M215 -175q-114 0 -174.5 34.5t-60.5 92.5q0 42 29.5 74t75.5 52q8 3 10 6.5t-5 6.5q-18 11 -26.5 23t-8.5 29q0 21 13.5 37t33.5 27.5t39 18.5q8 2 10.5 6.5t-4.5 6.5q-34 18 -51.5 45t-17.5 64q0 47 19.5 82.5t52.5 59.5t75 36t88 12q64 0 100.5 -14.5t55.5 -33.5
q5 -4 11.5 -1.5t11.5 8.5q14 11 30 20.5t34.5 15.5t33.5 6q12 0 17 -3.5t3 -12.5l-4 -34q-2 -10 -5.5 -14t-12.5 -4q-19 -1 -32 -3.5t-24 -6.5q-31 -11 -26 -25q3 -8 6 -19.5t3 -28.5q0 -47 -20 -81t-54 -55.5t-76 -32t-86 -10.5q-10 0 -33 -1.5t-48.5 -6t-43.5 -14
t-18 -25.5q0 -14 20 -20t65 -9l127 -7q80 -5 117.5 -37t37.5 -89q0 -40 -16.5 -69.5t-45 -49.5t-65 -32.5t-78 -18t-83.5 -5.5v0zM218 -123q38 0 75 5.5t66 18t46.5 35t17.5 55.5q0 31 -19.5 46t-69.5 18l-163 10q-30 -7 -56 -20.5t-42 -34t-16 -48.5q0 -45 42.5 -65
t118.5 -20v0zM281 262q42 0 77.5 13.5t57.5 43t22 76.5q0 43 -31 66.5t-93 23.5q-41 0 -77.5 -15.5t-59 -45.5t-22.5 -76q0 -41 33.5 -63.5t92.5 -22.5v0zM481 698q2 -6 0.5 -9.5t-10.5 -6.5l-239 -71q-6 -2 -10 1t-5 9l-5 22q-2 11 3 13l245 95q3 1 7 -0.5t5 -7.5z" />
    <glyph glyph-name="Aringacute" unicode="&#x1fa;" horiz-adv-x="657" 
d="M507 796q-6 -42 -38.5 -69t-74.5 -27q-44 0 -70.5 30.5t-20.5 76.5q5 39 38.5 66t73.5 27q45 0 71.5 -30t20.5 -74v0zM460 804q3 23 -9.5 37t-34.5 14q-24 0 -44.5 -17t-24.5 -43q-3 -20 11 -36t34 -16q26 0 45 18.5t23 42.5v0zM434 742q9 0 14.5 -5t5.5 -12l142 -710
q1 -6 -1 -10.5t-9 -4.5h-73q-6 0 -10 3.5t-4 9.5l-39 193q-1 4 -2 5t-7 1h-270q-4 0 -7.5 -3t-5.5 -7l-94 -195q-3 -4 -5.5 -5.5t-8.5 -1.5h-58q-6 0 -9.5 6t-0.5 13l345 711q3 7 6.5 9.5t12.5 2.5h78zM381 633q-1 8 -5 6t-8 -12l-160 -330q-3 -6 -3 -7.5t6 -1.5h223
q6 0 9.5 4.5t2.5 10.5zM473 964q9 0 12 -6.5t-1 -15.5l-39 -67h-52l27 73q4 10 9 13t15 3h29z" />
    <glyph glyph-name="aringacute" unicode="&#x1fb;" horiz-adv-x="548" 
d="M358 62q-41 -37 -87.5 -54.5t-98.5 -17.5q-72 0 -112 34.5t-40 91.5q0 53 25.5 89.5t67.5 60t93.5 35t101.5 14.5l79 6q19 2 21 17l4 27q1 6 1.5 11t0.5 11q0 44 -28.5 68.5t-78.5 24.5q-44 0 -83.5 -20t-73.5 -62q-3 -4 -5.5 -4.5t-8.5 1.5l-51 18q-4 2 -5.5 6t3.5 14
q36 49 94.5 78t135.5 29q61 0 101.5 -17.5t60.5 -49.5t20 -76q0 -7 -0.5 -14.5t-1.5 -15.5l-49 -355q-2 -8 -4 -10t-10 -2h-50q-7 0 -10 4.5t-3 11.5l5 48q-1 13 -14 -2v0zM396 257q2 8 -0.5 11t-9.5 2l-69 -6q-30 -2 -66.5 -9t-69.5 -21.5t-54.5 -40t-21.5 -65.5
q0 -35 26 -55.5t72 -20.5q34 0 65.5 12t56.5 30q26 19 42 39.5t18 39.5zM459 904q2 -6 0.5 -9.5t-10.5 -6.5l-239 -71q-6 -2 -10 1t-5 9l-5 22q-2 11 3 13l245 95q3 1 7 -0.5t5 -7.5zM419 681q-6 -43 -39.5 -71.5t-75.5 -28.5q-30 0 -53 14.5t-33.5 40t-6.5 56.5q5 41 39 69
t75 28q31 0 53.5 -14.5t33.5 -39t7 -54.5v0zM369 689q4 24 -9 38t-35 14q-24 0 -44 -17t-24 -44q-3 -20 11 -35.5t34 -15.5q25 0 44.5 18.5t22.5 41.5v0z" />
    <glyph glyph-name="AEacute" unicode="&#x1fc;" horiz-adv-x="1008" 
d="M920 74q7 0 10 -3t2 -10l-7 -52q-1 -6 -2.5 -7.5t-8.5 -1.5h-437q-8 0 -11.5 4.5t-2.5 12.5l27 190q1 3 0 4t-5 1h-239q-5 0 -9 -3t-6 -7l-137 -195q-6 -7 -17 -7h-60q-5 0 -8.5 6t1.5 13l499 711q5 7 9 9.5t13 2.5h472q5 0 8 -4t2 -9l-8 -51q-1 -6 -3 -8t-9 -2h-328
q-7 0 -11 -3.5t-6 -10.5l-32 -235q-1 -5 0.5 -6.5t7.5 -1.5h244q6 0 9.5 -3.5t1.5 -9.5l-7 -53q-1 -5 -2 -6t-8 -1h-245q-5 0 -9.5 -3.5t-5.5 -9.5l-33 -243q-1 -6 -0.5 -7t6.5 -1h345v0zM489 288q6 0 10 4.5t4 9.5l48 339q2 14 -4.5 12t-16.5 -17l-241 -339
q-5 -6 -5.5 -7.5t4.5 -1.5h201v0zM913 910q2 -6 0.5 -9.5t-10.5 -6.5l-239 -71q-6 -2 -10 1t-5 9l-5 22q-2 11 3 13l245 95q3 1 7 -0.5t5 -7.5z" />
    <glyph glyph-name="aeacute" unicode="&#x1fd;" horiz-adv-x="925" 
d="M495 246q-11 0 -16 -5.5t-7 -21.5q-6 -41 11 -79t52.5 -62t82.5 -24q44 0 74.5 12.5t54 33t42.5 40.5q5 4 7 2.5t7 -3.5l38 -21q3 -2 5 -6t-2 -11q-27 -36 -63.5 -60.5t-80 -37.5t-93.5 -13q-56 0 -93.5 18t-60.5 44t-38 49q-1 2 -3.5 -1t-4.5 -6q-24 -23 -56.5 -47.5
t-76 -40.5t-103.5 -16q-81 0 -120.5 41.5t-29.5 110.5q11 75 78 119t197 53l88 7q9 1 15.5 5.5t7.5 11.5l4 27q8 54 -19.5 84.5t-88.5 30.5q-43 0 -81.5 -21t-73.5 -63q-4 -5 -6.5 -4t-8.5 3l-49 18q-4 2 -4.5 7.5t2.5 12.5q25 34 59 58t76.5 36.5t93.5 12.5q74 0 114.5 -25
t50.5 -72q38 49 90 73t113 24q72 0 122.5 -32.5t72.5 -94t10 -149.5q-1 -9 -4 -13t-15 -4l-370 -1v0zM677 480q-46 0 -87 -22t-69 -62.5t-36 -95.5l301 2q12 0 16.5 4.5t5.5 14.5q6 43 -8 79t-45.5 58t-77.5 22v0zM395 254q2 8 0 10.5t-12 2.5l-73 -6q-61 -4 -105 -20
t-69 -41.5t-30 -61.5q-6 -40 19 -64.5t78 -22.5q45 2 84.5 19t66 44.5t30.5 60.5l11 79v0zM644 698q2 -6 0.5 -9.5t-10.5 -6.5l-239 -71q-6 -2 -10 1t-5 9l-5 22q-2 11 3 13l245 95q3 1 7 -0.5t5 -7.5z" />
    <glyph glyph-name="Oslashacute" unicode="&#x1fe;" horiz-adv-x="729" 
d="M771 714q3 -3 4.5 -7t-3.5 -9l-98 -92q20 -45 26 -106t-5 -135q-16 -120 -65.5 -204t-126 -127.5t-173.5 -43.5q-71 0 -123.5 22.5t-86.5 65.5l-80 -80q-8 -7 -13.5 -5.5t-11.5 7.5l-21 23q-5 6 -7 10.5t4 10.5l94 88q-20 46 -26.5 106t4.5 134q17 122 67 206.5t127 129
t173 44.5q70 0 123 -23.5t87 -67.5l85 84q4 5 8.5 4.5t8.5 -4.5l29 -31v0zM164 364q-7 -48 -6 -87.5t10 -71.5l407 398q-20 39 -57.5 57t-90.5 18q-108 0 -174 -77t-89 -237v0zM595 373q6 48 5.5 88.5t-9.5 72.5l-407 -398q22 -37 60 -54.5t90 -17.5q110 0 174 75.5
t87 233.5v0zM587 910q2 -6 0.5 -9.5t-10.5 -6.5l-239 -71q-6 -2 -10 1t-5 9l-5 22q-2 11 3 13l245 95q3 1 7 -0.5t5 -7.5z" />
    <glyph glyph-name="oslashacute" unicode="&#x1ff;" horiz-adv-x="583" 
d="M28 4q-7 -6 -13 -4t-10 8l-11 14q-6 7 -7 12.5t6 11.5l562 479q6 6 11 4.5t9 -7.5l16 -19q3 -4 4.5 -8.5t-4.5 -8.5zM254 -10q-68 0 -118 28t-76.5 79.5t-26.5 118.5q0 70 23 129.5t63 103t93.5 67.5t112.5 24q69 0 118 -29t75.5 -81t26.5 -121q0 -92 -39 -164.5
t-104.5 -113.5t-147.5 -41v0zM257 53q58 0 104 33t72.5 93t26.5 143q0 73 -35.5 114.5t-101.5 41.5q-56 0 -103 -33.5t-74.5 -94t-27.5 -142.5q0 -72 36.5 -113.5t102.5 -41.5v0zM483 698q2 -6 0.5 -9.5t-10.5 -6.5l-239 -71q-6 -2 -10 1t-5 9l-5 22q-2 11 3 13l245 95
q3 1 7 -0.5t5 -7.5z" />
    <glyph glyph-name="uni0200" unicode="&#x200;" horiz-adv-x="727" 
d="M16 0q-6 0 -8 5t2 14l360 711q4 7 9 9.5t13 2.5h78q10 0 14 -5t5 -12l157 -710q1 -6 -1 -10.5t-9 -4.5h-71q-13 0 -14 13l-43 192q-1 7 -10 7h-291q-9 0 -13 -9l-100 -196q-1 -4 -4 -5.5t-10 -1.5h-64v0zM483 288q12 0 9 13l-74 329q-2 10 -6 9.5t-9 -11.5l-167 -327
q-3 -8 -2.5 -10.5t5.5 -2.5h244zM281 959q3 3 8 2.5t7 -3.5l105 -131q2 -2 3 -6t-2 -8l-19 -19q-4 -4 -8 -2.5t-9 5.5l-114 109q-14 10 -5 19l34 34v0zM443 959q3 3 8 2.5t7 -3.5l104 -131q3 -2 4 -6t-3 -8l-18 -19q-4 -4 -8 -2.5t-9 5.5l-114 109q-14 11 -5 20l34 33v0z
" />
    <glyph glyph-name="uni0201" unicode="&#x201;" horiz-adv-x="548" 
d="M358 62q-41 -37 -87.5 -54.5t-98.5 -17.5q-72 0 -112 34.5t-40 91.5q0 53 25.5 89.5t67.5 60t93.5 35t101.5 14.5l79 6q19 2 21 17l4 27q1 6 1.5 11t0.5 11q0 44 -28.5 68.5t-78.5 24.5q-44 0 -83.5 -20t-73.5 -62q-3 -4 -5.5 -4.5t-8.5 1.5l-51 18q-4 2 -5.5 6t3.5 14
q36 49 94.5 78t135.5 29q61 0 101.5 -17.5t60.5 -49.5t20 -76q0 -7 -0.5 -14.5t-1.5 -15.5l-49 -355q-2 -8 -4 -10t-10 -2h-50q-7 0 -10 4.5t-3 11.5l5 48q-1 13 -14 -2v0zM396 257q2 8 -0.5 11t-9.5 2l-69 -6q-30 -2 -66.5 -9t-69.5 -21.5t-54.5 -40t-21.5 -65.5
q0 -35 26 -55.5t72 -20.5q34 0 65.5 12t56.5 30q26 19 42 39.5t18 39.5zM164 747q3 3 8 2.5t7 -3.5l105 -131q2 -2 3 -6t-2 -8l-19 -19q-4 -4 -8 -2.5t-9 5.5l-114 109q-14 10 -5 19l34 34v0zM326 747q3 3 8 2.5t7 -3.5l104 -131q3 -2 4 -6t-3 -8l-18 -19q-4 -4 -8 -2.5
t-9 5.5l-114 109q-14 11 -5 20l34 33v0z" />
    <glyph glyph-name="uni0202" unicode="&#x202;" horiz-adv-x="727" 
d="M16 0q-6 0 -8 5t2 14l360 711q4 7 9 9.5t13 2.5h78q10 0 14 -5t5 -12l157 -710q1 -6 -1 -10.5t-9 -4.5h-71q-13 0 -14 13l-43 192q-1 7 -10 7h-291q-9 0 -13 -9l-100 -196q-1 -4 -4 -5.5t-10 -1.5h-64v0zM483 288q12 0 9 13l-74 329q-2 10 -6 9.5t-9 -11.5l-167 -327
q-3 -8 -2.5 -10.5t5.5 -2.5h244zM298 846q-7 0 -9 5t1 12q11 23 32 43.5t52 34t71 13.5q41 0 70.5 -13t46.5 -34.5t21 -48.5q1 -5 -1 -8.5t-9 -3.5h-45q-6 0 -8.5 4t-6.5 9q-5 8 -12.5 17.5t-20.5 16.5t-35 7q-32 0 -54.5 -15t-35.5 -32q-3 -5 -6.5 -6t-7.5 -1h-43v0z" />
    <glyph glyph-name="uni0203" unicode="&#x203;" horiz-adv-x="548" 
d="M358 62q-41 -37 -87.5 -54.5t-98.5 -17.5q-72 0 -112 34.5t-40 91.5q0 53 25.5 89.5t67.5 60t93.5 35t101.5 14.5l79 6q19 2 21 17l4 27q1 6 1.5 11t0.5 11q0 44 -28.5 68.5t-78.5 24.5q-44 0 -83.5 -20t-73.5 -62q-3 -4 -5.5 -4.5t-8.5 1.5l-51 18q-4 2 -5.5 6t3.5 14
q36 49 94.5 78t135.5 29q61 0 101.5 -17.5t60.5 -49.5t20 -76q0 -7 -0.5 -14.5t-1.5 -15.5l-49 -355q-2 -8 -4 -10t-10 -2h-50q-7 0 -10 4.5t-3 11.5l5 48q-1 13 -14 -2v0zM396 257q2 8 -0.5 11t-9.5 2l-69 -6q-30 -2 -66.5 -9t-69.5 -21.5t-54.5 -40t-21.5 -65.5
q0 -35 26 -55.5t72 -20.5q34 0 65.5 12t56.5 30q26 19 42 39.5t18 39.5zM181 634q-7 0 -9 5t1 12q11 23 32 43.5t52 34t71 13.5q41 0 70.5 -13t46.5 -34.5t21 -48.5q1 -5 -1 -8.5t-9 -3.5h-45q-6 0 -8.5 4t-6.5 9q-5 8 -12.5 17.5t-20.5 16.5t-35 7q-32 0 -54.5 -15
t-35.5 -32q-3 -5 -6.5 -6t-7.5 -1h-43v0z" />
    <glyph glyph-name="uni0204" unicode="&#x204;" horiz-adv-x="628" 
d="M163 731q1 7 3 9t8 2h452q10 0 7 -13l-7 -50q-1 -6 -3.5 -8.5t-10.5 -2.5h-352q-6 0 -8.5 -2t-3.5 -9l-34 -238q-1 -4 1 -6t7 -2h264q5 0 6.5 -2.5t0.5 -8.5l-8 -54q-1 -8 -11 -8h-262q-9 0 -11 -12l-34 -243q-1 -9 7 -9h369q7 0 9 -2t1 -9l-7 -54q-1 -6 -3 -7.5t-8 -1.5
h-460q-15 0 -13 17l101 714v0zM262 959q3 3 8 2.5t7 -3.5l105 -131q2 -2 3 -6t-2 -8l-19 -19q-4 -4 -8 -2.5t-9 5.5l-114 109q-14 10 -5 19l34 34v0zM424 959q3 3 8 2.5t7 -3.5l104 -131q3 -2 4 -6t-3 -8l-18 -19q-4 -4 -8 -2.5t-9 5.5l-114 109q-14 11 -5 20l34 33v0z" />
    <glyph glyph-name="uni0205" unicode="&#x205;" horiz-adv-x="581" 
d="M265 -10q-67 0 -117.5 28t-77.5 78.5t-27 118.5q0 62 20 120t58 104t92 73.5t121 27.5q65 0 112 -25.5t72.5 -74.5t25.5 -118q0 -14 -1 -28.5t-3 -29.5q-1 -8 -6 -12.5t-15 -4.5h-379q-8 0 -11 -9.5t-3 -35.5q0 -69 41.5 -108.5t106.5 -39.5q53 0 94.5 21t74.5 63
q4 4 8 3.5t7 -2.5l39 -21q11 -6 4 -17q-33 -40 -69 -64t-77 -35.5t-90 -11.5v0zM443 300q10 0 16 8t6 37q0 59 -35 97t-97 38q-53 0 -94.5 -26t-67 -67.5t-31.5 -86.5h303zM187 747q3 3 8 2.5t7 -3.5l105 -131q2 -2 3 -6t-2 -8l-19 -19q-4 -4 -8 -2.5t-9 5.5l-114 109
q-14 10 -5 19l34 34v0zM349 747q3 3 8 2.5t7 -3.5l104 -131q3 -2 4 -6t-3 -8l-18 -19q-4 -4 -8 -2.5t-9 5.5l-114 109q-14 11 -5 20l34 33v0z" />
    <glyph glyph-name="uni0206" unicode="&#x206;" horiz-adv-x="628" 
d="M163 731q1 7 3 9t8 2h452q10 0 7 -13l-7 -50q-1 -6 -3.5 -8.5t-10.5 -2.5h-352q-6 0 -8.5 -2t-3.5 -9l-34 -238q-1 -4 1 -6t7 -2h264q5 0 6.5 -2.5t0.5 -8.5l-8 -54q-1 -8 -11 -8h-262q-9 0 -11 -12l-34 -243q-1 -9 7 -9h369q7 0 9 -2t1 -9l-7 -54q-1 -6 -3 -7.5t-8 -1.5
h-460q-15 0 -13 17l101 714v0zM279 846q-7 0 -9 5t1 12q11 23 32 43.5t52 34t71 13.5q41 0 70.5 -13t46.5 -34.5t21 -48.5q1 -5 -1 -8.5t-9 -3.5h-45q-6 0 -8.5 4t-6.5 9q-5 8 -12.5 17.5t-20.5 16.5t-35 7q-32 0 -54.5 -15t-35.5 -32q-3 -5 -6.5 -6t-7.5 -1h-43v0z" />
    <glyph glyph-name="uni0207" unicode="&#x207;" horiz-adv-x="581" 
d="M265 -10q-67 0 -117.5 28t-77.5 78.5t-27 118.5q0 62 20 120t58 104t92 73.5t121 27.5q65 0 112 -25.5t72.5 -74.5t25.5 -118q0 -14 -1 -28.5t-3 -29.5q-1 -8 -6 -12.5t-15 -4.5h-379q-8 0 -11 -9.5t-3 -35.5q0 -69 41.5 -108.5t106.5 -39.5q53 0 94.5 21t74.5 63
q4 4 8 3.5t7 -2.5l39 -21q11 -6 4 -17q-33 -40 -69 -64t-77 -35.5t-90 -11.5v0zM443 300q10 0 16 8t6 37q0 59 -35 97t-97 38q-53 0 -94.5 -26t-67 -67.5t-31.5 -86.5h303zM204 634q-7 0 -9 5t1 12q11 23 32 43.5t52 34t71 13.5q41 0 70.5 -13t46.5 -34.5t21 -48.5
q1 -5 -1 -8.5t-9 -3.5h-45q-6 0 -8.5 4t-6.5 9q-5 8 -12.5 17.5t-20.5 16.5t-35 7q-32 0 -54.5 -15t-35.5 -32q-3 -5 -6.5 -6t-7.5 -1h-43v0z" />
    <glyph glyph-name="uni0208" unicode="&#x208;" horiz-adv-x="290" 
d="M248 742q12 0 9 -15l-100 -713q-1 -9 -4 -11.5t-13 -2.5h-65q-9 0 -11.5 4.5t-1.5 12.5l101 714q1 7 3 9t8 2h74zM66 959q3 3 8 2.5t7 -3.5l105 -131q2 -2 3 -6t-2 -8l-19 -19q-4 -4 -8 -2.5t-9 5.5l-114 109q-14 10 -5 19l34 34v0zM228 959q3 3 8 2.5t7 -3.5l104 -131
q3 -2 4 -6t-3 -8l-18 -19q-4 -4 -8 -2.5t-9 5.5l-114 109q-14 11 -5 20l34 33v0z" />
    <glyph glyph-name="uni0209" unicode="&#x209;" horiz-adv-x="239" 
d="M126 14q-1 -9 -4 -11.5t-14 -2.5h-51q-9 0 -12.5 4.5t-2.5 12.5l71 502q1 7 3 9t8 2h61q6 0 9.5 -4t2.5 -11zM8 747q3 3 8 2.5t7 -3.5l105 -131q2 -2 3 -6t-2 -8l-19 -19q-4 -4 -8 -2.5t-9 5.5l-114 109q-14 10 -5 19l34 34v0zM170 747q3 3 8 2.5t7 -3.5l104 -131
q3 -2 4 -6t-3 -8l-18 -19q-4 -4 -8 -2.5t-9 5.5l-114 109q-14 11 -5 20l34 33v0z" />
    <glyph glyph-name="uni020A" unicode="&#x20a;" horiz-adv-x="290" 
d="M248 742q12 0 9 -15l-100 -713q-1 -9 -4 -11.5t-13 -2.5h-65q-9 0 -11.5 4.5t-1.5 12.5l101 714q1 7 3 9t8 2h74zM83 846q-7 0 -9 5t1 12q11 23 32 43.5t52 34t71 13.5q41 0 70.5 -13t46.5 -34.5t21 -48.5q1 -5 -1 -8.5t-9 -3.5h-45q-6 0 -8.5 4t-6.5 9q-5 8 -12.5 17.5
t-20.5 16.5t-35 7q-32 0 -54.5 -15t-35.5 -32q-3 -5 -6.5 -6t-7.5 -1h-43v0z" />
    <glyph glyph-name="uni020B" unicode="&#x20b;" horiz-adv-x="239" 
d="M126 14q-1 -9 -4 -11.5t-14 -2.5h-51q-9 0 -12.5 4.5t-2.5 12.5l71 502q1 7 3 9t8 2h61q6 0 9.5 -4t2.5 -11zM25 634q-7 0 -9 5t1 12q11 23 32 43.5t52 34t71 13.5q41 0 70.5 -13t46.5 -34.5t21 -48.5q1 -5 -1 -8.5t-9 -3.5h-45q-6 0 -8.5 4t-6.5 9q-5 8 -12.5 17.5
t-20.5 16.5t-35 7q-32 0 -54.5 -15t-35.5 -32q-3 -5 -6.5 -6t-7.5 -1h-43v0z" />
    <glyph glyph-name="uni020C" unicode="&#x20c;" horiz-adv-x="764" 
d="M347 -10q-87 0 -148 34t-93 99.5t-32 158.5q0 21 1.5 44t4.5 46q18 122 67.5 206.5t126.5 129t173 44.5q86 0 147 -35t93 -101t32 -162q0 -20 -1.5 -42.5t-4.5 -46.5q-17 -120 -66.5 -204t-125.5 -127.5t-174 -43.5v0zM352 63q109 0 174.5 76t87.5 234q4 27 5.5 52
t1.5 47q0 105 -44 156t-132 51q-108 0 -175.5 -77.5t-90.5 -237.5q-4 -26 -5.5 -50t-1.5 -45q0 -104 45 -155t135 -51v0zM301 959q3 3 8 2.5t7 -3.5l105 -131q2 -2 3 -6t-2 -8l-19 -19q-4 -4 -8 -2.5t-9 5.5l-114 109q-14 10 -5 19l34 34v0zM463 959q3 3 8 2.5t7 -3.5
l104 -131q3 -2 4 -6t-3 -8l-18 -19q-4 -4 -8 -2.5t-9 5.5l-114 109q-14 11 -5 20l34 33v0z" />
    <glyph glyph-name="uni020D" unicode="&#x20d;" 
d="M264 -10q-68 0 -118 28t-76.5 79.5t-26.5 118.5q0 70 23 129.5t63 103t93.5 67.5t112.5 24q69 0 118 -29t75.5 -81t26.5 -121q0 -92 -39 -164.5t-105 -113.5t-147 -41v0zM267 53q58 0 104 33t72.5 93t26.5 143q0 73 -35.5 114.5t-101.5 41.5q-56 0 -103 -33.5t-74.5 -94
t-27.5 -142.5q0 -72 36.5 -113.5t102.5 -41.5v0zM190 747q3 3 8 2.5t7 -3.5l105 -131q2 -2 3 -6t-2 -8l-19 -19q-4 -4 -8 -2.5t-9 5.5l-114 109q-14 10 -5 19l34 34v0zM352 747q3 3 8 2.5t7 -3.5l104 -131q3 -2 4 -6t-3 -8l-18 -19q-4 -4 -8 -2.5t-9 5.5l-114 109
q-14 11 -5 20l34 33v0z" />
    <glyph glyph-name="uni020E" unicode="&#x20e;" horiz-adv-x="764" 
d="M347 -10q-87 0 -148 34t-93 99.5t-32 158.5q0 21 1.5 44t4.5 46q18 122 67.5 206.5t126.5 129t173 44.5q86 0 147 -35t93 -101t32 -162q0 -20 -1.5 -42.5t-4.5 -46.5q-17 -120 -66.5 -204t-125.5 -127.5t-174 -43.5v0zM352 63q109 0 174.5 76t87.5 234q4 27 5.5 52
t1.5 47q0 105 -44 156t-132 51q-108 0 -175.5 -77.5t-90.5 -237.5q-4 -26 -5.5 -50t-1.5 -45q0 -104 45 -155t135 -51v0zM318 846q-7 0 -9 5t1 12q11 23 32 43.5t52 34t71 13.5q41 0 70.5 -13t46.5 -34.5t21 -48.5q1 -5 -1 -8.5t-9 -3.5h-45q-6 0 -8.5 4t-6.5 9
q-5 8 -12.5 17.5t-20.5 16.5t-35 7q-32 0 -54.5 -15t-35.5 -32q-3 -5 -6.5 -6t-7.5 -1h-43v0z" />
    <glyph glyph-name="uni020F" unicode="&#x20f;" 
d="M264 -10q-68 0 -118 28t-76.5 79.5t-26.5 118.5q0 70 23 129.5t63 103t93.5 67.5t112.5 24q69 0 118 -29t75.5 -81t26.5 -121q0 -92 -39 -164.5t-105 -113.5t-147 -41v0zM267 53q58 0 104 33t72.5 93t26.5 143q0 73 -35.5 114.5t-101.5 41.5q-56 0 -103 -33.5t-74.5 -94
t-27.5 -142.5q0 -72 36.5 -113.5t102.5 -41.5v0zM207 634q-7 0 -9 5t1 12q11 23 32 43.5t52 34t71 13.5q41 0 70.5 -13t46.5 -34.5t21 -48.5q1 -5 -1 -8.5t-9 -3.5h-45q-6 0 -8.5 4t-6.5 9q-5 8 -12.5 17.5t-20.5 16.5t-35 7q-32 0 -54.5 -15t-35.5 -32q-3 -5 -6.5 -6
t-7.5 -1h-43v0z" />
    <glyph glyph-name="uni0210" unicode="&#x210;" horiz-adv-x="696" 
d="M592 17q6 -17 -11 -17h-74q-6 0 -9.5 3.5t-5.5 10.5l-85 315q-1 5 -4.5 7t-12.5 2h-176q-11 0 -12 -12l-45 -312q-1 -9 -4.5 -11.5t-12.5 -2.5h-65q-8 0 -11 4.5t-2 11.5l101 715q1 7 3 9t8 2h279q108 0 166.5 -42t58.5 -121q0 -55 -21 -100t-59.5 -77t-90.5 -47
q-7 -3 -9.5 -5.5t-1.5 -5.5l96 -327v0zM378 408q61 0 106 17.5t69.5 53t24.5 92.5q0 52 -34.5 76.5t-102.5 24.5h-179q-11 0 -14 -12l-34 -242q-1 -5 1 -7.5t6 -2.5h157v0zM249 959q3 3 8 2.5t7 -3.5l105 -131q2 -2 3 -6t-2 -8l-19 -19q-4 -4 -8 -2.5t-9 5.5l-114 109
q-14 10 -5 19l34 34v0zM411 959q3 3 8 2.5t7 -3.5l104 -131q3 -2 4 -6t-3 -8l-18 -19q-4 -4 -8 -2.5t-9 5.5l-114 109q-14 11 -5 20l34 33v0z" />
    <glyph glyph-name="uni0211" unicode="&#x211;" horiz-adv-x="383" 
d="M56 0q-7 0 -11 4.5t-3 11.5l71 504q1 6 3 8t7 2h59q6 0 9 -3t2 -11l-9 -57q-1 -7 2 -8t8 4q30 30 58 49t55 27.5t51 8.5q20 0 29 -3t8 -10l-8 -59q-1 -5 -2.5 -7t-4.5 -1q-10 1 -21.5 1.5t-23.5 0.5q-22 0 -49 -10t-52 -27t-42 -38.5t-20 -43.5l-46 -331q-1 -7 -4 -9.5
t-12 -2.5h-54v0zM100 747q3 3 8 2.5t7 -3.5l105 -131q2 -2 3 -6t-2 -8l-19 -19q-4 -4 -8 -2.5t-9 5.5l-114 109q-14 10 -5 19l34 34v0zM262 747q3 3 8 2.5t7 -3.5l104 -131q3 -2 4 -6t-3 -8l-18 -19q-4 -4 -8 -2.5t-9 5.5l-114 109q-14 11 -5 20l34 33v0z" />
    <glyph glyph-name="uni0212" unicode="&#x212;" horiz-adv-x="696" 
d="M592 17q6 -17 -11 -17h-74q-6 0 -9.5 3.5t-5.5 10.5l-85 315q-1 5 -4.5 7t-12.5 2h-176q-11 0 -12 -12l-45 -312q-1 -9 -4.5 -11.5t-12.5 -2.5h-65q-8 0 -11 4.5t-2 11.5l101 715q1 7 3 9t8 2h279q108 0 166.5 -42t58.5 -121q0 -55 -21 -100t-59.5 -77t-90.5 -47
q-7 -3 -9.5 -5.5t-1.5 -5.5l96 -327v0zM378 408q61 0 106 17.5t69.5 53t24.5 92.5q0 52 -34.5 76.5t-102.5 24.5h-179q-11 0 -14 -12l-34 -242q-1 -5 1 -7.5t6 -2.5h157v0zM277 846q-7 0 -9 5t1 12q11 23 32 43.5t52 34t71 13.5q41 0 70.5 -13t46.5 -34.5t21 -48.5
q1 -5 -1 -8.5t-9 -3.5h-45q-6 0 -8.5 4t-6.5 9q-5 8 -12.5 17.5t-20.5 16.5t-35 7q-32 0 -54.5 -15t-35.5 -32q-3 -5 -6.5 -6t-7.5 -1h-43v0z" />
    <glyph glyph-name="uni0213" unicode="&#x213;" horiz-adv-x="383" 
d="M56 0q-7 0 -11 4.5t-3 11.5l71 504q1 6 3 8t7 2h59q6 0 9 -3t2 -11l-9 -57q-1 -7 2 -8t8 4q30 30 58 49t55 27.5t51 8.5q20 0 29 -3t8 -10l-8 -59q-1 -5 -2.5 -7t-4.5 -1q-10 1 -21.5 1.5t-23.5 0.5q-22 0 -49 -10t-52 -27t-42 -38.5t-20 -43.5l-46 -331q-1 -7 -4 -9.5
t-12 -2.5h-54v0zM117 634q-7 0 -9 5t1 12q11 23 32 43.5t52 34t71 13.5q41 0 70.5 -13t46.5 -34.5t21 -48.5q1 -5 -1 -8.5t-9 -3.5h-45q-6 0 -8.5 4t-6.5 9q-5 8 -12.5 17.5t-20.5 16.5t-35 7q-32 0 -54.5 -15t-35.5 -32q-3 -5 -6.5 -6t-7.5 -1h-43v0z" />
    <glyph glyph-name="uni0214" unicode="&#x214;" horiz-adv-x="709" 
d="M619 245q-13 -90 -51 -146.5t-100.5 -82.5t-148.5 -26q-122 0 -179.5 52t-57.5 155q0 16 1.5 33.5t4.5 35.5l65 464q1 7 3.5 9.5t7.5 2.5h72q7 0 10.5 -4t1.5 -11l-68 -486q-1 -12 -2.5 -22.5t-1.5 -21.5q0 -68 38.5 -100.5t114.5 -32.5q60 0 103.5 20t70.5 61t36 104
l68 483q1 6 3 8t7 2h59q6 0 8.5 -4t2.5 -11l-68 -482v0zM281 959q3 3 8 2.5t7 -3.5l105 -131q2 -2 3 -6t-2 -8l-19 -19q-4 -4 -8 -2.5t-9 5.5l-114 109q-14 10 -5 19l34 34v0zM443 959q3 3 8 2.5t7 -3.5l104 -131q3 -2 4 -6t-3 -8l-18 -19q-4 -4 -8 -2.5t-9 5.5l-114 109
q-14 11 -5 20l34 33v0z" />
    <glyph glyph-name="uni0215" unicode="&#x215;" horiz-adv-x="579" 
d="M195 -10q-64 0 -103.5 35.5t-39.5 95.5v11.5t1 12.5l53 372q1 8 4 10.5t10 2.5h56q8 0 11.5 -4.5t1.5 -11.5l-49 -351q-1 -6 -1.5 -12t-0.5 -10q0 -45 22.5 -65t63.5 -20q45 0 88 24.5t88 64.5l53 373q2 8 5 10t11 2h55q8 0 11.5 -4.5t2.5 -11.5l-72 -504q-1 -5 -3 -7.5
t-8 -2.5h-58q-6 0 -9 2.5t-2 8.5l8 56q1 6 -1.5 7t-8.5 -4q-61 -47 -105 -63.5t-84 -16.5v0zM166 747q3 3 8 2.5t7 -3.5l105 -131q2 -2 3 -6t-2 -8l-19 -19q-4 -4 -8 -2.5t-9 5.5l-114 109q-14 10 -5 19l34 34v0zM328 747q3 3 8 2.5t7 -3.5l104 -131q3 -2 4 -6t-3 -8
l-18 -19q-4 -4 -8 -2.5t-9 5.5l-114 109q-14 11 -5 20l34 33v0z" />
    <glyph glyph-name="uni0216" unicode="&#x216;" horiz-adv-x="709" 
d="M619 245q-13 -90 -51 -146.5t-100.5 -82.5t-148.5 -26q-122 0 -179.5 52t-57.5 155q0 16 1.5 33.5t4.5 35.5l65 464q1 7 3.5 9.5t7.5 2.5h72q7 0 10.5 -4t1.5 -11l-68 -486q-1 -12 -2.5 -22.5t-1.5 -21.5q0 -68 38.5 -100.5t114.5 -32.5q60 0 103.5 20t70.5 61t36 104
l68 483q1 6 3 8t7 2h59q6 0 8.5 -4t2.5 -11l-68 -482v0zM298 846q-7 0 -9 5t1 12q11 23 32 43.5t52 34t71 13.5q41 0 70.5 -13t46.5 -34.5t21 -48.5q1 -5 -1 -8.5t-9 -3.5h-45q-6 0 -8.5 4t-6.5 9q-5 8 -12.5 17.5t-20.5 16.5t-35 7q-32 0 -54.5 -15t-35.5 -32
q-3 -5 -6.5 -6t-7.5 -1h-43v0z" />
    <glyph glyph-name="uni0217" unicode="&#x217;" horiz-adv-x="579" 
d="M195 -10q-64 0 -103.5 35.5t-39.5 95.5v11.5t1 12.5l53 372q1 8 4 10.5t10 2.5h56q8 0 11.5 -4.5t1.5 -11.5l-49 -351q-1 -6 -1.5 -12t-0.5 -10q0 -45 22.5 -65t63.5 -20q45 0 88 24.5t88 64.5l53 373q2 8 5 10t11 2h55q8 0 11.5 -4.5t2.5 -11.5l-72 -504q-1 -5 -3 -7.5
t-8 -2.5h-58q-6 0 -9 2.5t-2 8.5l8 56q1 6 -1.5 7t-8.5 -4q-61 -47 -105 -63.5t-84 -16.5v0zM183 634q-7 0 -9 5t1 12q11 23 32 43.5t52 34t71 13.5q41 0 70.5 -13t46.5 -34.5t21 -48.5q1 -5 -1 -8.5t-9 -3.5h-45q-6 0 -8.5 4t-6.5 9q-5 8 -12.5 17.5t-20.5 16.5t-35 7
q-32 0 -54.5 -15t-35.5 -32q-3 -5 -6.5 -6t-7.5 -1h-43v0z" />
    <glyph glyph-name="uni0218" unicode="&#x218;" horiz-adv-x="641" 
d="M548 608q-23 30 -62.5 50.5t-99.5 20.5q-52 0 -93 -18t-64.5 -50t-23.5 -76q0 -17 8 -34.5t28.5 -34t54.5 -29.5l139 -51q76 -27 109.5 -66.5t33.5 -96.5q0 -75 -38.5 -127.5t-105 -79t-149.5 -26.5q-93 0 -155 32.5t-97 96.5q-3 7 -2.5 12.5t8.5 9.5l38 24q8 5 14 3.5
t11 -8.5q23 -33 47 -55t57.5 -33t85.5 -11q56 0 99 15t68 47t25 82q0 31 -21 54.5t-78 44.5l-144 55q-69 25 -98.5 68t-29.5 93q0 53 21.5 95.5t60 73t89 47t107.5 16.5q52 0 93.5 -13t74 -35.5t55.5 -53.5q6 -7 6.5 -10.5t-5.5 -7.5l-49 -34q-4 -2 -7.5 0.5t-10.5 9.5v0z
M227 -239q-4 0 -4.5 3t2.5 7l37 53q4 7 3 11t-7 4h-14q-5 0 -6.5 2t-0.5 9l9 65q3 12 12 12h59q8 0 7 -8l-10 -78q-2 -6 -5 -10l-46 -59q-4 -5 -7.5 -8t-11.5 -3h-17v0z" />
    <glyph glyph-name="uni0219" unicode="&#x219;" horiz-adv-x="512" 
d="M218 -10q-82 0 -138 32.5t-74 81.5q-5 10 4 15l39 20q6 3 10 2t7 -7q18 -37 55 -60t97 -23q20 0 46 4.5t50.5 15.5t40.5 29t16 46q0 24 -20.5 43t-67.5 32l-99 28q-64 19 -91.5 48.5t-27.5 69.5q0 55 32 94t83 59t109 20q69 0 117 -26.5t71 -70.5q3 -4 2 -7.5t-6 -6.5
l-38 -19q-4 -2 -7.5 -0.5t-8.5 7.5q-17 29 -50.5 46.5t-82.5 17.5q-30 0 -63 -10t-55.5 -30.5t-22.5 -52.5q0 -19 14.5 -35t56.5 -30l121 -37q59 -16 86.5 -49.5t27.5 -75.5q0 -43 -21 -75t-55 -53.5t-75 -32t-82 -10.5v0zM144 -239q-4 0 -4.5 3t2.5 7l37 53q4 7 3 11t-7 4
h-14q-5 0 -6.5 2t-0.5 9l9 65q3 12 12 12h59q8 0 7 -8l-10 -78q-2 -6 -5 -10l-46 -59q-4 -5 -7.5 -8t-11.5 -3h-17v0z" />
    <glyph glyph-name="uni021A" unicode="&#x21a;" horiz-adv-x="645" 
d="M107 733q2 6 3.5 7.5t8.5 1.5h542q6 0 7.5 -2.5t0.5 -7.5l-8 -54q-1 -5 -3.5 -7t-9.5 -2h-201q-7 0 -10 -2.5t-4 -9.5l-91 -645q-1 -8 -3.5 -10t-7.5 -2h-73q-8 0 -10.5 3.5t-0.5 11.5l91 642q1 12 -11 12h-217q-11 0 -10 10zM226 -239q-4 0 -4.5 3t2.5 7l37 53q4 7 3 11
t-7 4h-14q-5 0 -6.5 2t-0.5 9l9 65q3 12 12 12h59q8 0 7 -8l-10 -78q-2 -6 -5 -10l-46 -59q-4 -5 -7.5 -8t-11.5 -3h-17v0z" />
    <glyph glyph-name="uni021B" unicode="&#x21b;" horiz-adv-x="387" 
d="M213 0q-55 0 -82.5 22.5t-27.5 69.5q0 8 0.5 16.5t1.5 16.5l47 334q1 5 -1.5 6.5t-7.5 1.5h-82q-8 0 -7 13l6 43q1 5 2.5 6t6.5 1h85q4 0 7 3.5t3 7.5l34 159q2 10 13 10h51q6 0 8 -3.5t1 -12.5l-23 -156q-1 -4 1 -6t6 -2h125q5 0 8.5 -2.5t2.5 -6.5l-6 -45q-1 -5 -3 -7
t-8 -2h-127q-9 0 -12 -11l-44 -316q-1 -8 -1.5 -15t-0.5 -13q0 -30 13.5 -39.5t40.5 -9.5h69q5 0 8 -4t3 -9l-6 -34q-1 -10 -10 -12q-11 -2 -29 -2.5l-36 -1t-29 -0.5v0zM136 -239q-4 0 -4.5 3t2.5 7l37 53q4 7 3 11t-7 4h-14q-5 0 -6.5 2t-0.5 9l9 65q3 12 12 12h59
q8 0 7 -8l-10 -78q-2 -6 -5 -10l-46 -59q-4 -5 -7.5 -8t-11.5 -3h-17v0z" />
    <glyph glyph-name="uni0237" unicode="&#x237;" horiz-adv-x="236" 
d="M117 -31q-6 -48 -24.5 -78.5t-50.5 -45.5t-80 -15q-43 0 -54.5 3.5t-10.5 12.5l6 43q1 4 3 6.5t6 3.5l50 2q31 2 48.5 19t23.5 59l76 540q2 6 4.5 8.5t8.5 2.5h60q6 0 9 -4.5t2 -10.5l-77 -546v0z" />
    <glyph glyph-name="uni0259" unicode="&#x259;" horiz-adv-x="581" 
d="M316 540q68 0 117.5 -28t77 -78.5t27.5 -118.5q0 -61 -20 -119.5t-58 -104.5t-92 -73.5t-122 -27.5q-65 0 -111.5 25.5t-72 74.5t-25.5 118q0 14 1 28.5t3 29.5q1 8 6 12.5t14 4.5h380q7 0 10 9.5t3 35.5q0 69 -41.5 108.5t-106.5 39.5q-52 0 -93.5 -21t-74.5 -63
q-5 -4 -8.5 -3.5t-7.5 2.5l-39 21q-10 6 -3 17q33 40 69 64t77.5 35.5t89.5 11.5v0zM138 230q-10 0 -16.5 -8t-6.5 -37q0 -59 35.5 -97t97.5 -38q54 0 95 26t67 67.5t31 86.5h-303z" />
    <glyph glyph-name="uni02BC" unicode="&#x2bc;" horiz-adv-x="147" 
d="M66 468q-4 0 -4 2.5t1 5.5l48 116q5 14 -5 15l-7 1q-6 0 -7.5 1t-0.5 7l16 114q1 5 4.5 8.5t7.5 3.5h58q4 0 5 -1t0 -5l-18 -126q0 -2 -1 -3.5t-1 -2.5l-53 -124q-4 -12 -21 -12h-22v0z" />
    <glyph glyph-name="circumflex" unicode="&#x2c6;" horiz-adv-x="319" 
d="M225 689q-7 7 -9 6.5t-12 -7.5l-66 -51q-6 -5 -9.5 -5.5t-9.5 -0.5h-55q-7 0 -7.5 4t4.5 8l116 93q6 5 11.5 7t13.5 2h40q7 0 10.5 -4.5t6.5 -6.5l89 -93q6 -6 5 -8t-8 -2h-56q-6 0 -9 2t-7 6z" />
    <glyph glyph-name="caron" unicode="&#x2c7;" horiz-adv-x="319" 
d="M289 737q6 4 10 4.5t9 0.5h59q7 0 8 -4t-6 -10l-115 -93q-3 -3 -7.5 -5t-12.5 -2h-39q-9 0 -13.5 3.5t-8.5 8.5l-91 92q-4 5 -4.5 7.5t5.5 2.5h54q6 0 9.5 -2t7.5 -7l51 -49q8 -9 11 -6.5t12 10.5l61 49v0z" />
    <glyph glyph-name="breve" unicode="&#x2d8;" horiz-adv-x="319" 
d="M367 741q7 0 9.5 -4.5t-1.5 -11.5q-11 -22 -33 -43.5t-54 -34.5t-72 -13q-41 0 -70 12.5t-45.5 34.5t-18.5 49q-1 4 1 7.5t9 3.5h45q7 0 9 -3.5t6 -9.5q6 -7 13.5 -16.5t20.5 -16.5t34 -7q33 0 54.5 15t35.5 32q3 4 6.5 5t7.5 1h43v0z" />
    <glyph glyph-name="dotaccent" unicode="&#x2d9;" horiz-adv-x="111" 
d="M154 639q-1 -9 -4.5 -11.5t-14.5 -2.5h-58q-9 0 -12 4.5t-2 12.5l12 89q2 7 4 9t8 2h68q6 0 9 -4t1 -11z" />
    <glyph glyph-name="ring" unicode="&#x2da;" horiz-adv-x="229" 
d="M279 690q-6 -43 -39.5 -71.5t-75.5 -28.5q-30 0 -53 14.5t-33.5 40t-6.5 56.5q5 41 39 69t75 28q31 0 53.5 -14.5t33.5 -39t7 -54.5v0zM229 698q4 24 -9 38t-35 14q-24 0 -44 -17t-24 -44q-3 -20 11 -35.5t34 -15.5q25 0 44.5 18.5t22.5 41.5v0z" />
    <glyph glyph-name="ogonek" unicode="&#x2db;" horiz-adv-x="213" 
d="M-39 -85q2 20 13.5 36.5t36.5 31.5t68 27l62 -8q-54 -22 -80.5 -42t-29.5 -47q-3 -18 7 -27t35 -9q22 0 39.5 5.5t25.5 9.5q7 2 10 0t1 -8l-4 -29q-1 -4 -3 -7t-5 -5q-13 -4 -36 -8.5t-49 -4.5q-51 0 -73.5 23.5t-17.5 61.5v0z" />
    </font>
</defs>
</svg>
