<?xml version="1.0" standalone="no"?>
<!DOCTYPE svg PUBLIC "-//W3C//DTD SVG 1.1//EN" "http://www.w3.org/Graphics/SVG/1.1/DTD/svg11.dtd" >
<svg xmlns="http://www.w3.org/2000/svg" xmlns:xlink="http://www.w3.org/1999/xlink" version="1.1">
<metadata>
Created by FontForge 20170731 at Wed Sep 23 00:34:57 2020
 By Aleksey,,,
Copyright 2020 The LibreFranklin Project Authors (https://github.com/impallari/Libre-Franklin)
</metadata>
<defs>
<font id="LibreFranklin-SemiBoldItalic" horiz-adv-x="0" >
  <font-face 
    font-family="Libre Franklin SemiBold"
    font-weight="600"
    font-style="italic"
    font-stretch="normal"
    units-per-em="1000"
    panose-1="0 0 0 0 0 0 0 0 0 0"
    ascent="800"
    descent="-200"
    x-height="530"
    cap-height="742"
    bbox="-449.333 -242 1408.29 1147.64"
    underline-thickness="50"
    underline-position="-150"
    slope="-8"
    unicode-range="U+000D-FB02"
  />
<missing-glyph horiz-adv-x="666" 
d="M531 -140q-2 -16 -9.5 -20.5t-24.5 -4.5h-448q-16 0 -21.5 8t-4.5 21l135 964q2 11 6.5 15t12.5 4h471q8 0 14 -7.5t4 -17.5l-135 -962v0zM608 783q2 8 -0.5 11t-9.5 3h-373q-7 0 -13.5 -7t-8.5 -16l-123 -872q-1 -10 2 -13.5t16 -3.5h353q14 0 23.5 7.5t11.5 20.5z
M177 806l54 27l280 -965l-59 -5z" />
    <glyph glyph-name="fi" unicode="fi" horiz-adv-x="650" 
d="M396 530q8 0 11 -3.5t1 -9.5l-9 -66q-2 -12 -14 -12h-97q-8 0 -10 -14l-58 -412q-1 -8 -4 -10.5t-10 -2.5h-102q-6 0 -10.5 6t-3.5 13l58 413q2 7 -6 7h-84q-7 0 -8.5 5t-1.5 12l9 63q2 6 4 8.5t11 2.5h76q7 0 11.5 5t5.5 12l9 65q9 64 47.5 97t106.5 33h95q9 0 14.5 -4
t4.5 -13l-8 -61q-1 -10 -14 -10h-58q-25 0 -43 -17t-21 -45l-8 -52q-1 -10 10 -10h96v0zM552 18q-2 -12 -6 -15t-17 -3h-87q-11 0 -15.5 6t-3.5 16l69 495q2 8 4.5 10.5t9.5 2.5h105q7 0 9.5 -6t1.5 -13zM640 624q-2 -11 -7 -15t-18 -4h-96q-10 0 -12.5 7t-0.5 17l14 95
q2 18 17 18h106q6 0 9 -6.5t1 -14.5z" />
    <glyph glyph-name="fl" unicode="fl" horiz-adv-x="651" 
d="M396 530q8 0 11 -3.5t1 -9.5l-9 -66q-2 -12 -14 -12h-97q-8 0 -10 -14l-58 -412q-1 -8 -4 -10.5t-10 -2.5h-102q-6 0 -10.5 6t-3.5 13l58 413q2 7 -6 7h-84q-7 0 -8.5 5t-1.5 12l9 63q2 6 4 8.5t11 2.5h76q7 0 11.5 5t5.5 12l9 65q9 64 47.5 97t106.5 33h95q9 0 14.5 -4
t4.5 -13l-8 -61q-1 -10 -14 -10h-58q-25 0 -43 -17t-21 -45l-8 -52q-1 -10 10 -10h96v0zM553 18q-2 -12 -6.5 -15t-17.5 -3h-87q-11 0 -16 6t-4 16l103 707q1 8 3.5 10.5t9.5 2.5h104q13 0 10 -17z" />
    <glyph glyph-name=".notdef" horiz-adv-x="666" 
d="M531 -140q-2 -16 -9.5 -20.5t-24.5 -4.5h-448q-16 0 -21.5 8t-4.5 21l135 964q2 11 6.5 15t12.5 4h471q8 0 14 -7.5t4 -17.5l-135 -962v0zM608 783q2 8 -0.5 11t-9.5 3h-373q-7 0 -13.5 -7t-8.5 -16l-123 -872q-1 -10 2 -13.5t16 -3.5h353q14 0 23.5 7.5t11.5 20.5z
M177 806l54 27l280 -965l-59 -5z" />
    <glyph glyph-name="uni0000" 
 />
    <glyph glyph-name="uni0000" 
 />
    <glyph glyph-name="nonmarkingreturn" horiz-adv-x="333" 
 />
    <glyph glyph-name="CR" unicode="&#xd;" horiz-adv-x="209" 
 />
    <glyph glyph-name="space" unicode=" " horiz-adv-x="209" 
 />
    <glyph glyph-name="exclam" unicode="!" horiz-adv-x="257" 
d="M165 17q-2 -11 -6 -14t-18 -3h-101q-11 0 -16 6.5t-4 15.5l16 111q2 8 4.5 10t8.5 2h118q7 0 11 -5t3 -13zM167 230q-3 -10 -7 -13t-16 -3h-45q-10 0 -14 6t-3 15l37 495q0 8 2.5 10t8.5 2h125q6 0 10 -6t3 -12z" />
    <glyph glyph-name="quotedbl" unicode="&#x22;" horiz-adv-x="449" 
d="M360 488q-3 -10 -7 -13t-16 -3h-32q-10 0 -14 6t-4 15l3 238q0 7 3 9t9 2h109q6 0 10.5 -5.5t2.5 -12.5zM156 488q-3 -10 -7 -13t-16 -3h-32q-10 0 -14 6t-4 15l3 238q0 7 3 9t9 2h109q6 0 10.5 -5.5t2.5 -12.5z" />
    <glyph glyph-name="numbersign" unicode="#" horiz-adv-x="603" 
d="M146 17q-3 -12 -6.5 -15t-14.5 -1l-31 4q-10 2 -15.5 6.5t-4.5 13.5l205 704q3 8 5.5 10.5t7.5 1.5l44 -5q7 -1 11.5 -6t2.5 -13zM361 17q-3 -12 -6.5 -15t-14.5 -1l-31 4q-11 2 -16.5 6.5t-3.5 13.5l204 704q4 8 6.5 10.5t7.5 1.5l44 -5q7 -1 11.5 -6t2.5 -13zM545 250
q-1 -10 -5.5 -13t-16.5 -3h-484q-10 0 -14.5 6t-3.5 15l5 38q2 8 5.5 10t9.5 2h499q6 0 9 -5.5t2 -12.5zM608 460q-1 -10 -6 -13t-17 -3h-484q-10 0 -14.5 6t-2.5 15l5 38q2 8 5.5 10t9.5 2h499q6 0 8.5 -5.5t1.5 -12.5z" />
    <glyph glyph-name="dollar" unicode="$" horiz-adv-x="638" 
d="M593 197q-8 -55 -40.5 -99t-84.5 -71t-118 -32q-11 -1 -16 -5.5t-7 -12.5l-5 -43q-2 -10 -5.5 -13t-15.5 -3h-48q-10 0 -14.5 6.5t-3.5 14.5l7 47q1 8 0.5 8.5t-6.5 0.5q-78 3 -128.5 29.5t-86.5 73.5q-10 7 -13.5 14t3.5 13l58 53q9 7 15.5 3.5t9.5 -11.5q27 -32 61 -53
t84 -26q10 -1 15 3.5t6 10.5l28 197q1 8 -1 12t-8 8q-78 21 -122 52t-59.5 73t-7.5 94q7 52 37.5 93.5t81.5 69.5t118 39q8 1 16 6t9 12l6 42q1 5 3 6.5t6 1.5h58q9 0 13.5 -5.5t3.5 -15.5l-7 -43q0 -3 1.5 -4.5t4.5 -2.5q55 -9 95.5 -30t70.5 -51q7 -2 10 -8.5t-4 -13.5
l-55 -56q-7 -6 -11.5 -3.5t-10.5 12.5q-16 18 -42 32.5t-57 22.5q-7 1 -12.5 -4t-6.5 -10l-27 -197q-1 -6 0 -6.5t8 -3.5l48 -14q50 -17 85 -47.5t51.5 -72.5t9.5 -93v0zM335 640q1 6 -0.5 6.5t-6.5 -1.5q-54 -7 -87 -36t-39 -69q-3 -20 4 -36.5t25.5 -30t51.5 -27.5
q11 -2 19 4t9 18zM343 94q0 -4 2 -2.5t5 2.5q53 3 88 31.5t40 68.5q5 35 -14.5 59t-72.5 43q-19 2 -22 -15l-26 -187v0z" />
    <glyph glyph-name="percent" unicode="%" horiz-adv-x="935" 
d="M293 753q53 0 91 -28.5t55.5 -78t9.5 -112.5q-9 -59 -38 -105t-72.5 -72t-94.5 -26q-54 0 -93 28t-57 77.5t-9 111.5q9 60 38.5 106t74 72.5t95.5 26.5v0zM241 399q31 0 54 18.5t38 52t20 77.5q10 64 -5 101t-56 37q-29 0 -52 -19t-38 -53t-22 -80q-9 -62 5.5 -98
t55.5 -36v0zM723 412q53 0 91 -28.5t56 -78t9 -112.5q-8 -59 -37.5 -105t-73 -72t-94.5 -26q-54 0 -92.5 28t-56.5 77.5t-9 111.5q9 60 38.5 106t73.5 72.5t95 26.5v0zM672 58q30 0 53 18.5t38.5 52t20.5 77.5q6 43 1.5 73.5t-20 47.5t-42.5 17q-29 0 -52 -19t-38.5 -53.5
t-21.5 -79.5q-6 -40 -1 -70.5t20.5 -47t41.5 -16.5v0zM217 3q-4 -6 -9 -6.5t-14 -0.5l-36 1q-12 0 -14.5 9.5t3.5 18.5l580 719q5 7 9.5 6.5t11.5 -0.5h45q7 0 12 -5t-2 -13z" />
    <glyph glyph-name="ampersand" unicode="&#x26;" horiz-adv-x="818" 
d="M426 753q63 0 109 -20.5t69 -56.5t16 -86q-4 -32 -26.5 -66t-61.5 -65.5t-94 -56.5q-21 -3 -13 -16l105 -139q5 -6 9.5 -2.5t11.5 14.5q16 13 33.5 31t34 38t29.5 40t21 37q4 4 8.5 3.5t11.5 -2.5l61 -21q8 -3 12 -11.5t1 -17.5q-14 -25 -36.5 -54.5t-50 -62.5t-58.5 -66
q-8 -5 -11 -8.5t2 -9.5q16 -12 37 -21.5t46 -15.5t50 -7q11 0 16.5 -6t3.5 -14l-9 -72q-2 -11 -6 -15t-12 -4q-45 0 -87.5 10.5t-78 28t-60.5 39.5q-9 4 -14 1t-11 -11q-56 -37 -115 -55t-125 -18q-114 0 -170.5 54.5t-43.5 149.5q8 57 51.5 105.5t134.5 98.5
q13 5 16.5 10.5t-3.5 17.5q-26 31 -38.5 68.5t-7.5 76.5q8 52 42 91.5t86.5 62.5t114.5 23v0zM430 671q-32 0 -57 -14t-40.5 -36.5t-19.5 -48.5q-2 -15 3 -32.5t17 -34.5l27 -36q3 -3 9 0t10 6q58 25 89.5 55.5t37.5 68.5q5 36 -17.5 54t-58.5 18v0zM305 327q-6 9 -12.5 6
t-13.5 -9q-44 -18 -73.5 -52.5t-35.5 -74.5q-6 -44 23.5 -74t79.5 -30q36 0 73.5 15.5t63.5 38.5q8 3 12.5 8.5t-0.5 12.5l-117 159v0z" />
    <glyph glyph-name="quotesingle" unicode="'" horiz-adv-x="245" 
d="M193 488q-3 -10 -7 -13t-16 -3h-32q-10 0 -14 6t-4 15l3 238q0 7 3 9t9 2h109q6 0 10.5 -5.5t2.5 -12.5z" />
    <glyph glyph-name="parenleft" unicode="(" horiz-adv-x="304" 
d="M149 -165q-12 0 -14 16q-32 69 -53.5 137t-28.5 142.5t5 161.5q17 122 71 236t129 209q9 5 22 5h62q7 0 9.5 -6t0.5 -12q-42 -64 -78 -136.5t-62 -151t-38 -159.5q-15 -110 -3 -215.5t48 -220.5q7 -6 -4 -6h-66v0z" />
    <glyph glyph-name="parenright" unicode=")" horiz-adv-x="304" 
d="M-31 -165q-7 0 -9.5 6t-0.5 12q42 64 78.5 136.5t62.5 151t37 159.5q15 111 3 216t-48 220q-7 6 4 6h66q12 0 14 -16q32 -69 53.5 -137t28 -142.5t-5.5 -161.5q-17 -122 -70.5 -235.5t-128.5 -209.5q-9 -5 -22 -5h-62v0z" />
    <glyph glyph-name="asterisk" unicode="*" horiz-adv-x="436" 
d="M258 490q-1 3 -4 0t-4 -6l-93 -123q-3 -4 -7.5 -1.5t-9.5 5.5l-44 34q-4 4 -6 8.5t2 9.5l105 107q2 3 3.5 5t-3.5 3l-117 35q-5 2 -7.5 7.5t-0.5 12.5l27 51q3 5 5.5 5t7.5 -3l110 -49q4 -2 8.5 2t5.5 9l9 133q0 3 1.5 5t7.5 2h64q5 0 9 -5.5t2 -9.5l-29 -134
q-1 -4 -0.5 -3t5.5 2l126 52q7 4 11.5 -0.5t4.5 -11.5l10 -50q1 -7 0 -10t-7 -5l-125 -37q-4 -1 -7.5 -5t-1.5 -7l71 -102q3 -5 3 -10t-8 -11l-47 -29q-7 -5 -13.5 -1.5t-7.5 7.5z" />
    <glyph glyph-name="plus" unicode="+" horiz-adv-x="574" 
d="M532 341q0 -10 -5 -13t-17 -3h-428q-10 0 -14.5 6t-3.5 15l10 63q1 8 3 10t8 2h443q6 0 10.5 -5.5t3.5 -11.5zM245 139q-11 0 -16 7.5t-3 19.5l60 428q1 10 4 12t12 2h63q8 0 13 -5.5t3 -11.5l-61 -443q-1 -6 -3.5 -7.5t-9.5 -1.5h-62z" />
    <glyph glyph-name="comma" unicode="," horiz-adv-x="239" 
d="M-9 -151q-11 0 -3 15l63 110q8 14 5 20t-13 6h-18q-10 0 -13 3t-1 11l16 113q1 8 5.5 13.5t10.5 5.5h120q13 0 11 -15l-16 -102q-1 -6 -2.5 -10.5t-4.5 -7.5l-110 -144q-9 -10 -16 -14t-15 -4h-19v0z" />
    <glyph glyph-name="hyphen" unicode="-" horiz-adv-x="380" 
d="M322 232q-2 -11 -6.5 -13.5t-15.5 -2.5h-232q-11 0 -15 6t-4 15l10 63q1 8 3.5 10t8.5 2h247q6 0 10.5 -5.5t2.5 -11.5z" />
    <glyph glyph-name="period" unicode="." horiz-adv-x="237" 
d="M155 17q-2 -11 -6 -14t-18 -3h-101q-12 0 -16.5 6.5t-3.5 15.5l16 113q2 9 4.5 11t8.5 2h118q7 0 11 -5.5t2 -13.5z" />
    <glyph glyph-name="slash" unicode="/" horiz-adv-x="357" 
d="M-19 -26q-8 0 -12 5t-1 11l355 743q3 5 7 7t10 2h60q10 0 13.5 -7t-1.5 -19l-347 -727q-5 -11 -10.5 -13t-14.5 -2h-59v0z" />
    <glyph glyph-name="zero" unicode="0" horiz-adv-x="701" 
d="M415 753q76 0 133 -37t89 -105t32 -163q0 -20 -1.5 -41.5t-4.5 -44.5q-16 -117 -65.5 -200t-122 -127t-157.5 -44q-78 0 -135.5 36t-89.5 103t-32 160q0 20 2 41.5t5 43.5q12 88 44 158t78.5 119t104 75t120.5 26v0zM323 97q49 0 87 28.5t64.5 90t40.5 160.5
q4 32 6.5 59.5t2.5 49.5q0 86 -30 124.5t-84 38.5q-48 0 -86.5 -30t-66 -93t-41.5 -164q-4 -30 -6.5 -56t-2.5 -48q0 -85 31 -122.5t85 -37.5v0z" />
    <glyph glyph-name="one" unicode="1" horiz-adv-x="494" 
d="M421 111q15 0 13 -14l-12 -85q-1 -7 -4 -9.5t-12 -2.5h-384q-9 0 -11.5 3t-1.5 11l12 87q1 6 4 8t10 2h114q10 0 11 11l65 464q1 4 -0.5 5.5t-7.5 -0.5l-114 -35q-20 -5 -17 14l9 63q1 10 4 13.5t10 7.5l171 79q13 6 21 7.5t18 1.5h63q13 0 11 -16l-86 -608q-1 -7 7 -7
h107v0z" />
    <glyph glyph-name="two" unicode="2" horiz-adv-x="628" 
d="M282 320q64 52 106 91t62 73t20 68q0 30 -13.5 50t-37 30.5t-54.5 10.5q-43 0 -89.5 -27t-83.5 -80q-5 -8 -13 -3l-90 54q-4 2 -3.5 8t8.5 16q53 70 128.5 105.5t155.5 35.5q70 0 122.5 -22.5t82.5 -65t30 -103.5q0 -56 -22.5 -101t-63.5 -84.5t-96 -82.5l-206 -158
q-6 -5 -6 -9t6 -4h318q18 0 15 -14l-12 -95q-1 -7 -4 -10t-13 -3h-502q-23 0 -20 23l9 65q1 6 4 11.5t12 14.5t28 23z" />
    <glyph glyph-name="three" unicode="3" horiz-adv-x="658" 
d="M119 636q-8 10 3 20q34 30 75.5 51.5t88.5 33t95 11.5q119 0 184 -48t65 -125q0 -43 -20 -79.5t-54.5 -63.5t-76.5 -41q-5 -2 -5.5 -5t5.5 -5q56 -14 90.5 -55.5t34.5 -99.5q0 -76 -40.5 -130t-114 -82t-171.5 -28q-67 0 -116.5 16.5t-84.5 45t-58 62.5q-7 12 -1 17
l77 51q5 4 8.5 3.5t5.5 -3.5q37 -46 79.5 -66t97.5 -20q48 0 88 16.5t63 47t23 70.5q0 33 -18.5 55.5t-50 34.5t-69.5 12l-93 1q-12 0 -10 11l11 85q1 8 14 8l70 1q46 1 85 18t62.5 46t23.5 65q0 35 -29.5 58t-80.5 23q-38 0 -67.5 -10t-56.5 -26.5t-56 -39.5q-11 -8 -19 2
l-57 62v0z" />
    <glyph glyph-name="four" unicode="4" horiz-adv-x="675" 
d="M435 728q8 9 14 11.5t20 2.5h109q15 0 13 -16l-61 -433q-1 -7 7 -7h89q8 0 11.5 -2.5t2.5 -10.5l-11 -77q-1 -7 -4 -10t-13 -3h-87q-11 0 -13 -12l-20 -155q-2 -10 -6.5 -13t-16.5 -3h-109q-20 0 -18 17l22 159q2 7 -7 7h-313q-17 0 -15 16l11 77q2 9 7.5 18t18.5 25
l369 409v0zM369 286q11 0 12 11l40 278q2 16 -13 -2l-242 -275q-6 -7 -5 -9.5t6 -2.5h202z" />
    <glyph glyph-name="five" unicode="5" horiz-adv-x="669" 
d="M626 742q12 0 14.5 -4.5t0.5 -14.5l-17 -88q-2 -7 -5.5 -10t-13.5 -3h-327q-8 0 -11 -2.5t-6 -10.5l-36 -162q-1 -5 1 -6.5t7 -0.5q40 15 76.5 25t80.5 10q66 0 119 -22.5t83 -66.5t30 -110q0 -88 -43 -152.5t-117 -99t-168 -34.5q-61 0 -112 15t-90.5 42.5t-66.5 63.5
q-6 10 -5 14.5t7 8.5l75 50q6 4 11 1t11 -10q28 -31 63.5 -55.5t93.5 -24.5t102 22.5t68.5 62t24.5 86.5q0 33 -15 56t-43 35t-66 12q-29 0 -54.5 -7t-49.5 -18.5t-47 -24.5q-7 -2 -12 -1.5t-11 4.5l-75 45q-7 5 -7.5 13t1.5 19l75 326q3 12 8 14.5t23 2.5h423z" />
    <glyph glyph-name="six" unicode="6" horiz-adv-x="677" 
d="M433 751q40 0 76 -11t64.5 -29.5t47 -42.5t23.5 -50q1 -8 -7 -11l-92 -31q-8 -3 -20 17q-15 24 -36 38.5t-58 14.5q-59 0 -103 -29.5t-71 -80t-36 -115.5q-1 -4 -1.5 -7t-0.5 -5q0 -3 3 -3.5t10 2.5q36 17 78 29.5t93 12.5q71 0 122 -24.5t78 -67.5t27 -100
q0 -58 -25 -107t-68 -85t-98.5 -55.5t-116.5 -19.5q-83 0 -141.5 35t-89.5 100t-31 154q0 19 1.5 40t4.5 44q17 121 67.5 207.5t128 133t171.5 46.5v0zM372 351q-24 0 -52 -6t-53 -15t-41 -19q-18 -11 -22.5 -28.5t-4.5 -46.5q0 -28 7 -54t22 -47t38.5 -32.5t55.5 -11.5
q44 0 81 22.5t59.5 59t22.5 78.5q0 46 -31 73t-82 27v0z" />
    <glyph glyph-name="seven" unicode="7" horiz-adv-x="612" 
d="M621 742q13 0 16.5 -7t1.5 -15l-8 -48q-3 -14 -9.5 -27t-17.5 -25q-45 -56 -88 -120t-82 -131.5t-70.5 -132t-54 -121t-32.5 -97.5q-2 -10 -6 -14t-13 -4h-132q-10 0 -14 8t0 21q22 54 53 117t72.5 135t96.5 154t126 175q5 6 4 9t-10 3h-352q-10 0 -13 5.5t-1 13.5l22 89
q2 7 6.5 9.5t13.5 2.5h491z" />
    <glyph glyph-name="eight" unicode="8" horiz-adv-x="678" 
d="M399 752q72 0 126.5 -23.5t85 -65.5t30.5 -98q0 -36 -13 -64t-33 -49t-41.5 -35.5t-37.5 -24.5q-6 -4 -6.5 -7t6.5 -7q14 -8 32.5 -19.5t36 -28.5t29 -44t11.5 -66q0 -57 -25.5 -100t-71 -71.5t-105 -43.5t-126.5 -15q-79 0 -138 20.5t-91.5 60.5t-32.5 97q0 46 19 81
t51 63.5t74 50.5q7 3 8 7t-7 9q-19 14 -36.5 29.5t-28.5 39.5t-11 60q0 67 37.5 122t104 88.5t153.5 33.5v0zM399 652q-46 0 -81 -17.5t-54.5 -46t-19.5 -61.5q0 -27 16 -45t51 -28l81 -24q19 -5 40 5t40.5 30.5t31 46t11.5 50.5q0 41 -31 65.5t-85 24.5v0zM303 90
q56 0 95 15.5t60 42.5t21 63q0 30 -17.5 50.5t-58.5 33.5l-105 31q-14 5 -37 -5t-45 -31t-37 -49t-15 -60q0 -42 36.5 -66.5t102.5 -24.5v0z" />
    <glyph glyph-name="nine" unicode="9" horiz-adv-x="675" 
d="M274 -9q-47 0 -84 12.5t-63.5 31.5t-43.5 42t-24 44q-3 10 7 14l90 30q14 5 22 -13q15 -27 37.5 -41.5t61.5 -14.5q58 0 101 29t70 79.5t36 116.5q1 11 -2.5 13t-12.5 -3q-37 -16 -76 -27.5t-89 -11.5q-71 0 -122 24.5t-78 68t-27 100.5q0 59 25 107.5t68.5 84t99 55
t115.5 19.5q83 0 141 -35t88.5 -99.5t30.5 -153.5q0 -93 -25 -178t-73 -151t-117 -104.5t-156 -38.5v0zM334 391q25 0 50.5 6t50 16t43.5 22q19 11 24 28.5t5 44.5q0 28 -7 53.5t-22 46t-38 32.5t-54 12q-44 0 -81.5 -23t-59.5 -59t-22 -78q0 -46 30.5 -73.5t80.5 -27.5v0z
" />
    <glyph glyph-name="colon" unicode=":" horiz-adv-x="237" 
d="M206 386q-1 -11 -5.5 -14t-17.5 -3h-102q-11 0 -15.5 6.5t-3.5 16.5l15 110q2 8 5 10t9 2h118q7 0 11 -5.5t2 -12.5zM155 20q-1 -11 -5.5 -14t-18.5 -3h-101q-12 0 -16.5 6.5t-2.5 16.5l15 110q2 8 4.5 10t8.5 2h118q7 0 11 -5t2 -13z" />
    <glyph glyph-name="semicolon" unicode=";" horiz-adv-x="249" 
d="M-3 -154q-7 0 -11 7.5t-1 14.5l64 113q6 11 7 15t-9 4h-16q-10 0 -15 6t-4 15l16 114q1 7 4 9t9 2h119q6 0 10 -5.5t3 -12.5l-16 -107q-1 -8 -3 -13l-110 -149q-7 -8 -15 -10.5t-16 -2.5h-16v0zM81 365q-11 0 -16 6.5t-4 15.5l16 113q2 8 4.5 10t8.5 2h118q7 0 11 -5
t3 -13l-16 -112q-2 -12 -6 -14.5t-18 -2.5h-101v0z" />
    <glyph glyph-name="less" unicode="&#x3c;" horiz-adv-x="566" 
d="M487 146q-2 -15 -9.5 -17t-17.5 3l-389 159q-8 4 -13.5 10.5t-3.5 15.5l10 78q1 11 6 15t14 7l433 161q13 5 21.5 -3.5t6.5 -19.5l-9 -65q-1 -11 -8.5 -17t-23.5 -13l-300 -108l263 -108q16 -7 23.5 -15t5.5 -20z" />
    <glyph glyph-name="equal" unicode="=" horiz-adv-x="574" 
d="M547 439q-2 -11 -6.5 -13.5t-16.5 -2.5h-428q-10 0 -14.5 6t-3.5 15l9 62q2 8 4 10.5t8 2.5h443q6 0 10.5 -5.5t2.5 -12.5zM514 207q-1 -10 -5.5 -13t-16.5 -3h-428q-10 0 -14.5 6t-3.5 15l8 63q2 8 4.5 10t8.5 2h443q5 0 9.5 -5.5t3.5 -11.5z" />
    <glyph glyph-name="greater" unicode="&#x3e;" horiz-adv-x="566" 
d="M55 216q2 13 8.5 18t24.5 12l299 106l-264 111q-32 13 -29 34l10 66q3 23 27 13l388 -161q8 -3 14 -10t4 -17l-11 -78q-1 -9 -5.5 -13t-13.5 -8l-433 -160q-12 -4 -21 3t-7 21l9 63v0z" />
    <glyph glyph-name="question" unicode="?" horiz-adv-x="531" 
d="M286 17q-1 -11 -5.5 -14t-17.5 -3h-102q-11 0 -15.5 6.5t-3.5 15.5l15 111q2 8 4 10t9 2h118q7 0 11 -5t3 -13zM71 588q-7 2 -9 9t1 16q42 67 110.5 103t153.5 36q74 0 124.5 -24t75.5 -66t18 -93q-7 -48 -32 -82t-58.5 -61.5t-67 -55.5t-58.5 -62t-32 -81
q-2 -10 -16 -10h-71q-8 0 -13.5 7.5t-3.5 19.5q7 53 30.5 92t54 69t60.5 56t51.5 53.5t26.5 62.5q5 39 -20.5 61.5t-71.5 22.5q-30 0 -60 -12.5t-54.5 -33t-39.5 -48.5q-3 -4 -6 -3.5t-11 2.5z" />
    <glyph glyph-name="at" unicode="@" horiz-adv-x="834" 
d="M620 -51q-43 -26 -103.5 -44t-132.5 -18q-92 0 -161.5 30t-113.5 82.5t-61 121.5t-6 148q11 80 49.5 150.5t99 125t139 85.5t170.5 31q68 0 130 -19.5t109 -59.5t69 -102t10 -148q-10 -74 -43 -131t-80.5 -88.5t-102.5 -31.5q-29 0 -48.5 8t-29.5 20t-13 27q-2 4 -5.5 0
t-6.5 -12q-27 -25 -62.5 -41t-79.5 -16q-42 0 -73.5 23t-46.5 64.5t-7 96.5q8 60 39.5 111t80 82t106.5 31q43 0 67 -17.5t36 -42.5q4 -1 8 3t6 9l7 19q2 4 3 3.5t5 -0.5h61q5 0 7.5 -3.5t1.5 -7.5l-66 -215q-12 -39 -6.5 -52t24.5 -13q29 0 57 21.5t49.5 62t29.5 98.5
q10 69 -6.5 116t-51.5 75.5t-81.5 41t-97.5 12.5q-82 0 -147.5 -26t-112.5 -72t-75.5 -105.5t-38.5 -126.5q-9 -67 4 -122t48 -94t90.5 -60t130.5 -21q45 0 76.5 8t57 21.5t50.5 28.5q9 4 14 0.5t6 -8.5l24 -37q4 -6 1.5 -11.5t-7.5 -10.5v0zM315 245q-6 -42 7.5 -69
t48.5 -27q31 0 60.5 19t50 49.5t28.5 65.5q9 35 3 59.5t-22 37.5t-40 13q-32 0 -61 -19.5t-49 -53.5t-26 -75v0z" />
    <glyph glyph-name="A" unicode="A" horiz-adv-x="756" 
d="M8 0q-8 0 -9 7t5 21l352 700q5 9 11.5 11.5t16.5 2.5h126q10 0 14.5 -7t6.5 -16l152 -699q2 -7 -1 -13.5t-11 -6.5h-121q-13 0 -16 16l-35 161q-1 8 -11 8h-259q-10 0 -15 -11l-84 -166q-2 -5 -5.5 -6.5t-11.5 -1.5h-105v0zM468 298q14 0 11 16l-60 265q-1 10 -5.5 9.5
t-9.5 -10.5l-133 -265q-4 -9 -3 -12t8 -3h192z" />
    <glyph glyph-name="B" unicode="B" horiz-adv-x="715" 
d="M56 0q-8 0 -10.5 4.5t-0.5 15.5l99 706q2 16 18 16h257q130 0 200 -43.5t70 -127.5q0 -74 -42.5 -120t-112.5 -69q-7 -1 -7 -4.5t5 -5.5q62 -17 94 -53.5t32 -93.5q0 -67 -27 -110.5t-73.5 -68.5t-104 -35.5t-118.5 -10.5h-279v0zM334 102q31 0 61.5 7t56 23t40.5 41
t15 63q0 30 -16 49t-44.5 28.5t-66.5 9.5h-130q-8 0 -12 -3.5t-5 -12.5l-27 -192q-1 -8 1.5 -10.5t8.5 -2.5h118zM389 427q40 0 74.5 15t56 44t21.5 69q0 43 -34.5 64t-93.5 21h-117q-9 0 -13.5 -3.5t-5.5 -12.5l-25 -184q-1 -7 1 -10t8 -3h128z" />
    <glyph glyph-name="C" unicode="C" horiz-adv-x="719" 
d="M445 752q76 0 134 -30t92 -80t35 -112q1 -17 -13 -17l-110 -7q-12 -1 -13 21q-5 53 -36 86.5t-91 33.5q-53 0 -91.5 -23.5t-65.5 -63.5t-43 -88.5t-23 -99.5t-7 -96q0 -90 36 -132.5t109 -42.5q65 0 115 31.5t85 101.5q5 11 21 7l89 -23q10 -3 1 -26q-10 -22 -28.5 -49.5
t-46 -54t-64.5 -49t-82 -36t-99 -13.5q-91 0 -155.5 38.5t-98 107.5t-33.5 163q0 67 14.5 133t45 123.5t76 102t107.5 69.5t140 25v0z" />
    <glyph glyph-name="D" unicode="D" horiz-adv-x="741" 
d="M65 0q-10 0 -15.5 7t-4.5 18l99 703q2 9 5.5 11.5t13.5 2.5h190q121 0 200 -36t118 -102.5t39 -158.5q0 -138 -52.5 -238t-153 -153.5t-243.5 -53.5h-196v0zM275 106q100 0 162 43t91 120.5t29 182.5q0 66 -23 106.5t-68 59t-112 18.5h-61q-14 0 -17 -16l-68 -498
q-1 -8 2 -12t10 -4h55z" />
    <glyph glyph-name="E" unicode="E" horiz-adv-x="645" 
d="M145 729q1 8 3.5 10.5t9.5 2.5h489q13 0 10 -19l-11 -75q-1 -9 -5 -12.5t-14 -3.5h-335q-7 0 -10.5 -2.5t-4.5 -10.5l-25 -180q-1 -7 1 -9t7 -2h234q8 0 10 -3.5t1 -9.5l-12 -85q-1 -10 -13 -10h-235q-11 0 -13 -14l-25 -185q-1 -11 6 -11h355q8 0 10.5 -3t0.5 -11
l-11 -84q-1 -7 -3.5 -9.5t-11.5 -2.5h-491q-20 0 -17 22l100 707v0z" />
    <glyph glyph-name="F" unicode="F" horiz-adv-x="621" 
d="M145 728q1 9 4 11.5t10 2.5h481q11 0 9 -14l-12 -80q-1 -9 -4 -12.5t-13 -3.5h-330q-7 0 -9.5 -3t-4.5 -13l-26 -187q-1 -7 1 -9.5t8 -2.5h240q7 0 9 -2t1 -8l-11 -85q-1 -6 -4 -8.5t-12 -2.5h-238q-6 0 -8.5 -3t-4.5 -14l-39 -278q-1 -11 -5 -13.5t-14 -2.5h-115
q-11 0 -13 4t0 18l100 706v0z" />
    <glyph glyph-name="G" unicode="G" horiz-adv-x="747" 
d="M343 -10q-89 0 -152 37t-96.5 105.5t-33.5 161.5t26.5 175.5t77 146.5t122 100t160.5 36q79 0 138 -31t92 -79.5t34 -104.5q0 -16 -7 -17l-116 -17q-4 -1 -6.5 4t-4.5 18q-3 33 -19 60.5t-45 44t-72 16.5q-61 0 -104 -32.5t-70.5 -87t-40.5 -120.5t-13 -132
q0 -94 37.5 -136t106.5 -42q39 0 70 12.5t54 33t38.5 45t23.5 49.5l7 38q6 12 -9 12h-137q-9 0 -8 12l8 70q1 9 9 9l275 -1q10 0 13 -3t1 -12l-49 -349q-2 -12 -15 -12h-27q-15 0 -19 14l-11 80q-1 6 -5.5 5.5t-11.5 -7.5q-19 -25 -49.5 -48.5t-73 -38.5t-98.5 -15v0z" />
    <glyph glyph-name="H" unicode="H" horiz-adv-x="746" 
d="M247 327q-5 0 -8.5 -3t-4.5 -12l-42 -296q-1 -10 -6 -13t-16 -3h-111q-11 0 -13.5 4t-1.5 13l101 712q1 8 3.5 10.5t9.5 2.5h124q7 0 9 -3t0 -11l-37 -273q-1 -9 1 -11.5t8 -2.5h269q7 0 10 6t4 13l38 270q2 8 5 10t9 2h123q7 0 9.5 -4t0.5 -17l-100 -706
q-1 -10 -4 -12.5t-14 -2.5h-110q-12 0 -16 4.5t-2 15.5l41 300q1 7 -10 7h-269z" />
    <glyph glyph-name="I" unicode="I" horiz-adv-x="306" 
d="M279 742q15 0 12 -20l-99 -704q-1 -12 -5.5 -15t-17.5 -3h-108q-12 0 -14.5 6t-1.5 16l100 707q1 8 3.5 10.5t9.5 2.5h121z" />
    <glyph glyph-name="J" unicode="J" horiz-adv-x="437" 
d="M351 178q-9 -66 -35 -107.5t-70 -61t-108 -19.5q-38 0 -68 7t-49 12q-13 4 -17 8t-3 11l23 87q1 7 4.5 10t11.5 0q13 -3 29.5 -7.5t37.5 -4.5q45 0 69.5 25.5t32.5 83.5l71 507q2 8 4.5 10.5t9.5 2.5h123q13 0 10 -20l-76 -544v0z" />
    <glyph glyph-name="K" unicode="K" horiz-adv-x="729" 
d="M654 19q9 -19 -10 -19h-126q-16 0 -20 17l-136 333q-2 7 -6.5 2.5t-10.5 -11.5l-114 -115q-5 -4 -8 -9t-5 -12l-26 -189q-1 -9 -6 -12.5t-16 -3.5h-111q-9 0 -12 6t-2 16l100 707q1 8 3.5 10.5t9.5 2.5h120q6 0 10.5 -5.5t2.5 -13.5l-45 -322q-1 -9 1.5 -5.5t8.5 9.5
l317 326q7 7 13 9t18 2h113q12 0 13.5 -5t-5.5 -12l-245 -243q-4 -5 -6.5 -9t-1.5 -12l182 -442v0z" />
    <glyph glyph-name="L" unicode="L" horiz-adv-x="619" 
d="M144 727q2 15 15 15h122q14 0 10 -20l-84 -599q-2 -13 9 -13h330q14 0 12 -18l-11 -80q-1 -8 -4.5 -10t-11.5 -2h-469q-20 0 -17 22l99 705v0z" />
    <glyph glyph-name="M" unicode="M" horiz-adv-x="934" 
d="M56 0q-8 0 -10.5 4.5t-0.5 19.5l100 705q1 9 3.5 11t10.5 2h170q9 0 13.5 -4t5.5 -12l110 -472q2 -7 5.5 -6.5t7.5 8.5l239 470q7 16 20 16h179q13 0 11 -14l-100 -711q-1 -11 -5 -14t-16 -3h-107q-11 0 -16 4.5t-3 17.5l72 515q2 6 -0.5 6t-5.5 -7l-265 -524
q-3 -7 -7.5 -9.5t-12.5 -2.5h-73q-8 0 -12 3.5t-6 14.5l-115 515q-2 7 -5 7t-5 -6l-73 -521q-1 -8 -4.5 -10.5t-11.5 -2.5h-93v0z" />
    <glyph glyph-name="N" unicode="N" horiz-adv-x="758" 
d="M734 742q12 0 10 -14l-101 -717q-1 -11 -15 -11h-84q-6 0 -11 3.5t-10 10.5l-275 486q-4 7 -8 6t-5 -11l-68 -481q-1 -8 -4.5 -11t-13.5 -3h-92q-8 0 -11 5.5t-2 13.5l101 710q1 8 3.5 10.5t11.5 2.5h99q10 0 15 -4t9 -12l257 -463q5 -8 11 -7t7 12l65 462q2 8 4.5 10
t10.5 2h96z" />
    <glyph glyph-name="O" unicode="O" horiz-adv-x="770" 
d="M352 -10q-92 0 -157 35.5t-99.5 103.5t-34.5 163q0 19 1.5 40.5t4.5 42.5q17 119 69 203t132.5 129t180.5 45q90 0 155 -36.5t99.5 -105t34.5 -165.5q0 -19 -1 -40t-5 -43q-16 -117 -67.5 -200.5t-131.5 -127.5t-181 -44v0zM357 96q93 0 147.5 67t75.5 211q4 29 5.5 53.5
t1.5 45.5q0 90 -35 132t-106 42q-93 0 -149 -69.5t-77 -217.5q-4 -26 -6 -50t-2 -44q0 -88 36 -129t109 -41v0z" />
    <glyph glyph-name="P" unicode="P" horiz-adv-x="706" 
d="M244 293q-8 0 -11 -4t-4 -10l-37 -263q-1 -10 -5.5 -13t-15.5 -3h-113q-17 0 -13 21l100 707q1 8 3.5 11t9.5 3h283q74 0 132.5 -21t92.5 -64.5t34 -110.5q0 -81 -39 -137.5t-106 -86t-154 -29.5h-157zM549 546q0 48 -33.5 68.5t-92.5 20.5h-128q-9 0 -13 -4t-6 -13
l-28 -204q-1 -9 1 -11.5t8 -2.5h135q47 0 82.5 18.5t55 51.5t19.5 76v0z" />
    <glyph glyph-name="Q" unicode="Q" horiz-adv-x="772" 
d="M67 376q17 119 69 203t132 128.5t180 44.5q92 0 157 -36.5t99.5 -105t34.5 -164.5q0 -19 -1.5 -40.5t-4.5 -43.5q-15 -107 -57 -183t-110 -124q-10 -7 -8 -14q3 -11 18 -23.5t37 -22.5t48 -14q8 -1 10.5 -4t1.5 -9l-11 -77q-1 -10 -7 -13t-24 -3q-32 0 -66 11.5t-65 38.5
t-55 70q-5 8 -18 4q-19 -5 -38 -7t-37 -2q-91 0 -156 35.5t-100 103t-35 163.5q0 20 1.5 41t4.5 43v0zM220 360q-4 -27 -6 -51t-2 -45q0 -87 36 -127.5t108 -40.5q93 0 148.5 67t75.5 212q4 28 6 52.5t2 45.5q0 88 -35 131t-108 43q-93 0 -148.5 -70.5t-76.5 -216.5v0z" />
    <glyph glyph-name="R" unicode="R" horiz-adv-x="713" 
d="M622 21q7 -21 -14 -21h-121q-8 0 -12.5 4.5t-6.5 14.5l-75 292q-1 6 -4 8t-12 2h-130q-12 0 -14 -12l-41 -292q-1 -11 -6.5 -14t-18.5 -3h-105q-11 0 -14.5 6.5t-2.5 15.5l100 707q1 8 3.5 10.5t9.5 2.5h301q118 0 182.5 -45t64.5 -129q0 -53 -20.5 -97.5t-57 -77.5
t-86.5 -49q-9 -4 -11.5 -7t-1.5 -8l93 -308v0zM393 423q49 0 84.5 15.5t55 45.5t19.5 74q0 42 -29 62.5t-82 20.5h-149q-11 0 -14 -15l-28 -191q-1 -8 1.5 -10t7.5 -2h134v0z" />
    <glyph glyph-name="S" unicode="S" horiz-adv-x="665" 
d="M545 586q-21 24 -58.5 42.5t-94.5 18.5q-44 0 -78.5 -13.5t-54 -38.5t-19.5 -59q0 -17 8.5 -31.5t26.5 -27t44 -22.5l147 -51q77 -26 113 -66.5t36 -99.5q0 -80 -42 -135.5t-113.5 -84t-159.5 -28.5q-103 0 -171.5 35t-103.5 99q-4 8 -4 14t8 10l65 40q11 7 19 4t14 -11
q23 -29 45.5 -49.5t55 -30.5t84.5 -10q44 0 80 11.5t57 36.5t21 65q0 27 -19 46.5t-65 35.5l-145 51q-72 24 -106.5 69.5t-34.5 101.5t24 100.5t65 77t95 49.5t115 17q57 0 103.5 -14t81.5 -38t58 -54q6 -8 6.5 -13t-5.5 -9l-76 -51q-4 -2 -9.5 1.5t-12.5 11.5v0z" />
    <glyph glyph-name="T" unicode="T" horiz-adv-x="669" 
d="M102 730q1 7 4 9.5t12 2.5h568q9 0 11 -3t0 -10l-12 -84q-1 -6 -4.5 -8.5t-10.5 -2.5h-192q-8 0 -11 -3t-5 -10l-85 -606q-1 -9 -4.5 -12t-10.5 -3h-118q-10 0 -13 4.5t-1 14.5l85 603q1 12 -10 12h-202q-15 0 -13 12z" />
    <glyph glyph-name="U" unicode="U" horiz-adv-x="717" 
d="M646 262q-14 -100 -56 -160t-109 -86t-156 -26q-136 0 -197 56.5t-61 165.5q0 17 2 36t4 39l63 441q1 9 4 11.5t9 2.5h119q8 0 12 -6t2 -14l-65 -464q-1 -12 -2 -22.5t-1 -21.5q0 -61 32.5 -88.5t93.5 -27.5q49 0 87.5 17.5t63.5 55t33 97.5l65 461q2 8 4 10.5t9 2.5h95
q7 0 11 -6t3 -14l-65 -460v0z" />
    <glyph glyph-name="V" unicode="V" horiz-adv-x="724" 
d="M745 742q18 0 10 -18l-347 -708q-5 -10 -11 -13t-17 -3h-105q-12 0 -18.5 3t-8.5 13l-145 709q-4 17 13 17h121q13 0 16 -19l104 -536q3 -17 11 -1l256 544q3 8 7.5 10t11.5 2h102v0z" />
    <glyph glyph-name="W" unicode="W" horiz-adv-x="1071" 
d="M1086 742q14 0 15.5 -6.5t-5.5 -23.5l-303 -696q-5 -10 -10.5 -13t-17.5 -3h-91q-12 0 -18.5 3.5t-7.5 13.5l-72 483q-1 7 -3 6.5t-6 -6.5l-209 -484q-4 -10 -9.5 -13t-17.5 -3h-96q-22 0 -25 18l-106 700q-2 12 2 18t17 6h105q12 0 16.5 -5t5.5 -14l71 -495
q2 -10 4.5 -10t6.5 9l214 503q3 8 7.5 10t16.5 2h92q12 0 15 -5t4 -14l73 -501q1 -6 4.5 -6t6.5 9l212 505q3 8 7.5 10t15.5 2h86v0z" />
    <glyph glyph-name="X" unicode="X" horiz-adv-x="715" 
d="M635 30q10 -19 7.5 -24.5t-16.5 -5.5h-117q-9 0 -15 2.5t-9 10.5l-125 250q-4 10 -8.5 9.5t-11.5 -9.5l-196 -253q-5 -7 -12 -8.5t-16 -1.5h-101q-14 0 -16 8.5t12 27.5l264 329q8 9 10 15t-2 15l-171 330q-3 7 -1 12t11 5h123q11 0 16 -2.5t8 -11.5l111 -226q7 -14 17 0
l178 230q5 7 10 8.5t15 1.5h111q11 0 10.5 -8.5t-5.5 -15.5l-256 -317q-7 -9 -7.5 -14t1.5 -11l181 -346v0z" />
    <glyph glyph-name="Y" unicode="Y" horiz-adv-x="715" 
d="M736 742q10 0 12 -6t-3 -13l-293 -392q-6 -7 -9 -16t-6 -30l-38 -267q-2 -12 -7 -15t-18 -3h-108q-11 0 -13.5 4.5t-1.5 14.5l39 276q2 12 1.5 18t-4.5 15l-183 396q-5 9 -3 13.5t14 4.5h124q11 0 15.5 -5t8.5 -14l122 -281q6 -15 16 0l204 288q6 8 10.5 10t15.5 2h105v0
z" />
    <glyph glyph-name="Z" unicode="Z" horiz-adv-x="664" 
d="M23 0q-11 0 -15.5 4t-3.5 14l5 35q1 10 4.5 17t12.5 18l433 535q5 6 5.5 7.5t-7.5 1.5h-326q-17 0 -15 20l11 79q2 7 4 9t8 2h538q12 0 10 -15l-5 -39q-1 -8 -3.5 -13t-9.5 -15l-443 -541q-8 -8 1 -8h357q8 0 10.5 -2.5t1.5 -9.5l-13 -87q-1 -7 -3.5 -9.5t-11.5 -2.5
h-545v0z" />
    <glyph glyph-name="bracketleft" unicode="[" horiz-adv-x="306" 
d="M36 -165q-9 0 -15.5 6.5t-5.5 15.5l123 874q1 7 4 9t13 2h189q6 0 10 -4t2 -9l-7 -57q-1 -5 -3 -5.5t-7 -0.5h-82q-9 0 -15.5 -6.5t-7.5 -16.5l-102 -721q-1 -9 0.5 -10t10.5 -1h82q7 0 11 -5t3 -11l-7 -50q-1 -8 -2.5 -9t-9.5 -1h-184v0z" />
    <glyph glyph-name="backslash" unicode="\" horiz-adv-x="357" 
d="M239 -26q-19 0 -22 21l-143 727q-3 12 -1 16t12 4h60q6 0 11.5 -5t5.5 -11l146 -743q1 -6 0 -7.5t-9 -1.5h-60v0z" />
    <glyph glyph-name="bracketright" unicode="]" horiz-adv-x="306" 
d="M-31 -165q-6 0 -9.5 4t-2.5 9l8 57q1 5 2.5 5.5t6.5 0.5h82q9 0 15.5 6.5t7.5 16.5l102 721q1 10 -0.5 10.5t-10.5 0.5h-82q-7 0 -11 5t-3 11l7 50q2 8 3.5 9t8.5 1h185q10 0 15.5 -6.5t4.5 -15.5l-122 -874q-1 -7 -4 -9t-13 -2h-190v0z" />
    <glyph glyph-name="asciicircum" unicode="^" horiz-adv-x="475" 
d="M263 385q-2 8 -8 5t-9 -12l-135 -245q-3 -5 -6.5 -5h-10.5h-61q-7 0 -10 7t0 14l201 358q13 23 31.5 30t35 -2t22.5 -34l102 -361q2 -8 0.5 -10.5t-9.5 -2.5h-58q-7 0 -13.5 3.5t-6.5 8.5z" />
    <glyph glyph-name="underscore" unicode="_" horiz-adv-x="535" 
d="M428 -119q-1 -10 -5.5 -12.5t-16.5 -2.5l-389 -1q-10 0 -14 6t-3 15l9 63q2 8 4 10.5t8 2.5h403q6 0 10 -5.5t3 -12.5z" />
    <glyph glyph-name="grave" unicode="`" horiz-adv-x="299" 
d="M97 743q3 5 7.5 6.5t9.5 -0.5l219 -97q6 -3 8 -7t0 -11l-16 -33q-3 -6 -7 -7t-13 2l-221 64q-12 3 -14.5 8t0.5 13l27 62v0z" />
    <glyph glyph-name="a" unicode="a" horiz-adv-x="558" 
d="M334 53q-35 -33 -79 -48t-93 -15q-71 0 -110.5 36t-39.5 93q0 55 28 93t73 61.5t99 35t105 13.5l50 3q19 1 22 19l3 23q1 5 1.5 9.5t0.5 8.5q0 35 -21.5 53t-61.5 18q-36 0 -69.5 -15t-60.5 -53q-3 -5 -7 -6t-12 1l-81 21q-6 2 -8.5 8t3.5 20q35 54 97 81t146 27
q70 0 114 -18t65 -50t21 -75q0 -7 -0.5 -14t-1.5 -15l-50 -352q-1 -11 -4 -13.5t-13 -2.5h-85q-9 0 -12 6t-3 16l2 34q-1 17 -18 -3v0zM375 246q1 9 -0.5 11.5t-9.5 1.5l-47 -4q-24 -2 -54.5 -8t-58.5 -18.5t-46 -34.5t-18 -55q0 -28 20 -44.5t57 -16.5q29 0 55 9.5t45 23.5
q20 14 32.5 31t14.5 33z" />
    <glyph glyph-name="b" unicode="b" horiz-adv-x="606" 
d="M49 0q-12 0 -16.5 6.5t-3.5 17.5l99 705q2 8 5 10.5t9 2.5h106q7 0 8.5 -6t0.5 -14l-32 -232q-1 -9 2 -9.5t11 6.5q16 12 38 24t51 20.5t63 8.5q61 0 101 -26.5t60 -74t20 -111.5q0 -59 -15 -118.5t-47 -109.5t-82.5 -80t-120.5 -30q-39 0 -68.5 12.5t-49 31.5t-31.5 38
q-3 5 -8 4t-8 -12l-14 -47q-2 -10 -6.5 -13.5t-14.5 -3.5h-57zM180 178q-3 -32 8.5 -56t34.5 -37t52 -13q45 0 76.5 26t51 66t28.5 85.5t9 84.5q0 61 -24 91t-71 30q-40 0 -73.5 -18.5t-59.5 -44.5z" />
    <glyph glyph-name="c" unicode="c" horiz-adv-x="548" 
d="M331 540q61 0 102.5 -21.5t66 -55.5t33.5 -72q1 -7 -1 -10t-11 -4l-85 -10q-5 -1 -8 4t-5 13q-11 21 -22 36.5t-27 24t-40 8.5q-44 0 -76 -23.5t-53 -60.5t-31.5 -79.5t-10.5 -81.5q0 -65 30 -98.5t83 -33.5q48 0 81 22.5t64 67.5q4 5 14 2l61 -17q6 -1 8 -7t-1 -16
q-13 -22 -34.5 -46.5t-51 -45t-68 -33.5t-85.5 -13q-70 0 -122 29t-80.5 81t-28.5 122q0 61 21 118t60 102.5t94 71.5t123 26v0z" />
    <glyph glyph-name="d" unicode="d" horiz-adv-x="606" 
d="M399 0q-7 0 -13 4t-5 13l6 33q2 8 -2 9t-12 -6q-15 -13 -37.5 -28t-51.5 -25t-66 -10q-82 0 -133.5 53.5t-51.5 158.5q0 63 18 123t52.5 109t83 77.5t110.5 28.5q45 0 74 -16t52 -42q7 -8 13.5 -6t9.5 23l33 229q1 8 5 11t12 3h101q12 0 10 -21l-100 -704
q-1 -10 -5.5 -13.5t-16.5 -3.5h-86zM434 402q-21 26 -44.5 39t-54.5 13q-46 0 -78 -25t-53 -64t-30.5 -83.5t-9.5 -83.5q0 -44 13.5 -71.5t37 -40t53.5 -12.5q33 0 62 16t48 39.5t22 47.5z" />
    <glyph glyph-name="e" unicode="e" horiz-adv-x="584" 
d="M268 -10q-71 0 -123.5 29t-82 80.5t-29.5 119.5q0 62 21.5 119.5t61.5 103t95 72t122 26.5t117 -27t77.5 -77.5t27.5 -123.5q0 -13 -1 -27t-3 -29q-1 -8 -6 -12t-16 -4h-351q-10 0 -13 -11.5t-3 -32.5q0 -55 34.5 -85t88.5 -30q43 0 79 17.5t68 54.5q5 5 10 4.5t11 -3.5
l57 -28q17 -7 5 -22q-37 -43 -74.5 -68t-79.5 -35.5t-93 -10.5v0zM412 311q10 0 17 8t7 33q0 44 -26.5 75t-76.5 31q-40 0 -73 -20.5t-54.5 -54t-26.5 -72.5h233z" />
    <glyph glyph-name="f" unicode="f" horiz-adv-x="394" 
d="M396 530q8 0 11 -3.5t1 -9.5l-9 -66q-2 -12 -14 -12h-97q-8 0 -10 -14l-58 -412q-1 -8 -4 -10.5t-10 -2.5h-102q-6 0 -10.5 6t-3.5 13l58 413q2 7 -6 7h-84q-7 0 -8.5 5t-1.5 12l9 63q2 6 4 8.5t11 2.5h76q7 0 11.5 5t5.5 12l9 65q9 64 47.5 97t106.5 33h95q9 0 14.5 -4
t4.5 -13l-8 -61q-1 -10 -14 -10h-58q-25 0 -43 -17t-21 -45l-8 -52q-1 -10 10 -10h96v0z" />
    <glyph glyph-name="g" unicode="g" horiz-adv-x="622" 
d="M219 -174q-119 0 -185 32t-66 89q0 41 30.5 68.5t74.5 43.5q10 4 11.5 8t-6.5 8q-21 10 -31.5 24t-10.5 36q0 24 15.5 42t38.5 30.5t45 19.5q9 4 11.5 8.5t-5.5 7.5q-36 16 -55 44t-19 66q0 48 20.5 82.5t55.5 57.5t79 34t90 11q70 0 109 -15t59 -34q6 -6 14 -1t15 12
q14 15 32.5 25t38 16.5t34.5 6.5q11 0 16.5 -3.5t4.5 -14.5l-8 -56q-1 -13 -5.5 -17t-13.5 -4q-16 0 -31 -1.5t-24 -3.5q-33 -7 -25 -25q3 -6 5 -16t2 -23q0 -47 -22.5 -80.5t-60 -54t-81 -30.5t-87.5 -10q-8 0 -28.5 -1t-43.5 -5.5t-39 -13t-16 -22.5q0 -11 15.5 -15.5
t49.5 -7.5l137 -8q89 -5 130.5 -39.5t41.5 -93.5q0 -42 -18.5 -72.5t-50.5 -50.5t-72 -32t-84.5 -17t-86.5 -5v0zM225 -108q40 0 74 5t59.5 16t39.5 28.5t14 42.5t-17 36.5t-59 13.5l-156 9q-23 -4 -46 -14.5t-39 -27t-16 -40.5q0 -36 37 -52.5t109 -16.5v0zM287 277
q35 0 64.5 12.5t48 38.5t18.5 65q0 35 -26.5 55.5t-77.5 20.5q-35 0 -64.5 -14.5t-48 -41t-18.5 -63.5q0 -33 28 -53t76 -20v0z" />
    <glyph glyph-name="h" unicode="h" horiz-adv-x="592" 
d="M48 0q-10 0 -15 6.5t-4 15.5l100 707q1 8 5 10.5t11 2.5h99q14 0 11 -16l-35 -249q-2 -14 7 -8q38 26 68 41.5t58 22.5t57 7q70 0 107 -35t37 -95q0 -8 -0.5 -15.5t-2.5 -15.5l-51 -362q-2 -10 -5.5 -13.5t-14.5 -3.5h-93q-20 0 -17 22l49 344q1 5 1.5 10t0.5 9
q0 29 -17 44t-52 15q-25 0 -48 -8t-45.5 -24t-48.5 -40l-51 -356q-2 -10 -6 -13t-16 -3h-89z" />
    <glyph glyph-name="i" unicode="i" horiz-adv-x="256" 
d="M158 18q-2 -12 -6 -15t-17 -3h-87q-11 0 -15.5 6t-3.5 16l69 495q2 8 4.5 10.5t9.5 2.5h105q7 0 9.5 -6t1.5 -13zM246 624q-2 -11 -7 -15t-18 -4h-96q-10 0 -12.5 7t-0.5 17l14 95q2 18 17 18h106q6 0 9 -6.5t1 -14.5z" />
    <glyph glyph-name="j" unicode="j" horiz-adv-x="256" 
d="M155 -10q-12 -82 -54 -121t-131 -39q-45 0 -58 5t-11 17l9 66q1 6 3.5 10t9.5 5l46 4q23 2 37.5 17t20.5 50l72 513q1 8 4 10.5t10 2.5h101q7 0 11 -6t3 -13l-73 -521v0zM246 624q-2 -11 -7 -15t-18 -4h-96q-10 0 -12.5 7t-0.5 17l14 95q2 18 17 18h106q6 0 9 -6.5
t1 -14.5z" />
    <glyph glyph-name="k" unicode="k" horiz-adv-x="590" 
d="M530 18q3 -7 1.5 -12.5t-12.5 -5.5h-109q-10 0 -14.5 6t-7.5 15l-89 222q-4 13 -16 2l-94 -85q-4 -4 -8 -9.5t-6 -14.5l-16 -118q-2 -12 -6 -15t-17 -3h-87q-12 0 -16.5 6t-3.5 16l100 707q1 8 4 10.5t9 2.5h106q7 0 9 -6t0 -14l-59 -429q-1 -6 0.5 -4.5l7.5 7.5l241 223
q7 7 13 9t12 2h91q14 0 17.5 -8t-6.5 -18l-168 -148q-6 -5 -9 -10t0 -15l133 -313v0z" />
    <glyph glyph-name="l" unicode="l" horiz-adv-x="257" 
d="M159 18q-2 -12 -6.5 -15t-17.5 -3h-87q-11 0 -16 6t-4 16l103 707q1 8 3.5 10.5t9.5 2.5h104q13 0 10 -17z" />
    <glyph glyph-name="m" unicode="m" horiz-adv-x="914" 
d="M47 0q-9 0 -14 6.5t-4 15.5l69 495q2 8 4.5 10.5t8.5 2.5h105q7 0 8.5 -3.5t0.5 -11.5l-7 -45q-1 -12 8 -5q32 24 61 41t58 26t60 9q56 0 88.5 -26t40.5 -65q2 -5 6.5 -2.5t12.5 9.5q31 25 61.5 43.5t61.5 29t62 10.5q65 0 101 -35.5t36 -96.5v-14.5t-2 -15.5l-50 -361
q-2 -10 -6 -13.5t-15 -3.5h-92q-21 0 -17 22l48 339q2 6 2 13v11q0 29 -15.5 44t-48.5 15q-24 0 -46.5 -9t-41.5 -22.5t-35 -27.5q-7 -7 -12 -14t-6 -16l-48 -338q-2 -10 -5.5 -13.5t-14.5 -3.5h-92q-8 0 -13 6t-4 16l49 344q5 39 -10 58.5t-53 19.5q-24 0 -46 -8t-44 -24
t-48 -40l-51 -356q-2 -10 -6 -13t-16 -3h-89v0z" />
    <glyph glyph-name="n" unicode="n" horiz-adv-x="592" 
d="M42 0q-9 0 -11.5 6.5t-1.5 15.5l69 495q2 8 4.5 10.5t8.5 2.5h106q5 0 7.5 -2.5t1.5 -9.5l-8 -53q-1 -11 10 -2q43 35 88 56t93 21q69 0 106.5 -36.5t37.5 -95.5q0 -6 -0.5 -13t-1.5 -14l-51 -364q-2 -10 -6 -13.5t-15 -3.5h-96q-9 0 -11.5 6t-1.5 16l49 341
q1 6 1.5 11.5t0.5 9.5q0 30 -17 45t-52 15q-26 0 -48.5 -8t-45 -24t-49.5 -40l-51 -356q-2 -10 -6.5 -13t-16.5 -3h-93v0z" />
    <glyph glyph-name="o" unicode="o" horiz-adv-x="599" 
d="M265 -10q-71 0 -123 29t-80.5 81t-28.5 121q0 70 24 128.5t65.5 101t96 66t115.5 23.5q71 0 123 -30t80 -83t28 -122q0 -91 -40 -162.5t-107.5 -112t-152.5 -40.5v0zM269 79q47 0 85 29.5t60 85t22 135.5q0 60 -26.5 92.5t-77.5 32.5q-47 0 -85 -30t-61 -86t-23 -136
q0 -59 27.5 -91t78.5 -32v0z" />
    <glyph glyph-name="p" unicode="p" horiz-adv-x="605" 
d="M15 -165q-7 0 -9 6t0 14l92 659q1 10 4.5 13t15.5 3h90q10 0 14.5 -3t3.5 -13l-5 -34q-1 -6 4 -5.5t12 6.5q17 12 37.5 26t48.5 23.5t67 9.5q79 0 130 -52t51 -158q0 -57 -14.5 -117t-45.5 -110.5t-80 -81.5t-117 -31q-44 0 -77 15.5t-56 41.5q-9 9 -14 3t-7 -19
l-26 -184q-1 -8 -3 -10t-9 -2h-107v0zM270 75q46 0 78.5 25.5t52.5 65.5t30 85t10 84q0 44 -13.5 70.5t-36.5 38t-53 11.5q-34 0 -63 -14.5t-47.5 -36.5t-21.5 -44l-34 -233q20 -25 43.5 -38.5t54.5 -13.5v0z" />
    <glyph glyph-name="q" unicode="q" horiz-adv-x="606" 
d="M365 -165q-12 0 -10 20l25 174q2 10 0 11.5t-12 -5.5q-30 -19 -67 -32t-76 -13q-91 0 -141 58t-50 160q0 55 15 113.5t47 108t82 80.5t120 31q46 0 76.5 -13t49 -31.5t28.5 -36.5q4 -5 8 -3.5t9 13.5l18 44q4 10 8.5 13t13.5 3h55q9 0 12.5 -4.5t0.5 -19.5l-92 -658
q-1 -8 -6.5 -10.5t-12.5 -2.5h-101v0zM267 74q35 0 67 15t58 40l34 223q4 30 -6.5 54.5t-32.5 38.5t-54 14q-45 0 -76.5 -25t-52 -64.5t-30 -84t-9.5 -83.5q0 -65 28 -96.5t74 -31.5v0z" />
    <glyph glyph-name="r" unicode="r" horiz-adv-x="411" 
d="M47 0q-10 0 -14.5 6.5t-3.5 15.5l69 495q2 8 4.5 10.5t8.5 2.5h99q7 0 10.5 -4t2.5 -15l-8 -49q-1 -9 2.5 -9.5t9.5 5.5q25 26 53 44.5t55 28t50 9.5q20 0 30.5 -3t8.5 -11l-13 -94q-1 -9 -3 -11.5t-7 -1.5q-16 2 -32.5 3t-27.5 1q-21 0 -44.5 -8.5t-44.5 -23.5t-35 -33
t-16 -36l-43 -306q-2 -10 -6 -13t-16 -3h-89v0z" />
    <glyph glyph-name="s" unicode="s" horiz-adv-x="524" 
d="M231 -10q-92 0 -149.5 34t-77.5 81q-7 14 5 20l57 28q8 4 14.5 3t11.5 -10q16 -30 47 -50.5t89 -20.5q15 0 37 3t42.5 11t34.5 22.5t14 37.5q0 18 -16 32t-55 24l-99 26q-66 18 -97 48.5t-31 77.5q0 60 33.5 100.5t88 61.5t116.5 21q75 0 124.5 -29t73.5 -71
q3 -5 2.5 -10t-7.5 -9l-56 -26q-7 -3 -11.5 -1t-12.5 11q-15 23 -44 38t-72 15q-26 0 -52.5 -7t-44.5 -22.5t-18 -40.5q0 -16 11 -27.5t44 -22.5l114 -30q67 -17 97 -53.5t30 -83.5q0 -46 -21.5 -80t-56.5 -56.5t-78.5 -33.5t-86.5 -11v0z" />
    <glyph glyph-name="t" unicode="t" horiz-adv-x="417" 
d="M225 0q-61 0 -95 26.5t-34 76.5q0 7 0.5 14t1.5 14l42 297q1 7 -3 9t-10 2h-69q-12 0 -10 19l9 63q2 6 4.5 7.5t9.5 1.5h74q5 0 9 4t5 10l35 154q3 12 17 12h89q6 0 9 -4.5t1 -16.5l-22 -148q-1 -5 2 -7.5t7 -2.5h110q7 0 12 -3t3 -10l-9 -68q-1 -7 -4 -9t-12 -2h-113
q-12 0 -15 -14l-37 -268q-1 -6 -1.5 -11t-0.5 -10q0 -26 14 -35t43 -9h58q7 0 11 -5.5t3 -12.5l-8 -52q-2 -16 -16 -18q-15 -1 -35.5 -2t-40.5 -1.5t-34 -0.5v0z" />
    <glyph glyph-name="u" unicode="u" horiz-adv-x="588" 
d="M179 -10q-63 0 -101.5 36.5t-38.5 97.5q0 7 0.5 14.5t1.5 13.5l50 361q2 10 6.5 13.5t14.5 3.5h92q10 0 14 -6t3 -16l-48 -340q-1 -5 -1.5 -10t-0.5 -9q0 -33 18 -48.5t48 -15.5q38 0 73 20.5t68 51.5l52 357q1 10 6 13t16 3h90q10 0 15 -6t3 -16l-72 -495
q-1 -8 -3 -10.5t-10 -2.5h-98q-6 0 -10 3t-3 10l8 51q1 6 -2.5 6.5t-10.5 -4.5q-51 -43 -94 -59.5t-86 -16.5v0z" />
    <glyph glyph-name="v" unicode="v" horiz-adv-x="564" 
d="M562 530q9 0 13 -8t1 -15l-270 -491q-5 -10 -11 -13t-17 -3h-59q-12 0 -19 6t-9 16l-132 491q-3 17 14 17h104q7 0 13 -5.5t6 -12.5l84 -329q5 -16 16 8l174 328q7 11 19 11h73v0z" />
    <glyph glyph-name="w" unicode="w" horiz-adv-x="811" 
d="M806 530q9 0 13 -8t1 -15l-230 -495q-3 -9 -7 -10.5t-13 -1.5h-70q-22 0 -23 20l-55 309q-2 10 -5.5 6.5t-7.5 -13.5l-141 -310q-3 -9 -6.5 -10.5t-13.5 -1.5h-73q-21 0 -22 20l-92 493q-3 17 13 17h98q7 0 12.5 -5.5t5.5 -12.5l56 -319q2 -10 6 -6.5t8 13.5l144 319
q4 11 18 11h71q7 0 12.5 -5.5t5.5 -12.5l56 -319q1 -10 5 -6.5t8 13.5l142 319q7 11 20 11h64v0z" />
    <glyph glyph-name="x" unicode="x" horiz-adv-x="575" 
d="M508 26q10 -16 8.5 -21t-15.5 -5h-106q-10 0 -17 5t-11 12l-93 160q-6 10 -10.5 8t-13.5 -12l-142 -163q-5 -6 -14 -8t-20 -2h-76q-14 0 -15 9.5t16 28.5l201 218q8 8 10 14t-2 14l-135 226q-5 7 -2.5 13.5t13.5 6.5h103q12 0 18 -4.5t8 -12.5l87 -149q3 -6 7.5 -3.5
t9.5 10.5l124 149q6 7 11.5 8.5t17.5 1.5h82q13 0 13 -8t-6 -15l-187 -210q-8 -8 -9.5 -14t2.5 -14l143 -243v0z" />
    <glyph glyph-name="y" unicode="y" horiz-adv-x="554" 
d="M39 -165q-28 0 -41 3.5t-11 14.5l8 64q1 6 9.5 10t25.5 4h64q20 0 37.5 10t30 26t18 33t1.5 30l-126 475q-6 25 13 25h114q14 0 16 -11l78 -330q3 -11 8.5 -10.5t11.5 12.5l166 321q5 10 10.5 14t12.5 4h73q16 0 6 -17l-285 -526q-25 -46 -50 -75.5t-53 -46t-61 -23.5
t-76 -7v0z" />
    <glyph glyph-name="z" unicode="z" horiz-adv-x="506" 
d="M6 0q-10 0 -13 3.5t-1 13.5l4 32q2 11 6.5 18t15.5 20l310 343q5 7 3.5 11.5t-12.5 4.5h-233q-8 0 -10 4.5t-1 13.5l8 53q2 7 7 10t11 3h398q11 0 10 -12l-6 -38q-1 -8 -6 -15.5t-13 -16.5l-312 -346q-6 -7 -3 -12t10 -5h259q14 0 11 -14l-7 -56q-1 -6 -4.5 -10.5
t-12.5 -4.5h-419v0z" />
    <glyph glyph-name="braceleft" unicode="{" horiz-adv-x="345" 
d="M209 -165q-30 0 -56.5 8.5t-46 23.5t-28.5 37.5t-5 51.5l30 213q3 24 -5 44t-28.5 32t-56.5 12q-5 0 -9 5t-3 13l6 42q2 7 2.5 8.5t2.5 1.5q58 0 89 27t38 72l29 204q5 38 28.5 62.5t59 37t73.5 12.5h54q6 0 10 -4t2 -9l-7 -57q-1 -5 -3 -5.5t-7 -0.5h-30q-28 0 -43.5 -8
t-22 -21t-9.5 -28l-29 -209q-6 -37 -25 -59t-42.5 -33t-47.5 -14q-8 -1 -12 -3t0 -4q26 -1 49 -12.5t37 -36t8 -66.5l-29 -211q-4 -28 7 -39t48 -11h28q6 0 10 -5t4 -11l-8 -50q-1 -8 -2.5 -9t-9.5 -1h-50v0z" />
    <glyph glyph-name="bar" unicode="|" horiz-adv-x="255" 
d="M41 -165q-10 0 -15 7t-4 18l137 973q2 10 5 12t11 2h63q9 0 13.5 -6t2.5 -13l-137 -983q-1 -6 -3.5 -8t-9.5 -2h-63z" />
    <glyph glyph-name="braceright" unicode="}" horiz-adv-x="345" 
d="M-31 -165q-6 0 -9.5 4t-2.5 9l8 57q1 5 2.5 5.5t6.5 0.5h30q29 0 44.5 8t22.5 21t8 28l29 209q7 37 25.5 59.5t42.5 33.5t47 13q9 1 12.5 3.5t-0.5 3.5q-25 1 -48.5 12.5t-37 36t-8.5 66.5l29 211q4 29 -6.5 39.5t-48.5 10.5h-27q-7 0 -11 5t-3 11l7 50q2 8 3.5 9t8.5 1
h50q30 0 56.5 -8.5t46 -23.5t28.5 -37.5t5 -51.5l-29 -213q-3 -24 4 -44t28 -32t56 -12q5 0 9 -5t3 -13l-6 -41q-1 -8 -2 -9.5t-3 -1.5q-58 0 -88.5 -27t-36.5 -72l-29 -204q-5 -37 -29 -62t-59 -37.5t-74 -12.5h-54v0z" />
    <glyph glyph-name="asciitilde" unicode="~" horiz-adv-x="595" 
d="M550 366q-26 -30 -63 -47t-78 -17q-31 0 -55 9t-43.5 21t-39.5 21t-45 9q-38 0 -66.5 -20t-51.5 -44q-5 -2 -9.5 1.5t-5.5 9.5l-21 46q-2 6 -1.5 10.5t5.5 12.5q37 28 72 47.5t79 19.5q31 0 54.5 -9t43.5 -20.5t40 -20.5t44 -9q35 0 61.5 17.5t43.5 40.5q8 5 13 0.5
t8 -12.5l17 -40q5 -10 -2 -26v0z" />
    <glyph glyph-name="uni00A0" unicode="&#xa0;" horiz-adv-x="209" 
 />
    <glyph glyph-name="exclamdown" unicode="&#xa1;" horiz-adv-x="257" 
d="M220 396q-1 -8 -3 -9.5t-9 -1.5h-118q-6 0 -10.5 5.5t-3.5 14.5l16 110q1 10 4 12.5t14 2.5h102q13 0 19 -6.5t4 -18.5l-15 -109v0zM145 -154q0 -7 -2 -9t-8 -2h-125q-6 0 -10.5 6t-2.5 14l95 447q3 9 5 11.5t13 2.5h44q12 0 18 -6.5t4 -16.5l-31 -447v0z" />
    <glyph glyph-name="cent" unicode="&#xa2;" horiz-adv-x="558" 
d="M306 18q-1 -11 -5.5 -14.5t-16.5 -3.5h-45q-12 0 -16.5 7t-3.5 17l17 123q1 10 5.5 13t15.5 3h48q11 0 15.5 -6.5t3.5 -15.5l-18 -123v0zM388 597q-2 -11 -6.5 -14.5t-17.5 -3.5h-44q-12 0 -16.5 7t-3.5 17l18 123q1 10 5.5 13t14.5 3h49q10 0 14.5 -6.5t3.5 -15.5
l-17 -123v0zM309 651q61 0 102.5 -21.5t66 -55.5t33.5 -72q1 -7 -1 -10t-11 -4l-85 -10q-5 -1 -8 4t-5 13q-11 21 -22 36.5t-27 24t-40 8.5q-44 0 -76 -23.5t-53 -60.5t-31.5 -79.5t-10.5 -81.5q0 -65 30 -98.5t83 -33.5q48 0 81 22.5t64 67.5q4 5 14 2l61 -17q6 -1 8 -7
t-1 -16q-13 -22 -34.5 -46.5t-51 -45t-68 -33.5t-85.5 -13q-70 0 -122 29t-80.5 81t-28.5 122q0 61 21 118t60 102.5t94 71.5t123 26v0z" />
    <glyph glyph-name="sterling" unicode="&#xa3;" horiz-adv-x="635" 
d="M-9 0q-6 0 -10.5 6t-3.5 13l12 82q1 6 2.5 7t7.5 1h25q39 -1 69.5 29.5t40.5 95.5q2 16 3.5 43t3.5 71q-1 2 -2.5 2h-5.5h-86q-5 0 -8 4.5t-2 9.5l7 55q1 4 2 4.5t5 0.5h70q5 0 10 4.5t5 9.5l-1 80q-1 57 19.5 100.5t56.5 73t81.5 45t94.5 15.5q47 0 90.5 -15.5t75.5 -46
t42 -73.5q4 -4 2.5 -5.5t-7.5 -3.5l-91 -27q-6 -2 -11 2t-6 11q-10 23 -28 38t-53 15q-29 0 -53.5 -12.5t-41.5 -36t-22 -55.5q-3 -25 -2 -56t2 -60q2 -2 9 -2h137q5 0 8.5 -4.5t2.5 -8.5l-8 -56q-1 -5 -2 -5.5t-5 -0.5h-124q-6 0 -10.5 -4.5t-5.5 -11.5q-2 -27 -5 -51.5
t-9 -51.5q-7 -30 -18 -52t-22.5 -37.5t-21.5 -25.5q-7 -4 -8 -5t5 -1h137q46 0 78 18t51 59q4 3 7.5 2.5l10.5 -1.5l77 -18q7 -1 11.5 -7.5t0.5 -16.5q-32 -72 -93.5 -109t-143.5 -37h-352v0z" />
    <glyph glyph-name="currency" unicode="&#xa4;" horiz-adv-x="562" 
d="M272 160q-32 0 -59.5 9.5t-47.5 26.5q-7 1 -12 -2t-7 -6l-57 -49q-5 -4 -9 -1.5t-9 7.5l-33 38q-4 5 -5 9.5t3 8.5l57 50q8 8 7 21q-11 22 -16 48t0 60q4 28 15 55.5t29 53.5q9 6 5 12l-43 49q-3 4 -4 9.5t3 9.5l44 38q5 5 9 3t8 -7l44 -50q2 -3 5.5 0t7.5 6q27 12 56 19
t56 7q33 0 61 -9.5t48 -26.5q6 0 9.5 3t6.5 5l57 50q4 2 6.5 -1t3.5 -5l40 -46q2 -3 3 -6t-1 -6l-59 -50q-6 -6 -5 -14q12 -23 17.5 -51t0.5 -62q-4 -28 -15 -57t-31 -55q-3 0 -4.5 -2t0.5 -4l43 -50q3 -4 4.5 -7t-1.5 -6l-51 -45q-3 -3 -6 -0.5t-5 6.5l-43 50q-3 2 -6 -1
t-5 -6q-28 -13 -57 -21t-58 -8v0zM274 249q36 0 68 18.5t53.5 48.5t25.5 64q5 31 -7 58t-36.5 43t-58.5 16q-37 0 -69 -18.5t-52.5 -48t-25.5 -64.5q-4 -31 7.5 -58t36 -43t58.5 -16v0z" />
    <glyph glyph-name="yen" unicode="&#xa5;" horiz-adv-x="641" 
d="M696 742q10 0 14 -6.5t-1 -14.5l-290 -386q-6 -8 -9.5 -16.5t-5.5 -30.5l-39 -270q-1 -12 -6 -15t-18 -3h-103q-12 0 -16.5 6.5t-3.5 16.5l39 274q1 12 0.5 18t-4.5 15l-182 394q-5 9 -3 13.5t15 4.5h124q12 0 16.5 -5t7.5 -14l122 -281q4 -9 7.5 -6.5t9.5 11.5l202 283
q7 9 11.5 10.5t15.5 1.5h97v0zM559 295q-2 -10 -6.5 -12.5t-16.5 -2.5l-415 -1q-10 0 -14.5 6t-3.5 15l5 41q2 8 4 10t8 2h431q6 0 10 -5.5t3 -11.5zM536 138q-1 -10 -5.5 -12.5t-16.5 -2.5h-415q-11 0 -15.5 5.5t-3.5 15.5l6 40q2 8 4 10t8 2h430q6 0 10.5 -5.5t3.5 -11.5z
" />
    <glyph glyph-name="brokenbar" unicode="&#xa6;" horiz-adv-x="255" 
d="M124 432q-10 0 -14.5 7t-2.5 17l52 377q2 10 5 12t11 2h63q9 0 13.5 -6t2.5 -13l-54 -386q-1 -7 -3.5 -8.5t-9.5 -1.5h-63zM41 -165q-10 0 -15 7t-4 18l53 376q1 10 4 12t12 2h63q8 0 13 -5.5t4 -13.5l-54 -386q-1 -6 -3.5 -8t-9.5 -2h-63z" />
    <glyph glyph-name="section" unicode="&#xa7;" horiz-adv-x="500" 
d="M372 209q41 -25 60 -56.5t12 -76.5q-6 -45 -35.5 -79.5t-79 -54.5t-116.5 -20q-82 0 -137 32.5t-72 77.5q-6 8 -6 11t2 5l67 30q7 4 11 -0.5t7 -11.5q18 -25 48.5 -43t78.5 -18q46 0 78.5 18t36.5 51q3 20 -11.5 37.5t-62.5 36.5l-78 31q-74 30 -105 69t-22 96
q6 46 36 78.5t76 52.5q-31 19 -47.5 39t-21 43.5t-1.5 48.5q7 42 35 75t74.5 52t107.5 19q74 0 123 -30.5t66 -70.5q5 -7 5.5 -10.5t-3.5 -5.5l-65 -30q-8 -3 -12 1t-7 11q-18 21 -42.5 37t-60.5 16q-44 0 -72 -18.5t-32 -47.5q-2 -14 8.5 -29t48.5 -31l75 -31
q79 -33 112 -73.5t24 -101.5q-6 -46 -34 -76.5t-69 -52.5v0zM278 256q22 -1 41 9t31.5 27t15.5 37q3 15 -0.5 28t-18 26.5t-48.5 27.5l-47 18q-25 -2 -46 -14t-34 -29.5t-16 -37.5q-3 -21 9.5 -35.5t60.5 -35.5l52 -21v0z" />
    <glyph glyph-name="dieresis" unicode="&#xa8;" horiz-adv-x="322" 
d="M180 634q-1 -11 -5 -13t-16 -2h-79q-10 0 -14 5.5t-3 14.5l13 91q1 8 3.5 10t8.5 2h92q7 0 10.5 -5.5t2.5 -12.5zM364 634q-1 -11 -5 -13t-16 -2h-80q-10 0 -13.5 5.5t-2.5 14.5l12 91q2 8 4 10t8 2h92q7 0 11 -5.5t2 -12.5z" />
    <glyph glyph-name="copyright" unicode="&#xa9;" horiz-adv-x="830" 
d="M381 -10q-80 0 -145.5 30t-111 83t-65.5 124t-9 151q11 78 49 145.5t97 119t131 80.5t151 29t145 -30.5t111.5 -83.5t66 -123.5t9.5 -150.5q-11 -78 -50 -146t-98 -119.5t-131 -80t-150 -28.5v0zM382 66q65 0 123 22t105 63t78 98.5t41 128.5q10 68 -4.5 123t-49 94.5
t-84.5 60.5t-113 21q-66 0 -124.5 -22.5t-105 -64t-77.5 -99t-40 -127.5q-10 -68 4 -123.5t48 -94.5t85 -59.5t114 -20.5v0zM458 587q47 0 79.5 -18t52 -45.5t26.5 -57.5q2 -4 1 -5.5t-6 -2.5l-73 -10q-4 -1 -7 3.5t-3 12.5q-9 21 -23.5 36t-42.5 15q-31 0 -57 -17
t-43.5 -50t-24.5 -81q-9 -69 12.5 -102.5t66.5 -33.5q38 0 64.5 21.5t47.5 53.5q2 0 4.5 -1.5t7.5 -3.5l47 -13q9 -2 6 -19q-10 -17 -27 -36t-39.5 -36t-52.5 -27t-66 -10q-60 0 -103 28t-62.5 77.5t-10.5 113.5q9 62 41 108.5t80 73t105 26.5v0z" />
    <glyph glyph-name="ordfeminine" unicode="&#xaa;" horiz-adv-x="393" 
d="M252 751q52 0 82 -14t41.5 -39.5t6.5 -58.5l-24 -169q-2 -14 -2 -24.5t1 -26.5q3 -5 -2 -5.5t-14 -0.5h-52q-8 0 -10.5 4.5t-3.5 10.5v19q-1 5 -3.5 1.5t-8.5 -9.5q-28 -17 -49.5 -24.5t-48.5 -7.5q-54 0 -80.5 28t-20.5 73q7 47 52.5 73.5t131.5 32.5l34 3q7 1 11.5 5.5
t5.5 8.5l2 13q3 26 -9 38t-40 12q-23 0 -43.5 -10t-36.5 -35q-2 -2 -4 -0.5t-8 2.5l-55 15q-1 1 -2.5 7.5t-0.5 11.5q23 32 57.5 49t92.5 17v0zM148 498q-2 -17 9.5 -26.5t36.5 -9.5q18 0 34.5 7.5t27.5 18.5q11 6 18.5 14.5t8.5 18.5l6 41q1 6 0 6.5t-8 -0.5l-30 -2
q-27 -2 -49 -10.5t-36.5 -23t-17.5 -34.5v0z" />
    <glyph glyph-name="guillemotleft" unicode="&#xab;" horiz-adv-x="473" 
d="M394 74q2 -5 0.5 -5.5t-9.5 -0.5h-47q-4 0 -8 4t-4 7l-89 166q-3 8 -3.5 15.5t3.5 14.5l139 176q4 5 6 4.5t6 -0.5h48q6 0 10 -4.5t1 -11.5l-107 -175q-3 -6 -4.5 -10.5t-0.5 -9.5zM204 74q2 -5 0.5 -5.5t-9.5 -0.5h-47q-4 0 -8 4t-4 7l-89 166q-3 8 -3.5 15.5t3.5 14.5
l139 176q4 5 6 4.5t6 -0.5h48q5 0 9.5 -4.5t1.5 -11.5l-107 -175q-3 -6 -4.5 -10.5t-0.5 -9.5z" />
    <glyph glyph-name="logicalnot" unicode="&#xac;" horiz-adv-x="574" 
d="M532 341q0 -10 -5 -13t-17 -3h-428q-10 0 -14.5 6t-3.5 15l10 63q1 8 3 10t8 2h443q6 0 10.5 -5.5t3.5 -11.5zM511 187q-1 -9 -4 -11.5t-15 -2.5h-69q-9 0 -13.5 5.5t-3.5 13.5l26 187q1 8 3 9.5t8 1.5h82q6 0 9.5 -6t2.5 -13z" />
    <glyph glyph-name="uni00AD" unicode="&#xad;" horiz-adv-x="380" 
d="M285 232q-2 -11 -6.5 -13.5t-15.5 -2.5h-232q-11 0 -15 6t-4 15l10 63q1 8 3.5 10t8.5 2h247q6 0 10.5 -5.5t2.5 -11.5z" />
    <glyph glyph-name="registered" unicode="&#xae;" horiz-adv-x="545" 
d="M279 275q-67 0 -118 33t-75.5 89t-15.5 123q9 65 47.5 117.5t96 83.5t122.5 31q67 0 117.5 -33.5t75.5 -89t16 -123.5q-9 -64 -48 -116.5t-96 -83.5t-122 -31v0zM276 330q55 0 99.5 23.5t74.5 66.5t37 100q8 54 -8 93.5t-52 61.5t-88 22q-55 0 -100 -24t-74 -67t-37 -100
q-12 -81 29 -128.5t119 -47.5v0zM388 398q1 -3 1 -3.5t-3 -0.5h-46q-2 0 -4 2.5t-2 5.5l-21 96q-1 2 -1.5 1.5t-5.5 -0.5h-35q-2 0 -4.5 -3.5t-3.5 -4.5l-13 -94q-1 -4 -1 -3.5t-4 0.5h-40q-3 0 -5.5 3.5t-1.5 5.5l31 225q1 3 0.5 2.5t1.5 -0.5h105q41 0 63 -18.5t17 -51.5
q-3 -22 -17 -35.5t-31 -21.5q-3 1 -5 -1t-2 -3l27 -101v0zM319 537q16 0 28.5 9t14.5 25q2 10 -5 15t-28 5h-43q-4 0 -6.5 -2t-3.5 -6l-6 -44q-1 -3 -1 -2.5t2 0.5h48v0z" />
    <glyph glyph-name="macron" unicode="&#xaf;" horiz-adv-x="361" 
d="M407 661q-1 -9 -5 -11.5t-15 -2.5h-305q-9 0 -13 6t-3 14l8 56q1 7 3 8.5t7 1.5h319q5 0 9 -5.5t3 -10.5z" />
    <glyph glyph-name="degree" unicode="&#xb0;" horiz-adv-x="464" 
d="M459 682q-7 -47 -33 -83.5t-66 -57t-87 -20.5q-49 0 -85.5 23t-53 62.5t-9.5 90.5q6 47 32 83.5t66 56.5t87 20q49 0 85 -22.5t53.5 -61.5t10.5 -91v0zM379 696q5 37 -13.5 60t-57.5 23q-42 0 -71.5 -27.5t-35.5 -70.5q-4 -37 14.5 -60.5t56.5 -23.5q42 0 71.5 27.5
t35.5 71.5v0z" />
    <glyph glyph-name="plusminus" unicode="&#xb1;" horiz-adv-x="574" 
d="M494 61q-2 -11 -6.5 -13.5t-16.5 -2.5h-428q-10 0 -14.5 6t-3.5 15l9 63q1 7 3.5 9.5t8.5 2.5h443q6 0 10 -5.5t3 -12.5zM545 425q-2 -10 -6.5 -13t-16.5 -3h-428q-10 0 -14 6t-4 15l9 63q1 8 4 10t9 2h443q5 0 9.5 -5.5t3.5 -11.5zM256 223q-10 0 -15 7.5t-3 19.5
l60 428q2 10 4.5 12t11.5 2h63q8 0 13 -5.5t3 -11.5l-62 -443q-1 -6 -3.5 -7.5t-8.5 -1.5h-63z" />
    <glyph glyph-name="uni00B2" unicode="&#xb2;" horiz-adv-x="452" 
d="M175 586q41 32 67 56.5t38.5 45.5t12.5 43q0 28 -18.5 42.5t-47.5 14.5q-26 0 -55.5 -16.5t-52.5 -50.5q-4 -5 -8 -2l-57 34q-6 3 3 16q34 43 81 65.5t98 22.5q43 0 76.5 -14t52.5 -41t19 -65q0 -35 -14.5 -63t-40 -53.5t-60.5 -52.5l-129 -99q-5 -3 -4.5 -5.5t4.5 -2.5
h200q10 0 9 -9l-8 -60q-1 -4 -2.5 -6t-7.5 -2h-316q-14 0 -13 14l6 41q2 7 6 12t22 19z" />
    <glyph glyph-name="uni00B3" unicode="&#xb3;" horiz-adv-x="467" 
d="M83 784q-2 2 -2 6t4 7q32 28 74.5 44t88.5 16q74 0 115.5 -30t41.5 -79q0 -40 -27.5 -71t-68.5 -45q-3 -1 -3.5 -3t3.5 -3q35 -9 57 -35t22 -62q0 -48 -25.5 -82t-71.5 -51.5t-108 -17.5q-42 0 -73.5 10.5t-53.5 28t-36 39.5q-4 7 -1 10l48 33q6 4 9 0q24 -29 51 -41.5
t61 -12.5q46 0 77.5 23t31.5 61q0 20 -11.5 34t-31 22t-44.5 8h-58q-7 0 -6 7l7 54q0 5 9 5h43q30 1 54.5 12t39 29.5t14.5 40.5t-18.5 36.5t-50.5 14.5q-36 0 -61 -14t-52 -34q-7 -6 -12 1l-36 39v0z" />
    <glyph glyph-name="acute" unicode="&#xb4;" horiz-adv-x="299" 
d="M345 680q2 -8 0 -12.5t-13 -7.5l-239 -66q-10 -2 -15 2t-6 12l-7 30q-3 14 4 16l248 96q5 3 9 0.5t6 -10.5z" />
    <glyph glyph-name="uni00B5" unicode="&#xb5;" horiz-adv-x="588" 
d="M238 85q36 0 71.5 20.5t68.5 51.5l52 357q1 10 6 13t16 3h90q10 0 15 -6t3 -16l-72 -495q-1 -8 -3 -10.5t-10 -2.5h-98q-6 0 -10.5 5.5t-3.5 13.5l8 53q1 5 -2.5 4t-10.5 -9q-28 -25 -51.5 -39.5t-45 -22.5t-43.5 -12q-24 -1 -40.5 0.5t-27.5 7.5l-21 -148q-2 -12 -6 -15
t-18 -3h-86q-11 0 -16 6t-4 16l92 656q2 10 6.5 13.5t14.5 3.5h92q10 0 14 -6t3 -16l-50 -351q-2 -21 5.5 -37t24 -25.5t37.5 -9.5v0z" />
    <glyph glyph-name="paragraph" unicode="&#xb6;" horiz-adv-x="589" 
d="M537 667q-5 0 -9.5 -5t-4.5 -9l-103 -729q-1 -5 -1.5 -7t-6.5 -2h-58q-7 0 -11 6t-3 10l103 731q0 4 -1 4.5t-6 0.5h-37q-4 0 -8.5 -5t-5.5 -9l-103 -730q0 -5 -2 -6.5t-7 -1.5h-59q-5 0 -9 4.5t-3 11.5l52 373v3.5t-2 1.5q-59 2 -103 29.5t-64.5 76t-11.5 112.5
q9 58 42 106.5t89 78.5t134 30h248q5 0 8.5 -3.5t1.5 -9.5l-7 -57q-1 -5 -2 -5h-6h-44z" />
    <glyph glyph-name="periodcentered" unicode="&#xb7;" horiz-adv-x="232" 
d="M193 322q-1 -11 -5 -13.5t-16 -2.5h-101q-10 0 -14.5 6t-3.5 14l15 104q1 8 3.5 9.5t7.5 1.5h116q6 0 9.5 -5t2.5 -12z" />
    <glyph glyph-name="cedilla" unicode="&#xb8;" horiz-adv-x="247" 
d="M180 -141q-5 -37 -41.5 -56t-82.5 -19q-30 0 -55.5 7t-44.5 20q-5 1 -7.5 4.5t-1.5 6.5l18 32q2 4 4 1t3 -6q14 -6 30 -11t34 -5q28 0 45 11.5t19 29.5q3 18 -13.5 27t-60.5 9q-8 0 -11.5 3.5t-1.5 8.5l50 83h61l-28 -57q-2 -3 -3 -3t1 0q36 -1 55.5 -14.5t26.5 -32.5
t4 -39v0z" />
    <glyph glyph-name="uni00B9" unicode="&#xb9;" horiz-adv-x="367" 
d="M250 449q9 0 8 -8l-8 -54q-1 -7 -9 -7h-242q-10 0 -8 9l7 55q1 5 9 5h72q5 0 7 8l41 292q1 5 -6 3l-72 -22q-12 -4 -10 9l5 39q2 6 3.5 8.5t6.5 4.5l107 50q8 4 13 5t12 1h39q9 0 7 -10l-54 -383q-1 -5 4 -5h68v0z" />
    <glyph glyph-name="ordmasculine" unicode="&#xba;" horiz-adv-x="403" 
d="M264 752q52 0 87 -23.5t50.5 -64t8.5 -93.5q-7 -48 -32 -85t-63 -57.5t-88 -20.5q-52 0 -87 22.5t-50.5 63t-8.5 91.5q8 51 33 88t64 58t86 21v0zM266 692q-40 0 -64.5 -31t-32.5 -87q-8 -53 5.5 -80t49.5 -27q41 0 66 31.5t34 89.5q7 51 -7 77.5t-51 26.5v0z" />
    <glyph glyph-name="guillemotright" unicode="&#xbb;" horiz-adv-x="472" 
d="M130 250q3 6 5 10.5t0 9.5l-58 176q-1 6 0.5 7.5t6.5 1.5h48q8 0 12 -10l90 -177q3 -7 3.5 -14.5t-5.5 -15.5l-137 -166q-2 -3 -4.5 -3.5t-6.5 -0.5h-46q-8 0 -12.5 3.5t-2.5 9.5l107 169v0zM320 250q3 6 5 10.5t0 9.5l-58 176q-1 6 0.5 7.5t6.5 1.5h48q8 0 13 -10
l89 -177q3 -7 3.5 -14.5t-5.5 -15.5l-136 -166q-3 -3 -5.5 -3.5t-6.5 -0.5h-46q-8 0 -12.5 3.5t-1.5 9.5l106 169v0z" />
    <glyph glyph-name="onequarter" unicode="&#xbc;" horiz-adv-x="924" 
d="M299 345q9 0 8 -8l-8 -54q-1 -7 -9 -7h-242q-10 0 -8 9l7 55q1 5 9 5h72q5 0 7 8l41 292q1 5 -6 3l-72 -22q-12 -4 -10 9l5 39q2 6 3.5 8.5t6.5 4.5l107 50q8 4 13 5t12 1h39q9 0 7 -10l-54 -383q-1 -5 4 -5h68v0zM229 3q-4 -6 -9 -6.5t-13 -0.5l-37 1q-12 0 -14.5 9.5
t3.5 18.5l580 719q6 7 10 6.5t11 -0.5h45q7 0 12 -5t-1 -13zM723 458q6 6 9.5 7.5t12.5 1.5h69q10 0 8 -10l-39 -273q0 -4 4 -4h57q9 0 9 -8l-8 -49q0 -5 -2 -6.5t-8 -1.5h-55q-7 0 -7 -7l-13 -98q-1 -6 -4 -8t-11 -2h-69q-12 0 -11 11l14 99q1 5 -5 5h-196q-11 0 -10 10
l7 48q1 7 4.5 12.5t11.5 14.5l232 258v0zM683 180q6 0 7 7l24 175q2 5 -0.5 4.5t-7.5 -6.5l-152 -172q-6 -8 1 -8h128z" />
    <glyph glyph-name="onehalf" unicode="&#xbd;" horiz-adv-x="978" 
d="M312 345q9 0 8 -8l-8 -54q-1 -7 -9 -7h-242q-10 0 -8 9l7 55q1 5 9 5h72q5 0 7 8l41 292q1 5 -6 3l-72 -22q-12 -4 -10 9l5 39q2 6 3.5 8.5t6.5 4.5l107 50q8 4 13 5t12 1h39q9 0 7 -10l-54 -383q-1 -5 4 -5h68v0zM208 3q-4 -6 -9 -6.5t-13 -0.5l-37 1q-12 0 -14.5 9.5
t3.5 18.5l580 719q6 7 10 6.5t11 -0.5h45q7 0 12 -5t-1 -13zM696 202q41 32 67 56.5t38.5 45.5t12.5 43q0 28 -18.5 42.5t-47.5 14.5q-26 0 -55.5 -16.5t-52.5 -50.5q-4 -5 -8 -2l-57 34q-6 3 3 16q34 43 81 65.5t98 22.5q43 0 76.5 -14t52.5 -41t19 -65q0 -35 -14.5 -63
t-40 -53.5t-60.5 -52.5l-129 -99q-5 -3 -4.5 -5.5t4.5 -2.5h200q10 0 9 -9l-8 -60q-1 -4 -2.5 -6t-7.5 -2h-316q-14 0 -13 14l6 41q2 7 6 12t22 19z" />
    <glyph glyph-name="threequarters" unicode="&#xbe;" horiz-adv-x="984" 
d="M104 679q-2 2 -2 6t4 7q32 28 74.5 44t88.5 16q74 0 115.5 -30t41.5 -79q0 -40 -27.5 -71t-68.5 -45q-3 -1 -3.5 -3t3.5 -3q35 -9 57 -35t22 -62q0 -48 -25.5 -82t-71.5 -51.5t-108 -17.5q-42 0 -73.5 10.5t-53.5 28t-36 39.5q-4 7 -1 10l48 33q6 4 9 0q24 -29 51 -41.5
t61 -12.5q46 0 77.5 23t31.5 61q0 20 -11.5 34t-31 22t-44.5 8h-58q-7 0 -6 7l7 54q0 5 9 5h43q30 1 54.5 12t39 29.5t14.5 40.5t-18.5 36.5t-50.5 14.5q-36 0 -61 -14t-52 -34q-7 -6 -12 1l-36 39v0zM285 3q-4 -6 -9 -6.5t-13 -0.5l-37 1q-12 0 -14.5 9.5t3.5 18.5l580 719
q6 7 10 6.5t11 -0.5h45q7 0 12 -5t-1 -13zM796 458q6 6 9.5 7.5t12.5 1.5h69q10 0 8 -10l-39 -273q0 -4 4 -4h57q9 0 9 -8l-8 -49q0 -5 -2 -6.5t-8 -1.5h-55q-7 0 -7 -7l-13 -98q-1 -6 -4 -8t-11 -2h-69q-12 0 -11 11l14 99q1 5 -5 5h-196q-11 0 -10 10l7 48q1 7 4.5 12.5
t11.5 14.5l232 258v0zM756 180q6 0 7 7l24 175q2 5 -0.5 4.5t-7.5 -6.5l-152 -172q-6 -8 1 -8h128z" />
    <glyph glyph-name="questiondown" unicode="&#xbf;" horiz-adv-x="527" 
d="M241 513q2 11 6.5 14t17.5 3h102q10 0 15 -6.5t4 -15.5l-16 -111q-1 -8 -3.5 -10t-9.5 -2h-118q-6 0 -10 5.5t-4 12.5zM464 -11q6 -1 8 -8.5t-1 -16.5q-42 -67 -110 -103t-155 -36q-78 0 -129 24.5t-73 66t-14 92.5q5 39 23.5 66.5t43.5 48.5t53.5 39t54 38.5t43.5 46.5
t23 62q2 10 16 10h71q9 0 14 -7.5t3 -20.5q-7 -48 -29.5 -82t-52 -59t-59 -46.5t-50.5 -45.5t-26 -57q-5 -37 21 -59.5t71 -22.5q30 0 60 12t55 32.5t39 46.5q4 4 4 3.5t8 -2.5z" />
    <glyph glyph-name="Agrave" unicode="&#xc0;" horiz-adv-x="756" 
d="M8 0q-8 0 -9 7t5 21l352 700q5 9 11.5 11.5t16.5 2.5h126q10 0 14.5 -7t6.5 -16l152 -699q2 -7 -1 -13.5t-11 -6.5h-121q-13 0 -16 16l-35 161q-1 8 -11 8h-259q-10 0 -15 -11l-84 -166q-2 -5 -5.5 -6.5t-11.5 -1.5h-105v0zM468 298q14 0 11 16l-60 265q-1 10 -5.5 9.5
t-9.5 -10.5l-133 -265q-4 -9 -3 -12t8 -3h192zM345 955q3 5 7.5 6.5t9.5 -0.5l219 -97q6 -3 8 -7t0 -11l-16 -33q-3 -6 -7 -7t-13 2l-221 64q-12 3 -14.5 8t0.5 13l27 62v0z" />
    <glyph glyph-name="Aacute" unicode="&#xc1;" horiz-adv-x="756" 
d="M8 0q-8 0 -9 7t5 21l352 700q5 9 11.5 11.5t16.5 2.5h126q10 0 14.5 -7t6.5 -16l152 -699q2 -7 -1 -13.5t-11 -6.5h-121q-13 0 -16 16l-35 161q-1 8 -11 8h-259q-10 0 -15 -11l-84 -166q-2 -5 -5.5 -6.5t-11.5 -1.5h-105v0zM468 298q14 0 11 16l-60 265q-1 10 -5.5 9.5
t-9.5 -10.5l-133 -265q-4 -9 -3 -12t8 -3h192zM601 892q2 -8 0 -12.5t-13 -7.5l-239 -66q-10 -2 -15 2t-6 12l-7 30q-3 14 4 16l248 96q5 3 9 0.5t6 -10.5z" />
    <glyph glyph-name="Acircumflex" unicode="&#xc2;" horiz-adv-x="756" 
d="M8 0q-8 0 -9 7t5 21l352 700q5 9 11.5 11.5t16.5 2.5h126q10 0 14.5 -7t6.5 -16l152 -699q2 -7 -1 -13.5t-11 -6.5h-121q-13 0 -16 16l-35 161q-1 8 -11 8h-259q-10 0 -15 -11l-84 -166q-2 -5 -5.5 -6.5t-11.5 -1.5h-105v0zM468 298q14 0 11 16l-60 265q-1 10 -5.5 9.5
t-9.5 -10.5l-133 -265q-4 -9 -3 -12t8 -3h192zM475 891q-7 9 -10.5 8.5t-13.5 -9.5l-63 -53q-6 -6 -10.5 -7.5t-11.5 -1.5h-74q-8 0 -8.5 5.5t4.5 9.5l122 107q7 6 13.5 8t17.5 2h61q9 0 13 -5t8 -9l91 -106q6 -7 4 -9.5t-10 -2.5h-72q-7 0 -11 3t-8 8z" />
    <glyph glyph-name="Atilde" unicode="&#xc3;" horiz-adv-x="756" 
d="M8 0q-8 0 -9 7t5 21l352 700q5 9 11.5 11.5t16.5 2.5h126q10 0 14.5 -7t6.5 -16l152 -699q2 -7 -1 -13.5t-11 -6.5h-121q-13 0 -16 16l-35 161q-1 8 -11 8h-259q-10 0 -15 -11l-84 -166q-2 -5 -5.5 -6.5t-11.5 -1.5h-105v0zM468 298q14 0 11 16l-60 265q-1 10 -5.5 9.5
t-9.5 -10.5l-133 -265q-4 -9 -3 -12t8 -3h192zM623 868q-16 -7 -38.5 -14t-49.5 -7q-28 0 -50.5 7.5l-42 14t-43.5 6.5t-37.5 -9t-32.5 -18q-8 -3 -12 1t-6 13l-8 37q-1 7 -3 12.5t7 11.5q19 12 39 20t48 8q29 0 53 -7t45.5 -15t42.5 -8q15 0 27 5.5t22.5 12.5t20.5 10
q9 2 14.5 -2.5t6.5 -12.5l5 -44q1 -6 1 -12.5t-9 -9.5v0z" />
    <glyph glyph-name="Adieresis" unicode="&#xc4;" horiz-adv-x="756" 
d="M8 0q-8 0 -9 7t5 21l352 700q5 9 11.5 11.5t16.5 2.5h126q10 0 14.5 -7t6.5 -16l152 -699q2 -7 -1 -13.5t-11 -6.5h-121q-13 0 -16 16l-35 161q-1 8 -11 8h-259q-10 0 -15 -11l-84 -166q-2 -5 -5.5 -6.5t-11.5 -1.5h-105v0zM468 298q14 0 11 16l-60 265q-1 10 -5.5 9.5
t-9.5 -10.5l-133 -265q-4 -9 -3 -12t8 -3h192zM424 846q-1 -11 -5 -13t-16 -2h-79q-10 0 -14 5.5t-3 14.5l13 91q1 8 3.5 10t8.5 2h92q7 0 10.5 -5.5t2.5 -12.5zM608 846q-1 -11 -5 -13t-16 -2h-80q-10 0 -13.5 5.5t-2.5 14.5l12 91q2 8 4 10t8 2h92q7 0 11 -5.5t2 -12.5z
" />
    <glyph glyph-name="Aring" unicode="&#xc5;" horiz-adv-x="756" 
d="M8 0q-8 0 -9 7t5 21l352 700q5 9 11.5 11.5t16.5 2.5h126q10 0 14.5 -7t6.5 -16l152 -699q2 -7 -1 -13.5t-11 -6.5h-121q-13 0 -16 16l-35 161q-1 8 -11 8h-259q-10 0 -15 -11l-84 -166q-2 -5 -5.5 -6.5t-11.5 -1.5h-105v0zM468 298q14 0 11 16l-60 265q-1 10 -5.5 9.5
t-9.5 -10.5l-133 -265q-4 -9 -3 -12t8 -3h192zM564 846q-7 -45 -41 -74t-78 -29q-31 0 -55 16t-36 43t-7 60q5 42 40 70t78 28q32 0 56 -15.5t35.5 -41t7.5 -57.5v0zM507 859q3 21 -8.5 33t-31.5 12q-23 0 -43.5 -17t-24.5 -42q-2 -19 10.5 -33t31.5 -14q24 0 43.5 18.5
t22.5 42.5v0z" />
    <glyph glyph-name="AE" unicode="&#xc6;" horiz-adv-x="1053" 
d="M972 110q8 0 12.5 -4.5t3.5 -13.5l-11 -80q-1 -7 -4 -9.5t-12 -2.5h-476q-10 0 -15 6t-4 16l23 157q0 5 -0.5 5.5t-6.5 0.5h-224q-5 0 -10 -4t-7 -8l-113 -165q-6 -8 -20 -8h-96q-8 0 -11.5 8.5t3.5 19.5l479 700q6 9 11 11.5t15 2.5h543q6 0 10 -5.5t3 -13.5l-11 -76
q-1 -9 -4.5 -12t-13.5 -3h-317q-8 0 -14 -5t-8 -13l-24 -175q-1 -8 1 -9.5t8 -1.5h219q8 0 12.5 -5.5t3.5 -12.5l-12 -82q-1 -5 -2.5 -6.5t-9.5 -1.5h-221q-6 0 -11.5 -5t-6.5 -11l-26 -186q-1 -7 -0.5 -7.5t6.5 -0.5h338v0zM488 298q8 0 13.5 6t6.5 13l40 284q2 18 -7 15
t-21 -21l-198 -285q-5 -7 -6.5 -9.5t5.5 -2.5h167v0z" />
    <glyph glyph-name="Ccedilla" unicode="&#xc7;" horiz-adv-x="719" 
d="M445 752q76 0 134 -30t92 -80t35 -112q1 -17 -13 -17l-110 -7q-12 -1 -13 21q-5 53 -36 86.5t-91 33.5q-53 0 -91.5 -23.5t-65.5 -63.5t-43 -88.5t-23 -99.5t-7 -96q0 -90 36 -132.5t109 -42.5q65 0 115 31.5t85 101.5q5 11 21 7l89 -23q10 -3 1 -26q-10 -22 -28.5 -49.5
t-46 -54t-64.5 -49t-82 -36t-99 -13.5q-91 0 -155.5 38.5t-98 107.5t-33.5 163q0 67 14.5 133t45 123.5t76 102t107.5 69.5t140 25v0zM435 -141q-5 -37 -41.5 -56t-82.5 -19q-30 0 -55.5 7t-44.5 20q-5 1 -7.5 4.5t-1.5 6.5l18 32q2 4 4 1t3 -6q14 -6 30 -11t34 -5
q28 0 45 11.5t19 29.5q3 18 -13.5 27t-60.5 9q-8 0 -11.5 3.5t-1.5 8.5l50 83h61l-28 -57q-2 -3 -3 -3t1 0q36 -1 55.5 -14.5t26.5 -32.5t4 -39v0z" />
    <glyph glyph-name="Egrave" unicode="&#xc8;" horiz-adv-x="645" 
d="M145 729q1 8 3.5 10.5t9.5 2.5h489q13 0 10 -19l-11 -75q-1 -9 -5 -12.5t-14 -3.5h-335q-7 0 -10.5 -2.5t-4.5 -10.5l-25 -180q-1 -7 1 -9t7 -2h234q8 0 10 -3.5t1 -9.5l-12 -85q-1 -10 -13 -10h-235q-11 0 -13 -14l-25 -185q-1 -11 6 -11h355q8 0 10.5 -3t0.5 -11
l-11 -84q-1 -7 -3.5 -9.5t-11.5 -2.5h-491q-20 0 -17 22l100 707v0zM310 955q3 5 7.5 6.5t9.5 -0.5l219 -97q6 -3 8 -7t0 -11l-16 -33q-3 -6 -7 -7t-13 2l-221 64q-12 3 -14.5 8t0.5 13l27 62v0z" />
    <glyph glyph-name="Eacute" unicode="&#xc9;" horiz-adv-x="645" 
d="M145 729q1 8 3.5 10.5t9.5 2.5h489q13 0 10 -19l-11 -75q-1 -9 -5 -12.5t-14 -3.5h-335q-7 0 -10.5 -2.5t-4.5 -10.5l-25 -180q-1 -7 1 -9t7 -2h234q8 0 10 -3.5t1 -9.5l-12 -85q-1 -10 -13 -10h-235q-11 0 -13 -14l-25 -185q-1 -11 6 -11h355q8 0 10.5 -3t0.5 -11
l-11 -84q-1 -7 -3.5 -9.5t-11.5 -2.5h-491q-20 0 -17 22l100 707v0zM565 892q2 -8 0 -12.5t-13 -7.5l-239 -66q-10 -2 -15 2t-6 12l-7 30q-3 14 4 16l248 96q5 3 9 0.5t6 -10.5z" />
    <glyph glyph-name="Ecircumflex" unicode="&#xca;" horiz-adv-x="645" 
d="M145 729q1 8 3.5 10.5t9.5 2.5h489q13 0 10 -19l-11 -75q-1 -9 -5 -12.5t-14 -3.5h-335q-7 0 -10.5 -2.5t-4.5 -10.5l-25 -180q-1 -7 1 -9t7 -2h234q8 0 10 -3.5t1 -9.5l-12 -85q-1 -10 -13 -10h-235q-11 0 -13 -14l-25 -185q-1 -11 6 -11h355q8 0 10.5 -3t0.5 -11
l-11 -84q-1 -7 -3.5 -9.5t-11.5 -2.5h-491q-20 0 -17 22l100 707v0zM440 891q-7 9 -10.5 8.5t-13.5 -9.5l-63 -53q-6 -6 -10.5 -7.5t-11.5 -1.5h-74q-8 0 -8.5 5.5t4.5 9.5l122 107q7 6 13.5 8t17.5 2h61q9 0 13 -5t8 -9l91 -106q6 -7 4 -9.5t-10 -2.5h-72q-7 0 -11 3t-8 8z
" />
    <glyph glyph-name="Edieresis" unicode="&#xcb;" horiz-adv-x="645" 
d="M145 729q1 8 3.5 10.5t9.5 2.5h489q13 0 10 -19l-11 -75q-1 -9 -5 -12.5t-14 -3.5h-335q-7 0 -10.5 -2.5t-4.5 -10.5l-25 -180q-1 -7 1 -9t7 -2h234q8 0 10 -3.5t1 -9.5l-12 -85q-1 -10 -13 -10h-235q-11 0 -13 -14l-25 -185q-1 -11 6 -11h355q8 0 10.5 -3t0.5 -11
l-11 -84q-1 -7 -3.5 -9.5t-11.5 -2.5h-491q-20 0 -17 22l100 707v0zM388 846q-1 -11 -5 -13t-16 -2h-79q-10 0 -14 5.5t-3 14.5l13 91q1 8 3.5 10t8.5 2h92q7 0 10.5 -5.5t2.5 -12.5zM572 846q-1 -11 -5 -13t-16 -2h-80q-10 0 -13.5 5.5t-2.5 14.5l12 91q2 8 4 10t8 2h92
q7 0 11 -5.5t2 -12.5z" />
    <glyph glyph-name="Igrave" unicode="&#xcc;" horiz-adv-x="306" 
d="M279 742q15 0 12 -20l-99 -704q-1 -12 -5.5 -15t-17.5 -3h-108q-12 0 -14.5 6t-1.5 16l100 707q1 8 3.5 10.5t9.5 2.5h121zM124 955q3 5 7.5 6.5t9.5 -0.5l219 -97q6 -3 8 -7t0 -11l-16 -33q-3 -6 -7 -7t-13 2l-221 64q-12 3 -14.5 8t0.5 13l27 62v0z" />
    <glyph glyph-name="Iacute" unicode="&#xcd;" horiz-adv-x="306" 
d="M279 742q15 0 12 -20l-99 -704q-1 -12 -5.5 -15t-17.5 -3h-108q-12 0 -14.5 6t-1.5 16l100 707q1 8 3.5 10.5t9.5 2.5h121zM380 892q2 -8 0 -12.5t-13 -7.5l-239 -66q-10 -2 -15 2t-6 12l-7 30q-3 14 4 16l248 96q5 3 9 0.5t6 -10.5z" />
    <glyph glyph-name="Icircumflex" unicode="&#xce;" horiz-adv-x="306" 
d="M279 742q15 0 12 -20l-99 -704q-1 -12 -5.5 -15t-17.5 -3h-108q-12 0 -14.5 6t-1.5 16l100 707q1 8 3.5 10.5t9.5 2.5h121zM255 891q-7 9 -10.5 8.5t-13.5 -9.5l-63 -53q-6 -6 -10.5 -7.5t-11.5 -1.5h-74q-8 0 -8.5 5.5t4.5 9.5l122 107q7 6 13.5 8t17.5 2h61q9 0 13 -5
t8 -9l91 -106q6 -7 4 -9.5t-10 -2.5h-72q-7 0 -11 3t-8 8z" />
    <glyph glyph-name="Idieresis" unicode="&#xcf;" horiz-adv-x="306" 
d="M279 742q15 0 12 -20l-99 -704q-1 -12 -5.5 -15t-17.5 -3h-108q-12 0 -14.5 6t-1.5 16l100 707q1 8 3.5 10.5t9.5 2.5h121zM203 846q-1 -11 -5 -13t-16 -2h-79q-10 0 -14 5.5t-3 14.5l13 91q1 8 3.5 10t8.5 2h92q7 0 10.5 -5.5t2.5 -12.5zM387 846q-1 -11 -5 -13t-16 -2
h-80q-10 0 -13.5 5.5t-2.5 14.5l12 91q2 8 4 10t8 2h92q7 0 11 -5.5t2 -12.5z" />
    <glyph glyph-name="Eth" unicode="&#xd0;" horiz-adv-x="716" 
d="M383 336q-2 -11 -7 -14t-17 -3h-321q-11 0 -15.5 6.5t-3.5 16.5l9 62q2 8 4 10.5t9 2.5h337q6 0 10.5 -6t2.5 -13zM39 0q-10 0 -15.5 7t-3.5 18l98 703q2 9 6 11.5t13 2.5h190q121 0 200 -36t118.5 -102.5t39.5 -158.5q0 -138 -53 -238t-153 -153.5t-244 -53.5h-196v0z
M249 106q100 0 162 43t91 120.5t29 182.5q0 66 -23 106.5t-68 59t-112 18.5h-61q-14 0 -16 -16l-69 -498q-1 -8 2 -12t10 -4h55z" />
    <glyph glyph-name="Ntilde" unicode="&#xd1;" horiz-adv-x="758" 
d="M734 742q12 0 10 -14l-101 -717q-1 -11 -15 -11h-84q-6 0 -11 3.5t-10 10.5l-275 486q-4 7 -8 6t-5 -11l-68 -481q-1 -8 -4.5 -11t-13.5 -3h-92q-8 0 -11 5.5t-2 13.5l101 710q1 8 3.5 10.5t11.5 2.5h99q10 0 15 -4t9 -12l257 -463q5 -8 11 -7t7 12l65 462q2 8 4.5 10
t10.5 2h96zM634 868q-16 -7 -38.5 -14t-49.5 -7q-28 0 -50.5 7.5l-42 14t-43.5 6.5t-37.5 -9t-32.5 -18q-8 -3 -12 1t-6 13l-8 37q-1 7 -3 12.5t7 11.5q19 12 39 20t48 8q29 0 53 -7t45.5 -15t42.5 -8q15 0 27 5.5t22.5 12.5t20.5 10q9 2 14.5 -2.5t6.5 -12.5l5 -44
q1 -6 1 -12.5t-9 -9.5v0z" />
    <glyph glyph-name="Ograve" unicode="&#xd2;" horiz-adv-x="770" 
d="M352 -10q-92 0 -157 35.5t-99.5 103.5t-34.5 163q0 19 1.5 40.5t4.5 42.5q17 119 69 203t132.5 129t180.5 45q90 0 155 -36.5t99.5 -105t34.5 -165.5q0 -19 -1 -40t-5 -43q-16 -117 -67.5 -200.5t-131.5 -127.5t-181 -44v0zM357 96q93 0 147.5 67t75.5 211q4 29 5.5 53.5
t1.5 45.5q0 90 -35 132t-106 42q-93 0 -149 -69.5t-77 -217.5q-4 -26 -6 -50t-2 -44q0 -88 36 -129t109 -41v0zM355 955q3 5 7.5 6.5t9.5 -0.5l219 -97q6 -3 8 -7t0 -11l-16 -33q-3 -6 -7 -7t-13 2l-221 64q-12 3 -14.5 8t0.5 13l27 62v0z" />
    <glyph glyph-name="Oacute" unicode="&#xd3;" horiz-adv-x="770" 
d="M352 -10q-92 0 -157 35.5t-99.5 103.5t-34.5 163q0 19 1.5 40.5t4.5 42.5q17 119 69 203t132.5 129t180.5 45q90 0 155 -36.5t99.5 -105t34.5 -165.5q0 -19 -1 -40t-5 -43q-16 -117 -67.5 -200.5t-131.5 -127.5t-181 -44v0zM357 96q93 0 147.5 67t75.5 211q4 29 5.5 53.5
t1.5 45.5q0 90 -35 132t-106 42q-93 0 -149 -69.5t-77 -217.5q-4 -26 -6 -50t-2 -44q0 -88 36 -129t109 -41v0zM611 892q2 -8 0 -12.5t-13 -7.5l-239 -66q-10 -2 -15 2t-6 12l-7 30q-3 14 4 16l248 96q5 3 9 0.5t6 -10.5z" />
    <glyph glyph-name="Ocircumflex" unicode="&#xd4;" horiz-adv-x="770" 
d="M352 -10q-92 0 -157 35.5t-99.5 103.5t-34.5 163q0 19 1.5 40.5t4.5 42.5q17 119 69 203t132.5 129t180.5 45q90 0 155 -36.5t99.5 -105t34.5 -165.5q0 -19 -1 -40t-5 -43q-16 -117 -67.5 -200.5t-131.5 -127.5t-181 -44v0zM357 96q93 0 147.5 67t75.5 211q4 29 5.5 53.5
t1.5 45.5q0 90 -35 132t-106 42q-93 0 -149 -69.5t-77 -217.5q-4 -26 -6 -50t-2 -44q0 -88 36 -129t109 -41v0zM485 891q-7 9 -10.5 8.5t-13.5 -9.5l-63 -53q-6 -6 -10.5 -7.5t-11.5 -1.5h-74q-8 0 -8.5 5.5t4.5 9.5l122 107q7 6 13.5 8t17.5 2h61q9 0 13 -5t8 -9l91 -106
q6 -7 4 -9.5t-10 -2.5h-72q-7 0 -11 3t-8 8z" />
    <glyph glyph-name="Otilde" unicode="&#xd5;" horiz-adv-x="770" 
d="M352 -10q-92 0 -157 35.5t-99.5 103.5t-34.5 163q0 19 1.5 40.5t4.5 42.5q17 119 69 203t132.5 129t180.5 45q90 0 155 -36.5t99.5 -105t34.5 -165.5q0 -19 -1 -40t-5 -43q-16 -117 -67.5 -200.5t-131.5 -127.5t-181 -44v0zM357 96q93 0 147.5 67t75.5 211q4 29 5.5 53.5
t1.5 45.5q0 90 -35 132t-106 42q-93 0 -149 -69.5t-77 -217.5q-4 -26 -6 -50t-2 -44q0 -88 36 -129t109 -41v0zM633 868q-16 -7 -38.5 -14t-49.5 -7q-28 0 -50.5 7.5l-42 14t-43.5 6.5t-37.5 -9t-32.5 -18q-8 -3 -12 1t-6 13l-8 37q-1 7 -3 12.5t7 11.5q19 12 39 20t48 8
q29 0 53 -7t45.5 -15t42.5 -8q15 0 27 5.5t22.5 12.5t20.5 10q9 2 14.5 -2.5t6.5 -12.5l5 -44q1 -6 1 -12.5t-9 -9.5v0z" />
    <glyph glyph-name="Odieresis" unicode="&#xd6;" horiz-adv-x="770" 
d="M352 -10q-92 0 -157 35.5t-99.5 103.5t-34.5 163q0 19 1.5 40.5t4.5 42.5q17 119 69 203t132.5 129t180.5 45q90 0 155 -36.5t99.5 -105t34.5 -165.5q0 -19 -1 -40t-5 -43q-16 -117 -67.5 -200.5t-131.5 -127.5t-181 -44v0zM357 96q93 0 147.5 67t75.5 211q4 29 5.5 53.5
t1.5 45.5q0 90 -35 132t-106 42q-93 0 -149 -69.5t-77 -217.5q-4 -26 -6 -50t-2 -44q0 -88 36 -129t109 -41v0zM434 846q-1 -11 -5 -13t-16 -2h-79q-10 0 -14 5.5t-3 14.5l13 91q1 8 3.5 10t8.5 2h92q7 0 10.5 -5.5t2.5 -12.5zM618 846q-1 -11 -5 -13t-16 -2h-80
q-10 0 -13.5 5.5t-2.5 14.5l12 91q2 8 4 10t8 2h92q7 0 11 -5.5t2 -12.5z" />
    <glyph glyph-name="multiply" unicode="&#xd7;" horiz-adv-x="564" 
d="M442 157q-8 -7 -14.5 -4t-14.5 12l-308 357q-6 8 -7 13.5t6 11.5l51 45q7 5 12 3t8 -7l317 -368q4 -3 5.5 -8.5t-4.5 -9.5zM63 203q-7 7 -7.5 14t8.5 16l408 358q9 7 14 4t10 -9l39 -45q5 -5 6.5 -10t-1.5 -10l-421 -368q-5 -4 -9.5 -1.5t-8.5 6.5z" />
    <glyph glyph-name="Oslash" unicode="&#xd8;" horiz-adv-x="752" 
d="M795 701q4 -4 6 -9t-4 -11l-96 -85q20 -45 26 -103.5t-4 -130.5q-16 -117 -67.5 -200.5t-131.5 -127.5t-181 -44q-71 0 -125 22t-90 61l-75 -73q-10 -9 -17 -6.5t-14 10.5l-26 30q-8 8 -10 14.5t5 12.5l90 80q-20 45 -27 104t4 130q17 119 69 203t132 129t181 45
q71 0 125 -23t90 -64l82 79q6 6 12 4.5t10 -6.5l36 -41v0zM212 360q-5 -31 -4.5 -58t4.5 -50l345 328q-17 36 -47.5 51.5t-73.5 15.5q-93 0 -148 -69.5t-76 -217.5v0zM569 374q4 32 4 60t-5 50l-343 -326q17 -33 48 -47t75 -14q93 0 147 66.5t74 210.5v0z" />
    <glyph glyph-name="Ugrave" unicode="&#xd9;" horiz-adv-x="717" 
d="M646 262q-14 -100 -56 -160t-109 -86t-156 -26q-136 0 -197 56.5t-61 165.5q0 17 2 36t4 39l63 441q1 9 4 11.5t9 2.5h119q8 0 12 -6t2 -14l-65 -464q-1 -12 -2 -22.5t-1 -21.5q0 -61 32.5 -88.5t93.5 -27.5q49 0 87.5 17.5t63.5 55t33 97.5l65 461q2 8 4 10.5t9 2.5h95
q7 0 11 -6t3 -14l-65 -460v0zM339 955q3 5 7.5 6.5t9.5 -0.5l219 -97q6 -3 8 -7t0 -11l-16 -33q-3 -6 -7 -7t-13 2l-221 64q-12 3 -14.5 8t0.5 13l27 62v0z" />
    <glyph glyph-name="Uacute" unicode="&#xda;" horiz-adv-x="717" 
d="M646 262q-14 -100 -56 -160t-109 -86t-156 -26q-136 0 -197 56.5t-61 165.5q0 17 2 36t4 39l63 441q1 9 4 11.5t9 2.5h119q8 0 12 -6t2 -14l-65 -464q-1 -12 -2 -22.5t-1 -21.5q0 -61 32.5 -88.5t93.5 -27.5q49 0 87.5 17.5t63.5 55t33 97.5l65 461q2 8 4 10.5t9 2.5h95
q7 0 11 -6t3 -14l-65 -460v0zM595 892q2 -8 0 -12.5t-13 -7.5l-239 -66q-10 -2 -15 2t-6 12l-7 30q-3 14 4 16l248 96q5 3 9 0.5t6 -10.5z" />
    <glyph glyph-name="Ucircumflex" unicode="&#xdb;" horiz-adv-x="717" 
d="M646 262q-14 -100 -56 -160t-109 -86t-156 -26q-136 0 -197 56.5t-61 165.5q0 17 2 36t4 39l63 441q1 9 4 11.5t9 2.5h119q8 0 12 -6t2 -14l-65 -464q-1 -12 -2 -22.5t-1 -21.5q0 -61 32.5 -88.5t93.5 -27.5q49 0 87.5 17.5t63.5 55t33 97.5l65 461q2 8 4 10.5t9 2.5h95
q7 0 11 -6t3 -14l-65 -460v0zM470 891q-7 9 -10.5 8.5t-13.5 -9.5l-63 -53q-6 -6 -10.5 -7.5t-11.5 -1.5h-74q-8 0 -8.5 5.5t4.5 9.5l122 107q7 6 13.5 8t17.5 2h61q9 0 13 -5t8 -9l91 -106q6 -7 4 -9.5t-10 -2.5h-72q-7 0 -11 3t-8 8z" />
    <glyph glyph-name="Udieresis" unicode="&#xdc;" horiz-adv-x="717" 
d="M646 262q-14 -100 -56 -160t-109 -86t-156 -26q-136 0 -197 56.5t-61 165.5q0 17 2 36t4 39l63 441q1 9 4 11.5t9 2.5h119q8 0 12 -6t2 -14l-65 -464q-1 -12 -2 -22.5t-1 -21.5q0 -61 32.5 -88.5t93.5 -27.5q49 0 87.5 17.5t63.5 55t33 97.5l65 461q2 8 4 10.5t9 2.5h95
q7 0 11 -6t3 -14l-65 -460v0zM418 846q-1 -11 -5 -13t-16 -2h-79q-10 0 -14 5.5t-3 14.5l13 91q1 8 3.5 10t8.5 2h92q7 0 10.5 -5.5t2.5 -12.5zM602 846q-1 -11 -5 -13t-16 -2h-80q-10 0 -13.5 5.5t-2.5 14.5l12 91q2 8 4 10t8 2h92q7 0 11 -5.5t2 -12.5z" />
    <glyph glyph-name="Yacute" unicode="&#xdd;" horiz-adv-x="715" 
d="M736 742q10 0 12 -6t-3 -13l-293 -392q-6 -7 -9 -16t-6 -30l-38 -267q-2 -12 -7 -15t-18 -3h-108q-11 0 -13.5 4.5t-1.5 14.5l39 276q2 12 1.5 18t-4.5 15l-183 396q-5 9 -3 13.5t14 4.5h124q11 0 15.5 -5t8.5 -14l122 -281q6 -15 16 0l204 288q6 8 10.5 10t15.5 2h105v0
zM590 892q2 -8 0 -12.5t-13 -7.5l-239 -66q-10 -2 -15 2t-6 12l-7 30q-3 14 4 16l248 96q5 3 9 0.5t6 -10.5z" />
    <glyph glyph-name="Thorn" unicode="&#xde;" horiz-adv-x="712" 
d="M685 373q-10 -72 -50 -119t-103.5 -70.5t-141.5 -23.5h-165q-6 0 -10 -4.5t-5 -9.5l-18 -130q-1 -10 -5.5 -13t-15.5 -3h-108q-10 0 -14.5 6t-3.5 15l100 708q1 8 3.5 10.5t9.5 2.5h119q7 0 11.5 -6t2.5 -14l-17 -122q-1 -4 0 -4.5t5 -0.5h149q80 0 142 -24.5t94 -73.5
t21 -124v0zM536 389q8 53 -27 76t-99 23h-132q-9 0 -15 -5.5t-7 -13.5l-27 -189q-1 -8 0 -10.5t8 -2.5h143q62 0 105 31t51 91v0z" />
    <glyph glyph-name="germandbls" unicode="&#xdf;" horiz-adv-x="635" 
d="M392 742q69 0 111.5 -20.5t60 -55.5t11.5 -80q-5 -35 -23 -60t-48.5 -43.5t-73.5 -37.5q-24 -10 -36 -19t-14 -24q-1 -10 5.5 -15t25.5 -14q32 -12 66 -27.5t61 -39t41 -58.5t7 -85q-8 -57 -40 -95.5t-81 -58t-110 -19.5q-40 0 -72 9t-51 23q-7 2 -9.5 7t-0.5 10l39 60
q4 5 7.5 2.5t5.5 -7.5q16 -6 34 -12t43 -6q46 0 78.5 22.5t38.5 65.5q5 27 -7 42.5t-34 27.5t-50 24q-27 10 -51.5 25.5t-37 41t-7.5 63.5q5 36 27 61t59 51q20 12 39.5 24.5t33.5 29t17 40.5q3 28 -15 44.5t-59 16.5q-54 0 -90.5 -33t-44.5 -91l-73 -517q1 -9 -1 -11.5
t-10 -2.5h-102q-6 0 -10.5 5.5t-3.5 13.5l56 394q1 5 0.5 6t-5.5 1h-42q-7 0 -11 5t-4 12l9 63q1 6 3.5 8.5t11.5 2.5h38q7 0 11 6.5t5 14.5q7 43 26.5 81t52.5 67t81 45.5t112 16.5v0z" />
    <glyph glyph-name="agrave" unicode="&#xe0;" horiz-adv-x="558" 
d="M334 53q-35 -33 -79 -48t-93 -15q-71 0 -110.5 36t-39.5 93q0 55 28 93t73 61.5t99 35t105 13.5l50 3q19 1 22 19l3 23q1 5 1.5 9.5t0.5 8.5q0 35 -21.5 53t-61.5 18q-36 0 -69.5 -15t-60.5 -53q-3 -5 -7 -6t-12 1l-81 21q-6 2 -8.5 8t3.5 20q35 54 97 81t146 27
q70 0 114 -18t65 -50t21 -75q0 -7 -0.5 -14t-1.5 -15l-50 -352q-1 -11 -4 -13.5t-13 -2.5h-85q-9 0 -12 6t-3 16l2 34q-1 17 -18 -3v0zM375 246q1 9 -0.5 11.5t-9.5 1.5l-47 -4q-24 -2 -54.5 -8t-58.5 -18.5t-46 -34.5t-18 -55q0 -28 20 -44.5t57 -16.5q29 0 55 9.5t45 23.5
q20 14 32.5 31t14.5 33zM223 743q3 5 7.5 6.5t9.5 -0.5l219 -97q6 -3 8 -7t0 -11l-16 -33q-3 -6 -7 -7t-13 2l-221 64q-12 3 -14.5 8t0.5 13l27 62v0z" />
    <glyph glyph-name="aacute" unicode="&#xe1;" horiz-adv-x="558" 
d="M334 53q-35 -33 -79 -48t-93 -15q-71 0 -110.5 36t-39.5 93q0 55 28 93t73 61.5t99 35t105 13.5l50 3q19 1 22 19l3 23q1 5 1.5 9.5t0.5 8.5q0 35 -21.5 53t-61.5 18q-36 0 -69.5 -15t-60.5 -53q-3 -5 -7 -6t-12 1l-81 21q-6 2 -8.5 8t3.5 20q35 54 97 81t146 27
q70 0 114 -18t65 -50t21 -75q0 -7 -0.5 -14t-1.5 -15l-50 -352q-1 -11 -4 -13.5t-13 -2.5h-85q-9 0 -12 6t-3 16l2 34q-1 17 -18 -3v0zM375 246q1 9 -0.5 11.5t-9.5 1.5l-47 -4q-24 -2 -54.5 -8t-58.5 -18.5t-46 -34.5t-18 -55q0 -28 20 -44.5t57 -16.5q29 0 55 9.5t45 23.5
q20 14 32.5 31t14.5 33zM479 680q2 -8 0 -12.5t-13 -7.5l-239 -66q-10 -2 -15 2t-6 12l-7 30q-3 14 4 16l248 96q5 3 9 0.5t6 -10.5z" />
    <glyph glyph-name="acircumflex" unicode="&#xe2;" horiz-adv-x="558" 
d="M334 53q-35 -33 -79 -48t-93 -15q-71 0 -110.5 36t-39.5 93q0 55 28 93t73 61.5t99 35t105 13.5l50 3q19 1 22 19l3 23q1 5 1.5 9.5t0.5 8.5q0 35 -21.5 53t-61.5 18q-36 0 -69.5 -15t-60.5 -53q-3 -5 -7 -6t-12 1l-81 21q-6 2 -8.5 8t3.5 20q35 54 97 81t146 27
q70 0 114 -18t65 -50t21 -75q0 -7 -0.5 -14t-1.5 -15l-50 -352q-1 -11 -4 -13.5t-13 -2.5h-85q-9 0 -12 6t-3 16l2 34q-1 17 -18 -3v0zM375 246q1 9 -0.5 11.5t-9.5 1.5l-47 -4q-24 -2 -54.5 -8t-58.5 -18.5t-46 -34.5t-18 -55q0 -28 20 -44.5t57 -16.5q29 0 55 9.5t45 23.5
q20 14 32.5 31t14.5 33zM354 679q-7 9 -10.5 8.5t-13.5 -9.5l-63 -53q-6 -6 -10.5 -7.5t-11.5 -1.5h-74q-8 0 -8.5 5.5t4.5 9.5l122 107q7 6 13.5 8t17.5 2h61q9 0 13 -5t8 -9l91 -106q6 -7 4 -9.5t-10 -2.5h-72q-7 0 -11 3t-8 8z" />
    <glyph glyph-name="atilde" unicode="&#xe3;" horiz-adv-x="558" 
d="M334 53q-35 -33 -79 -48t-93 -15q-71 0 -110.5 36t-39.5 93q0 55 28 93t73 61.5t99 35t105 13.5l50 3q19 1 22 19l3 23q1 5 1.5 9.5t0.5 8.5q0 35 -21.5 53t-61.5 18q-36 0 -69.5 -15t-60.5 -53q-3 -5 -7 -6t-12 1l-81 21q-6 2 -8.5 8t3.5 20q35 54 97 81t146 27
q70 0 114 -18t65 -50t21 -75q0 -7 -0.5 -14t-1.5 -15l-50 -352q-1 -11 -4 -13.5t-13 -2.5h-85q-9 0 -12 6t-3 16l2 34q-1 17 -18 -3v0zM375 246q1 9 -0.5 11.5t-9.5 1.5l-47 -4q-24 -2 -54.5 -8t-58.5 -18.5t-46 -34.5t-18 -55q0 -28 20 -44.5t57 -16.5q29 0 55 9.5t45 23.5
q20 14 32.5 31t14.5 33zM501 656q-16 -7 -38.5 -14t-49.5 -7q-28 0 -50.5 7.5l-42 14t-43.5 6.5t-37.5 -9t-32.5 -18q-8 -3 -12 1t-6 13l-8 37q-1 7 -3 12.5t7 11.5q19 12 39 20t48 8q29 0 53 -7t45.5 -15t42.5 -8q15 0 27 5.5t22.5 12.5t20.5 10q9 2 14.5 -2.5t6.5 -12.5
l5 -44q1 -6 1 -12.5t-9 -9.5v0z" />
    <glyph glyph-name="adieresis" unicode="&#xe4;" horiz-adv-x="558" 
d="M334 53q-35 -33 -79 -48t-93 -15q-71 0 -110.5 36t-39.5 93q0 55 28 93t73 61.5t99 35t105 13.5l50 3q19 1 22 19l3 23q1 5 1.5 9.5t0.5 8.5q0 35 -21.5 53t-61.5 18q-36 0 -69.5 -15t-60.5 -53q-3 -5 -7 -6t-12 1l-81 21q-6 2 -8.5 8t3.5 20q35 54 97 81t146 27
q70 0 114 -18t65 -50t21 -75q0 -7 -0.5 -14t-1.5 -15l-50 -352q-1 -11 -4 -13.5t-13 -2.5h-85q-9 0 -12 6t-3 16l2 34q-1 17 -18 -3v0zM375 246q1 9 -0.5 11.5t-9.5 1.5l-47 -4q-24 -2 -54.5 -8t-58.5 -18.5t-46 -34.5t-18 -55q0 -28 20 -44.5t57 -16.5q29 0 55 9.5t45 23.5
q20 14 32.5 31t14.5 33zM302 634q-1 -11 -5 -13t-16 -2h-79q-10 0 -14 5.5t-3 14.5l13 91q1 8 3.5 10t8.5 2h92q7 0 10.5 -5.5t2.5 -12.5zM486 634q-1 -11 -5 -13t-16 -2h-80q-10 0 -13.5 5.5t-2.5 14.5l12 91q2 8 4 10t8 2h92q7 0 11 -5.5t2 -12.5z" />
    <glyph glyph-name="aring" unicode="&#xe5;" horiz-adv-x="558" 
d="M334 53q-35 -33 -79 -48t-93 -15q-71 0 -110.5 36t-39.5 93q0 55 28 93t73 61.5t99 35t105 13.5l50 3q19 1 22 19l3 23q1 5 1.5 9.5t0.5 8.5q0 35 -21.5 53t-61.5 18q-36 0 -69.5 -15t-60.5 -53q-3 -5 -7 -6t-12 1l-81 21q-6 2 -8.5 8t3.5 20q35 54 97 81t146 27
q70 0 114 -18t65 -50t21 -75q0 -7 -0.5 -14t-1.5 -15l-50 -352q-1 -11 -4 -13.5t-13 -2.5h-85q-9 0 -12 6t-3 16l2 34q-1 17 -18 -3v0zM375 246q1 9 -0.5 11.5t-9.5 1.5l-47 -4q-24 -2 -54.5 -8t-58.5 -18.5t-46 -34.5t-18 -55q0 -28 20 -44.5t57 -16.5q29 0 55 9.5t45 23.5
q20 14 32.5 31t14.5 33zM453 688q-7 -45 -41 -74t-78 -29q-31 0 -55 16t-36 43t-7 60q5 42 40 70t78 28q32 0 56 -15.5t35.5 -41t7.5 -57.5v0zM396 701q3 21 -8.5 33t-31.5 12q-23 0 -43.5 -17t-24.5 -42q-2 -19 10.5 -33t31.5 -14q24 0 43.5 18.5t22.5 42.5v0z" />
    <glyph glyph-name="ae" unicode="&#xe6;" horiz-adv-x="921" 
d="M523 240q-10 0 -15.5 -6.5t-7.5 -21.5q-6 -36 8.5 -66t44 -47.5t68.5 -17.5q34 0 60 10t48 28t43 39q5 3 7.5 1t9.5 -5l57 -28q5 -2 7.5 -7.5t-2.5 -14.5q-34 -41 -72 -66t-81.5 -36.5t-94.5 -11.5q-52 0 -89.5 15.5t-63 39t-41.5 48.5q-3 0 -6.5 -4t-5.5 -8
q-28 -25 -61 -46t-74.5 -33t-95.5 -12q-84 0 -123.5 43t-29.5 114q11 75 82 120.5t207 53.5l62 4q7 1 15 6t9 13l3 23q6 44 -14.5 66.5t-68.5 22.5q-35 0 -68.5 -17.5t-60.5 -55.5q-5 -5 -8 -3.5t-11 3.5l-80 21q-5 2 -6.5 10.5t1.5 17.5q26 36 58.5 60t77 36t105.5 12
q72 -1 114 -20t57 -55q38 39 84.5 57t97.5 18q76 0 129 -33.5t77.5 -97t11.5 -153.5q-1 -9 -3 -12t-15 -4h-346v0zM671 458q-36 0 -69.5 -18t-56.5 -51t-29 -78l232 3q11 0 16 5t6 17q5 29 -5 57t-33.5 46.5t-60.5 18.5v0zM373 241q2 9 0 11t-12 2l-50 -4q-44 -3 -81 -17
t-60.5 -37t-28.5 -55q-5 -31 15 -50t62 -18q36 2 67.5 15t53 35t25.5 48l9 70v0z" />
    <glyph glyph-name="ccedilla" unicode="&#xe7;" horiz-adv-x="548" 
d="M331 540q61 0 102.5 -21.5t66 -55.5t33.5 -72q1 -7 -1 -10t-11 -4l-85 -10q-5 -1 -8 4t-5 13q-11 21 -22 36.5t-27 24t-40 8.5q-44 0 -76 -23.5t-53 -60.5t-31.5 -79.5t-10.5 -81.5q0 -65 30 -98.5t83 -33.5q48 0 81 22.5t64 67.5q4 5 14 2l61 -17q6 -1 8 -7t-1 -16
q-13 -22 -34.5 -46.5t-51 -45t-68 -33.5t-85.5 -13q-70 0 -122 29t-80.5 81t-28.5 122q0 61 21 118t60 102.5t94 71.5t123 26v0zM350 -141q-5 -37 -41.5 -56t-82.5 -19q-30 0 -55.5 7t-44.5 20q-5 1 -7.5 4.5t-1.5 6.5l18 32q2 4 4 1t3 -6q14 -6 30 -11t34 -5q28 0 45 11.5
t19 29.5q3 18 -13.5 27t-60.5 9q-8 0 -11.5 3.5t-1.5 8.5l50 83h61l-28 -57q-2 -3 -3 -3t1 0q36 -1 55.5 -14.5t26.5 -32.5t4 -39v0z" />
    <glyph glyph-name="egrave" unicode="&#xe8;" horiz-adv-x="584" 
d="M268 -10q-71 0 -123.5 29t-82 80.5t-29.5 119.5q0 62 21.5 119.5t61.5 103t95 72t122 26.5t117 -27t77.5 -77.5t27.5 -123.5q0 -13 -1 -27t-3 -29q-1 -8 -6 -12t-16 -4h-351q-10 0 -13 -11.5t-3 -32.5q0 -55 34.5 -85t88.5 -30q43 0 79 17.5t68 54.5q5 5 10 4.5t11 -3.5
l57 -28q17 -7 5 -22q-37 -43 -74.5 -68t-79.5 -35.5t-93 -10.5v0zM412 311q10 0 17 8t7 33q0 44 -26.5 75t-76.5 31q-40 0 -73 -20.5t-54.5 -54t-26.5 -72.5h233zM239 743q3 5 7.5 6.5t9.5 -0.5l219 -97q6 -3 8 -7t0 -11l-16 -33q-3 -6 -7 -7t-13 2l-221 64q-12 3 -14.5 8
t0.5 13l27 62v0z" />
    <glyph glyph-name="eacute" unicode="&#xe9;" horiz-adv-x="584" 
d="M268 -10q-71 0 -123.5 29t-82 80.5t-29.5 119.5q0 62 21.5 119.5t61.5 103t95 72t122 26.5t117 -27t77.5 -77.5t27.5 -123.5q0 -13 -1 -27t-3 -29q-1 -8 -6 -12t-16 -4h-351q-10 0 -13 -11.5t-3 -32.5q0 -55 34.5 -85t88.5 -30q43 0 79 17.5t68 54.5q5 5 10 4.5t11 -3.5
l57 -28q17 -7 5 -22q-37 -43 -74.5 -68t-79.5 -35.5t-93 -10.5v0zM412 311q10 0 17 8t7 33q0 44 -26.5 75t-76.5 31q-40 0 -73 -20.5t-54.5 -54t-26.5 -72.5h233zM495 680q2 -8 0 -12.5t-13 -7.5l-239 -66q-10 -2 -15 2t-6 12l-7 30q-3 14 4 16l248 96q5 3 9 0.5t6 -10.5z
" />
    <glyph glyph-name="ecircumflex" unicode="&#xea;" horiz-adv-x="584" 
d="M268 -10q-71 0 -123.5 29t-82 80.5t-29.5 119.5q0 62 21.5 119.5t61.5 103t95 72t122 26.5t117 -27t77.5 -77.5t27.5 -123.5q0 -13 -1 -27t-3 -29q-1 -8 -6 -12t-16 -4h-351q-10 0 -13 -11.5t-3 -32.5q0 -55 34.5 -85t88.5 -30q43 0 79 17.5t68 54.5q5 5 10 4.5t11 -3.5
l57 -28q17 -7 5 -22q-37 -43 -74.5 -68t-79.5 -35.5t-93 -10.5v0zM412 311q10 0 17 8t7 33q0 44 -26.5 75t-76.5 31q-40 0 -73 -20.5t-54.5 -54t-26.5 -72.5h233zM369 679q-7 9 -10.5 8.5t-13.5 -9.5l-63 -53q-6 -6 -10.5 -7.5t-11.5 -1.5h-74q-8 0 -8.5 5.5t4.5 9.5
l122 107q7 6 13.5 8t17.5 2h61q9 0 13 -5t8 -9l91 -106q6 -7 4 -9.5t-10 -2.5h-72q-7 0 -11 3t-8 8z" />
    <glyph glyph-name="edieresis" unicode="&#xeb;" horiz-adv-x="584" 
d="M268 -10q-71 0 -123.5 29t-82 80.5t-29.5 119.5q0 62 21.5 119.5t61.5 103t95 72t122 26.5t117 -27t77.5 -77.5t27.5 -123.5q0 -13 -1 -27t-3 -29q-1 -8 -6 -12t-16 -4h-351q-10 0 -13 -11.5t-3 -32.5q0 -55 34.5 -85t88.5 -30q43 0 79 17.5t68 54.5q5 5 10 4.5t11 -3.5
l57 -28q17 -7 5 -22q-37 -43 -74.5 -68t-79.5 -35.5t-93 -10.5v0zM412 311q10 0 17 8t7 33q0 44 -26.5 75t-76.5 31q-40 0 -73 -20.5t-54.5 -54t-26.5 -72.5h233zM318 634q-1 -11 -5 -13t-16 -2h-79q-10 0 -14 5.5t-3 14.5l13 91q1 8 3.5 10t8.5 2h92q7 0 10.5 -5.5
t2.5 -12.5zM502 634q-1 -11 -5 -13t-16 -2h-80q-10 0 -13.5 5.5t-2.5 14.5l12 91q2 8 4 10t8 2h92q7 0 11 -5.5t2 -12.5z" />
    <glyph glyph-name="igrave" unicode="&#xec;" horiz-adv-x="256" 
d="M158 18q-2 -12 -6 -15t-17 -3h-87q-11 0 -15.5 6t-3.5 16l69 495q2 8 4.5 10.5t9.5 2.5h101q7 0 11.5 -6t3.5 -13zM68 743q3 5 7.5 6.5t9.5 -0.5l219 -97q6 -3 8 -7t0 -11l-16 -33q-3 -6 -7 -7t-13 2l-221 64q-12 3 -14.5 8t0.5 13l27 62v0z" />
    <glyph glyph-name="iacute" unicode="&#xed;" horiz-adv-x="256" 
d="M158 18q-2 -12 -6 -15t-17 -3h-87q-11 0 -15.5 6t-3.5 16l69 495q2 8 4.5 10.5t9.5 2.5h101q7 0 11.5 -6t3.5 -13zM323 680q2 -8 0 -12.5t-13 -7.5l-239 -66q-10 -2 -15 2t-6 12l-7 30q-3 14 4 16l248 96q5 3 9 0.5t6 -10.5z" />
    <glyph glyph-name="icircumflex" unicode="&#xee;" horiz-adv-x="256" 
d="M158 18q-2 -12 -6 -15t-17 -3h-87q-11 0 -15.5 6t-3.5 16l69 495q2 8 4.5 10.5t9.5 2.5h101q7 0 11.5 -6t3.5 -13zM198 679q-7 9 -10.5 8.5t-13.5 -9.5l-63 -53q-6 -6 -10.5 -7.5t-11.5 -1.5h-74q-8 0 -8.5 5.5t4.5 9.5l122 107q7 6 13.5 8t17.5 2h61q9 0 13 -5t8 -9
l91 -106q6 -7 4 -9.5t-10 -2.5h-72q-7 0 -11 3t-8 8z" />
    <glyph glyph-name="idieresis" unicode="&#xef;" horiz-adv-x="256" 
d="M158 18q-2 -12 -6 -15t-17 -3h-87q-11 0 -15.5 6t-3.5 16l69 495q2 8 4.5 10.5t9.5 2.5h101q7 0 11.5 -6t3.5 -13zM146 634q-1 -11 -5 -13t-16 -2h-79q-10 0 -14 5.5t-3 14.5l13 91q1 8 3.5 10t8.5 2h92q7 0 10.5 -5.5t2.5 -12.5zM330 634q-1 -11 -5 -13t-16 -2h-80
q-10 0 -13.5 5.5t-2.5 14.5l12 91q2 8 4 10t8 2h92q7 0 11 -5.5t2 -12.5z" />
    <glyph glyph-name="eth" unicode="&#xf0;" horiz-adv-x="599" 
d="M563 263q-12 -82 -52.5 -143.5t-103.5 -95.5t-142 -34t-134.5 35t-80.5 96t-15 138q11 77 52.5 136t104 92t134.5 33q27 0 47.5 -5.5t32.5 -16.5q-13 33 -35 62.5t-58 57.5l-139 -76q-6 -3 -10.5 1t-6.5 10l-11 19q-6 13 0 16l121 61q-20 11 -41.5 22t-45.5 21
q-5 1 -8 5.5t1 7.5l62 44q6 4 9 3t8 -5q33 -9 61.5 -21.5t52.5 -27.5l95 54q5 3 9 -0.5t5 -6.5l13 -31q2 -3 3 -5.5t-3 -5.5l-75 -36q94 -71 130.5 -175.5t19.5 -228.5v0zM269 79q42 0 75.5 22.5t56 64t29.5 96.5q8 53 -2 91.5t-35 59.5t-64 21q-41 0 -75.5 -23.5t-57 -65
t-30.5 -97.5q-7 -52 3 -90t35.5 -58.5t64.5 -20.5v0z" />
    <glyph glyph-name="ntilde" unicode="&#xf1;" horiz-adv-x="592" 
d="M42 0q-9 0 -11.5 6.5t-1.5 15.5l69 495q2 8 4.5 10.5t8.5 2.5h106q5 0 7.5 -2.5t1.5 -9.5l-8 -53q-1 -11 10 -2q43 35 88 56t93 21q69 0 106.5 -36.5t37.5 -95.5q0 -6 -0.5 -13t-1.5 -14l-51 -364q-2 -10 -6 -13.5t-15 -3.5h-96q-9 0 -11.5 6t-1.5 16l49 341
q1 6 1.5 11.5t0.5 9.5q0 30 -17 45t-52 15q-26 0 -48.5 -8t-45 -24t-49.5 -40l-51 -356q-2 -10 -6.5 -13t-16.5 -3h-93v0zM521 656q-16 -7 -38.5 -14t-49.5 -7q-28 0 -50.5 7.5l-42 14t-43.5 6.5t-37.5 -9t-32.5 -18q-8 -3 -12 1t-6 13l-8 37q-1 7 -3 12.5t7 11.5
q19 12 39 20t48 8q29 0 53 -7t45.5 -15t42.5 -8q15 0 27 5.5t22.5 12.5t20.5 10q9 2 14.5 -2.5t6.5 -12.5l5 -44q1 -6 1 -12.5t-9 -9.5v0z" />
    <glyph glyph-name="ograve" unicode="&#xf2;" horiz-adv-x="599" 
d="M265 -10q-71 0 -123 29t-80.5 81t-28.5 121q0 70 24 128.5t65.5 101t96 66t115.5 23.5q71 0 123 -30t80 -83t28 -122q0 -91 -40 -162.5t-107.5 -112t-152.5 -40.5v0zM269 79q47 0 85 29.5t60 85t22 135.5q0 60 -26.5 92.5t-77.5 32.5q-47 0 -85 -30t-61 -86t-23 -136
q0 -59 27.5 -91t78.5 -32v0zM240 743q3 5 7.5 6.5t9.5 -0.5l219 -97q6 -3 8 -7t0 -11l-16 -33q-3 -6 -7 -7t-13 2l-221 64q-12 3 -14.5 8t0.5 13l27 62v0z" />
    <glyph glyph-name="oacute" unicode="&#xf3;" horiz-adv-x="599" 
d="M265 -10q-71 0 -123 29t-80.5 81t-28.5 121q0 70 24 128.5t65.5 101t96 66t115.5 23.5q71 0 123 -30t80 -83t28 -122q0 -91 -40 -162.5t-107.5 -112t-152.5 -40.5v0zM269 79q47 0 85 29.5t60 85t22 135.5q0 60 -26.5 92.5t-77.5 32.5q-47 0 -85 -30t-61 -86t-23 -136
q0 -59 27.5 -91t78.5 -32v0zM496 680q2 -8 0 -12.5t-13 -7.5l-239 -66q-10 -2 -15 2t-6 12l-7 30q-3 14 4 16l248 96q5 3 9 0.5t6 -10.5z" />
    <glyph glyph-name="ocircumflex" unicode="&#xf4;" horiz-adv-x="599" 
d="M265 -10q-71 0 -123 29t-80.5 81t-28.5 121q0 70 24 128.5t65.5 101t96 66t115.5 23.5q71 0 123 -30t80 -83t28 -122q0 -91 -40 -162.5t-107.5 -112t-152.5 -40.5v0zM269 79q47 0 85 29.5t60 85t22 135.5q0 60 -26.5 92.5t-77.5 32.5q-47 0 -85 -30t-61 -86t-23 -136
q0 -59 27.5 -91t78.5 -32v0zM371 679q-7 9 -10.5 8.5t-13.5 -9.5l-63 -53q-6 -6 -10.5 -7.5t-11.5 -1.5h-74q-8 0 -8.5 5.5t4.5 9.5l122 107q7 6 13.5 8t17.5 2h61q9 0 13 -5t8 -9l91 -106q6 -7 4 -9.5t-10 -2.5h-72q-7 0 -11 3t-8 8z" />
    <glyph glyph-name="otilde" unicode="&#xf5;" horiz-adv-x="599" 
d="M265 -10q-71 0 -123 29t-80.5 81t-28.5 121q0 70 24 128.5t65.5 101t96 66t115.5 23.5q71 0 123 -30t80 -83t28 -122q0 -91 -40 -162.5t-107.5 -112t-152.5 -40.5v0zM269 79q47 0 85 29.5t60 85t22 135.5q0 60 -26.5 92.5t-77.5 32.5q-47 0 -85 -30t-61 -86t-23 -136
q0 -59 27.5 -91t78.5 -32v0zM518 656q-16 -7 -38.5 -14t-49.5 -7q-28 0 -50.5 7.5l-42 14t-43.5 6.5t-37.5 -9t-32.5 -18q-8 -3 -12 1t-6 13l-8 37q-1 7 -3 12.5t7 11.5q19 12 39 20t48 8q29 0 53 -7t45.5 -15t42.5 -8q15 0 27 5.5t22.5 12.5t20.5 10q9 2 14.5 -2.5
t6.5 -12.5l5 -44q1 -6 1 -12.5t-9 -9.5v0z" />
    <glyph glyph-name="odieresis" unicode="&#xf6;" horiz-adv-x="599" 
d="M265 -10q-71 0 -123 29t-80.5 81t-28.5 121q0 70 24 128.5t65.5 101t96 66t115.5 23.5q71 0 123 -30t80 -83t28 -122q0 -91 -40 -162.5t-107.5 -112t-152.5 -40.5v0zM269 79q47 0 85 29.5t60 85t22 135.5q0 60 -26.5 92.5t-77.5 32.5q-47 0 -85 -30t-61 -86t-23 -136
q0 -59 27.5 -91t78.5 -32v0zM319 634q-1 -11 -5 -13t-16 -2h-79q-10 0 -14 5.5t-3 14.5l13 91q1 8 3.5 10t8.5 2h92q7 0 10.5 -5.5t2.5 -12.5zM503 634q-1 -11 -5 -13t-16 -2h-80q-10 0 -13.5 5.5t-2.5 14.5l12 91q2 8 4 10t8 2h92q7 0 11 -5.5t2 -12.5z" />
    <glyph glyph-name="divide" unicode="&#xf7;" horiz-adv-x="575" 
d="M340 126q-1 -10 -5 -13t-17 -3h-102q-10 0 -14.5 6.5t-3.5 14.5l15 105q2 8 4 9.5t7 1.5h119q6 0 9.5 -5t2.5 -12zM532 341q0 -10 -5 -13t-17 -3h-428q-10 0 -14.5 6t-3.5 15l10 63q1 8 3 10t8 2h443q6 0 10.5 -5.5t3.5 -11.5zM395 514q-1 -10 -5 -12.5t-17 -2.5h-102
q-10 0 -15 6t-3 15l15 104q1 9 3.5 10.5t7.5 1.5h118q6 0 10 -5t3 -13z" />
    <glyph glyph-name="oslash" unicode="&#xf8;" horiz-adv-x="591" 
d="M41 6q-9 -8 -16.5 -5.5t-13.5 10.5l-14 17q-6 8 -8 15t6 14l556 467q9 7 14.5 5t9.5 -7l22 -26q4 -5 6 -10.5t-5 -10.5zM257 -10q-72 0 -124 29t-80 81t-28 121q0 70 23.5 128.5t65 101t96 66t115.5 23.5q72 0 123.5 -30t79.5 -83t28 -122q0 -91 -39.5 -162.5
t-107.5 -112t-152 -40.5v0zM260 79q47 0 85 29.5t60 85t22 135.5q0 60 -26.5 92.5t-77.5 32.5q-46 0 -84.5 -30t-61.5 -86t-23 -136q0 -59 27.5 -91t78.5 -32v0z" />
    <glyph glyph-name="ugrave" unicode="&#xf9;" horiz-adv-x="588" 
d="M179 -10q-63 0 -101.5 36.5t-38.5 97.5q0 7 0.5 14.5t1.5 13.5l50 361q2 10 6.5 13.5t14.5 3.5h92q10 0 14 -6t3 -16l-48 -340q-1 -5 -1.5 -10t-0.5 -9q0 -33 18 -48.5t48 -15.5q38 0 73 20.5t68 51.5l52 357q1 10 6 13t16 3h90q10 0 15 -6t3 -16l-72 -495
q-1 -8 -3 -10.5t-10 -2.5h-98q-6 0 -10 3t-3 10l8 51q1 6 -2.5 6.5t-10.5 -4.5q-51 -43 -94 -59.5t-86 -16.5v0zM225 743q3 5 7.5 6.5t9.5 -0.5l219 -97q6 -3 8 -7t0 -11l-16 -33q-3 -6 -7 -7t-13 2l-221 64q-12 3 -14.5 8t0.5 13l27 62v0z" />
    <glyph glyph-name="uacute" unicode="&#xfa;" horiz-adv-x="588" 
d="M179 -10q-63 0 -101.5 36.5t-38.5 97.5q0 7 0.5 14.5t1.5 13.5l50 361q2 10 6.5 13.5t14.5 3.5h92q10 0 14 -6t3 -16l-48 -340q-1 -5 -1.5 -10t-0.5 -9q0 -33 18 -48.5t48 -15.5q38 0 73 20.5t68 51.5l52 357q1 10 6 13t16 3h90q10 0 15 -6t3 -16l-72 -495
q-1 -8 -3 -10.5t-10 -2.5h-98q-6 0 -10 3t-3 10l8 51q1 6 -2.5 6.5t-10.5 -4.5q-51 -43 -94 -59.5t-86 -16.5v0zM481 680q2 -8 0 -12.5t-13 -7.5l-239 -66q-10 -2 -15 2t-6 12l-7 30q-3 14 4 16l248 96q5 3 9 0.5t6 -10.5z" />
    <glyph glyph-name="ucircumflex" unicode="&#xfb;" horiz-adv-x="588" 
d="M179 -10q-63 0 -101.5 36.5t-38.5 97.5q0 7 0.5 14.5t1.5 13.5l50 361q2 10 6.5 13.5t14.5 3.5h92q10 0 14 -6t3 -16l-48 -340q-1 -5 -1.5 -10t-0.5 -9q0 -33 18 -48.5t48 -15.5q38 0 73 20.5t68 51.5l52 357q1 10 6 13t16 3h90q10 0 15 -6t3 -16l-72 -495
q-1 -8 -3 -10.5t-10 -2.5h-98q-6 0 -10 3t-3 10l8 51q1 6 -2.5 6.5t-10.5 -4.5q-51 -43 -94 -59.5t-86 -16.5v0zM356 679q-7 9 -10.5 8.5t-13.5 -9.5l-63 -53q-6 -6 -10.5 -7.5t-11.5 -1.5h-74q-8 0 -8.5 5.5t4.5 9.5l122 107q7 6 13.5 8t17.5 2h61q9 0 13 -5t8 -9l91 -106
q6 -7 4 -9.5t-10 -2.5h-72q-7 0 -11 3t-8 8z" />
    <glyph glyph-name="udieresis" unicode="&#xfc;" horiz-adv-x="588" 
d="M179 -10q-63 0 -101.5 36.5t-38.5 97.5q0 7 0.5 14.5t1.5 13.5l50 361q2 10 6.5 13.5t14.5 3.5h92q10 0 14 -6t3 -16l-48 -340q-1 -5 -1.5 -10t-0.5 -9q0 -33 18 -48.5t48 -15.5q38 0 73 20.5t68 51.5l52 357q1 10 6 13t16 3h90q10 0 15 -6t3 -16l-72 -495
q-1 -8 -3 -10.5t-10 -2.5h-98q-6 0 -10 3t-3 10l8 51q1 6 -2.5 6.5t-10.5 -4.5q-51 -43 -94 -59.5t-86 -16.5v0zM304 634q-1 -11 -5 -13t-16 -2h-79q-10 0 -14 5.5t-3 14.5l13 91q1 8 3.5 10t8.5 2h92q7 0 10.5 -5.5t2.5 -12.5zM488 634q-1 -11 -5 -13t-16 -2h-80
q-10 0 -13.5 5.5t-2.5 14.5l12 91q2 8 4 10t8 2h92q7 0 11 -5.5t2 -12.5z" />
    <glyph glyph-name="yacute" unicode="&#xfd;" horiz-adv-x="554" 
d="M39 -165q-28 0 -41 3.5t-11 14.5l8 64q1 6 9.5 10t25.5 4h64q20 0 37.5 10t30 26t18 33t1.5 30l-126 475q-6 25 13 25h114q14 0 16 -11l78 -330q3 -11 8.5 -10.5t11.5 12.5l166 321q5 10 10.5 14t12.5 4h73q16 0 6 -17l-285 -526q-25 -46 -50 -75.5t-53 -46t-61 -23.5
t-76 -7v0zM490 680q2 -8 0 -12.5t-13 -7.5l-239 -66q-10 -2 -15 2t-6 12l-7 30q-3 14 4 16l248 96q5 3 9 0.5t6 -10.5z" />
    <glyph glyph-name="thorn" unicode="&#xfe;" horiz-adv-x="603" 
d="M238 742q10 0 15 -6.5t3 -15.5l-34 -246q-1 -7 3 -3.5t9 10.5q16 12 37.5 26t50.5 23.5t68 9.5q61 0 105 -30.5t64.5 -92t6.5 -154.5q-13 -91 -49 -152t-88.5 -91t-114.5 -30q-44 0 -76 14.5t-53 41.5q-21 13 -25 -15l-26 -184q-1 -8 -3 -10t-9 -2h-102q-6 0 -11 6t-3 14
l121 871q2 10 5.5 13t15.5 3h90v0zM172 127q20 -25 43.5 -38.5t54.5 -13.5q41 0 75 21.5t58 67t33 115.5q10 66 -1 104.5t-36.5 55t-60.5 16.5q-34 0 -63 -14.5t-47.5 -36.5t-21.5 -44l-34 -233v0z" />
    <glyph glyph-name="ydieresis" unicode="&#xff;" horiz-adv-x="554" 
d="M39 -165q-28 0 -41 3.5t-11 14.5l8 64q1 6 9.5 10t25.5 4h64q20 0 37.5 10t30 26t18 33t1.5 30l-126 475q-6 25 13 25h114q14 0 16 -11l78 -330q3 -11 8.5 -10.5t11.5 12.5l166 321q5 10 10.5 14t12.5 4h73q16 0 6 -17l-285 -526q-25 -46 -50 -75.5t-53 -46t-61 -23.5
t-76 -7v0zM313 634q-1 -11 -5 -13t-16 -2h-79q-10 0 -14 5.5t-3 14.5l13 91q1 8 3.5 10t8.5 2h92q7 0 10.5 -5.5t2.5 -12.5zM497 634q-1 -11 -5 -13t-16 -2h-80q-10 0 -13.5 5.5t-2.5 14.5l12 91q2 8 4 10t8 2h92q7 0 11 -5.5t2 -12.5z" />
    <glyph glyph-name="Amacron" unicode="&#x100;" horiz-adv-x="756" 
d="M8 0q-8 0 -9 7t5 21l352 700q5 9 11.5 11.5t16.5 2.5h126q10 0 14.5 -7t6.5 -16l152 -699q2 -7 -1 -13.5t-11 -6.5h-121q-13 0 -16 16l-35 161q-1 8 -11 8h-259q-10 0 -15 -11l-84 -166q-2 -5 -5.5 -6.5t-11.5 -1.5h-105v0zM468 298q14 0 11 16l-60 265q-1 10 -5.5 9.5
t-9.5 -10.5l-133 -265q-4 -9 -3 -12t8 -3h192zM632 873q-1 -9 -5 -11.5t-15 -2.5h-305q-9 0 -13 6t-3 14l8 56q1 7 3 8.5t7 1.5h319q5 0 9 -5.5t3 -10.5z" />
    <glyph glyph-name="amacron" unicode="&#x101;" horiz-adv-x="558" 
d="M334 53q-35 -33 -79 -48t-93 -15q-71 0 -110.5 36t-39.5 93q0 55 28 93t73 61.5t99 35t105 13.5l50 3q19 1 22 19l3 23q1 5 1.5 9.5t0.5 8.5q0 35 -21.5 53t-61.5 18q-36 0 -69.5 -15t-60.5 -53q-3 -5 -7 -6t-12 1l-81 21q-6 2 -8.5 8t3.5 20q35 54 97 81t146 27
q70 0 114 -18t65 -50t21 -75q0 -7 -0.5 -14t-1.5 -15l-50 -352q-1 -11 -4 -13.5t-13 -2.5h-85q-9 0 -12 6t-3 16l2 34q-1 17 -18 -3v0zM375 246q1 9 -0.5 11.5t-9.5 1.5l-47 -4q-24 -2 -54.5 -8t-58.5 -18.5t-46 -34.5t-18 -55q0 -28 20 -44.5t57 -16.5q29 0 55 9.5t45 23.5
q20 14 32.5 31t14.5 33zM510 661q-1 -9 -5 -11.5t-15 -2.5h-305q-9 0 -13 6t-3 14l8 56q1 7 3 8.5t7 1.5h319q5 0 9 -5.5t3 -10.5z" />
    <glyph glyph-name="Abreve" unicode="&#x102;" horiz-adv-x="756" 
d="M8 0q-8 0 -9 7t5 21l352 700q5 9 11.5 11.5t16.5 2.5h126q10 0 14.5 -7t6.5 -16l152 -699q2 -7 -1 -13.5t-11 -6.5h-121q-13 0 -16 16l-35 161q-1 8 -11 8h-259q-10 0 -15 -11l-84 -166q-2 -5 -5.5 -6.5t-11.5 -1.5h-105v0zM468 298q14 0 11 16l-60 265q-1 10 -5.5 9.5
t-9.5 -10.5l-133 -265q-4 -9 -3 -12t8 -3h192zM620 954q9 0 11.5 -7t-1.5 -16q-15 -29 -42 -52.5t-61.5 -36t-76.5 -12.5t-75 11.5t-53 35.5t-25 60q-1 6 1 11.5t11 5.5h56q7 0 9.5 -5t8.5 -13q7 -8 16.5 -17.5t23 -15t31.5 -5.5q30 0 54 13.5t39 33.5q4 5 9 7t9 2h55v0z
" />
    <glyph glyph-name="abreve" unicode="&#x103;" horiz-adv-x="558" 
d="M334 53q-35 -33 -79 -48t-93 -15q-71 0 -110.5 36t-39.5 93q0 55 28 93t73 61.5t99 35t105 13.5l50 3q19 1 22 19l3 23q1 5 1.5 9.5t0.5 8.5q0 35 -21.5 53t-61.5 18q-36 0 -69.5 -15t-60.5 -53q-3 -5 -7 -6t-12 1l-81 21q-6 2 -8.5 8t3.5 20q35 54 97 81t146 27
q70 0 114 -18t65 -50t21 -75q0 -7 -0.5 -14t-1.5 -15l-50 -352q-1 -11 -4 -13.5t-13 -2.5h-85q-9 0 -12 6t-3 16l2 34q-1 17 -18 -3v0zM375 246q1 9 -0.5 11.5t-9.5 1.5l-47 -4q-24 -2 -54.5 -8t-58.5 -18.5t-46 -34.5t-18 -55q0 -28 20 -44.5t57 -16.5q29 0 55 9.5t45 23.5
q20 14 32.5 31t14.5 33zM498 742q9 0 11.5 -7t-1.5 -16q-15 -29 -42 -52.5t-61.5 -36t-76.5 -12.5t-75 11.5t-53 35.5t-25 60q-1 6 1 11.5t11 5.5h56q7 0 9.5 -5t8.5 -13q7 -8 16.5 -17.5t23 -15t31.5 -5.5q30 0 54 13.5t39 33.5q4 5 9 7t9 2h55v0z" />
    <glyph glyph-name="Aogonek" unicode="&#x104;" horiz-adv-x="756" 
d="M8 0q-8 0 -9 7t5 21l352 700q5 9 11.5 11.5t16.5 2.5h126q10 0 14.5 -7t6.5 -16l152 -699q2 -7 -1 -13.5t-11 -6.5h-121q-13 0 -16 16l-35 161q-1 8 -11 8h-259q-10 0 -15 -11l-84 -166q-2 -5 -5.5 -6.5t-11.5 -1.5h-105v0zM468 298q14 0 11 16l-60 265q-1 10 -5.5 9.5
t-9.5 -10.5l-133 -265q-4 -9 -3 -12t8 -3h192zM473 -82q2 18 12.5 33t33.5 29.5t65 27.5l95 -6q-56 -20 -81 -39.5t-28 -43.5q-2 -15 6 -23t27 -8q22 0 38 6t27 10q7 4 10.5 0.5t2.5 -10.5l-5 -38q-1 -5 -3.5 -9.5t-6.5 -5.5q-15 -5 -39.5 -9t-52.5 -4q-54 0 -80.5 23.5
t-20.5 66.5v0z" />
    <glyph glyph-name="aogonek" unicode="&#x105;" horiz-adv-x="558" 
d="M334 53q-35 -33 -79 -48t-93 -15q-71 0 -110.5 36t-39.5 93q0 55 28 93t73 61.5t99 35t105 13.5l50 3q19 1 22 19l3 23q1 5 1.5 9.5t0.5 8.5q0 35 -21.5 53t-61.5 18q-36 0 -69.5 -15t-60.5 -53q-3 -5 -7 -6t-12 1l-81 21q-6 2 -8.5 8t3.5 20q35 54 97 81t146 27
q70 0 114 -18t65 -50t21 -75q0 -7 -0.5 -14t-1.5 -15l-50 -352q-1 -11 -4 -13.5t-13 -2.5h-85q-9 0 -12 6t-3 16l2 34q-1 17 -18 -3v0zM375 246q1 9 -0.5 11.5t-9.5 1.5l-47 -4q-24 -2 -54.5 -8t-58.5 -18.5t-46 -34.5t-18 -55q0 -28 20 -44.5t57 -16.5q29 0 55 9.5t45 23.5
q20 14 32.5 31t14.5 33zM257 -80q2 18 12.5 33t33.5 29.5t65 27.5l95 -6q-56 -20 -81 -39.5t-28 -43.5q-2 -15 6 -23t27 -8q22 0 38 6t27 10q7 4 10.5 0.5t2.5 -10.5l-5 -38q-1 -5 -3.5 -9.5t-6.5 -5.5q-15 -5 -39.5 -9t-52.5 -4q-54 0 -80.5 23.5t-20.5 66.5v0z" />
    <glyph glyph-name="Cacute" unicode="&#x106;" horiz-adv-x="719" 
d="M445 752q76 0 134 -30t92 -80t35 -112q1 -17 -13 -17l-110 -7q-12 -1 -13 21q-5 53 -36 86.5t-91 33.5q-53 0 -91.5 -23.5t-65.5 -63.5t-43 -88.5t-23 -99.5t-7 -96q0 -90 36 -132.5t109 -42.5q65 0 115 31.5t85 101.5q5 11 21 7l89 -23q10 -3 1 -26q-10 -22 -28.5 -49.5
t-46 -54t-64.5 -49t-82 -36t-99 -13.5q-91 0 -155.5 38.5t-98 107.5t-33.5 163q0 67 14.5 133t45 123.5t76 102t107.5 69.5t140 25v0zM606 892q2 -8 0 -12.5t-13 -7.5l-239 -66q-10 -2 -15 2t-6 12l-7 30q-3 14 4 16l248 96q5 3 9 0.5t6 -10.5z" />
    <glyph glyph-name="cacute" unicode="&#x107;" horiz-adv-x="548" 
d="M331 540q61 0 102.5 -21.5t66 -55.5t33.5 -72q1 -7 -1 -10t-11 -4l-85 -10q-5 -1 -8 4t-5 13q-11 21 -22 36.5t-27 24t-40 8.5q-44 0 -76 -23.5t-53 -60.5t-31.5 -79.5t-10.5 -81.5q0 -65 30 -98.5t83 -33.5q48 0 81 22.5t64 67.5q4 5 14 2l61 -17q6 -1 8 -7t-1 -16
q-13 -22 -34.5 -46.5t-51 -45t-68 -33.5t-85.5 -13q-70 0 -122 29t-80.5 81t-28.5 122q0 61 21 118t60 102.5t94 71.5t123 26v0zM492 680q2 -8 0 -12.5t-13 -7.5l-239 -66q-10 -2 -15 2t-6 12l-7 30q-3 14 4 16l248 96q5 3 9 0.5t6 -10.5z" />
    <glyph glyph-name="Ccircumflex" unicode="&#x108;" horiz-adv-x="719" 
d="M445 752q76 0 134 -30t92 -80t35 -112q1 -17 -13 -17l-110 -7q-12 -1 -13 21q-5 53 -36 86.5t-91 33.5q-53 0 -91.5 -23.5t-65.5 -63.5t-43 -88.5t-23 -99.5t-7 -96q0 -90 36 -132.5t109 -42.5q65 0 115 31.5t85 101.5q5 11 21 7l89 -23q10 -3 1 -26q-10 -22 -28.5 -49.5
t-46 -54t-64.5 -49t-82 -36t-99 -13.5q-91 0 -155.5 38.5t-98 107.5t-33.5 163q0 67 14.5 133t45 123.5t76 102t107.5 69.5t140 25v0zM481 891q-7 9 -10.5 8.5t-13.5 -9.5l-63 -53q-6 -6 -10.5 -7.5t-11.5 -1.5h-74q-8 0 -8.5 5.5t4.5 9.5l122 107q7 6 13.5 8t17.5 2h61
q9 0 13 -5t8 -9l91 -106q6 -7 4 -9.5t-10 -2.5h-72q-7 0 -11 3t-8 8z" />
    <glyph glyph-name="ccircumflex" unicode="&#x109;" horiz-adv-x="548" 
d="M331 540q61 0 102.5 -21.5t66 -55.5t33.5 -72q1 -7 -1 -10t-11 -4l-85 -10q-5 -1 -8 4t-5 13q-11 21 -22 36.5t-27 24t-40 8.5q-44 0 -76 -23.5t-53 -60.5t-31.5 -79.5t-10.5 -81.5q0 -65 30 -98.5t83 -33.5q48 0 81 22.5t64 67.5q4 5 14 2l61 -17q6 -1 8 -7t-1 -16
q-13 -22 -34.5 -46.5t-51 -45t-68 -33.5t-85.5 -13q-70 0 -122 29t-80.5 81t-28.5 122q0 61 21 118t60 102.5t94 71.5t123 26v0zM367 679q-7 9 -10.5 8.5t-13.5 -9.5l-63 -53q-6 -6 -10.5 -7.5t-11.5 -1.5h-74q-8 0 -8.5 5.5t4.5 9.5l122 107q7 6 13.5 8t17.5 2h61
q9 0 13 -5t8 -9l91 -106q6 -7 4 -9.5t-10 -2.5h-72q-7 0 -11 3t-8 8z" />
    <glyph glyph-name="Cdotaccent" unicode="&#x10a;" horiz-adv-x="719" 
d="M445 752q76 0 134 -30t92 -80t35 -112q1 -17 -13 -17l-110 -7q-12 -1 -13 21q-5 53 -36 86.5t-91 33.5q-53 0 -91.5 -23.5t-65.5 -63.5t-43 -88.5t-23 -99.5t-7 -96q0 -90 36 -132.5t109 -42.5q65 0 115 31.5t85 101.5q5 11 21 7l89 -23q10 -3 1 -26q-10 -22 -28.5 -49.5
t-46 -54t-64.5 -49t-82 -36t-99 -13.5q-91 0 -155.5 38.5t-98 107.5t-33.5 163q0 67 14.5 133t45 123.5t76 102t107.5 69.5t140 25v0zM529 834q-2 -11 -7 -14t-18 -3h-91q-11 0 -15 6.5t-3 15.5l14 102q2 8 4 10.5t10 2.5h105q7 0 11.5 -6t2.5 -14z" />
    <glyph glyph-name="cdotaccent" unicode="&#x10b;" horiz-adv-x="548" 
d="M331 540q61 0 102.5 -21.5t66 -55.5t33.5 -72q1 -7 -1 -10t-11 -4l-85 -10q-5 -1 -8 4t-5 13q-11 21 -22 36.5t-27 24t-40 8.5q-44 0 -76 -23.5t-53 -60.5t-31.5 -79.5t-10.5 -81.5q0 -65 30 -98.5t83 -33.5q48 0 81 22.5t64 67.5q4 5 14 2l61 -17q6 -1 8 -7t-1 -16
q-13 -22 -34.5 -46.5t-51 -45t-68 -33.5t-85.5 -13q-70 0 -122 29t-80.5 81t-28.5 122q0 61 21 118t60 102.5t94 71.5t123 26v0zM415 622q-2 -11 -7 -14t-18 -3h-91q-11 0 -15 6.5t-3 15.5l14 102q2 8 4 10.5t10 2.5h105q7 0 11.5 -6t2.5 -14z" />
    <glyph glyph-name="Ccaron" unicode="&#x10c;" horiz-adv-x="719" 
d="M445 752q76 0 134 -30t92 -80t35 -112q1 -17 -13 -17l-110 -7q-12 -1 -13 21q-5 53 -36 86.5t-91 33.5q-53 0 -91.5 -23.5t-65.5 -63.5t-43 -88.5t-23 -99.5t-7 -96q0 -90 36 -132.5t109 -42.5q65 0 115 31.5t85 101.5q5 11 21 7l89 -23q10 -3 1 -26q-10 -22 -28.5 -49.5
t-46 -54t-64.5 -49t-82 -36t-99 -13.5q-91 0 -155.5 38.5t-98 107.5t-33.5 163q0 67 14.5 133t45 123.5t76 102t107.5 69.5t140 25v0zM536 950q6 5 10.5 5h11.5h77q9 0 10.5 -5t-6.5 -13l-120 -106q-5 -4 -10 -6t-14 -2h-61q-11 0 -17 4.5t-10 10.5l-93 105q-5 6 -6 9t6 3
h72q8 0 12 -2.5t7 -8.5l47 -52q10 -11 14 -7.5t14 13.5l56 52v0z" />
    <glyph glyph-name="ccaron" unicode="&#x10d;" horiz-adv-x="548" 
d="M331 540q61 0 102.5 -21.5t66 -55.5t33.5 -72q1 -7 -1 -10t-11 -4l-85 -10q-5 -1 -8 4t-5 13q-11 21 -22 36.5t-27 24t-40 8.5q-44 0 -76 -23.5t-53 -60.5t-31.5 -79.5t-10.5 -81.5q0 -65 30 -98.5t83 -33.5q48 0 81 22.5t64 67.5q4 5 14 2l61 -17q6 -1 8 -7t-1 -16
q-13 -22 -34.5 -46.5t-51 -45t-68 -33.5t-85.5 -13q-70 0 -122 29t-80.5 81t-28.5 122q0 61 21 118t60 102.5t94 71.5t123 26v0zM422 738q6 5 10.5 5h11.5h77q9 0 10.5 -5t-6.5 -13l-120 -106q-5 -4 -10 -6t-14 -2h-61q-11 0 -17 4.5t-10 10.5l-93 105q-5 6 -6 9t6 3h72
q8 0 12 -2.5t7 -8.5l47 -52q10 -11 14 -7.5t14 13.5l56 52v0z" />
    <glyph glyph-name="Dcaron" unicode="&#x10e;" horiz-adv-x="741" 
d="M65 0q-10 0 -15.5 7t-4.5 18l99 703q2 9 5.5 11.5t13.5 2.5h190q121 0 200 -36t118 -102.5t39 -158.5q0 -138 -52.5 -238t-153 -153.5t-243.5 -53.5h-196v0zM275 106q100 0 162 43t91 120.5t29 182.5q0 66 -23 106.5t-68 59t-112 18.5h-61q-14 0 -17 -16l-68 -498
q-1 -8 2 -12t10 -4h55zM486 950q6 5 10.5 5h11.5h77q9 0 10.5 -5t-6.5 -13l-120 -106q-5 -4 -10 -6t-14 -2h-61q-11 0 -17 4.5t-10 10.5l-93 105q-5 6 -6 9t6 3h72q8 0 12 -2.5t7 -8.5l47 -52q10 -11 14 -7.5t14 13.5l56 52v0z" />
    <glyph glyph-name="dcaron" unicode="&#x10f;" horiz-adv-x="724" 
d="M399 0q-7 0 -13 4t-5 13l6 33q2 8 -2 9t-12 -6q-15 -13 -37.5 -28t-51.5 -25t-66 -10q-82 0 -133.5 53.5t-51.5 158.5q0 63 18 123t52.5 109t83 77.5t110.5 28.5q45 0 74 -16t52 -42q7 -8 13.5 -6t9.5 23l33 229q1 8 5 11t12 3h101q12 0 10 -21l-100 -704
q-1 -10 -5.5 -13.5t-16.5 -3.5h-86zM434 402q-21 26 -44.5 39t-54.5 13q-46 0 -78 -25t-53 -64t-30.5 -83.5t-9.5 -83.5q0 -44 13.5 -71.5t37 -40t53.5 -12.5q33 0 62 16t48 39.5t22 47.5zM651 527q-6 0 -8.5 5.5t-1.5 9.5l42 74l5 10t-5 3l-8 1q-8 1 -12 5.5t-3 11.5l13 87
q1 6 2.5 7t5.5 1h74q4 0 7.5 -4.5t2.5 -9.5l-14 -102l-2 -4t-1 -3l-47 -84q-3 -6 -7.5 -7t-14.5 -1h-28v0z" />
    <glyph glyph-name="Dcroat" unicode="&#x110;" horiz-adv-x="716" 
d="M383 336q-2 -11 -7 -14t-17 -3h-321q-11 0 -15.5 6.5t-3.5 16.5l9 62q2 8 4 10.5t9 2.5h337q6 0 10.5 -6t2.5 -13zM39 0q-10 0 -15.5 7t-3.5 18l98 703q2 9 6 11.5t13 2.5h190q121 0 200 -36t118.5 -102.5t39.5 -158.5q0 -138 -53 -238t-153 -153.5t-244 -53.5h-196v0z
M249 106q100 0 162 43t91 120.5t29 182.5q0 66 -23 106.5t-68 59t-112 18.5h-61q-14 0 -16 -16l-69 -498q-1 -8 2 -12t10 -4h55z" />
    <glyph glyph-name="dcroat" unicode="&#x111;" horiz-adv-x="616" 
d="M683 614q-1 -9 -5 -11t-15 -2h-299q-9 0 -12.5 5.5t-2.5 13.5l6 46q2 7 4 8.5t6 1.5h313q5 0 8.5 -5.5t3.5 -10.5zM399 0q-7 0 -13 4t-5 13l6 33q2 8 -2 9t-12 -6q-15 -13 -37.5 -28t-51.5 -25t-66 -10q-82 0 -133.5 53.5t-51.5 158.5q0 63 18 123t52.5 109t83 77.5
t110.5 28.5q45 0 74 -16t52 -42q7 -8 13.5 -6t9.5 23l33 229q1 8 5 11t12 3h101q12 0 10 -21l-100 -704q-1 -10 -5.5 -13.5t-16.5 -3.5h-86zM434 402q-21 26 -44.5 39t-54.5 13q-46 0 -78 -25t-53 -64t-30.5 -83.5t-9.5 -83.5q0 -44 13.5 -71.5t37 -40t53.5 -12.5
q33 0 62 16t48 39.5t22 47.5z" />
    <glyph glyph-name="Emacron" unicode="&#x112;" horiz-adv-x="645" 
d="M145 729q1 8 3.5 10.5t9.5 2.5h489q13 0 10 -19l-11 -75q-1 -9 -5 -12.5t-14 -3.5h-335q-7 0 -10.5 -2.5t-4.5 -10.5l-25 -180q-1 -7 1 -9t7 -2h234q8 0 10 -3.5t1 -9.5l-12 -85q-1 -10 -13 -10h-235q-11 0 -13 -14l-25 -185q-1 -11 6 -11h355q8 0 10.5 -3t0.5 -11
l-11 -84q-1 -7 -3.5 -9.5t-11.5 -2.5h-491q-20 0 -17 22l100 707v0zM596 873q-1 -9 -5 -11.5t-15 -2.5h-305q-9 0 -13 6t-3 14l8 56q1 7 3 8.5t7 1.5h319q5 0 9 -5.5t3 -10.5z" />
    <glyph glyph-name="emacron" unicode="&#x113;" horiz-adv-x="584" 
d="M268 -10q-71 0 -123.5 29t-82 80.5t-29.5 119.5q0 62 21.5 119.5t61.5 103t95 72t122 26.5t117 -27t77.5 -77.5t27.5 -123.5q0 -13 -1 -27t-3 -29q-1 -8 -6 -12t-16 -4h-351q-10 0 -13 -11.5t-3 -32.5q0 -55 34.5 -85t88.5 -30q43 0 79 17.5t68 54.5q5 5 10 4.5t11 -3.5
l57 -28q17 -7 5 -22q-37 -43 -74.5 -68t-79.5 -35.5t-93 -10.5v0zM412 311q10 0 17 8t7 33q0 44 -26.5 75t-76.5 31q-40 0 -73 -20.5t-54.5 -54t-26.5 -72.5h233zM526 661q-1 -9 -5 -11.5t-15 -2.5h-305q-9 0 -13 6t-3 14l8 56q1 7 3 8.5t7 1.5h319q5 0 9 -5.5t3 -10.5z" />
    <glyph glyph-name="Ebreve" unicode="&#x114;" horiz-adv-x="645" 
d="M145 729q1 8 3.5 10.5t9.5 2.5h489q13 0 10 -19l-11 -75q-1 -9 -5 -12.5t-14 -3.5h-335q-7 0 -10.5 -2.5t-4.5 -10.5l-25 -180q-1 -7 1 -9t7 -2h234q8 0 10 -3.5t1 -9.5l-12 -85q-1 -10 -13 -10h-235q-11 0 -13 -14l-25 -185q-1 -11 6 -11h355q8 0 10.5 -3t0.5 -11
l-11 -84q-1 -7 -3.5 -9.5t-11.5 -2.5h-491q-20 0 -17 22l100 707v0zM584 954q9 0 11.5 -7t-1.5 -16q-15 -29 -42 -52.5t-61.5 -36t-76.5 -12.5t-75 11.5t-53 35.5t-25 60q-1 6 1 11.5t11 5.5h56q7 0 9.5 -5t8.5 -13q7 -8 16.5 -17.5t23 -15t31.5 -5.5q30 0 54 13.5t39 33.5
q4 5 9 7t9 2h55v0z" />
    <glyph glyph-name="ebreve" unicode="&#x115;" horiz-adv-x="584" 
d="M268 -10q-71 0 -123.5 29t-82 80.5t-29.5 119.5q0 62 21.5 119.5t61.5 103t95 72t122 26.5t117 -27t77.5 -77.5t27.5 -123.5q0 -13 -1 -27t-3 -29q-1 -8 -6 -12t-16 -4h-351q-10 0 -13 -11.5t-3 -32.5q0 -55 34.5 -85t88.5 -30q43 0 79 17.5t68 54.5q5 5 10 4.5t11 -3.5
l57 -28q17 -7 5 -22q-37 -43 -74.5 -68t-79.5 -35.5t-93 -10.5v0zM412 311q10 0 17 8t7 33q0 44 -26.5 75t-76.5 31q-40 0 -73 -20.5t-54.5 -54t-26.5 -72.5h233zM514 742q9 0 11.5 -7t-1.5 -16q-15 -29 -42 -52.5t-61.5 -36t-76.5 -12.5t-75 11.5t-53 35.5t-25 60
q-1 6 1 11.5t11 5.5h56q7 0 9.5 -5t8.5 -13q7 -8 16.5 -17.5t23 -15t31.5 -5.5q30 0 54 13.5t39 33.5q4 5 9 7t9 2h55v0z" />
    <glyph glyph-name="Edotaccent" unicode="&#x116;" horiz-adv-x="645" 
d="M145 729q1 8 3.5 10.5t9.5 2.5h489q13 0 10 -19l-11 -75q-1 -9 -5 -12.5t-14 -3.5h-335q-7 0 -10.5 -2.5t-4.5 -10.5l-25 -180q-1 -7 1 -9t7 -2h234q8 0 10 -3.5t1 -9.5l-12 -85q-1 -10 -13 -10h-235q-11 0 -13 -14l-25 -185q-1 -11 6 -11h355q8 0 10.5 -3t0.5 -11
l-11 -84q-1 -7 -3.5 -9.5t-11.5 -2.5h-491q-20 0 -17 22l100 707v0zM488 834q-2 -11 -7 -14t-18 -3h-91q-11 0 -15 6.5t-3 15.5l14 102q2 8 4 10.5t10 2.5h105q7 0 11.5 -6t2.5 -14z" />
    <glyph glyph-name="edotaccent" unicode="&#x117;" horiz-adv-x="584" 
d="M268 -10q-71 0 -123.5 29t-82 80.5t-29.5 119.5q0 62 21.5 119.5t61.5 103t95 72t122 26.5t117 -27t77.5 -77.5t27.5 -123.5q0 -13 -1 -27t-3 -29q-1 -8 -6 -12t-16 -4h-351q-10 0 -13 -11.5t-3 -32.5q0 -55 34.5 -85t88.5 -30q43 0 79 17.5t68 54.5q5 5 10 4.5t11 -3.5
l57 -28q17 -7 5 -22q-37 -43 -74.5 -68t-79.5 -35.5t-93 -10.5v0zM412 311q10 0 17 8t7 33q0 44 -26.5 75t-76.5 31q-40 0 -73 -20.5t-54.5 -54t-26.5 -72.5h233zM363 622q-2 -11 -7 -14t-18 -3h-91q-11 0 -15 6.5t-3 15.5l14 102q2 8 4 10.5t10 2.5h105q7 0 11.5 -6
t2.5 -14z" />
    <glyph glyph-name="Eogonek" unicode="&#x118;" horiz-adv-x="645" 
d="M145 729q1 8 3.5 10.5t9.5 2.5h489q13 0 10 -19l-11 -75q-1 -9 -5 -12.5t-14 -3.5h-335q-7 0 -10.5 -2.5t-4.5 -10.5l-25 -180q-1 -7 1 -9t7 -2h234q8 0 10 -3.5t1 -9.5l-12 -85q-1 -10 -13 -10h-235q-11 0 -13 -14l-25 -185q-1 -11 6 -11h355q8 0 10.5 -3t0.5 -11
l-11 -84q-1 -7 -3.5 -9.5t-11.5 -2.5h-491q-20 0 -17 22l100 707v0zM357 -82q2 18 12.5 33t33.5 29.5t65 27.5l95 -6q-56 -20 -81 -39.5t-28 -43.5q-2 -15 6 -23t27 -8q22 0 38 6t27 10q7 4 10.5 0.5t2.5 -10.5l-5 -38q-1 -5 -3.5 -9.5t-6.5 -5.5q-15 -5 -39.5 -9t-52.5 -4
q-54 0 -80.5 23.5t-20.5 66.5v0z" />
    <glyph glyph-name="eogonek" unicode="&#x119;" horiz-adv-x="584" 
d="M268 -10q-71 0 -123.5 29t-82 80.5t-29.5 119.5q0 62 21.5 119.5t61.5 103t95 72t122 26.5t117 -27t77.5 -77.5t27.5 -123.5q0 -13 -1 -27t-3 -29q-1 -8 -6 -12t-16 -4h-351q-10 0 -13 -11.5t-3 -32.5q0 -55 34.5 -85t88.5 -30q43 0 79 17.5t68 54.5q5 5 10 4.5t11 -3.5
l57 -28q17 -7 5 -22q-37 -43 -74.5 -68t-79.5 -35.5t-93 -10.5v0zM412 311q10 0 17 8t7 33q0 44 -26.5 75t-76.5 31q-40 0 -73 -20.5t-54.5 -54t-26.5 -72.5h233zM190 -69q2 18 12.5 33t33.5 29.5t65 27.5l95 -6q-56 -20 -81 -39.5t-28 -43.5q-2 -15 6 -23t27 -8q22 0 38 6
t27 10q7 4 10.5 0.5t2.5 -10.5l-5 -38q-1 -5 -3.5 -9.5t-6.5 -5.5q-15 -5 -39.5 -9t-52.5 -4q-54 0 -80.5 23.5t-20.5 66.5v0z" />
    <glyph glyph-name="Ecaron" unicode="&#x11a;" horiz-adv-x="645" 
d="M145 729q1 8 3.5 10.5t9.5 2.5h489q13 0 10 -19l-11 -75q-1 -9 -5 -12.5t-14 -3.5h-335q-7 0 -10.5 -2.5t-4.5 -10.5l-25 -180q-1 -7 1 -9t7 -2h234q8 0 10 -3.5t1 -9.5l-12 -85q-1 -10 -13 -10h-235q-11 0 -13 -14l-25 -185q-1 -11 6 -11h355q8 0 10.5 -3t0.5 -11
l-11 -84q-1 -7 -3.5 -9.5t-11.5 -2.5h-491q-20 0 -17 22l100 707v0zM495 950q6 5 10.5 5h11.5h77q9 0 10.5 -5t-6.5 -13l-120 -106q-5 -4 -10 -6t-14 -2h-61q-11 0 -17 4.5t-10 10.5l-93 105q-5 6 -6 9t6 3h72q8 0 12 -2.5t7 -8.5l47 -52q10 -11 14 -7.5t14 13.5l56 52v0z
" />
    <glyph glyph-name="ecaron" unicode="&#x11b;" horiz-adv-x="584" 
d="M268 -10q-71 0 -123.5 29t-82 80.5t-29.5 119.5q0 62 21.5 119.5t61.5 103t95 72t122 26.5t117 -27t77.5 -77.5t27.5 -123.5q0 -13 -1 -27t-3 -29q-1 -8 -6 -12t-16 -4h-351q-10 0 -13 -11.5t-3 -32.5q0 -55 34.5 -85t88.5 -30q43 0 79 17.5t68 54.5q5 5 10 4.5t11 -3.5
l57 -28q17 -7 5 -22q-37 -43 -74.5 -68t-79.5 -35.5t-93 -10.5v0zM412 311q10 0 17 8t7 33q0 44 -26.5 75t-76.5 31q-40 0 -73 -20.5t-54.5 -54t-26.5 -72.5h233zM425 738q6 5 10.5 5h11.5h77q9 0 10.5 -5t-6.5 -13l-120 -106q-5 -4 -10 -6t-14 -2h-61q-11 0 -17 4.5
t-10 10.5l-93 105q-5 6 -6 9t6 3h72q8 0 12 -2.5t7 -8.5l47 -52q10 -11 14 -7.5t14 13.5l56 52v0z" />
    <glyph glyph-name="Gcircumflex" unicode="&#x11c;" horiz-adv-x="747" 
d="M343 -10q-89 0 -152 37t-96.5 105.5t-33.5 161.5t26.5 175.5t77 146.5t122 100t160.5 36q79 0 138 -31t92 -79.5t34 -104.5q0 -16 -7 -17l-116 -17q-4 -1 -6.5 4t-4.5 18q-3 33 -19 60.5t-45 44t-72 16.5q-61 0 -104 -32.5t-70.5 -87t-40.5 -120.5t-13 -132
q0 -94 37.5 -136t106.5 -42q39 0 70 12.5t54 33t38.5 45t23.5 49.5l7 38q6 12 -9 12h-137q-9 0 -8 12l8 70q1 9 9 9l275 -1q10 0 13 -3t1 -12l-49 -349q-2 -12 -15 -12h-27q-15 0 -19 14l-11 80q-1 6 -5.5 5.5t-11.5 -7.5q-19 -25 -49.5 -48.5t-73 -38.5t-98.5 -15v0z
M479 891q-7 9 -10.5 8.5t-13.5 -9.5l-63 -53q-6 -6 -10.5 -7.5t-11.5 -1.5h-74q-8 0 -8.5 5.5t4.5 9.5l122 107q7 6 13.5 8t17.5 2h61q9 0 13 -5t8 -9l91 -106q6 -7 4 -9.5t-10 -2.5h-72q-7 0 -11 3t-8 8z" />
    <glyph glyph-name="gcircumflex" unicode="&#x11d;" horiz-adv-x="622" 
d="M219 -174q-119 0 -185 32t-66 89q0 41 30.5 68.5t74.5 43.5q10 4 11.5 8t-6.5 8q-21 10 -31.5 24t-10.5 36q0 24 15.5 42t38.5 30.5t45 19.5q9 4 11.5 8.5t-5.5 7.5q-36 16 -55 44t-19 66q0 48 20.5 82.5t55.5 57.5t79 34t90 11q70 0 109 -15t59 -34q6 -6 14 -1t15 12
q14 15 32.5 25t38 16.5t34.5 6.5q11 0 16.5 -3.5t4.5 -14.5l-8 -56q-1 -13 -5.5 -17t-13.5 -4q-16 0 -31 -1.5t-24 -3.5q-33 -7 -25 -25q3 -6 5 -16t2 -23q0 -47 -22.5 -80.5t-60 -54t-81 -30.5t-87.5 -10q-8 0 -28.5 -1t-43.5 -5.5t-39 -13t-16 -22.5q0 -11 15.5 -15.5
t49.5 -7.5l137 -8q89 -5 130.5 -39.5t41.5 -93.5q0 -42 -18.5 -72.5t-50.5 -50.5t-72 -32t-84.5 -17t-86.5 -5v0zM225 -108q40 0 74 5t59.5 16t39.5 28.5t14 42.5t-17 36.5t-59 13.5l-156 9q-23 -4 -46 -14.5t-39 -27t-16 -40.5q0 -36 37 -52.5t109 -16.5v0zM287 277
q35 0 64.5 12.5t48 38.5t18.5 65q0 35 -26.5 55.5t-77.5 20.5q-35 0 -64.5 -14.5t-48 -41t-18.5 -63.5q0 -33 28 -53t76 -20v0zM366 679q-7 9 -10.5 8.5t-13.5 -9.5l-63 -53q-6 -6 -10.5 -7.5t-11.5 -1.5h-74q-8 0 -8.5 5.5t4.5 9.5l122 107q7 6 13.5 8t17.5 2h61q9 0 13 -5
t8 -9l91 -106q6 -7 4 -9.5t-10 -2.5h-72q-7 0 -11 3t-8 8z" />
    <glyph glyph-name="Gbreve" unicode="&#x11e;" horiz-adv-x="747" 
d="M343 -10q-89 0 -152 37t-96.5 105.5t-33.5 161.5t26.5 175.5t77 146.5t122 100t160.5 36q79 0 138 -31t92 -79.5t34 -104.5q0 -16 -7 -17l-116 -17q-4 -1 -6.5 4t-4.5 18q-3 33 -19 60.5t-45 44t-72 16.5q-61 0 -104 -32.5t-70.5 -87t-40.5 -120.5t-13 -132
q0 -94 37.5 -136t106.5 -42q39 0 70 12.5t54 33t38.5 45t23.5 49.5l7 38q6 12 -9 12h-137q-9 0 -8 12l8 70q1 9 9 9l275 -1q10 0 13 -3t1 -12l-49 -349q-2 -12 -15 -12h-27q-15 0 -19 14l-11 80q-1 6 -5.5 5.5t-11.5 -7.5q-19 -25 -49.5 -48.5t-73 -38.5t-98.5 -15v0z
M623 954q9 0 11.5 -7t-1.5 -16q-15 -29 -42 -52.5t-61.5 -36t-76.5 -12.5t-75 11.5t-53 35.5t-25 60q-1 6 1 11.5t11 5.5h56q7 0 9.5 -5t8.5 -13q7 -8 16.5 -17.5t23 -15t31.5 -5.5q30 0 54 13.5t39 33.5q4 5 9 7t9 2h55v0z" />
    <glyph glyph-name="gbreve" unicode="&#x11f;" horiz-adv-x="622" 
d="M219 -174q-119 0 -185 32t-66 89q0 41 30.5 68.5t74.5 43.5q10 4 11.5 8t-6.5 8q-21 10 -31.5 24t-10.5 36q0 24 15.5 42t38.5 30.5t45 19.5q9 4 11.5 8.5t-5.5 7.5q-36 16 -55 44t-19 66q0 48 20.5 82.5t55.5 57.5t79 34t90 11q70 0 109 -15t59 -34q6 -6 14 -1t15 12
q14 15 32.5 25t38 16.5t34.5 6.5q11 0 16.5 -3.5t4.5 -14.5l-8 -56q-1 -13 -5.5 -17t-13.5 -4q-16 0 -31 -1.5t-24 -3.5q-33 -7 -25 -25q3 -6 5 -16t2 -23q0 -47 -22.5 -80.5t-60 -54t-81 -30.5t-87.5 -10q-8 0 -28.5 -1t-43.5 -5.5t-39 -13t-16 -22.5q0 -11 15.5 -15.5
t49.5 -7.5l137 -8q89 -5 130.5 -39.5t41.5 -93.5q0 -42 -18.5 -72.5t-50.5 -50.5t-72 -32t-84.5 -17t-86.5 -5v0zM225 -108q40 0 74 5t59.5 16t39.5 28.5t14 42.5t-17 36.5t-59 13.5l-156 9q-23 -4 -46 -14.5t-39 -27t-16 -40.5q0 -36 37 -52.5t109 -16.5v0zM287 277
q35 0 64.5 12.5t48 38.5t18.5 65q0 35 -26.5 55.5t-77.5 20.5q-35 0 -64.5 -14.5t-48 -41t-18.5 -63.5q0 -33 28 -53t76 -20v0zM510 742q9 0 11.5 -7t-1.5 -16q-15 -29 -42 -52.5t-61.5 -36t-76.5 -12.5t-75 11.5t-53 35.5t-25 60q-1 6 1 11.5t11 5.5h56q7 0 9.5 -5t8.5 -13
q7 -8 16.5 -17.5t23 -15t31.5 -5.5q30 0 54 13.5t39 33.5q4 5 9 7t9 2h55v0z" />
    <glyph glyph-name="Gdotaccent" unicode="&#x120;" horiz-adv-x="747" 
d="M343 -10q-89 0 -152 37t-96.5 105.5t-33.5 161.5t26.5 175.5t77 146.5t122 100t160.5 36q79 0 138 -31t92 -79.5t34 -104.5q0 -16 -7 -17l-116 -17q-4 -1 -6.5 4t-4.5 18q-3 33 -19 60.5t-45 44t-72 16.5q-61 0 -104 -32.5t-70.5 -87t-40.5 -120.5t-13 -132
q0 -94 37.5 -136t106.5 -42q39 0 70 12.5t54 33t38.5 45t23.5 49.5l7 38q6 12 -9 12h-137q-9 0 -8 12l8 70q1 9 9 9l275 -1q10 0 13 -3t1 -12l-49 -349q-2 -12 -15 -12h-27q-15 0 -19 14l-11 80q-1 6 -5.5 5.5t-11.5 -7.5q-19 -25 -49.5 -48.5t-73 -38.5t-98.5 -15v0z
M527 834q-2 -11 -7 -14t-18 -3h-91q-11 0 -15 6.5t-3 15.5l14 102q2 8 4 10.5t10 2.5h105q7 0 11.5 -6t2.5 -14z" />
    <glyph glyph-name="gdotaccent" unicode="&#x121;" horiz-adv-x="622" 
d="M219 -174q-119 0 -185 32t-66 89q0 41 30.5 68.5t74.5 43.5q10 4 11.5 8t-6.5 8q-21 10 -31.5 24t-10.5 36q0 24 15.5 42t38.5 30.5t45 19.5q9 4 11.5 8.5t-5.5 7.5q-36 16 -55 44t-19 66q0 48 20.5 82.5t55.5 57.5t79 34t90 11q70 0 109 -15t59 -34q6 -6 14 -1t15 12
q14 15 32.5 25t38 16.5t34.5 6.5q11 0 16.5 -3.5t4.5 -14.5l-8 -56q-1 -13 -5.5 -17t-13.5 -4q-16 0 -31 -1.5t-24 -3.5q-33 -7 -25 -25q3 -6 5 -16t2 -23q0 -47 -22.5 -80.5t-60 -54t-81 -30.5t-87.5 -10q-8 0 -28.5 -1t-43.5 -5.5t-39 -13t-16 -22.5q0 -11 15.5 -15.5
t49.5 -7.5l137 -8q89 -5 130.5 -39.5t41.5 -93.5q0 -42 -18.5 -72.5t-50.5 -50.5t-72 -32t-84.5 -17t-86.5 -5v0zM225 -108q40 0 74 5t59.5 16t39.5 28.5t14 42.5t-17 36.5t-59 13.5l-156 9q-23 -4 -46 -14.5t-39 -27t-16 -40.5q0 -36 37 -52.5t109 -16.5v0zM287 277
q35 0 64.5 12.5t48 38.5t18.5 65q0 35 -26.5 55.5t-77.5 20.5q-35 0 -64.5 -14.5t-48 -41t-18.5 -63.5q0 -33 28 -53t76 -20v0zM414 622q-2 -11 -7 -14t-18 -3h-91q-11 0 -15 6.5t-3 15.5l14 102q2 8 4 10.5t10 2.5h105q7 0 11.5 -6t2.5 -14z" />
    <glyph glyph-name="uni0122" unicode="&#x122;" horiz-adv-x="747" 
d="M343 -10q-89 0 -152 37t-96.5 105.5t-33.5 161.5t26.5 175.5t77 146.5t122 100t160.5 36q79 0 138 -31t92 -79.5t34 -104.5q0 -16 -7 -17l-116 -17q-4 -1 -6.5 4t-4.5 18q-3 33 -19 60.5t-45 44t-72 16.5q-61 0 -104 -32.5t-70.5 -87t-40.5 -120.5t-13 -132
q0 -94 37.5 -136t106.5 -42q39 0 70 12.5t54 33t38.5 45t23.5 49.5l7 38q6 12 -9 12h-137q-9 0 -8 12l8 70q1 9 9 9l275 -1q10 0 13 -3t1 -12l-49 -349q-2 -12 -15 -12h-27q-15 0 -19 14l-11 80q-1 6 -5.5 5.5t-11.5 -7.5q-19 -25 -49.5 -48.5t-73 -38.5t-98.5 -15v0z
M268 -242q-4 0 -4.5 4t3.5 8l40 53q6 9 5 14t-8 5h-20q-6 0 -8 3t-1 12l10 65q2 15 14 15h74q11 0 10 -11l-11 -79q-2 -9 -7 -16l-52 -59q-5 -6 -9.5 -10t-13.5 -4h-22v0z" />
    <glyph glyph-name="uni0123" unicode="&#x123;" horiz-adv-x="622" 
d="M343 613q-12 0 -11 11l11 79q2 11 10 19l49 56q6 7 10.5 10.5t11.5 3.5h23q4 0 4.5 -4t-3.5 -8l-39 -53q-7 -9 -6.5 -14t7.5 -5h21q7 0 9 -3.5t0 -11.5l-9 -65q-3 -15 -14 -15h-74v0zM219 -174q-119 0 -185 32t-66 89q0 41 30.5 68.5t74.5 43.5q10 4 11.5 8t-6.5 8
q-21 10 -31.5 24t-10.5 36q0 24 15.5 42t38.5 30.5t45 19.5q9 4 11.5 8.5t-5.5 7.5q-36 16 -55 44t-19 66q0 48 20.5 82.5t55.5 57.5t79 34t90 11q70 0 109 -15t59 -34q6 -6 14 -1t15 12q14 15 32.5 25t38 16.5t34.5 6.5q11 0 16.5 -3.5t4.5 -14.5l-8 -56q-1 -13 -5.5 -17
t-13.5 -4q-16 0 -31 -1.5t-24 -3.5q-33 -7 -25 -25q3 -6 5 -16t2 -23q0 -47 -22.5 -80.5t-60 -54t-81 -30.5t-87.5 -10q-8 0 -28.5 -1t-43.5 -5.5t-39 -13t-16 -22.5q0 -11 15.5 -15.5t49.5 -7.5l137 -8q89 -5 130.5 -39.5t41.5 -93.5q0 -42 -18.5 -72.5t-50.5 -50.5
t-72 -32t-84.5 -17t-86.5 -5v0zM225 -108q40 0 74 5t59.5 16t39.5 28.5t14 42.5t-17 36.5t-59 13.5l-156 9q-23 -4 -46 -14.5t-39 -27t-16 -40.5q0 -36 37 -52.5t109 -16.5v0zM287 277q35 0 64.5 12.5t48 38.5t18.5 65q0 35 -26.5 55.5t-77.5 20.5q-35 0 -64.5 -14.5
t-48 -41t-18.5 -63.5q0 -33 28 -53t76 -20v0z" />
    <glyph glyph-name="Hcircumflex" unicode="&#x124;" horiz-adv-x="746" 
d="M247 327q-5 0 -8.5 -3t-4.5 -12l-42 -296q-1 -10 -6 -13t-16 -3h-111q-11 0 -13.5 4t-1.5 13l101 712q1 8 3.5 10.5t9.5 2.5h124q7 0 9 -3t0 -11l-37 -273q-1 -9 1 -11.5t8 -2.5h269q7 0 10 6t4 13l38 270q2 8 5 10t9 2h123q7 0 9.5 -4t0.5 -17l-100 -706
q-1 -10 -4 -12.5t-14 -2.5h-110q-12 0 -16 4.5t-2 15.5l41 300q1 7 -10 7h-269zM473 891q-7 9 -10.5 8.5t-13.5 -9.5l-63 -53q-6 -6 -10.5 -7.5t-11.5 -1.5h-74q-8 0 -8.5 5.5t4.5 9.5l122 107q7 6 13.5 8t17.5 2h61q9 0 13 -5t8 -9l91 -106q6 -7 4 -9.5t-10 -2.5h-72
q-7 0 -11 3t-8 8z" />
    <glyph glyph-name="hcircumflex" unicode="&#x125;" horiz-adv-x="592" 
d="M48 0q-10 0 -15 6.5t-4 15.5l100 707q1 8 5 10.5t11 2.5h99q14 0 11 -16l-35 -249q-2 -14 7 -8q38 26 68 41.5t58 22.5t57 7q70 0 107 -35t37 -95q0 -8 -0.5 -15.5t-2.5 -15.5l-51 -362q-2 -10 -5.5 -13.5t-14.5 -3.5h-93q-20 0 -17 22l49 344q1 5 1.5 10t0.5 9
q0 29 -17 44t-52 15q-25 0 -48 -8t-45.5 -24t-48.5 -40l-51 -356q-2 -10 -6 -13t-16 -3h-89zM356 895q-7 9 -10.5 8.5t-13.5 -9.5l-63 -53q-6 -6 -10.5 -7.5t-11.5 -1.5h-74q-8 0 -8.5 5.5t4.5 9.5l122 107q7 6 13.5 8t17.5 2h61q9 0 13 -5t8 -9l91 -106q6 -7 4 -9.5
t-10 -2.5h-72q-7 0 -11 3t-8 8z" />
    <glyph glyph-name="Hbar" unicode="&#x126;" horiz-adv-x="759" 
d="M800 580q-1 -10 -5 -12.5t-15 -2.5h-716q-10 0 -13.5 6t-2.5 15l5 43q2 8 4 10t7 2h731q6 0 9.5 -6t2.5 -12zM224 327q-5 0 -8.5 -3t-5.5 -12l-41 -296q-2 -10 -6.5 -13t-16.5 -3h-110q-11 0 -13.5 4t-1.5 13l100 712q2 8 4.5 10.5t9.5 2.5h124q7 0 9 -3t0 -11l-38 -273
q-1 -9 1 -11.5t9 -2.5h269q6 0 9.5 6t4.5 13l38 270q2 8 4.5 10t9.5 2h123q7 0 9 -4t0 -17l-99 -706q-1 -10 -4 -12.5t-14 -2.5h-110q-12 0 -16 4.5t-3 15.5l42 300q1 7 -11 7h-268z" />
    <glyph glyph-name="hbar" unicode="&#x127;" horiz-adv-x="557" 
d="M378 614q-1 -9 -5.5 -11t-14.5 -2h-299q-9 0 -13 5.5t-3 13.5l7 46q1 7 3 8.5t7 1.5h313q5 0 8.5 -5.5t2.5 -10.5zM12 0q-9 0 -14 6.5t-4 15.5l100 707q1 8 5 10.5t10 2.5h100q14 0 11 -16l-35 -249q-2 -14 7 -8q37 26 67.5 41.5t58 22.5t56.5 7q71 0 107.5 -35t36.5 -95
q0 -8 -0.5 -15.5t-1.5 -15.5l-51 -362q-2 -10 -5.5 -13.5t-15.5 -3.5h-92q-21 0 -17 22l49 344q1 5 1 10v9q0 29 -16.5 44t-51.5 15q-25 0 -48 -8t-45.5 -24t-48.5 -40l-52 -356q-1 -10 -5 -13t-17 -3h-89z" />
    <glyph glyph-name="Itilde" unicode="&#x128;" horiz-adv-x="306" 
d="M279 742q15 0 12 -20l-99 -704q-1 -12 -5.5 -15t-17.5 -3h-108q-12 0 -14.5 6t-1.5 16l100 707q1 8 3.5 10.5t9.5 2.5h121zM402 868q-16 -7 -38.5 -14t-49.5 -7q-28 0 -50.5 7.5l-42 14t-43.5 6.5t-37.5 -9t-32.5 -18q-8 -3 -12 1t-6 13l-8 37q-1 7 -3 12.5t7 11.5
q19 12 39 20t48 8q29 0 53 -7t45.5 -15t42.5 -8q15 0 27 5.5t22.5 12.5t20.5 10q9 2 14.5 -2.5t6.5 -12.5l5 -44q1 -6 1 -12.5t-9 -9.5v0z" />
    <glyph glyph-name="itilde" unicode="&#x129;" horiz-adv-x="256" 
d="M158 18q-2 -12 -6 -15t-17 -3h-87q-11 0 -15.5 6t-3.5 16l69 495q2 8 4.5 10.5t9.5 2.5h101q7 0 11.5 -6t3.5 -13zM346 656q-16 -7 -38.5 -14t-49.5 -7q-28 0 -50.5 7.5l-42 14t-43.5 6.5t-37.5 -9t-32.5 -18q-8 -3 -12 1t-6 13l-8 37q-1 7 -3 12.5t7 11.5q19 12 39 20
t48 8q29 0 53 -7t45.5 -15t42.5 -8q15 0 27 5.5t22.5 12.5t20.5 10q9 2 14.5 -2.5t6.5 -12.5l5 -44q1 -6 1 -12.5t-9 -9.5v0z" />
    <glyph glyph-name="Imacron" unicode="&#x12a;" horiz-adv-x="306" 
d="M279 742q15 0 12 -20l-99 -704q-1 -12 -5.5 -15t-17.5 -3h-108q-12 0 -14.5 6t-1.5 16l100 707q1 8 3.5 10.5t9.5 2.5h121zM411 873q-1 -9 -5 -11.5t-15 -2.5h-305q-9 0 -13 6t-3 14l8 56q1 7 3 8.5t7 1.5h319q5 0 9 -5.5t3 -10.5z" />
    <glyph glyph-name="imacron" unicode="&#x12b;" horiz-adv-x="256" 
d="M158 18q-2 -12 -6 -15t-17 -3h-87q-11 0 -15.5 6t-3.5 16l69 495q2 8 4.5 10.5t9.5 2.5h101q7 0 11.5 -6t3.5 -13zM354 661q-1 -9 -5 -11.5t-15 -2.5h-305q-9 0 -13 6t-3 14l8 56q1 7 3 8.5t7 1.5h319q5 0 9 -5.5t3 -10.5z" />
    <glyph glyph-name="Ibreve" unicode="&#x12c;" horiz-adv-x="306" 
d="M279 742q15 0 12 -20l-99 -704q-1 -12 -5.5 -15t-17.5 -3h-108q-12 0 -14.5 6t-1.5 16l100 707q1 8 3.5 10.5t9.5 2.5h121zM399 954q9 0 11.5 -7t-1.5 -16q-15 -29 -42 -52.5t-61.5 -36t-76.5 -12.5t-75 11.5t-53 35.5t-25 60q-1 6 1 11.5t11 5.5h56q7 0 9.5 -5t8.5 -13
q7 -8 16.5 -17.5t23 -15t31.5 -5.5q30 0 54 13.5t39 33.5q4 5 9 7t9 2h55v0z" />
    <glyph glyph-name="ibreve" unicode="&#x12d;" horiz-adv-x="256" 
d="M158 18q-2 -12 -6 -15t-17 -3h-87q-11 0 -15.5 6t-3.5 16l69 495q2 8 4.5 10.5t9.5 2.5h101q7 0 11.5 -6t3.5 -13zM342 742q9 0 11.5 -7t-1.5 -16q-15 -29 -42 -52.5t-61.5 -36t-76.5 -12.5t-75 11.5t-53 35.5t-25 60q-1 6 1 11.5t11 5.5h56q7 0 9.5 -5t8.5 -13
q7 -8 16.5 -17.5t23 -15t31.5 -5.5q30 0 54 13.5t39 33.5q4 5 9 7t9 2h55v0z" />
    <glyph glyph-name="Iogonek" unicode="&#x12e;" horiz-adv-x="306" 
d="M279 742q15 0 12 -20l-99 -704q-1 -12 -5.5 -15t-17.5 -3h-108q-12 0 -14.5 6t-1.5 16l100 707q1 8 3.5 10.5t9.5 2.5h121zM-22 -81q2 18 12.5 33t33.5 29.5t65 27.5l95 -6q-56 -20 -81 -39.5t-28 -43.5q-2 -15 6 -23t27 -8q22 0 38 6t27 10q7 4 10.5 0.5t2.5 -10.5
l-5 -38q-1 -5 -3.5 -9.5t-6.5 -5.5q-15 -5 -39.5 -9t-52.5 -4q-54 0 -80.5 23.5t-20.5 66.5v0z" />
    <glyph glyph-name="iogonek" unicode="&#x12f;" horiz-adv-x="256" 
d="M158 18q-2 -12 -6 -15t-17 -3h-87q-11 0 -15.5 6t-3.5 16l69 495q2 8 4.5 10.5t9.5 2.5h101q7 0 11.5 -6t3.5 -13zM246 622q-2 -11 -7 -14t-18 -3h-91q-11 0 -15 6.5t-3 15.5l14 102q2 8 4 10.5t10 2.5h105q7 0 11.5 -6t2.5 -14zM-55 -81q2 18 12.5 33t33.5 29.5t65 27.5
l95 -6q-56 -20 -81 -39.5t-28 -43.5q-2 -15 6 -23t27 -8q22 0 38 6t27 10q7 4 10.5 0.5t2.5 -10.5l-5 -38q-1 -5 -3.5 -9.5t-6.5 -5.5q-15 -5 -39.5 -9t-52.5 -4q-54 0 -80.5 23.5t-20.5 66.5v0z" />
    <glyph glyph-name="Idotaccent" unicode="&#x130;" horiz-adv-x="306" 
d="M279 742q15 0 12 -20l-99 -704q-1 -12 -5.5 -15t-17.5 -3h-108q-12 0 -14.5 6t-1.5 16l100 707q1 8 3.5 10.5t9.5 2.5h121zM303 834q-2 -11 -7 -14t-18 -3h-91q-11 0 -15 6.5t-3 15.5l14 102q2 8 4 10.5t10 2.5h105q7 0 11.5 -6t2.5 -14z" />
    <glyph glyph-name="dotlessi" unicode="&#x131;" horiz-adv-x="256" 
d="M158 18q-2 -12 -6 -15t-17 -3h-87q-11 0 -15.5 6t-3.5 16l69 495q2 8 4.5 10.5t9.5 2.5h101q7 0 11.5 -6t3.5 -13z" />
    <glyph glyph-name="IJ" unicode="&#x132;" horiz-adv-x="743" 
d="M279 742q15 0 12 -20l-99 -704q-1 -12 -5.5 -15t-17.5 -3h-108q-12 0 -14.5 6t-1.5 16l100 707q1 8 3.5 10.5t9.5 2.5h121zM657 178q-9 -66 -35 -107.5t-70 -61t-108 -19.5q-38 0 -68 7t-49 12q-13 4 -17 8t-3 11l23 87q1 7 4.5 10t11.5 0q13 -3 29.5 -7.5t37.5 -4.5
q45 0 69.5 25.5t32.5 83.5l71 507q2 8 4.5 10.5t9.5 2.5h123q13 0 10 -20l-76 -544v0z" />
    <glyph glyph-name="ij" unicode="&#x133;" horiz-adv-x="512" 
d="M158 18q-2 -12 -6 -15t-17 -3h-87q-11 0 -15.5 6t-3.5 16l69 495q2 8 4.5 10.5t9.5 2.5h105q7 0 9.5 -6t1.5 -13zM246 624q-2 -11 -7 -15t-18 -4h-96q-10 0 -12.5 7t-0.5 17l14 95q2 18 17 18h106q6 0 9 -6.5t1 -14.5zM411 -10q-12 -82 -54 -121t-131 -39q-45 0 -58 5
t-11 17l9 66q1 6 3.5 10t9.5 5l46 4q23 2 37.5 17t20.5 50l72 513q1 8 4 10.5t10 2.5h101q7 0 11 -6t3 -13l-73 -521v0zM502 624q-2 -11 -7 -15t-18 -4h-96q-10 0 -12.5 7t-0.5 17l14 95q2 18 17 18h106q6 0 9 -6.5t1 -14.5z" />
    <glyph glyph-name="Jcircumflex" unicode="&#x134;" horiz-adv-x="437" 
d="M351 178q-9 -66 -35 -107.5t-70 -61t-108 -19.5q-38 0 -68 7t-49 12q-13 4 -17 8t-3 11l23 87q1 7 4.5 10t11.5 0q13 -3 29.5 -7.5t37.5 -4.5q45 0 69.5 25.5t32.5 83.5l71 507q2 8 4.5 10.5t9.5 2.5h123q13 0 10 -20l-76 -544v0zM389 891q-7 9 -10.5 8.5t-13.5 -9.5
l-63 -53q-6 -6 -10.5 -7.5t-11.5 -1.5h-74q-8 0 -8.5 5.5t4.5 9.5l122 107q7 6 13.5 8t17.5 2h61q9 0 13 -5t8 -9l91 -106q6 -7 4 -9.5t-10 -2.5h-72q-7 0 -11 3t-8 8z" />
    <glyph glyph-name="jcircumflex" unicode="&#x135;" horiz-adv-x="251" 
d="M149 -10q-7 -55 -31.5 -90t-63 -52.5t-89.5 -17.5q-41 0 -53.5 5t-10.5 17l9 66q1 6 3.5 10t9.5 5l40 4q24 2 38.5 17t19.5 50l72 513q2 8 5 10.5t10 2.5h101q7 0 11 -6t3 -13l-74 -521v0zM191 679q-7 9 -10.5 8.5t-13.5 -9.5l-63 -53q-6 -6 -10.5 -7.5t-11.5 -1.5h-74
q-8 0 -8.5 5.5t4.5 9.5l122 107q7 6 13.5 8t17.5 2h61q9 0 13 -5t8 -9l91 -106q6 -7 4 -9.5t-10 -2.5h-72q-7 0 -11 3t-8 8z" />
    <glyph glyph-name="uni0136" unicode="&#x136;" horiz-adv-x="729" 
d="M654 19q9 -19 -10 -19h-126q-16 0 -20 17l-136 333q-2 7 -6.5 2.5t-10.5 -11.5l-114 -115q-5 -4 -8 -9t-5 -12l-26 -189q-1 -9 -6 -12.5t-16 -3.5h-111q-9 0 -12 6t-2 16l100 707q1 8 3.5 10.5t9.5 2.5h120q6 0 10.5 -5.5t2.5 -13.5l-45 -322q-1 -9 1.5 -5.5t8.5 9.5
l317 326q7 7 13 9t18 2h113q12 0 13.5 -5t-5.5 -12l-245 -243q-4 -5 -6.5 -9t-1.5 -12l182 -442v0zM237 -242q-4 0 -4.5 4t3.5 8l40 53q6 9 5 14t-8 5h-20q-6 0 -8 3t-1 12l10 65q2 15 14 15h74q11 0 10 -11l-11 -79q-2 -9 -7 -16l-52 -59q-5 -6 -9.5 -10t-13.5 -4h-22v0z
" />
    <glyph glyph-name="uni0137" unicode="&#x137;" horiz-adv-x="590" 
d="M530 18q3 -7 1.5 -12.5t-12.5 -5.5h-109q-10 0 -14.5 6t-7.5 15l-89 222q-4 13 -16 2l-94 -85q-4 -4 -8 -9.5t-6 -14.5l-16 -118q-2 -12 -6 -15t-17 -3h-87q-12 0 -16.5 6t-3.5 16l100 707q1 8 4 10.5t9 2.5h106q7 0 9 -6t0 -14l-59 -429q-1 -6 0.5 -4.5l7.5 7.5l241 223
q7 7 13 9t12 2h91q14 0 17.5 -8t-6.5 -18l-168 -148q-6 -5 -9 -10t0 -15l133 -313v0zM176 -242q-4 0 -4.5 4t3.5 8l40 53q6 9 5 14t-8 5h-20q-6 0 -8 3t-1 12l10 65q2 15 14 15h74q11 0 10 -11l-11 -79q-2 -9 -7 -16l-52 -59q-5 -6 -9.5 -10t-13.5 -4h-22v0z" />
    <glyph glyph-name="kgreenlandic" unicode="&#x138;" horiz-adv-x="590" 
d="M530 18q3 -7 1.5 -12.5t-12.5 -5.5h-109q-10 0 -15 6t-7 15l-89 224q-3 7 -5.5 5.5t-9.5 -8.5l-95 -82q-4 -4 -8 -9.5t-6 -14.5l-16 -118q-2 -12 -6 -15t-17 -3h-87q-12 0 -16.5 6t-3.5 16l70 495q1 8 4 10.5t9 2.5h102q7 0 11 -6t3 -14l-30 -217q-1 -6 0.5 -4.5l7.5 7.5
l241 223q7 7 13 9t12 2h91q14 0 17.5 -8t-6.5 -18l-168 -148q-6 -5 -9 -10t0 -15l133 -313v0z" />
    <glyph glyph-name="Lacute" unicode="&#x139;" horiz-adv-x="619" 
d="M144 727q2 15 15 15h122q14 0 10 -20l-84 -599q-2 -13 9 -13h330q14 0 12 -18l-11 -80q-1 -8 -4.5 -10t-11.5 -2h-469q-20 0 -17 22l99 705v0zM486 892q2 -8 0 -12.5t-13 -7.5l-239 -66q-10 -2 -15 2t-6 12l-7 30q-3 14 4 16l248 96q5 3 9 0.5t6 -10.5z" />
    <glyph glyph-name="lacute" unicode="&#x13a;" horiz-adv-x="257" 
d="M159 18q-2 -12 -6.5 -15t-17.5 -3h-87q-11 0 -16 6t-4 16l103 707q1 8 3.5 10.5t9.5 2.5h104q13 0 10 -17zM356 892q2 -8 0 -12.5t-13 -7.5l-239 -66q-10 -2 -15 2t-6 12l-7 30q-3 14 4 16l248 96q5 3 9 0.5t6 -10.5z" />
    <glyph glyph-name="uni013B" unicode="&#x13b;" horiz-adv-x="619" 
d="M144 727q2 15 15 15h122q14 0 10 -20l-84 -599q-2 -13 9 -13h330q14 0 12 -18l-11 -80q-1 -8 -4.5 -10t-11.5 -2h-469q-20 0 -17 22l99 705v0zM174 -242q-4 0 -4.5 4t3.5 8l40 53q6 9 5 14t-8 5h-20q-6 0 -8 3t-1 12l10 65q2 15 14 15h74q11 0 10 -11l-11 -79
q-2 -9 -7 -16l-52 -59q-5 -6 -9.5 -10t-13.5 -4h-22v0z" />
    <glyph glyph-name="uni013C" unicode="&#x13c;" horiz-adv-x="257" 
d="M159 18q-2 -12 -6.5 -15t-17.5 -3h-87q-11 0 -16 6t-4 16l103 707q1 8 3.5 10.5t9.5 2.5h104q13 0 10 -17zM18 -242q-4 0 -4.5 4t3.5 8l40 53q6 9 5 14t-8 5h-20q-6 0 -8 3t-1 12l10 65q2 15 14 15h74q11 0 10 -11l-11 -79q-2 -9 -7 -16l-52 -59q-5 -6 -9.5 -10t-13.5 -4
h-22v0z" />
    <glyph glyph-name="Lcaron" unicode="&#x13d;" horiz-adv-x="619" 
d="M144 727q2 15 15 15h122q14 0 10 -20l-84 -599q-2 -13 9 -13h330q14 0 12 -18l-11 -80q-1 -8 -4.5 -10t-11.5 -2h-469q-20 0 -17 22l99 705v0zM440 527q-6 0 -8.5 5.5t-1.5 9.5l42 74l5 10t-5 3l-8 1q-8 1 -12 5.5t-3 11.5l13 87q1 6 2.5 7t5.5 1h74q4 0 7.5 -4.5
t2.5 -9.5l-14 -102l-2 -4t-1 -3l-47 -84q-3 -6 -7.5 -7t-14.5 -1h-28v0z" />
    <glyph glyph-name="lcaron" unicode="&#x13e;" horiz-adv-x="354" 
d="M159 18q-2 -12 -6.5 -15t-17.5 -3h-87q-11 0 -16 6t-4 16l103 707q1 8 3.5 10.5t9.5 2.5h104q13 0 10 -17zM303 527q-6 0 -8.5 5.5t-1.5 9.5l42 74l5 10t-5 3l-8 1q-8 1 -12 5.5t-3 11.5l13 87q1 6 2.5 7t5.5 1h74q4 0 7.5 -4.5t2.5 -9.5l-14 -102l-2 -4t-1 -3l-47 -84
q-3 -6 -7.5 -7t-14.5 -1h-28v0z" />
    <glyph glyph-name="Ldot" unicode="&#x13f;" horiz-adv-x="616" 
d="M107 727q2 15 15 15h122q14 0 10 -20l-84 -599q-2 -13 9 -13h330q14 0 12 -18l-11 -80q-1 -8 -4.5 -10t-11.5 -2h-469q-20 0 -17 22l99 705v0zM515 356q-1 -11 -5 -13.5t-16 -2.5h-101q-10 0 -14.5 6t-3.5 14l15 104q1 8 3.5 9.5t7.5 1.5h116q6 0 9.5 -5t2.5 -12z" />
    <glyph glyph-name="ldot" unicode="&#x140;" horiz-adv-x="394" 
d="M159 18q-2 -12 -6.5 -15t-17.5 -3h-87q-11 0 -16 6t-4 16l103 707q1 8 3.5 10.5t9.5 2.5h104q13 0 10 -17zM363 241q-1 -11 -5 -13.5t-16 -2.5h-101q-10 0 -14.5 6t-3.5 14l15 104q1 8 3.5 9.5t7.5 1.5h116q6 0 9.5 -5t2.5 -12z" />
    <glyph glyph-name="Lslash" unicode="&#x141;" horiz-adv-x="582" 
d="M394 412q-1 -7 -3.5 -10t-10.5 -5l-362 -96q-11 -3 -15 2.5t-3 14.5l11 78q2 8 4 10t8 4l364 93q10 2 14.5 -3.5t2.5 -13.5zM107 727q2 15 15 15h122q14 0 10 -20l-84 -599q-2 -13 9 -13h330q14 0 12 -18l-11 -80q-1 -8 -4.5 -10t-11.5 -2h-469q-20 0 -17 22l99 705v0z
" />
    <glyph glyph-name="lslash" unicode="&#x142;" horiz-adv-x="311" 
d="M315 385q-1 -12 -14 -22l-282 -194q-11 -7 -15.5 -2t-3.5 14l12 80q2 14 14 22l283 191q10 6 14.5 1t2.5 -13zM180 18q-2 -12 -6 -15t-18 -3h-87q-11 0 -16 6t-4 16l103 707q1 8 3.5 10.5t9.5 2.5h104q13 0 10 -17z" />
    <glyph glyph-name="Nacute" unicode="&#x143;" horiz-adv-x="758" 
d="M734 742q12 0 10 -14l-101 -717q-1 -11 -15 -11h-84q-6 0 -11 3.5t-10 10.5l-275 486q-4 7 -8 6t-5 -11l-68 -481q-1 -8 -4.5 -11t-13.5 -3h-92q-8 0 -11 5.5t-2 13.5l101 710q1 8 3.5 10.5t11.5 2.5h99q10 0 15 -4t9 -12l257 -463q5 -8 11 -7t7 12l65 462q2 8 4.5 10
t10.5 2h96zM612 892q2 -8 0 -12.5t-13 -7.5l-239 -66q-10 -2 -15 2t-6 12l-7 30q-3 14 4 16l248 96q5 3 9 0.5t6 -10.5z" />
    <glyph glyph-name="nacute" unicode="&#x144;" horiz-adv-x="592" 
d="M42 0q-9 0 -11.5 6.5t-1.5 15.5l69 495q2 8 4.5 10.5t8.5 2.5h106q5 0 7.5 -2.5t1.5 -9.5l-8 -53q-1 -11 10 -2q43 35 88 56t93 21q69 0 106.5 -36.5t37.5 -95.5q0 -6 -0.5 -13t-1.5 -14l-51 -364q-2 -10 -6 -13.5t-15 -3.5h-96q-9 0 -11.5 6t-1.5 16l49 341
q1 6 1.5 11.5t0.5 9.5q0 30 -17 45t-52 15q-26 0 -48.5 -8t-45 -24t-49.5 -40l-51 -356q-2 -10 -6.5 -13t-16.5 -3h-93v0zM499 680q2 -8 0 -12.5t-13 -7.5l-239 -66q-10 -2 -15 2t-6 12l-7 30q-3 14 4 16l248 96q5 3 9 0.5t6 -10.5z" />
    <glyph glyph-name="uni0145" unicode="&#x145;" horiz-adv-x="758" 
d="M734 742q12 0 10 -14l-101 -717q-1 -11 -15 -11h-84q-6 0 -11 3.5t-10 10.5l-275 486q-4 7 -8 6t-5 -11l-68 -481q-1 -8 -4.5 -11t-13.5 -3h-92q-8 0 -11 5.5t-2 13.5l101 710q1 8 3.5 10.5t11.5 2.5h99q10 0 15 -4t9 -12l257 -463q5 -8 11 -7t7 12l65 462q2 8 4.5 10
t10.5 2h96zM242 -242q-4 0 -4.5 4t3.5 8l40 53q6 9 5 14t-8 5h-20q-6 0 -8 3t-1 12l10 65q2 15 14 15h74q11 0 10 -11l-11 -79q-2 -9 -7 -16l-52 -59q-5 -6 -9.5 -10t-13.5 -4h-22v0z" />
    <glyph glyph-name="uni0146" unicode="&#x146;" horiz-adv-x="592" 
d="M42 0q-9 0 -11.5 6.5t-1.5 15.5l69 495q2 8 4.5 10.5t8.5 2.5h106q5 0 7.5 -2.5t1.5 -9.5l-8 -53q-1 -11 10 -2q43 35 88 56t93 21q69 0 106.5 -36.5t37.5 -95.5q0 -6 -0.5 -13t-1.5 -14l-51 -364q-2 -10 -6 -13.5t-15 -3.5h-96q-9 0 -11.5 6t-1.5 16l49 341
q1 6 1.5 11.5t0.5 9.5q0 30 -17 45t-52 15q-26 0 -48.5 -8t-45 -24t-49.5 -40l-51 -356q-2 -10 -6.5 -13t-16.5 -3h-93v0zM186 -242q-4 0 -4.5 4t3.5 8l40 53q6 9 5 14t-8 5h-20q-6 0 -8 3t-1 12l10 65q2 15 14 15h74q11 0 10 -11l-11 -79q-2 -9 -7 -16l-52 -59
q-5 -6 -9.5 -10t-13.5 -4h-22v0z" />
    <glyph glyph-name="Ncaron" unicode="&#x147;" horiz-adv-x="758" 
d="M734 742q12 0 10 -14l-101 -717q-1 -11 -15 -11h-84q-6 0 -11 3.5t-10 10.5l-275 486q-4 7 -8 6t-5 -11l-68 -481q-1 -8 -4.5 -11t-13.5 -3h-92q-8 0 -11 5.5t-2 13.5l101 710q1 8 3.5 10.5t11.5 2.5h99q10 0 15 -4t9 -12l257 -463q5 -8 11 -7t7 12l65 462q2 8 4.5 10
t10.5 2h96zM542 950q6 5 10.5 5h11.5h77q9 0 10.5 -5t-6.5 -13l-120 -106q-5 -4 -10 -6t-14 -2h-61q-11 0 -17 4.5t-10 10.5l-93 105q-5 6 -6 9t6 3h72q8 0 12 -2.5t7 -8.5l47 -52q10 -11 14 -7.5t14 13.5l56 52v0z" />
    <glyph glyph-name="ncaron" unicode="&#x148;" horiz-adv-x="592" 
d="M42 0q-9 0 -11.5 6.5t-1.5 15.5l69 495q2 8 4.5 10.5t8.5 2.5h106q5 0 7.5 -2.5t1.5 -9.5l-8 -53q-1 -11 10 -2q43 35 88 56t93 21q69 0 106.5 -36.5t37.5 -95.5q0 -6 -0.5 -13t-1.5 -14l-51 -364q-2 -10 -6 -13.5t-15 -3.5h-96q-9 0 -11.5 6t-1.5 16l49 341
q1 6 1.5 11.5t0.5 9.5q0 30 -17 45t-52 15q-26 0 -48.5 -8t-45 -24t-49.5 -40l-51 -356q-2 -10 -6.5 -13t-16.5 -3h-93v0zM429 738q6 5 10.5 5h11.5h77q9 0 10.5 -5t-6.5 -13l-120 -106q-5 -4 -10 -6t-14 -2h-61q-11 0 -17 4.5t-10 10.5l-93 105q-5 6 -6 9t6 3h72
q8 0 12 -2.5t7 -8.5l47 -52q10 -11 14 -7.5t14 13.5l56 52v0z" />
    <glyph glyph-name="napostrophe" unicode="&#x149;" horiz-adv-x="678" 
d="M68 459q-5 0 -5 2.5t2 6.5l48 113q6 17 -8 18l-8 2q-7 1 -9 2t-1 7l17 116q1 6 5.5 11t9.5 5h75q4 0 5 -0.5t0 -5.5l-18 -131q0 -2 -2 -4t-2 -4l-54 -123q-5 -15 -26 -15h-29v0zM128 0q-9 0 -11.5 6.5t-1.5 15.5l69 495q2 8 4.5 10.5t8.5 2.5h106q5 0 7.5 -2.5t1.5 -9.5
l-8 -53q-1 -11 10 -2q43 35 88 56t93 21q69 0 106.5 -36.5t37.5 -95.5q0 -6 -0.5 -13t-1.5 -14l-51 -364q-2 -10 -6 -13.5t-15 -3.5h-96q-9 0 -11.5 6t-1.5 16l49 341q1 6 1.5 11.5t0.5 9.5q0 30 -17 45t-52 15q-26 0 -48.5 -8t-45 -24t-49.5 -40l-51 -356q-2 -10 -6.5 -13
t-16.5 -3h-93v0z" />
    <glyph glyph-name="Eng" unicode="&#x14a;" horiz-adv-x="758" 
d="M731 742q16 0 13 -18l-101 -721q-13 -94 -63.5 -136t-143.5 -42q-33 0 -60 4.5t-47 10.5q-25 4 -20 30l16 66q2 8 4.5 9.5t7.5 -0.5q10 -2 26 -4.5t32.5 -4.5t27.5 -2q41 0 60.5 19t26.5 65l5 28l-268 455q-4 6 -7.5 3.5t-4.5 -11.5l-68 -480q-1 -9 -4 -11t-13 -2h-87
q-9 0 -14.5 5.5t-4.5 13.5l101 709q1 8 3.5 11t11.5 3h99q9 0 15 -4t10 -12l260 -441q5 -8 11.5 -3.5t7.5 13.5l61 435q1 8 3.5 10t10.5 2h93v0z" />
    <glyph glyph-name="eng" unicode="&#x14b;" horiz-adv-x="596" 
d="M410 540q75 0 113.5 -44.5t28.5 -114.5l-55 -386q-7 -55 -32.5 -91.5t-64 -55t-88.5 -18.5q-38 0 -50 5t-11 17l10 66q1 5 3.5 9t9.5 5l37 4q23 3 37.5 18t20.5 50l50 360q5 38 -10.5 59.5t-58.5 21.5q-35 0 -70 -20t-69 -53l-52 -356q-1 -10 -5 -13t-17 -3h-90
q-9 0 -14 6.5t-4 15.5l72 495q1 8 3.5 10.5t9.5 2.5h98q7 0 11 -5.5t3 -13.5l-8 -52q-1 -6 1.5 -3.5t7.5 9.5q35 26 65.5 42.5t59 24.5t58.5 8v0z" />
    <glyph glyph-name="Omacron" unicode="&#x14c;" horiz-adv-x="770" 
d="M352 -10q-92 0 -157 35.5t-99.5 103.5t-34.5 163q0 19 1.5 40.5t4.5 42.5q17 119 69 203t132.5 129t180.5 45q90 0 155 -36.5t99.5 -105t34.5 -165.5q0 -19 -1 -40t-5 -43q-16 -117 -67.5 -200.5t-131.5 -127.5t-181 -44v0zM357 96q93 0 147.5 67t75.5 211q4 29 5.5 53.5
t1.5 45.5q0 90 -35 132t-106 42q-93 0 -149 -69.5t-77 -217.5q-4 -26 -6 -50t-2 -44q0 -88 36 -129t109 -41v0zM642 873q-1 -9 -5 -11.5t-15 -2.5h-305q-9 0 -13 6t-3 14l8 56q1 7 3 8.5t7 1.5h319q5 0 9 -5.5t3 -10.5z" />
    <glyph glyph-name="omacron" unicode="&#x14d;" horiz-adv-x="599" 
d="M265 -10q-71 0 -123 29t-80.5 81t-28.5 121q0 70 24 128.5t65.5 101t96 66t115.5 23.5q71 0 123 -30t80 -83t28 -122q0 -91 -40 -162.5t-107.5 -112t-152.5 -40.5v0zM269 79q47 0 85 29.5t60 85t22 135.5q0 60 -26.5 92.5t-77.5 32.5q-47 0 -85 -30t-61 -86t-23 -136
q0 -59 27.5 -91t78.5 -32v0zM527 661q-1 -9 -5 -11.5t-15 -2.5h-305q-9 0 -13 6t-3 14l8 56q1 7 3 8.5t7 1.5h319q5 0 9 -5.5t3 -10.5z" />
    <glyph glyph-name="Obreve" unicode="&#x14e;" horiz-adv-x="770" 
d="M352 -10q-92 0 -157 35.5t-99.5 103.5t-34.5 163q0 19 1.5 40.5t4.5 42.5q17 119 69 203t132.5 129t180.5 45q90 0 155 -36.5t99.5 -105t34.5 -165.5q0 -19 -1 -40t-5 -43q-16 -117 -67.5 -200.5t-131.5 -127.5t-181 -44v0zM357 96q93 0 147.5 67t75.5 211q4 29 5.5 53.5
t1.5 45.5q0 90 -35 132t-106 42q-93 0 -149 -69.5t-77 -217.5q-4 -26 -6 -50t-2 -44q0 -88 36 -129t109 -41v0zM630 954q9 0 11.5 -7t-1.5 -16q-15 -29 -42 -52.5t-61.5 -36t-76.5 -12.5t-75 11.5t-53 35.5t-25 60q-1 6 1 11.5t11 5.5h56q7 0 9.5 -5t8.5 -13
q7 -8 16.5 -17.5t23 -15t31.5 -5.5q30 0 54 13.5t39 33.5q4 5 9 7t9 2h55v0z" />
    <glyph glyph-name="obreve" unicode="&#x14f;" horiz-adv-x="599" 
d="M265 -10q-71 0 -123 29t-80.5 81t-28.5 121q0 70 24 128.5t65.5 101t96 66t115.5 23.5q71 0 123 -30t80 -83t28 -122q0 -91 -40 -162.5t-107.5 -112t-152.5 -40.5v0zM269 79q47 0 85 29.5t60 85t22 135.5q0 60 -26.5 92.5t-77.5 32.5q-47 0 -85 -30t-61 -86t-23 -136
q0 -59 27.5 -91t78.5 -32v0zM515 742q9 0 11.5 -7t-1.5 -16q-15 -29 -42 -52.5t-61.5 -36t-76.5 -12.5t-75 11.5t-53 35.5t-25 60q-1 6 1 11.5t11 5.5h56q7 0 9.5 -5t8.5 -13q7 -8 16.5 -17.5t23 -15t31.5 -5.5q30 0 54 13.5t39 33.5q4 5 9 7t9 2h55v0z" />
    <glyph glyph-name="Ohungarumlaut" unicode="&#x150;" horiz-adv-x="770" 
d="M352 -10q-92 0 -157 35.5t-99.5 103.5t-34.5 163q0 19 1.5 40.5t4.5 42.5q17 119 69 203t132.5 129t180.5 45q90 0 155 -36.5t99.5 -105t34.5 -165.5q0 -19 -1 -40t-5 -43q-16 -117 -67.5 -200.5t-131.5 -127.5t-181 -44v0zM357 96q93 0 147.5 67t75.5 211q4 29 5.5 53.5
t1.5 45.5q0 90 -35 132t-106 42q-93 0 -149 -69.5t-77 -217.5q-4 -26 -6 -50t-2 -44q0 -88 36 -129t109 -41v0zM495 909q4 -7 5.5 -13t-8.5 -13l-149 -97q-9 -5 -13.5 -3.5t-9.5 6.5l-19 25q-4 6 -5.5 12.5t1.5 8.5l146 124q6 4 11.5 2t8.5 -7zM679 909q5 -7 6.5 -13
t-9.5 -13l-148 -97q-9 -5 -13.5 -3.5t-9.5 6.5l-19 25q-4 6 -5.5 12.5t1.5 8.5l146 124q6 4 11.5 2t8.5 -7z" />
    <glyph glyph-name="ohungarumlaut" unicode="&#x151;" horiz-adv-x="599" 
d="M265 -10q-71 0 -123 29t-80.5 81t-28.5 121q0 70 24 128.5t65.5 101t96 66t115.5 23.5q71 0 123 -30t80 -83t28 -122q0 -91 -40 -162.5t-107.5 -112t-152.5 -40.5v0zM269 79q47 0 85 29.5t60 85t22 135.5q0 60 -26.5 92.5t-77.5 32.5q-47 0 -85 -30t-61 -86t-23 -136
q0 -59 27.5 -91t78.5 -32v0zM380 697q4 -7 5.5 -13t-8.5 -13l-149 -97q-9 -5 -13.5 -3.5t-9.5 6.5l-19 25q-4 6 -5.5 12.5t1.5 8.5l146 124q6 4 11.5 2t8.5 -7zM564 697q5 -7 6.5 -13t-9.5 -13l-148 -97q-9 -5 -13.5 -3.5t-9.5 6.5l-19 25q-4 6 -5.5 12.5t1.5 8.5l146 124
q6 4 11.5 2t8.5 -7z" />
    <glyph glyph-name="OE" unicode="&#x152;" horiz-adv-x="1127" 
d="M1045 110q8 0 12.5 -4.5t3.5 -13.5l-11 -80q-1 -7 -4 -9.5t-12 -2.5h-441q-5 0 -9 1t-7 4l-20 55q-37 -35 -87.5 -52.5t-110.5 -17.5q-108 0 -179 46.5t-100 132.5t-13 206q17 119 69.5 203t135.5 129t190 45q62 0 107 -18.5t70 -54.5l32 59q3 3 7 3.5t9 0.5h438
q7 0 10.5 -5.5t2.5 -13.5l-11 -76q-1 -9 -4.5 -12t-13.5 -3h-325q-9 0 -15 -5t-8 -13l-24 -175q-1 -8 1 -9.5t9 -1.5h222q8 0 12.5 -5.5t3.5 -12.5l-12 -82q-1 -5 -2.5 -6.5t-9.5 -1.5h-225q-6 0 -11.5 -5t-6.5 -11l-26 -186q-1 -7 0 -7.5t7 -0.5h346v0zM357 96q93 0 147 67
t74 211q20 143 -12.5 208t-119.5 65q-93 0 -149 -69.5t-77 -217.5q-19 -139 14 -201.5t123 -62.5v0z" />
    <glyph glyph-name="oe" unicode="&#x153;" horiz-adv-x="975" 
d="M265 -10q-79 0 -134.5 35.5t-80 98.5t-13.5 145q12 82 54 143t105 94.5t138 33.5q62 0 106.5 -25t69.5 -68q6 -3 11 0t10 10q38 39 87.5 61t103.5 22q78 0 131 -34t77 -98t11 -154q-1 -7 -3 -10t-14 -4h-349q-7 0 -13 -6.5t-8 -18.5q-5 -40 9.5 -70t44 -47t68.5 -17
q43 0 79 19t71 58q5 3 8 1t9 -5l57 -28q5 -2 7.5 -8t-2.5 -14q-37 -43 -74.5 -68t-79.5 -35.5t-93 -10.5q-61 0 -106.5 24.5t-70.5 65.5q-6 3 -10.5 -0.5t-9.5 -11.5q-39 -37 -89 -57.5t-107 -20.5v0zM269 79q43 0 76.5 23t56 66t30.5 104q8 59 -1 99.5t-34 61t-65 20.5
q-43 0 -77 -23t-56 -66.5t-31 -105.5q-9 -58 0.5 -98t35 -60.5t65.5 -20.5v0zM726 457q-37 0 -70.5 -18t-56 -51t-28.5 -77l232 3q10 0 15.5 4.5t6.5 16.5q5 30 -5 58t-33 46t-61 18v0z" />
    <glyph glyph-name="Racute" unicode="&#x154;" horiz-adv-x="713" 
d="M622 21q7 -21 -14 -21h-121q-8 0 -12.5 4.5t-6.5 14.5l-75 292q-1 6 -4 8t-12 2h-130q-12 0 -14 -12l-41 -292q-1 -11 -6.5 -14t-18.5 -3h-105q-11 0 -14.5 6.5t-2.5 15.5l100 707q1 8 3.5 10.5t9.5 2.5h301q118 0 182.5 -45t64.5 -129q0 -53 -20.5 -97.5t-57 -77.5
t-86.5 -49q-9 -4 -11.5 -7t-1.5 -8l93 -308v0zM393 423q49 0 84.5 15.5t55 45.5t19.5 74q0 42 -29 62.5t-82 20.5h-149q-11 0 -14 -15l-28 -191q-1 -8 1.5 -10t7.5 -2h134v0zM573 892q2 -8 0 -12.5t-13 -7.5l-239 -66q-10 -2 -15 2t-6 12l-7 30q-3 14 4 16l248 96q5 3 9 0.5
t6 -10.5z" />
    <glyph glyph-name="racute" unicode="&#x155;" horiz-adv-x="411" 
d="M47 0q-10 0 -14.5 6.5t-3.5 15.5l69 495q2 8 4.5 10.5t8.5 2.5h99q7 0 10.5 -4t2.5 -15l-8 -49q-1 -9 2.5 -9.5t9.5 5.5q25 26 53 44.5t55 28t50 9.5q20 0 30.5 -3t8.5 -11l-13 -94q-1 -9 -3 -11.5t-7 -1.5q-16 2 -32.5 3t-27.5 1q-21 0 -44.5 -8.5t-44.5 -23.5t-35 -33
t-16 -36l-43 -306q-2 -10 -6 -13t-16 -3h-89v0zM415 680q2 -8 0 -12.5t-13 -7.5l-239 -66q-10 -2 -15 2t-6 12l-7 30q-3 14 4 16l248 96q5 3 9 0.5t6 -10.5z" />
    <glyph glyph-name="uni0156" unicode="&#x156;" horiz-adv-x="713" 
d="M622 21q7 -21 -14 -21h-121q-8 0 -12.5 4.5t-6.5 14.5l-75 292q-1 6 -4 8t-12 2h-130q-12 0 -14 -12l-41 -292q-1 -11 -6.5 -14t-18.5 -3h-105q-11 0 -14.5 6.5t-2.5 15.5l100 707q1 8 3.5 10.5t9.5 2.5h301q118 0 182.5 -45t64.5 -129q0 -53 -20.5 -97.5t-57 -77.5
t-86.5 -49q-9 -4 -11.5 -7t-1.5 -8l93 -308v0zM393 423q49 0 84.5 15.5t55 45.5t19.5 74q0 42 -29 62.5t-82 20.5h-149q-11 0 -14 -15l-28 -191q-1 -8 1.5 -10t7.5 -2h134v0zM243 -242q-4 0 -4.5 4t3.5 8l40 53q6 9 5 14t-8 5h-20q-6 0 -8 3t-1 12l10 65q2 15 14 15h74
q11 0 10 -11l-11 -79q-2 -9 -7 -16l-52 -59q-5 -6 -9.5 -10t-13.5 -4h-22v0z" />
    <glyph glyph-name="uni0157" unicode="&#x157;" horiz-adv-x="411" 
d="M47 0q-10 0 -14.5 6.5t-3.5 15.5l69 495q2 8 4.5 10.5t8.5 2.5h99q7 0 10.5 -4t2.5 -15l-8 -49q-1 -9 2.5 -9.5t9.5 5.5q25 26 53 44.5t55 28t50 9.5q20 0 30.5 -3t8.5 -11l-13 -94q-1 -9 -3 -11.5t-7 -1.5q-16 2 -32.5 3t-27.5 1q-21 0 -44.5 -8.5t-44.5 -23.5t-35 -33
t-16 -36l-43 -306q-2 -10 -6 -13t-16 -3h-89v0zM21 -242q-4 0 -4.5 4t3.5 8l40 53q6 9 5 14t-8 5h-20q-6 0 -8 3t-1 12l10 65q2 15 14 15h74q11 0 10 -11l-11 -79q-2 -9 -7 -16l-52 -59q-5 -6 -9.5 -10t-13.5 -4h-22v0z" />
    <glyph glyph-name="Rcaron" unicode="&#x158;" horiz-adv-x="713" 
d="M622 21q7 -21 -14 -21h-121q-8 0 -12.5 4.5t-6.5 14.5l-75 292q-1 6 -4 8t-12 2h-130q-12 0 -14 -12l-41 -292q-1 -11 -6.5 -14t-18.5 -3h-105q-11 0 -14.5 6.5t-2.5 15.5l100 707q1 8 3.5 10.5t9.5 2.5h301q118 0 182.5 -45t64.5 -129q0 -53 -20.5 -97.5t-57 -77.5
t-86.5 -49q-9 -4 -11.5 -7t-1.5 -8l93 -308v0zM393 423q49 0 84.5 15.5t55 45.5t19.5 74q0 42 -29 62.5t-82 20.5h-149q-11 0 -14 -15l-28 -191q-1 -8 1.5 -10t7.5 -2h134v0zM503 950q6 5 10.5 5h11.5h77q9 0 10.5 -5t-6.5 -13l-120 -106q-5 -4 -10 -6t-14 -2h-61
q-11 0 -17 4.5t-10 10.5l-93 105q-5 6 -6 9t6 3h72q8 0 12 -2.5t7 -8.5l47 -52q10 -11 14 -7.5t14 13.5l56 52v0z" />
    <glyph glyph-name="rcaron" unicode="&#x159;" horiz-adv-x="411" 
d="M47 0q-10 0 -14.5 6.5t-3.5 15.5l69 495q2 8 4.5 10.5t8.5 2.5h99q7 0 10.5 -4t2.5 -15l-8 -49q-1 -9 2.5 -9.5t9.5 5.5q25 26 53 44.5t55 28t50 9.5q20 0 30.5 -3t8.5 -11l-13 -94q-1 -9 -3 -11.5t-7 -1.5q-16 2 -32.5 3t-27.5 1q-21 0 -44.5 -8.5t-44.5 -23.5t-35 -33
t-16 -36l-43 -306q-2 -10 -6 -13t-16 -3h-89v0zM345 738q6 5 10.5 5h11.5h77q9 0 10.5 -5t-6.5 -13l-120 -106q-5 -4 -10 -6t-14 -2h-61q-11 0 -17 4.5t-10 10.5l-93 105q-5 6 -6 9t6 3h72q8 0 12 -2.5t7 -8.5l47 -52q10 -11 14 -7.5t14 13.5l56 52v0z" />
    <glyph glyph-name="Sacute" unicode="&#x15a;" horiz-adv-x="665" 
d="M545 586q-21 24 -58.5 42.5t-94.5 18.5q-44 0 -78.5 -13.5t-54 -38.5t-19.5 -59q0 -17 8.5 -31.5t26.5 -27t44 -22.5l147 -51q77 -26 113 -66.5t36 -99.5q0 -80 -42 -135.5t-113.5 -84t-159.5 -28.5q-103 0 -171.5 35t-103.5 99q-4 8 -4 14t8 10l65 40q11 7 19 4t14 -11
q23 -29 45.5 -49.5t55 -30.5t84.5 -10q44 0 80 11.5t57 36.5t21 65q0 27 -19 46.5t-65 35.5l-145 51q-72 24 -106.5 69.5t-34.5 101.5t24 100.5t65 77t95 49.5t115 17q57 0 103.5 -14t81.5 -38t58 -54q6 -8 6.5 -13t-5.5 -9l-76 -51q-4 -2 -9.5 1.5t-12.5 11.5v0zM565 892
q2 -8 0 -12.5t-13 -7.5l-239 -66q-10 -2 -15 2t-6 12l-7 30q-3 14 4 16l248 96q5 3 9 0.5t6 -10.5z" />
    <glyph glyph-name="sacute" unicode="&#x15b;" horiz-adv-x="524" 
d="M231 -10q-92 0 -149.5 34t-77.5 81q-7 14 5 20l57 28q8 4 14.5 3t11.5 -10q16 -30 47 -50.5t89 -20.5q15 0 37 3t42.5 11t34.5 22.5t14 37.5q0 18 -16 32t-55 24l-99 26q-66 18 -97 48.5t-31 77.5q0 60 33.5 100.5t88 61.5t116.5 21q75 0 124.5 -29t73.5 -71
q3 -5 2.5 -10t-7.5 -9l-56 -26q-7 -3 -11.5 -1t-12.5 11q-15 23 -44 38t-72 15q-26 0 -52.5 -7t-44.5 -22.5t-18 -40.5q0 -16 11 -27.5t44 -22.5l114 -30q67 -17 97 -53.5t30 -83.5q0 -46 -21.5 -80t-56.5 -56.5t-78.5 -33.5t-86.5 -11v0zM449 680q2 -8 0 -12.5t-13 -7.5
l-239 -66q-10 -2 -15 2t-6 12l-7 30q-3 14 4 16l248 96q5 3 9 0.5t6 -10.5z" />
    <glyph glyph-name="Scircumflex" unicode="&#x15c;" horiz-adv-x="665" 
d="M545 586q-21 24 -58.5 42.5t-94.5 18.5q-44 0 -78.5 -13.5t-54 -38.5t-19.5 -59q0 -17 8.5 -31.5t26.5 -27t44 -22.5l147 -51q77 -26 113 -66.5t36 -99.5q0 -80 -42 -135.5t-113.5 -84t-159.5 -28.5q-103 0 -171.5 35t-103.5 99q-4 8 -4 14t8 10l65 40q11 7 19 4t14 -11
q23 -29 45.5 -49.5t55 -30.5t84.5 -10q44 0 80 11.5t57 36.5t21 65q0 27 -19 46.5t-65 35.5l-145 51q-72 24 -106.5 69.5t-34.5 101.5t24 100.5t65 77t95 49.5t115 17q57 0 103.5 -14t81.5 -38t58 -54q6 -8 6.5 -13t-5.5 -9l-76 -51q-4 -2 -9.5 1.5t-12.5 11.5v0zM439 891
q-7 9 -10.5 8.5t-13.5 -9.5l-63 -53q-6 -6 -10.5 -7.5t-11.5 -1.5h-74q-8 0 -8.5 5.5t4.5 9.5l122 107q7 6 13.5 8t17.5 2h61q9 0 13 -5t8 -9l91 -106q6 -7 4 -9.5t-10 -2.5h-72q-7 0 -11 3t-8 8z" />
    <glyph glyph-name="scircumflex" unicode="&#x15d;" horiz-adv-x="524" 
d="M231 -10q-92 0 -149.5 34t-77.5 81q-7 14 5 20l57 28q8 4 14.5 3t11.5 -10q16 -30 47 -50.5t89 -20.5q15 0 37 3t42.5 11t34.5 22.5t14 37.5q0 18 -16 32t-55 24l-99 26q-66 18 -97 48.5t-31 77.5q0 60 33.5 100.5t88 61.5t116.5 21q75 0 124.5 -29t73.5 -71
q3 -5 2.5 -10t-7.5 -9l-56 -26q-7 -3 -11.5 -1t-12.5 11q-15 23 -44 38t-72 15q-26 0 -52.5 -7t-44.5 -22.5t-18 -40.5q0 -16 11 -27.5t44 -22.5l114 -30q67 -17 97 -53.5t30 -83.5q0 -46 -21.5 -80t-56.5 -56.5t-78.5 -33.5t-86.5 -11v0zM324 679q-7 9 -10.5 8.5
t-13.5 -9.5l-63 -53q-6 -6 -10.5 -7.5t-11.5 -1.5h-74q-8 0 -8.5 5.5t4.5 9.5l122 107q7 6 13.5 8t17.5 2h61q9 0 13 -5t8 -9l91 -106q6 -7 4 -9.5t-10 -2.5h-72q-7 0 -11 3t-8 8z" />
    <glyph glyph-name="Scedilla" unicode="&#x15e;" horiz-adv-x="665" 
d="M545 586q-21 24 -58.5 42.5t-94.5 18.5q-44 0 -78.5 -13.5t-54 -38.5t-19.5 -59q0 -17 8.5 -31.5t26.5 -27t44 -22.5l147 -51q77 -26 113 -66.5t36 -99.5q0 -80 -42 -135.5t-113.5 -84t-159.5 -28.5q-103 0 -171.5 35t-103.5 99q-4 8 -4 14t8 10l65 40q11 7 19 4t14 -11
q23 -29 45.5 -49.5t55 -30.5t84.5 -10q44 0 80 11.5t57 36.5t21 65q0 27 -19 46.5t-65 35.5l-145 51q-72 24 -106.5 69.5t-34.5 101.5t24 100.5t65 77t95 49.5t115 17q57 0 103.5 -14t81.5 -38t58 -54q6 -8 6.5 -13t-5.5 -9l-76 -51q-4 -2 -9.5 1.5t-12.5 11.5v0zM394 -141
q-5 -37 -41.5 -56t-82.5 -19q-30 0 -55.5 7t-44.5 20q-5 1 -7.5 4.5t-1.5 6.5l18 32q2 4 4 1t3 -6q14 -6 30 -11t34 -5q28 0 45 11.5t19 29.5q3 18 -13.5 27t-60.5 9q-8 0 -11.5 3.5t-1.5 8.5l50 83h61l-28 -57q-2 -3 -3 -3t1 0q36 -1 55.5 -14.5t26.5 -32.5t4 -39v0z" />
    <glyph glyph-name="scedilla" unicode="&#x15f;" horiz-adv-x="524" 
d="M231 -10q-92 0 -149.5 34t-77.5 81q-7 14 5 20l57 28q8 4 14.5 3t11.5 -10q16 -30 47 -50.5t89 -20.5q15 0 37 3t42.5 11t34.5 22.5t14 37.5q0 18 -16 32t-55 24l-99 26q-66 18 -97 48.5t-31 77.5q0 60 33.5 100.5t88 61.5t116.5 21q75 0 124.5 -29t73.5 -71
q3 -5 2.5 -10t-7.5 -9l-56 -26q-7 -3 -11.5 -1t-12.5 11q-15 23 -44 38t-72 15q-26 0 -52.5 -7t-44.5 -22.5t-18 -40.5q0 -16 11 -27.5t44 -22.5l114 -30q67 -17 97 -53.5t30 -83.5q0 -46 -21.5 -80t-56.5 -56.5t-78.5 -33.5t-86.5 -11v0zM309 -141q-5 -37 -41.5 -56
t-82.5 -19q-30 0 -55.5 7t-44.5 20q-5 1 -7.5 4.5t-1.5 6.5l18 32q2 4 4 1t3 -6q14 -6 30 -11t34 -5q28 0 45 11.5t19 29.5q3 18 -13.5 27t-60.5 9q-8 0 -11.5 3.5t-1.5 8.5l50 83h61l-28 -57q-2 -3 -3 -3t1 0q36 -1 55.5 -14.5t26.5 -32.5t4 -39v0z" />
    <glyph glyph-name="Scaron" unicode="&#x160;" horiz-adv-x="665" 
d="M545 586q-21 24 -58.5 42.5t-94.5 18.5q-44 0 -78.5 -13.5t-54 -38.5t-19.5 -59q0 -17 8.5 -31.5t26.5 -27t44 -22.5l147 -51q77 -26 113 -66.5t36 -99.5q0 -80 -42 -135.5t-113.5 -84t-159.5 -28.5q-103 0 -171.5 35t-103.5 99q-4 8 -4 14t8 10l65 40q11 7 19 4t14 -11
q23 -29 45.5 -49.5t55 -30.5t84.5 -10q44 0 80 11.5t57 36.5t21 65q0 27 -19 46.5t-65 35.5l-145 51q-72 24 -106.5 69.5t-34.5 101.5t24 100.5t65 77t95 49.5t115 17q57 0 103.5 -14t81.5 -38t58 -54q6 -8 6.5 -13t-5.5 -9l-76 -51q-4 -2 -9.5 1.5t-12.5 11.5v0zM495 950
q6 5 10.5 5h11.5h77q9 0 10.5 -5t-6.5 -13l-120 -106q-5 -4 -10 -6t-14 -2h-61q-11 0 -17 4.5t-10 10.5l-93 105q-5 6 -6 9t6 3h72q8 0 12 -2.5t7 -8.5l47 -52q10 -11 14 -7.5t14 13.5l56 52v0z" />
    <glyph glyph-name="scaron" unicode="&#x161;" horiz-adv-x="524" 
d="M231 -10q-92 0 -149.5 34t-77.5 81q-7 14 5 20l57 28q8 4 14.5 3t11.5 -10q16 -30 47 -50.5t89 -20.5q15 0 37 3t42.5 11t34.5 22.5t14 37.5q0 18 -16 32t-55 24l-99 26q-66 18 -97 48.5t-31 77.5q0 60 33.5 100.5t88 61.5t116.5 21q75 0 124.5 -29t73.5 -71
q3 -5 2.5 -10t-7.5 -9l-56 -26q-7 -3 -11.5 -1t-12.5 11q-15 23 -44 38t-72 15q-26 0 -52.5 -7t-44.5 -22.5t-18 -40.5q0 -16 11 -27.5t44 -22.5l114 -30q67 -17 97 -53.5t30 -83.5q0 -46 -21.5 -80t-56.5 -56.5t-78.5 -33.5t-86.5 -11v0zM379 738q6 5 10.5 5h11.5h77
q9 0 10.5 -5t-6.5 -13l-120 -106q-5 -4 -10 -6t-14 -2h-61q-11 0 -17 4.5t-10 10.5l-93 105q-5 6 -6 9t6 3h72q8 0 12 -2.5t7 -8.5l47 -52q10 -11 14 -7.5t14 13.5l56 52v0z" />
    <glyph glyph-name="uni0162" unicode="&#x162;" horiz-adv-x="669" 
d="M102 730q1 7 4 9.5t12 2.5h568q9 0 11 -3t0 -10l-12 -84q-1 -6 -4.5 -8.5t-10.5 -2.5h-192q-8 0 -11 -3t-5 -10l-85 -606q-1 -9 -4.5 -12t-10.5 -3h-118q-10 0 -13 4.5t-1 14.5l85 603q1 12 -10 12h-202q-15 0 -13 12zM392 -141q-5 -37 -41.5 -56t-82.5 -19
q-30 0 -55.5 7t-44.5 20q-5 1 -7.5 4.5t-1.5 6.5l18 32q2 4 4 1t3 -6q14 -6 30 -11t34 -5q28 0 45 11.5t19 29.5q3 18 -13.5 27t-60.5 9q-8 0 -11.5 3.5t-1.5 8.5l50 83h61l-28 -57q-2 -3 -3 -3t1 0q36 -1 55.5 -14.5t26.5 -32.5t4 -39v0z" />
    <glyph glyph-name="uni0163" unicode="&#x163;" horiz-adv-x="417" 
d="M225 0q-61 0 -95 26.5t-34 76.5q0 7 0.5 14t1.5 14l42 297q1 7 -3 9t-10 2h-69q-12 0 -10 19l9 63q2 6 4.5 7.5t9.5 1.5h74q5 0 9 4t5 10l35 154q3 12 17 12h89q6 0 9 -4.5t1 -16.5l-22 -148q-1 -5 2 -7.5t7 -2.5h110q7 0 12 -3t3 -10l-9 -68q-1 -7 -4 -9t-12 -2h-113
q-12 0 -15 -14l-37 -268q-1 -6 -1.5 -11t-0.5 -10q0 -26 14 -35t43 -9h58q7 0 11 -5.5t3 -12.5l-8 -52q-2 -16 -16 -18q-15 -1 -35.5 -2t-40.5 -1.5t-34 -0.5v0zM304 -141q-5 -37 -41.5 -56t-82.5 -19q-30 0 -55.5 7t-44.5 20q-5 1 -7.5 4.5t-1.5 6.5l18 32q2 4 4 1t3 -6
q14 -6 30 -11t34 -5q28 0 45 11.5t19 29.5q3 18 -13.5 27t-60.5 9q-8 0 -11.5 3.5t-1.5 8.5l50 83h61l-28 -57q-2 -3 -3 -3t1 0q36 -1 55.5 -14.5t26.5 -32.5t4 -39v0z" />
    <glyph glyph-name="Tcaron" unicode="&#x164;" horiz-adv-x="669" 
d="M102 730q1 7 4 9.5t12 2.5h568q9 0 11 -3t0 -10l-12 -84q-1 -6 -4.5 -8.5t-10.5 -2.5h-192q-8 0 -11 -3t-5 -10l-85 -606q-1 -9 -4.5 -12t-10.5 -3h-118q-10 0 -13 4.5t-1 14.5l85 603q1 12 -10 12h-202q-15 0 -13 12zM495 950q6 5 10.5 5h11.5h77q9 0 10.5 -5t-6.5 -13
l-120 -106q-5 -4 -10 -6t-14 -2h-61q-11 0 -17 4.5t-10 10.5l-93 105q-5 6 -6 9t6 3h72q8 0 12 -2.5t7 -8.5l47 -52q10 -11 14 -7.5t14 13.5l56 52v0z" />
    <glyph glyph-name="tcaron" unicode="&#x165;" horiz-adv-x="474" 
d="M225 0q-61 0 -95 26.5t-34 76.5q0 7 0.5 14t1.5 14l42 297q1 7 -3 9t-10 2h-69q-12 0 -10 19l9 63q2 6 4.5 7.5t9.5 1.5h74q5 0 9 4t5 10l35 154q3 12 17 12h89q6 0 9 -4.5t1 -16.5l-22 -148q-1 -5 2 -7.5t7 -2.5h110q7 0 12 -3t3 -10l-9 -68q-1 -7 -4 -9t-12 -2h-113
q-12 0 -15 -14l-37 -268q-1 -6 -1.5 -11t-0.5 -10q0 -26 14 -35t43 -9h58q7 0 11 -5.5t3 -12.5l-8 -52q-2 -16 -16 -18q-15 -1 -35.5 -2t-40.5 -1.5t-34 -0.5v0zM404 574q-6 0 -8.5 5.5t-1.5 9.5l42 74l5 10t-5 3l-8 1q-8 1 -12 5.5t-3 11.5l13 87q1 6 2.5 7t5.5 1h74
q4 0 7.5 -4.5t2.5 -9.5l-14 -102l-2 -4t-1 -3l-47 -84q-3 -6 -7.5 -7t-14.5 -1h-28v0z" />
    <glyph glyph-name="Tbar" unicode="&#x166;" horiz-adv-x="669" 
d="M553 332q-1 -11 -6 -13.5t-18 -2.5h-363q-11 0 -15 6t-3 16l9 62q1 9 3 11t9 2h380q6 0 10 -5.5t3 -12.5zM102 730q1 7 4 9.5t12 2.5h568q9 0 11 -3t0 -10l-12 -84q-1 -6 -4.5 -8.5t-10.5 -2.5h-192q-8 0 -11 -3t-5 -10l-85 -606q-1 -9 -4.5 -12t-10.5 -3h-118
q-10 0 -13 4.5t-1 14.5l85 603q1 12 -10 12h-202q-15 0 -13 12z" />
    <glyph glyph-name="tbar" unicode="&#x167;" horiz-adv-x="417" 
d="M356 266q-1 -9 -5.5 -11.5t-14.5 -2.5h-273q-9 0 -13 6t-3 14l7 45q1 8 3 9.5t7 1.5h286q6 0 10 -5.5t2 -11.5zM225 0q-61 0 -95 26.5t-34 76.5q0 7 0.5 14t1.5 14l42 297q1 7 -3 9t-10 2h-69q-12 0 -10 19l9 63q2 6 4.5 7.5t9.5 1.5h74q5 0 9 4t5 10l35 154q3 12 17 12
h89q6 0 9 -4.5t1 -16.5l-22 -148q-1 -5 2 -7.5t7 -2.5h110q7 0 12 -3t3 -10l-9 -68q-1 -7 -4 -9t-12 -2h-113q-12 0 -15 -14l-37 -268q-1 -6 -1.5 -11t-0.5 -10q0 -26 14 -35t43 -9h58q7 0 11 -5.5t3 -12.5l-8 -52q-2 -16 -16 -18q-15 -1 -35.5 -2t-40.5 -1.5t-34 -0.5v0z
" />
    <glyph glyph-name="Utilde" unicode="&#x168;" horiz-adv-x="717" 
d="M646 262q-14 -100 -56 -160t-109 -86t-156 -26q-136 0 -197 56.5t-61 165.5q0 17 2 36t4 39l63 441q1 9 4 11.5t9 2.5h119q8 0 12 -6t2 -14l-65 -464q-1 -12 -2 -22.5t-1 -21.5q0 -61 32.5 -88.5t93.5 -27.5q49 0 87.5 17.5t63.5 55t33 97.5l65 461q2 8 4 10.5t9 2.5h95
q7 0 11 -6t3 -14l-65 -460v0zM617 868q-16 -7 -38.5 -14t-49.5 -7q-28 0 -50.5 7.5l-42 14t-43.5 6.5t-37.5 -9t-32.5 -18q-8 -3 -12 1t-6 13l-8 37q-1 7 -3 12.5t7 11.5q19 12 39 20t48 8q29 0 53 -7t45.5 -15t42.5 -8q15 0 27 5.5t22.5 12.5t20.5 10q9 2 14.5 -2.5
t6.5 -12.5l5 -44q1 -6 1 -12.5t-9 -9.5v0z" />
    <glyph glyph-name="utilde" unicode="&#x169;" horiz-adv-x="588" 
d="M179 -10q-63 0 -101.5 36.5t-38.5 97.5q0 7 0.5 14.5t1.5 13.5l50 361q2 10 6.5 13.5t14.5 3.5h92q10 0 14 -6t3 -16l-48 -340q-1 -5 -1.5 -10t-0.5 -9q0 -33 18 -48.5t48 -15.5q38 0 73 20.5t68 51.5l52 357q1 10 6 13t16 3h90q10 0 15 -6t3 -16l-72 -495
q-1 -8 -3 -10.5t-10 -2.5h-98q-6 0 -10 3t-3 10l8 51q1 6 -2.5 6.5t-10.5 -4.5q-51 -43 -94 -59.5t-86 -16.5v0zM503 656q-16 -7 -38.5 -14t-49.5 -7q-28 0 -50.5 7.5l-42 14t-43.5 6.5t-37.5 -9t-32.5 -18q-8 -3 -12 1t-6 13l-8 37q-1 7 -3 12.5t7 11.5q19 12 39 20t48 8
q29 0 53 -7t45.5 -15t42.5 -8q15 0 27 5.5t22.5 12.5t20.5 10q9 2 14.5 -2.5t6.5 -12.5l5 -44q1 -6 1 -12.5t-9 -9.5v0z" />
    <glyph glyph-name="Umacron" unicode="&#x16a;" horiz-adv-x="717" 
d="M646 262q-14 -100 -56 -160t-109 -86t-156 -26q-136 0 -197 56.5t-61 165.5q0 17 2 36t4 39l63 441q1 9 4 11.5t9 2.5h119q8 0 12 -6t2 -14l-65 -464q-1 -12 -2 -22.5t-1 -21.5q0 -61 32.5 -88.5t93.5 -27.5q49 0 87.5 17.5t63.5 55t33 97.5l65 461q2 8 4 10.5t9 2.5h95
q7 0 11 -6t3 -14l-65 -460v0zM626 873q-1 -9 -5 -11.5t-15 -2.5h-305q-9 0 -13 6t-3 14l8 56q1 7 3 8.5t7 1.5h319q5 0 9 -5.5t3 -10.5z" />
    <glyph glyph-name="umacron" unicode="&#x16b;" horiz-adv-x="588" 
d="M179 -10q-63 0 -101.5 36.5t-38.5 97.5q0 7 0.5 14.5t1.5 13.5l50 361q2 10 6.5 13.5t14.5 3.5h92q10 0 14 -6t3 -16l-48 -340q-1 -5 -1.5 -10t-0.5 -9q0 -33 18 -48.5t48 -15.5q38 0 73 20.5t68 51.5l52 357q1 10 6 13t16 3h90q10 0 15 -6t3 -16l-72 -495
q-1 -8 -3 -10.5t-10 -2.5h-98q-6 0 -10 3t-3 10l8 51q1 6 -2.5 6.5t-10.5 -4.5q-51 -43 -94 -59.5t-86 -16.5v0zM512 661q-1 -9 -5 -11.5t-15 -2.5h-305q-9 0 -13 6t-3 14l8 56q1 7 3 8.5t7 1.5h319q5 0 9 -5.5t3 -10.5z" />
    <glyph glyph-name="Ubreve" unicode="&#x16c;" horiz-adv-x="717" 
d="M646 262q-14 -100 -56 -160t-109 -86t-156 -26q-136 0 -197 56.5t-61 165.5q0 17 2 36t4 39l63 441q1 9 4 11.5t9 2.5h119q8 0 12 -6t2 -14l-65 -464q-1 -12 -2 -22.5t-1 -21.5q0 -61 32.5 -88.5t93.5 -27.5q49 0 87.5 17.5t63.5 55t33 97.5l65 461q2 8 4 10.5t9 2.5h95
q7 0 11 -6t3 -14l-65 -460v0zM614 954q9 0 11.5 -7t-1.5 -16q-15 -29 -42 -52.5t-61.5 -36t-76.5 -12.5t-75 11.5t-53 35.5t-25 60q-1 6 1 11.5t11 5.5h56q7 0 9.5 -5t8.5 -13q7 -8 16.5 -17.5t23 -15t31.5 -5.5q30 0 54 13.5t39 33.5q4 5 9 7t9 2h55v0z" />
    <glyph glyph-name="ubreve" unicode="&#x16d;" horiz-adv-x="588" 
d="M179 -10q-63 0 -101.5 36.5t-38.5 97.5q0 7 0.5 14.5t1.5 13.5l50 361q2 10 6.5 13.5t14.5 3.5h92q10 0 14 -6t3 -16l-48 -340q-1 -5 -1.5 -10t-0.5 -9q0 -33 18 -48.5t48 -15.5q38 0 73 20.5t68 51.5l52 357q1 10 6 13t16 3h90q10 0 15 -6t3 -16l-72 -495
q-1 -8 -3 -10.5t-10 -2.5h-98q-6 0 -10 3t-3 10l8 51q1 6 -2.5 6.5t-10.5 -4.5q-51 -43 -94 -59.5t-86 -16.5v0zM500 742q9 0 11.5 -7t-1.5 -16q-15 -29 -42 -52.5t-61.5 -36t-76.5 -12.5t-75 11.5t-53 35.5t-25 60q-1 6 1 11.5t11 5.5h56q7 0 9.5 -5t8.5 -13
q7 -8 16.5 -17.5t23 -15t31.5 -5.5q30 0 54 13.5t39 33.5q4 5 9 7t9 2h55v0z" />
    <glyph glyph-name="Uring" unicode="&#x16e;" horiz-adv-x="717" 
d="M646 262q-14 -100 -56 -160t-109 -86t-156 -26q-136 0 -197 56.5t-61 165.5q0 17 2 36t4 39l63 441q1 9 4 11.5t9 2.5h119q8 0 12 -6t2 -14l-65 -464q-1 -12 -2 -22.5t-1 -21.5q0 -61 32.5 -88.5t93.5 -27.5q49 0 87.5 17.5t63.5 55t33 97.5l65 461q2 8 4 10.5t9 2.5h95
q7 0 11 -6t3 -14l-65 -460v0zM557 843q-7 -45 -41 -74t-78 -29q-31 0 -55 16t-36 43t-7 60q5 42 40 70t78 28q32 0 56 -15.5t35.5 -41t7.5 -57.5v0zM500 856q3 21 -8.5 33t-31.5 12q-23 0 -43.5 -17t-24.5 -42q-2 -19 10.5 -33t31.5 -14q24 0 43.5 18.5t22.5 42.5v0z" />
    <glyph glyph-name="uring" unicode="&#x16f;" horiz-adv-x="588" 
d="M179 -10q-63 0 -101.5 36.5t-38.5 97.5q0 7 0.5 14.5t1.5 13.5l50 361q2 10 6.5 13.5t14.5 3.5h92q10 0 14 -6t3 -16l-48 -340q-1 -5 -1.5 -10t-0.5 -9q0 -33 18 -48.5t48 -15.5q38 0 73 20.5t68 51.5l52 357q1 10 6 13t16 3h90q10 0 15 -6t3 -16l-72 -495
q-1 -8 -3 -10.5t-10 -2.5h-98q-6 0 -10 3t-3 10l8 51q1 6 -2.5 6.5t-10.5 -4.5q-51 -43 -94 -59.5t-86 -16.5v0zM455 688q-7 -45 -41 -74t-78 -29q-31 0 -55 16t-36 43t-7 60q5 42 40 70t78 28q32 0 56 -15.5t35.5 -41t7.5 -57.5v0zM398 701q3 21 -8.5 33t-31.5 12
q-23 0 -43.5 -17t-24.5 -42q-2 -19 10.5 -33t31.5 -14q24 0 43.5 18.5t22.5 42.5v0z" />
    <glyph glyph-name="Uhungarumlaut" unicode="&#x170;" horiz-adv-x="717" 
d="M646 262q-14 -100 -56 -160t-109 -86t-156 -26q-136 0 -197 56.5t-61 165.5q0 17 2 36t4 39l63 441q1 9 4 11.5t9 2.5h119q8 0 12 -6t2 -14l-65 -464q-1 -12 -2 -22.5t-1 -21.5q0 -61 32.5 -88.5t93.5 -27.5q49 0 87.5 17.5t63.5 55t33 97.5l65 461q2 8 4 10.5t9 2.5h95
q7 0 11 -6t3 -14l-65 -460v0zM479 909q4 -7 5.5 -13t-8.5 -13l-149 -97q-9 -5 -13.5 -3.5t-9.5 6.5l-19 25q-4 6 -5.5 12.5t1.5 8.5l146 124q6 4 11.5 2t8.5 -7zM663 909q5 -7 6.5 -13t-9.5 -13l-148 -97q-9 -5 -13.5 -3.5t-9.5 6.5l-19 25q-4 6 -5.5 12.5t1.5 8.5l146 124
q6 4 11.5 2t8.5 -7z" />
    <glyph glyph-name="uhungarumlaut" unicode="&#x171;" horiz-adv-x="588" 
d="M179 -10q-63 0 -101.5 36.5t-38.5 97.5q0 7 0.5 14.5t1.5 13.5l50 361q2 10 6.5 13.5t14.5 3.5h92q10 0 14 -6t3 -16l-48 -340q-1 -5 -1.5 -10t-0.5 -9q0 -33 18 -48.5t48 -15.5q38 0 73 20.5t68 51.5l52 357q1 10 6 13t16 3h90q10 0 15 -6t3 -16l-72 -495
q-1 -8 -3 -10.5t-10 -2.5h-98q-6 0 -10 3t-3 10l8 51q1 6 -2.5 6.5t-10.5 -4.5q-51 -43 -94 -59.5t-86 -16.5v0zM365 697q4 -7 5.5 -13t-8.5 -13l-149 -97q-9 -5 -13.5 -3.5t-9.5 6.5l-19 25q-4 6 -5.5 12.5t1.5 8.5l146 124q6 4 11.5 2t8.5 -7zM549 697q5 -7 6.5 -13
t-9.5 -13l-148 -97q-9 -5 -13.5 -3.5t-9.5 6.5l-19 25q-4 6 -5.5 12.5t1.5 8.5l146 124q6 4 11.5 2t8.5 -7z" />
    <glyph glyph-name="Uogonek" unicode="&#x172;" horiz-adv-x="717" 
d="M646 262q-14 -100 -56 -160t-109 -86t-156 -26q-136 0 -197 56.5t-61 165.5q0 17 2 36t4 39l63 441q1 9 4 11.5t9 2.5h119q8 0 12 -6t2 -14l-65 -464q-1 -12 -2 -22.5t-1 -21.5q0 -61 32.5 -88.5t93.5 -27.5q49 0 87.5 17.5t63.5 55t33 97.5l65 461q2 8 4 10.5t9 2.5h95
q7 0 11 -6t3 -14l-65 -460v0zM226 -82q2 18 12.5 33t33.5 29.5t65 27.5l95 -6q-56 -20 -81 -39.5t-28 -43.5q-2 -15 6 -23t27 -8q22 0 38 6t27 10q7 4 10.5 0.5t2.5 -10.5l-5 -38q-1 -5 -3.5 -9.5t-6.5 -5.5q-15 -5 -39.5 -9t-52.5 -4q-54 0 -80.5 23.5t-20.5 66.5v0z" />
    <glyph glyph-name="uogonek" unicode="&#x173;" horiz-adv-x="588" 
d="M179 -10q-63 0 -101.5 36.5t-38.5 97.5q0 7 0.5 14.5t1.5 13.5l50 361q2 10 6.5 13.5t14.5 3.5h92q10 0 14 -6t3 -16l-48 -340q-1 -5 -1.5 -10t-0.5 -9q0 -33 18 -48.5t48 -15.5q38 0 73 20.5t68 51.5l52 357q1 10 6 13t16 3h90q10 0 15 -6t3 -16l-72 -495
q-1 -8 -3 -10.5t-10 -2.5h-98q-6 0 -10 3t-3 10l8 51q1 6 -2.5 6.5t-10.5 -4.5q-51 -43 -94 -59.5t-86 -16.5v0zM280 -81q2 18 12.5 33t33.5 29.5t65 27.5l95 -6q-56 -20 -81 -39.5t-28 -43.5q-2 -15 6 -23t27 -8q22 0 38 6t27 10q7 4 10.5 0.5t2.5 -10.5l-5 -38
q-1 -5 -3.5 -9.5t-6.5 -5.5q-15 -5 -39.5 -9t-52.5 -4q-54 0 -80.5 23.5t-20.5 66.5v0z" />
    <glyph glyph-name="Wcircumflex" unicode="&#x174;" horiz-adv-x="1071" 
d="M1086 742q14 0 15.5 -6.5t-5.5 -23.5l-303 -696q-5 -10 -10.5 -13t-17.5 -3h-91q-12 0 -18.5 3.5t-7.5 13.5l-72 483q-1 7 -3 6.5t-6 -6.5l-209 -484q-4 -10 -9.5 -13t-17.5 -3h-96q-22 0 -25 18l-106 700q-2 12 2 18t17 6h105q12 0 16.5 -5t5.5 -14l71 -495
q2 -10 4.5 -10t6.5 9l214 503q3 8 7.5 10t16.5 2h92q12 0 15 -5t4 -14l73 -501q1 -6 4.5 -6t6.5 9l212 505q3 8 7.5 10t15.5 2h86v0zM637 891q-7 9 -10.5 8.5t-13.5 -9.5l-63 -53q-6 -6 -10.5 -7.5t-11.5 -1.5h-74q-8 0 -8.5 5.5t4.5 9.5l122 107q7 6 13.5 8t17.5 2h61
q9 0 13 -5t8 -9l91 -106q6 -7 4 -9.5t-10 -2.5h-72q-7 0 -11 3t-8 8z" />
    <glyph glyph-name="wcircumflex" unicode="&#x175;" horiz-adv-x="811" 
d="M806 530q9 0 13 -8t1 -15l-230 -495q-3 -9 -7 -10.5t-13 -1.5h-70q-22 0 -23 20l-55 309q-2 10 -5.5 6.5t-7.5 -13.5l-141 -310q-3 -9 -6.5 -10.5t-13.5 -1.5h-73q-21 0 -22 20l-92 493q-3 17 13 17h98q7 0 12.5 -5.5t5.5 -12.5l56 -319q2 -10 6 -6.5t8 13.5l144 319
q4 11 18 11h71q7 0 12.5 -5.5t5.5 -12.5l56 -319q1 -10 5 -6.5t8 13.5l142 319q7 11 20 11h64v0zM477 679q-7 9 -10.5 8.5t-13.5 -9.5l-63 -53q-6 -6 -10.5 -7.5t-11.5 -1.5h-74q-8 0 -8.5 5.5t4.5 9.5l122 107q7 6 13.5 8t17.5 2h61q9 0 13 -5t8 -9l91 -106q6 -7 4 -9.5
t-10 -2.5h-72q-7 0 -11 3t-8 8z" />
    <glyph glyph-name="Ycircumflex" unicode="&#x176;" horiz-adv-x="715" 
d="M736 742q10 0 12 -6t-3 -13l-293 -392q-6 -7 -9 -16t-6 -30l-38 -267q-2 -12 -7 -15t-18 -3h-108q-11 0 -13.5 4.5t-1.5 14.5l39 276q2 12 1.5 18t-4.5 15l-183 396q-5 9 -3 13.5t14 4.5h124q11 0 15.5 -5t8.5 -14l122 -281q6 -15 16 0l204 288q6 8 10.5 10t15.5 2h105v0
zM464 891q-7 9 -10.5 8.5t-13.5 -9.5l-63 -53q-6 -6 -10.5 -7.5t-11.5 -1.5h-74q-8 0 -8.5 5.5t4.5 9.5l122 107q7 6 13.5 8t17.5 2h61q9 0 13 -5t8 -9l91 -106q6 -7 4 -9.5t-10 -2.5h-72q-7 0 -11 3t-8 8z" />
    <glyph glyph-name="ycircumflex" unicode="&#x177;" horiz-adv-x="554" 
d="M39 -165q-28 0 -41 3.5t-11 14.5l8 64q1 6 9.5 10t25.5 4h64q20 0 37.5 10t30 26t18 33t1.5 30l-126 475q-6 25 13 25h114q14 0 16 -11l78 -330q3 -11 8.5 -10.5t11.5 12.5l166 321q5 10 10.5 14t12.5 4h73q16 0 6 -17l-285 -526q-25 -46 -50 -75.5t-53 -46t-61 -23.5
t-76 -7v0zM365 679q-7 9 -10.5 8.5t-13.5 -9.5l-63 -53q-6 -6 -10.5 -7.5t-11.5 -1.5h-74q-8 0 -8.5 5.5t4.5 9.5l122 107q7 6 13.5 8t17.5 2h61q9 0 13 -5t8 -9l91 -106q6 -7 4 -9.5t-10 -2.5h-72q-7 0 -11 3t-8 8z" />
    <glyph glyph-name="Ydieresis" unicode="&#x178;" horiz-adv-x="715" 
d="M736 742q10 0 12 -6t-3 -13l-293 -392q-6 -7 -9 -16t-6 -30l-38 -267q-2 -12 -7 -15t-18 -3h-108q-11 0 -13.5 4.5t-1.5 14.5l39 276q2 12 1.5 18t-4.5 15l-183 396q-5 9 -3 13.5t14 4.5h124q11 0 15.5 -5t8.5 -14l122 -281q6 -15 16 0l204 288q6 8 10.5 10t15.5 2h105v0
zM412 846q-1 -11 -5 -13t-16 -2h-79q-10 0 -14 5.5t-3 14.5l13 91q1 8 3.5 10t8.5 2h92q7 0 10.5 -5.5t2.5 -12.5zM596 846q-1 -11 -5 -13t-16 -2h-80q-10 0 -13.5 5.5t-2.5 14.5l12 91q2 8 4 10t8 2h92q7 0 11 -5.5t2 -12.5z" />
    <glyph glyph-name="Zacute" unicode="&#x179;" horiz-adv-x="664" 
d="M23 0q-11 0 -15.5 4t-3.5 14l5 35q1 10 4.5 17t12.5 18l433 535q5 6 5.5 7.5t-7.5 1.5h-326q-17 0 -15 20l11 79q2 7 4 9t8 2h538q12 0 10 -15l-5 -39q-1 -8 -3.5 -13t-9.5 -15l-443 -541q-8 -8 1 -8h357q8 0 10.5 -2.5t1.5 -9.5l-13 -87q-1 -7 -3.5 -9.5t-11.5 -2.5
h-545v0zM568 892q2 -8 0 -12.5t-13 -7.5l-239 -66q-10 -2 -15 2t-6 12l-7 30q-3 14 4 16l248 96q5 3 9 0.5t6 -10.5z" />
    <glyph glyph-name="zacute" unicode="&#x17a;" horiz-adv-x="506" 
d="M6 0q-10 0 -13 3.5t-1 13.5l4 32q2 11 6.5 18t15.5 20l310 343q5 7 3.5 11.5t-12.5 4.5h-233q-8 0 -10 4.5t-1 13.5l8 53q2 7 7 10t11 3h398q11 0 10 -12l-6 -38q-1 -8 -6 -15.5t-13 -16.5l-312 -346q-6 -7 -3 -12t10 -5h259q14 0 11 -14l-7 -56q-1 -6 -4.5 -10.5
t-12.5 -4.5h-419v0zM459 680q2 -8 0 -12.5t-13 -7.5l-239 -66q-10 -2 -15 2t-6 12l-7 30q-3 14 4 16l248 96q5 3 9 0.5t6 -10.5z" />
    <glyph glyph-name="Zdotaccent" unicode="&#x17b;" horiz-adv-x="664" 
d="M23 0q-11 0 -15.5 4t-3.5 14l5 35q1 10 4.5 17t12.5 18l433 535q5 6 5.5 7.5t-7.5 1.5h-326q-17 0 -15 20l11 79q2 7 4 9t8 2h538q12 0 10 -15l-5 -39q-1 -8 -3.5 -13t-9.5 -15l-443 -541q-8 -8 1 -8h357q8 0 10.5 -2.5t1.5 -9.5l-13 -87q-1 -7 -3.5 -9.5t-11.5 -2.5
h-545v0zM490 834q-2 -11 -7 -14t-18 -3h-91q-11 0 -15 6.5t-3 15.5l14 102q2 8 4 10.5t10 2.5h105q7 0 11.5 -6t2.5 -14z" />
    <glyph glyph-name="zdotaccent" unicode="&#x17c;" horiz-adv-x="506" 
d="M6 0q-10 0 -13 3.5t-1 13.5l4 32q2 11 6.5 18t15.5 20l310 343q5 7 3.5 11.5t-12.5 4.5h-233q-8 0 -10 4.5t-1 13.5l8 53q2 7 7 10t11 3h398q11 0 10 -12l-6 -38q-1 -8 -6 -15.5t-13 -16.5l-312 -346q-6 -7 -3 -12t10 -5h259q14 0 11 -14l-7 -56q-1 -6 -4.5 -10.5
t-12.5 -4.5h-419v0zM381 622q-2 -11 -7 -14t-18 -3h-91q-11 0 -15 6.5t-3 15.5l14 102q2 8 4 10.5t10 2.5h105q7 0 11.5 -6t2.5 -14z" />
    <glyph glyph-name="Zcaron" unicode="&#x17d;" horiz-adv-x="664" 
d="M23 0q-11 0 -15.5 4t-3.5 14l5 35q1 10 4.5 17t12.5 18l433 535q5 6 5.5 7.5t-7.5 1.5h-326q-17 0 -15 20l11 79q2 7 4 9t8 2h538q12 0 10 -15l-5 -39q-1 -8 -3.5 -13t-9.5 -15l-443 -541q-8 -8 1 -8h357q8 0 10.5 -2.5t1.5 -9.5l-13 -87q-1 -7 -3.5 -9.5t-11.5 -2.5
h-545v0zM498 950q6 5 10.5 5h11.5h77q9 0 10.5 -5t-6.5 -13l-120 -106q-5 -4 -10 -6t-14 -2h-61q-11 0 -17 4.5t-10 10.5l-93 105q-5 6 -6 9t6 3h72q8 0 12 -2.5t7 -8.5l47 -52q10 -11 14 -7.5t14 13.5l56 52v0z" />
    <glyph glyph-name="zcaron" unicode="&#x17e;" horiz-adv-x="506" 
d="M6 0q-10 0 -13 3.5t-1 13.5l4 32q2 11 6.5 18t15.5 20l310 343q5 7 3.5 11.5t-12.5 4.5h-233q-8 0 -10 4.5t-1 13.5l8 53q2 7 7 10t11 3h398q11 0 10 -12l-6 -38q-1 -8 -6 -15.5t-13 -16.5l-312 -346q-6 -7 -3 -12t10 -5h259q14 0 11 -14l-7 -56q-1 -6 -4.5 -10.5
t-12.5 -4.5h-419v0zM389 738q6 5 10.5 5h11.5h77q9 0 10.5 -5t-6.5 -13l-120 -106q-5 -4 -10 -6t-14 -2h-61q-11 0 -17 4.5t-10 10.5l-93 105q-5 6 -6 9t6 3h72q8 0 12 -2.5t7 -8.5l47 -52q10 -11 14 -7.5t14 13.5l56 52v0z" />
    <glyph glyph-name="uni018F" unicode="&#x18f;" horiz-adv-x="769" 
d="M582 427q3 25 3.5 53t-5 55.5t-21.5 50.5t-44 36t-73 13q-38 0 -67.5 -10.5t-51.5 -28t-39 -39t-29.5 -42.5t-24.5 -39q-3 -1 -6.5 1t-10.5 7l-89 43q-12 6 -4 27q17 24 38 51.5t49 53.5t63 47t79 33.5t98 12.5q71 0 123 -20.5t87 -57.5t54.5 -86t24 -105.5t-3.5 -115.5
q-11 -76 -43 -144.5t-82 -120.5t-115.5 -82t-142.5 -30q-89 0 -148.5 29.5t-92.5 83t-42 126.5t3 160q1 9 2.5 12.5t13.5 3.5h477q8 0 13.5 6t6.5 16v0zM236 308q-18 0 -22 -20q-4 -35 -0.5 -69.5t19 -62t44.5 -43.5t75 -16q50 0 86.5 16.5t61 46.5t40 69t24.5 82z" />
    <glyph glyph-name="florin" unicode="&#x192;" horiz-adv-x="491" 
d="M453 530q9 0 12.5 -6t1.5 -13l-19 -63q-3 -7 -7 -8t-10 -1h-94q-4 0 -8.5 -4.5t-6.5 -9.5l-146 -464q-20 -63 -65.5 -97.5t-113.5 -34.5h-88q-9 0 -14 7t-3 15l17 55q4 11 15 11h47q32 1 50.5 18.5t32.5 59.5l138 439q2 4 2.5 4.5t-3.5 0.5h-64q-7 0 -11 5t-2 12l20 63
q2 6 5.5 8.5t12.5 2.5h59q6 0 11 5t7 12l20 65q20 63 66 96.5t112 33.5h95q9 0 13.5 -6.5t2.5 -14.5l-17 -56q-3 -11 -16 -11h-56q-24 0 -47 -20.5t-32 -48.5l-15 -48q-2 -6 -1.5 -6.5t5.5 -0.5h94v0z" />
    <glyph glyph-name="Ohorn" unicode="&#x1a0;" horiz-adv-x="770" 
d="M352 -10q-92 0 -157 35.5t-99.5 103.5t-34.5 163q0 19 1.5 40.5t4.5 42.5q17 119 69 203t132.5 129t180.5 45q90 0 155 -36.5t99.5 -105t34.5 -165.5q0 -19 -1 -40t-5 -43q-16 -117 -67.5 -200.5t-131.5 -127.5t-181 -44v0zM357 96q93 0 147.5 67t75.5 211q4 29 5.5 53.5
t1.5 45.5q0 90 -35 132t-106 42q-93 0 -149 -69.5t-77 -217.5q-4 -26 -6 -50t-2 -44q0 -88 36 -129t109 -41v0zM694 801q8 0 10.5 -7t-1.5 -15q-13 -31 -38 -55t-59 -37.5t-75 -13.5l4 68q30 0 52 14.5t34 36.5q3 6 8 7.5t10 1.5h55v0z" />
    <glyph glyph-name="ohorn" unicode="&#x1a1;" horiz-adv-x="599" 
d="M265 -10q-71 0 -123 29t-80.5 81t-28.5 121q0 70 24 128.5t65.5 101t96 66t115.5 23.5q71 0 123 -30t80 -83t28 -122q0 -91 -40 -162.5t-107.5 -112t-152.5 -40.5v0zM269 79q47 0 85 29.5t60 85t22 135.5q0 60 -26.5 92.5t-77.5 32.5q-47 0 -85 -30t-61 -86t-23 -136
q0 -59 27.5 -91t78.5 -32v0zM553 587q8 0 10.5 -7t-1.5 -15q-13 -31 -38 -55t-59 -37.5t-75 -13.5l4 68q30 0 52 14.5t34 36.5q3 6 8 7.5t10 1.5h55v0z" />
    <glyph glyph-name="Uhorn" unicode="&#x1af;" horiz-adv-x="717" 
d="M646 262q-14 -100 -56 -160t-109 -86t-156 -26q-136 0 -197 56.5t-61 165.5q0 17 2 36t4 39l63 441q1 9 4 11.5t9 2.5h119q8 0 12 -6t2 -14l-65 -464q-1 -12 -2 -22.5t-1 -21.5q0 -61 32.5 -88.5t93.5 -27.5q49 0 87.5 17.5t63.5 55t33 97.5l65 461q2 8 4 10.5t9 2.5h95
q7 0 11 -6t3 -14l-65 -460v0zM820 800q8 0 10.5 -7t-1.5 -15q-13 -31 -38 -55t-59 -37.5t-75 -13.5l4 68q30 0 52 14.5t34 36.5q3 6 8 7.5t10 1.5h55v0z" />
    <glyph glyph-name="uhorn" unicode="&#x1b0;" horiz-adv-x="588" 
d="M179 -10q-63 0 -101.5 36.5t-38.5 97.5q0 7 0.5 14.5t1.5 13.5l50 361q2 10 6.5 13.5t14.5 3.5h92q10 0 14 -6t3 -16l-48 -340q-1 -5 -1.5 -10t-0.5 -9q0 -33 18 -48.5t48 -15.5q38 0 73 20.5t68 51.5l52 357q1 10 6 13t16 3h90q10 0 15 -6t3 -16l-72 -495
q-1 -8 -3 -10.5t-10 -2.5h-98q-6 0 -10 3t-3 10l8 51q1 6 -2.5 6.5t-10.5 -4.5q-51 -43 -94 -59.5t-86 -16.5v0zM655 589q8 0 10.5 -7t-1.5 -15q-13 -31 -38 -55t-59 -37.5t-75 -13.5l4 68q30 0 52 14.5t34 36.5q3 6 8 7.5t10 1.5h55v0z" />
    <glyph glyph-name="DZcaron" unicode="&#x1c4;" horiz-adv-x="1385" 
d="M65 0q-10 0 -15.5 7t-4.5 18l99 703q2 9 5.5 11.5t13.5 2.5h190q121 0 200 -36t118 -102.5t39 -158.5q0 -138 -52.5 -238t-153 -153.5t-243.5 -53.5h-196v0zM275 106q100 0 162 43t91 120.5t29 182.5q0 66 -23 106.5t-68 59t-112 18.5h-61q-14 0 -17 -16l-68 -498
q-1 -8 2 -12t10 -4h55zM744 0q-11 0 -15.5 4t-3.5 14l5 35q1 10 4.5 17t12.5 18l433 535q5 6 5.5 7.5t-7.5 1.5h-326q-17 0 -15 20l11 79q2 7 4 9t8 2h538q12 0 10 -15l-5 -39q-1 -8 -3.5 -13t-9.5 -15l-443 -541q-8 -8 1 -8h357q8 0 10.5 -2.5t1.5 -9.5l-13 -87
q-1 -7 -3.5 -9.5t-11.5 -2.5h-545v0zM1219 950q6 5 10.5 5h11.5h77q9 0 10.5 -5t-6.5 -13l-120 -106q-5 -4 -10 -6t-14 -2h-61q-11 0 -17 4.5t-10 10.5l-93 105q-5 6 -6 9t6 3h72q8 0 12 -2.5t7 -8.5l47 -52q10 -11 14 -7.5t14 13.5l56 52v0z" />
    <glyph glyph-name="Dzcaron" unicode="&#x1c5;" horiz-adv-x="1248" 
d="M65 0q-10 0 -15.5 7t-4.5 18l99 703q2 9 5.5 11.5t13.5 2.5h190q121 0 200 -36t118 -102.5t39 -158.5q0 -138 -52.5 -238t-153 -153.5t-243.5 -53.5h-196v0zM275 106q100 0 162 43t91 120.5t29 182.5q0 66 -23 106.5t-68 59t-112 18.5h-61q-14 0 -17 -16l-68 -498
q-1 -8 2 -12t10 -4h55zM747 0q-10 0 -13 3.5t-1 13.5l4 32q2 11 6.5 18t15.5 20l310 343q5 7 3.5 11.5t-12.5 4.5h-233q-8 0 -10 4.5t-1 13.5l8 53q2 7 7 10t11 3h398q11 0 10 -12l-6 -38q-1 -8 -6 -15.5t-13 -16.5l-312 -346q-6 -7 -3 -12t10 -5h259q14 0 11 -14l-7 -56
q-1 -6 -4.5 -10.5t-12.5 -4.5h-419v0zM1130 738q6 5 10.5 5h11.5h77q9 0 10.5 -5t-6.5 -13l-120 -106q-5 -4 -10 -6t-14 -2h-61q-11 0 -17 4.5t-10 10.5l-93 105q-5 6 -6 9t6 3h72q8 0 12 -2.5t7 -8.5l47 -52q10 -11 14 -7.5t14 13.5l56 52v0z" />
    <glyph glyph-name="dzcaron" unicode="&#x1c6;" horiz-adv-x="1112" 
d="M399 0q-7 0 -13 4t-5 13l6 33q2 8 -2 9t-12 -6q-15 -13 -37.5 -28t-51.5 -25t-66 -10q-82 0 -133.5 53.5t-51.5 158.5q0 63 18 123t52.5 109t83 77.5t110.5 28.5q45 0 74 -16t52 -42q7 -8 13.5 -6t9.5 23l33 229q1 8 5 11t12 3h101q12 0 10 -21l-100 -704
q-1 -10 -5.5 -13.5t-16.5 -3.5h-86zM434 402q-21 26 -44.5 39t-54.5 13q-46 0 -78 -25t-53 -64t-30.5 -83.5t-9.5 -83.5q0 -44 13.5 -71.5t37 -40t53.5 -12.5q33 0 62 16t48 39.5t22 47.5zM612 0q-10 0 -13 3.5t-1 13.5l4 32q2 11 6.5 18t15.5 20l310 343q5 7 3.5 11.5
t-12.5 4.5h-233q-8 0 -10 4.5t-1 13.5l8 53q2 7 7 10t11 3h398q11 0 10 -12l-6 -38q-1 -8 -6 -15.5t-13 -16.5l-312 -346q-6 -7 -3 -12t10 -5h259q14 0 11 -14l-7 -56q-1 -6 -4.5 -10.5t-12.5 -4.5h-419v0zM994 738q6 5 10.5 5h11.5h77q9 0 10.5 -5t-6.5 -13l-120 -106
q-5 -4 -10 -6t-14 -2h-61q-11 0 -17 4.5t-10 10.5l-93 105q-5 6 -6 9t6 3h72q8 0 12 -2.5t7 -8.5l47 -52q10 -11 14 -7.5t14 13.5l56 52v0z" />
    <glyph glyph-name="LJ" unicode="&#x1c7;" horiz-adv-x="1056" 
d="M144 727q2 15 15 15h122q14 0 10 -20l-84 -599q-2 -13 9 -13h330q14 0 12 -18l-11 -80q-1 -8 -4.5 -10t-11.5 -2h-469q-20 0 -17 22l99 705v0zM970 178q-9 -66 -35 -107.5t-70 -61t-108 -19.5q-38 0 -68 7t-49 12q-13 4 -17 8t-3 11l23 87q1 7 4.5 10t11.5 0
q13 -3 29.5 -7.5t37.5 -4.5q45 0 69.5 25.5t32.5 83.5l71 507q2 8 4.5 10.5t9.5 2.5h123q13 0 10 -20l-76 -544v0z" />
    <glyph glyph-name="Lj" unicode="&#x1c8;" horiz-adv-x="875" 
d="M144 727q2 15 15 15h122q14 0 10 -20l-84 -599q-2 -13 9 -13h330q14 0 12 -18l-11 -80q-1 -8 -4.5 -10t-11.5 -2h-469q-20 0 -17 22l99 705v0zM774 -10q-12 -82 -54 -121t-131 -39q-45 0 -58 5t-11 17l9 66q1 6 3.5 10t9.5 5l46 4q23 2 37.5 17t20.5 50l72 513
q1 8 4 10.5t10 2.5h101q7 0 11 -6t3 -13l-73 -521v0zM865 624q-2 -11 -7 -15t-18 -4h-96q-10 0 -12.5 7t-0.5 17l14 95q2 18 17 18h106q6 0 9 -6.5t1 -14.5z" />
    <glyph glyph-name="lj" unicode="&#x1c9;" horiz-adv-x="513" 
d="M159 18q-2 -12 -6.5 -15t-17.5 -3h-87q-11 0 -16 6t-4 16l103 707q1 8 3.5 10.5t9.5 2.5h104q13 0 10 -17zM412 -10q-12 -82 -54 -121t-131 -39q-45 0 -58 5t-11 17l9 66q1 6 3.5 10t9.5 5l46 4q23 2 37.5 17t20.5 50l72 513q1 8 4 10.5t10 2.5h101q7 0 11 -6t3 -13
l-73 -521v0zM503 624q-2 -11 -7 -15t-18 -4h-96q-10 0 -12.5 7t-0.5 17l14 95q2 18 17 18h106q6 0 9 -6.5t1 -14.5z" />
    <glyph glyph-name="NJ" unicode="&#x1ca;" horiz-adv-x="1196" 
d="M734 742q12 0 10 -14l-101 -717q-1 -11 -15 -11h-84q-6 0 -11 3.5t-10 10.5l-275 486q-4 7 -8 6t-5 -11l-68 -481q-1 -8 -4.5 -11t-13.5 -3h-92q-8 0 -11 5.5t-2 13.5l101 710q1 8 3.5 10.5t11.5 2.5h99q10 0 15 -4t9 -12l257 -463q5 -8 11 -7t7 12l65 462q2 8 4.5 10
t10.5 2h96zM1109 178q-9 -66 -35 -107.5t-70 -61t-108 -19.5q-38 0 -68 7t-49 12q-13 4 -17 8t-3 11l23 87q1 7 4.5 10t11.5 0q13 -3 29.5 -7.5t37.5 -4.5q45 0 69.5 25.5t32.5 83.5l71 507q2 8 4.5 10.5t9.5 2.5h123q13 0 10 -20l-76 -544v0z" />
    <glyph glyph-name="Nj" unicode="&#x1cb;" horiz-adv-x="1015" 
d="M734 742q12 0 10 -14l-101 -717q-1 -11 -15 -11h-84q-6 0 -11 3.5t-10 10.5l-275 486q-4 7 -8 6t-5 -11l-68 -481q-1 -8 -4.5 -11t-13.5 -3h-92q-8 0 -11 5.5t-2 13.5l101 710q1 8 3.5 10.5t11.5 2.5h99q10 0 15 -4t9 -12l257 -463q5 -8 11 -7t7 12l65 462q2 8 4.5 10
t10.5 2h96zM913 -10q-12 -82 -54 -121t-131 -39q-45 0 -58 5t-11 17l9 66q1 6 3.5 10t9.5 5l46 4q23 2 37.5 17t20.5 50l72 513q1 8 4 10.5t10 2.5h101q7 0 11 -6t3 -13l-73 -521v0zM1004 624q-2 -11 -7 -15t-18 -4h-96q-10 0 -12.5 7t-0.5 17l14 95q2 18 17 18h106
q6 0 9 -6.5t1 -14.5z" />
    <glyph glyph-name="nj" unicode="&#x1cc;" horiz-adv-x="848" 
d="M42 0q-9 0 -11.5 6.5t-1.5 15.5l69 495q2 8 4.5 10.5t8.5 2.5h106q5 0 7.5 -2.5t1.5 -9.5l-8 -53q-1 -11 10 -2q43 35 88 56t93 21q69 0 106.5 -36.5t37.5 -95.5q0 -6 -0.5 -13t-1.5 -14l-51 -364q-2 -10 -6 -13.5t-15 -3.5h-96q-9 0 -11.5 6t-1.5 16l49 341
q1 6 1.5 11.5t0.5 9.5q0 30 -17 45t-52 15q-26 0 -48.5 -8t-45 -24t-49.5 -40l-51 -356q-2 -10 -6.5 -13t-16.5 -3h-93v0zM747 -10q-12 -82 -54 -121t-131 -39q-45 0 -58 5t-11 17l9 66q1 6 3.5 10t9.5 5l46 4q23 2 37.5 17t20.5 50l72 513q1 8 4 10.5t10 2.5h101q7 0 11 -6
t3 -13l-73 -521v0zM838 624q-2 -11 -7 -15t-18 -4h-96q-10 0 -12.5 7t-0.5 17l14 95q2 18 17 18h106q6 0 9 -6.5t1 -14.5z" />
    <glyph glyph-name="uni01EA" unicode="&#x1ea;" horiz-adv-x="770" 
d="M352 -10q-92 0 -157 35.5t-99.5 103.5t-34.5 163q0 19 1.5 40.5t4.5 42.5q17 119 69 203t132.5 129t180.5 45q90 0 155 -36.5t99.5 -105t34.5 -165.5q0 -19 -1 -40t-5 -43q-16 -117 -67.5 -200.5t-131.5 -127.5t-181 -44v0zM357 96q93 0 147.5 67t75.5 211q4 29 5.5 53.5
t1.5 45.5q0 90 -35 132t-106 42q-93 0 -149 -69.5t-77 -217.5q-4 -26 -6 -50t-2 -44q0 -88 36 -129t109 -41v0zM242 -82q2 18 12.5 33t33.5 29.5t65 27.5l95 -6q-56 -20 -81 -39.5t-28 -43.5q-2 -15 6 -23t27 -8q22 0 38 6t27 10q7 4 10.5 0.5t2.5 -10.5l-5 -38
q-1 -5 -3.5 -9.5t-6.5 -5.5q-15 -5 -39.5 -9t-52.5 -4q-54 0 -80.5 23.5t-20.5 66.5v0z" />
    <glyph glyph-name="uni01EB" unicode="&#x1eb;" horiz-adv-x="599" 
d="M265 -10q-71 0 -123 29t-80.5 81t-28.5 121q0 70 24 128.5t65.5 101t96 66t115.5 23.5q71 0 123 -30t80 -83t28 -122q0 -91 -40 -162.5t-107.5 -112t-152.5 -40.5v0zM269 79q47 0 85 29.5t60 85t22 135.5q0 60 -26.5 92.5t-77.5 32.5q-47 0 -85 -30t-61 -86t-23 -136
q0 -59 27.5 -91t78.5 -32v0zM145 -82q2 18 12.5 33t33.5 29.5t65 27.5l95 -6q-56 -20 -81 -39.5t-28 -43.5q-2 -15 6 -23t27 -8q22 0 38 6t27 10q7 4 10.5 0.5t2.5 -10.5l-5 -38q-1 -5 -3.5 -9.5t-6.5 -5.5q-15 -5 -39.5 -9t-52.5 -4q-54 0 -80.5 23.5t-20.5 66.5v0z" />
    <glyph glyph-name="DZ" unicode="&#x1f1;" horiz-adv-x="1344" 
d="M65 0q-10 0 -15.5 7t-4.5 18l99 703q2 9 5.5 11.5t13.5 2.5h190q121 0 200 -36t118 -102.5t39 -158.5q0 -138 -52.5 -238t-153 -153.5t-243.5 -53.5h-196v0zM275 106q100 0 162 43t91 120.5t29 182.5q0 66 -23 106.5t-68 59t-112 18.5h-61q-14 0 -17 -16l-68 -498
q-1 -8 2 -12t10 -4h55zM702 0q-11 0 -15.5 4t-3.5 14l5 35q1 10 4.5 17t12.5 18l433 535q5 6 5.5 7.5t-7.5 1.5h-326q-17 0 -15 20l11 79q2 7 4 9t8 2h538q12 0 10 -15l-5 -39q-1 -8 -3.5 -13t-9.5 -15l-443 -541q-8 -8 1 -8h357q8 0 10.5 -2.5t1.5 -9.5l-13 -87
q-1 -7 -3.5 -9.5t-11.5 -2.5h-545v0z" />
    <glyph glyph-name="Dz" unicode="&#x1f2;" horiz-adv-x="1175" 
d="M65 0q-10 0 -15.5 7t-4.5 18l99 703q2 9 5.5 11.5t13.5 2.5h190q121 0 200 -36t118 -102.5t39 -158.5q0 -138 -52.5 -238t-153 -153.5t-243.5 -53.5h-196v0zM275 106q100 0 162 43t91 120.5t29 182.5q0 66 -23 106.5t-68 59t-112 18.5h-61q-14 0 -17 -16l-68 -498
q-1 -8 2 -12t10 -4h55zM675 0q-10 0 -13 3.5t-1 13.5l4 32q2 11 6.5 18t15.5 20l310 343q5 7 3.5 11.5t-12.5 4.5h-233q-8 0 -10 4.5t-1 13.5l8 53q2 7 7 10t11 3h398q11 0 10 -12l-6 -38q-1 -8 -6 -15.5t-13 -16.5l-312 -346q-6 -7 -3 -12t10 -5h259q14 0 11 -14l-7 -56
q-1 -6 -4.5 -10.5t-12.5 -4.5h-419v0z" />
    <glyph glyph-name="dz" unicode="&#x1f3;" horiz-adv-x="1112" 
d="M399 0q-7 0 -13 4t-5 13l6 33q2 8 -2 9t-12 -6q-15 -13 -37.5 -28t-51.5 -25t-66 -10q-82 0 -133.5 53.5t-51.5 158.5q0 63 18 123t52.5 109t83 77.5t110.5 28.5q45 0 74 -16t52 -42q7 -8 13.5 -6t9.5 23l33 229q1 8 5 11t12 3h101q12 0 10 -21l-100 -704
q-1 -10 -5.5 -13.5t-16.5 -3.5h-86zM434 402q-21 26 -44.5 39t-54.5 13q-46 0 -78 -25t-53 -64t-30.5 -83.5t-9.5 -83.5q0 -44 13.5 -71.5t37 -40t53.5 -12.5q33 0 62 16t48 39.5t22 47.5zM612 0q-10 0 -13 3.5t-1 13.5l4 32q2 11 6.5 18t15.5 20l310 343q5 7 3.5 11.5
t-12.5 4.5h-233q-8 0 -10 4.5t-1 13.5l8 53q2 7 7 10t11 3h398q11 0 10 -12l-6 -38q-1 -8 -6 -15.5t-13 -16.5l-312 -346q-6 -7 -3 -12t10 -5h259q14 0 11 -14l-7 -56q-1 -6 -4.5 -10.5t-12.5 -4.5h-419v0z" />
    <glyph glyph-name="Gacute" unicode="&#x1f4;" horiz-adv-x="747" 
d="M343 -10q-89 0 -152 37t-96.5 105.5t-33.5 161.5t26.5 175.5t77 146.5t122 100t160.5 36q79 0 138 -31t92 -79.5t34 -104.5q0 -16 -7 -17l-116 -17q-4 -1 -6.5 4t-4.5 18q-3 33 -19 60.5t-45 44t-72 16.5q-61 0 -104 -32.5t-70.5 -87t-40.5 -120.5t-13 -132
q0 -94 37.5 -136t106.5 -42q39 0 70 12.5t54 33t38.5 45t23.5 49.5l7 38q6 12 -9 12h-137q-9 0 -8 12l8 70q1 9 9 9l275 -1q10 0 13 -3t1 -12l-49 -349q-2 -12 -15 -12h-27q-15 0 -19 14l-11 80q-1 6 -5.5 5.5t-11.5 -7.5q-19 -25 -49.5 -48.5t-73 -38.5t-98.5 -15v0z
M604 892q2 -8 0 -12.5t-13 -7.5l-239 -66q-10 -2 -15 2t-6 12l-7 30q-3 14 4 16l248 96q5 3 9 0.5t6 -10.5z" />
    <glyph glyph-name="gacute" unicode="&#x1f5;" horiz-adv-x="622" 
d="M219 -174q-119 0 -185 32t-66 89q0 41 30.5 68.5t74.5 43.5q10 4 11.5 8t-6.5 8q-21 10 -31.5 24t-10.5 36q0 24 15.5 42t38.5 30.5t45 19.5q9 4 11.5 8.5t-5.5 7.5q-36 16 -55 44t-19 66q0 48 20.5 82.5t55.5 57.5t79 34t90 11q70 0 109 -15t59 -34q6 -6 14 -1t15 12
q14 15 32.5 25t38 16.5t34.5 6.5q11 0 16.5 -3.5t4.5 -14.5l-8 -56q-1 -13 -5.5 -17t-13.5 -4q-16 0 -31 -1.5t-24 -3.5q-33 -7 -25 -25q3 -6 5 -16t2 -23q0 -47 -22.5 -80.5t-60 -54t-81 -30.5t-87.5 -10q-8 0 -28.5 -1t-43.5 -5.5t-39 -13t-16 -22.5q0 -11 15.5 -15.5
t49.5 -7.5l137 -8q89 -5 130.5 -39.5t41.5 -93.5q0 -42 -18.5 -72.5t-50.5 -50.5t-72 -32t-84.5 -17t-86.5 -5v0zM225 -108q40 0 74 5t59.5 16t39.5 28.5t14 42.5t-17 36.5t-59 13.5l-156 9q-23 -4 -46 -14.5t-39 -27t-16 -40.5q0 -36 37 -52.5t109 -16.5v0zM287 277
q35 0 64.5 12.5t48 38.5t18.5 65q0 35 -26.5 55.5t-77.5 20.5q-35 0 -64.5 -14.5t-48 -41t-18.5 -63.5q0 -33 28 -53t76 -20v0zM491 680q2 -8 0 -12.5t-13 -7.5l-239 -66q-10 -2 -15 2t-6 12l-7 30q-3 14 4 16l248 96q5 3 9 0.5t6 -10.5z" />
    <glyph glyph-name="Aringacute" unicode="&#x1fa;" horiz-adv-x="678" 
d="M522 792q-6 -43 -39 -69t-75 -26q-46 0 -74 31.5t-21 79.5q5 40 38.5 65.5t74.5 25.5q46 0 74 -30.5t22 -76.5v0zM470 805q2 21 -9.5 33t-31.5 12q-23 0 -43.5 -17t-23.5 -42q-3 -19 10 -33t31 -14q25 0 44 18.5t23 42.5v0zM468 742q11 0 18 -7t8 -16l139 -699
q2 -7 0 -13.5t-11 -6.5h-122q-6 0 -11 4.5t-5 11.5l-32 163q-1 4 -2 5t-8 1h-243q-5 0 -9 -4t-6 -9l-79 -164q-3 -5 -6 -6.5t-11 -1.5h-96q-7 0 -11.5 8.5t0.5 19.5l339 700q4 9 8 11.5t15 2.5h125zM381 584q-1 7 -5.5 3.5t-7.5 -11.5l-128 -266q-4 -7 -4 -9.5t6 -2.5h176
q7 0 11.5 6t3.5 13zM487 964q10 0 14 -8.5t0 -18.5l-38 -62h-66l26 69q4 14 10.5 17t18.5 3h35z" />
    <glyph glyph-name="aringacute" unicode="&#x1fb;" horiz-adv-x="558" 
d="M334 53q-35 -33 -79 -48t-93 -15q-71 0 -110.5 36t-39.5 93q0 55 28 93t73 61.5t99 35t105 13.5l50 3q19 1 22 19l3 23q1 5 1.5 9.5t0.5 8.5q0 35 -21.5 53t-61.5 18q-36 0 -69.5 -15t-60.5 -53q-3 -5 -7 -6t-12 1l-81 21q-6 2 -8.5 8t3.5 20q35 54 97 81t146 27
q70 0 114 -18t65 -50t21 -75q0 -7 -0.5 -14t-1.5 -15l-50 -352q-1 -11 -4 -13.5t-13 -2.5h-85q-9 0 -12 6t-3 16l2 34q-1 17 -18 -3v0zM375 246q1 9 -0.5 11.5t-9.5 1.5l-47 -4q-24 -2 -54.5 -8t-58.5 -18.5t-46 -34.5t-18 -55q0 -28 20 -44.5t57 -16.5q29 0 55 9.5t45 23.5
q20 14 32.5 31t14.5 33zM473 886q2 -8 0 -12.5t-13 -7.5l-239 -66q-10 -2 -15 2t-6 12l-7 30q-3 14 4 16l248 96q5 3 9 0.5t6 -10.5zM428 673q-7 -45 -41 -74t-78 -29q-31 0 -55 16t-36 43t-7 60q5 42 40 70t78 28q32 0 56 -15.5t35.5 -41t7.5 -57.5v0zM371 686
q3 21 -8.5 33t-31.5 12q-23 0 -43.5 -17t-24.5 -42q-2 -19 10.5 -33t31.5 -14q24 0 43.5 18.5t22.5 42.5v0z" />
    <glyph glyph-name="AEacute" unicode="&#x1fc;" horiz-adv-x="1053" 
d="M972 110q8 0 12.5 -4.5t3.5 -13.5l-11 -80q-1 -7 -4 -9.5t-12 -2.5h-476q-10 0 -15 6t-4 16l23 157q0 5 -0.5 5.5t-6.5 0.5h-224q-5 0 -10 -4t-7 -8l-113 -165q-6 -8 -20 -8h-96q-8 0 -11.5 8.5t3.5 19.5l479 700q6 9 11 11.5t15 2.5h543q6 0 10 -5.5t3 -13.5l-11 -76
q-1 -9 -4.5 -12t-13.5 -3h-317q-8 0 -14 -5t-8 -13l-24 -175q-1 -8 1 -9.5t8 -1.5h219q8 0 12.5 -5.5t3.5 -12.5l-12 -82q-1 -5 -2.5 -6.5t-9.5 -1.5h-221q-6 0 -11.5 -5t-6.5 -11l-26 -186q-1 -7 -0.5 -7.5t6.5 -0.5h338v0zM488 298q8 0 13.5 6t6.5 13l40 284q2 18 -7 15
t-21 -21l-198 -285q-5 -7 -6.5 -9.5t5.5 -2.5h167v0zM927 892q2 -8 0 -12.5t-13 -7.5l-239 -66q-10 -2 -15 2t-6 12l-7 30q-3 14 4 16l248 96q5 3 9 0.5t6 -10.5z" />
    <glyph glyph-name="aeacute" unicode="&#x1fd;" horiz-adv-x="921" 
d="M523 240q-10 0 -15.5 -6.5t-7.5 -21.5q-6 -36 8.5 -66t44 -47.5t68.5 -17.5q34 0 60 10t48 28t43 39q5 3 7.5 1t9.5 -5l57 -28q5 -2 7.5 -7.5t-2.5 -14.5q-34 -41 -72 -66t-81.5 -36.5t-94.5 -11.5q-52 0 -89.5 15.5t-63 39t-41.5 48.5q-3 0 -6.5 -4t-5.5 -8
q-28 -25 -61 -46t-74.5 -33t-95.5 -12q-84 0 -123.5 43t-29.5 114q11 75 82 120.5t207 53.5l62 4q7 1 15 6t9 13l3 23q6 44 -14.5 66.5t-68.5 22.5q-35 0 -68.5 -17.5t-60.5 -55.5q-5 -5 -8 -3.5t-11 3.5l-80 21q-5 2 -6.5 10.5t1.5 17.5q26 36 58.5 60t77 36t105.5 12
q72 -1 114 -20t57 -55q38 39 84.5 57t97.5 18q76 0 129 -33.5t77.5 -97t11.5 -153.5q-1 -9 -3 -12t-15 -4h-346v0zM671 458q-36 0 -69.5 -18t-56.5 -51t-29 -78l232 3q11 0 16 5t6 17q5 29 -5 57t-33.5 46.5t-60.5 18.5v0zM373 241q2 9 0 11t-12 2l-50 -4q-44 -3 -81 -17
t-60.5 -37t-28.5 -55q-5 -31 15 -50t62 -18q36 2 67.5 15t53 35t25.5 48l9 70v0zM649 680q2 -8 0 -12.5t-13 -7.5l-239 -66q-10 -2 -15 2t-6 12l-7 30q-3 14 4 16l248 96q5 3 9 0.5t6 -10.5z" />
    <glyph glyph-name="Oslashacute" unicode="&#x1fe;" horiz-adv-x="752" 
d="M795 701q4 -4 6 -9t-4 -11l-96 -85q20 -45 26 -103.5t-4 -130.5q-16 -117 -67.5 -200.5t-131.5 -127.5t-181 -44q-71 0 -125 22t-90 61l-75 -73q-10 -9 -17 -6.5t-14 10.5l-26 30q-8 8 -10 14.5t5 12.5l90 80q-20 45 -27 104t4 130q17 119 69 203t132 129t181 45
q71 0 125 -23t90 -64l82 79q6 6 12 4.5t10 -6.5l36 -41v0zM212 360q-5 -31 -4.5 -58t4.5 -50l345 328q-17 36 -47.5 51.5t-73.5 15.5q-93 0 -148 -69.5t-76 -217.5v0zM569 374q4 32 4 60t-5 50l-343 -326q17 -33 48 -47t75 -14q93 0 147 66.5t74 210.5v0zM602 892
q2 -8 0 -12.5t-13 -7.5l-239 -66q-10 -2 -15 2t-6 12l-7 30q-3 14 4 16l248 96q5 3 9 0.5t6 -10.5z" />
    <glyph glyph-name="oslashacute" unicode="&#x1ff;" horiz-adv-x="591" 
d="M41 6q-9 -8 -16.5 -5.5t-13.5 10.5l-14 17q-6 8 -8 15t6 14l556 467q9 7 14.5 5t9.5 -7l22 -26q4 -5 6 -10.5t-5 -10.5zM257 -10q-72 0 -124 29t-80 81t-28 121q0 70 23.5 128.5t65 101t96 66t115.5 23.5q72 0 123.5 -30t79.5 -83t28 -122q0 -91 -39.5 -162.5
t-107.5 -112t-152 -40.5v0zM260 79q47 0 85 29.5t60 85t22 135.5q0 60 -26.5 92.5t-77.5 32.5q-46 0 -84.5 -30t-61.5 -86t-23 -136q0 -59 27.5 -91t78.5 -32v0zM491 680q2 -8 0 -12.5t-13 -7.5l-239 -66q-10 -2 -15 2t-6 12l-7 30q-3 14 4 16l248 96q5 3 9 0.5t6 -10.5z
" />
    <glyph glyph-name="uni0200" unicode="&#x200;" horiz-adv-x="756" 
d="M8 0q-8 0 -9 7t5 21l352 700q5 9 11.5 11.5t16.5 2.5h126q10 0 14.5 -7t6.5 -16l152 -699q2 -7 -1 -13.5t-11 -6.5h-121q-13 0 -16 16l-35 161q-1 8 -11 8h-259q-10 0 -15 -11l-84 -166q-2 -5 -5.5 -6.5t-11.5 -1.5h-105v0zM468 298q14 0 11 16l-60 265q-1 10 -5.5 9.5
t-9.5 -10.5l-133 -265q-4 -9 -3 -12t8 -3h192zM287 958q5 4 11 3t8 -4l113 -127q3 -3 4 -8t-3 -10l-27 -26q-5 -5 -10 -3t-12 8l-122 97q-19 13 -7 25l45 45v0zM471 958q5 4 11 3t9 -4l112 -127q4 -3 5 -8.5t-4 -9.5l-27 -26q-5 -5 -10 -3t-12 8l-121 97q-20 13 -8 25l45 45
v0z" />
    <glyph glyph-name="uni0201" unicode="&#x201;" horiz-adv-x="558" 
d="M334 53q-35 -33 -79 -48t-93 -15q-71 0 -110.5 36t-39.5 93q0 55 28 93t73 61.5t99 35t105 13.5l50 3q19 1 22 19l3 23q1 5 1.5 9.5t0.5 8.5q0 35 -21.5 53t-61.5 18q-36 0 -69.5 -15t-60.5 -53q-3 -5 -7 -6t-12 1l-81 21q-6 2 -8.5 8t3.5 20q35 54 97 81t146 27
q70 0 114 -18t65 -50t21 -75q0 -7 -0.5 -14t-1.5 -15l-50 -352q-1 -11 -4 -13.5t-13 -2.5h-85q-9 0 -12 6t-3 16l2 34q-1 17 -18 -3v0zM375 246q1 9 -0.5 11.5t-9.5 1.5l-47 -4q-24 -2 -54.5 -8t-58.5 -18.5t-46 -34.5t-18 -55q0 -28 20 -44.5t57 -16.5q29 0 55 9.5t45 23.5
q20 14 32.5 31t14.5 33zM165 746q5 4 11 3t8 -4l113 -127q3 -3 4 -8t-3 -10l-27 -26q-5 -5 -10 -3t-12 8l-122 97q-19 13 -7 25l45 45v0zM349 746q5 4 11 3t9 -4l112 -127q4 -3 5 -8.5t-4 -9.5l-27 -26q-5 -5 -10 -3t-12 8l-121 97q-20 13 -8 25l45 45v0z" />
    <glyph glyph-name="uni0202" unicode="&#x202;" horiz-adv-x="756" 
d="M8 0q-8 0 -9 7t5 21l352 700q5 9 11.5 11.5t16.5 2.5h126q10 0 14.5 -7t6.5 -16l152 -699q2 -7 -1 -13.5t-11 -6.5h-121q-13 0 -16 16l-35 161q-1 8 -11 8h-259q-10 0 -15 -11l-84 -166q-2 -5 -5.5 -6.5t-11.5 -1.5h-105v0zM468 298q14 0 11 16l-60 265q-1 10 -5.5 9.5
t-9.5 -10.5l-133 -265q-4 -9 -3 -12t8 -3h192zM304 830q-8 0 -10.5 7t0.5 15q15 31 40.5 53.5t59.5 35.5t75 13q43 0 77 -12.5t55 -36t26 -58.5q2 -7 -0.5 -12t-11.5 -5h-56q-7 0 -9.5 5t-8.5 12q-6 10 -15.5 19t-23 14.5t-32.5 5.5q-30 0 -54.5 -13t-38.5 -34
q-4 -6 -9 -7.5t-9 -1.5h-55v0z" />
    <glyph glyph-name="uni0203" unicode="&#x203;" horiz-adv-x="558" 
d="M334 53q-35 -33 -79 -48t-93 -15q-71 0 -110.5 36t-39.5 93q0 55 28 93t73 61.5t99 35t105 13.5l50 3q19 1 22 19l3 23q1 5 1.5 9.5t0.5 8.5q0 35 -21.5 53t-61.5 18q-36 0 -69.5 -15t-60.5 -53q-3 -5 -7 -6t-12 1l-81 21q-6 2 -8.5 8t3.5 20q35 54 97 81t146 27
q70 0 114 -18t65 -50t21 -75q0 -7 -0.5 -14t-1.5 -15l-50 -352q-1 -11 -4 -13.5t-13 -2.5h-85q-9 0 -12 6t-3 16l2 34q-1 17 -18 -3v0zM375 246q1 9 -0.5 11.5t-9.5 1.5l-47 -4q-24 -2 -54.5 -8t-58.5 -18.5t-46 -34.5t-18 -55q0 -28 20 -44.5t57 -16.5q29 0 55 9.5t45 23.5
q20 14 32.5 31t14.5 33zM182 618q-8 0 -10.5 7t0.5 15q15 31 40.5 53.5t59.5 35.5t75 13q43 0 77 -12.5t55 -36t26 -58.5q2 -7 -0.5 -12t-11.5 -5h-56q-7 0 -9.5 5t-8.5 12q-6 10 -15.5 19t-23 14.5t-32.5 5.5q-30 0 -54.5 -13t-38.5 -34q-4 -6 -9 -7.5t-9 -1.5h-55v0z" />
    <glyph glyph-name="uni0204" unicode="&#x204;" horiz-adv-x="645" 
d="M145 729q1 8 3.5 10.5t9.5 2.5h489q13 0 10 -19l-11 -75q-1 -9 -5 -12.5t-14 -3.5h-335q-7 0 -10.5 -2.5t-4.5 -10.5l-25 -180q-1 -7 1 -9t7 -2h234q8 0 10 -3.5t1 -9.5l-12 -85q-1 -10 -13 -10h-235q-11 0 -13 -14l-25 -185q-1 -11 6 -11h355q8 0 10.5 -3t0.5 -11
l-11 -84q-1 -7 -3.5 -9.5t-11.5 -2.5h-491q-20 0 -17 22l100 707v0zM252 958q5 4 11 3t8 -4l113 -127q3 -3 4 -8t-3 -10l-27 -26q-5 -5 -10 -3t-12 8l-122 97q-19 13 -7 25l45 45v0zM436 958q5 4 11 3t9 -4l112 -127q4 -3 5 -8.5t-4 -9.5l-27 -26q-5 -5 -10 -3t-12 8
l-121 97q-20 13 -8 25l45 45v0z" />
    <glyph glyph-name="uni0205" unicode="&#x205;" horiz-adv-x="584" 
d="M268 -10q-71 0 -123.5 29t-82 80.5t-29.5 119.5q0 62 21.5 119.5t61.5 103t95 72t122 26.5t117 -27t77.5 -77.5t27.5 -123.5q0 -13 -1 -27t-3 -29q-1 -8 -6 -12t-16 -4h-351q-10 0 -13 -11.5t-3 -32.5q0 -55 34.5 -85t88.5 -30q43 0 79 17.5t68 54.5q5 5 10 4.5t11 -3.5
l57 -28q17 -7 5 -22q-37 -43 -74.5 -68t-79.5 -35.5t-93 -10.5v0zM412 311q10 0 17 8t7 33q0 44 -26.5 75t-76.5 31q-40 0 -73 -20.5t-54.5 -54t-26.5 -72.5h233zM181 746q5 4 11 3t8 -4l113 -127q3 -3 4 -8t-3 -10l-27 -26q-5 -5 -10 -3t-12 8l-122 97q-19 13 -7 25l45 45
v0zM365 746q5 4 11 3t9 -4l112 -127q4 -3 5 -8.5t-4 -9.5l-27 -26q-5 -5 -10 -3t-12 8l-121 97q-20 13 -8 25l45 45v0z" />
    <glyph glyph-name="uni0206" unicode="&#x206;" horiz-adv-x="645" 
d="M145 729q1 8 3.5 10.5t9.5 2.5h489q13 0 10 -19l-11 -75q-1 -9 -5 -12.5t-14 -3.5h-335q-7 0 -10.5 -2.5t-4.5 -10.5l-25 -180q-1 -7 1 -9t7 -2h234q8 0 10 -3.5t1 -9.5l-12 -85q-1 -10 -13 -10h-235q-11 0 -13 -14l-25 -185q-1 -11 6 -11h355q8 0 10.5 -3t0.5 -11
l-11 -84q-1 -7 -3.5 -9.5t-11.5 -2.5h-491q-20 0 -17 22l100 707v0zM269 830q-8 0 -10.5 7t0.5 15q15 31 40.5 53.5t59.5 35.5t75 13q43 0 77 -12.5t55 -36t26 -58.5q2 -7 -0.5 -12t-11.5 -5h-56q-7 0 -9.5 5t-8.5 12q-6 10 -15.5 19t-23 14.5t-32.5 5.5q-30 0 -54.5 -13
t-38.5 -34q-4 -6 -9 -7.5t-9 -1.5h-55v0z" />
    <glyph glyph-name="uni0207" unicode="&#x207;" horiz-adv-x="584" 
d="M268 -10q-71 0 -123.5 29t-82 80.5t-29.5 119.5q0 62 21.5 119.5t61.5 103t95 72t122 26.5t117 -27t77.5 -77.5t27.5 -123.5q0 -13 -1 -27t-3 -29q-1 -8 -6 -12t-16 -4h-351q-10 0 -13 -11.5t-3 -32.5q0 -55 34.5 -85t88.5 -30q43 0 79 17.5t68 54.5q5 5 10 4.5t11 -3.5
l57 -28q17 -7 5 -22q-37 -43 -74.5 -68t-79.5 -35.5t-93 -10.5v0zM412 311q10 0 17 8t7 33q0 44 -26.5 75t-76.5 31q-40 0 -73 -20.5t-54.5 -54t-26.5 -72.5h233zM198 618q-8 0 -10.5 7t0.5 15q15 31 40.5 53.5t59.5 35.5t75 13q43 0 77 -12.5t55 -36t26 -58.5
q2 -7 -0.5 -12t-11.5 -5h-56q-7 0 -9.5 5t-8.5 12q-6 10 -15.5 19t-23 14.5t-32.5 5.5q-30 0 -54.5 -13t-38.5 -34q-4 -6 -9 -7.5t-9 -1.5h-55v0z" />
    <glyph glyph-name="uni0208" unicode="&#x208;" horiz-adv-x="306" 
d="M279 742q15 0 12 -20l-99 -704q-1 -12 -5.5 -15t-17.5 -3h-108q-12 0 -14.5 6t-1.5 16l100 707q1 8 3.5 10.5t9.5 2.5h121zM67 958q5 4 11 3t8 -4l113 -127q3 -3 4 -8t-3 -10l-27 -26q-5 -5 -10 -3t-12 8l-122 97q-19 13 -7 25l45 45v0zM251 958q5 4 11 3t9 -4l112 -127
q4 -3 5 -8.5t-4 -9.5l-27 -26q-5 -5 -10 -3t-12 8l-121 97q-20 13 -8 25l45 45v0z" />
    <glyph glyph-name="uni0209" unicode="&#x209;" horiz-adv-x="256" 
d="M158 18q-2 -12 -6 -15t-17 -3h-87q-11 0 -15.5 6t-3.5 16l69 495q2 8 4.5 10.5t9.5 2.5h101q7 0 11.5 -6t3.5 -13zM10 746q5 4 11 3t8 -4l113 -127q3 -3 4 -8t-3 -10l-27 -26q-5 -5 -10 -3t-12 8l-122 97q-19 13 -7 25l45 45v0zM194 746q5 4 11 3t9 -4l112 -127
q4 -3 5 -8.5t-4 -9.5l-27 -26q-5 -5 -10 -3t-12 8l-121 97q-20 13 -8 25l45 45v0z" />
    <glyph glyph-name="uni020A" unicode="&#x20a;" horiz-adv-x="306" 
d="M279 742q15 0 12 -20l-99 -704q-1 -12 -5.5 -15t-17.5 -3h-108q-12 0 -14.5 6t-1.5 16l100 707q1 8 3.5 10.5t9.5 2.5h121zM83 830q-8 0 -10.5 7t0.5 15q15 31 40.5 53.5t59.5 35.5t75 13q43 0 77 -12.5t55 -36t26 -58.5q2 -7 -0.5 -12t-11.5 -5h-56q-7 0 -9.5 5t-8.5 12
q-6 10 -15.5 19t-23 14.5t-32.5 5.5q-30 0 -54.5 -13t-38.5 -34q-4 -6 -9 -7.5t-9 -1.5h-55v0z" />
    <glyph glyph-name="uni020B" unicode="&#x20b;" horiz-adv-x="256" 
d="M158 18q-2 -12 -6 -15t-17 -3h-87q-11 0 -15.5 6t-3.5 16l69 495q2 8 4.5 10.5t9.5 2.5h101q7 0 11.5 -6t3.5 -13zM27 618q-8 0 -10.5 7t0.5 15q15 31 40.5 53.5t59.5 35.5t75 13q43 0 77 -12.5t55 -36t26 -58.5q2 -7 -0.5 -12t-11.5 -5h-56q-7 0 -9.5 5t-8.5 12
q-6 10 -15.5 19t-23 14.5t-32.5 5.5q-30 0 -54.5 -13t-38.5 -34q-4 -6 -9 -7.5t-9 -1.5h-55v0z" />
    <glyph glyph-name="uni020C" unicode="&#x20c;" horiz-adv-x="770" 
d="M352 -10q-92 0 -157 35.5t-99.5 103.5t-34.5 163q0 19 1.5 40.5t4.5 42.5q17 119 69 203t132.5 129t180.5 45q90 0 155 -36.5t99.5 -105t34.5 -165.5q0 -19 -1 -40t-5 -43q-16 -117 -67.5 -200.5t-131.5 -127.5t-181 -44v0zM357 96q93 0 147.5 67t75.5 211q4 29 5.5 53.5
t1.5 45.5q0 90 -35 132t-106 42q-93 0 -149 -69.5t-77 -217.5q-4 -26 -6 -50t-2 -44q0 -88 36 -129t109 -41v0zM297 958q5 4 11 3t8 -4l113 -127q3 -3 4 -8t-3 -10l-27 -26q-5 -5 -10 -3t-12 8l-122 97q-19 13 -7 25l45 45v0zM481 958q5 4 11 3t9 -4l112 -127q4 -3 5 -8.5
t-4 -9.5l-27 -26q-5 -5 -10 -3t-12 8l-121 97q-20 13 -8 25l45 45v0z" />
    <glyph glyph-name="uni020D" unicode="&#x20d;" horiz-adv-x="599" 
d="M265 -10q-71 0 -123 29t-80.5 81t-28.5 121q0 70 24 128.5t65.5 101t96 66t115.5 23.5q71 0 123 -30t80 -83t28 -122q0 -91 -40 -162.5t-107.5 -112t-152.5 -40.5v0zM269 79q47 0 85 29.5t60 85t22 135.5q0 60 -26.5 92.5t-77.5 32.5q-47 0 -85 -30t-61 -86t-23 -136
q0 -59 27.5 -91t78.5 -32v0zM182 746q5 4 11 3t8 -4l113 -127q3 -3 4 -8t-3 -10l-27 -26q-5 -5 -10 -3t-12 8l-122 97q-19 13 -7 25l45 45v0zM366 746q5 4 11 3t9 -4l112 -127q4 -3 5 -8.5t-4 -9.5l-27 -26q-5 -5 -10 -3t-12 8l-121 97q-20 13 -8 25l45 45v0z" />
    <glyph glyph-name="uni020E" unicode="&#x20e;" horiz-adv-x="770" 
d="M352 -10q-92 0 -157 35.5t-99.5 103.5t-34.5 163q0 19 1.5 40.5t4.5 42.5q17 119 69 203t132.5 129t180.5 45q90 0 155 -36.5t99.5 -105t34.5 -165.5q0 -19 -1 -40t-5 -43q-16 -117 -67.5 -200.5t-131.5 -127.5t-181 -44v0zM357 96q93 0 147.5 67t75.5 211q4 29 5.5 53.5
t1.5 45.5q0 90 -35 132t-106 42q-93 0 -149 -69.5t-77 -217.5q-4 -26 -6 -50t-2 -44q0 -88 36 -129t109 -41v0zM314 830q-8 0 -10.5 7t0.5 15q15 31 40.5 53.5t59.5 35.5t75 13q43 0 77 -12.5t55 -36t26 -58.5q2 -7 -0.5 -12t-11.5 -5h-56q-7 0 -9.5 5t-8.5 12
q-6 10 -15.5 19t-23 14.5t-32.5 5.5q-30 0 -54.5 -13t-38.5 -34q-4 -6 -9 -7.5t-9 -1.5h-55v0z" />
    <glyph glyph-name="uni020F" unicode="&#x20f;" horiz-adv-x="599" 
d="M265 -10q-71 0 -123 29t-80.5 81t-28.5 121q0 70 24 128.5t65.5 101t96 66t115.5 23.5q71 0 123 -30t80 -83t28 -122q0 -91 -40 -162.5t-107.5 -112t-152.5 -40.5v0zM269 79q47 0 85 29.5t60 85t22 135.5q0 60 -26.5 92.5t-77.5 32.5q-47 0 -85 -30t-61 -86t-23 -136
q0 -59 27.5 -91t78.5 -32v0zM199 618q-8 0 -10.5 7t0.5 15q15 31 40.5 53.5t59.5 35.5t75 13q43 0 77 -12.5t55 -36t26 -58.5q2 -7 -0.5 -12t-11.5 -5h-56q-7 0 -9.5 5t-8.5 12q-6 10 -15.5 19t-23 14.5t-32.5 5.5q-30 0 -54.5 -13t-38.5 -34q-4 -6 -9 -7.5t-9 -1.5h-55v0z
" />
    <glyph glyph-name="uni0210" unicode="&#x210;" horiz-adv-x="713" 
d="M622 21q7 -21 -14 -21h-121q-8 0 -12.5 4.5t-6.5 14.5l-75 292q-1 6 -4 8t-12 2h-130q-12 0 -14 -12l-41 -292q-1 -11 -6.5 -14t-18.5 -3h-105q-11 0 -14.5 6.5t-2.5 15.5l100 707q1 8 3.5 10.5t9.5 2.5h301q118 0 182.5 -45t64.5 -129q0 -53 -20.5 -97.5t-57 -77.5
t-86.5 -49q-9 -4 -11.5 -7t-1.5 -8l93 -308v0zM393 423q49 0 84.5 15.5t55 45.5t19.5 74q0 42 -29 62.5t-82 20.5h-149q-11 0 -14 -15l-28 -191q-1 -8 1.5 -10t7.5 -2h134v0zM239 958q5 4 11 3t8 -4l113 -127q3 -3 4 -8t-3 -10l-27 -26q-5 -5 -10 -3t-12 8l-122 97
q-19 13 -7 25l45 45v0zM423 958q5 4 11 3t9 -4l112 -127q4 -3 5 -8.5t-4 -9.5l-27 -26q-5 -5 -10 -3t-12 8l-121 97q-20 13 -8 25l45 45v0z" />
    <glyph glyph-name="uni0211" unicode="&#x211;" horiz-adv-x="411" 
d="M47 0q-10 0 -14.5 6.5t-3.5 15.5l69 495q2 8 4.5 10.5t8.5 2.5h99q7 0 10.5 -4t2.5 -15l-8 -49q-1 -9 2.5 -9.5t9.5 5.5q25 26 53 44.5t55 28t50 9.5q20 0 30.5 -3t8.5 -11l-13 -94q-1 -9 -3 -11.5t-7 -1.5q-16 2 -32.5 3t-27.5 1q-21 0 -44.5 -8.5t-44.5 -23.5t-35 -33
t-16 -36l-43 -306q-2 -10 -6 -13t-16 -3h-89v0zM101 746q5 4 11 3t8 -4l113 -127q3 -3 4 -8t-3 -10l-27 -26q-5 -5 -10 -3t-12 8l-122 97q-19 13 -7 25l45 45v0zM285 746q5 4 11 3t9 -4l112 -127q4 -3 5 -8.5t-4 -9.5l-27 -26q-5 -5 -10 -3t-12 8l-121 97q-20 13 -8 25
l45 45v0z" />
    <glyph glyph-name="uni0212" unicode="&#x212;" horiz-adv-x="713" 
d="M622 21q7 -21 -14 -21h-121q-8 0 -12.5 4.5t-6.5 14.5l-75 292q-1 6 -4 8t-12 2h-130q-12 0 -14 -12l-41 -292q-1 -11 -6.5 -14t-18.5 -3h-105q-11 0 -14.5 6.5t-2.5 15.5l100 707q1 8 3.5 10.5t9.5 2.5h301q118 0 182.5 -45t64.5 -129q0 -53 -20.5 -97.5t-57 -77.5
t-86.5 -49q-9 -4 -11.5 -7t-1.5 -8l93 -308v0zM393 423q49 0 84.5 15.5t55 45.5t19.5 74q0 42 -29 62.5t-82 20.5h-149q-11 0 -14 -15l-28 -191q-1 -8 1.5 -10t7.5 -2h134v0zM276 830q-8 0 -10.5 7t0.5 15q15 31 40.5 53.5t59.5 35.5t75 13q43 0 77 -12.5t55 -36t26 -58.5
q2 -7 -0.5 -12t-11.5 -5h-56q-7 0 -9.5 5t-8.5 12q-6 10 -15.5 19t-23 14.5t-32.5 5.5q-30 0 -54.5 -13t-38.5 -34q-4 -6 -9 -7.5t-9 -1.5h-55v0z" />
    <glyph glyph-name="uni0213" unicode="&#x213;" horiz-adv-x="411" 
d="M47 0q-10 0 -14.5 6.5t-3.5 15.5l69 495q2 8 4.5 10.5t8.5 2.5h99q7 0 10.5 -4t2.5 -15l-8 -49q-1 -9 2.5 -9.5t9.5 5.5q25 26 53 44.5t55 28t50 9.5q20 0 30.5 -3t8.5 -11l-13 -94q-1 -9 -3 -11.5t-7 -1.5q-16 2 -32.5 3t-27.5 1q-21 0 -44.5 -8.5t-44.5 -23.5t-35 -33
t-16 -36l-43 -306q-2 -10 -6 -13t-16 -3h-89v0zM118 618q-8 0 -10.5 7t0.5 15q15 31 40.5 53.5t59.5 35.5t75 13q43 0 77 -12.5t55 -36t26 -58.5q2 -7 -0.5 -12t-11.5 -5h-56q-7 0 -9.5 5t-8.5 12q-6 10 -15.5 19t-23 14.5t-32.5 5.5q-30 0 -54.5 -13t-38.5 -34
q-4 -6 -9 -7.5t-9 -1.5h-55v0z" />
    <glyph glyph-name="uni0214" unicode="&#x214;" horiz-adv-x="717" 
d="M646 262q-14 -100 -56 -160t-109 -86t-156 -26q-136 0 -197 56.5t-61 165.5q0 17 2 36t4 39l63 441q1 9 4 11.5t9 2.5h119q8 0 12 -6t2 -14l-65 -464q-1 -12 -2 -22.5t-1 -21.5q0 -61 32.5 -88.5t93.5 -27.5q49 0 87.5 17.5t63.5 55t33 97.5l65 461q2 8 4 10.5t9 2.5h95
q7 0 11 -6t3 -14l-65 -460v0zM282 958q5 4 11 3t8 -4l113 -127q3 -3 4 -8t-3 -10l-27 -26q-5 -5 -10 -3t-12 8l-122 97q-19 13 -7 25l45 45v0zM466 958q5 4 11 3t9 -4l112 -127q4 -3 5 -8.5t-4 -9.5l-27 -26q-5 -5 -10 -3t-12 8l-121 97q-20 13 -8 25l45 45v0z" />
    <glyph glyph-name="uni0215" unicode="&#x215;" horiz-adv-x="588" 
d="M179 -10q-63 0 -101.5 36.5t-38.5 97.5q0 7 0.5 14.5t1.5 13.5l50 361q2 10 6.5 13.5t14.5 3.5h92q10 0 14 -6t3 -16l-48 -340q-1 -5 -1.5 -10t-0.5 -9q0 -33 18 -48.5t48 -15.5q38 0 73 20.5t68 51.5l52 357q1 10 6 13t16 3h90q10 0 15 -6t3 -16l-72 -495
q-1 -8 -3 -10.5t-10 -2.5h-98q-6 0 -10 3t-3 10l8 51q1 6 -2.5 6.5t-10.5 -4.5q-51 -43 -94 -59.5t-86 -16.5v0zM167 746q5 4 11 3t8 -4l113 -127q3 -3 4 -8t-3 -10l-27 -26q-5 -5 -10 -3t-12 8l-122 97q-19 13 -7 25l45 45v0zM351 746q5 4 11 3t9 -4l112 -127q4 -3 5 -8.5
t-4 -9.5l-27 -26q-5 -5 -10 -3t-12 8l-121 97q-20 13 -8 25l45 45v0z" />
    <glyph glyph-name="uni0216" unicode="&#x216;" horiz-adv-x="717" 
d="M646 262q-14 -100 -56 -160t-109 -86t-156 -26q-136 0 -197 56.5t-61 165.5q0 17 2 36t4 39l63 441q1 9 4 11.5t9 2.5h119q8 0 12 -6t2 -14l-65 -464q-1 -12 -2 -22.5t-1 -21.5q0 -61 32.5 -88.5t93.5 -27.5q49 0 87.5 17.5t63.5 55t33 97.5l65 461q2 8 4 10.5t9 2.5h95
q7 0 11 -6t3 -14l-65 -460v0zM298 830q-8 0 -10.5 7t0.5 15q15 31 40.5 53.5t59.5 35.5t75 13q43 0 77 -12.5t55 -36t26 -58.5q2 -7 -0.5 -12t-11.5 -5h-56q-7 0 -9.5 5t-8.5 12q-6 10 -15.5 19t-23 14.5t-32.5 5.5q-30 0 -54.5 -13t-38.5 -34q-4 -6 -9 -7.5t-9 -1.5h-55v0z
" />
    <glyph glyph-name="uni0217" unicode="&#x217;" horiz-adv-x="588" 
d="M179 -10q-63 0 -101.5 36.5t-38.5 97.5q0 7 0.5 14.5t1.5 13.5l50 361q2 10 6.5 13.5t14.5 3.5h92q10 0 14 -6t3 -16l-48 -340q-1 -5 -1.5 -10t-0.5 -9q0 -33 18 -48.5t48 -15.5q38 0 73 20.5t68 51.5l52 357q1 10 6 13t16 3h90q10 0 15 -6t3 -16l-72 -495
q-1 -8 -3 -10.5t-10 -2.5h-98q-6 0 -10 3t-3 10l8 51q1 6 -2.5 6.5t-10.5 -4.5q-51 -43 -94 -59.5t-86 -16.5v0zM184 618q-8 0 -10.5 7t0.5 15q15 31 40.5 53.5t59.5 35.5t75 13q43 0 77 -12.5t55 -36t26 -58.5q2 -7 -0.5 -12t-11.5 -5h-56q-7 0 -9.5 5t-8.5 12
q-6 10 -15.5 19t-23 14.5t-32.5 5.5q-30 0 -54.5 -13t-38.5 -34q-4 -6 -9 -7.5t-9 -1.5h-55v0z" />
    <glyph glyph-name="uni0218" unicode="&#x218;" horiz-adv-x="665" 
d="M545 586q-21 24 -58.5 42.5t-94.5 18.5q-44 0 -78.5 -13.5t-54 -38.5t-19.5 -59q0 -17 8.5 -31.5t26.5 -27t44 -22.5l147 -51q77 -26 113 -66.5t36 -99.5q0 -80 -42 -135.5t-113.5 -84t-159.5 -28.5q-103 0 -171.5 35t-103.5 99q-4 8 -4 14t8 10l65 40q11 7 19 4t14 -11
q23 -29 45.5 -49.5t55 -30.5t84.5 -10q44 0 80 11.5t57 36.5t21 65q0 27 -19 46.5t-65 35.5l-145 51q-72 24 -106.5 69.5t-34.5 101.5t24 100.5t65 77t95 49.5t115 17q57 0 103.5 -14t81.5 -38t58 -54q6 -8 6.5 -13t-5.5 -9l-76 -51q-4 -2 -9.5 1.5t-12.5 11.5v0zM228 -242
q-4 0 -4.5 4t3.5 8l40 53q6 9 5 14t-8 5h-20q-6 0 -8 3t-1 12l10 65q2 15 14 15h74q11 0 10 -11l-11 -79q-2 -9 -7 -16l-52 -59q-5 -6 -9.5 -10t-13.5 -4h-22v0z" />
    <glyph glyph-name="uni0219" unicode="&#x219;" horiz-adv-x="524" 
d="M231 -10q-92 0 -149.5 34t-77.5 81q-7 14 5 20l57 28q8 4 14.5 3t11.5 -10q16 -30 47 -50.5t89 -20.5q15 0 37 3t42.5 11t34.5 22.5t14 37.5q0 18 -16 32t-55 24l-99 26q-66 18 -97 48.5t-31 77.5q0 60 33.5 100.5t88 61.5t116.5 21q75 0 124.5 -29t73.5 -71
q3 -5 2.5 -10t-7.5 -9l-56 -26q-7 -3 -11.5 -1t-12.5 11q-15 23 -44 38t-72 15q-26 0 -52.5 -7t-44.5 -22.5t-18 -40.5q0 -16 11 -27.5t44 -22.5l114 -30q67 -17 97 -53.5t30 -83.5q0 -46 -21.5 -80t-56.5 -56.5t-78.5 -33.5t-86.5 -11v0zM144 -242q-4 0 -4.5 4t3.5 8l40 53
q6 9 5 14t-8 5h-20q-6 0 -8 3t-1 12l10 65q2 15 14 15h74q11 0 10 -11l-11 -79q-2 -9 -7 -16l-52 -59q-5 -6 -9.5 -10t-13.5 -4h-22v0z" />
    <glyph glyph-name="uni021A" unicode="&#x21a;" horiz-adv-x="669" 
d="M102 730q1 7 4 9.5t12 2.5h568q9 0 11 -3t0 -10l-12 -84q-1 -6 -4.5 -8.5t-10.5 -2.5h-192q-8 0 -11 -3t-5 -10l-85 -606q-1 -9 -4.5 -12t-10.5 -3h-118q-10 0 -13 4.5t-1 14.5l85 603q1 12 -10 12h-202q-15 0 -13 12zM226 -242q-4 0 -4.5 4t3.5 8l40 53q6 9 5 14t-8 5
h-20q-6 0 -8 3t-1 12l10 65q2 15 14 15h74q11 0 10 -11l-11 -79q-2 -9 -7 -16l-52 -59q-5 -6 -9.5 -10t-13.5 -4h-22v0z" />
    <glyph glyph-name="uni021B" unicode="&#x21b;" horiz-adv-x="417" 
d="M225 0q-61 0 -95 26.5t-34 76.5q0 7 0.5 14t1.5 14l42 297q1 7 -3 9t-10 2h-69q-12 0 -10 19l9 63q2 6 4.5 7.5t9.5 1.5h74q5 0 9 4t5 10l35 154q3 12 17 12h89q6 0 9 -4.5t1 -16.5l-22 -148q-1 -5 2 -7.5t7 -2.5h110q7 0 12 -3t3 -10l-9 -68q-1 -7 -4 -9t-12 -2h-113
q-12 0 -15 -14l-37 -268q-1 -6 -1.5 -11t-0.5 -10q0 -26 14 -35t43 -9h58q7 0 11 -5.5t3 -12.5l-8 -52q-2 -16 -16 -18q-15 -1 -35.5 -2t-40.5 -1.5t-34 -0.5v0zM138 -242q-4 0 -4.5 4t3.5 8l40 53q6 9 5 14t-8 5h-20q-6 0 -8 3t-1 12l10 65q2 15 14 15h74q11 0 10 -11
l-11 -79q-2 -9 -7 -16l-52 -59q-5 -6 -9.5 -10t-13.5 -4h-22v0z" />
    <glyph glyph-name="uni0237" unicode="&#x237;" horiz-adv-x="251" 
d="M149 -10q-7 -55 -31.5 -90t-63 -52.5t-89.5 -17.5q-41 0 -53.5 5t-10.5 17l9 66q1 6 3.5 10t9.5 5l40 4q24 2 38.5 17t19.5 50l72 513q2 8 5 10.5t10 2.5h101q7 0 11 -6t3 -13l-74 -521v0z" />
    <glyph glyph-name="uni0259" unicode="&#x259;" horiz-adv-x="584" 
d="M317 540q70 0 123 -29t82 -80.5t29 -119.5q0 -61 -21 -119t-61 -103.5t-95 -72t-122 -26.5q-68 0 -118 27t-77.5 78t-27.5 123q0 14 1 27.5t3 28.5q2 9 6.5 12.5t15.5 3.5h352q9 0 12 12t3 32q0 55 -34.5 85t-88.5 30q-42 0 -78.5 -17.5t-68.5 -54.5q-5 -5 -9.5 -4.5
t-10.5 3.5l-57 28q-17 7 -6 22q38 43 75.5 68t79.5 35.5t93 10.5v0zM173 219q-10 0 -17 -8t-7 -33q0 -43 26.5 -74.5t75.5 -31.5q41 0 74 20.5t54.5 54t25.5 72.5h-232z" />
    <glyph glyph-name="uni02BC" unicode="&#x2bc;" horiz-adv-x="166" 
d="M68 459q-5 0 -5 2.5t2 6.5l48 113q6 17 -8 18l-8 2q-7 1 -9 2t-1 7l17 116q1 6 5.5 11t9.5 5h75q4 0 5 -0.5t0 -5.5l-18 -131q0 -2 -2 -4t-2 -4l-54 -123q-5 -15 -26 -15h-29v0z" />
    <glyph glyph-name="circumflex" unicode="&#x2c6;" horiz-adv-x="359" 
d="M248 679q-7 9 -10.5 8.5t-13.5 -9.5l-63 -53q-6 -6 -10.5 -7.5t-11.5 -1.5h-74q-8 0 -8.5 5.5t4.5 9.5l122 107q7 6 13.5 8t17.5 2h61q9 0 13 -5t8 -9l91 -106q6 -7 4 -9.5t-10 -2.5h-72q-7 0 -11 3t-8 8z" />
    <glyph glyph-name="caron" unicode="&#x2c7;" horiz-adv-x="359" 
d="M305 738q6 5 10.5 5h11.5h77q9 0 10.5 -5t-6.5 -13l-120 -106q-5 -4 -10 -6t-14 -2h-61q-11 0 -17 4.5t-10 10.5l-93 105q-5 6 -6 9t6 3h72q8 0 12 -2.5t7 -8.5l47 -52q10 -11 14 -7.5t14 13.5l56 52v0z" />
    </font>
</defs>
</svg>
