<?xml version="1.0" standalone="no"?>
<!DOCTYPE svg PUBLIC "-//W3C//DTD SVG 1.1//EN" "http://www.w3.org/Graphics/SVG/1.1/DTD/svg11.dtd" >
<svg xmlns="http://www.w3.org/2000/svg" xmlns:xlink="http://www.w3.org/1999/xlink" version="1.1">
<metadata>
Created by FontForge 20170731 at Wed Sep 23 00:34:57 2020
 By Aleksey,,,
Copyright 2020 The LibreFranklin Project Authors (https://github.com/impallari/Libre-Franklin)
</metadata>
<defs>
<font id="LibreFranklin-BoldItalic" horiz-adv-x="0" >
  <font-face 
    font-family="Libre Franklin"
    font-weight="700"
    font-style="italic"
    font-stretch="normal"
    units-per-em="1000"
    panose-1="0 0 0 0 0 0 0 0 0 0"
    ascent="800"
    descent="-200"
    x-height="530"
    cap-height="742"
    bbox="-473.333 -243 1439.25 1157.64"
    underline-thickness="50"
    underline-position="-150"
    slope="-8"
    unicode-range="U+000D-FB02"
  />
<missing-glyph horiz-adv-x="648" 
d="M521 -141q-2 -16 -9 -20t-24 -4h-448q-16 0 -21.5 8.5t-4.5 21.5l135 964q2 11 6.5 14.5t12.5 3.5h471q8 0 13.5 -8t3.5 -18l-135 -962v0zM599 784q2 8 -0.5 10.5t-9.5 2.5h-373q-7 0 -14 -7.5t-9 -16.5l-122 -872q-1 -10 2 -13t16 -3h353q14 0 23.5 8t11.5 21zM168 806
l53 27l280 -965l-58 -5z" />
    <glyph glyph-name="fi" unicode="fi" horiz-adv-x="667" 
d="M403 530q10 0 13 -4t1 -11l-10 -77q-3 -14 -17 -14h-87q-8 0 -11 -15l-55 -395q-1 -9 -4 -11.5t-11 -2.5h-123q-7 0 -12 6.5t-4 15.5l56 394q2 8 -6 8h-77q-8 0 -9.5 6t-1.5 14l11 73q1 7 4 10t13 3h67q7 0 12 5.5t6 13.5l8 61q9 65 50 98.5t111 33.5h101q11 0 17.5 -5
t4.5 -14l-8 -72q-1 -12 -16 -12h-52q-22 0 -40 -15.5t-22 -40.5l-6 -42q-1 -11 12 -11h85v0zM577 20q-2 -14 -7 -17t-19 -3h-106q-13 0 -17.5 7t-3.5 18l69 490q1 10 4 12.5t11 2.5h127q7 0 9.5 -7t1.5 -15zM662 615q-2 -13 -7.5 -17t-19.5 -4h-115q-10 0 -13 8t-1 19
l15 101q3 20 18 20h127q7 0 9.5 -7t0.5 -16z" />
    <glyph glyph-name="fl" unicode="fl" horiz-adv-x="669" 
d="M403 530q10 0 13 -4t1 -11l-10 -77q-3 -14 -17 -14h-87q-8 0 -11 -15l-55 -395q-1 -9 -4 -11.5t-11 -2.5h-123q-7 0 -12 6.5t-4 15.5l56 394q2 8 -6 8h-77q-8 0 -9.5 6t-1.5 14l11 73q1 7 4 10t13 3h67q7 0 12 5.5t6 13.5l8 61q9 65 50 98.5t111 33.5h101q11 0 17.5 -5
t4.5 -14l-8 -72q-1 -12 -16 -12h-52q-22 0 -40 -15.5t-22 -40.5l-6 -42q-1 -11 12 -11h85v0zM578 20q-2 -14 -7 -17t-20 -3h-106q-13 0 -18 7t-4 18l103 702q1 10 3.5 12.5t10.5 2.5h126q13 0 10 -19z" />
    <glyph glyph-name=".notdef" horiz-adv-x="648" 
d="M521 -141q-2 -16 -9 -20t-24 -4h-448q-16 0 -21.5 8.5t-4.5 21.5l135 964q2 11 6.5 14.5t12.5 3.5h471q8 0 13.5 -8t3.5 -18l-135 -962v0zM599 784q2 8 -0.5 10.5t-9.5 2.5h-373q-7 0 -14 -7.5t-9 -16.5l-122 -872q-1 -10 2 -13t16 -3h353q14 0 23.5 8t11.5 21zM168 806
l53 27l280 -965l-58 -5z" />
    <glyph glyph-name="uni0000" 
 />
    <glyph glyph-name="uni0000" 
 />
    <glyph glyph-name="nonmarkingreturn" horiz-adv-x="333" 
 />
    <glyph glyph-name="CR" unicode="&#xd;" horiz-adv-x="206" 
 />
    <glyph glyph-name="space" unicode=" " horiz-adv-x="206" 
 />
    <glyph glyph-name="exclam" unicode="!" horiz-adv-x="264" 
d="M179 19q-1 -13 -6 -16t-20 -3h-118q-13 0 -18 7.5t-4 17.5l17 124q2 10 5 12t9 2h137q8 0 12.5 -6t3.5 -15zM180 250q-3 -12 -7.5 -15t-18.5 -3h-53q-12 0 -16.5 7t-3.5 17l28 472q0 9 3 11.5t10 2.5h147q6 0 11 -7t4 -14z" />
    <glyph glyph-name="quotedbl" unicode="&#x22;" horiz-adv-x="469" 
d="M382 470q-3 -13 -7.5 -16t-18.5 -3h-35q-12 0 -17 7t-4 17l2 254q0 9 3.5 11t9.5 2h121q8 0 12.5 -6.5t3.5 -14.5zM160 470q-3 -13 -7.5 -16t-18.5 -3h-35q-12 0 -17 7t-4 17l2 254q0 9 3.5 11t9.5 2h121q8 0 12.5 -6.5t3.5 -14.5z" />
    <glyph glyph-name="numbersign" unicode="#" horiz-adv-x="603" 
d="M149 20q-3 -14 -6.5 -17.5t-17.5 -1.5l-33 4q-12 2 -19 7.5t-4 15.5l202 699q3 9 6 12t9 2l49 -5q8 -1 13 -7t3 -14zM367 20q-3 -14 -6.5 -17.5t-17.5 -1.5l-33 4q-12 2 -19 7.5t-4 15.5l201 699q4 9 7 12t9 2l49 -5q8 -1 13 -7t3 -14zM551 248q-2 -12 -7 -15t-19 -3
h-489q-12 0 -17 7t-4 17l6 42q1 9 5.5 11t11.5 2h507q7 0 10 -6.5t2 -13.5zM614 458q-2 -12 -7.5 -15t-18.5 -3h-490q-12 0 -17 7t-3 17l6 42q1 9 5.5 11t11.5 2h507q7 0 10 -6.5t1 -13.5z" />
    <glyph glyph-name="dollar" unicode="$" horiz-adv-x="655" 
d="M612 206q-8 -57 -41 -102t-85.5 -73.5t-120.5 -34.5q-13 -1 -18.5 -6t-7.5 -15l-4 -35q-2 -12 -6.5 -15.5t-18.5 -3.5h-54q-12 0 -17 7.5t-4 17.5l6 40q1 9 0.5 9.5t-7.5 0.5q-75 4 -125.5 29t-87.5 69q-12 7 -16.5 14.5t3.5 14.5l69 65q9 9 16 5t11 -13
q25 -28 57.5 -47.5t76.5 -26.5q11 0 17 4.5t7 11.5l24 172q1 8 0 11t-7 7q-81 17 -126 49.5t-60.5 77t-7.5 97.5q7 51 37 92.5t81 70.5t120 42q8 0 18 6t11 14l5 38q1 6 3.5 7.5t6.5 1.5h67q10 0 15.5 -6.5t3.5 -16.5l-6 -40q0 -4 1.5 -5l4.5 -3q54 -10 94 -29.5t69 -47.5
q8 -2 11.5 -9t-3.5 -15l-64 -67q-7 -6 -12.5 -3.5t-11.5 13.5q-15 14 -38 27.5t-50 22.5q-8 1 -13.5 -5t-6.5 -11l-24 -169q-1 -5 0 -5.5t8 -3.5l54 -14q50 -16 85 -46.5t52 -73.5t9 -95v0zM332 624q2 6 0.5 6.5t-6.5 -2.5q-49 -7 -78 -32.5t-34 -59.5q-3 -18 3 -32.5
t22 -25.5t44 -22q12 -1 20 5.5t9 19.5zM357 109q0 -4 2 -2t6 3q48 4 79 29.5t36 60.5q4 30 -13.5 51.5t-64.5 35.5q-19 2 -22 -16l-23 -162v0z" />
    <glyph glyph-name="percent" unicode="%" horiz-adv-x="944" 
d="M292 753q54 0 93.5 -30t58 -80t10.5 -110q-8 -57 -38 -102.5t-74.5 -72t-96.5 -26.5q-55 0 -95.5 29t-59.5 78.5t-10 109.5q8 57 38.5 103.5t76 73.5t97.5 27v0zM242 410q28 0 48.5 17t33.5 48t18 73q9 61 -2.5 94t-47.5 33q-27 0 -47.5 -17.5t-34 -50t-19.5 -75.5
q-8 -58 3 -90t48 -32v0zM731 411q55 0 94.5 -30t58 -80t10.5 -110q-8 -57 -38 -102.5t-74.5 -72t-96.5 -26.5q-56 0 -96 29t-58.5 78.5t-10.5 109.5q9 57 39 103.5t75.5 73.5t96.5 27v0zM682 68q28 0 48.5 17t33.5 48t19 73q5 41 2 69t-16 43t-37 15q-26 0 -46.5 -17.5
t-34 -50t-20.5 -75.5q-5 -38 -1.5 -65.5t16.5 -42t36 -14.5v0zM228 3q-4 -6 -9.5 -6.5t-14.5 -0.5l-42 1q-13 0 -16 11t3 21l577 714q6 8 11 7.5t12 -0.5h52q7 0 13 -5.5t-1 -14.5z" />
    <glyph glyph-name="ampersand" unicode="&#x26;" horiz-adv-x="838" 
d="M438 753q67 0 116 -21t73.5 -58.5t17.5 -87.5q-4 -31 -26.5 -64.5t-59.5 -64.5t-86 -54q-23 -3 -15 -16l91 -116q5 -7 10.5 -2.5t12.5 15.5q14 12 28.5 27t28 31.5t24.5 34t18 33.5q5 5 10 4t13 -3l73 -25q9 -3 13.5 -13t0.5 -21q-13 -23 -33 -49t-44 -55.5t-54 -62.5
q-9 -5 -12 -8.5t2 -10.5q15 -10 34 -17.5t41 -12t45 -6.5q12 0 18 -6.5t4 -15.5l-11 -88q-2 -11 -6 -15.5t-13 -4.5q-48 0 -90.5 9.5t-77.5 26.5t-61 40q-10 4 -15.5 0.5t-12.5 -12.5q-56 -35 -115.5 -52t-127.5 -17q-118 0 -176.5 55t-45.5 151q8 57 52.5 105t137.5 99
q14 5 17.5 10.5t-2.5 17.5q-26 30 -38.5 68t-7.5 77q8 51 42.5 90.5t88.5 62t118 22.5v0zM444 660q-28 0 -50 -12.5t-35.5 -32t-16.5 -41.5q-2 -11 2.5 -26t13.5 -29l29 -39q3 -4 9.5 0t9.5 8q47 19 74 46t32 62q4 31 -15.5 47.5t-52.5 16.5v0zM317 318q-6 9 -13 5t-13 -10
q-38 -16 -64 -46t-31 -65q-5 -39 21.5 -66t70.5 -27q32 0 65.5 13.5t55.5 34.5q8 2 13 7.5t0 13.5l-105 140v0z" />
    <glyph glyph-name="quotesingle" unicode="'" horiz-adv-x="248" 
d="M197 470q-3 -13 -7.5 -16t-18.5 -3h-35q-12 0 -17 7t-4 17l2 254q0 9 3.5 11t9.5 2h121q8 0 12.5 -6.5t3.5 -14.5z" />
    <glyph glyph-name="parenleft" unicode="(" horiz-adv-x="314" 
d="M146 -165q-14 0 -16 18q-32 69 -54 136.5t-29 142t5 161.5q17 122 70 235t128 209q10 5 24 5h77q8 0 10.5 -7t0.5 -13q-42 -64 -78 -136t-61 -150.5t-37 -159.5q-15 -110 -3 -214.5t48 -220.5q7 -6 -5 -6h-80v0z" />
    <glyph glyph-name="parenright" unicode=")" horiz-adv-x="314" 
d="M-30 -165q-8 0 -11 7t0 13q42 64 77.5 136t61.5 150.5t37 159.5q15 111 3 215t-48 220q-8 6 4 6h81q13 0 16 -18q32 -69 53.5 -136.5t28.5 -142t-5 -161.5q-17 -122 -70 -235t-127 -209q-10 -5 -24 -5h-77v0z" />
    <glyph glyph-name="asterisk" unicode="*" horiz-adv-x="465" 
d="M270 468q-2 3 -5.5 -0.5t-4.5 -6.5l-93 -125q-3 -4 -8.5 -1.5t-11.5 6.5l-50 39q-5 5 -7.5 10t2.5 11l107 107q2 3 4 5.5t-4 3.5l-120 36q-6 1 -9 8t0 15l31 59q3 6 6 5.5t8 -3.5l113 -52q5 -3 10 2t6 10l9 137q0 4 1.5 6t8.5 2h73q6 0 10.5 -6.5t2.5 -10.5l-31 -138
q-2 -5 -1 -4t6 3l130 54q8 4 13 -1t6 -14l11 -58q2 -7 0.5 -10.5t-8.5 -5.5l-129 -37q-5 -1 -8.5 -5.5t-1.5 -7.5l73 -103q4 -5 4 -11t-9 -13l-54 -33q-8 -6 -15.5 -2t-8.5 9z" />
    <glyph glyph-name="plus" unicode="+" horiz-adv-x="583" 
d="M545 335q0 -11 -6 -14t-19 -3l-440 -1q-12 0 -17 7t-4 18l11 73q2 9 4 11.5t9 2.5h458q6 0 11 -6.5t4 -13.5zM244 130q-12 0 -18 8.5t-4 22.5l62 440q1 12 4.5 14t14.5 2h73q9 0 14.5 -6t3.5 -13l-63 -458q-1 -6 -4 -8t-10 -2h-73z" />
    <glyph glyph-name="comma" unicode="," horiz-adv-x="253" 
d="M-10 -156q-12 0 -4 17l65 109q9 16 6 23t-14 7h-20q-12 0 -15.5 3.5t-1.5 13.5l18 125q2 9 7 15.5t11 6.5h139q15 0 12 -16l-17 -116q-1 -6 -3 -11t-5 -8l-119 -147q-11 -13 -19 -17.5t-18 -4.5h-22v0z" />
    <glyph glyph-name="hyphen" unicode="-" horiz-adv-x="380" 
d="M325 226q-1 -12 -6.5 -15t-18.5 -3h-235q-12 0 -16.5 7t-4.5 17l11 73q2 9 4.5 11.5t9.5 2.5h252q7 0 12 -6.5t3 -13.5z" />
    <glyph glyph-name="period" unicode="." horiz-adv-x="251" 
d="M173 19q-2 -13 -6.5 -16t-20.5 -3h-118q-12 0 -17.5 7.5t-4.5 17.5l18 127q2 10 5 12t10 2h137q7 0 11.5 -6.5t2.5 -14.5z" />
    <glyph glyph-name="slash" unicode="/" horiz-adv-x="365" 
d="M-18 -17q-9 0 -13.5 6t-1.5 13l353 729q4 7 8.5 9t11.5 2h67q12 0 16.5 -8.5t-1.5 -21.5l-344 -712q-6 -12 -12 -14.5t-17 -2.5h-67v0z" />
    <glyph glyph-name="zero" unicode="0" horiz-adv-x="708" 
d="M418 753q80 0 139 -38.5t92.5 -108t33.5 -164.5q0 -19 -1.5 -39.5t-4.5 -41.5q-16 -114 -66 -197t-125 -128t-163 -45q-82 0 -142 37.5t-93 106t-33 162.5q0 19 1.5 39t4.5 41q12 85 44.5 154.5t80.5 119t107 76t125 26.5v0zM328 115q45 0 79.5 26.5t58 84t36.5 151.5
q4 33 6.5 60.5t2.5 50.5q0 76 -25.5 109.5t-73.5 33.5q-44 0 -79 -28t-59.5 -87.5t-37.5 -155.5q-4 -31 -6.5 -57.5t-2.5 -47.5q0 -75 26 -107.5t75 -32.5v0z" />
    <glyph glyph-name="one" unicode="1" horiz-adv-x="509" 
d="M440 129q16 0 14 -15l-14 -101q-1 -7 -4.5 -10t-14.5 -3h-400q-10 0 -13 3.5t-2 12.5l14 102q1 7 4.5 9t11.5 2h107q11 0 12 12l59 420q1 4 -0.5 6t-8.5 0l-106 -30q-22 -5 -19 16l11 74q1 11 4 14.5t11 7.5l178 83q15 7 23.5 8.5t20.5 1.5h73q14 0 11 -18l-83 -587
q-1 -8 7 -8h104v0z" />
    <glyph glyph-name="two" unicode="2" horiz-adv-x="644" 
d="M275 324q69 54 110 91.5t59.5 67.5t18.5 60q0 27 -11.5 45t-32 27t-49.5 9q-42 0 -86 -27.5t-79 -81.5q-5 -8 -14 -3l-108 63q-4 2 -3.5 8.5t9.5 18.5q54 73 132 111.5t164 38.5q75 0 130.5 -24t86 -68.5t30.5 -105.5q0 -55 -21 -98t-60 -80t-93 -77l-195 -143
q-7 -4 -7 -8t6 -4h302q20 0 17 -16l-15 -114q-1 -8 -4.5 -11t-14.5 -3h-521q-26 0 -23 26l11 76q1 7 4 12.5t13.5 15t33.5 26.5z" />
    <glyph glyph-name="three" unicode="3" horiz-adv-x="667" 
d="M114 633q-10 10 3 22q33 29 76 51t92.5 34t100.5 12q124 0 192 -49t68 -128q0 -41 -20.5 -77.5t-54 -63.5t-73.5 -39q-6 -2 -6.5 -5.5t5.5 -5.5q56 -15 89.5 -56t33.5 -97q0 -79 -42.5 -133t-118 -81t-173.5 -27q-68 0 -120.5 17.5t-89.5 47.5t-59 66q-8 14 -2 19l90 60
q7 4 11 3t6 -4q39 -46 78.5 -66t93.5 -20q43 0 78.5 15t56.5 42t21 62q0 28 -16 48t-44 31t-63 11l-93 1q-12 0 -11 12l13 101q1 8 16 8l69 2q41 0 76 16t56 42t21 58q0 30 -26 50t-70 20q-35 0 -63.5 -9.5t-55 -26t-56.5 -39.5q-11 -8 -20 1l-69 75v0z" />
    <glyph glyph-name="four" unicode="4" horiz-adv-x="689" 
d="M426 726q11 10 17.5 13t22.5 3h130q16 0 14 -17l-60 -424q-1 -7 7 -7h86q9 0 13 -2.5t2 -11.5l-13 -91q-1 -8 -4.5 -11t-14.5 -3h-83q-11 0 -13 -13l-19 -143q-2 -12 -7 -15.5t-19 -3.5h-130q-24 0 -21 19l21 148q1 8 -8 8h-306q-19 0 -16 17l12 89q2 10 8.5 20.5
t21.5 27.5l359 397v0zM362 294q12 0 13 12l35 247q3 17 -13 -2l-215 -245q-6 -7 -5.5 -9.5t6.5 -2.5h179z" />
    <glyph glyph-name="five" unicode="5" horiz-adv-x="676" 
d="M633 742q13 0 16 -5t0 -17l-19 -104q-2 -8 -6 -11t-16 -3h-319q-8 0 -12 -3t-6 -12l-30 -132q-1 -4 0.5 -6t7.5 0q41 13 74 21t73 8q69 0 123.5 -23.5t85 -68.5t30.5 -112q0 -89 -43.5 -152.5t-119 -97.5t-170.5 -34q-66 0 -120 16.5t-95 45.5t-66 66q-7 11 -6 16.5
t9 9.5l90 59q6 4 11.5 0.5t13.5 -12.5q27 -31 59.5 -54.5t89.5 -23.5q52 0 91.5 20t61.5 54.5t22 75.5q0 28 -13.5 48.5t-38.5 31.5t-62 11q-24 0 -46.5 -5.5t-44 -15.5t-44.5 -22q-7 -3 -12.5 -2.5t-12.5 4.5l-90 53q-8 5 -8.5 14.5t2.5 21.5l75 321q3 13 8.5 16t26.5 3
h430z" />
    <glyph glyph-name="six" unicode="6" horiz-adv-x="685" 
d="M433 751q42 0 81 -12t70 -33t50.5 -47.5t22.5 -56.5q1 -8 -8 -11l-110 -35q-9 -2 -22 20q-14 24 -33 38.5t-54 14.5q-52 0 -91.5 -26t-64 -71t-33.5 -104q-1 -4 -1 -6.5v-4.5q0 -3 2.5 -3.5t9.5 2.5q34 16 73.5 27t86.5 11q72 0 124 -25t80 -68.5t28 -101.5
q0 -59 -26 -108t-70.5 -85t-101.5 -55.5t-120 -19.5q-86 0 -147 36t-93.5 102t-32.5 155q0 19 1.5 38.5t4.5 41.5q17 121 69 207.5t130.5 133t174.5 46.5v0zM372 339q-22 0 -47 -5.5t-47 -14t-36 -16.5q-16 -10 -20 -27.5t-4 -43.5t6.5 -48.5t19.5 -40.5t33 -27.5t48 -9.5
q40 0 73.5 21t53.5 54.5t20 70.5q0 41 -28 64t-72 23v0z" />
    <glyph glyph-name="seven" unicode="7" horiz-adv-x="619" 
d="M628 742q15 0 19 -8.5t2 -17.5l-10 -55q-3 -16 -11 -31t-19 -28q-44 -54 -85.5 -115.5t-78 -126.5t-66 -127t-50.5 -117t-30 -97q-3 -11 -7 -15t-14 -4h-159q-11 0 -16 9.5t0 23.5q23 53 52.5 112.5t68.5 126.5t92.5 145.5t123.5 171.5q5 6 4 9.5t-11 3.5h-334
q-12 0 -15.5 6t-0.5 14l26 107q2 8 7 10.5t15 2.5h497z" />
    <glyph glyph-name="eight" unicode="8" horiz-adv-x="683" 
d="M399 752q75 0 132 -24.5t89 -67t32 -98.5q0 -35 -12 -61t-31.5 -46t-41 -34t-39.5 -25q-6 -4 -6.5 -6.5t6.5 -7.5q13 -8 31.5 -19t36 -28.5t29.5 -44t12 -66.5q0 -58 -26.5 -102t-74 -73t-108.5 -44t-130 -15q-80 0 -141 20.5t-94.5 60.5t-33.5 98q0 43 17.5 77t49.5 62
t76 50q7 3 8 7t-7 9q-18 14 -36 29.5t-29 40t-11 61.5q0 67 38 123t105.5 90t158.5 34v0zM400 637q-41 0 -72.5 -15.5t-48.5 -40.5t-17 -53q0 -23 13 -38.5t44 -25.5l74 -23q19 -6 38 3t36.5 27.5t27.5 41t10 44.5q0 37 -28.5 58.5t-76.5 21.5v0zM305 105q51 0 86.5 14
t53.5 38t18 55q0 26 -15 44t-53 30l-92 29q-15 5 -36.5 -4t-41 -28t-33 -44t-13.5 -53q0 -38 33 -59.5t93 -21.5v0z" />
    <glyph glyph-name="nine" unicode="9" horiz-adv-x="684" 
d="M282 -9q-51 0 -90.5 14t-68 35.5t-46 47t-22.5 47.5q-2 11 8 16l108 33q16 5 24 -15q14 -26 34 -41t57 -15q51 0 90 25.5t63.5 70.5t32.5 105q1 10 -2.5 11.5t-13.5 -2.5q-35 -16 -70.5 -25.5t-82.5 -9.5q-72 0 -124 25t-80 69t-28 101q0 60 26 109t71 84.5t102 55
t119 19.5q86 0 147 -36t93 -101.5t32 -155.5q0 -92 -26 -176.5t-75 -149.5t-119.5 -103t-158.5 -38v0zM342 403q23 0 45.5 5t43.5 14t38 20q18 10 23 27t5 42q0 26 -6.5 48.5t-19.5 40t-33 27t-47 9.5q-40 0 -73.5 -21t-54 -54t-20.5 -71q0 -41 28 -64t71 -23v0z" />
    <glyph glyph-name="colon" unicode=":" horiz-adv-x="251" 
d="M223 374q-2 -12 -7 -15.5t-20 -3.5h-118q-12 0 -17.5 7.5t-4.5 18.5l17 123q2 9 5.5 11.5t9.5 2.5h137q8 0 12.5 -6.5t2.5 -14.5zM173 22q-1 -12 -6 -15.5t-21 -3.5h-118q-12 0 -17.5 7.5t-3.5 18.5l17 123q2 10 5 12t10 2h137q7 0 11.5 -6t2.5 -15z" />
    <glyph glyph-name="semicolon" unicode=";" horiz-adv-x="259" 
d="M-2 -159q-8 0 -13 8.5t-2 16.5l66 112q6 12 7.5 17t-9.5 5h-18q-12 0 -17 7t-4 17l17 127q2 9 5 11t10 2h137q8 0 12 -6.5t3 -14.5l-17 -120q-1 -9 -4 -14l-119 -154q-8 -8 -17.5 -11t-18.5 -3h-18v0zM77 350q-12 0 -17.5 7t-4.5 18l18 127q2 9 5 11.5t10 2.5h137
q7 0 11.5 -6.5t3.5 -14.5l-18 -126q-2 -13 -6.5 -16t-20.5 -3h-118v0z" />
    <glyph glyph-name="less" unicode="&#x3c;" horiz-adv-x="577" 
d="M499 133q-2 -16 -10.5 -18t-19.5 3l-400 163q-9 4 -15.5 12t-4.5 18l12 89q1 12 7 17t16 9l445 164q14 5 23.5 -4.5t7.5 -21.5l-11 -76q-1 -13 -9.5 -20t-27.5 -14l-290 -103l254 -104q18 -7 27 -16.5t6 -23.5z" />
    <glyph glyph-name="equal" unicode="=" horiz-adv-x="583" 
d="M560 432q-2 -11 -7.5 -14t-18.5 -3h-440q-12 0 -17 6.5t-4 17.5l10 73q2 9 4.5 11.5t9.5 2.5h458q6 0 11 -6.5t4 -13.5zM526 198q-1 -12 -6.5 -15t-18.5 -3h-440q-12 0 -17 7t-4 17l10 73q2 9 4.5 11.5t9.5 2.5h458q6 0 11 -6.5t4 -13.5z" />
    <glyph glyph-name="greater" unicode="&#x3e;" horiz-adv-x="577" 
d="M53 216q1 15 9 21t28 13l289 101l-254 105q-37 16 -33 41l11 76q4 25 30 14l399 -164q9 -3 16 -11.5t5 -20.5l-13 -89q-1 -10 -6.5 -15t-15.5 -9l-445 -163q-13 -5 -23 3t-8 24l11 74v0z" />
    <glyph glyph-name="question" unicode="?" horiz-adv-x="536" 
d="M299 19q-2 -13 -7 -16t-20 -3h-118q-13 0 -18 7.5t-4 17.5l18 124q1 10 3.5 12t10.5 2h137q7 0 12 -6t3 -15zM64 579q-8 2 -10 10.5t1 18.5q43 70 112.5 107t158.5 37q76 0 128.5 -24.5t78.5 -66.5t19 -92q-7 -46 -31.5 -78.5t-57 -58.5t-65.5 -51.5t-57.5 -57.5
t-31.5 -77q-2 -11 -18 -11h-82q-10 0 -16 8.5t-4 22.5q7 52 29.5 89.5t51.5 66t57.5 52.5t48.5 48.5t24 55.5q5 32 -17 50.5t-60 18.5q-28 0 -55 -11.5t-50 -31.5t-37 -48q-5 -5 -8 -4t-12 3z" />
    <glyph glyph-name="at" unicode="@" horiz-adv-x="834" 
d="M624 -52q-41 -24 -103 -42.5t-137 -18.5q-93 0 -163 30t-114 83t-61.5 122t-6.5 148q11 80 49.5 150.5t99 124.5t139.5 85t172 31q69 0 132 -19.5t110 -60t69.5 -103t10.5 -148.5q-10 -74 -42.5 -130t-80 -87.5t-104.5 -31.5q-30 0 -50 8.5t-30 20.5t-13 25
q-3 3 -6.5 -1.5t-7.5 -13.5q-26 -23 -61 -38t-77 -15q-44 0 -77 23t-48 65t-7 97q8 59 39.5 110t80 82t108.5 31q44 0 67 -17t35 -40q4 0 8.5 4.5t5.5 9.5l6 14q1 4 2.5 3.5t5.5 -0.5h70q5 0 8 -4t2 -8l-66 -212q-11 -35 -6 -46.5t21 -11.5q26 0 52 20t46 58.5t28 95.5
q9 67 -6.5 112.5t-49 72.5t-79 39t-96.5 12q-83 0 -147.5 -26t-110 -70.5t-73 -102.5t-36.5 -123q-10 -69 3.5 -122.5t48 -90.5t88.5 -57t126 -20q45 0 76.5 8t56.5 21t49 29q10 3 15 -1t6 -9l28 -42q3 -6 1.5 -11.5t-6.5 -11.5v0zM324 246q-5 -37 7.5 -62t45.5 -25
q30 0 57.5 18.5t46.5 47.5t26 62q7 29 1.5 50.5t-19.5 33.5t-37 12q-29 0 -56.5 -18t-46.5 -49.5t-25 -69.5v0z" />
    <glyph glyph-name="A" unicode="A" horiz-adv-x="771" 
d="M4 0q-9 0 -10 8t7 25l347 693q6 11 13.5 13.5t18.5 2.5h150q11 0 16 -8t6 -18l150 -693q2 -8 -1 -15.5t-12 -7.5h-146q-14 0 -17 18l-31 145q-1 8 -12 8h-242q-11 0 -17 -12l-76 -150q-2 -6 -5.5 -7.5t-12.5 -1.5h-126v0zM461 304q15 0 11 17l-52 231q-1 10 -5.5 10
t-9.5 -10l-116 -233q-4 -10 -2.5 -12.5t8.5 -2.5h166z" />
    <glyph glyph-name="B" unicode="B" horiz-adv-x="723" 
d="M48 0q-9 0 -11.5 5t-0.5 18l98 702q3 17 21 17h270q135 0 207 -44.5t72 -128.5q0 -74 -43 -119t-112 -68q-7 -1 -7.5 -4.5t4.5 -5.5q65 -19 96 -55.5t31 -92.5q0 -67 -27.5 -111t-75 -68.5t-106 -34.5t-120.5 -10h-296v0zM345 118q27 0 53.5 7t48.5 22.5t35 38t13 54.5
q0 25 -13.5 41.5t-37.5 24.5t-57 8h-119q-9 0 -13 -3.5t-6 -13.5l-23 -165q-1 -8 1.5 -11t8.5 -3h109zM397 436q35 0 64.5 13.5t48.5 39.5t19 61q0 37 -29.5 55.5t-79.5 18.5h-106q-11 0 -15.5 -4.5t-6.5 -13.5l-21 -156q-1 -9 1 -11.5t8 -2.5h117z" />
    <glyph glyph-name="C" unicode="C" horiz-adv-x="725" 
d="M445 752q80 0 140 -30.5t94.5 -82t36.5 -116.5q0 -19 -15 -19l-130 -8q-14 -1 -15 24q-4 48 -30.5 79t-81.5 31q-49 0 -84.5 -23t-60 -61.5t-38.5 -85t-20.5 -94.5t-6.5 -90q0 -83 31.5 -120t95.5 -37q60 0 108 30t82 97q6 14 25 9l104 -26q11 -3 1 -31q-9 -19 -26.5 -46
t-45 -55.5t-66 -52.5t-86.5 -39t-107 -15q-93 0 -159.5 39.5t-101 110.5t-34.5 165q0 68 15.5 133.5t46.5 122t78 100t109.5 67.5t140.5 24v0z" />
    <glyph glyph-name="D" unicode="D" horiz-adv-x="751" 
d="M59 0q-12 0 -18 8t-4 21l97 697q2 10 6 13t15 3h211q121 0 201 -37.5t120 -106t40 -159.5q0 -134 -54 -233t-154 -152.5t-241 -53.5h-219v0zM297 123q87 0 142 42t80.5 115t25.5 169q0 59 -20.5 96.5t-59 55t-95.5 17.5h-60q-16 0 -18 -17l-63 -460q-1 -9 1.5 -13.5
t10.5 -4.5h56z" />
    <glyph glyph-name="E" unicode="E" horiz-adv-x="654" 
d="M135 727q2 10 4.5 12.5t10.5 2.5h507q16 0 12 -22l-13 -89q-1 -10 -5.5 -13.5t-15.5 -3.5h-327q-7 0 -10.5 -3t-5.5 -12l-21 -150q-1 -8 1 -10.5t8 -2.5h219q9 0 11 -3.5t1 -10.5l-14 -101q-1 -11 -14 -11h-221q-11 0 -13 -14l-22 -156q-1 -12 7 -12h347q9 0 11.5 -3
t0.5 -12l-13 -100q-1 -7 -4 -10t-13 -3h-507q-23 0 -20 25l99 702v0z" />
    <glyph glyph-name="F" unicode="F" horiz-adv-x="631" 
d="M135 727q2 10 5 12.5t10 2.5h502q12 0 10 -16l-14 -95q-1 -10 -4.5 -13.5t-15.5 -3.5h-323q-6 0 -9 -3.5t-5 -15.5l-22 -156q-1 -7 1 -9.5t9 -2.5h225q7 0 9 -2.5t1 -8.5l-14 -101q-1 -8 -4 -10.5t-13 -2.5h-221q-7 0 -10 -3t-5 -15l-37 -266q-1 -12 -5 -15t-16 -3h-138
q-13 0 -15 4.5t0 20.5l99 702v0z" />
    <glyph glyph-name="G" unicode="G" horiz-adv-x="752" 
d="M345 -10q-91 0 -156.5 38t-100 107.5t-34.5 163.5q0 93 28 175t80 144.5t124.5 98t162.5 35.5q84 0 144.5 -32t94 -82t34.5 -106q0 -19 -7 -20l-137 -20q-5 -1 -7.5 4.5t-5.5 20.5q-3 31 -17.5 56.5t-40.5 40.5t-65 15q-57 0 -96 -32t-64 -84t-36.5 -115t-11.5 -124
q0 -88 34 -124.5t94 -36.5q33 0 60 10t47 27t34.5 38t23.5 42l6 28q7 13 -9 13h-123q-10 0 -9 13l9 82q1 11 10 11l286 -1q12 0 15.5 -3.5t1.5 -13.5l-49 -346q-2 -13 -16 -13h-30q-16 0 -21 15l-17 72q-3 7 -8 6t-12 -8q-18 -22 -47.5 -44t-70.5 -36.5t-98 -14.5v0z" />
    <glyph glyph-name="H" unicode="H" horiz-adv-x="751" 
d="M265 317q-6 0 -9.5 -3.5t-5.5 -13.5l-40 -281q-1 -13 -6.5 -16t-18.5 -3h-133q-13 0 -15.5 4t-1.5 15l100 708q2 10 5 12.5t10 2.5h150q7 0 9 -3t0 -12l-36 -262q-1 -9 1 -11.5t9 -2.5h237q8 0 11 6.5t4 14.5l37 257q2 9 5 11t10 2h149q7 0 9 -4.5t0 -19.5l-99 -702
q-1 -11 -4 -13.5t-16 -2.5h-133q-13 0 -17.5 5t-2.5 18l39 286q1 8 -12 8h-235z" />
    <glyph glyph-name="I" unicode="I" horiz-adv-x="315" 
d="M296 742q15 0 12 -22l-98 -700q-1 -14 -6.5 -17t-19.5 -3h-131q-13 0 -15.5 7t-1.5 18l99 702q2 10 5 12.5t10 2.5h146z" />
    <glyph glyph-name="J" unicode="J" horiz-adv-x="447" 
d="M372 188q-10 -72 -38.5 -115.5t-76 -63t-115.5 -19.5q-36 0 -66.5 5.5t-53.5 12.5q-15 4 -20 8.5t-4 12.5l25 102q1 9 5 12t12 1q14 -3 29 -6.5t34 -3.5q42 0 67.5 25t33.5 81l69 488q1 9 4 11.5t11 2.5h147q15 0 11 -22l-74 -532v0z" />
    <glyph glyph-name="K" unicode="K" horiz-adv-x="744" 
d="M673 21q9 -21 -12 -21h-150q-19 0 -23 20l-118 314q-3 7 -7.5 2t-11.5 -14l-104 -106q-4 -4 -7.5 -9t-4.5 -13l-25 -175q-1 -11 -6.5 -15t-18.5 -4h-133q-11 0 -14 7t-2 18l99 703q2 9 5 11.5t10 2.5h144q7 0 11.5 -6.5t3.5 -15.5l-42 -298q-2 -10 1.5 -6t8.5 10l285 303
q8 9 14.5 11t20.5 2h133q14 0 16 -5.5t-6 -14.5l-230 -231q-6 -6 -8.5 -11t-1.5 -14l173 -445v0z" />
    <glyph glyph-name="L" unicode="L" horiz-adv-x="627" 
d="M134 725q3 17 16 17h148q15 0 10 -22l-80 -577q-3 -15 9 -15h321q16 0 13 -20l-13 -95q-1 -8 -5 -10.5t-13 -2.5h-484q-23 0 -20 25l98 700v0z" />
    <glyph glyph-name="M" unicode="M" horiz-adv-x="949" 
d="M49 0q-10 0 -12.5 5t0.5 22l98 700q2 11 4.5 13t11.5 2h208q10 0 15 -4.5t7 -13.5l93 -419q1 -7 4.5 -6t6.5 7l206 417q7 19 22 19h219q14 0 12 -15l-100 -708q-1 -13 -6 -16t-18 -3h-128q-13 0 -18.5 5t-3.5 20l69 489q2 7 -1 7t-7 -8l-245 -501q-4 -7 -8.5 -9.5
t-12.5 -2.5h-84q-9 0 -13.5 4t-6.5 16l-103 490q-2 8 -6 8t-6 -7l-70 -497q-1 -9 -4.5 -11.5t-12.5 -2.5h-110v0z" />
    <glyph glyph-name="N" unicode="N" horiz-adv-x="759" 
d="M744 742q12 0 10 -15l-101 -716q-1 -11 -16 -11h-102q-7 0 -12 4t-11 12l-258 447q-3 6 -7 5t-6 -11l-62 -441q-1 -10 -5 -13t-15 -3h-110q-9 0 -12 6t-2 16l100 705q2 10 5 12.5t12 2.5h121q11 0 16.5 -4.5t9.5 -14.5l236 -417q5 -9 11.5 -7.5t7.5 11.5l58 419q2 9 5 11
t12 2h115z" />
    <glyph glyph-name="O" unicode="O" horiz-adv-x="774" 
d="M355 -10q-95 0 -162 36.5t-102.5 105.5t-35.5 165q0 18 1 38.5t4 41.5q17 117 70 201t135 129t185 45q93 0 160 -37.5t102.5 -107.5t35.5 -167q0 -18 -1 -38t-5 -41q-16 -116 -68.5 -199t-134 -127.5t-184.5 -44.5v0zM360 113q85 0 133.5 62.5t67.5 199.5q4 29 6 53.5
t2 45.5q0 81 -30 118.5t-93 37.5q-84 0 -134.5 -65.5t-70.5 -206.5q-4 -27 -6 -50.5t-2 -43.5q0 -79 31.5 -115t95.5 -36v0z" />
    <glyph glyph-name="P" unicode="P" horiz-adv-x="715" 
d="M261 284q-8 0 -11.5 -4t-4.5 -11l-35 -250q-1 -13 -6.5 -16t-18.5 -3h-135q-19 0 -14 25l99 702q2 9 4.5 12t10.5 3h299q75 0 134.5 -22t94.5 -67t35 -114q0 -81 -39.5 -138t-107.5 -87t-154 -30h-151zM535 539q0 41 -29 59t-78 18h-116q-11 0 -15 -4t-6 -14l-24 -174
q-1 -10 1.5 -12.5t8.5 -2.5h122q40 0 70.5 17.5t48 47t17.5 65.5v0z" />
    <glyph glyph-name="Q" unicode="Q" horiz-adv-x="775" 
d="M60 377q17 118 70 201.5t135 128.5t184 45q94 0 161 -37.5t103 -107t36 -166.5q0 -19 -1.5 -39t-4.5 -41q-14 -100 -53.5 -174t-104.5 -124q-11 -8 -8 -15q4 -10 18.5 -20.5t35 -19t43.5 -11.5q8 -1 11.5 -4.5t1.5 -9.5l-13 -90q-1 -12 -7 -15.5t-26 -3.5q-36 0 -71.5 12
t-67 39t-55.5 69q-6 9 -19 5q-19 -5 -37.5 -7t-35.5 -2q-94 0 -161.5 36.5t-103 105.5t-35.5 165q0 19 1 39.5t4 40.5v0zM241 359q-4 -28 -6 -52t-2 -44q0 -79 31.5 -114.5t95.5 -35.5q84 0 133.5 62.5t68.5 200.5q4 28 6 52.5t2 45.5q0 80 -30.5 118t-94.5 38
q-84 0 -134 -65.5t-70 -205.5v0z" />
    <glyph glyph-name="R" unicode="R" horiz-adv-x="722" 
d="M637 23q8 -23 -14 -23h-147q-8 0 -13.5 5t-7.5 16l-69 281q-1 6 -4 8t-12 2h-106q-12 0 -14 -12l-40 -281q-1 -13 -7.5 -16t-20.5 -3h-127q-13 0 -16.5 7.5t-2.5 17.5l99 702q2 10 4.5 12.5t10.5 2.5h312q124 0 191 -47t67 -133q0 -51 -20 -95.5t-55.5 -78t-84.5 -50.5
q-10 -4 -12.5 -7.5t-1.5 -8.5l91 -299v0zM401 430q42 0 73 15t48 42t17 64t-26.5 55.5t-71.5 18.5h-133q-12 0 -15 -17l-24 -165q-1 -8 2 -10.5t8 -2.5h122v0z" />
    <glyph glyph-name="S" unicode="S" horiz-adv-x="677" 
d="M543 574q-20 22 -56 39t-91 17q-41 0 -72 -11t-48.5 -32.5t-17.5 -50.5q0 -16 9 -29.5t25.5 -24t38.5 -17.5l151 -52q78 -26 115 -66.5t37 -101.5q0 -82 -43.5 -139t-117.5 -86.5t-166 -29.5q-108 0 -180 36t-107 100q-4 10 -4 15.5t8 10.5l79 48q12 8 21 4.5t16 -12.5
q23 -27 45 -46.5t53.5 -29t83.5 -9.5q39 0 70.5 9.5t51 31t19.5 56.5q0 25 -18 42t-58 30l-146 49q-73 24 -110 70.5t-37 106.5q0 57 24.5 103t67.5 79t98.5 50.5t118.5 17.5q60 0 109 -15t85.5 -39t58.5 -55q7 -8 7.5 -14t-6.5 -10l-89 -59q-5 -3 -11 1.5t-14 12.5v0z" />
    <glyph glyph-name="T" unicode="T" horiz-adv-x="681" 
d="M99 728q1 8 4.5 11t13.5 3h582q10 0 12.5 -3.5t0.5 -10.5l-14 -101q-1 -7 -5 -9t-12 -2h-187q-9 0 -12 -3t-4 -11l-83 -586q-1 -9 -5 -12.5t-11 -3.5h-142q-11 0 -14.5 5t-1.5 17l82 582q1 12 -10 12h-194q-16 0 -14 13z" />
    <glyph glyph-name="U" unicode="U" horiz-adv-x="721" 
d="M660 270q-15 -105 -59 -166.5t-113.5 -87.5t-159.5 -26q-143 0 -205.5 59t-62.5 170q0 19 1.5 38.5t4.5 40.5l61 429q1 10 4 12.5t10 2.5h143q9 0 13.5 -7t2.5 -15l-63 -454q-1 -12 -2.5 -22.5t-1.5 -20.5q0 -58 29.5 -83t83.5 -25q43 0 78.5 16.5t59.5 52.5t33 94
l63 450q2 9 4.5 11.5t9.5 2.5h114q8 0 12.5 -7t2.5 -15l-63 -450v0z" />
    <glyph glyph-name="V" unicode="V" horiz-adv-x="733" 
d="M757 742q21 0 11 -21l-342 -704q-5 -11 -11.5 -14t-19.5 -3h-125q-13 0 -19.5 3.5t-8.5 13.5l-143 705q-5 20 14 20h147q14 0 17 -21l93 -501q3 -17 11 -1l233 510q4 8 9 10.5t12 2.5h122v0z" />
    <glyph glyph-name="W" unicode="W" horiz-adv-x="1084" 
d="M1102 742q16 0 17.5 -7.5t-6.5 -27.5l-302 -690q-6 -11 -11.5 -14t-18.5 -3h-108q-13 0 -20 3.5t-8 14.5l-67 441q-1 7 -3.5 7t-6.5 -7l-191 -442q-5 -11 -11 -14t-19 -3h-113q-24 0 -27 20l-108 694q-2 14 2.5 21t19.5 7h127q13 0 18 -6t6 -15l65 -452q2 -9 5 -9.5
t7 9.5l195 460q4 8 9 10.5t18 2.5h110q13 0 16.5 -5.5t4.5 -15.5l67 -458q1 -6 5 -6t7 8l193 464q3 8 8 10.5t18 2.5h102v0z" />
    <glyph glyph-name="X" unicode="X" horiz-adv-x="729" 
d="M653 35q11 -22 8 -28.5t-19 -6.5h-139q-11 0 -18 3t-11 12l-111 231q-5 10 -9.5 9.5t-11.5 -10.5l-178 -233q-5 -9 -13 -10.5t-20 -1.5h-117q-16 0 -18.5 10t13.5 33l256 321q9 9 11 15.5t-2 16.5l-167 326q-4 9 -1.5 14.5t13.5 5.5h146q13 0 18.5 -3t9.5 -13l97 -204
q6 -15 17 0l158 208q6 8 12 10t18 2h129q14 0 13 -10.5t-7 -18.5l-248 -308q-9 -10 -9.5 -15.5t2.5 -12.5l178 -342v0z" />
    <glyph glyph-name="Y" unicode="Y" horiz-adv-x="735" 
d="M759 742q11 0 13 -6.5t-3 -14.5l-292 -388q-7 -8 -10.5 -18.5t-6.5 -35.5l-37 -259q-2 -14 -7.5 -17t-19.5 -3h-132q-11 0 -14 5t-2 16l39 274q2 13 1 20t-5 16l-183 391q-5 10 -2.5 15t15.5 5h150q12 0 17 -5.5t10 -15.5l112 -261q5 -13 14 0l189 268q7 10 11.5 12
t16.5 2h126v0z" />
    <glyph glyph-name="Z" unicode="Z" horiz-adv-x="681" 
d="M21 0q-12 0 -17 4.5t-4 16.5l5 40q2 11 5.5 19t14.5 21l412 502q6 7 6.5 8.5t-7.5 1.5h-306q-20 0 -17 24l13 93q2 8 4.5 10t8.5 2h557q14 0 12 -18l-7 -44q-1 -9 -3.5 -15t-10.5 -17l-424 -510q-8 -8 2 -8h340q9 0 12 -2.5t1 -11.5l-15 -103q-1 -7 -4 -10t-13 -3h-565v0
z" />
    <glyph glyph-name="bracketleft" unicode="[" horiz-adv-x="316" 
d="M30 -165q-10 0 -17 8t-6 17l122 869q1 9 4.5 11t14.5 2h205q6 0 10.5 -4.5t2.5 -10.5l-9 -65q-1 -6 -2.5 -6.5t-7.5 -0.5h-80q-10 0 -17.5 -7.5t-9.5 -18.5l-98 -695q-1 -10 1 -11t12 -1h80q8 0 12.5 -6t3.5 -12l-9 -58q-1 -9 -2.5 -10t-10.5 -1h-199v0z" />
    <glyph glyph-name="backslash" unicode="\" horiz-adv-x="365" 
d="M242 -17q-23 0 -26 24l-144 712q-4 14 -1.5 18.5t13.5 4.5h68q7 0 13 -6t7 -12l148 -730q1 -7 -0.5 -9t-10.5 -2h-67v0z" />
    <glyph glyph-name="bracketright" unicode="]" horiz-adv-x="316" 
d="M-29 -165q-7 0 -11 4.5t-3 10.5l9 65q1 6 3 6.5t8 0.5h79q11 0 18.5 7.5t8.5 18.5l98 695q1 11 -0.5 11.5t-11.5 0.5h-81q-7 0 -11.5 6t-3.5 12l8 58q2 9 3.5 10t9.5 1h200q11 0 17.5 -8t5.5 -17l-122 -869q-1 -9 -4.5 -11t-14.5 -2h-205v0z" />
    <glyph glyph-name="asciicircum" unicode="^" horiz-adv-x="475" 
d="M261 364q-2 9 -8.5 5.5t-10.5 -13.5l-125 -226q-3 -6 -7.5 -5.5t-12.5 0.5h-68q-8 0 -11.5 7.5t0.5 16.5l203 359q13 23 33 29.5t38 -3t24 -33.5l103 -362q3 -9 1 -11.5t-11 -2.5h-65q-7 0 -14.5 3t-8.5 9z" />
    <glyph glyph-name="underscore" unicode="_" horiz-adv-x="544" 
d="M441 -125q-1 -12 -6.5 -15t-19.5 -3h-400q-12 0 -17 7t-3 17l10 73q2 9 4.5 11.5t9.5 2.5h417q7 0 12 -6.5t3 -13.5z" />
    <glyph glyph-name="grave" unicode="`" horiz-adv-x="306" 
d="M99 741q4 7 9 8.5t11 -0.5l220 -98q7 -4 9 -8t-1 -12l-17 -38q-4 -7 -8.5 -7.5t-14.5 1.5l-223 62q-13 3 -16 8.5t1 14.5l30 69v0z" />
    <glyph glyph-name="a" unicode="a" horiz-adv-x="563" 
d="M321 49q-32 -31 -74.5 -45t-89.5 -14q-71 0 -110.5 36.5t-39.5 93.5t29.5 95.5t76 62.5t102 35t106.5 12l36 3q19 0 22 19l3 21q1 4 1 8.5v7.5q0 30 -18 45t-51 15q-32 0 -63 -13t-54 -49q-3 -5 -7.5 -6.5t-14.5 0.5l-97 23q-6 2 -9.5 9t4.5 24q33 56 97 82t152 26
q75 0 121 -18t67 -50t21 -75q0 -7 -0.5 -14t-1.5 -15l-50 -350q-1 -13 -4 -15.5t-14 -2.5h-103q-10 0 -13 7t-4 19l1 26q-2 18 -21 -3v0zM364 241q1 8 -0.5 10.5t-9.5 1.5l-36 -3q-21 -1 -48 -7t-52 -17.5t-41.5 -31.5t-16.5 -50q0 -23 17 -38t48 -15q28 0 50.5 8t38.5 20
q17 13 28 27.5t13 29.5z" />
    <glyph glyph-name="b" unicode="b" horiz-adv-x="609" 
d="M44 0q-13 0 -18 7.5t-4 18.5l99 701q1 10 4.5 12.5t9.5 2.5h129q8 0 9.5 -7t-0.5 -16l-31 -226q-1 -8 2 -9t11 6q19 14 41 25.5t48 18t55 6.5q61 0 100.5 -26.5t60 -74t20.5 -112.5q0 -58 -15 -117.5t-47 -109.5t-82 -80t-120 -30q-36 0 -64 11.5t-49 30.5t-34 41
q-3 5 -8.5 4t-9.5 -13l-14 -46q-3 -11 -8 -14.5t-15 -3.5h-70zM197 178q-3 -29 6.5 -50.5t29 -32.5t44.5 -11q42 0 71 26t45.5 65t24.5 82.5t8 78.5q0 55 -20.5 80.5t-60.5 25.5q-35 0 -64.5 -16.5t-52.5 -40.5z" />
    <glyph glyph-name="c" unicode="c" horiz-adv-x="551" 
d="M330 540q66 0 109.5 -24t68 -60.5t30.5 -75.5q0 -8 -2.5 -11t-12.5 -4l-101 -9q-6 -1 -9 5t-5 16q-8 17 -16 31t-21.5 22.5t-37.5 8.5q-40 0 -69 -22.5t-47 -58.5t-26.5 -76.5t-8.5 -75.5q0 -60 25.5 -88.5t71.5 -28.5q47 0 76.5 21.5t58.5 65.5q4 5 16 2l71 -17
q7 -1 9.5 -8t-1.5 -19q-11 -20 -31 -45t-50.5 -47.5t-71 -37t-91.5 -14.5q-71 0 -124.5 29.5t-83 82t-29.5 122.5q0 62 21.5 119t61 101.5t95.5 70t124 25.5v0z" />
    <glyph glyph-name="d" unicode="d" horiz-adv-x="609" 
d="M389 0q-8 0 -14.5 4t-5.5 14l5 29q2 8 -2 9t-12 -6q-18 -15 -40 -29t-49.5 -22.5t-61.5 -8.5q-81 0 -131 53.5t-50 158.5q0 65 18 125t52 108.5t81.5 76.5t106.5 28q42 0 70.5 -15.5t51.5 -43.5q8 -8 15 -6t10 25l33 227q1 9 6 12t13 3h122q13 0 11 -24l-100 -699
q-1 -11 -6 -15t-18 -4h-105zM420 395q-18 24 -38 35t-47 11q-43 0 -72 -24.5t-46.5 -63t-26 -80.5t-8.5 -77q0 -39 11.5 -63.5t31 -35.5t45.5 -11q30 0 55.5 14t42.5 35.5t19 43.5z" />
    <glyph glyph-name="e" unicode="e" horiz-adv-x="586" 
d="M269 -10q-72 0 -126 29.5t-84.5 81.5t-30.5 121q0 62 22.5 118.5t63 102t96 71.5t122.5 26q69 0 120.5 -27.5t80 -79.5t28.5 -126q0 -13 -1 -27t-3 -29q-1 -8 -6 -11.5t-17 -3.5h-337q-10 0 -13 -13t-3 -30q0 -48 31 -73t79 -25q38 0 71 15.5t65 50.5q5 5 10.5 4.5
t12.5 -3.5l66 -31q20 -9 7 -26q-40 -44 -78.5 -69.5t-81 -35.5t-94.5 -10v0zM396 316q10 0 17 8.5t7 30.5q0 36 -21.5 63.5t-65.5 27.5q-33 0 -62 -17t-48 -46.5t-23 -66.5h196z" />
    <glyph glyph-name="f" unicode="f" horiz-adv-x="402" 
d="M403 530q10 0 13 -4t1 -11l-10 -77q-3 -14 -17 -14h-87q-8 0 -11 -15l-55 -395q-1 -9 -4 -11.5t-11 -2.5h-123q-7 0 -12 6.5t-4 15.5l56 394q2 8 -6 8h-77q-8 0 -9.5 6t-1.5 14l11 73q1 7 4 10t13 3h67q7 0 12 5.5t6 13.5l8 61q9 65 50 98.5t111 33.5h101q11 0 17.5 -5
t4.5 -14l-8 -72q-1 -12 -16 -12h-52q-22 0 -40 -15.5t-22 -40.5l-6 -42q-1 -11 12 -11h85v0z" />
    <glyph glyph-name="g" unicode="g" horiz-adv-x="633" 
d="M221 -174q-121 0 -190 31t-69 87q0 40 31 65.5t74 40.5q10 3 12 8t-8 8q-22 10 -33.5 25t-11.5 39q0 26 16.5 45t41 32.5t47.5 20.5q11 4 13.5 8.5t-7.5 8.5q-36 15 -56 43.5t-20 67.5q0 48 21.5 82t57.5 56.5t80.5 33t91.5 10.5q72 0 112.5 -15.5t60.5 -34.5q7 -6 16 0
t16 14q15 16 35 27t40 17.5t34 6.5q11 0 17 -3.5t5 -15.5l-10 -68q-1 -14 -5.5 -18.5t-13.5 -3.5q-15 0 -31 -0.5t-24 -2.5q-34 -4 -25 -25q3 -6 4.5 -14.5t1.5 -20.5q0 -47 -24 -79.5t-62.5 -53t-83.5 -30t-88 -9.5q-8 0 -27 -1t-40.5 -5t-37 -12t-15.5 -22q0 -9 13.5 -13
t42.5 -6l142 -8q94 -6 137 -42t43 -96q0 -43 -19.5 -74t-53 -51t-75.5 -31.5t-87.5 -16.5t-88.5 -5v0zM229 -101q40 0 73 5.5t56 15t36 25t13 36.5t-16 30.5t-54 11.5l-152 8q-19 -2 -41 -10.5t-37.5 -23t-15.5 -36.5q0 -31 33.5 -46.5t104.5 -15.5v0zM291 285q31 0 57.5 12
t42.5 36.5t16 58.5q0 31 -23.5 50t-69.5 19q-31 0 -57.5 -14t-43 -38.5t-16.5 -57.5q0 -29 25.5 -47.5t68.5 -18.5v0z" />
    <glyph glyph-name="h" unicode="h" horiz-adv-x="597" 
d="M43 0q-11 0 -16.5 7.5t-4.5 17.5l99 703q2 9 6.5 11.5t11.5 2.5h120q15 0 13 -18l-35 -244q-2 -15 8 -8q36 25 65.5 40t56.5 21.5t54 6.5q70 0 107 -35.5t37 -97.5q0 -7 -0.5 -15t-2.5 -16l-50 -356q-2 -12 -6.5 -16t-17.5 -4h-111q-23 0 -19 25l48 338q1 4 1 8v8
q0 25 -14 37.5t-44 12.5q-22 0 -42.5 -8t-40 -22.5t-41.5 -35.5l-49 -344q-2 -13 -7 -16t-19 -3h-107z" />
    <glyph glyph-name="i" unicode="i" horiz-adv-x="265" 
d="M175 20q-2 -14 -7 -17t-19 -3h-106q-13 0 -17.5 7t-3.5 18l69 490q1 10 4 12.5t11 2.5h127q7 0 9.5 -7t1.5 -15zM260 615q-2 -13 -7.5 -17t-19.5 -4h-115q-10 0 -13 8t-1 19l15 101q3 20 18 20h127q7 0 9.5 -7t0.5 -16z" />
    <glyph glyph-name="j" unicode="j" horiz-adv-x="265" 
d="M173 1q-12 -88 -59 -129.5t-141 -41.5q-45 0 -58.5 6t-11.5 19l11 79q1 6 4 10.5t11 6.5l42 5q19 2 32 15.5t18 45.5l70 498q2 10 5 12.5t11 2.5h122q8 0 12.5 -7t3.5 -15l-72 -507v0zM260 615q-2 -13 -7.5 -17t-19.5 -4h-115q-10 0 -13 8t-1 19l15 101q3 20 18 20h127
q7 0 9.5 -7t0.5 -16z" />
    <glyph glyph-name="k" unicode="k" horiz-adv-x="604" 
d="M547 20q3 -8 1 -14t-14 -6h-131q-10 0 -15.5 7.5t-8.5 16.5l-75 204q-5 15 -18 2l-80 -72q-4 -4 -8.5 -10t-6.5 -16l-15 -112q-2 -14 -7 -17t-19 -3h-105q-14 0 -19 7t-4 18l99 702q2 10 5 12.5t10 2.5h128q7 0 9.5 -7t0.5 -15l-57 -411q-1 -5 0.5 -3.5t7.5 8.5l218 204
q8 8 14.5 10t13.5 2h107q14 0 18.5 -9t-5.5 -19l-162 -142q-6 -6 -9.5 -11.5t-0.5 -17.5l128 -311v0z" />
    <glyph glyph-name="l" unicode="l" horiz-adv-x="266" 
d="M176 20q-2 -14 -7 -17t-20 -3h-106q-13 0 -18 7t-4 18l103 702q1 10 3.5 12.5t10.5 2.5h126q13 0 10 -19z" />
    <glyph glyph-name="m" unicode="m" horiz-adv-x="919" 
d="M43 0q-12 0 -17 7.5t-4 17.5l69 491q1 9 4 11.5t10 2.5h127q8 0 9.5 -4t-0.5 -13l-6 -41q-2 -13 8 -5q30 23 58.5 39.5t57.5 25.5t59 9q54 0 86.5 -25.5t42.5 -66.5q2 -5 6.5 -2.5t12.5 10.5q28 24 59 42.5t62.5 29.5t61.5 11q64 0 100.5 -36.5t36.5 -98.5v-14.5
t-2 -16.5l-49 -354q-2 -12 -6.5 -16t-17.5 -4h-111q-23 0 -19 25l47 332q2 5 2 11v11q0 24 -13.5 37t-41.5 13q-21 0 -40.5 -8t-36.5 -20t-30 -26q-7 -7 -11.5 -14t-5.5 -15l-47 -326q-1 -12 -5.5 -16t-17.5 -4h-110q-10 0 -15.5 7t-3.5 18l48 338q4 33 -9.5 49.5
t-45.5 16.5q-21 0 -41 -8t-39 -22.5t-40 -35.5l-50 -344q-2 -13 -6.5 -16t-19.5 -3h-106v0z" />
    <glyph glyph-name="n" unicode="n" horiz-adv-x="596" 
d="M36 0q-10 0 -12.5 7.5t-1.5 17.5l69 491q1 9 4 11.5t10 2.5h128q6 0 8.5 -2.5t0.5 -10.5l-7 -50q-1 -12 10 -2q41 34 85 54.5t90 20.5q68 0 106 -37t38 -97q0 -7 -0.5 -14t-1.5 -14l-50 -358q-2 -12 -7 -16t-18 -4h-115q-11 0 -13 7t-1 18l47 334q1 6 1.5 11t0.5 8
q0 25 -14.5 38t-44.5 13q-22 0 -42.5 -8t-40 -22.5t-40.5 -35.5l-50 -344q-2 -13 -7.5 -16t-19.5 -3h-112v0z" />
    <glyph glyph-name="o" unicode="o" horiz-adv-x="599" 
d="M266 -10q-73 0 -126.5 29.5t-82.5 82t-29 121.5q0 70 24.5 128.5t66.5 100.5t97.5 65t116.5 23q73 0 126.5 -30.5t82 -84t28.5 -123.5q0 -89 -40 -160t-109 -111.5t-155 -40.5v0zM270 92q41 0 74.5 27.5t53.5 81t20 131.5q0 54 -22 81.5t-65 27.5q-41 0 -75 -28t-54 -82
t-20 -132q0 -53 22 -80t66 -27v0z" />
    <glyph glyph-name="p" unicode="p" horiz-adv-x="609" 
d="M8 -165q-7 0 -9 7t0 16l91 655q2 11 5.5 14t16.5 3h110q11 0 16.5 -3t3.5 -14l-4 -30q-1 -6 4.5 -5t12.5 7q19 13 39.5 26t47 21t61.5 8q77 0 127 -52t50 -158q0 -57 -14 -116.5t-43.5 -110.5t-77.5 -82t-116 -31q-41 0 -74 15.5t-56 42.5q-10 11 -15.5 3.5t-7.5 -20.5
l-25 -183q-1 -9 -3.5 -11t-10.5 -2h-129v0zM274 87q43 0 72 25.5t46.5 65t26 82.5t8.5 79q0 39 -11.5 61.5t-31 32.5t-45.5 10q-29 0 -55 -13t-42.5 -32t-18.5 -39l-34 -225q17 -23 37 -35t48 -12v0z" />
    <glyph glyph-name="q" unicode="q" horiz-adv-x="609" 
d="M353 -165q-14 0 -11 22l25 171q2 9 0 10.5t-12 -4.5q-31 -19 -66.5 -31.5t-71.5 -12.5q-89 0 -138.5 57t-49.5 160q0 55 14.5 113.5t46 108.5t81.5 81t119 31q44 0 74 -12.5t50 -31.5t31 -40q3 -5 7.5 -3.5t10.5 14.5l20 45q4 11 8.5 14t13.5 3h68q10 0 13.5 -5t1.5 -22
l-92 -654q-1 -9 -7.5 -11.5t-13.5 -2.5h-122v0zM269 86q32 0 60 13.5t50 35.5l33 216q5 29 -3.5 50.5t-27.5 34t-47 12.5q-41 0 -70 -25.5t-46.5 -64.5t-26 -81.5t-8.5 -78.5q0 -58 23.5 -85t62.5 -27v0z" />
    <glyph glyph-name="r" unicode="r" horiz-adv-x="426" 
d="M43 0q-12 0 -17 7.5t-4 17.5l69 491q1 9 4 11.5t10 2.5h119q8 0 12 -5t2 -16l-7 -45q-1 -10 2.5 -10.5t10.5 5.5q23 25 50.5 43t55 28t50.5 10q20 0 30.5 -3t9.5 -12l-16 -112q-1 -11 -3.5 -14t-8.5 -2q-20 3 -38.5 4t-29.5 1q-20 0 -41.5 -7.5t-40.5 -21t-31.5 -30
t-14.5 -32.5l-41 -292q-2 -13 -7 -16t-19 -3h-106v0z" />
    <glyph glyph-name="s" unicode="s" horiz-adv-x="530" 
d="M237 -10q-97 0 -155 34.5t-80 81.5q-7 15 7 23l65 31q10 5 17.5 4t13.5 -11q15 -27 43.5 -46.5t84.5 -19.5q13 0 32.5 2.5t38 9t31.5 19t13 32.5q0 15 -14 26.5t-48 20.5l-99 25q-67 17 -100 48t-33 82q0 62 34.5 103.5t90.5 63t120 21.5q79 0 129 -30t74 -72
q4 -5 3.5 -11t-8.5 -10l-66 -30q-7 -3 -12 -1t-15 13q-14 20 -41 33.5t-67 13.5q-23 0 -46.5 -5.5t-39 -18.5t-15.5 -34q0 -14 9 -23.5t38 -18.5l110 -27q72 -17 103 -55.5t31 -86.5t-21.5 -83.5t-57.5 -58.5t-80.5 -34t-89.5 -11v0z" />
    <glyph glyph-name="t" unicode="t" horiz-adv-x="432" 
d="M231 0q-64 0 -101 28.5t-37 80.5v12t1 13l40 278q1 7 -3.5 9.5t-12.5 2.5h-62q-13 0 -11 22l11 73q1 8 4.5 9.5t11.5 1.5h69q5 0 9.5 4.5t5.5 10.5l36 152q3 13 19 13h108q7 0 10 -5t2 -18l-22 -145q-1 -5 2 -8t8 -3h103q8 0 13.5 -3t3.5 -11l-11 -80q-1 -8 -4.5 -10.5
t-14.5 -2.5h-106q-13 0 -16 -16l-34 -242q-1 -5 -1 -9v-9q0 -23 13.5 -31.5t43.5 -8.5h54q7 0 11.5 -7t3.5 -14l-10 -62q-2 -19 -19 -21q-17 -1 -38.5 -2t-42.5 -1.5t-37 -0.5v0z" />
    <glyph glyph-name="u" unicode="u" horiz-adv-x="592" 
d="M170 -10q-61 0 -99 37t-38 99v15t1 15l50 354q2 12 6.5 16t17.5 4h110q11 0 16 -7t3 -19l-47 -333q-1 -5 -1 -9.5v-7.5q0 -28 15 -40.5t40 -12.5q34 0 64.5 18t58.5 44l51 348q1 12 6.5 15.5t18.5 3.5h108q12 0 17.5 -7t3.5 -19l-72 -490q-1 -9 -3.5 -11.5t-10.5 -2.5
h-119q-7 0 -11.5 3t-3.5 11l8 49q1 6 -3 6t-11 -6q-46 -40 -88.5 -56.5t-87.5 -16.5v0z" />
    <glyph glyph-name="v" unicode="v" horiz-adv-x="573" 
d="M572 530q10 0 14.5 -9t0.5 -18l-267 -486q-6 -11 -12.5 -14t-19.5 -3h-71q-12 0 -20 7t-9 18l-131 485q-4 20 14 20h127q8 0 14 -6.5t7 -13.5l74 -296q5 -15 16 9l155 295q8 12 21 12h87v0z" />
    <glyph glyph-name="w" unicode="w" horiz-adv-x="818" 
d="M815 530q10 0 14.5 -9t0.5 -18l-233 -491q-3 -9 -7 -10.5t-13 -1.5h-82q-23 0 -24 22l-49 275q-2 11 -6 7t-8 -14l-127 -278q-4 -9 -7.5 -10.5t-13.5 -1.5h-85q-22 0 -23 22l-94 488q-4 20 14 20h118q7 0 13.5 -6.5t6.5 -13.5l51 -284q1 -9 5.5 -5t8.5 14l127 283
q6 12 21 12h84q7 0 13.5 -6.5t6.5 -13.5l48 -284q2 -9 6 -5t8 14l127 283q8 12 22 12h77v0z" />
    <glyph glyph-name="x" unicode="x" horiz-adv-x="591" 
d="M526 30q11 -19 9.5 -24.5t-18.5 -5.5h-125q-12 0 -20 6t-12 14l-83 143q-6 11 -11 9t-15 -14l-125 -146q-6 -8 -17 -10t-23 -2h-90q-16 0 -16.5 11t19.5 33l194 210q9 10 11 16.5t-2 15.5l-133 220q-5 9 -2.5 16.5t16.5 7.5h122q13 0 20 -5.5t10 -14.5l75 -131
q4 -6 8.5 -3t8.5 11l108 131q6 9 12.5 10.5t20.5 1.5h97q15 0 14.5 -9t-7.5 -18l-179 -202q-9 -9 -10.5 -15t2.5 -15l141 -241v0z" />
    <glyph glyph-name="y" unicode="y" horiz-adv-x="566" 
d="M37 -165q-28 0 -40 4t-10 16l11 77q1 7 9.5 11t25.5 4h66q19 0 35 8t27.5 21t16 27t1.5 26l-128 473q-7 28 15 28h137q16 0 18 -13l70 -298q2 -12 8 -11.5t12 13.5l148 289q6 11 12 15.5t14 4.5h86q19 0 7 -19l-277 -507q-29 -52 -56 -85t-57 -51t-66.5 -25.5t-84.5 -7.5
v0z" />
    <glyph glyph-name="z" unicode="z" horiz-adv-x="519" 
d="M6 0q-12 0 -15 4t-2 15l5 35q2 13 7 20.5t18 22.5l290 318q6 7 4 12.5t-15 5.5h-214q-10 0 -12 5t-1 15l9 62q2 8 8 11.5t13 3.5h412q13 0 11 -14l-6 -41q-1 -10 -6.5 -17.5t-14.5 -18.5l-293 -321q-7 -8 -3.5 -14t11.5 -6h241q16 0 13 -16l-9 -65q-1 -7 -4.5 -12
t-14.5 -5h-432v0z" />
    <glyph glyph-name="braceleft" unicode="{" horiz-adv-x="366" 
d="M221 -165q-31 0 -59 8.5t-49.5 24.5t-32 40t-6.5 55l29 208q3 24 -4.5 42.5t-28 29.5t-55.5 11q-6 0 -10.5 6t-3.5 15l7 45q2 9 2.5 10.5t2.5 1.5q58 0 88.5 25.5t37.5 70.5l28 196q6 41 32 67t64 38.5t76 12.5h63q7 0 11 -4.5t3 -10.5l-9 -65q-1 -6 -3 -6.5t-8 -0.5h-32
q-29 0 -44.5 -8.5t-22 -21.5t-8.5 -27l-29 -203q-6 -36 -25 -57t-43.5 -30.5t-47.5 -13.5q-8 0 -12.5 -2t-1.5 -4q26 -1 50.5 -12t39 -35t9.5 -66l-29 -204q-4 -28 7 -38.5t48 -10.5h30q7 0 11.5 -6t4.5 -12l-9 -58q-1 -9 -2.5 -10t-10.5 -1h-58v0z" />
    <glyph glyph-name="bar" unicode="|" horiz-adv-x="251" 
d="M35 -165q-12 0 -17.5 8.5t-3.5 21.5l135 966q2 12 5.5 14t13.5 2h74q9 0 14.5 -6.5t3.5 -14.5l-137 -980q-1 -7 -4 -9t-11 -2h-73z" />
    <glyph glyph-name="braceright" unicode="}" horiz-adv-x="366" 
d="M-29 -165q-7 0 -11 4.5t-3 10.5l9 65q1 6 3 6.5t8 0.5h32q30 0 45.5 8.5t22 21.5t7.5 27l29 203q6 36 25 57t43.5 31t47.5 13q9 0 13 2.5t1 3.5q-25 1 -50 12t-39.5 35t-9.5 66l29 204q4 29 -6.5 39t-48.5 10h-30q-7 0 -11.5 6t-4.5 12l9 58q2 9 3.5 10t9.5 1h58
q31 0 59 -8.5t49.5 -24.5t32 -40t6.5 -55l-29 -208q-3 -24 4 -42.5t27.5 -29.5t55.5 -11q6 0 10.5 -6t3.5 -15l-7 -45q-1 -9 -2 -10.5t-3 -1.5q-58 0 -88 -25.5t-37 -70.5l-28 -196q-5 -40 -31.5 -66.5t-64 -39t-76.5 -12.5h-63v0z" />
    <glyph glyph-name="asciitilde" unicode="~" horiz-adv-x="609" 
d="M566 365q-30 -36 -69.5 -54t-79.5 -18q-32 0 -56 9.5t-44 22t-40 22.5t-44 10q-38 0 -67.5 -22t-53.5 -48q-6 -2 -10.5 2t-6.5 10l-25 54q-2 6 -1.5 11.5t6.5 14.5q41 31 78 52.5t82 21.5q32 0 56 -9.5t43.5 -22t39 -22t42.5 -9.5q35 0 62.5 19t46.5 45q8 5 14 0t9 -15
l20 -44q6 -12 -2 -30v0z" />
    <glyph glyph-name="uni00A0" unicode="&#xa0;" horiz-adv-x="206" 
 />
    <glyph glyph-name="exclamdown" unicode="&#xa1;" horiz-adv-x="264" 
d="M232 379q-1 -8 -3 -10t-10 -2h-137q-7 0 -12 6.5t-4 16.5l18 124q2 11 5 13.5t16 2.5h118q15 0 21.5 -7.5t4.5 -20.5l-17 -123v0zM162 -153q0 -8 -2.5 -10t-9.5 -2h-147q-7 0 -12.5 7t-2.5 16l97 425q4 10 6.5 12.5t14.5 2.5h53q14 0 20.5 -7.5t4.5 -19.5l-22 -424v0z
" />
    <glyph glyph-name="cent" unicode="&#xa2;" horiz-adv-x="558" 
d="M316 20q-2 -13 -6.5 -16.5t-18.5 -3.5h-52q-13 0 -18.5 8t-4.5 19l18 129q2 12 7 15t17 3h55q12 0 17.5 -7.5t3.5 -17.5l-18 -129v0zM396 587q-2 -12 -7 -15.5t-19 -3.5h-52q-13 0 -18 7.5t-4 18.5l18 129q2 12 7 15.5t17 3.5h55q12 0 17.5 -7.5t3.5 -17.5l-18 -130v0z
M308 651q66 0 109.5 -24t68 -60.5t30.5 -75.5q0 -8 -2.5 -11t-12.5 -4l-101 -9q-6 -1 -9 5t-5 16q-8 17 -16 31t-21.5 22.5t-37.5 8.5q-40 0 -69 -22.5t-47 -58.5t-26.5 -76.5t-8.5 -75.5q0 -60 25.5 -88.5t71.5 -28.5q47 0 76.5 21.5t58.5 65.5q4 5 16 2l71 -17
q7 -1 9.5 -8t-1.5 -19q-11 -20 -31 -45t-50.5 -47.5t-71 -37t-91.5 -14.5q-71 0 -124.5 29.5t-83 82t-29.5 122.5q0 62 21.5 119t61 101.5t95.5 70t124 25.5v0z" />
    <glyph glyph-name="sterling" unicode="&#xa3;" horiz-adv-x="645" 
d="M-7 0q-7 0 -12 7t-4 14l14 98q2 7 3.5 7.5t7.5 0.5h23q38 0 67.5 27t38.5 85q2 13 3.5 37.5t3.5 69.5q-1 2 -2.5 1.5t-6.5 -0.5h-85q-5 0 -8.5 5.5t-2.5 11.5l9 62q1 5 2 5.5t5 0.5h67q5 0 10.5 5t5.5 11l1 82q1 54 23 96t58.5 70t82.5 42t95 14q48 0 94 -16t80 -48.5
t46 -81.5q4 -4 2.5 -5.5t-8.5 -3.5l-108 -32q-7 -2 -12.5 3t-6.5 13q-9 21 -24 35t-45 14q-25 0 -46 -11.5t-35.5 -32.5t-18.5 -50q-2 -19 -2 -46t1 -56q1 -2 9 -2h129q5 0 9 -5t3 -9l-9 -65q-1 -5 -2 -5h-6h-113q-8 0 -12.5 -5.5t-6.5 -13.5q-2 -26 -6 -49t-11 -49
q-6 -23 -16 -41t-20.5 -31.5t-20.5 -23.5q-8 -4 -9 -5.5t6 -1.5h117q44 0 74 18.5t48 58.5q4 4 8 3l12 -3l91 -19q9 -2 14 -9.5t1 -18.5q-33 -78 -97.5 -118t-150.5 -40h-357v0z" />
    <glyph glyph-name="currency" unicode="&#xa4;" horiz-adv-x="575" 
d="M279 148q-34 0 -62.5 10t-49.5 27q-7 1 -12.5 -2.5t-7.5 -6.5l-60 -52q-4 -4 -8.5 -0.5t-9.5 8.5l-39 45q-4 5 -5 9.5t2 8.5l61 52q8 9 7 23q-11 23 -16 49t0 62q4 29 15 57t29 56q10 6 6 11l-45 52q-3 4 -4.5 9.5t2.5 9.5l52 46q5 5 9 2t8 -8l46 -52q3 -4 7 0l7 7
q29 12 58.5 19t56.5 7q34 0 63.5 -10t50.5 -27q6 0 10 3.5t6 5.5l59 51q3 2 5.5 -1.5t3.5 -5.5l46 -53q2 -4 3.5 -6.5t-0.5 -5.5l-60 -52q-6 -6 -6 -14q13 -24 18 -53t1 -64q-4 -29 -15.5 -59t-32.5 -58q-2 1 -4 -0.5t0 -3.5l44 -52q3 -3 4.5 -6.5t-0.5 -6.5l-60 -52
q-3 -3 -5.5 0t-4.5 7l-45 51q-2 2 -5.5 -1.5t-5.5 -6.5q-29 -13 -58.5 -21t-58.5 -8v0zM279 249q37 0 69 19t53.5 49t26.5 64q4 31 -7.5 57.5t-36 42.5t-58.5 16q-37 0 -69 -19t-53 -49t-26 -64q-4 -31 7.5 -57.5t36 -42.5t57.5 -16v0z" />
    <glyph glyph-name="yen" unicode="&#xa5;" horiz-adv-x="658" 
d="M718 742q11 0 15.5 -7.5t-1.5 -15.5l-289 -384q-7 -8 -11 -18t-7 -35l-37 -262q-2 -14 -7.5 -17t-19.5 -3h-125q-13 0 -18 7.5t-4 18.5l38 270q2 13 1 20t-5 16l-182 390q-5 10 -3 15t16 5h151q13 0 18 -5.5t8 -15.5l112 -261q4 -9 8 -6t9 12l186 262q7 11 12 12.5
t17 1.5h118v0zM579 292q-1 -11 -6.5 -14t-18.5 -3l-434 -1q-12 0 -17 7t-4 18l7 45q2 9 4 11t9 2l451 1q7 0 12 -7t4 -14zM556 131q-1 -12 -6.5 -15t-18.5 -3h-434q-12 0 -17 7t-4 17l7 45q2 9 4.5 11.5t9.5 2.5h450q7 0 12 -6.5t4 -13.5z" />
    <glyph glyph-name="brokenbar" unicode="&#xa6;" horiz-adv-x="251" 
d="M118 429q-12 0 -17.5 8.5t-2.5 20.5l51 373q2 12 5.5 14t13.5 2h74q9 0 14.5 -6.5t3.5 -14.5l-54 -387q-1 -7 -4 -8.5t-11 -1.5h-73zM35 -165q-12 0 -17.5 8.5t-3.5 21.5l52 372q1 12 4.5 14t13.5 2h74q9 0 14.5 -6.5t4.5 -14.5l-54 -386q-1 -7 -4 -9t-11 -2h-73z" />
    <glyph glyph-name="section" unicode="&#xa7;" horiz-adv-x="506" 
d="M385 213q41 -24 59 -56t11 -78q-6 -47 -36 -83t-81.5 -56t-122.5 -20q-88 0 -143.5 32.5t-71.5 75.5q-7 9 -7 13t3 5l78 35q8 4 12.5 -1t7.5 -13q18 -21 45 -37.5t74 -16.5q42 0 71.5 16.5t33.5 47.5q3 16 -10 31t-57 32l-74 30q-78 31 -111 70.5t-24 100.5q6 45 34 77.5
t73 53.5q-27 18 -42.5 37.5t-20 42.5t-1.5 49q7 43 36 77.5t76.5 54t110.5 19.5q78 0 129 -31t66 -72q7 -8 7.5 -12t-4.5 -6l-77 -34q-8 -4 -12.5 1t-7.5 13q-18 18 -40.5 33t-56.5 15q-37 0 -62 -17t-28 -43q-2 -12 7 -23.5t42 -25.5l72 -29q82 -33 116.5 -74t25.5 -104
q-6 -45 -32.5 -76t-67.5 -54v0zM281 265q21 -1 37.5 8t27 25t13.5 33q2 13 -1 24t-17 23t-47 26l-43 16q-23 -2 -41 -13t-29 -27t-14 -33q-3 -19 9 -31t57 -32l48 -19v0z" />
    <glyph glyph-name="dieresis" unicode="&#xa8;" horiz-adv-x="359" 
d="M197 628q-1 -11 -5.5 -13.5t-17.5 -2.5h-93q-12 0 -16 6.5t-3 16.5l13 94q2 9 4 11t9 2h108q7 0 11.5 -6.5t2.5 -13.5zM400 628q-1 -11 -5.5 -13.5t-17.5 -2.5h-94q-11 0 -15 6.5t-3 16.5l13 94q2 9 4 11t9 2h108q7 0 11.5 -6.5t2.5 -13.5z" />
    <glyph glyph-name="copyright" unicode="&#xa9;" horiz-adv-x="830" 
d="M382 -10q-80 0 -146 30t-111.5 83.5t-65.5 124.5t-9 151q11 78 49 145.5t97 118.5t130.5 80t150.5 29t145.5 -30.5t112 -84t66 -124t9.5 -150.5q-11 -79 -50 -146.5t-98 -118.5t-130.5 -79.5t-149.5 -28.5v0zM382 75q65 0 121.5 21.5t101.5 61.5t74.5 96t39.5 125
q10 66 -3.5 119t-46.5 91.5t-81.5 58.5t-109.5 20q-66 0 -123 -22t-101.5 -62.5t-74 -96.5t-39.5 -124q-9 -66 4 -119.5t45.5 -91.5t81.5 -57.5t111 -19.5v0zM457 586q51 0 85 -19.5t53 -49t24 -59.5q2 -4 1 -5.5t-8 -2.5l-84 -9q-5 -1 -8 4.5t-3 13.5q-6 18 -17 32t-38 14
t-50.5 -15.5t-39 -46.5t-22.5 -78q-9 -66 9.5 -95.5t58.5 -29.5q37 0 61 21t44 52q2 0 4 -1.5t8 -3.5l55 -14q11 -2 7 -22q-8 -15 -24 -34.5t-39 -37t-54.5 -29t-70.5 -11.5q-61 0 -105 28.5t-64.5 78t-11.5 113.5q9 62 41.5 108t81.5 72t106 26v0z" />
    <glyph glyph-name="ordfeminine" unicode="&#xaa;" horiz-adv-x="390" 
d="M251 751q55 0 86 -14t42.5 -39t6.5 -58l-24 -170q-2 -14 -2 -24.5t1 -25.5q3 -6 -3 -6.5t-17 -0.5h-59q-9 0 -11.5 5.5t-3.5 11.5v15q-1 4 -4 0.5l-9 -10.5q-27 -15 -47.5 -21.5t-45.5 -6.5q-54 0 -81 29t-20 74q7 47 53 74t134 32l27 3q6 0 11 5t6 10l2 11q2 23 -7.5 33
t-33.5 10q-21 0 -40 -9.5t-33 -33.5q-3 -2 -4.5 0t-8.5 3l-64 15q-2 2 -3.5 9.5t-0.5 13.5q23 32 57 48.5t96 16.5v0zM156 499q-2 -14 8 -22t31 -8q17 0 32 7t24 17q9 4 16 11.5t8 16.5l5 39q1 5 0.5 5.5t-8.5 -0.5l-24 -1q-22 -2 -42 -10.5t-33.5 -22t-16.5 -32.5v0z" />
    <glyph glyph-name="guillemotleft" unicode="&#xab;" horiz-adv-x="487" 
d="M407 72q2 -6 0.5 -6.5t-10.5 -0.5h-55q-5 0 -9 4.5t-4 7.5l-83 166q-3 9 -4 18t4 17l132 175q4 6 6.5 5.5t6.5 -0.5h58q6 0 10.5 -5.5t1.5 -12.5l-99 -176q-3 -6 -4.5 -11t-1.5 -11zM211 72q2 -6 0.5 -6.5t-10.5 -0.5h-56q-4 0 -8.5 4.5t-4.5 7.5l-82 166q-4 9 -4.5 18
t4.5 17l132 175q4 6 6 5.5t7 -0.5h58q5 0 10 -5.5t2 -12.5l-99 -176q-3 -6 -4.5 -11t-1.5 -11z" />
    <glyph glyph-name="logicalnot" unicode="&#xac;" horiz-adv-x="583" 
d="M545 335q0 -11 -6 -14t-19 -3l-440 -1q-12 0 -17 7t-4 18l11 73q2 9 4 11.5t9 2.5h458q6 0 11 -6.5t4 -13.5zM523 178q-1 -11 -4.5 -13.5t-17.5 -2.5h-82q-10 0 -15.5 6.5t-3.5 15.5l27 195q2 9 4 10.5t8 1.5h98q7 0 11 -6.5t3 -14.5z" />
    <glyph glyph-name="uni00AD" unicode="&#xad;" horiz-adv-x="380" 
d="M288 226q-1 -12 -6.5 -15t-18.5 -3h-235q-12 0 -16.5 7t-4.5 17l11 73q2 9 4.5 11.5t9.5 2.5h252q7 0 12 -6.5t3 -13.5z" />
    <glyph glyph-name="registered" unicode="&#xae;" horiz-adv-x="545" 
d="M280 275q-67 0 -118.5 33t-76 89.5t-15.5 123.5q9 65 47.5 117t95.5 83t122 31q67 0 118 -33.5t76 -89.5t16 -124q-9 -64 -48 -116t-95.5 -83t-121.5 -31v0zM276 336q54 0 97 22.5t71.5 65t36.5 97.5q7 52 -8 90t-49.5 59t-84.5 21q-54 0 -97.5 -23t-71.5 -65.5
t-36 -97.5q-11 -79 27.5 -124t114.5 -45v0zM392 398q1 -3 1 -3.5t-3 -0.5h-51q-3 0 -5.5 3t-1.5 6l-20 93q-1 2 -1.5 1t-6.5 -1h-29q-2 0 -4.5 -3.5t-3.5 -4.5l-13 -91q0 -4 -0.5 -3.5t-5.5 0.5h-44q-4 0 -6.5 4t-1.5 7l31 223q1 4 0 3t2 -1h106q43 0 66 -19.5t18 -52.5
q-2 -21 -15.5 -35t-30.5 -22q-3 2 -5.5 -0.5t-2.5 -4.5l27 -98v0zM319 538q15 0 26.5 9t13.5 24q1 9 -5 13t-24 4h-39q-4 0 -7 -2.5t-4 -6.5l-6 -40q0 -3 -0.5 -2t2.5 1h43v0z" />
    <glyph glyph-name="macron" unicode="&#xaf;" horiz-adv-x="385" 
d="M429 653q-1 -11 -5 -13t-17 -2h-324q-10 0 -14.5 6.5t-3.5 15.5l9 65q2 8 4 9.5t8 1.5h339q6 0 10.5 -6.5t3.5 -12.5z" />
    <glyph glyph-name="degree" unicode="&#xb0;" horiz-adv-x="464" 
d="M463 676q-7 -49 -34 -86t-67.5 -57.5t-88.5 -20.5q-51 0 -88.5 23.5t-55 64t-10.5 93.5q7 49 33.5 86t67.5 57.5t89 20.5q51 0 88 -23.5t55 -64t11 -93.5v0zM372 692q6 35 -11.5 55.5t-53.5 20.5q-39 0 -67.5 -26.5t-33.5 -66.5q-4 -35 13 -56t52 -21q40 0 68 26.5
t33 67.5v0z" />
    <glyph glyph-name="plusminus" unicode="&#xb1;" horiz-adv-x="583" 
d="M506 53q-2 -12 -7 -15t-19 -3h-440q-12 0 -16.5 7t-3.5 17l10 73q1 9 4 11.5t10 2.5h457q7 0 12 -6.5t3 -13.5zM558 423q-2 -12 -7 -15t-19 -3h-440q-11 0 -16 7t-4 18l10 73q1 9 4 11.5t10 2.5h458q6 0 11 -6.5t4 -14.5zM256 218q-12 0 -17.5 8.5t-4.5 22.5l63 440
q1 12 4.5 14t13.5 2h73q9 0 15 -6.5t4 -13.5l-64 -457q-1 -7 -4 -8.5t-10 -1.5h-73z" />
    <glyph glyph-name="uni00B2" unicode="&#xb2;" horiz-adv-x="452" 
d="M171 588q44 34 69.5 57.5t37 42t11.5 37.5q0 26 -15.5 39t-42.5 13t-54.5 -17.5t-49.5 -51.5q-4 -6 -9 -2l-68 40q-6 3 4 17q34 46 83 70t103 24q47 0 82 -15t54.5 -43t19.5 -67q0 -34 -13.5 -61t-37.5 -50.5t-59 -48.5l-122 -89q-5 -4 -5 -6.5t4 -2.5h190q11 0 10 -10
l-9 -71q-1 -5 -3 -7t-9 -2h-328q-16 0 -14 16l7 48q1 6 6 12t26 22z" />
    <glyph glyph-name="uni00B3" unicode="&#xb3;" horiz-adv-x="467" 
d="M79 782q-2 3 -1.5 7t4.5 7q31 28 76 44.5t93 16.5q77 0 120 -30.5t43 -80.5q0 -39 -27.5 -70t-65.5 -44q-4 -1 -4.5 -3t3.5 -3q36 -10 57 -36t21 -60q0 -50 -26.5 -84t-74 -51t-109.5 -17q-43 0 -76 11t-56.5 29.5t-36.5 41.5q-5 9 -2 12l57 38q7 4 10 -1
q25 -28 50.5 -41t58.5 -13q41 0 69.5 21t28.5 54q0 18 -10.5 30t-27.5 19t-39 7l-59 1q-7 0 -7 7l9 64q0 5 10 5l43 1q26 1 48 11t35 26.5t13 35.5q0 20 -16 32t-44 12q-33 0 -57.5 -12.5t-52.5 -34.5q-7 -5 -13 1l-44 47v0z" />
    <glyph glyph-name="acute" unicode="&#xb4;" horiz-adv-x="306" 
d="M351 671q2 -9 -0.5 -14.5t-14.5 -8.5l-240 -62q-11 -3 -16.5 2t-7.5 13l-7 35q-3 14 4 17l249 97q6 3 10.5 0.5t7.5 -12.5z" />
    <glyph glyph-name="uni00B5" unicode="&#xb5;" horiz-adv-x="592" 
d="M245 101q33 0 63.5 18t58.5 44l51 348q1 12 6.5 15.5t18.5 3.5h108q12 0 17.5 -7t3.5 -19l-72 -490q-1 -9 -3.5 -11.5t-10.5 -2.5h-119q-7 0 -12 6.5t-4 14.5l8 50q1 6 -3 4.5t-12 -10.5q-23 -23 -44 -36.5t-40.5 -21.5t-39.5 -13q-20 -1 -33.5 -2.5t-21.5 -0.5l-19 -136
q-2 -14 -7 -17t-19 -3h-105q-13 0 -18 7t-4 18l91 650q2 12 6.5 16t17.5 4h110q11 0 16 -7t3 -19l-48 -342q-2 -19 4 -32.5t20 -21t32 -7.5v0z" />
    <glyph glyph-name="paragraph" unicode="&#xb6;" horiz-adv-x="603" 
d="M558 655q-6 0 -11 -5.5t-5 -10.5l-101 -714q-1 -6 -1.5 -8t-8.5 -2h-67q-8 0 -12 7t-3 12l100 716q1 4 0 4.5t-7 0.5h-38q-5 0 -10 -5.5t-6 -10.5l-101 -715q0 -6 -2 -7.5t-8 -1.5h-69q-5 0 -9.5 5t-3.5 13l52 371q0 4 -0.5 4.5l-1.5 1.5q-57 3 -100.5 29.5t-64.5 75
t-12 115.5q9 58 42 106t89.5 77t134.5 29h271q7 0 11 -4.5t2 -10.5l-9 -66q-1 -6 -2 -6h-7h-42z" />
    <glyph glyph-name="periodcentered" unicode="&#xb7;" horiz-adv-x="248" 
d="M207 315q-1 -11 -5 -14t-18 -3h-112q-11 0 -16 7t-4 16l17 115q1 10 3.5 11.5t8.5 1.5h129q7 0 11 -6t2 -14z" />
    <glyph glyph-name="cedilla" unicode="&#xb8;" horiz-adv-x="261" 
d="M194 -143q-5 -37 -43 -56.5t-85 -19.5q-32 0 -60 7t-49 21q-5 1 -8 5t-2 8l20 35q2 4 4 0.5t3 -6.5q15 -6 32.5 -11t35.5 -5q26 0 43 11.5t19 28.5q3 17 -13.5 25t-62.5 8q-8 0 -12.5 4t-1.5 10l50 83h69l-27 -56q-3 -3 -4 -3t0 0q38 -1 59 -15t28.5 -34t4.5 -40v0z" />
    <glyph glyph-name="uni00B9" unicode="&#xb9;" horiz-adv-x="367" 
d="M262 461q10 0 8 -9l-9 -64q-1 -8 -11 -8h-252q-11 0 -9 10l9 64q1 7 10 7h67q6 0 8 8l37 264q1 5 -7 4l-66 -19q-14 -4 -12 10l7 46q2 7 3 9.5t7 4.5l112 52q9 5 14.5 6t12.5 1h46q9 0 7 -11l-52 -370q-1 -5 4 -5h66v0z" />
    <glyph glyph-name="ordmasculine" unicode="&#xba;" horiz-adv-x="399" 
d="M261 752q53 0 89 -23.5t52 -65t9 -94.5q-7 -47 -32.5 -83.5t-64.5 -57t-89 -20.5q-52 0 -88 23t-52 63.5t-9 91.5q8 51 33.5 88t65 57.5t86.5 20.5v0zM264 686q-36 0 -58 -29t-30 -85q-8 -50 3.5 -74t42.5 -24q37 0 59.5 30t30.5 85q7 49 -4.5 73t-43.5 24v0z" />
    <glyph glyph-name="guillemotright" unicode="&#xbb;" horiz-adv-x="486" 
d="M122 250q3 6 5 11t0 11l-49 176q-1 7 0.5 8.5t6.5 1.5h58q9 0 13 -12l83 -176q3 -8 3.5 -17t-5.5 -18l-130 -165q-2 -4 -5 -4.5t-7 -0.5h-56q-8 0 -13 4.5t-3 10.5l99 170v0zM318 250q3 6 5 11t0 11l-49 176q-1 7 0.5 8.5t7.5 1.5h57q9 0 14 -12l82 -176q3 -8 4 -17
t-6 -18l-129 -165q-3 -4 -6 -4.5t-7 -0.5h-56q-8 0 -13 4.5t-2 10.5l98 170v0z" />
    <glyph glyph-name="onequarter" unicode="&#xbc;" horiz-adv-x="941" 
d="M311 357q10 0 8 -9l-9 -64q-1 -8 -11 -8h-252q-11 0 -9 10l9 64q1 7 10 7h67q6 0 8 8l37 264q1 5 -7 4l-66 -19q-14 -4 -12 10l7 46q2 7 3 9.5t7 4.5l112 52q9 5 14.5 6t12.5 1h46q9 0 7 -11l-52 -370q-1 -5 4 -5h66v0zM246 3q-5 -6 -10 -6.5t-15 -0.5l-42 1
q-13 0 -16 11t4 21l576 714q6 8 11 7.5t12 -0.5h53q7 0 12.5 -5.5t-1.5 -14.5zM730 457q6 6 10.5 8t14.5 2h82q11 0 9 -11l-38 -267q0 -4 4 -4h54q11 0 10 -9l-9 -57q0 -6 -2.5 -7.5t-8.5 -1.5h-52q-8 0 -8 -8l-12 -91q-1 -7 -4.5 -9t-12.5 -2h-82q-14 0 -13 12l13 93
q1 5 -5 5h-192q-12 0 -11 11l8 56q1 6 5.5 12.5t13.5 17.5l226 250v0zM690 185q7 0 8 7l22 156q1 6 -1 5.5t-7 -6.5l-136 -154q-6 -8 1 -8h113z" />
    <glyph glyph-name="onehalf" unicode="&#xbd;" horiz-adv-x="992" 
d="M322 357q10 0 8 -9l-9 -64q-1 -8 -11 -8h-252q-11 0 -9 10l9 64q1 7 10 7h67q6 0 8 8l37 264q1 5 -7 4l-66 -19q-14 -4 -12 10l7 46q2 7 3 9.5t7 4.5l112 52q9 5 14.5 6t12.5 1h46q9 0 7 -11l-52 -370q-1 -5 4 -5h66v0zM224 3q-5 -6 -10 -6.5t-15 -0.5l-42 1
q-13 0 -16 11t4 21l576 714q6 8 11 7.5t12 -0.5h53q7 0 12.5 -5.5t-1.5 -14.5zM703 204q44 34 69.5 57.5t37 42t11.5 37.5q0 26 -15.5 39t-42.5 13t-54.5 -17.5t-49.5 -51.5q-4 -6 -9 -2l-68 40q-6 3 4 17q34 46 83 70t103 24q47 0 82 -15t54.5 -43t19.5 -67
q0 -34 -13.5 -61t-37.5 -50.5t-59 -48.5l-122 -89q-5 -4 -5 -6.5t4 -2.5h190q11 0 10 -10l-9 -71q-1 -5 -3 -7t-9 -2h-328q-16 0 -14 16l7 48q1 6 6 12t26 22z" />
    <glyph glyph-name="threequarters" unicode="&#xbe;" horiz-adv-x="1011" 
d="M101 677q-2 3 -1.5 7t4.5 7q31 28 76 44.5t93 16.5q77 0 120 -30.5t43 -80.5q0 -39 -27.5 -70t-65.5 -44q-4 -1 -4.5 -3t3.5 -3q36 -10 57 -36t21 -60q0 -50 -26.5 -84t-74 -51t-109.5 -17q-43 0 -76 11t-56.5 29.5t-36.5 41.5q-5 9 -2 12l57 38q7 4 10 -1
q25 -28 50.5 -41t58.5 -13q41 0 69.5 21t28.5 54q0 18 -10.5 30t-27.5 19t-39 7l-59 1q-7 0 -7 7l9 64q0 5 10 5l43 1q26 1 48 11t35 26.5t13 35.5q0 20 -16 32t-44 12q-33 0 -57.5 -12.5t-52.5 -34.5q-7 -5 -13 1l-44 47v0zM303 3q-5 -6 -10 -6.5t-15 -0.5l-42 1
q-13 0 -16 11t4 21l576 714q6 8 11 7.5t12 -0.5h53q7 0 12.5 -5.5t-1.5 -14.5zM809 457q6 6 10.5 8t14.5 2h82q11 0 9 -11l-38 -267q0 -4 4 -4h54q11 0 10 -9l-9 -57q0 -6 -2.5 -7.5t-8.5 -1.5h-52q-8 0 -8 -8l-12 -91q-1 -7 -4.5 -9t-12.5 -2h-82q-14 0 -13 12l13 93
q1 5 -5 5h-192q-12 0 -11 11l8 56q1 6 5.5 12.5t13.5 17.5l226 250v0zM769 185q7 0 8 7l22 156q1 6 -1 5.5t-7 -6.5l-136 -154q-6 -8 1 -8h113z" />
    <glyph glyph-name="questiondown" unicode="&#xbf;" horiz-adv-x="533" 
d="M234 511q2 13 7.5 16t19.5 3h119q12 0 17.5 -7.5t3.5 -17.5l-18 -124q-1 -9 -3.5 -11.5t-10.5 -2.5h-137q-7 0 -11.5 6.5t-3.5 14.5zM476 -2q7 -2 9.5 -10.5t-1.5 -18.5q-42 -70 -111.5 -107t-159.5 -37q-82 0 -134.5 25t-75 66.5t-15.5 91.5q6 38 24 65t42.5 47t52.5 37
t53 35.5t42.5 42t22.5 56.5q2 11 18 11h83q9 0 15 -8.5t4 -22.5q-6 -46 -27.5 -78t-50 -55.5t-56.5 -44t-48 -42.5t-24 -52q-4 -29 18.5 -47.5t59.5 -18.5q28 0 55.5 11.5t50.5 31t36 45.5q5 5 4.5 3.5t8.5 -3.5z" />
    <glyph glyph-name="Agrave" unicode="&#xc0;" horiz-adv-x="771" 
d="M4 0q-9 0 -10 8t7 25l347 693q6 11 13.5 13.5t18.5 2.5h150q11 0 16 -8t6 -18l150 -693q2 -8 -1 -15.5t-12 -7.5h-146q-14 0 -17 18l-31 145q-1 8 -12 8h-242q-11 0 -17 -12l-76 -150q-2 -6 -5.5 -7.5t-12.5 -1.5h-126v0zM461 304q15 0 11 17l-52 231q-1 10 -5.5 10
t-9.5 -10l-116 -233q-4 -10 -2.5 -12.5t8.5 -2.5h166zM353 953q4 7 9 8.5t11 -0.5l220 -98q7 -4 9 -8t-1 -12l-17 -38q-4 -7 -8.5 -7.5t-14.5 1.5l-223 62q-13 3 -16 8.5t1 14.5l30 69v0z" />
    <glyph glyph-name="Aacute" unicode="&#xc1;" horiz-adv-x="771" 
d="M4 0q-9 0 -10 8t7 25l347 693q6 11 13.5 13.5t18.5 2.5h150q11 0 16 -8t6 -18l150 -693q2 -8 -1 -15.5t-12 -7.5h-146q-14 0 -17 18l-31 145q-1 8 -12 8h-242q-11 0 -17 -12l-76 -150q-2 -6 -5.5 -7.5t-12.5 -1.5h-126v0zM461 304q15 0 11 17l-52 231q-1 10 -5.5 10
t-9.5 -10l-116 -233q-4 -10 -2.5 -12.5t8.5 -2.5h166zM610 883q2 -9 -0.5 -14.5t-14.5 -8.5l-240 -62q-11 -3 -16.5 2t-7.5 13l-7 35q-3 14 4 17l249 97q6 3 10.5 0.5t7.5 -12.5z" />
    <glyph glyph-name="Acircumflex" unicode="&#xc2;" horiz-adv-x="771" 
d="M4 0q-9 0 -10 8t7 25l347 693q6 11 13.5 13.5t18.5 2.5h150q11 0 16 -8t6 -18l150 -693q2 -8 -1 -15.5t-12 -7.5h-146q-14 0 -17 18l-31 145q-1 8 -12 8h-242q-11 0 -17 -12l-76 -150q-2 -6 -5.5 -7.5t-12.5 -1.5h-126v0zM461 304q15 0 11 17l-52 231q-1 10 -5.5 10
t-9.5 -10l-116 -233q-4 -10 -2.5 -12.5t8.5 -2.5h166zM483 885q-7 10 -11 10t-14 -10l-61 -55q-7 -6 -11.5 -7.5t-13.5 -1.5h-84q-8 0 -8.5 5.5t5.5 10.5l125 114q7 7 14 8.5t19 1.5h73q9 0 13.5 -5t8.5 -10l92 -112q6 -9 4 -11t-12 -2h-80q-7 0 -11.5 3t-8.5 9z" />
    <glyph glyph-name="Atilde" unicode="&#xc3;" horiz-adv-x="771" 
d="M4 0q-9 0 -10 8t7 25l347 693q6 11 13.5 13.5t18.5 2.5h150q11 0 16 -8t6 -18l150 -693q2 -8 -1 -15.5t-12 -7.5h-146q-14 0 -17 18l-31 145q-1 8 -12 8h-242q-11 0 -17 -12l-76 -150q-2 -6 -5.5 -7.5t-12.5 -1.5h-126v0zM461 304q15 0 11 17l-52 231q-1 10 -5.5 10
t-9.5 -10l-116 -233q-4 -10 -2.5 -12.5t8.5 -2.5h166zM637 858q-16 -7 -40 -14t-52 -7q-29 0 -52.5 7.5t-44.5 14.5t-46 7q-24 0 -38 -9t-35 -20q-9 -3 -13.5 1.5t-6.5 14.5l-9 43q-1 7 -3 14t8 14q20 12 41 21t50 9q31 0 56.5 -8t48 -16t43.5 -8q17 0 29.5 6t24 14t21.5 10
t16 -3t7 -14l5 -51q1 -7 1 -14.5t-11 -11.5v0z" />
    <glyph glyph-name="Adieresis" unicode="&#xc4;" horiz-adv-x="771" 
d="M4 0q-9 0 -10 8t7 25l347 693q6 11 13.5 13.5t18.5 2.5h150q11 0 16 -8t6 -18l150 -693q2 -8 -1 -15.5t-12 -7.5h-146q-14 0 -17 18l-31 145q-1 8 -12 8h-242q-11 0 -17 -12l-76 -150q-2 -6 -5.5 -7.5t-12.5 -1.5h-126v0zM461 304q15 0 11 17l-52 231q-1 10 -5.5 10
t-9.5 -10l-116 -233q-4 -10 -2.5 -12.5t8.5 -2.5h166zM429 840q-1 -11 -5.5 -13.5t-17.5 -2.5h-93q-12 0 -16 6.5t-3 16.5l13 94q2 9 4 11t9 2h108q7 0 11.5 -6.5t2.5 -13.5zM632 840q-1 -11 -5.5 -13.5t-17.5 -2.5h-94q-11 0 -15 6.5t-3 16.5l13 94q2 9 4 11t9 2h108
q7 0 11.5 -6.5t2.5 -13.5z" />
    <glyph glyph-name="Aring" unicode="&#xc5;" horiz-adv-x="771" 
d="M4 0q-9 0 -10 8t7 25l347 693q6 11 13.5 13.5t18.5 2.5h150q11 0 16 -8t6 -18l150 -693q2 -8 -1 -15.5t-12 -7.5h-146q-14 0 -17 18l-31 145q-1 8 -12 8h-242q-11 0 -17 -12l-76 -150q-2 -6 -5.5 -7.5t-12.5 -1.5h-126v0zM461 304q15 0 11 17l-52 231q-1 10 -5.5 10
t-9.5 -10l-116 -233q-4 -10 -2.5 -12.5t8.5 -2.5h166zM574 841q-7 -45 -41.5 -74.5t-78.5 -29.5q-33 0 -57.5 16.5t-36.5 44.5t-8 62q6 42 41 70.5t79 28.5q33 0 57.5 -16t37 -42.5t7.5 -59.5v0zM514 857q3 19 -8.5 30.5t-30.5 11.5q-22 0 -42.5 -17t-24.5 -42
q-1 -18 10.5 -31t29.5 -13q24 0 43 18.5t23 42.5v0z" />
    <glyph glyph-name="AE" unicode="&#xc6;" horiz-adv-x="1077" 
d="M999 128q9 0 14 -5t4 -15l-13 -95q-1 -7 -4.5 -10t-13.5 -3h-496q-12 0 -17.5 7t-4.5 18l20 139q0 6 -0.5 6.5t-6.5 0.5h-216q-6 0 -11.5 -4.5t-7.5 -9.5l-100 -148q-6 -9 -22 -9h-115q-9 0 -13 10t4 23l470 693q6 11 11.5 13.5t16.5 2.5h579q8 0 12.5 -6.5t2.5 -15.5
l-13 -90q-1 -9 -5 -12.5t-15 -3.5h-311q-10 0 -17 -6t-9 -15l-19 -144q-1 -9 1 -11t9 -2h205q9 0 14.5 -6t3.5 -14l-14 -96q-1 -6 -2.5 -8t-10.5 -2h-209q-6 0 -12 -5.5t-7 -11.5l-22 -157q-1 -7 -0.5 -7.5t6.5 -0.5h334v0zM488 304q8 0 15 6.5t7 14.5l36 256q3 19 -8 15.5
t-23 -23.5l-175 -256q-6 -8 -7.5 -10.5t5.5 -2.5h150v0z" />
    <glyph glyph-name="Ccedilla" unicode="&#xc7;" horiz-adv-x="725" 
d="M445 752q80 0 140 -30.5t94.5 -82t36.5 -116.5q0 -19 -15 -19l-130 -8q-14 -1 -15 24q-4 48 -30.5 79t-81.5 31q-49 0 -84.5 -23t-60 -61.5t-38.5 -85t-20.5 -94.5t-6.5 -90q0 -83 31.5 -120t95.5 -37q60 0 108 30t82 97q6 14 25 9l104 -26q11 -3 1 -31q-9 -19 -26.5 -46
t-45 -55.5t-66 -52.5t-86.5 -39t-107 -15q-93 0 -159.5 39.5t-101 110.5t-34.5 165q0 68 15.5 133.5t46.5 122t78 100t109.5 67.5t140.5 24v0zM445 -143q-5 -37 -43 -56.5t-85 -19.5q-32 0 -60 7t-49 21q-5 1 -8 5t-2 8l20 35q2 4 4 0.5t3 -6.5q15 -6 32.5 -11t35.5 -5
q26 0 43 11.5t19 28.5q3 17 -13.5 25t-62.5 8q-8 0 -12.5 4t-1.5 10l50 83h69l-27 -56q-3 -3 -4 -3t0 0q38 -1 59 -15t28.5 -34t4.5 -40v0z" />
    <glyph glyph-name="Egrave" unicode="&#xc8;" horiz-adv-x="654" 
d="M135 727q2 10 4.5 12.5t10.5 2.5h507q16 0 12 -22l-13 -89q-1 -10 -5.5 -13.5t-15.5 -3.5h-327q-7 0 -10.5 -3t-5.5 -12l-21 -150q-1 -8 1 -10.5t8 -2.5h219q9 0 11 -3.5t1 -10.5l-14 -101q-1 -11 -14 -11h-221q-11 0 -13 -14l-22 -156q-1 -12 7 -12h347q9 0 11.5 -3
t0.5 -12l-13 -100q-1 -7 -4 -10t-13 -3h-507q-23 0 -20 25l99 702v0zM310 953q4 7 9 8.5t11 -0.5l220 -98q7 -4 9 -8t-1 -12l-17 -38q-4 -7 -8.5 -7.5t-14.5 1.5l-223 62q-13 3 -16 8.5t1 14.5l30 69v0z" />
    <glyph glyph-name="Eacute" unicode="&#xc9;" horiz-adv-x="654" 
d="M135 727q2 10 4.5 12.5t10.5 2.5h507q16 0 12 -22l-13 -89q-1 -10 -5.5 -13.5t-15.5 -3.5h-327q-7 0 -10.5 -3t-5.5 -12l-21 -150q-1 -8 1 -10.5t8 -2.5h219q9 0 11 -3.5t1 -10.5l-14 -101q-1 -11 -14 -11h-221q-11 0 -13 -14l-22 -156q-1 -12 7 -12h347q9 0 11.5 -3
t0.5 -12l-13 -100q-1 -7 -4 -10t-13 -3h-507q-23 0 -20 25l99 702v0zM567 883q2 -9 -0.5 -14.5t-14.5 -8.5l-240 -62q-11 -3 -16.5 2t-7.5 13l-7 35q-3 14 4 17l249 97q6 3 10.5 0.5t7.5 -12.5z" />
    <glyph glyph-name="Ecircumflex" unicode="&#xca;" horiz-adv-x="654" 
d="M135 727q2 10 4.5 12.5t10.5 2.5h507q16 0 12 -22l-13 -89q-1 -10 -5.5 -13.5t-15.5 -3.5h-327q-7 0 -10.5 -3t-5.5 -12l-21 -150q-1 -8 1 -10.5t8 -2.5h219q9 0 11 -3.5t1 -10.5l-14 -101q-1 -11 -14 -11h-221q-11 0 -13 -14l-22 -156q-1 -12 7 -12h347q9 0 11.5 -3
t0.5 -12l-13 -100q-1 -7 -4 -10t-13 -3h-507q-23 0 -20 25l99 702v0zM440 885q-7 10 -11 10t-14 -10l-61 -55q-7 -6 -11.5 -7.5t-13.5 -1.5h-84q-8 0 -8.5 5.5t5.5 10.5l125 114q7 7 14 8.5t19 1.5h73q9 0 13.5 -5t8.5 -10l92 -112q6 -9 4 -11t-12 -2h-80q-7 0 -11.5 3
t-8.5 9z" />
    <glyph glyph-name="Edieresis" unicode="&#xcb;" horiz-adv-x="654" 
d="M135 727q2 10 4.5 12.5t10.5 2.5h507q16 0 12 -22l-13 -89q-1 -10 -5.5 -13.5t-15.5 -3.5h-327q-7 0 -10.5 -3t-5.5 -12l-21 -150q-1 -8 1 -10.5t8 -2.5h219q9 0 11 -3.5t1 -10.5l-14 -101q-1 -11 -14 -11h-221q-11 0 -13 -14l-22 -156q-1 -12 7 -12h347q9 0 11.5 -3
t0.5 -12l-13 -100q-1 -7 -4 -10t-13 -3h-507q-23 0 -20 25l99 702v0zM386 840q-1 -11 -5.5 -13.5t-17.5 -2.5h-93q-12 0 -16 6.5t-3 16.5l13 94q2 9 4 11t9 2h108q7 0 11.5 -6.5t2.5 -13.5zM589 840q-1 -11 -5.5 -13.5t-17.5 -2.5h-94q-11 0 -15 6.5t-3 16.5l13 94q2 9 4 11
t9 2h108q7 0 11.5 -6.5t2.5 -13.5z" />
    <glyph glyph-name="Igrave" unicode="&#xcc;" horiz-adv-x="315" 
d="M296 742q15 0 12 -22l-98 -700q-1 -14 -6.5 -17t-19.5 -3h-131q-13 0 -15.5 7t-1.5 18l99 702q2 10 5 12.5t10 2.5h146zM129 953q4 7 9 8.5t11 -0.5l220 -98q7 -4 9 -8t-1 -12l-17 -38q-4 -7 -8.5 -7.5t-14.5 1.5l-223 62q-13 3 -16 8.5t1 14.5l30 69v0z" />
    <glyph glyph-name="Iacute" unicode="&#xcd;" horiz-adv-x="315" 
d="M296 742q15 0 12 -22l-98 -700q-1 -14 -6.5 -17t-19.5 -3h-131q-13 0 -15.5 7t-1.5 18l99 702q2 10 5 12.5t10 2.5h146zM387 883q2 -9 -0.5 -14.5t-14.5 -8.5l-240 -62q-11 -3 -16.5 2t-7.5 13l-7 35q-3 14 4 17l249 97q6 3 10.5 0.5t7.5 -12.5z" />
    <glyph glyph-name="Icircumflex" unicode="&#xce;" horiz-adv-x="315" 
d="M296 742q15 0 12 -22l-98 -700q-1 -14 -6.5 -17t-19.5 -3h-131q-13 0 -15.5 7t-1.5 18l99 702q2 10 5 12.5t10 2.5h146zM260 885q-7 10 -11 10t-14 -10l-61 -55q-7 -6 -11.5 -7.5t-13.5 -1.5h-84q-8 0 -8.5 5.5t5.5 10.5l125 114q7 7 14 8.5t19 1.5h73q9 0 13.5 -5
t8.5 -10l92 -112q6 -9 4 -11t-12 -2h-80q-7 0 -11.5 3t-8.5 9z" />
    <glyph glyph-name="Idieresis" unicode="&#xcf;" horiz-adv-x="315" 
d="M296 742q15 0 12 -22l-98 -700q-1 -14 -6.5 -17t-19.5 -3h-131q-13 0 -15.5 7t-1.5 18l99 702q2 10 5 12.5t10 2.5h146zM206 840q-1 -11 -5.5 -13.5t-17.5 -2.5h-93q-12 0 -16 6.5t-3 16.5l13 94q2 9 4 11t9 2h108q7 0 11.5 -6.5t2.5 -13.5zM409 840q-1 -11 -5.5 -13.5
t-17.5 -2.5h-94q-11 0 -15 6.5t-3 16.5l13 94q2 9 4 11t9 2h108q7 0 11.5 -6.5t2.5 -13.5z" />
    <glyph glyph-name="Eth" unicode="&#xd0;" horiz-adv-x="729" 
d="M395 329q-2 -13 -7.5 -16t-19.5 -3h-330q-12 0 -17 7.5t-4 17.5l10 73q2 10 4.5 12.5t10.5 2.5h348q7 0 12 -7t3 -14zM36 0q-11 0 -17.5 8t-4.5 21l98 697q1 10 5 13t16 3h210q121 0 201 -37.5t120 -106t40 -159.5q0 -134 -53.5 -233t-154 -152.5t-241.5 -53.5h-219v0z
M274 123q87 0 142 42t80.5 115t25.5 169q0 59 -20 96.5t-59 55t-96 17.5h-60q-16 0 -18 -17l-63 -460q-1 -9 2 -13.5t10 -4.5h56z" />
    <glyph glyph-name="Ntilde" unicode="&#xd1;" horiz-adv-x="759" 
d="M744 742q12 0 10 -15l-101 -716q-1 -11 -16 -11h-102q-7 0 -12 4t-11 12l-258 447q-3 6 -7 5t-6 -11l-62 -441q-1 -10 -5 -13t-15 -3h-110q-9 0 -12 6t-2 16l100 705q2 10 5 12.5t12 2.5h121q11 0 16.5 -4.5t9.5 -14.5l236 -417q5 -9 11.5 -7.5t7.5 11.5l58 419q2 9 5 11
t12 2h115zM640 858q-16 -7 -40 -14t-52 -7q-29 0 -52.5 7.5t-44.5 14.5t-46 7q-24 0 -38 -9t-35 -20q-9 -3 -13.5 1.5t-6.5 14.5l-9 43q-1 7 -3 14t8 14q20 12 41 21t50 9q31 0 56.5 -8t48 -16t43.5 -8q17 0 29.5 6t24 14t21.5 10t16 -3t7 -14l5 -51q1 -7 1 -14.5t-11 -11.5
v0z" />
    <glyph glyph-name="Ograve" unicode="&#xd2;" horiz-adv-x="774" 
d="M355 -10q-95 0 -162 36.5t-102.5 105.5t-35.5 165q0 18 1 38.5t4 41.5q17 117 70 201t135 129t185 45q93 0 160 -37.5t102.5 -107.5t35.5 -167q0 -18 -1 -38t-5 -41q-16 -116 -68.5 -199t-134 -127.5t-184.5 -44.5v0zM360 113q85 0 133.5 62.5t67.5 199.5q4 29 6 53.5
t2 45.5q0 81 -30 118.5t-93 37.5q-84 0 -134.5 -65.5t-70.5 -206.5q-4 -27 -6 -50.5t-2 -43.5q0 -79 31.5 -115t95.5 -36v0zM358 953q4 7 9 8.5t11 -0.5l220 -98q7 -4 9 -8t-1 -12l-17 -38q-4 -7 -8.5 -7.5t-14.5 1.5l-223 62q-13 3 -16 8.5t1 14.5l30 69v0z" />
    <glyph glyph-name="Oacute" unicode="&#xd3;" horiz-adv-x="774" 
d="M355 -10q-95 0 -162 36.5t-102.5 105.5t-35.5 165q0 18 1 38.5t4 41.5q17 117 70 201t135 129t185 45q93 0 160 -37.5t102.5 -107.5t35.5 -167q0 -18 -1 -38t-5 -41q-16 -116 -68.5 -199t-134 -127.5t-184.5 -44.5v0zM360 113q85 0 133.5 62.5t67.5 199.5q4 29 6 53.5
t2 45.5q0 81 -30 118.5t-93 37.5q-84 0 -134.5 -65.5t-70.5 -206.5q-4 -27 -6 -50.5t-2 -43.5q0 -79 31.5 -115t95.5 -36v0zM615 883q2 -9 -0.5 -14.5t-14.5 -8.5l-240 -62q-11 -3 -16.5 2t-7.5 13l-7 35q-3 14 4 17l249 97q6 3 10.5 0.5t7.5 -12.5z" />
    <glyph glyph-name="Ocircumflex" unicode="&#xd4;" horiz-adv-x="774" 
d="M355 -10q-95 0 -162 36.5t-102.5 105.5t-35.5 165q0 18 1 38.5t4 41.5q17 117 70 201t135 129t185 45q93 0 160 -37.5t102.5 -107.5t35.5 -167q0 -18 -1 -38t-5 -41q-16 -116 -68.5 -199t-134 -127.5t-184.5 -44.5v0zM360 113q85 0 133.5 62.5t67.5 199.5q4 29 6 53.5
t2 45.5q0 81 -30 118.5t-93 37.5q-84 0 -134.5 -65.5t-70.5 -206.5q-4 -27 -6 -50.5t-2 -43.5q0 -79 31.5 -115t95.5 -36v0zM488 885q-7 10 -11 10t-14 -10l-61 -55q-7 -6 -11.5 -7.5t-13.5 -1.5h-84q-8 0 -8.5 5.5t5.5 10.5l125 114q7 7 14 8.5t19 1.5h73q9 0 13.5 -5
t8.5 -10l92 -112q6 -9 4 -11t-12 -2h-80q-7 0 -11.5 3t-8.5 9z" />
    <glyph glyph-name="Otilde" unicode="&#xd5;" horiz-adv-x="774" 
d="M355 -10q-95 0 -162 36.5t-102.5 105.5t-35.5 165q0 18 1 38.5t4 41.5q17 117 70 201t135 129t185 45q93 0 160 -37.5t102.5 -107.5t35.5 -167q0 -18 -1 -38t-5 -41q-16 -116 -68.5 -199t-134 -127.5t-184.5 -44.5v0zM360 113q85 0 133.5 62.5t67.5 199.5q4 29 6 53.5
t2 45.5q0 81 -30 118.5t-93 37.5q-84 0 -134.5 -65.5t-70.5 -206.5q-4 -27 -6 -50.5t-2 -43.5q0 -79 31.5 -115t95.5 -36v0zM642 858q-16 -7 -40 -14t-52 -7q-29 0 -52.5 7.5t-44.5 14.5t-46 7q-24 0 -38 -9t-35 -20q-9 -3 -13.5 1.5t-6.5 14.5l-9 43q-1 7 -3 14t8 14
q20 12 41 21t50 9q31 0 56.5 -8t48 -16t43.5 -8q17 0 29.5 6t24 14t21.5 10t16 -3t7 -14l5 -51q1 -7 1 -14.5t-11 -11.5v0z" />
    <glyph glyph-name="Odieresis" unicode="&#xd6;" horiz-adv-x="774" 
d="M355 -10q-95 0 -162 36.5t-102.5 105.5t-35.5 165q0 18 1 38.5t4 41.5q17 117 70 201t135 129t185 45q93 0 160 -37.5t102.5 -107.5t35.5 -167q0 -18 -1 -38t-5 -41q-16 -116 -68.5 -199t-134 -127.5t-184.5 -44.5v0zM360 113q85 0 133.5 62.5t67.5 199.5q4 29 6 53.5
t2 45.5q0 81 -30 118.5t-93 37.5q-84 0 -134.5 -65.5t-70.5 -206.5q-4 -27 -6 -50.5t-2 -43.5q0 -79 31.5 -115t95.5 -36v0zM434 840q-1 -11 -5.5 -13.5t-17.5 -2.5h-93q-12 0 -16 6.5t-3 16.5l13 94q2 9 4 11t9 2h108q7 0 11.5 -6.5t2.5 -13.5zM637 840q-1 -11 -5.5 -13.5
t-17.5 -2.5h-94q-11 0 -15 6.5t-3 16.5l13 94q2 9 4 11t9 2h108q7 0 11.5 -6.5t2.5 -13.5z" />
    <glyph glyph-name="multiply" unicode="&#xd7;" horiz-adv-x="576" 
d="M449 149q-10 -8 -17.5 -4.5t-15.5 13.5l-312 362q-7 8 -8 14.5t6 13.5l59 52q8 7 14 4t9 -8l323 -374q4 -4 5.5 -10t-4.5 -11zM62 203q-8 8 -8.5 16t9.5 18l414 362q9 9 15 5.5t12 -11.5l46 -52q5 -6 7 -12t-2 -11l-428 -374q-6 -5 -11 -1.5t-9 8.5z" />
    <glyph glyph-name="Oslash" unicode="&#xd8;" horiz-adv-x="764" 
d="M808 695q4 -5 6 -11t-4 -12l-95 -82q20 -44 26.5 -101.5t-4.5 -127.5q-16 -116 -68.5 -199t-134 -127.5t-184.5 -44.5q-72 0 -126.5 21.5t-90.5 59.5l-73 -70q-11 -10 -18.5 -7t-16.5 13l-28 33q-9 9 -11.5 16t5.5 14l87 75q-19 46 -26 104t3 128q17 117 70 201t135 129
t185 45q71 0 126 -22.5t92 -62.5l80 76q7 7 13.5 5t10.5 -7l41 -46v0zM237 358q-3 -22 -3.5 -42.5t1.5 -38.5l312 291q-14 34 -41 48t-66 14q-84 0 -133.5 -65.5t-69.5 -206.5v0zM556 375q3 23 3 44.5t-3 38.5l-310 -289q15 -30 42.5 -42.5t66.5 -12.5q85 0 133.5 62
t67.5 199v0z" />
    <glyph glyph-name="Ugrave" unicode="&#xd9;" horiz-adv-x="721" 
d="M660 270q-15 -105 -59 -166.5t-113.5 -87.5t-159.5 -26q-143 0 -205.5 59t-62.5 170q0 19 1.5 38.5t4.5 40.5l61 429q1 10 4 12.5t10 2.5h143q9 0 13.5 -7t2.5 -15l-63 -454q-1 -12 -2.5 -22.5t-1.5 -20.5q0 -58 29.5 -83t83.5 -25q43 0 78.5 16.5t59.5 52.5t33 94
l63 450q2 9 4.5 11.5t9.5 2.5h114q8 0 12.5 -7t2.5 -15l-63 -450v0zM344 953q4 7 9 8.5t11 -0.5l220 -98q7 -4 9 -8t-1 -12l-17 -38q-4 -7 -8.5 -7.5t-14.5 1.5l-223 62q-13 3 -16 8.5t1 14.5l30 69v0z" />
    <glyph glyph-name="Uacute" unicode="&#xda;" horiz-adv-x="721" 
d="M660 270q-15 -105 -59 -166.5t-113.5 -87.5t-159.5 -26q-143 0 -205.5 59t-62.5 170q0 19 1.5 38.5t4.5 40.5l61 429q1 10 4 12.5t10 2.5h143q9 0 13.5 -7t2.5 -15l-63 -454q-1 -12 -2.5 -22.5t-1.5 -20.5q0 -58 29.5 -83t83.5 -25q43 0 78.5 16.5t59.5 52.5t33 94
l63 450q2 9 4.5 11.5t9.5 2.5h114q8 0 12.5 -7t2.5 -15l-63 -450v0zM602 883q2 -9 -0.5 -14.5t-14.5 -8.5l-240 -62q-11 -3 -16.5 2t-7.5 13l-7 35q-3 14 4 17l249 97q6 3 10.5 0.5t7.5 -12.5z" />
    <glyph glyph-name="Ucircumflex" unicode="&#xdb;" horiz-adv-x="721" 
d="M660 270q-15 -105 -59 -166.5t-113.5 -87.5t-159.5 -26q-143 0 -205.5 59t-62.5 170q0 19 1.5 38.5t4.5 40.5l61 429q1 10 4 12.5t10 2.5h143q9 0 13.5 -7t2.5 -15l-63 -454q-1 -12 -2.5 -22.5t-1.5 -20.5q0 -58 29.5 -83t83.5 -25q43 0 78.5 16.5t59.5 52.5t33 94
l63 450q2 9 4.5 11.5t9.5 2.5h114q8 0 12.5 -7t2.5 -15l-63 -450v0zM475 885q-7 10 -11 10t-14 -10l-61 -55q-7 -6 -11.5 -7.5t-13.5 -1.5h-84q-8 0 -8.5 5.5t5.5 10.5l125 114q7 7 14 8.5t19 1.5h73q9 0 13.5 -5t8.5 -10l92 -112q6 -9 4 -11t-12 -2h-80q-7 0 -11.5 3
t-8.5 9z" />
    <glyph glyph-name="Udieresis" unicode="&#xdc;" horiz-adv-x="721" 
d="M660 270q-15 -105 -59 -166.5t-113.5 -87.5t-159.5 -26q-143 0 -205.5 59t-62.5 170q0 19 1.5 38.5t4.5 40.5l61 429q1 10 4 12.5t10 2.5h143q9 0 13.5 -7t2.5 -15l-63 -454q-1 -12 -2.5 -22.5t-1.5 -20.5q0 -58 29.5 -83t83.5 -25q43 0 78.5 16.5t59.5 52.5t33 94
l63 450q2 9 4.5 11.5t9.5 2.5h114q8 0 12.5 -7t2.5 -15l-63 -450v0zM421 840q-1 -11 -5.5 -13.5t-17.5 -2.5h-93q-12 0 -16 6.5t-3 16.5l13 94q2 9 4 11t9 2h108q7 0 11.5 -6.5t2.5 -13.5zM624 840q-1 -11 -5.5 -13.5t-17.5 -2.5h-94q-11 0 -15 6.5t-3 16.5l13 94q2 9 4 11
t9 2h108q7 0 11.5 -6.5t2.5 -13.5z" />
    <glyph glyph-name="Yacute" unicode="&#xdd;" horiz-adv-x="735" 
d="M759 742q11 0 13 -6.5t-3 -14.5l-292 -388q-7 -8 -10.5 -18.5t-6.5 -35.5l-37 -259q-2 -14 -7.5 -17t-19.5 -3h-132q-11 0 -14 5t-2 16l39 274q2 13 1 20t-5 16l-183 391q-5 10 -2.5 15t15.5 5h150q12 0 17 -5.5t10 -15.5l112 -261q5 -13 14 0l189 268q7 10 11.5 12
t16.5 2h126v0zM606 883q2 -9 -0.5 -14.5t-14.5 -8.5l-240 -62q-11 -3 -16.5 2t-7.5 13l-7 35q-3 14 4 17l249 97q6 3 10.5 0.5t7.5 -12.5z" />
    <glyph glyph-name="Thorn" unicode="&#xde;" horiz-adv-x="723" 
d="M700 369q-9 -71 -49.5 -119t-104 -72.5t-143.5 -24.5h-160q-6 0 -10.5 -4.5t-5.5 -9.5l-17 -120q-1 -13 -6.5 -16t-18.5 -3h-128q-12 0 -17 7t-4 18l99 702q2 10 5 12.5t10 2.5h143q8 0 12.5 -7t2.5 -15l-15 -115q-1 -5 -0.5 -5h4.5h142q80 0 143.5 -26t96 -77t21.5 -128
v0zM524 388q7 45 -23 65.5t-84 20.5h-120q-11 0 -17.5 -6t-8.5 -16l-23 -159q-1 -9 0 -11.5t10 -2.5h132q53 0 90 29t44 80v0z" />
    <glyph glyph-name="germandbls" unicode="&#xdf;" horiz-adv-x="649" 
d="M397 742q71 0 116.5 -20.5t65.5 -56.5t13 -84q-4 -35 -22 -60t-49 -44.5t-78 -39.5q-17 -7 -26.5 -14t-11.5 -19q0 -6 4.5 -10t16.5 -11q35 -13 70 -30t62.5 -41.5t41 -60.5t6.5 -86q-8 -58 -40.5 -97t-82.5 -58.5t-114 -19.5q-42 0 -72.5 9t-48.5 23q-8 2 -10.5 7.5
t-0.5 10.5l44 70q4 6 8 3t6 -8l31.5 -10.5t39.5 -5.5q39 0 68 19.5t34 57.5q4 21 -6 34.5t-29.5 24t-45.5 22.5q-29 11 -53 28.5t-36.5 44.5t-7.5 65q5 36 26 61.5t53 50.5q19 12 37 25t31.5 29t15.5 38q3 24 -12.5 38.5t-52.5 14.5q-50 0 -83 -31t-40 -81l-73 -515
q1 -10 -1 -12.5t-10 -2.5h-123q-7 0 -12 6.5t-4 14.5l53 373q1 5 0.5 5.5t-5.5 0.5h-36q-8 0 -13 5.5t-4 13.5l10 74q1 7 4 10t13 3h31q9 0 13 7t6 16q7 43 26 81t53 68t84.5 47t119.5 17v0z" />
    <glyph glyph-name="agrave" unicode="&#xe0;" horiz-adv-x="563" 
d="M321 49q-32 -31 -74.5 -45t-89.5 -14q-71 0 -110.5 36.5t-39.5 93.5t29.5 95.5t76 62.5t102 35t106.5 12l36 3q19 0 22 19l3 21q1 4 1 8.5v7.5q0 30 -18 45t-51 15q-32 0 -63 -13t-54 -49q-3 -5 -7.5 -6.5t-14.5 0.5l-97 23q-6 2 -9.5 9t4.5 24q33 56 97 82t152 26
q75 0 121 -18t67 -50t21 -75q0 -7 -0.5 -14t-1.5 -15l-50 -350q-1 -13 -4 -15.5t-14 -2.5h-103q-10 0 -13 7t-4 19l1 26q-2 18 -21 -3v0zM364 241q1 8 -0.5 10.5t-9.5 1.5l-36 -3q-21 -1 -48 -7t-52 -17.5t-41.5 -31.5t-16.5 -50q0 -23 17 -38t48 -15q28 0 50.5 8t38.5 20
q17 13 28 27.5t13 29.5zM229 741q4 7 9 8.5t11 -0.5l220 -98q7 -4 9 -8t-1 -12l-17 -38q-4 -7 -8.5 -7.5t-14.5 1.5l-223 62q-13 3 -16 8.5t1 14.5l30 69v0z" />
    <glyph glyph-name="aacute" unicode="&#xe1;" horiz-adv-x="563" 
d="M321 49q-32 -31 -74.5 -45t-89.5 -14q-71 0 -110.5 36.5t-39.5 93.5t29.5 95.5t76 62.5t102 35t106.5 12l36 3q19 0 22 19l3 21q1 4 1 8.5v7.5q0 30 -18 45t-51 15q-32 0 -63 -13t-54 -49q-3 -5 -7.5 -6.5t-14.5 0.5l-97 23q-6 2 -9.5 9t4.5 24q33 56 97 82t152 26
q75 0 121 -18t67 -50t21 -75q0 -7 -0.5 -14t-1.5 -15l-50 -350q-1 -13 -4 -15.5t-14 -2.5h-103q-10 0 -13 7t-4 19l1 26q-2 18 -21 -3v0zM364 241q1 8 -0.5 10.5t-9.5 1.5l-36 -3q-21 -1 -48 -7t-52 -17.5t-41.5 -31.5t-16.5 -50q0 -23 17 -38t48 -15q28 0 50.5 8t38.5 20
q17 13 28 27.5t13 29.5zM486 671q2 -9 -0.5 -14.5t-14.5 -8.5l-240 -62q-11 -3 -16.5 2t-7.5 13l-7 35q-3 14 4 17l249 97q6 3 10.5 0.5t7.5 -12.5z" />
    <glyph glyph-name="acircumflex" unicode="&#xe2;" horiz-adv-x="563" 
d="M321 49q-32 -31 -74.5 -45t-89.5 -14q-71 0 -110.5 36.5t-39.5 93.5t29.5 95.5t76 62.5t102 35t106.5 12l36 3q19 0 22 19l3 21q1 4 1 8.5v7.5q0 30 -18 45t-51 15q-32 0 -63 -13t-54 -49q-3 -5 -7.5 -6.5t-14.5 0.5l-97 23q-6 2 -9.5 9t4.5 24q33 56 97 82t152 26
q75 0 121 -18t67 -50t21 -75q0 -7 -0.5 -14t-1.5 -15l-50 -350q-1 -13 -4 -15.5t-14 -2.5h-103q-10 0 -13 7t-4 19l1 26q-2 18 -21 -3v0zM364 241q1 8 -0.5 10.5t-9.5 1.5l-36 -3q-21 -1 -48 -7t-52 -17.5t-41.5 -31.5t-16.5 -50q0 -23 17 -38t48 -15q28 0 50.5 8t38.5 20
q17 13 28 27.5t13 29.5zM359 673q-7 10 -11 10t-14 -10l-61 -55q-7 -6 -11.5 -7.5t-13.5 -1.5h-84q-8 0 -8.5 5.5t5.5 10.5l125 114q7 7 14 8.5t19 1.5h73q9 0 13.5 -5t8.5 -10l92 -112q6 -9 4 -11t-12 -2h-80q-7 0 -11.5 3t-8.5 9z" />
    <glyph glyph-name="atilde" unicode="&#xe3;" horiz-adv-x="563" 
d="M321 49q-32 -31 -74.5 -45t-89.5 -14q-71 0 -110.5 36.5t-39.5 93.5t29.5 95.5t76 62.5t102 35t106.5 12l36 3q19 0 22 19l3 21q1 4 1 8.5v7.5q0 30 -18 45t-51 15q-32 0 -63 -13t-54 -49q-3 -5 -7.5 -6.5t-14.5 0.5l-97 23q-6 2 -9.5 9t4.5 24q33 56 97 82t152 26
q75 0 121 -18t67 -50t21 -75q0 -7 -0.5 -14t-1.5 -15l-50 -350q-1 -13 -4 -15.5t-14 -2.5h-103q-10 0 -13 7t-4 19l1 26q-2 18 -21 -3v0zM364 241q1 8 -0.5 10.5t-9.5 1.5l-36 -3q-21 -1 -48 -7t-52 -17.5t-41.5 -31.5t-16.5 -50q0 -23 17 -38t48 -15q28 0 50.5 8t38.5 20
q17 13 28 27.5t13 29.5zM513 646q-16 -7 -40 -14t-52 -7q-29 0 -52.5 7.5t-44.5 14.5t-46 7q-24 0 -38 -9t-35 -20q-9 -3 -13.5 1.5t-6.5 14.5l-9 43q-1 7 -3 14t8 14q20 12 41 21t50 9q31 0 56.5 -8t48 -16t43.5 -8q17 0 29.5 6t24 14t21.5 10t16 -3t7 -14l5 -51
q1 -7 1 -14.5t-11 -11.5v0z" />
    <glyph glyph-name="adieresis" unicode="&#xe4;" horiz-adv-x="563" 
d="M321 49q-32 -31 -74.5 -45t-89.5 -14q-71 0 -110.5 36.5t-39.5 93.5t29.5 95.5t76 62.5t102 35t106.5 12l36 3q19 0 22 19l3 21q1 4 1 8.5v7.5q0 30 -18 45t-51 15q-32 0 -63 -13t-54 -49q-3 -5 -7.5 -6.5t-14.5 0.5l-97 23q-6 2 -9.5 9t4.5 24q33 56 97 82t152 26
q75 0 121 -18t67 -50t21 -75q0 -7 -0.5 -14t-1.5 -15l-50 -350q-1 -13 -4 -15.5t-14 -2.5h-103q-10 0 -13 7t-4 19l1 26q-2 18 -21 -3v0zM364 241q1 8 -0.5 10.5t-9.5 1.5l-36 -3q-21 -1 -48 -7t-52 -17.5t-41.5 -31.5t-16.5 -50q0 -23 17 -38t48 -15q28 0 50.5 8t38.5 20
q17 13 28 27.5t13 29.5zM305 628q-1 -11 -5.5 -13.5t-17.5 -2.5h-93q-12 0 -16 6.5t-3 16.5l13 94q2 9 4 11t9 2h108q7 0 11.5 -6.5t2.5 -13.5zM508 628q-1 -11 -5.5 -13.5t-17.5 -2.5h-94q-11 0 -15 6.5t-3 16.5l13 94q2 9 4 11t9 2h108q7 0 11.5 -6.5t2.5 -13.5z" />
    <glyph glyph-name="aring" unicode="&#xe5;" horiz-adv-x="563" 
d="M321 49q-32 -31 -74.5 -45t-89.5 -14q-71 0 -110.5 36.5t-39.5 93.5t29.5 95.5t76 62.5t102 35t106.5 12l36 3q19 0 22 19l3 21q1 4 1 8.5v7.5q0 30 -18 45t-51 15q-32 0 -63 -13t-54 -49q-3 -5 -7.5 -6.5t-14.5 0.5l-97 23q-6 2 -9.5 9t4.5 24q33 56 97 82t152 26
q75 0 121 -18t67 -50t21 -75q0 -7 -0.5 -14t-1.5 -15l-50 -350q-1 -13 -4 -15.5t-14 -2.5h-103q-10 0 -13 7t-4 19l1 26q-2 18 -21 -3v0zM364 241q1 8 -0.5 10.5t-9.5 1.5l-36 -3q-21 -1 -48 -7t-52 -17.5t-41.5 -31.5t-16.5 -50q0 -23 17 -38t48 -15q28 0 50.5 8t38.5 20
q17 13 28 27.5t13 29.5zM459 685q-7 -45 -41.5 -74.5t-78.5 -29.5q-33 0 -57.5 16.5t-36.5 44.5t-8 62q6 42 41 70.5t79 28.5q33 0 57.5 -16t37 -42.5t7.5 -59.5v0zM399 701q3 19 -8.5 30.5t-30.5 11.5q-22 0 -42.5 -17t-24.5 -42q-1 -18 10.5 -31t29.5 -13q24 0 43 18.5
t23 42.5v0z" />
    <glyph glyph-name="ae" unicode="&#xe6;" horiz-adv-x="918" 
d="M537 236q-8 0 -14.5 -7t-8.5 -21q-5 -33 8 -58.5t39.5 -40t61.5 -14.5q29 0 52 8.5t45 25.5t44 39q5 2 7.5 -0.5t10.5 -5.5l66 -31q6 -2 9 -9t-3 -17q-37 -43 -75.5 -68t-82 -36t-96.5 -11q-49 0 -86.5 14t-64 36t-44.5 48q-3 0 -7 -4.5t-6 -8.5q-30 -26 -63.5 -45.5
t-74 -29.5t-90.5 -10q-86 0 -125.5 44t-29.5 115q11 76 84 122t212 53l48 4q7 0 15.5 5t9.5 14l3 21q5 38 -12 57t-58 19q-31 0 -62 -15.5t-54 -51.5q-5 -6 -8 -4.5t-13 3.5l-97 23q-5 2 -7 12.5t2 20.5q25 36 57 60t78 36t111 12q72 -1 114.5 -17.5t60.5 -45.5
q38 33 81.5 48t89.5 15q77 0 132 -34.5t80.5 -99t12.5 -155.5q-1 -9 -3 -11.5t-14 -3.5h-335v0zM668 446q-31 0 -60.5 -15.5t-49.5 -44.5t-26 -70l196 4q10 0 16 5.5t7 17.5q4 23 -4 47t-27.5 40t-51.5 16v0zM362 235q2 8 -0.5 10t-11.5 2l-38 -3q-35 -2 -69 -15
t-56.5 -34.5t-27.5 -52.5q-4 -26 13 -42t54 -15q31 1 58.5 12.5t46.5 30.5t22 41l9 66v0z" />
    <glyph glyph-name="ccedilla" unicode="&#xe7;" horiz-adv-x="551" 
d="M330 540q66 0 109.5 -24t68 -60.5t30.5 -75.5q0 -8 -2.5 -11t-12.5 -4l-101 -9q-6 -1 -9 5t-5 16q-8 17 -16 31t-21.5 22.5t-37.5 8.5q-40 0 -69 -22.5t-47 -58.5t-26.5 -76.5t-8.5 -75.5q0 -60 25.5 -88.5t71.5 -28.5q47 0 76.5 21.5t58.5 65.5q4 5 16 2l71 -17
q7 -1 9.5 -8t-1.5 -19q-11 -20 -31 -45t-50.5 -47.5t-71 -37t-91.5 -14.5q-71 0 -124.5 29.5t-83 82t-29.5 122.5q0 62 21.5 119t61 101.5t95.5 70t124 25.5v0zM359 -143q-5 -37 -43 -56.5t-85 -19.5q-32 0 -60 7t-49 21q-5 1 -8 5t-2 8l20 35q2 4 4 0.5t3 -6.5
q15 -6 32.5 -11t35.5 -5q26 0 43 11.5t19 28.5q3 17 -13.5 25t-62.5 8q-8 0 -12.5 4t-1.5 10l50 83h69l-27 -56q-3 -3 -4 -3t0 0q38 -1 59 -15t28.5 -34t4.5 -40v0z" />
    <glyph glyph-name="egrave" unicode="&#xe8;" horiz-adv-x="586" 
d="M269 -10q-72 0 -126 29.5t-84.5 81.5t-30.5 121q0 62 22.5 118.5t63 102t96 71.5t122.5 26q69 0 120.5 -27.5t80 -79.5t28.5 -126q0 -13 -1 -27t-3 -29q-1 -8 -6 -11.5t-17 -3.5h-337q-10 0 -13 -13t-3 -30q0 -48 31 -73t79 -25q38 0 71 15.5t65 50.5q5 5 10.5 4.5
t12.5 -3.5l66 -31q20 -9 7 -26q-40 -44 -78.5 -69.5t-81 -35.5t-94.5 -10v0zM396 316q10 0 17 8.5t7 30.5q0 36 -21.5 63.5t-65.5 27.5q-33 0 -62 -17t-48 -46.5t-23 -66.5h196zM241 741q4 7 9 8.5t11 -0.5l220 -98q7 -4 9 -8t-1 -12l-17 -38q-4 -7 -8.5 -7.5t-14.5 1.5
l-223 62q-13 3 -16 8.5t1 14.5l30 69v0z" />
    <glyph glyph-name="eacute" unicode="&#xe9;" horiz-adv-x="586" 
d="M269 -10q-72 0 -126 29.5t-84.5 81.5t-30.5 121q0 62 22.5 118.5t63 102t96 71.5t122.5 26q69 0 120.5 -27.5t80 -79.5t28.5 -126q0 -13 -1 -27t-3 -29q-1 -8 -6 -11.5t-17 -3.5h-337q-10 0 -13 -13t-3 -30q0 -48 31 -73t79 -25q38 0 71 15.5t65 50.5q5 5 10.5 4.5
t12.5 -3.5l66 -31q20 -9 7 -26q-40 -44 -78.5 -69.5t-81 -35.5t-94.5 -10v0zM396 316q10 0 17 8.5t7 30.5q0 36 -21.5 63.5t-65.5 27.5q-33 0 -62 -17t-48 -46.5t-23 -66.5h196zM498 671q2 -9 -0.5 -14.5t-14.5 -8.5l-240 -62q-11 -3 -16.5 2t-7.5 13l-7 35q-3 14 4 17
l249 97q6 3 10.5 0.5t7.5 -12.5z" />
    <glyph glyph-name="ecircumflex" unicode="&#xea;" horiz-adv-x="586" 
d="M269 -10q-72 0 -126 29.5t-84.5 81.5t-30.5 121q0 62 22.5 118.5t63 102t96 71.5t122.5 26q69 0 120.5 -27.5t80 -79.5t28.5 -126q0 -13 -1 -27t-3 -29q-1 -8 -6 -11.5t-17 -3.5h-337q-10 0 -13 -13t-3 -30q0 -48 31 -73t79 -25q38 0 71 15.5t65 50.5q5 5 10.5 4.5
t12.5 -3.5l66 -31q20 -9 7 -26q-40 -44 -78.5 -69.5t-81 -35.5t-94.5 -10v0zM396 316q10 0 17 8.5t7 30.5q0 36 -21.5 63.5t-65.5 27.5q-33 0 -62 -17t-48 -46.5t-23 -66.5h196zM371 673q-7 10 -11 10t-14 -10l-61 -55q-7 -6 -11.5 -7.5t-13.5 -1.5h-84q-8 0 -8.5 5.5
t5.5 10.5l125 114q7 7 14 8.5t19 1.5h73q9 0 13.5 -5t8.5 -10l92 -112q6 -9 4 -11t-12 -2h-80q-7 0 -11.5 3t-8.5 9z" />
    <glyph glyph-name="edieresis" unicode="&#xeb;" horiz-adv-x="586" 
d="M269 -10q-72 0 -126 29.5t-84.5 81.5t-30.5 121q0 62 22.5 118.5t63 102t96 71.5t122.5 26q69 0 120.5 -27.5t80 -79.5t28.5 -126q0 -13 -1 -27t-3 -29q-1 -8 -6 -11.5t-17 -3.5h-337q-10 0 -13 -13t-3 -30q0 -48 31 -73t79 -25q38 0 71 15.5t65 50.5q5 5 10.5 4.5
t12.5 -3.5l66 -31q20 -9 7 -26q-40 -44 -78.5 -69.5t-81 -35.5t-94.5 -10v0zM396 316q10 0 17 8.5t7 30.5q0 36 -21.5 63.5t-65.5 27.5q-33 0 -62 -17t-48 -46.5t-23 -66.5h196zM317 628q-1 -11 -5.5 -13.5t-17.5 -2.5h-93q-12 0 -16 6.5t-3 16.5l13 94q2 9 4 11t9 2h108
q7 0 11.5 -6.5t2.5 -13.5zM520 628q-1 -11 -5.5 -13.5t-17.5 -2.5h-94q-11 0 -15 6.5t-3 16.5l13 94q2 9 4 11t9 2h108q7 0 11.5 -6.5t2.5 -13.5z" />
    <glyph glyph-name="igrave" unicode="&#xec;" horiz-adv-x="265" 
d="M175 20q-2 -14 -7 -17t-19 -3h-106q-13 0 -17.5 7t-3.5 18l69 490q1 10 4 12.5t10 2.5h123q7 0 12 -7t4 -15zM73 741q4 7 9 8.5t11 -0.5l220 -98q7 -4 9 -8t-1 -12l-17 -38q-4 -7 -8.5 -7.5t-14.5 1.5l-223 62q-13 3 -16 8.5t1 14.5l30 69v0z" />
    <glyph glyph-name="iacute" unicode="&#xed;" horiz-adv-x="265" 
d="M175 20q-2 -14 -7 -17t-19 -3h-106q-13 0 -17.5 7t-3.5 18l69 490q1 10 4 12.5t10 2.5h123q7 0 12 -7t4 -15zM330 671q2 -9 -0.5 -14.5t-14.5 -8.5l-240 -62q-11 -3 -16.5 2t-7.5 13l-7 35q-3 14 4 17l249 97q6 3 10.5 0.5t7.5 -12.5z" />
    <glyph glyph-name="icircumflex" unicode="&#xee;" horiz-adv-x="265" 
d="M175 20q-2 -14 -7 -17t-19 -3h-106q-13 0 -17.5 7t-3.5 18l69 490q1 10 4 12.5t10 2.5h123q7 0 12 -7t4 -15zM203 673q-7 10 -11 10t-14 -10l-61 -55q-7 -6 -11.5 -7.5t-13.5 -1.5h-84q-8 0 -8.5 5.5t5.5 10.5l125 114q7 7 14 8.5t19 1.5h73q9 0 13.5 -5t8.5 -10l92 -112
q6 -9 4 -11t-12 -2h-80q-7 0 -11.5 3t-8.5 9z" />
    <glyph glyph-name="idieresis" unicode="&#xef;" horiz-adv-x="265" 
d="M175 20q-2 -14 -7 -17t-19 -3h-106q-13 0 -17.5 7t-3.5 18l69 490q1 10 4 12.5t10 2.5h123q7 0 12 -7t4 -15zM149 628q-1 -11 -5.5 -13.5t-17.5 -2.5h-93q-12 0 -16 6.5t-3 16.5l13 94q2 9 4 11t9 2h108q7 0 11.5 -6.5t2.5 -13.5zM352 628q-1 -11 -5.5 -13.5t-17.5 -2.5
h-94q-11 0 -15 6.5t-3 16.5l13 94q2 9 4 11t9 2h108q7 0 11.5 -6.5t2.5 -13.5z" />
    <glyph glyph-name="eth" unicode="&#xf0;" horiz-adv-x="599" 
d="M569 266q-12 -84 -53.5 -146t-105.5 -96t-144 -34q-81 0 -137.5 35.5t-82.5 96.5t-16 138q11 77 53.5 135.5t106 91.5t137.5 33q20 0 34 -2t23 -7q-13 27 -31.5 50.5t-48.5 47.5l-127 -70q-8 -4 -12.5 0.5t-6.5 11.5l-12 21q-7 14 0 17l108 53q-19 12 -39.5 22t-42.5 20
q-6 0 -9.5 4.5t0.5 8.5l73 52q6 5 9 3.5t8 -5.5q34 -8 62.5 -20t53.5 -27l90 52q6 3 10 -1t5 -7l15 -34q2 -3 3 -5.5t-3 -5.5l-69 -32q90 -69 128 -173.5t21 -227.5v0zM270 92q37 0 66.5 21t49 59.5t26.5 91.5q8 50 0 85t-29 53.5t-55 18.5q-37 0 -67 -21t-49.5 -60
t-27.5 -93q-6 -49 1.5 -84t29 -53t55.5 -18v0z" />
    <glyph glyph-name="ntilde" unicode="&#xf1;" horiz-adv-x="596" 
d="M36 0q-10 0 -12.5 7.5t-1.5 17.5l69 491q1 9 4 11.5t10 2.5h128q6 0 8.5 -2.5t0.5 -10.5l-7 -50q-1 -12 10 -2q41 34 85 54.5t90 20.5q68 0 106 -37t38 -97q0 -7 -0.5 -14t-1.5 -14l-50 -358q-2 -12 -7 -16t-18 -4h-115q-11 0 -13 7t-1 18l47 334q1 6 1.5 11t0.5 8
q0 25 -14.5 38t-44.5 13q-22 0 -42.5 -8t-40 -22.5t-40.5 -35.5l-50 -344q-2 -13 -7.5 -16t-19.5 -3h-112v0zM529 646q-16 -7 -40 -14t-52 -7q-29 0 -52.5 7.5t-44.5 14.5t-46 7q-24 0 -38 -9t-35 -20q-9 -3 -13.5 1.5t-6.5 14.5l-9 43q-1 7 -3 14t8 14q20 12 41 21t50 9
q31 0 56.5 -8t48 -16t43.5 -8q17 0 29.5 6t24 14t21.5 10t16 -3t7 -14l5 -51q1 -7 1 -14.5t-11 -11.5v0z" />
    <glyph glyph-name="ograve" unicode="&#xf2;" horiz-adv-x="599" 
d="M266 -10q-73 0 -126.5 29.5t-82.5 82t-29 121.5q0 70 24.5 128.5t66.5 100.5t97.5 65t116.5 23q73 0 126.5 -30.5t82 -84t28.5 -123.5q0 -89 -40 -160t-109 -111.5t-155 -40.5v0zM270 92q41 0 74.5 27.5t53.5 81t20 131.5q0 54 -22 81.5t-65 27.5q-41 0 -75 -28t-54 -82
t-20 -132q0 -53 22 -80t66 -27v0zM241 741q4 7 9 8.5t11 -0.5l220 -98q7 -4 9 -8t-1 -12l-17 -38q-4 -7 -8.5 -7.5t-14.5 1.5l-223 62q-13 3 -16 8.5t1 14.5l30 69v0z" />
    <glyph glyph-name="oacute" unicode="&#xf3;" horiz-adv-x="599" 
d="M266 -10q-73 0 -126.5 29.5t-82.5 82t-29 121.5q0 70 24.5 128.5t66.5 100.5t97.5 65t116.5 23q73 0 126.5 -30.5t82 -84t28.5 -123.5q0 -89 -40 -160t-109 -111.5t-155 -40.5v0zM270 92q41 0 74.5 27.5t53.5 81t20 131.5q0 54 -22 81.5t-65 27.5q-41 0 -75 -28t-54 -82
t-20 -132q0 -53 22 -80t66 -27v0zM498 671q2 -9 -0.5 -14.5t-14.5 -8.5l-240 -62q-11 -3 -16.5 2t-7.5 13l-7 35q-3 14 4 17l249 97q6 3 10.5 0.5t7.5 -12.5z" />
    <glyph glyph-name="ocircumflex" unicode="&#xf4;" horiz-adv-x="599" 
d="M266 -10q-73 0 -126.5 29.5t-82.5 82t-29 121.5q0 70 24.5 128.5t66.5 100.5t97.5 65t116.5 23q73 0 126.5 -30.5t82 -84t28.5 -123.5q0 -89 -40 -160t-109 -111.5t-155 -40.5v0zM270 92q41 0 74.5 27.5t53.5 81t20 131.5q0 54 -22 81.5t-65 27.5q-41 0 -75 -28t-54 -82
t-20 -132q0 -53 22 -80t66 -27v0zM371 673q-7 10 -11 10t-14 -10l-61 -55q-7 -6 -11.5 -7.5t-13.5 -1.5h-84q-8 0 -8.5 5.5t5.5 10.5l125 114q7 7 14 8.5t19 1.5h73q9 0 13.5 -5t8.5 -10l92 -112q6 -9 4 -11t-12 -2h-80q-7 0 -11.5 3t-8.5 9z" />
    <glyph glyph-name="otilde" unicode="&#xf5;" horiz-adv-x="599" 
d="M266 -10q-73 0 -126.5 29.5t-82.5 82t-29 121.5q0 70 24.5 128.5t66.5 100.5t97.5 65t116.5 23q73 0 126.5 -30.5t82 -84t28.5 -123.5q0 -89 -40 -160t-109 -111.5t-155 -40.5v0zM270 92q41 0 74.5 27.5t53.5 81t20 131.5q0 54 -22 81.5t-65 27.5q-41 0 -75 -28t-54 -82
t-20 -132q0 -53 22 -80t66 -27v0zM525 646q-16 -7 -40 -14t-52 -7q-29 0 -52.5 7.5t-44.5 14.5t-46 7q-24 0 -38 -9t-35 -20q-9 -3 -13.5 1.5t-6.5 14.5l-9 43q-1 7 -3 14t8 14q20 12 41 21t50 9q31 0 56.5 -8t48 -16t43.5 -8q17 0 29.5 6t24 14t21.5 10t16 -3t7 -14l5 -51
q1 -7 1 -14.5t-11 -11.5v0z" />
    <glyph glyph-name="odieresis" unicode="&#xf6;" horiz-adv-x="599" 
d="M266 -10q-73 0 -126.5 29.5t-82.5 82t-29 121.5q0 70 24.5 128.5t66.5 100.5t97.5 65t116.5 23q73 0 126.5 -30.5t82 -84t28.5 -123.5q0 -89 -40 -160t-109 -111.5t-155 -40.5v0zM270 92q41 0 74.5 27.5t53.5 81t20 131.5q0 54 -22 81.5t-65 27.5q-41 0 -75 -28t-54 -82
t-20 -132q0 -53 22 -80t66 -27v0zM317 628q-1 -11 -5.5 -13.5t-17.5 -2.5h-93q-12 0 -16 6.5t-3 16.5l13 94q2 9 4 11t9 2h108q7 0 11.5 -6.5t2.5 -13.5zM520 628q-1 -11 -5.5 -13.5t-17.5 -2.5h-94q-11 0 -15 6.5t-3 16.5l13 94q2 9 4 11t9 2h108q7 0 11.5 -6.5t2.5 -13.5z
" />
    <glyph glyph-name="divide" unicode="&#xf7;" horiz-adv-x="584" 
d="M351 111q-2 -12 -6 -15t-19 -3h-114q-11 0 -15.5 7t-3.5 17l16 117q2 9 4.5 10.5t8.5 1.5h131q7 0 11 -6t3 -14zM545 335q0 -11 -6 -14t-19 -3l-440 -1q-12 0 -17 7t-4 18l11 73q2 9 4 11.5t9 2.5h458q6 0 11 -6.5t4 -13.5zM408 518q-1 -12 -5.5 -14.5t-18.5 -2.5h-114
q-11 0 -16.5 6.5t-3.5 16.5l16 117q2 9 4.5 10.5t8.5 1.5h131q7 0 11.5 -6t3.5 -14z" />
    <glyph glyph-name="oslash" unicode="&#xf8;" horiz-adv-x="596" 
d="M48 7q-11 -9 -19 -6.5t-15 12.5l-15 18q-7 9 -9.5 16.5t6.5 14.5l553 462q10 7 16 5t10 -7l25 -30q4 -5 6.5 -11t-5.5 -12zM258 -10q-73 0 -126.5 29.5t-82.5 82t-29 121.5q0 70 24.5 128.5t66.5 100.5t97 65t117 23q73 0 126.5 -30.5t82 -84t28.5 -123.5q0 -89 -40 -160
t-109 -111.5t-155 -40.5v0zM261 92q42 0 75.5 27.5t53.5 81t20 131.5q0 54 -22 81.5t-65 27.5q-41 0 -75 -28t-54.5 -82t-20.5 -132q0 -53 22.5 -80t65.5 -27v0z" />
    <glyph glyph-name="ugrave" unicode="&#xf9;" horiz-adv-x="592" 
d="M170 -10q-61 0 -99 37t-38 99v15t1 15l50 354q2 12 6.5 16t17.5 4h110q11 0 16 -7t3 -19l-47 -333q-1 -5 -1 -9.5v-7.5q0 -28 15 -40.5t40 -12.5q34 0 64.5 18t58.5 44l51 348q1 12 6.5 15.5t18.5 3.5h108q12 0 17.5 -7t3.5 -19l-72 -490q-1 -9 -3.5 -11.5t-10.5 -2.5
h-119q-7 0 -11.5 3t-3.5 11l8 49q1 6 -3 6t-11 -6q-46 -40 -88.5 -56.5t-87.5 -16.5v0zM231 741q4 7 9 8.5t11 -0.5l220 -98q7 -4 9 -8t-1 -12l-17 -38q-4 -7 -8.5 -7.5t-14.5 1.5l-223 62q-13 3 -16 8.5t1 14.5l30 69v0z" />
    <glyph glyph-name="uacute" unicode="&#xfa;" horiz-adv-x="592" 
d="M170 -10q-61 0 -99 37t-38 99v15t1 15l50 354q2 12 6.5 16t17.5 4h110q11 0 16 -7t3 -19l-47 -333q-1 -5 -1 -9.5v-7.5q0 -28 15 -40.5t40 -12.5q34 0 64.5 18t58.5 44l51 348q1 12 6.5 15.5t18.5 3.5h108q12 0 17.5 -7t3.5 -19l-72 -490q-1 -9 -3.5 -11.5t-10.5 -2.5
h-119q-7 0 -11.5 3t-3.5 11l8 49q1 6 -3 6t-11 -6q-46 -40 -88.5 -56.5t-87.5 -16.5v0zM488 671q2 -9 -0.5 -14.5t-14.5 -8.5l-240 -62q-11 -3 -16.5 2t-7.5 13l-7 35q-3 14 4 17l249 97q6 3 10.5 0.5t7.5 -12.5z" />
    <glyph glyph-name="ucircumflex" unicode="&#xfb;" horiz-adv-x="592" 
d="M170 -10q-61 0 -99 37t-38 99v15t1 15l50 354q2 12 6.5 16t17.5 4h110q11 0 16 -7t3 -19l-47 -333q-1 -5 -1 -9.5v-7.5q0 -28 15 -40.5t40 -12.5q34 0 64.5 18t58.5 44l51 348q1 12 6.5 15.5t18.5 3.5h108q12 0 17.5 -7t3.5 -19l-72 -490q-1 -9 -3.5 -11.5t-10.5 -2.5
h-119q-7 0 -11.5 3t-3.5 11l8 49q1 6 -3 6t-11 -6q-46 -40 -88.5 -56.5t-87.5 -16.5v0zM361 673q-7 10 -11 10t-14 -10l-61 -55q-7 -6 -11.5 -7.5t-13.5 -1.5h-84q-8 0 -8.5 5.5t5.5 10.5l125 114q7 7 14 8.5t19 1.5h73q9 0 13.5 -5t8.5 -10l92 -112q6 -9 4 -11t-12 -2h-80
q-7 0 -11.5 3t-8.5 9z" />
    <glyph glyph-name="udieresis" unicode="&#xfc;" horiz-adv-x="592" 
d="M170 -10q-61 0 -99 37t-38 99v15t1 15l50 354q2 12 6.5 16t17.5 4h110q11 0 16 -7t3 -19l-47 -333q-1 -5 -1 -9.5v-7.5q0 -28 15 -40.5t40 -12.5q34 0 64.5 18t58.5 44l51 348q1 12 6.5 15.5t18.5 3.5h108q12 0 17.5 -7t3.5 -19l-72 -490q-1 -9 -3.5 -11.5t-10.5 -2.5
h-119q-7 0 -11.5 3t-3.5 11l8 49q1 6 -3 6t-11 -6q-46 -40 -88.5 -56.5t-87.5 -16.5v0zM307 628q-1 -11 -5.5 -13.5t-17.5 -2.5h-93q-12 0 -16 6.5t-3 16.5l13 94q2 9 4 11t9 2h108q7 0 11.5 -6.5t2.5 -13.5zM510 628q-1 -11 -5.5 -13.5t-17.5 -2.5h-94q-11 0 -15 6.5
t-3 16.5l13 94q2 9 4 11t9 2h108q7 0 11.5 -6.5t2.5 -13.5z" />
    <glyph glyph-name="yacute" unicode="&#xfd;" horiz-adv-x="566" 
d="M37 -165q-28 0 -40 4t-10 16l11 77q1 7 9.5 11t25.5 4h66q19 0 35 8t27.5 21t16 27t1.5 26l-128 473q-7 28 15 28h137q16 0 18 -13l70 -298q2 -12 8 -11.5t12 13.5l148 289q6 11 12 15.5t14 4.5h86q19 0 7 -19l-277 -507q-29 -52 -56 -85t-57 -51t-66.5 -25.5t-84.5 -7.5
v0zM504 671q2 -9 -0.5 -14.5t-14.5 -8.5l-240 -62q-11 -3 -16.5 2t-7.5 13l-7 35q-3 14 4 17l249 97q6 3 10.5 0.5t7.5 -12.5z" />
    <glyph glyph-name="thorn" unicode="&#xfe;" horiz-adv-x="607" 
d="M252 742q11 0 17 -7t4 -18l-34 -241q-1 -7 3.5 -2.5t8.5 11.5q19 13 40.5 26t49 21t62.5 8q60 0 103 -30.5t63 -92.5t6 -156q-13 -94 -48.5 -154t-86.5 -88.5t-111 -28.5q-41 0 -72.5 14t-53.5 43q-22 13 -27 -16l-25 -183q-1 -9 -3.5 -11t-10.5 -2h-123q-7 0 -12 7
t-3 16l121 867q2 11 5.5 14t16.5 3h110v0zM189 134q17 -23 37 -35t48 -12q36 0 66 19.5t51.5 62.5t30.5 112q9 62 0.5 97.5t-30.5 50t-53 14.5q-29 0 -55 -13t-42.5 -32t-18.5 -39l-34 -225v0z" />
    <glyph glyph-name="ydieresis" unicode="&#xff;" horiz-adv-x="566" 
d="M37 -165q-28 0 -40 4t-10 16l11 77q1 7 9.5 11t25.5 4h66q19 0 35 8t27.5 21t16 27t1.5 26l-128 473q-7 28 15 28h137q16 0 18 -13l70 -298q2 -12 8 -11.5t12 13.5l148 289q6 11 12 15.5t14 4.5h86q19 0 7 -19l-277 -507q-29 -52 -56 -85t-57 -51t-66.5 -25.5t-84.5 -7.5
v0zM323 628q-1 -11 -5.5 -13.5t-17.5 -2.5h-93q-12 0 -16 6.5t-3 16.5l13 94q2 9 4 11t9 2h108q7 0 11.5 -6.5t2.5 -13.5zM526 628q-1 -11 -5.5 -13.5t-17.5 -2.5h-94q-11 0 -15 6.5t-3 16.5l13 94q2 9 4 11t9 2h108q7 0 11.5 -6.5t2.5 -13.5z" />
    <glyph glyph-name="Amacron" unicode="&#x100;" horiz-adv-x="771" 
d="M4 0q-9 0 -10 8t7 25l347 693q6 11 13.5 13.5t18.5 2.5h150q11 0 16 -8t6 -18l150 -693q2 -8 -1 -15.5t-12 -7.5h-146q-14 0 -17 18l-31 145q-1 8 -12 8h-242q-11 0 -17 -12l-76 -150q-2 -6 -5.5 -7.5t-12.5 -1.5h-126v0zM461 304q15 0 11 17l-52 231q-1 10 -5.5 10
t-9.5 -10l-116 -233q-4 -10 -2.5 -12.5t8.5 -2.5h166zM648 865q-1 -11 -5 -13t-17 -2h-324q-10 0 -14.5 6.5t-3.5 15.5l9 65q2 8 4 9.5t8 1.5h339q6 0 10.5 -6.5t3.5 -12.5z" />
    <glyph glyph-name="amacron" unicode="&#x101;" horiz-adv-x="563" 
d="M321 49q-32 -31 -74.5 -45t-89.5 -14q-71 0 -110.5 36.5t-39.5 93.5t29.5 95.5t76 62.5t102 35t106.5 12l36 3q19 0 22 19l3 21q1 4 1 8.5v7.5q0 30 -18 45t-51 15q-32 0 -63 -13t-54 -49q-3 -5 -7.5 -6.5t-14.5 0.5l-97 23q-6 2 -9.5 9t4.5 24q33 56 97 82t152 26
q75 0 121 -18t67 -50t21 -75q0 -7 -0.5 -14t-1.5 -15l-50 -350q-1 -13 -4 -15.5t-14 -2.5h-103q-10 0 -13 7t-4 19l1 26q-2 18 -21 -3v0zM364 241q1 8 -0.5 10.5t-9.5 1.5l-36 -3q-21 -1 -48 -7t-52 -17.5t-41.5 -31.5t-16.5 -50q0 -23 17 -38t48 -15q28 0 50.5 8t38.5 20
q17 13 28 27.5t13 29.5zM524 653q-1 -11 -5 -13t-17 -2h-324q-10 0 -14.5 6.5t-3.5 15.5l9 65q2 8 4 9.5t8 1.5h339q6 0 10.5 -6.5t3.5 -12.5z" />
    <glyph glyph-name="Abreve" unicode="&#x102;" horiz-adv-x="771" 
d="M4 0q-9 0 -10 8t7 25l347 693q6 11 13.5 13.5t18.5 2.5h150q11 0 16 -8t6 -18l150 -693q2 -8 -1 -15.5t-12 -7.5h-146q-14 0 -17 18l-31 145q-1 8 -12 8h-242q-11 0 -17 -12l-76 -150q-2 -6 -5.5 -7.5t-12.5 -1.5h-126v0zM461 304q15 0 11 17l-52 231q-1 10 -5.5 10
t-9.5 -10l-116 -233q-4 -10 -2.5 -12.5t8.5 -2.5h166zM635 954q10 0 12.5 -8t-1.5 -18q-17 -33 -46 -57.5t-65.5 -37t-78.5 -12.5q-43 0 -78 11.5t-57 36.5t-29 65q-1 8 1 14t13 6h61q8 0 10.5 -6t8.5 -14q8 -9 18.5 -18t24.5 -14.5t31 -5.5q28 0 53 13t41 34q4 7 10 9t11 2
h60v0z" />
    <glyph glyph-name="abreve" unicode="&#x103;" horiz-adv-x="563" 
d="M321 49q-32 -31 -74.5 -45t-89.5 -14q-71 0 -110.5 36.5t-39.5 93.5t29.5 95.5t76 62.5t102 35t106.5 12l36 3q19 0 22 19l3 21q1 4 1 8.5v7.5q0 30 -18 45t-51 15q-32 0 -63 -13t-54 -49q-3 -5 -7.5 -6.5t-14.5 0.5l-97 23q-6 2 -9.5 9t4.5 24q33 56 97 82t152 26
q75 0 121 -18t67 -50t21 -75q0 -7 -0.5 -14t-1.5 -15l-50 -350q-1 -13 -4 -15.5t-14 -2.5h-103q-10 0 -13 7t-4 19l1 26q-2 18 -21 -3v0zM364 241q1 8 -0.5 10.5t-9.5 1.5l-36 -3q-21 -1 -48 -7t-52 -17.5t-41.5 -31.5t-16.5 -50q0 -23 17 -38t48 -15q28 0 50.5 8t38.5 20
q17 13 28 27.5t13 29.5zM511 742q10 0 12.5 -8t-1.5 -18q-17 -33 -46 -57.5t-65.5 -37t-78.5 -12.5q-43 0 -78 11.5t-57 36.5t-29 65q-1 8 1 14t13 6h61q8 0 10.5 -6t8.5 -14q8 -9 18.5 -18t24.5 -14.5t31 -5.5q28 0 53 13t41 34q4 7 10 9t11 2h60v0z" />
    <glyph glyph-name="Aogonek" unicode="&#x104;" horiz-adv-x="771" 
d="M4 0q-9 0 -10 8t7 25l347 693q6 11 13.5 13.5t18.5 2.5h150q11 0 16 -8t6 -18l150 -693q2 -8 -1 -15.5t-12 -7.5h-146q-14 0 -17 18l-31 145q-1 8 -12 8h-242q-11 0 -17 -12l-76 -150q-2 -6 -5.5 -7.5t-12.5 -1.5h-126v0zM461 304q15 0 11 17l-52 231q-1 10 -5.5 10
t-9.5 -10l-116 -233q-4 -10 -2.5 -12.5t8.5 -2.5h166zM478 -80q2 17 12 31.5t32.5 28.5t63.5 28l112 -6q-57 -19 -81.5 -38t-26.5 -42q-2 -13 5 -20.5t23 -7.5q22 0 37.5 6t27.5 11q7 4 11 0.5t3 -12.5l-6 -42q-1 -6 -3.5 -11t-7.5 -6q-15 -5 -40.5 -9t-55.5 -4
q-55 0 -83.5 24t-22.5 69v0z" />
    <glyph glyph-name="aogonek" unicode="&#x105;" horiz-adv-x="563" 
d="M321 49q-32 -31 -74.5 -45t-89.5 -14q-71 0 -110.5 36.5t-39.5 93.5t29.5 95.5t76 62.5t102 35t106.5 12l36 3q19 0 22 19l3 21q1 4 1 8.5v7.5q0 30 -18 45t-51 15q-32 0 -63 -13t-54 -49q-3 -5 -7.5 -6.5t-14.5 0.5l-97 23q-6 2 -9.5 9t4.5 24q33 56 97 82t152 26
q75 0 121 -18t67 -50t21 -75q0 -7 -0.5 -14t-1.5 -15l-50 -350q-1 -13 -4 -15.5t-14 -2.5h-103q-10 0 -13 7t-4 19l1 26q-2 18 -21 -3v0zM364 241q1 8 -0.5 10.5t-9.5 1.5l-36 -3q-21 -1 -48 -7t-52 -17.5t-41.5 -31.5t-16.5 -50q0 -23 17 -38t48 -15q28 0 50.5 8t38.5 20
q17 13 28 27.5t13 29.5zM255 -78q2 17 12 31.5t32.5 28.5t63.5 28l112 -6q-57 -19 -81.5 -38t-26.5 -42q-2 -13 5 -20.5t23 -7.5q22 0 37.5 6t27.5 11q7 4 11 0.5t3 -12.5l-6 -42q-1 -6 -3.5 -11t-7.5 -6q-15 -5 -40.5 -9t-55.5 -4q-55 0 -83.5 24t-22.5 69v0z" />
    <glyph glyph-name="Cacute" unicode="&#x106;" horiz-adv-x="725" 
d="M445 752q80 0 140 -30.5t94.5 -82t36.5 -116.5q0 -19 -15 -19l-130 -8q-14 -1 -15 24q-4 48 -30.5 79t-81.5 31q-49 0 -84.5 -23t-60 -61.5t-38.5 -85t-20.5 -94.5t-6.5 -90q0 -83 31.5 -120t95.5 -37q60 0 108 30t82 97q6 14 25 9l104 -26q11 -3 1 -31q-9 -19 -26.5 -46
t-45 -55.5t-66 -52.5t-86.5 -39t-107 -15q-93 0 -159.5 39.5t-101 110.5t-34.5 165q0 68 15.5 133.5t46.5 122t78 100t109.5 67.5t140.5 24v0zM610 883q2 -9 -0.5 -14.5t-14.5 -8.5l-240 -62q-11 -3 -16.5 2t-7.5 13l-7 35q-3 14 4 17l249 97q6 3 10.5 0.5t7.5 -12.5z" />
    <glyph glyph-name="cacute" unicode="&#x107;" horiz-adv-x="551" 
d="M330 540q66 0 109.5 -24t68 -60.5t30.5 -75.5q0 -8 -2.5 -11t-12.5 -4l-101 -9q-6 -1 -9 5t-5 16q-8 17 -16 31t-21.5 22.5t-37.5 8.5q-40 0 -69 -22.5t-47 -58.5t-26.5 -76.5t-8.5 -75.5q0 -60 25.5 -88.5t71.5 -28.5q47 0 76.5 21.5t58.5 65.5q4 5 16 2l71 -17
q7 -1 9.5 -8t-1.5 -19q-11 -20 -31 -45t-50.5 -47.5t-71 -37t-91.5 -14.5q-71 0 -124.5 29.5t-83 82t-29.5 122.5q0 62 21.5 119t61 101.5t95.5 70t124 25.5v0zM495 671q2 -9 -0.5 -14.5t-14.5 -8.5l-240 -62q-11 -3 -16.5 2t-7.5 13l-7 35q-3 14 4 17l249 97q6 3 10.5 0.5
t7.5 -12.5z" />
    <glyph glyph-name="Ccircumflex" unicode="&#x108;" horiz-adv-x="725" 
d="M445 752q80 0 140 -30.5t94.5 -82t36.5 -116.5q0 -19 -15 -19l-130 -8q-14 -1 -15 24q-4 48 -30.5 79t-81.5 31q-49 0 -84.5 -23t-60 -61.5t-38.5 -85t-20.5 -94.5t-6.5 -90q0 -83 31.5 -120t95.5 -37q60 0 108 30t82 97q6 14 25 9l104 -26q11 -3 1 -31q-9 -19 -26.5 -46
t-45 -55.5t-66 -52.5t-86.5 -39t-107 -15q-93 0 -159.5 39.5t-101 110.5t-34.5 165q0 68 15.5 133.5t46.5 122t78 100t109.5 67.5t140.5 24v0zM483 885q-7 10 -11 10t-14 -10l-61 -55q-7 -6 -11.5 -7.5t-13.5 -1.5h-84q-8 0 -8.5 5.5t5.5 10.5l125 114q7 7 14 8.5t19 1.5h73
q9 0 13.5 -5t8.5 -10l92 -112q6 -9 4 -11t-12 -2h-80q-7 0 -11.5 3t-8.5 9z" />
    <glyph glyph-name="ccircumflex" unicode="&#x109;" horiz-adv-x="551" 
d="M330 540q66 0 109.5 -24t68 -60.5t30.5 -75.5q0 -8 -2.5 -11t-12.5 -4l-101 -9q-6 -1 -9 5t-5 16q-8 17 -16 31t-21.5 22.5t-37.5 8.5q-40 0 -69 -22.5t-47 -58.5t-26.5 -76.5t-8.5 -75.5q0 -60 25.5 -88.5t71.5 -28.5q47 0 76.5 21.5t58.5 65.5q4 5 16 2l71 -17
q7 -1 9.5 -8t-1.5 -19q-11 -20 -31 -45t-50.5 -47.5t-71 -37t-91.5 -14.5q-71 0 -124.5 29.5t-83 82t-29.5 122.5q0 62 21.5 119t61 101.5t95.5 70t124 25.5v0zM368 673q-7 10 -11 10t-14 -10l-61 -55q-7 -6 -11.5 -7.5t-13.5 -1.5h-84q-8 0 -8.5 5.5t5.5 10.5l125 114
q7 7 14 8.5t19 1.5h73q9 0 13.5 -5t8.5 -10l92 -112q6 -9 4 -11t-12 -2h-80q-7 0 -11.5 3t-8.5 9z" />
    <glyph glyph-name="Cdotaccent" unicode="&#x10a;" horiz-adv-x="725" 
d="M445 752q80 0 140 -30.5t94.5 -82t36.5 -116.5q0 -19 -15 -19l-130 -8q-14 -1 -15 24q-4 48 -30.5 79t-81.5 31q-49 0 -84.5 -23t-60 -61.5t-38.5 -85t-20.5 -94.5t-6.5 -90q0 -83 31.5 -120t95.5 -37q60 0 108 30t82 97q6 14 25 9l104 -26q11 -3 1 -31q-9 -19 -26.5 -46
t-45 -55.5t-66 -52.5t-86.5 -39t-107 -15q-93 0 -159.5 39.5t-101 110.5t-34.5 165q0 68 15.5 133.5t46.5 122t78 100t109.5 67.5t140.5 24v0zM540 826q-1 -13 -7 -16.5t-20 -3.5h-108q-13 0 -17.5 7.5t-3.5 18.5l15 107q2 10 4.5 12.5t10.5 2.5h125q8 0 13 -7t3 -15z" />
    <glyph glyph-name="cdotaccent" unicode="&#x10b;" horiz-adv-x="551" 
d="M330 540q66 0 109.5 -24t68 -60.5t30.5 -75.5q0 -8 -2.5 -11t-12.5 -4l-101 -9q-6 -1 -9 5t-5 16q-8 17 -16 31t-21.5 22.5t-37.5 8.5q-40 0 -69 -22.5t-47 -58.5t-26.5 -76.5t-8.5 -75.5q0 -60 25.5 -88.5t71.5 -28.5q47 0 76.5 21.5t58.5 65.5q4 5 16 2l71 -17
q7 -1 9.5 -8t-1.5 -19q-11 -20 -31 -45t-50.5 -47.5t-71 -37t-91.5 -14.5q-71 0 -124.5 29.5t-83 82t-29.5 122.5q0 62 21.5 119t61 101.5t95.5 70t124 25.5v0zM425 614q-1 -13 -7 -16.5t-20 -3.5h-108q-13 0 -17.5 7.5t-3.5 18.5l15 107q2 10 4.5 12.5t10.5 2.5h125
q8 0 13 -7t3 -15z" />
    <glyph glyph-name="Ccaron" unicode="&#x10c;" horiz-adv-x="725" 
d="M445 752q80 0 140 -30.5t94.5 -82t36.5 -116.5q0 -19 -15 -19l-130 -8q-14 -1 -15 24q-4 48 -30.5 79t-81.5 31q-49 0 -84.5 -23t-60 -61.5t-38.5 -85t-20.5 -94.5t-6.5 -90q0 -83 31.5 -120t95.5 -37q60 0 108 30t82 97q6 14 25 9l104 -26q11 -3 1 -31q-9 -19 -26.5 -46
t-45 -55.5t-66 -52.5t-86.5 -39t-107 -15q-93 0 -159.5 39.5t-101 110.5t-34.5 165q0 68 15.5 133.5t46.5 122t78 100t109.5 67.5t140.5 24v0zM536 950q6 6 10.5 5.5t12.5 -0.5h87q9 0 11 -5.5t-6 -13.5l-124 -114q-5 -4 -10 -6t-15 -2h-73q-12 0 -18.5 5t-10.5 11l-95 112
q-4 7 -6 10t6 3h81q9 0 13.5 -2.5t7.5 -9.5l45 -53q10 -12 14.5 -8t15.5 15l54 53v0z" />
    <glyph glyph-name="ccaron" unicode="&#x10d;" horiz-adv-x="551" 
d="M330 540q66 0 109.5 -24t68 -60.5t30.5 -75.5q0 -8 -2.5 -11t-12.5 -4l-101 -9q-6 -1 -9 5t-5 16q-8 17 -16 31t-21.5 22.5t-37.5 8.5q-40 0 -69 -22.5t-47 -58.5t-26.5 -76.5t-8.5 -75.5q0 -60 25.5 -88.5t71.5 -28.5q47 0 76.5 21.5t58.5 65.5q4 5 16 2l71 -17
q7 -1 9.5 -8t-1.5 -19q-11 -20 -31 -45t-50.5 -47.5t-71 -37t-91.5 -14.5q-71 0 -124.5 29.5t-83 82t-29.5 122.5q0 62 21.5 119t61 101.5t95.5 70t124 25.5v0zM421 738q6 6 10.5 5.5t12.5 -0.5h87q9 0 11 -5.5t-6 -13.5l-124 -114q-5 -4 -10 -6t-15 -2h-73q-12 0 -18.5 5
t-10.5 11l-95 112q-4 7 -6 10t6 3h81q9 0 13.5 -2.5t7.5 -9.5l45 -53q10 -12 14.5 -8t15.5 15l54 53v0z" />
    <glyph glyph-name="Dcaron" unicode="&#x10e;" horiz-adv-x="751" 
d="M59 0q-12 0 -18 8t-4 21l97 697q2 10 6 13t15 3h211q121 0 201 -37.5t120 -106t40 -159.5q0 -134 -54 -233t-154 -152.5t-241 -53.5h-219v0zM297 123q87 0 142 42t80.5 115t25.5 169q0 59 -20.5 96.5t-59 55t-95.5 17.5h-60q-16 0 -18 -17l-63 -460q-1 -9 1.5 -13.5
t10.5 -4.5h56zM483 950q6 6 10.5 5.5t12.5 -0.5h87q9 0 11 -5.5t-6 -13.5l-124 -114q-5 -4 -10 -6t-15 -2h-73q-12 0 -18.5 5t-10.5 11l-95 112q-4 7 -6 10t6 3h81q9 0 13.5 -2.5t7.5 -9.5l45 -53q10 -12 14.5 -8t15.5 15l54 53v0z" />
    <glyph glyph-name="dcaron" unicode="&#x10f;" horiz-adv-x="746" 
d="M389 0q-8 0 -14.5 4t-5.5 14l5 29q2 8 -2 9t-12 -6q-18 -15 -40 -29t-49.5 -22.5t-61.5 -8.5q-81 0 -131 53.5t-50 158.5q0 65 18 125t52 108.5t81.5 76.5t106.5 28q42 0 70.5 -15.5t51.5 -43.5q8 -8 15 -6t10 25l33 227q1 9 6 12t13 3h122q13 0 11 -24l-100 -699
q-1 -11 -6 -15t-18 -4h-105zM420 395q-18 24 -38 35t-47 11q-43 0 -72 -24.5t-46.5 -63t-26 -80.5t-8.5 -77q0 -39 11.5 -63.5t31 -35.5t45.5 -11q30 0 55.5 14t42.5 35.5t19 43.5zM661 516q-6 0 -9 6.5t-2 10.5l43 75q4 9 5 11t-5 3l-10 1q-8 1 -12.5 6.5t-3.5 12.5l13 91
q1 7 3 8t7 1h81q5 0 9 -5t3 -11l-15 -107q-1 -3 -2 -5t-1 -3l-49 -86q-3 -7 -7.5 -8t-16.5 -1h-31v0z" />
    <glyph glyph-name="Dcroat" unicode="&#x110;" horiz-adv-x="729" 
d="M395 329q-2 -13 -7.5 -16t-19.5 -3h-330q-12 0 -17 7.5t-4 17.5l10 73q2 10 4.5 12.5t10.5 2.5h348q7 0 12 -7t3 -14zM36 0q-11 0 -17.5 8t-4.5 21l98 697q1 10 5 13t16 3h210q121 0 201 -37.5t120 -106t40 -159.5q0 -134 -53.5 -233t-154 -152.5t-241.5 -53.5h-219v0z
M274 123q87 0 142 42t80.5 115t25.5 169q0 59 -20 96.5t-59 55t-96 17.5h-60q-16 0 -18 -17l-63 -460q-1 -9 2 -13.5t10 -4.5h56z" />
    <glyph glyph-name="dcroat" unicode="&#x111;" horiz-adv-x="619" 
d="M688 608q-2 -10 -6.5 -12t-16.5 -2h-306q-10 0 -14.5 6.5t-3.5 15.5l8 52q1 8 3 10t8 2h322q6 0 10 -6.5t3 -12.5zM389 0q-8 0 -14.5 4t-5.5 14l5 29q2 8 -2 9t-12 -6q-18 -15 -40 -29t-49.5 -22.5t-61.5 -8.5q-81 0 -131 53.5t-50 158.5q0 65 18 125t52 108.5t81.5 76.5
t106.5 28q42 0 70.5 -15.5t51.5 -43.5q8 -8 15 -6t10 25l33 227q1 9 6 12t13 3h122q13 0 11 -24l-100 -699q-1 -11 -6 -15t-18 -4h-105zM420 395q-18 24 -38 35t-47 11q-43 0 -72 -24.5t-46.5 -63t-26 -80.5t-8.5 -77q0 -39 11.5 -63.5t31 -35.5t45.5 -11q30 0 55.5 14
t42.5 35.5t19 43.5z" />
    <glyph glyph-name="Emacron" unicode="&#x112;" horiz-adv-x="654" 
d="M135 727q2 10 4.5 12.5t10.5 2.5h507q16 0 12 -22l-13 -89q-1 -10 -5.5 -13.5t-15.5 -3.5h-327q-7 0 -10.5 -3t-5.5 -12l-21 -150q-1 -8 1 -10.5t8 -2.5h219q9 0 11 -3.5t1 -10.5l-14 -101q-1 -11 -14 -11h-221q-11 0 -13 -14l-22 -156q-1 -12 7 -12h347q9 0 11.5 -3
t0.5 -12l-13 -100q-1 -7 -4 -10t-13 -3h-507q-23 0 -20 25l99 702v0zM605 865q-1 -11 -5 -13t-17 -2h-324q-10 0 -14.5 6.5t-3.5 15.5l9 65q2 8 4 9.5t8 1.5h339q6 0 10.5 -6.5t3.5 -12.5z" />
    <glyph glyph-name="emacron" unicode="&#x113;" horiz-adv-x="586" 
d="M269 -10q-72 0 -126 29.5t-84.5 81.5t-30.5 121q0 62 22.5 118.5t63 102t96 71.5t122.5 26q69 0 120.5 -27.5t80 -79.5t28.5 -126q0 -13 -1 -27t-3 -29q-1 -8 -6 -11.5t-17 -3.5h-337q-10 0 -13 -13t-3 -30q0 -48 31 -73t79 -25q38 0 71 15.5t65 50.5q5 5 10.5 4.5
t12.5 -3.5l66 -31q20 -9 7 -26q-40 -44 -78.5 -69.5t-81 -35.5t-94.5 -10v0zM396 316q10 0 17 8.5t7 30.5q0 36 -21.5 63.5t-65.5 27.5q-33 0 -62 -17t-48 -46.5t-23 -66.5h196zM536 653q-1 -11 -5 -13t-17 -2h-324q-10 0 -14.5 6.5t-3.5 15.5l9 65q2 8 4 9.5t8 1.5h339
q6 0 10.5 -6.5t3.5 -12.5z" />
    <glyph glyph-name="Ebreve" unicode="&#x114;" horiz-adv-x="654" 
d="M135 727q2 10 4.5 12.5t10.5 2.5h507q16 0 12 -22l-13 -89q-1 -10 -5.5 -13.5t-15.5 -3.5h-327q-7 0 -10.5 -3t-5.5 -12l-21 -150q-1 -8 1 -10.5t8 -2.5h219q9 0 11 -3.5t1 -10.5l-14 -101q-1 -11 -14 -11h-221q-11 0 -13 -14l-22 -156q-1 -12 7 -12h347q9 0 11.5 -3
t0.5 -12l-13 -100q-1 -7 -4 -10t-13 -3h-507q-23 0 -20 25l99 702v0zM591 954q10 0 12.5 -8t-1.5 -18q-17 -33 -46 -57.5t-65.5 -37t-78.5 -12.5q-43 0 -78 11.5t-57 36.5t-29 65q-1 8 1 14t13 6h61q8 0 10.5 -6t8.5 -14q8 -9 18.5 -18t24.5 -14.5t31 -5.5q28 0 53 13t41 34
q4 7 10 9t11 2h60v0z" />
    <glyph glyph-name="ebreve" unicode="&#x115;" horiz-adv-x="586" 
d="M269 -10q-72 0 -126 29.5t-84.5 81.5t-30.5 121q0 62 22.5 118.5t63 102t96 71.5t122.5 26q69 0 120.5 -27.5t80 -79.5t28.5 -126q0 -13 -1 -27t-3 -29q-1 -8 -6 -11.5t-17 -3.5h-337q-10 0 -13 -13t-3 -30q0 -48 31 -73t79 -25q38 0 71 15.5t65 50.5q5 5 10.5 4.5
t12.5 -3.5l66 -31q20 -9 7 -26q-40 -44 -78.5 -69.5t-81 -35.5t-94.5 -10v0zM396 316q10 0 17 8.5t7 30.5q0 36 -21.5 63.5t-65.5 27.5q-33 0 -62 -17t-48 -46.5t-23 -66.5h196zM523 742q10 0 12.5 -8t-1.5 -18q-17 -33 -46 -57.5t-65.5 -37t-78.5 -12.5q-43 0 -78 11.5
t-57 36.5t-29 65q-1 8 1 14t13 6h61q8 0 10.5 -6t8.5 -14q8 -9 18.5 -18t24.5 -14.5t31 -5.5q28 0 53 13t41 34q4 7 10 9t11 2h60v0z" />
    <glyph glyph-name="Edotaccent" unicode="&#x116;" horiz-adv-x="654" 
d="M135 727q2 10 4.5 12.5t10.5 2.5h507q16 0 12 -22l-13 -89q-1 -10 -5.5 -13.5t-15.5 -3.5h-327q-7 0 -10.5 -3t-5.5 -12l-21 -150q-1 -8 1 -10.5t8 -2.5h219q9 0 11 -3.5t1 -10.5l-14 -101q-1 -11 -14 -11h-221q-11 0 -13 -14l-22 -156q-1 -12 7 -12h347q9 0 11.5 -3
t0.5 -12l-13 -100q-1 -7 -4 -10t-13 -3h-507q-23 0 -20 25l99 702v0zM496 826q-1 -13 -7 -16.5t-20 -3.5h-108q-13 0 -17.5 7.5t-3.5 18.5l15 107q2 10 4.5 12.5t10.5 2.5h125q8 0 13 -7t3 -15z" />
    <glyph glyph-name="edotaccent" unicode="&#x117;" horiz-adv-x="586" 
d="M269 -10q-72 0 -126 29.5t-84.5 81.5t-30.5 121q0 62 22.5 118.5t63 102t96 71.5t122.5 26q69 0 120.5 -27.5t80 -79.5t28.5 -126q0 -13 -1 -27t-3 -29q-1 -8 -6 -11.5t-17 -3.5h-337q-10 0 -13 -13t-3 -30q0 -48 31 -73t79 -25q38 0 71 15.5t65 50.5q5 5 10.5 4.5
t12.5 -3.5l66 -31q20 -9 7 -26q-40 -44 -78.5 -69.5t-81 -35.5t-94.5 -10v0zM396 316q10 0 17 8.5t7 30.5q0 36 -21.5 63.5t-65.5 27.5q-33 0 -62 -17t-48 -46.5t-23 -66.5h196zM384 614q-1 -13 -7 -16.5t-20 -3.5h-108q-13 0 -17.5 7.5t-3.5 18.5l15 107q2 10 4.5 12.5
t10.5 2.5h125q8 0 13 -7t3 -15z" />
    <glyph glyph-name="Eogonek" unicode="&#x118;" horiz-adv-x="654" 
d="M135 727q2 10 4.5 12.5t10.5 2.5h507q16 0 12 -22l-13 -89q-1 -10 -5.5 -13.5t-15.5 -3.5h-327q-7 0 -10.5 -3t-5.5 -12l-21 -150q-1 -8 1 -10.5t8 -2.5h219q9 0 11 -3.5t1 -10.5l-14 -101q-1 -11 -14 -11h-221q-11 0 -13 -14l-22 -156q-1 -12 7 -12h347q9 0 11.5 -3
t0.5 -12l-13 -100q-1 -7 -4 -10t-13 -3h-507q-23 0 -20 25l99 702v0zM355 -80q2 17 12 31.5t32.5 28.5t63.5 28l112 -6q-57 -19 -81.5 -38t-26.5 -42q-2 -13 5 -20.5t23 -7.5q22 0 37.5 6t27.5 11q7 4 11 0.5t3 -12.5l-6 -42q-1 -6 -3.5 -11t-7.5 -6q-15 -5 -40.5 -9
t-55.5 -4q-55 0 -83.5 24t-22.5 69v0z" />
    <glyph glyph-name="eogonek" unicode="&#x119;" horiz-adv-x="586" 
d="M269 -10q-72 0 -126 29.5t-84.5 81.5t-30.5 121q0 62 22.5 118.5t63 102t96 71.5t122.5 26q69 0 120.5 -27.5t80 -79.5t28.5 -126q0 -13 -1 -27t-3 -29q-1 -8 -6 -11.5t-17 -3.5h-337q-10 0 -13 -13t-3 -30q0 -48 31 -73t79 -25q38 0 71 15.5t65 50.5q5 5 10.5 4.5
t12.5 -3.5l66 -31q20 -9 7 -26q-40 -44 -78.5 -69.5t-81 -35.5t-94.5 -10v0zM396 316q10 0 17 8.5t7 30.5q0 36 -21.5 63.5t-65.5 27.5q-33 0 -62 -17t-48 -46.5t-23 -66.5h196zM186 -66q2 17 12 31.5t32.5 28.5t63.5 28l112 -6q-57 -19 -81.5 -38t-26.5 -42q-2 -13 5 -20.5
t23 -7.5q22 0 37.5 6t27.5 11q7 4 11 0.5t3 -12.5l-6 -42q-1 -6 -3.5 -11t-7.5 -6q-15 -5 -40.5 -9t-55.5 -4q-55 0 -83.5 24t-22.5 69v0z" />
    <glyph glyph-name="Ecaron" unicode="&#x11a;" horiz-adv-x="654" 
d="M135 727q2 10 4.5 12.5t10.5 2.5h507q16 0 12 -22l-13 -89q-1 -10 -5.5 -13.5t-15.5 -3.5h-327q-7 0 -10.5 -3t-5.5 -12l-21 -150q-1 -8 1 -10.5t8 -2.5h219q9 0 11 -3.5t1 -10.5l-14 -101q-1 -11 -14 -11h-221q-11 0 -13 -14l-22 -156q-1 -12 7 -12h347q9 0 11.5 -3
t0.5 -12l-13 -100q-1 -7 -4 -10t-13 -3h-507q-23 0 -20 25l99 702v0zM492 950q6 6 10.5 5.5t12.5 -0.5h87q9 0 11 -5.5t-6 -13.5l-124 -114q-5 -4 -10 -6t-15 -2h-73q-12 0 -18.5 5t-10.5 11l-95 112q-4 7 -6 10t6 3h81q9 0 13.5 -2.5t7.5 -9.5l45 -53q10 -12 14.5 -8
t15.5 15l54 53v0z" />
    <glyph glyph-name="ecaron" unicode="&#x11b;" horiz-adv-x="586" 
d="M269 -10q-72 0 -126 29.5t-84.5 81.5t-30.5 121q0 62 22.5 118.5t63 102t96 71.5t122.5 26q69 0 120.5 -27.5t80 -79.5t28.5 -126q0 -13 -1 -27t-3 -29q-1 -8 -6 -11.5t-17 -3.5h-337q-10 0 -13 -13t-3 -30q0 -48 31 -73t79 -25q38 0 71 15.5t65 50.5q5 5 10.5 4.5
t12.5 -3.5l66 -31q20 -9 7 -26q-40 -44 -78.5 -69.5t-81 -35.5t-94.5 -10v0zM396 316q10 0 17 8.5t7 30.5q0 36 -21.5 63.5t-65.5 27.5q-33 0 -62 -17t-48 -46.5t-23 -66.5h196zM424 738q6 6 10.5 5.5t12.5 -0.5h87q9 0 11 -5.5t-6 -13.5l-124 -114q-5 -4 -10 -6t-15 -2h-73
q-12 0 -18.5 5t-10.5 11l-95 112q-4 7 -6 10t6 3h81q9 0 13.5 -2.5t7.5 -9.5l45 -53q10 -12 14.5 -8t15.5 15l54 53v0z" />
    <glyph glyph-name="Gcircumflex" unicode="&#x11c;" horiz-adv-x="752" 
d="M345 -10q-91 0 -156.5 38t-100 107.5t-34.5 163.5q0 93 28 175t80 144.5t124.5 98t162.5 35.5q84 0 144.5 -32t94 -82t34.5 -106q0 -19 -7 -20l-137 -20q-5 -1 -7.5 4.5t-5.5 20.5q-3 31 -17.5 56.5t-40.5 40.5t-65 15q-57 0 -96 -32t-64 -84t-36.5 -115t-11.5 -124
q0 -88 34 -124.5t94 -36.5q33 0 60 10t47 27t34.5 38t23.5 42l6 28q7 13 -9 13h-123q-10 0 -9 13l9 82q1 11 10 11l286 -1q12 0 15.5 -3.5t1.5 -13.5l-49 -346q-2 -13 -16 -13h-30q-16 0 -21 15l-17 72q-3 7 -8 6t-12 -8q-18 -22 -47.5 -44t-70.5 -36.5t-98 -14.5v0z
M481 885q-7 10 -11 10t-14 -10l-61 -55q-7 -6 -11.5 -7.5t-13.5 -1.5h-84q-8 0 -8.5 5.5t5.5 10.5l125 114q7 7 14 8.5t19 1.5h73q9 0 13.5 -5t8.5 -10l92 -112q6 -9 4 -11t-12 -2h-80q-7 0 -11.5 3t-8.5 9z" />
    <glyph glyph-name="gcircumflex" unicode="&#x11d;" horiz-adv-x="633" 
d="M221 -174q-121 0 -190 31t-69 87q0 40 31 65.5t74 40.5q10 3 12 8t-8 8q-22 10 -33.5 25t-11.5 39q0 26 16.5 45t41 32.5t47.5 20.5q11 4 13.5 8.5t-7.5 8.5q-36 15 -56 43.5t-20 67.5q0 48 21.5 82t57.5 56.5t80.5 33t91.5 10.5q72 0 112.5 -15.5t60.5 -34.5q7 -6 16 0
t16 14q15 16 35 27t40 17.5t34 6.5q11 0 17 -3.5t5 -15.5l-10 -68q-1 -14 -5.5 -18.5t-13.5 -3.5q-15 0 -31 -0.5t-24 -2.5q-34 -4 -25 -25q3 -6 4.5 -14.5t1.5 -20.5q0 -47 -24 -79.5t-62.5 -53t-83.5 -30t-88 -9.5q-8 0 -27 -1t-40.5 -5t-37 -12t-15.5 -22q0 -9 13.5 -13
t42.5 -6l142 -8q94 -6 137 -42t43 -96q0 -43 -19.5 -74t-53 -51t-75.5 -31.5t-87.5 -16.5t-88.5 -5v0zM229 -101q40 0 73 5.5t56 15t36 25t13 36.5t-16 30.5t-54 11.5l-152 8q-19 -2 -41 -10.5t-37.5 -23t-15.5 -36.5q0 -31 33.5 -46.5t104.5 -15.5v0zM291 285q31 0 57.5 12
t42.5 36.5t16 58.5q0 31 -23.5 50t-69.5 19q-31 0 -57.5 -14t-43 -38.5t-16.5 -57.5q0 -29 25.5 -47.5t68.5 -18.5v0zM370 673q-7 10 -11 10t-14 -10l-61 -55q-7 -6 -11.5 -7.5t-13.5 -1.5h-84q-8 0 -8.5 5.5t5.5 10.5l125 114q7 7 14 8.5t19 1.5h73q9 0 13.5 -5t8.5 -10
l92 -112q6 -9 4 -11t-12 -2h-80q-7 0 -11.5 3t-8.5 9z" />
    <glyph glyph-name="Gbreve" unicode="&#x11e;" horiz-adv-x="752" 
d="M345 -10q-91 0 -156.5 38t-100 107.5t-34.5 163.5q0 93 28 175t80 144.5t124.5 98t162.5 35.5q84 0 144.5 -32t94 -82t34.5 -106q0 -19 -7 -20l-137 -20q-5 -1 -7.5 4.5t-5.5 20.5q-3 31 -17.5 56.5t-40.5 40.5t-65 15q-57 0 -96 -32t-64 -84t-36.5 -115t-11.5 -124
q0 -88 34 -124.5t94 -36.5q33 0 60 10t47 27t34.5 38t23.5 42l6 28q7 13 -9 13h-123q-10 0 -9 13l9 82q1 11 10 11l286 -1q12 0 15.5 -3.5t1.5 -13.5l-49 -346q-2 -13 -16 -13h-30q-16 0 -21 15l-17 72q-3 7 -8 6t-12 -8q-18 -22 -47.5 -44t-70.5 -36.5t-98 -14.5v0z
M633 954q10 0 12.5 -8t-1.5 -18q-17 -33 -46 -57.5t-65.5 -37t-78.5 -12.5q-43 0 -78 11.5t-57 36.5t-29 65q-1 8 1 14t13 6h61q8 0 10.5 -6t8.5 -14q8 -9 18.5 -18t24.5 -14.5t31 -5.5q28 0 53 13t41 34q4 7 10 9t11 2h60v0z" />
    <glyph glyph-name="gbreve" unicode="&#x11f;" horiz-adv-x="633" 
d="M221 -174q-121 0 -190 31t-69 87q0 40 31 65.5t74 40.5q10 3 12 8t-8 8q-22 10 -33.5 25t-11.5 39q0 26 16.5 45t41 32.5t47.5 20.5q11 4 13.5 8.5t-7.5 8.5q-36 15 -56 43.5t-20 67.5q0 48 21.5 82t57.5 56.5t80.5 33t91.5 10.5q72 0 112.5 -15.5t60.5 -34.5q7 -6 16 0
t16 14q15 16 35 27t40 17.5t34 6.5q11 0 17 -3.5t5 -15.5l-10 -68q-1 -14 -5.5 -18.5t-13.5 -3.5q-15 0 -31 -0.5t-24 -2.5q-34 -4 -25 -25q3 -6 4.5 -14.5t1.5 -20.5q0 -47 -24 -79.5t-62.5 -53t-83.5 -30t-88 -9.5q-8 0 -27 -1t-40.5 -5t-37 -12t-15.5 -22q0 -9 13.5 -13
t42.5 -6l142 -8q94 -6 137 -42t43 -96q0 -43 -19.5 -74t-53 -51t-75.5 -31.5t-87.5 -16.5t-88.5 -5v0zM229 -101q40 0 73 5.5t56 15t36 25t13 36.5t-16 30.5t-54 11.5l-152 8q-19 -2 -41 -10.5t-37.5 -23t-15.5 -36.5q0 -31 33.5 -46.5t104.5 -15.5v0zM291 285q31 0 57.5 12
t42.5 36.5t16 58.5q0 31 -23.5 50t-69.5 19q-31 0 -57.5 -14t-43 -38.5t-16.5 -57.5q0 -29 25.5 -47.5t68.5 -18.5v0zM522 742q10 0 12.5 -8t-1.5 -18q-17 -33 -46 -57.5t-65.5 -37t-78.5 -12.5q-43 0 -78 11.5t-57 36.5t-29 65q-1 8 1 14t13 6h61q8 0 10.5 -6t8.5 -14
q8 -9 18.5 -18t24.5 -14.5t31 -5.5q28 0 53 13t41 34q4 7 10 9t11 2h60v0z" />
    <glyph glyph-name="Gdotaccent" unicode="&#x120;" horiz-adv-x="752" 
d="M345 -10q-91 0 -156.5 38t-100 107.5t-34.5 163.5q0 93 28 175t80 144.5t124.5 98t162.5 35.5q84 0 144.5 -32t94 -82t34.5 -106q0 -19 -7 -20l-137 -20q-5 -1 -7.5 4.5t-5.5 20.5q-3 31 -17.5 56.5t-40.5 40.5t-65 15q-57 0 -96 -32t-64 -84t-36.5 -115t-11.5 -124
q0 -88 34 -124.5t94 -36.5q33 0 60 10t47 27t34.5 38t23.5 42l6 28q7 13 -9 13h-123q-10 0 -9 13l9 82q1 11 10 11l286 -1q12 0 15.5 -3.5t1.5 -13.5l-49 -346q-2 -13 -16 -13h-30q-16 0 -21 15l-17 72q-3 7 -8 6t-12 -8q-18 -22 -47.5 -44t-70.5 -36.5t-98 -14.5v0z
M537 826q-1 -13 -7 -16.5t-20 -3.5h-108q-13 0 -17.5 7.5t-3.5 18.5l15 107q2 10 4.5 12.5t10.5 2.5h125q8 0 13 -7t3 -15z" />
    <glyph glyph-name="gdotaccent" unicode="&#x121;" horiz-adv-x="633" 
d="M221 -174q-121 0 -190 31t-69 87q0 40 31 65.5t74 40.5q10 3 12 8t-8 8q-22 10 -33.5 25t-11.5 39q0 26 16.5 45t41 32.5t47.5 20.5q11 4 13.5 8.5t-7.5 8.5q-36 15 -56 43.5t-20 67.5q0 48 21.5 82t57.5 56.5t80.5 33t91.5 10.5q72 0 112.5 -15.5t60.5 -34.5q7 -6 16 0
t16 14q15 16 35 27t40 17.5t34 6.5q11 0 17 -3.5t5 -15.5l-10 -68q-1 -14 -5.5 -18.5t-13.5 -3.5q-15 0 -31 -0.5t-24 -2.5q-34 -4 -25 -25q3 -6 4.5 -14.5t1.5 -20.5q0 -47 -24 -79.5t-62.5 -53t-83.5 -30t-88 -9.5q-8 0 -27 -1t-40.5 -5t-37 -12t-15.5 -22q0 -9 13.5 -13
t42.5 -6l142 -8q94 -6 137 -42t43 -96q0 -43 -19.5 -74t-53 -51t-75.5 -31.5t-87.5 -16.5t-88.5 -5v0zM229 -101q40 0 73 5.5t56 15t36 25t13 36.5t-16 30.5t-54 11.5l-152 8q-19 -2 -41 -10.5t-37.5 -23t-15.5 -36.5q0 -31 33.5 -46.5t104.5 -15.5v0zM291 285q31 0 57.5 12
t42.5 36.5t16 58.5q0 31 -23.5 50t-69.5 19q-31 0 -57.5 -14t-43 -38.5t-16.5 -57.5q0 -29 25.5 -47.5t68.5 -18.5v0zM427 614q-1 -13 -7 -16.5t-20 -3.5h-108q-13 0 -17.5 7.5t-3.5 18.5l15 107q2 10 4.5 12.5t10.5 2.5h125q8 0 13 -7t3 -15z" />
    <glyph glyph-name="uni0122" unicode="&#x122;" horiz-adv-x="752" 
d="M345 -10q-91 0 -156.5 38t-100 107.5t-34.5 163.5q0 93 28 175t80 144.5t124.5 98t162.5 35.5q84 0 144.5 -32t94 -82t34.5 -106q0 -19 -7 -20l-137 -20q-5 -1 -7.5 4.5t-5.5 20.5q-3 31 -17.5 56.5t-40.5 40.5t-65 15q-57 0 -96 -32t-64 -84t-36.5 -115t-11.5 -124
q0 -88 34 -124.5t94 -36.5q33 0 60 10t47 27t34.5 38t23.5 42l6 28q7 13 -9 13h-123q-10 0 -9 13l9 82q1 11 10 11l286 -1q12 0 15.5 -3.5t1.5 -13.5l-49 -346q-2 -13 -16 -13h-30q-16 0 -21 15l-17 72q-3 7 -8 6t-12 -8q-18 -22 -47.5 -44t-70.5 -36.5t-98 -14.5v0z
M265 -243q-5 0 -5.5 4t3.5 9l42 53q7 9 6 15t-8 6h-24q-6 0 -8.5 3.5t-0.5 13.5l10 64q2 17 15 17h81q14 0 13 -12l-12 -80q-2 -11 -9 -19l-54 -59q-6 -6 -11 -10.5t-15 -4.5h-23v0z" />
    <glyph glyph-name="uni0123" unicode="&#x123;" horiz-adv-x="633" 
d="M342 608q-13 0 -12 12l11 80q2 12 10 20l53 58q7 7 12 11t13 4h25q4 0 4.5 -4t-3.5 -9l-41 -53q-8 -9 -7 -15t8 -6h24q7 0 9 -3.5t1 -13.5l-10 -64q-3 -17 -15 -17h-82v0zM221 -174q-121 0 -190 31t-69 87q0 40 31 65.5t74 40.5q10 3 12 8t-8 8q-22 10 -33.5 25t-11.5 39
q0 26 16.5 45t41 32.5t47.5 20.5q11 4 13.5 8.5t-7.5 8.5q-36 15 -56 43.5t-20 67.5q0 48 21.5 82t57.5 56.5t80.5 33t91.5 10.5q72 0 112.5 -15.5t60.5 -34.5q7 -6 16 0t16 14q15 16 35 27t40 17.5t34 6.5q11 0 17 -3.5t5 -15.5l-10 -68q-1 -14 -5.5 -18.5t-13.5 -3.5
q-15 0 -31 -0.5t-24 -2.5q-34 -4 -25 -25q3 -6 4.5 -14.5t1.5 -20.5q0 -47 -24 -79.5t-62.5 -53t-83.5 -30t-88 -9.5q-8 0 -27 -1t-40.5 -5t-37 -12t-15.5 -22q0 -9 13.5 -13t42.5 -6l142 -8q94 -6 137 -42t43 -96q0 -43 -19.5 -74t-53 -51t-75.5 -31.5t-87.5 -16.5
t-88.5 -5v0zM229 -101q40 0 73 5.5t56 15t36 25t13 36.5t-16 30.5t-54 11.5l-152 8q-19 -2 -41 -10.5t-37.5 -23t-15.5 -36.5q0 -31 33.5 -46.5t104.5 -15.5v0zM291 285q31 0 57.5 12t42.5 36.5t16 58.5q0 31 -23.5 50t-69.5 19q-31 0 -57.5 -14t-43 -38.5t-16.5 -57.5
q0 -29 25.5 -47.5t68.5 -18.5v0z" />
    <glyph glyph-name="Hcircumflex" unicode="&#x124;" horiz-adv-x="751" 
d="M265 317q-6 0 -9.5 -3.5t-5.5 -13.5l-40 -281q-1 -13 -6.5 -16t-18.5 -3h-133q-13 0 -15.5 4t-1.5 15l100 708q2 10 5 12.5t10 2.5h150q7 0 9 -3t0 -12l-36 -262q-1 -9 1 -11.5t9 -2.5h237q8 0 11 6.5t4 14.5l37 257q2 9 5 11t10 2h149q7 0 9 -4.5t0 -19.5l-99 -702
q-1 -11 -4 -13.5t-16 -2.5h-133q-13 0 -17.5 5t-2.5 18l39 286q1 8 -12 8h-235zM476 885q-7 10 -11 10t-14 -10l-61 -55q-7 -6 -11.5 -7.5t-13.5 -1.5h-84q-8 0 -8.5 5.5t5.5 10.5l125 114q7 7 14 8.5t19 1.5h73q9 0 13.5 -5t8.5 -10l92 -112q6 -9 4 -11t-12 -2h-80
q-7 0 -11.5 3t-8.5 9z" />
    <glyph glyph-name="hcircumflex" unicode="&#x125;" horiz-adv-x="597" 
d="M43 0q-11 0 -16.5 7.5t-4.5 17.5l99 703q2 9 6.5 11.5t11.5 2.5h120q15 0 13 -18l-35 -244q-2 -15 8 -8q36 25 65.5 40t56.5 21.5t54 6.5q70 0 107 -35.5t37 -97.5q0 -7 -0.5 -15t-2.5 -16l-50 -356q-2 -12 -6.5 -16t-17.5 -4h-111q-23 0 -19 25l48 338q1 4 1 8v8
q0 25 -14 37.5t-44 12.5q-22 0 -42.5 -8t-40 -22.5t-41.5 -35.5l-49 -344q-2 -13 -7 -16t-19 -3h-107zM359 887q-7 10 -11 10t-14 -10l-61 -55q-7 -6 -11.5 -7.5t-13.5 -1.5h-84q-8 0 -8.5 5.5t5.5 10.5l125 114q7 7 14 8.5t19 1.5h73q9 0 13.5 -5t8.5 -10l92 -112
q6 -9 4 -11t-12 -2h-80q-7 0 -11.5 3t-8.5 9z" />
    <glyph glyph-name="Hbar" unicode="&#x126;" horiz-adv-x="773" 
d="M815 577q-1 -11 -6 -13t-17 -2h-727q-11 0 -15 6.5t-3 16.5l6 49q2 9 4 11t8 2h743q7 0 11 -6.5t3 -13.5zM246 317q-6 0 -10 -3.5t-6 -13.5l-39 -281q-2 -13 -7 -16t-19 -3h-132q-13 0 -15.5 4t-1.5 15l100 708q1 10 4 12.5t10 2.5h150q7 0 9.5 -3t0.5 -12l-37 -262
q-1 -9 1.5 -11.5t9.5 -2.5h237q7 0 10.5 6.5t4.5 14.5l36 257q2 9 5.5 11t10.5 2h148q7 0 9.5 -4.5t0.5 -19.5l-99 -702q-1 -11 -4.5 -13.5t-16.5 -2.5h-132q-14 0 -18 5t-3 18l40 286q1 8 -12 8h-235z" />
    <glyph glyph-name="hbar" unicode="&#x127;" horiz-adv-x="562" 
d="M382 608q-1 -10 -5.5 -12t-16.5 -2h-307q-10 0 -14 6.5t-3 15.5l7 52q2 8 4 10t7 2h322q6 0 10.5 -6.5t3.5 -12.5zM8 0q-11 0 -16.5 7.5t-4.5 17.5l100 703q1 9 5.5 11.5t11.5 2.5h121q15 0 12 -18l-35 -244q-2 -15 8 -8q36 25 65.5 40t56.5 21.5t54 6.5q70 0 107 -35.5
t37 -97.5q0 -7 -0.5 -15t-2.5 -16l-50 -356q-2 -12 -6.5 -16t-17.5 -4h-111q-23 0 -19 25l48 338q1 4 1 8v8q0 25 -14 37.5t-44 12.5q-22 0 -42.5 -8t-40 -22.5t-40.5 -35.5l-50 -344q-2 -13 -6.5 -16t-19.5 -3h-107z" />
    <glyph glyph-name="Itilde" unicode="&#x128;" horiz-adv-x="315" 
d="M296 742q15 0 12 -22l-98 -700q-1 -14 -6.5 -17t-19.5 -3h-131q-13 0 -15.5 7t-1.5 18l99 702q2 10 5 12.5t10 2.5h146zM414 858q-16 -7 -40 -14t-52 -7q-29 0 -52.5 7.5t-44.5 14.5t-46 7q-24 0 -38 -9t-35 -20q-9 -3 -13.5 1.5t-6.5 14.5l-9 43q-1 7 -3 14t8 14
q20 12 41 21t50 9q31 0 56.5 -8t48 -16t43.5 -8q17 0 29.5 6t24 14t21.5 10t16 -3t7 -14l5 -51q1 -7 1 -14.5t-11 -11.5v0z" />
    <glyph glyph-name="itilde" unicode="&#x129;" horiz-adv-x="265" 
d="M175 20q-2 -14 -7 -17t-19 -3h-106q-13 0 -17.5 7t-3.5 18l69 490q1 10 4 12.5t10 2.5h123q7 0 12 -7t4 -15zM358 646q-16 -7 -40 -14t-52 -7q-29 0 -52.5 7.5t-44.5 14.5t-46 7q-24 0 -38 -9t-35 -20q-9 -3 -13.5 1.5t-6.5 14.5l-9 43q-1 7 -3 14t8 14q20 12 41 21t50 9
q31 0 56.5 -8t48 -16t43.5 -8q17 0 29.5 6t24 14t21.5 10t16 -3t7 -14l5 -51q1 -7 1 -14.5t-11 -11.5v0z" />
    <glyph glyph-name="Imacron" unicode="&#x12a;" horiz-adv-x="315" 
d="M296 742q15 0 12 -22l-98 -700q-1 -14 -6.5 -17t-19.5 -3h-131q-13 0 -15.5 7t-1.5 18l99 702q2 10 5 12.5t10 2.5h146zM425 865q-1 -11 -5 -13t-17 -2h-324q-10 0 -14.5 6.5t-3.5 15.5l9 65q2 8 4 9.5t8 1.5h339q6 0 10.5 -6.5t3.5 -12.5z" />
    <glyph glyph-name="imacron" unicode="&#x12b;" horiz-adv-x="265" 
d="M175 20q-2 -14 -7 -17t-19 -3h-106q-13 0 -17.5 7t-3.5 18l69 490q1 10 4 12.5t10 2.5h123q7 0 12 -7t4 -15zM369 653q-1 -11 -5 -13t-17 -2h-324q-10 0 -14.5 6.5t-3.5 15.5l9 65q2 8 4 9.5t8 1.5h339q6 0 10.5 -6.5t3.5 -12.5z" />
    <glyph glyph-name="Ibreve" unicode="&#x12c;" horiz-adv-x="315" 
d="M296 742q15 0 12 -22l-98 -700q-1 -14 -6.5 -17t-19.5 -3h-131q-13 0 -15.5 7t-1.5 18l99 702q2 10 5 12.5t10 2.5h146zM411 954q10 0 12.5 -8t-1.5 -18q-17 -33 -46 -57.5t-65.5 -37t-78.5 -12.5q-43 0 -78 11.5t-57 36.5t-29 65q-1 8 1 14t13 6h61q8 0 10.5 -6t8.5 -14
q8 -9 18.5 -18t24.5 -14.5t31 -5.5q28 0 53 13t41 34q4 7 10 9t11 2h60v0z" />
    <glyph glyph-name="ibreve" unicode="&#x12d;" horiz-adv-x="265" 
d="M175 20q-2 -14 -7 -17t-19 -3h-106q-13 0 -17.5 7t-3.5 18l69 490q1 10 4 12.5t10 2.5h123q7 0 12 -7t4 -15zM355 742q10 0 12.5 -8t-1.5 -18q-17 -33 -46 -57.5t-65.5 -37t-78.5 -12.5q-43 0 -78 11.5t-57 36.5t-29 65q-1 8 1 14t13 6h61q8 0 10.5 -6t8.5 -14
q8 -9 18.5 -18t24.5 -14.5t31 -5.5q28 0 53 13t41 34q4 7 10 9t11 2h60v0z" />
    <glyph glyph-name="Iogonek" unicode="&#x12e;" horiz-adv-x="315" 
d="M296 742q15 0 12 -22l-98 -700q-1 -14 -6.5 -17t-19.5 -3h-131q-13 0 -15.5 7t-1.5 18l99 702q2 10 5 12.5t10 2.5h146zM-18 -79q2 17 12 31.5t32.5 28.5t63.5 28l112 -6q-57 -19 -81.5 -38t-26.5 -42q-2 -13 5 -20.5t23 -7.5q22 0 37.5 6t27.5 11q7 4 11 0.5t3 -12.5
l-6 -42q-1 -6 -3.5 -11t-7.5 -6q-15 -5 -40.5 -9t-55.5 -4q-55 0 -83.5 24t-22.5 69v0z" />
    <glyph glyph-name="iogonek" unicode="&#x12f;" horiz-adv-x="265" 
d="M175 20q-2 -14 -7 -17t-19 -3h-106q-13 0 -17.5 7t-3.5 18l69 490q1 10 4 12.5t10 2.5h123q7 0 12 -7t4 -15zM260 614q-1 -13 -7 -16.5t-20 -3.5h-108q-13 0 -17.5 7.5t-3.5 18.5l15 107q2 10 4.5 12.5t10.5 2.5h125q8 0 13 -7t3 -15zM-53 -79q2 17 12 31.5t32.5 28.5
t63.5 28l112 -6q-57 -19 -81.5 -38t-26.5 -42q-2 -13 5 -20.5t23 -7.5q22 0 37.5 6t27.5 11q7 4 11 0.5t3 -12.5l-6 -42q-1 -6 -3.5 -11t-7.5 -6q-15 -5 -40.5 -9t-55.5 -4q-55 0 -83.5 24t-22.5 69v0z" />
    <glyph glyph-name="Idotaccent" unicode="&#x130;" horiz-adv-x="315" 
d="M296 742q15 0 12 -22l-98 -700q-1 -14 -6.5 -17t-19.5 -3h-131q-13 0 -15.5 7t-1.5 18l99 702q2 10 5 12.5t10 2.5h146zM316 826q-1 -13 -7 -16.5t-20 -3.5h-108q-13 0 -17.5 7.5t-3.5 18.5l15 107q2 10 4.5 12.5t10.5 2.5h125q8 0 13 -7t3 -15z" />
    <glyph glyph-name="dotlessi" unicode="&#x131;" horiz-adv-x="265" 
d="M175 20q-2 -14 -7 -17t-19 -3h-106q-13 0 -17.5 7t-3.5 18l69 490q1 10 4 12.5t10 2.5h123q7 0 12 -7t4 -15z" />
    <glyph glyph-name="IJ" unicode="&#x132;" horiz-adv-x="762" 
d="M296 742q15 0 12 -22l-98 -700q-1 -14 -6.5 -17t-19.5 -3h-131q-13 0 -15.5 7t-1.5 18l99 702q2 10 5 12.5t10 2.5h146zM687 188q-10 -72 -38.5 -115.5t-76 -63t-115.5 -19.5q-36 0 -66.5 5.5t-53.5 12.5q-15 4 -20 8.5t-4 12.5l25 102q1 9 5 12t12 1q14 -3 29 -6.5
t34 -3.5q42 0 67.5 25t33.5 81l69 488q1 9 4 11.5t11 2.5h147q15 0 11 -22l-74 -532v0z" />
    <glyph glyph-name="ij" unicode="&#x133;" horiz-adv-x="530" 
d="M175 20q-2 -14 -7 -17t-19 -3h-106q-13 0 -17.5 7t-3.5 18l69 490q1 10 4 12.5t11 2.5h127q7 0 9.5 -7t1.5 -15zM260 615q-2 -13 -7.5 -17t-19.5 -4h-115q-10 0 -13 8t-1 19l15 101q3 20 18 20h127q7 0 9.5 -7t0.5 -16zM438 1q-12 -88 -59 -129.5t-141 -41.5
q-45 0 -58.5 6t-11.5 19l11 79q1 6 4 10.5t11 6.5l42 5q19 2 32 15.5t18 45.5l70 498q2 10 5 12.5t11 2.5h122q8 0 12.5 -7t3.5 -15l-72 -507v0zM525 615q-2 -13 -7.5 -17t-19.5 -4h-115q-10 0 -13 8t-1 19l15 101q3 20 18 20h127q7 0 9.5 -7t0.5 -16z" />
    <glyph glyph-name="Jcircumflex" unicode="&#x134;" horiz-adv-x="447" 
d="M372 188q-10 -72 -38.5 -115.5t-76 -63t-115.5 -19.5q-36 0 -66.5 5.5t-53.5 12.5q-15 4 -20 8.5t-4 12.5l25 102q1 9 5 12t12 1q14 -3 29 -6.5t34 -3.5q42 0 67.5 25t33.5 81l69 488q1 9 4 11.5t11 2.5h147q15 0 11 -22l-74 -532v0zM396 885q-7 10 -11 10t-14 -10
l-61 -55q-7 -6 -11.5 -7.5t-13.5 -1.5h-84q-8 0 -8.5 5.5t5.5 10.5l125 114q7 7 14 8.5t19 1.5h73q9 0 13.5 -5t8.5 -10l92 -112q6 -9 4 -11t-12 -2h-80q-7 0 -11.5 3t-8.5 9z" />
    <glyph glyph-name="jcircumflex" unicode="&#x135;" horiz-adv-x="258" 
d="M166 1q-8 -58 -35.5 -96t-69 -56.5t-95.5 -18.5q-39 0 -52 6t-11 19l11 79q1 6 4 10.5t11 6.5l35 5q19 2 32 15.5t18 45.5l70 498q2 10 5 12.5t11 2.5h122q8 0 12.5 -7t3.5 -15l-72 -507v0zM195 673q-7 10 -11 10t-14 -10l-61 -55q-7 -6 -11.5 -7.5t-13.5 -1.5h-84
q-8 0 -8.5 5.5t5.5 10.5l125 114q7 7 14 8.5t19 1.5h73q9 0 13.5 -5t8.5 -10l92 -112q6 -9 4 -11t-12 -2h-80q-7 0 -11.5 3t-8.5 9z" />
    <glyph glyph-name="uni0136" unicode="&#x136;" horiz-adv-x="744" 
d="M673 21q9 -21 -12 -21h-150q-19 0 -23 20l-118 314q-3 7 -7.5 2t-11.5 -14l-104 -106q-4 -4 -7.5 -9t-4.5 -13l-25 -175q-1 -11 -6.5 -15t-18.5 -4h-133q-11 0 -14 7t-2 18l99 703q2 9 5 11.5t10 2.5h144q7 0 11.5 -6.5t3.5 -15.5l-42 -298q-2 -10 1.5 -6t8.5 10l285 303
q8 9 14.5 11t20.5 2h133q14 0 16 -5.5t-6 -14.5l-230 -231q-6 -6 -8.5 -11t-1.5 -14l173 -445v0zM235 -243q-5 0 -5.5 4t3.5 9l42 53q7 9 6 15t-8 6h-24q-6 0 -8.5 3.5t-0.5 13.5l10 64q2 17 15 17h81q14 0 13 -12l-12 -80q-2 -11 -9 -19l-54 -59q-6 -6 -11 -10.5t-15 -4.5
h-23v0z" />
    <glyph glyph-name="uni0137" unicode="&#x137;" horiz-adv-x="604" 
d="M547 20q3 -8 1 -14t-14 -6h-131q-10 0 -15.5 7.5t-8.5 16.5l-75 204q-5 15 -18 2l-80 -72q-4 -4 -8.5 -10t-6.5 -16l-15 -112q-2 -14 -7 -17t-19 -3h-105q-14 0 -19 7t-4 18l99 702q2 10 5 12.5t10 2.5h128q7 0 9.5 -7t0.5 -15l-57 -411q-1 -5 0.5 -3.5t7.5 8.5l218 204
q8 8 14.5 10t13.5 2h107q14 0 18.5 -9t-5.5 -19l-162 -142q-6 -6 -9.5 -11.5t-0.5 -17.5l128 -311v0zM177 -243q-5 0 -5.5 4t3.5 9l42 53q7 9 6 15t-8 6h-24q-6 0 -8.5 3.5t-0.5 13.5l10 64q2 17 15 17h81q14 0 13 -12l-12 -80q-2 -11 -9 -19l-54 -59q-6 -6 -11 -10.5
t-15 -4.5h-23v0z" />
    <glyph glyph-name="kgreenlandic" unicode="&#x138;" horiz-adv-x="604" 
d="M547 20q3 -8 1 -14t-14 -6h-131q-10 0 -16 7.5t-8 16.5l-75 207q-3 8 -6 5.5t-10 -9.5l-82 -69q-4 -4 -8.5 -10t-6.5 -16l-15 -112q-2 -14 -7 -17t-19 -3h-105q-14 0 -19 7t-4 18l69 490q2 10 5 12.5t10 2.5h123q7 0 12 -7t3 -15l-27 -199q-1 -5 0.5 -3.5t7.5 8.5
l218 204q8 8 14.5 10t13.5 2h107q14 0 18.5 -9t-5.5 -19l-162 -142q-6 -6 -9.5 -11.5t-0.5 -17.5l128 -311v0z" />
    <glyph glyph-name="Lacute" unicode="&#x139;" horiz-adv-x="627" 
d="M134 725q3 17 16 17h148q15 0 10 -22l-80 -577q-3 -15 9 -15h321q16 0 13 -20l-13 -95q-1 -8 -5 -10.5t-13 -2.5h-484q-23 0 -20 25l98 700v0zM483 883q2 -9 -0.5 -14.5t-14.5 -8.5l-240 -62q-11 -3 -16.5 2t-7.5 13l-7 35q-3 14 4 17l249 97q6 3 10.5 0.5t7.5 -12.5z
" />
    <glyph glyph-name="lacute" unicode="&#x13a;" horiz-adv-x="266" 
d="M176 20q-2 -14 -7 -17t-20 -3h-106q-13 0 -18 7t-4 18l103 702q1 10 3.5 12.5t10.5 2.5h126q13 0 10 -19zM364 883q2 -9 -0.5 -14.5t-14.5 -8.5l-240 -62q-11 -3 -16.5 2t-7.5 13l-7 35q-3 14 4 17l249 97q6 3 10.5 0.5t7.5 -12.5z" />
    <glyph glyph-name="uni013B" unicode="&#x13b;" horiz-adv-x="627" 
d="M134 725q3 17 16 17h148q15 0 10 -22l-80 -577q-3 -15 9 -15h321q16 0 13 -20l-13 -95q-1 -8 -5 -10.5t-13 -2.5h-484q-23 0 -20 25l98 700v0zM175 -243q-5 0 -5.5 4t3.5 9l42 53q7 9 6 15t-8 6h-24q-6 0 -8.5 3.5t-0.5 13.5l10 64q2 17 15 17h81q14 0 13 -12l-12 -80
q-2 -11 -9 -19l-54 -59q-6 -6 -11 -10.5t-15 -4.5h-23v0z" />
    <glyph glyph-name="uni013C" unicode="&#x13c;" horiz-adv-x="266" 
d="M176 20q-2 -14 -7 -17t-20 -3h-106q-13 0 -18 7t-4 18l103 702q1 10 3.5 12.5t10.5 2.5h126q13 0 10 -19zM20 -243q-5 0 -5.5 4t3.5 9l42 53q7 9 6 15t-8 6h-24q-6 0 -8.5 3.5t-0.5 13.5l10 64q2 17 15 17h81q14 0 13 -12l-12 -80q-2 -11 -9 -19l-54 -59q-6 -6 -11 -10.5
t-15 -4.5h-23v0z" />
    <glyph glyph-name="Lcaron" unicode="&#x13d;" horiz-adv-x="627" 
d="M134 725q3 17 16 17h148q15 0 10 -22l-80 -577q-3 -15 9 -15h321q16 0 13 -20l-13 -95q-1 -8 -5 -10.5t-13 -2.5h-484q-23 0 -20 25l98 700v0zM444 516q-6 0 -9 6.5t-2 10.5l43 75q4 9 5 11t-5 3l-10 1q-8 1 -12.5 6.5t-3.5 12.5l13 91q1 7 3 8t7 1h81q5 0 9 -5t3 -11
l-15 -107q-1 -3 -2 -5t-1 -3l-49 -86q-3 -7 -7.5 -8t-16.5 -1h-31v0z" />
    <glyph glyph-name="lcaron" unicode="&#x13e;" horiz-adv-x="389" 
d="M176 20q-2 -14 -7 -17t-20 -3h-106q-13 0 -18 7t-4 18l103 702q1 10 3.5 12.5t10.5 2.5h126q13 0 10 -19zM319 516q-6 0 -9 6.5t-2 10.5l43 75q4 9 5 11t-5 3l-10 1q-8 1 -12.5 6.5t-3.5 12.5l13 91q1 7 3 8t7 1h81q5 0 9 -5t3 -11l-15 -107q-1 -3 -2 -5t-1 -3l-49 -86
q-3 -7 -7.5 -8t-16.5 -1h-31v0z" />
    <glyph glyph-name="Ldot" unicode="&#x13f;" horiz-adv-x="616" 
d="M97 725q3 17 16 17h148q15 0 10 -22l-80 -577q-3 -15 9 -15h321q16 0 13 -20l-13 -95q-1 -8 -5 -10.5t-13 -2.5h-484q-23 0 -20 25l98 700v0zM525 352q-1 -11 -5 -14t-18 -3h-112q-11 0 -16 7t-4 16l17 115q1 10 3.5 11.5t8.5 1.5h129q7 0 11 -6t2 -14z" />
    <glyph glyph-name="ldot" unicode="&#x140;" horiz-adv-x="421" 
d="M176 20q-2 -14 -7 -17t-20 -3h-106q-13 0 -18 7t-4 18l103 702q1 10 3.5 12.5t10.5 2.5h126q13 0 10 -19zM389 232q-1 -11 -5 -14t-18 -3h-112q-11 0 -16 7t-4 16l17 115q1 10 3.5 11.5t8.5 1.5h129q7 0 11 -6t2 -14z" />
    <glyph glyph-name="Lslash" unicode="&#x141;" horiz-adv-x="590" 
d="M406 413q-1 -8 -3.5 -11t-11.5 -6l-382 -102q-12 -3 -16.5 3.5t-3.5 16.5l13 93q2 9 4 11t9 4l384 98q11 3 16 -3.5t3 -16.5zM97 725q3 17 16 17h148q15 0 10 -22l-80 -577q-3 -15 9 -15h321q16 0 13 -20l-13 -95q-1 -8 -5 -10.5t-13 -2.5h-484q-23 0 -20 25l98 700v0z
" />
    <glyph glyph-name="lslash" unicode="&#x142;" horiz-adv-x="329" 
d="M330 381q-2 -15 -16 -25l-290 -190q-13 -8 -17.5 -2.5t-3.5 15.5l13 94q3 16 16 25l291 186q11 6 16.5 0.5t3.5 -14.5zM204 20q-2 -14 -7 -17t-19 -3h-106q-13 0 -18.5 7t-4.5 18l103 702q2 10 4.5 12.5t10.5 2.5h125q14 0 11 -19z" />
    <glyph glyph-name="Nacute" unicode="&#x143;" horiz-adv-x="759" 
d="M744 742q12 0 10 -15l-101 -716q-1 -11 -16 -11h-102q-7 0 -12 4t-11 12l-258 447q-3 6 -7 5t-6 -11l-62 -441q-1 -10 -5 -13t-15 -3h-110q-9 0 -12 6t-2 16l100 705q2 10 5 12.5t12 2.5h121q11 0 16.5 -4.5t9.5 -14.5l236 -417q5 -9 11.5 -7.5t7.5 11.5l58 419q2 9 5 11
t12 2h115zM613 883q2 -9 -0.5 -14.5t-14.5 -8.5l-240 -62q-11 -3 -16.5 2t-7.5 13l-7 35q-3 14 4 17l249 97q6 3 10.5 0.5t7.5 -12.5z" />
    <glyph glyph-name="nacute" unicode="&#x144;" horiz-adv-x="596" 
d="M36 0q-10 0 -12.5 7.5t-1.5 17.5l69 491q1 9 4 11.5t10 2.5h128q6 0 8.5 -2.5t0.5 -10.5l-7 -50q-1 -12 10 -2q41 34 85 54.5t90 20.5q68 0 106 -37t38 -97q0 -7 -0.5 -14t-1.5 -14l-50 -358q-2 -12 -7 -16t-18 -4h-115q-11 0 -13 7t-1 18l47 334q1 6 1.5 11t0.5 8
q0 25 -14.5 38t-44.5 13q-22 0 -42.5 -8t-40 -22.5t-40.5 -35.5l-50 -344q-2 -13 -7.5 -16t-19.5 -3h-112v0zM502 671q2 -9 -0.5 -14.5t-14.5 -8.5l-240 -62q-11 -3 -16.5 2t-7.5 13l-7 35q-3 14 4 17l249 97q6 3 10.5 0.5t7.5 -12.5z" />
    <glyph glyph-name="uni0145" unicode="&#x145;" horiz-adv-x="759" 
d="M744 742q12 0 10 -15l-101 -716q-1 -11 -16 -11h-102q-7 0 -12 4t-11 12l-258 447q-3 6 -7 5t-6 -11l-62 -441q-1 -10 -5 -13t-15 -3h-110q-9 0 -12 6t-2 16l100 705q2 10 5 12.5t12 2.5h121q11 0 16.5 -4.5t9.5 -14.5l236 -417q5 -9 11.5 -7.5t7.5 11.5l58 419q2 9 5 11
t12 2h115zM238 -243q-5 0 -5.5 4t3.5 9l42 53q7 9 6 15t-8 6h-24q-6 0 -8.5 3.5t-0.5 13.5l10 64q2 17 15 17h81q14 0 13 -12l-12 -80q-2 -11 -9 -19l-54 -59q-6 -6 -11 -10.5t-15 -4.5h-23v0z" />
    <glyph glyph-name="uni0146" unicode="&#x146;" horiz-adv-x="596" 
d="M36 0q-10 0 -12.5 7.5t-1.5 17.5l69 491q1 9 4 11.5t10 2.5h128q6 0 8.5 -2.5t0.5 -10.5l-7 -50q-1 -12 10 -2q41 34 85 54.5t90 20.5q68 0 106 -37t38 -97q0 -7 -0.5 -14t-1.5 -14l-50 -358q-2 -12 -7 -16t-18 -4h-115q-11 0 -13 7t-1 18l47 334q1 6 1.5 11t0.5 8
q0 25 -14.5 38t-44.5 13q-22 0 -42.5 -8t-40 -22.5t-40.5 -35.5l-50 -344q-2 -13 -7.5 -16t-19.5 -3h-112v0zM185 -243q-5 0 -5.5 4t3.5 9l42 53q7 9 6 15t-8 6h-24q-6 0 -8.5 3.5t-0.5 13.5l10 64q2 17 15 17h81q14 0 13 -12l-12 -80q-2 -11 -9 -19l-54 -59
q-6 -6 -11 -10.5t-15 -4.5h-23v0z" />
    <glyph glyph-name="Ncaron" unicode="&#x147;" horiz-adv-x="759" 
d="M744 742q12 0 10 -15l-101 -716q-1 -11 -16 -11h-102q-7 0 -12 4t-11 12l-258 447q-3 6 -7 5t-6 -11l-62 -441q-1 -10 -5 -13t-15 -3h-110q-9 0 -12 6t-2 16l100 705q2 10 5 12.5t12 2.5h121q11 0 16.5 -4.5t9.5 -14.5l236 -417q5 -9 11.5 -7.5t7.5 11.5l58 419q2 9 5 11
t12 2h115zM539 950q6 6 10.5 5.5t12.5 -0.5h87q9 0 11 -5.5t-6 -13.5l-124 -114q-5 -4 -10 -6t-15 -2h-73q-12 0 -18.5 5t-10.5 11l-95 112q-4 7 -6 10t6 3h81q9 0 13.5 -2.5t7.5 -9.5l45 -53q10 -12 14.5 -8t15.5 15l54 53v0z" />
    <glyph glyph-name="ncaron" unicode="&#x148;" horiz-adv-x="596" 
d="M36 0q-10 0 -12.5 7.5t-1.5 17.5l69 491q1 9 4 11.5t10 2.5h128q6 0 8.5 -2.5t0.5 -10.5l-7 -50q-1 -12 10 -2q41 34 85 54.5t90 20.5q68 0 106 -37t38 -97q0 -7 -0.5 -14t-1.5 -14l-50 -358q-2 -12 -7 -16t-18 -4h-115q-11 0 -13 7t-1 18l47 334q1 6 1.5 11t0.5 8
q0 25 -14.5 38t-44.5 13q-22 0 -42.5 -8t-40 -22.5t-40.5 -35.5l-50 -344q-2 -13 -7.5 -16t-19.5 -3h-112v0zM428 738q6 6 10.5 5.5t12.5 -0.5h87q9 0 11 -5.5t-6 -13.5l-124 -114q-5 -4 -10 -6t-15 -2h-73q-12 0 -18.5 5t-10.5 11l-95 112q-4 7 -6 10t6 3h81q9 0 13.5 -2.5
t7.5 -9.5l45 -53q10 -12 14.5 -8t15.5 15l54 53v0z" />
    <glyph glyph-name="napostrophe" unicode="&#x149;" horiz-adv-x="700" 
d="M69 454q-6 0 -5.5 3t2.5 7l48 110q6 19 -9 21l-9 3q-8 0 -10 1t-1 8l17 117q1 7 6.5 12.5t10.5 5.5h83q5 0 6 -0.5t0 -5.5l-18 -134q-1 -2 -3 -4.5t-2 -4.5l-54 -122q-6 -17 -30 -17h-32v0zM140 0q-10 0 -12.5 7.5t-1.5 17.5l69 491q1 9 4 11.5t10 2.5h128q6 0 8.5 -2.5
t0.5 -10.5l-7 -50q-1 -12 10 -2q41 34 85 54.5t90 20.5q68 0 106 -37t38 -97q0 -7 -0.5 -14t-1.5 -14l-50 -358q-2 -12 -7 -16t-18 -4h-115q-11 0 -13 7t-1 18l47 334q1 6 1.5 11t0.5 8q0 25 -14.5 38t-44.5 13q-22 0 -42.5 -8t-40 -22.5t-40.5 -35.5l-50 -344
q-2 -13 -7.5 -16t-19.5 -3h-112v0z" />
    <glyph glyph-name="Eng" unicode="&#x14a;" horiz-adv-x="759" 
d="M740 742q17 0 14 -20l-99 -706q-15 -103 -70 -147t-154 -44q-33 0 -62 4t-52 11q-30 4 -24 36l18 76q2 9 5 11t9 0q10 -2 27.5 -4.5t35 -4.5t28.5 -2q40 0 58 19t25 62l4 22l-249 409q-4 5 -7.5 2.5t-5.5 -12.5l-62 -440q-1 -10 -4 -12t-15 -2h-104q-9 0 -15.5 6t-5.5 16
l100 705q2 8 5 11.5t12 3.5h120q11 0 17 -4.5t11 -14.5l240 -390q5 -8 11.5 -3.5t7.5 15.5l54 384q1 9 4 11t12 2h111v0z" />
    <glyph glyph-name="eng" unicode="&#x14b;" horiz-adv-x="601" 
d="M421 540q75 0 113.5 -45.5t28.5 -116.5l-53 -374q-8 -58 -36 -96.5t-70 -58t-94 -19.5q-38 0 -50.5 6t-10.5 19l11 78q1 7 4 11.5t11 5.5l33 5q19 3 32 16.5t18 45.5l48 344q5 34 -9 51t-49 17q-32 0 -62.5 -18t-59.5 -49l-50 -343q-1 -13 -6 -16t-19 -3h-108
q-12 0 -17 7.5t-4 17.5l72 491q1 9 3.5 11.5t10.5 2.5h119q7 0 11.5 -6.5t3.5 -14.5l-7 -50q-1 -6 1.5 -3t7.5 11q32 24 61.5 40t58 24.5t57.5 8.5v0z" />
    <glyph glyph-name="Omacron" unicode="&#x14c;" horiz-adv-x="774" 
d="M355 -10q-95 0 -162 36.5t-102.5 105.5t-35.5 165q0 18 1 38.5t4 41.5q17 117 70 201t135 129t185 45q93 0 160 -37.5t102.5 -107.5t35.5 -167q0 -18 -1 -38t-5 -41q-16 -116 -68.5 -199t-134 -127.5t-184.5 -44.5v0zM360 113q85 0 133.5 62.5t67.5 199.5q4 29 6 53.5
t2 45.5q0 81 -30 118.5t-93 37.5q-84 0 -134.5 -65.5t-70.5 -206.5q-4 -27 -6 -50.5t-2 -43.5q0 -79 31.5 -115t95.5 -36v0zM653 865q-1 -11 -5 -13t-17 -2h-324q-10 0 -14.5 6.5t-3.5 15.5l9 65q2 8 4 9.5t8 1.5h339q6 0 10.5 -6.5t3.5 -12.5z" />
    <glyph glyph-name="omacron" unicode="&#x14d;" horiz-adv-x="599" 
d="M266 -10q-73 0 -126.5 29.5t-82.5 82t-29 121.5q0 70 24.5 128.5t66.5 100.5t97.5 65t116.5 23q73 0 126.5 -30.5t82 -84t28.5 -123.5q0 -89 -40 -160t-109 -111.5t-155 -40.5v0zM270 92q41 0 74.5 27.5t53.5 81t20 131.5q0 54 -22 81.5t-65 27.5q-41 0 -75 -28t-54 -82
t-20 -132q0 -53 22 -80t66 -27v0zM537 653q-1 -11 -5 -13t-17 -2h-324q-10 0 -14.5 6.5t-3.5 15.5l9 65q2 8 4 9.5t8 1.5h339q6 0 10.5 -6.5t3.5 -12.5z" />
    <glyph glyph-name="Obreve" unicode="&#x14e;" horiz-adv-x="774" 
d="M355 -10q-95 0 -162 36.5t-102.5 105.5t-35.5 165q0 18 1 38.5t4 41.5q17 117 70 201t135 129t185 45q93 0 160 -37.5t102.5 -107.5t35.5 -167q0 -18 -1 -38t-5 -41q-16 -116 -68.5 -199t-134 -127.5t-184.5 -44.5v0zM360 113q85 0 133.5 62.5t67.5 199.5q4 29 6 53.5
t2 45.5q0 81 -30 118.5t-93 37.5q-84 0 -134.5 -65.5t-70.5 -206.5q-4 -27 -6 -50.5t-2 -43.5q0 -79 31.5 -115t95.5 -36v0zM640 954q10 0 12.5 -8t-1.5 -18q-17 -33 -46 -57.5t-65.5 -37t-78.5 -12.5q-43 0 -78 11.5t-57 36.5t-29 65q-1 8 1 14t13 6h61q8 0 10.5 -6
t8.5 -14q8 -9 18.5 -18t24.5 -14.5t31 -5.5q28 0 53 13t41 34q4 7 10 9t11 2h60v0z" />
    <glyph glyph-name="obreve" unicode="&#x14f;" horiz-adv-x="599" 
d="M266 -10q-73 0 -126.5 29.5t-82.5 82t-29 121.5q0 70 24.5 128.5t66.5 100.5t97.5 65t116.5 23q73 0 126.5 -30.5t82 -84t28.5 -123.5q0 -89 -40 -160t-109 -111.5t-155 -40.5v0zM270 92q41 0 74.5 27.5t53.5 81t20 131.5q0 54 -22 81.5t-65 27.5q-41 0 -75 -28t-54 -82
t-20 -132q0 -53 22 -80t66 -27v0zM523 742q10 0 12.5 -8t-1.5 -18q-17 -33 -46 -57.5t-65.5 -37t-78.5 -12.5q-43 0 -78 11.5t-57 36.5t-29 65q-1 8 1 14t13 6h61q8 0 10.5 -6t8.5 -14q8 -9 18.5 -18t24.5 -14.5t31 -5.5q28 0 53 13t41 34q4 7 10 9t11 2h60v0z" />
    <glyph glyph-name="Ohungarumlaut" unicode="&#x150;" horiz-adv-x="774" 
d="M355 -10q-95 0 -162 36.5t-102.5 105.5t-35.5 165q0 18 1 38.5t4 41.5q17 117 70 201t135 129t185 45q93 0 160 -37.5t102.5 -107.5t35.5 -167q0 -18 -1 -38t-5 -41q-16 -116 -68.5 -199t-134 -127.5t-184.5 -44.5v0zM360 113q85 0 133.5 62.5t67.5 199.5q4 29 6 53.5
t2 45.5q0 81 -30 118.5t-93 37.5q-84 0 -134.5 -65.5t-70.5 -206.5q-4 -27 -6 -50.5t-2 -43.5q0 -79 31.5 -115t95.5 -36v0zM487 903q5 -8 6.5 -15t-9.5 -15l-151 -91q-10 -6 -15.5 -4.5t-10.5 7.5l-22 29q-5 6 -7 13.5t2 10.5l149 121q6 4 12.5 2t9.5 -8zM683 903
q5 -8 7 -15t-10 -15l-150 -91q-11 -6 -16 -4.5t-10 7.5l-22 29q-5 6 -7 13.5t2 10.5l149 121q6 4 12 2t10 -8z" />
    <glyph glyph-name="ohungarumlaut" unicode="&#x151;" horiz-adv-x="599" 
d="M266 -10q-73 0 -126.5 29.5t-82.5 82t-29 121.5q0 70 24.5 128.5t66.5 100.5t97.5 65t116.5 23q73 0 126.5 -30.5t82 -84t28.5 -123.5q0 -89 -40 -160t-109 -111.5t-155 -40.5v0zM270 92q41 0 74.5 27.5t53.5 81t20 131.5q0 54 -22 81.5t-65 27.5q-41 0 -75 -28t-54 -82
t-20 -132q0 -53 22 -80t66 -27v0zM370 691q5 -8 6.5 -15t-9.5 -15l-151 -91q-10 -6 -15.5 -4.5t-10.5 7.5l-22 29q-5 6 -7 13.5t2 10.5l149 121q6 4 12.5 2t9.5 -8zM566 691q5 -8 7 -15t-10 -15l-150 -91q-11 -6 -16 -4.5t-10 7.5l-22 29q-5 6 -7 13.5t2 10.5l149 121
q6 4 12 2t10 -8z" />
    <glyph glyph-name="OE" unicode="&#x152;" horiz-adv-x="1128" 
d="M1049 128q9 0 14.5 -5t3.5 -15l-13 -95q-1 -7 -4 -10t-14 -3h-447q-5 0 -9.5 0.5t-7.5 2.5l-31 36q-34 -25 -79.5 -37t-98.5 -12q-111 0 -184.5 47t-104 133.5t-14.5 206.5q17 117 71 201t139.5 129t196.5 45q54 0 95 -13.5t66 -38.5l35 39q4 2 8 2.5t9 0.5h448
q7 0 11.5 -6.5t2.5 -15.5l-13 -90q-1 -9 -5 -12.5t-15 -3.5h-317q-9 0 -16 -6t-9 -15l-20 -144q-1 -9 1.5 -11t8.5 -2h208q9 0 14.5 -6t3.5 -14l-14 -96q-1 -6 -2.5 -8t-10.5 -2h-211q-6 0 -12.5 -5.5t-7.5 -11.5l-22 -157q-1 -7 0 -7.5t7 -0.5h339v0zM360 113
q85 0 133.5 62.5t67.5 199.5q19 135 -9 195t-106 60q-84 0 -134.5 -65.5t-70.5 -206.5q-18 -131 10 -188t109 -57v0z" />
    <glyph glyph-name="oe" unicode="&#x153;" horiz-adv-x="963" 
d="M266 -10q-81 0 -137.5 36t-82 99t-14.5 145q12 82 54.5 142.5t106.5 94t140 33.5q58 0 101.5 -21.5t68.5 -58.5q8 -3 13 1t11 11q38 32 84.5 50t95.5 18q79 0 134 -34.5t80 -99.5t12 -156q-1 -8 -2.5 -10.5t-14.5 -3.5h-335q-7 0 -13.5 -6.5t-8.5 -19.5q-5 -36 8 -61.5
t39.5 -39.5t61.5 -14q38 0 71 17.5t69 55.5q5 2 7.5 -0.5t10.5 -5.5l67 -31q6 -2 9 -9t-3 -17q-39 -44 -77.5 -69.5t-81 -35.5t-94.5 -10q-58 0 -102 21t-71 58q-6 2 -10.5 -2.5t-8.5 -11.5q-39 -30 -87 -47.5t-101 -17.5v0zM270 92q38 0 67.5 21t49 61.5t27.5 99.5
q8 56 1 93t-28.5 55t-55.5 18q-38 0 -67.5 -21t-49 -61.5t-28.5 -100.5q-8 -55 -1 -92t28.5 -55t56.5 -18v0zM713 445q-32 0 -61.5 -15.5t-49.5 -44.5t-25 -69l195 4q11 0 17 5t7 17q4 24 -4 47.5t-27.5 39.5t-51.5 16v0z" />
    <glyph glyph-name="Racute" unicode="&#x154;" horiz-adv-x="722" 
d="M637 23q8 -23 -14 -23h-147q-8 0 -13.5 5t-7.5 16l-69 281q-1 6 -4 8t-12 2h-106q-12 0 -14 -12l-40 -281q-1 -13 -7.5 -16t-20.5 -3h-127q-13 0 -16.5 7.5t-2.5 17.5l99 702q2 10 4.5 12.5t10.5 2.5h312q124 0 191 -47t67 -133q0 -51 -20 -95.5t-55.5 -78t-84.5 -50.5
q-10 -4 -12.5 -7.5t-1.5 -8.5l91 -299v0zM401 430q42 0 73 15t48 42t17 64t-26.5 55.5t-71.5 18.5h-133q-12 0 -15 -17l-24 -165q-1 -8 2 -10.5t8 -2.5h122v0zM579 883q2 -9 -0.5 -14.5t-14.5 -8.5l-240 -62q-11 -3 -16.5 2t-7.5 13l-7 35q-3 14 4 17l249 97q6 3 10.5 0.5
t7.5 -12.5z" />
    <glyph glyph-name="racute" unicode="&#x155;" horiz-adv-x="426" 
d="M43 0q-12 0 -17 7.5t-4 17.5l69 491q1 9 4 11.5t10 2.5h119q8 0 12 -5t2 -16l-7 -45q-1 -10 2.5 -10.5t10.5 5.5q23 25 50.5 43t55 28t50.5 10q20 0 30.5 -3t9.5 -12l-16 -112q-1 -11 -3.5 -14t-8.5 -2q-20 3 -38.5 4t-29.5 1q-20 0 -41.5 -7.5t-40.5 -21t-31.5 -30
t-14.5 -32.5l-41 -292q-2 -13 -7 -16t-19 -3h-106v0zM422 671q2 -9 -0.5 -14.5t-14.5 -8.5l-240 -62q-11 -3 -16.5 2t-7.5 13l-7 35q-3 14 4 17l249 97q6 3 10.5 0.5t7.5 -12.5z" />
    <glyph glyph-name="uni0156" unicode="&#x156;" horiz-adv-x="722" 
d="M637 23q8 -23 -14 -23h-147q-8 0 -13.5 5t-7.5 16l-69 281q-1 6 -4 8t-12 2h-106q-12 0 -14 -12l-40 -281q-1 -13 -7.5 -16t-20.5 -3h-127q-13 0 -16.5 7.5t-2.5 17.5l99 702q2 10 4.5 12.5t10.5 2.5h312q124 0 191 -47t67 -133q0 -51 -20 -95.5t-55.5 -78t-84.5 -50.5
q-10 -4 -12.5 -7.5t-1.5 -8.5l91 -299v0zM401 430q42 0 73 15t48 42t17 64t-26.5 55.5t-71.5 18.5h-133q-12 0 -15 -17l-24 -165q-1 -8 2 -10.5t8 -2.5h122v0zM244 -243q-5 0 -5.5 4t3.5 9l42 53q7 9 6 15t-8 6h-24q-6 0 -8.5 3.5t-0.5 13.5l10 64q2 17 15 17h81
q14 0 13 -12l-12 -80q-2 -11 -9 -19l-54 -59q-6 -6 -11 -10.5t-15 -4.5h-23v0z" />
    <glyph glyph-name="uni0157" unicode="&#x157;" horiz-adv-x="426" 
d="M43 0q-12 0 -17 7.5t-4 17.5l69 491q1 9 4 11.5t10 2.5h119q8 0 12 -5t2 -16l-7 -45q-1 -10 2.5 -10.5t10.5 5.5q23 25 50.5 43t55 28t50.5 10q20 0 30.5 -3t9.5 -12l-16 -112q-1 -11 -3.5 -14t-8.5 -2q-20 3 -38.5 4t-29.5 1q-20 0 -41.5 -7.5t-40.5 -21t-31.5 -30
t-14.5 -32.5l-41 -292q-2 -13 -7 -16t-19 -3h-106v0zM21 -243q-5 0 -5.5 4t3.5 9l42 53q7 9 6 15t-8 6h-24q-6 0 -8.5 3.5t-0.5 13.5l10 64q2 17 15 17h81q14 0 13 -12l-12 -80q-2 -11 -9 -19l-54 -59q-6 -6 -11 -10.5t-15 -4.5h-23v0z" />
    <glyph glyph-name="Rcaron" unicode="&#x158;" horiz-adv-x="722" 
d="M637 23q8 -23 -14 -23h-147q-8 0 -13.5 5t-7.5 16l-69 281q-1 6 -4 8t-12 2h-106q-12 0 -14 -12l-40 -281q-1 -13 -7.5 -16t-20.5 -3h-127q-13 0 -16.5 7.5t-2.5 17.5l99 702q2 10 4.5 12.5t10.5 2.5h312q124 0 191 -47t67 -133q0 -51 -20 -95.5t-55.5 -78t-84.5 -50.5
q-10 -4 -12.5 -7.5t-1.5 -8.5l91 -299v0zM401 430q42 0 73 15t48 42t17 64t-26.5 55.5t-71.5 18.5h-133q-12 0 -15 -17l-24 -165q-1 -8 2 -10.5t8 -2.5h122v0zM505 950q6 6 10.5 5.5t12.5 -0.5h87q9 0 11 -5.5t-6 -13.5l-124 -114q-5 -4 -10 -6t-15 -2h-73q-12 0 -18.5 5
t-10.5 11l-95 112q-4 7 -6 10t6 3h81q9 0 13.5 -2.5t7.5 -9.5l45 -53q10 -12 14.5 -8t15.5 15l54 53v0z" />
    <glyph glyph-name="rcaron" unicode="&#x159;" horiz-adv-x="426" 
d="M43 0q-12 0 -17 7.5t-4 17.5l69 491q1 9 4 11.5t10 2.5h119q8 0 12 -5t2 -16l-7 -45q-1 -10 2.5 -10.5t10.5 5.5q23 25 50.5 43t55 28t50.5 10q20 0 30.5 -3t9.5 -12l-16 -112q-1 -11 -3.5 -14t-8.5 -2q-20 3 -38.5 4t-29.5 1q-20 0 -41.5 -7.5t-40.5 -21t-31.5 -30
t-14.5 -32.5l-41 -292q-2 -13 -7 -16t-19 -3h-106v0zM348 738q6 6 10.5 5.5t12.5 -0.5h87q9 0 11 -5.5t-6 -13.5l-124 -114q-5 -4 -10 -6t-15 -2h-73q-12 0 -18.5 5t-10.5 11l-95 112q-4 7 -6 10t6 3h81q9 0 13.5 -2.5t7.5 -9.5l45 -53q10 -12 14.5 -8t15.5 15l54 53v0z" />
    <glyph glyph-name="Sacute" unicode="&#x15a;" horiz-adv-x="677" 
d="M543 574q-20 22 -56 39t-91 17q-41 0 -72 -11t-48.5 -32.5t-17.5 -50.5q0 -16 9 -29.5t25.5 -24t38.5 -17.5l151 -52q78 -26 115 -66.5t37 -101.5q0 -82 -43.5 -139t-117.5 -86.5t-166 -29.5q-108 0 -180 36t-107 100q-4 10 -4 15.5t8 10.5l79 48q12 8 21 4.5t16 -12.5
q23 -27 45 -46.5t53.5 -29t83.5 -9.5q39 0 70.5 9.5t51 31t19.5 56.5q0 25 -18 42t-58 30l-146 49q-73 24 -110 70.5t-37 106.5q0 57 24.5 103t67.5 79t98.5 50.5t118.5 17.5q60 0 109 -15t85.5 -39t58.5 -55q7 -8 7.5 -14t-6.5 -10l-89 -59q-5 -3 -11 1.5t-14 12.5v0z
M573 883q2 -9 -0.5 -14.5t-14.5 -8.5l-240 -62q-11 -3 -16.5 2t-7.5 13l-7 35q-3 14 4 17l249 97q6 3 10.5 0.5t7.5 -12.5z" />
    <glyph glyph-name="sacute" unicode="&#x15b;" horiz-adv-x="530" 
d="M237 -10q-97 0 -155 34.5t-80 81.5q-7 15 7 23l65 31q10 5 17.5 4t13.5 -11q15 -27 43.5 -46.5t84.5 -19.5q13 0 32.5 2.5t38 9t31.5 19t13 32.5q0 15 -14 26.5t-48 20.5l-99 25q-67 17 -100 48t-33 82q0 62 34.5 103.5t90.5 63t120 21.5q79 0 129 -30t74 -72
q4 -5 3.5 -11t-8.5 -10l-66 -30q-7 -3 -12 -1t-15 13q-14 20 -41 33.5t-67 13.5q-23 0 -46.5 -5.5t-39 -18.5t-15.5 -34q0 -14 9 -23.5t38 -18.5l110 -27q72 -17 103 -55.5t31 -86.5t-21.5 -83.5t-57.5 -58.5t-80.5 -34t-89.5 -11v0zM457 671q2 -9 -0.5 -14.5t-14.5 -8.5
l-240 -62q-11 -3 -16.5 2t-7.5 13l-7 35q-3 14 4 17l249 97q6 3 10.5 0.5t7.5 -12.5z" />
    <glyph glyph-name="Scircumflex" unicode="&#x15c;" horiz-adv-x="677" 
d="M543 574q-20 22 -56 39t-91 17q-41 0 -72 -11t-48.5 -32.5t-17.5 -50.5q0 -16 9 -29.5t25.5 -24t38.5 -17.5l151 -52q78 -26 115 -66.5t37 -101.5q0 -82 -43.5 -139t-117.5 -86.5t-166 -29.5q-108 0 -180 36t-107 100q-4 10 -4 15.5t8 10.5l79 48q12 8 21 4.5t16 -12.5
q23 -27 45 -46.5t53.5 -29t83.5 -9.5q39 0 70.5 9.5t51 31t19.5 56.5q0 25 -18 42t-58 30l-146 49q-73 24 -110 70.5t-37 106.5q0 57 24.5 103t67.5 79t98.5 50.5t118.5 17.5q60 0 109 -15t85.5 -39t58.5 -55q7 -8 7.5 -14t-6.5 -10l-89 -59q-5 -3 -11 1.5t-14 12.5v0z
M446 885q-7 10 -11 10t-14 -10l-61 -55q-7 -6 -11.5 -7.5t-13.5 -1.5h-84q-8 0 -8.5 5.5t5.5 10.5l125 114q7 7 14 8.5t19 1.5h73q9 0 13.5 -5t8.5 -10l92 -112q6 -9 4 -11t-12 -2h-80q-7 0 -11.5 3t-8.5 9z" />
    <glyph glyph-name="scircumflex" unicode="&#x15d;" horiz-adv-x="530" 
d="M237 -10q-97 0 -155 34.5t-80 81.5q-7 15 7 23l65 31q10 5 17.5 4t13.5 -11q15 -27 43.5 -46.5t84.5 -19.5q13 0 32.5 2.5t38 9t31.5 19t13 32.5q0 15 -14 26.5t-48 20.5l-99 25q-67 17 -100 48t-33 82q0 62 34.5 103.5t90.5 63t120 21.5q79 0 129 -30t74 -72
q4 -5 3.5 -11t-8.5 -10l-66 -30q-7 -3 -12 -1t-15 13q-14 20 -41 33.5t-67 13.5q-23 0 -46.5 -5.5t-39 -18.5t-15.5 -34q0 -14 9 -23.5t38 -18.5l110 -27q72 -17 103 -55.5t31 -86.5t-21.5 -83.5t-57.5 -58.5t-80.5 -34t-89.5 -11v0zM330 673q-7 10 -11 10t-14 -10l-61 -55
q-7 -6 -11.5 -7.5t-13.5 -1.5h-84q-8 0 -8.5 5.5t5.5 10.5l125 114q7 7 14 8.5t19 1.5h73q9 0 13.5 -5t8.5 -10l92 -112q6 -9 4 -11t-12 -2h-80q-7 0 -11.5 3t-8.5 9z" />
    <glyph glyph-name="Scedilla" unicode="&#x15e;" horiz-adv-x="677" 
d="M543 574q-20 22 -56 39t-91 17q-41 0 -72 -11t-48.5 -32.5t-17.5 -50.5q0 -16 9 -29.5t25.5 -24t38.5 -17.5l151 -52q78 -26 115 -66.5t37 -101.5q0 -82 -43.5 -139t-117.5 -86.5t-166 -29.5q-108 0 -180 36t-107 100q-4 10 -4 15.5t8 10.5l79 48q12 8 21 4.5t16 -12.5
q23 -27 45 -46.5t53.5 -29t83.5 -9.5q39 0 70.5 9.5t51 31t19.5 56.5q0 25 -18 42t-58 30l-146 49q-73 24 -110 70.5t-37 106.5q0 57 24.5 103t67.5 79t98.5 50.5t118.5 17.5q60 0 109 -15t85.5 -39t58.5 -55q7 -8 7.5 -14t-6.5 -10l-89 -59q-5 -3 -11 1.5t-14 12.5v0z
M408 -143q-5 -37 -43 -56.5t-85 -19.5q-32 0 -60 7t-49 21q-5 1 -8 5t-2 8l20 35q2 4 4 0.5t3 -6.5q15 -6 32.5 -11t35.5 -5q26 0 43 11.5t19 28.5q3 17 -13.5 25t-62.5 8q-8 0 -12.5 4t-1.5 10l50 83h69l-27 -56q-3 -3 -4 -3t0 0q38 -1 59 -15t28.5 -34t4.5 -40v0z" />
    <glyph glyph-name="scedilla" unicode="&#x15f;" horiz-adv-x="530" 
d="M237 -10q-97 0 -155 34.5t-80 81.5q-7 15 7 23l65 31q10 5 17.5 4t13.5 -11q15 -27 43.5 -46.5t84.5 -19.5q13 0 32.5 2.5t38 9t31.5 19t13 32.5q0 15 -14 26.5t-48 20.5l-99 25q-67 17 -100 48t-33 82q0 62 34.5 103.5t90.5 63t120 21.5q79 0 129 -30t74 -72
q4 -5 3.5 -11t-8.5 -10l-66 -30q-7 -3 -12 -1t-15 13q-14 20 -41 33.5t-67 13.5q-23 0 -46.5 -5.5t-39 -18.5t-15.5 -34q0 -14 9 -23.5t38 -18.5l110 -27q72 -17 103 -55.5t31 -86.5t-21.5 -83.5t-57.5 -58.5t-80.5 -34t-89.5 -11v0zM323 -143q-5 -37 -43 -56.5t-85 -19.5
q-32 0 -60 7t-49 21q-5 1 -8 5t-2 8l20 35q2 4 4 0.5t3 -6.5q15 -6 32.5 -11t35.5 -5q26 0 43 11.5t19 28.5q3 17 -13.5 25t-62.5 8q-8 0 -12.5 4t-1.5 10l50 83h69l-27 -56q-3 -3 -4 -3t0 0q38 -1 59 -15t28.5 -34t4.5 -40v0z" />
    <glyph glyph-name="Scaron" unicode="&#x160;" horiz-adv-x="677" 
d="M543 574q-20 22 -56 39t-91 17q-41 0 -72 -11t-48.5 -32.5t-17.5 -50.5q0 -16 9 -29.5t25.5 -24t38.5 -17.5l151 -52q78 -26 115 -66.5t37 -101.5q0 -82 -43.5 -139t-117.5 -86.5t-166 -29.5q-108 0 -180 36t-107 100q-4 10 -4 15.5t8 10.5l79 48q12 8 21 4.5t16 -12.5
q23 -27 45 -46.5t53.5 -29t83.5 -9.5q39 0 70.5 9.5t51 31t19.5 56.5q0 25 -18 42t-58 30l-146 49q-73 24 -110 70.5t-37 106.5q0 57 24.5 103t67.5 79t98.5 50.5t118.5 17.5q60 0 109 -15t85.5 -39t58.5 -55q7 -8 7.5 -14t-6.5 -10l-89 -59q-5 -3 -11 1.5t-14 12.5v0z
M499 950q6 6 10.5 5.5t12.5 -0.5h87q9 0 11 -5.5t-6 -13.5l-124 -114q-5 -4 -10 -6t-15 -2h-73q-12 0 -18.5 5t-10.5 11l-95 112q-4 7 -6 10t6 3h81q9 0 13.5 -2.5t7.5 -9.5l45 -53q10 -12 14.5 -8t15.5 15l54 53v0z" />
    <glyph glyph-name="scaron" unicode="&#x161;" horiz-adv-x="530" 
d="M237 -10q-97 0 -155 34.5t-80 81.5q-7 15 7 23l65 31q10 5 17.5 4t13.5 -11q15 -27 43.5 -46.5t84.5 -19.5q13 0 32.5 2.5t38 9t31.5 19t13 32.5q0 15 -14 26.5t-48 20.5l-99 25q-67 17 -100 48t-33 82q0 62 34.5 103.5t90.5 63t120 21.5q79 0 129 -30t74 -72
q4 -5 3.5 -11t-8.5 -10l-66 -30q-7 -3 -12 -1t-15 13q-14 20 -41 33.5t-67 13.5q-23 0 -46.5 -5.5t-39 -18.5t-15.5 -34q0 -14 9 -23.5t38 -18.5l110 -27q72 -17 103 -55.5t31 -86.5t-21.5 -83.5t-57.5 -58.5t-80.5 -34t-89.5 -11v0zM383 738q6 6 10.5 5.5t12.5 -0.5h87
q9 0 11 -5.5t-6 -13.5l-124 -114q-5 -4 -10 -6t-15 -2h-73q-12 0 -18.5 5t-10.5 11l-95 112q-4 7 -6 10t6 3h81q9 0 13.5 -2.5t7.5 -9.5l45 -53q10 -12 14.5 -8t15.5 15l54 53v0z" />
    <glyph glyph-name="uni0162" unicode="&#x162;" horiz-adv-x="681" 
d="M99 728q1 8 4.5 11t13.5 3h582q10 0 12.5 -3.5t0.5 -10.5l-14 -101q-1 -7 -5 -9t-12 -2h-187q-9 0 -12 -3t-4 -11l-83 -586q-1 -9 -5 -12.5t-11 -3.5h-142q-11 0 -14.5 5t-1.5 17l82 582q1 12 -10 12h-194q-16 0 -14 13zM406 -143q-5 -37 -43 -56.5t-85 -19.5
q-32 0 -60 7t-49 21q-5 1 -8 5t-2 8l20 35q2 4 4 0.5t3 -6.5q15 -6 32.5 -11t35.5 -5q26 0 43 11.5t19 28.5q3 17 -13.5 25t-62.5 8q-8 0 -12.5 4t-1.5 10l50 83h69l-27 -56q-3 -3 -4 -3t0 0q38 -1 59 -15t28.5 -34t4.5 -40v0z" />
    <glyph glyph-name="uni0163" unicode="&#x163;" horiz-adv-x="432" 
d="M231 0q-64 0 -101 28.5t-37 80.5v12t1 13l40 278q1 7 -3.5 9.5t-12.5 2.5h-62q-13 0 -11 22l11 73q1 8 4.5 9.5t11.5 1.5h69q5 0 9.5 4.5t5.5 10.5l36 152q3 13 19 13h108q7 0 10 -5t2 -18l-22 -145q-1 -5 2 -8t8 -3h103q8 0 13.5 -3t3.5 -11l-11 -80q-1 -8 -4.5 -10.5
t-14.5 -2.5h-106q-13 0 -16 -16l-34 -242q-1 -5 -1 -9v-9q0 -23 13.5 -31.5t43.5 -8.5h54q7 0 11.5 -7t3.5 -14l-10 -62q-2 -19 -19 -21q-17 -1 -38.5 -2t-42.5 -1.5t-37 -0.5v0zM319 -143q-5 -37 -43 -56.5t-85 -19.5q-32 0 -60 7t-49 21q-5 1 -8 5t-2 8l20 35q2 4 4 0.5
t3 -6.5q15 -6 32.5 -11t35.5 -5q26 0 43 11.5t19 28.5q3 17 -13.5 25t-62.5 8q-8 0 -12.5 4t-1.5 10l50 83h69l-27 -56q-3 -3 -4 -3t0 0q38 -1 59 -15t28.5 -34t4.5 -40v0z" />
    <glyph glyph-name="Tcaron" unicode="&#x164;" horiz-adv-x="681" 
d="M99 728q1 8 4.5 11t13.5 3h582q10 0 12.5 -3.5t0.5 -10.5l-14 -101q-1 -7 -5 -9t-12 -2h-187q-9 0 -12 -3t-4 -11l-83 -586q-1 -9 -5 -12.5t-11 -3.5h-142q-11 0 -14.5 5t-1.5 17l82 582q1 12 -10 12h-194q-16 0 -14 13zM498 950q6 6 10.5 5.5t12.5 -0.5h87q9 0 11 -5.5
t-6 -13.5l-124 -114q-5 -4 -10 -6t-15 -2h-73q-12 0 -18.5 5t-10.5 11l-95 112q-4 7 -6 10t6 3h81q9 0 13.5 -2.5t7.5 -9.5l45 -53q10 -12 14.5 -8t15.5 15l54 53v0z" />
    <glyph glyph-name="tcaron" unicode="&#x165;" horiz-adv-x="505" 
d="M231 0q-64 0 -101 28.5t-37 80.5v12t1 13l40 278q1 7 -3.5 9.5t-12.5 2.5h-62q-13 0 -11 22l11 73q1 8 4.5 9.5t11.5 1.5h69q5 0 9.5 4.5t5.5 10.5l36 152q3 13 19 13h108q7 0 10 -5t2 -18l-22 -145q-1 -5 2 -8t8 -3h103q8 0 13.5 -3t3.5 -11l-11 -80q-1 -8 -4.5 -10.5
t-14.5 -2.5h-106q-13 0 -16 -16l-34 -242q-1 -5 -1 -9v-9q0 -23 13.5 -31.5t43.5 -8.5h54q7 0 11.5 -7t3.5 -14l-10 -62q-2 -19 -19 -21q-17 -1 -38.5 -2t-42.5 -1.5t-37 -0.5v0zM425 572q-6 0 -9 6.5t-2 10.5l43 75q4 9 5 11t-5 3l-10 1q-8 1 -12.5 6.5t-3.5 12.5l13 91
q1 7 3 8t7 1h81q5 0 9 -5t3 -11l-15 -107q-1 -3 -2 -5t-1 -3l-49 -86q-3 -7 -7.5 -8t-16.5 -1h-31v0z" />
    <glyph glyph-name="Tbar" unicode="&#x166;" horiz-adv-x="681" 
d="M561 322q-2 -12 -7.5 -15t-19.5 -3h-368q-13 0 -17.5 7t-3.5 18l10 73q2 9 4.5 11.5t9.5 2.5h387q7 0 12 -6.5t3 -14.5zM99 728q1 8 4.5 11t13.5 3h582q10 0 12.5 -3.5t0.5 -10.5l-14 -101q-1 -7 -5 -9t-12 -2h-187q-9 0 -12 -3t-4 -11l-83 -586q-1 -9 -5 -12.5t-11 -3.5
h-142q-11 0 -14.5 5t-1.5 17l82 582q1 12 -10 12h-194q-16 0 -14 13z" />
    <glyph glyph-name="tbar" unicode="&#x167;" horiz-adv-x="432" 
d="M374 260q-1 -10 -6 -12.5t-17 -2.5h-289q-10 0 -14.5 7t-3.5 16l8 52q1 8 3.5 9.5t7.5 1.5h305q6 0 10.5 -6t2.5 -13zM231 0q-64 0 -101 28.5t-37 80.5v12t1 13l40 278q1 7 -3.5 9.5t-12.5 2.5h-62q-13 0 -11 22l11 73q1 8 4.5 9.5t11.5 1.5h69q5 0 9.5 4.5t5.5 10.5
l36 152q3 13 19 13h108q7 0 10 -5t2 -18l-22 -145q-1 -5 2 -8t8 -3h103q8 0 13.5 -3t3.5 -11l-11 -80q-1 -8 -4.5 -10.5t-14.5 -2.5h-106q-13 0 -16 -16l-34 -242q-1 -5 -1 -9v-9q0 -23 13.5 -31.5t43.5 -8.5h54q7 0 11.5 -7t3.5 -14l-10 -62q-2 -19 -19 -21
q-17 -1 -38.5 -2t-42.5 -1.5t-37 -0.5v0z" />
    <glyph glyph-name="Utilde" unicode="&#x168;" horiz-adv-x="721" 
d="M660 270q-15 -105 -59 -166.5t-113.5 -87.5t-159.5 -26q-143 0 -205.5 59t-62.5 170q0 19 1.5 38.5t4.5 40.5l61 429q1 10 4 12.5t10 2.5h143q9 0 13.5 -7t2.5 -15l-63 -454q-1 -12 -2.5 -22.5t-1.5 -20.5q0 -58 29.5 -83t83.5 -25q43 0 78.5 16.5t59.5 52.5t33 94
l63 450q2 9 4.5 11.5t9.5 2.5h114q8 0 12.5 -7t2.5 -15l-63 -450v0zM629 858q-16 -7 -40 -14t-52 -7q-29 0 -52.5 7.5t-44.5 14.5t-46 7q-24 0 -38 -9t-35 -20q-9 -3 -13.5 1.5t-6.5 14.5l-9 43q-1 7 -3 14t8 14q20 12 41 21t50 9q31 0 56.5 -8t48 -16t43.5 -8q17 0 29.5 6
t24 14t21.5 10t16 -3t7 -14l5 -51q1 -7 1 -14.5t-11 -11.5v0z" />
    <glyph glyph-name="utilde" unicode="&#x169;" horiz-adv-x="592" 
d="M170 -10q-61 0 -99 37t-38 99v15t1 15l50 354q2 12 6.5 16t17.5 4h110q11 0 16 -7t3 -19l-47 -333q-1 -5 -1 -9.5v-7.5q0 -28 15 -40.5t40 -12.5q34 0 64.5 18t58.5 44l51 348q1 12 6.5 15.5t18.5 3.5h108q12 0 17.5 -7t3.5 -19l-72 -490q-1 -9 -3.5 -11.5t-10.5 -2.5
h-119q-7 0 -11.5 3t-3.5 11l8 49q1 6 -3 6t-11 -6q-46 -40 -88.5 -56.5t-87.5 -16.5v0zM515 646q-16 -7 -40 -14t-52 -7q-29 0 -52.5 7.5t-44.5 14.5t-46 7q-24 0 -38 -9t-35 -20q-9 -3 -13.5 1.5t-6.5 14.5l-9 43q-1 7 -3 14t8 14q20 12 41 21t50 9q31 0 56.5 -8t48 -16
t43.5 -8q17 0 29.5 6t24 14t21.5 10t16 -3t7 -14l5 -51q1 -7 1 -14.5t-11 -11.5v0z" />
    <glyph glyph-name="Umacron" unicode="&#x16a;" horiz-adv-x="721" 
d="M660 270q-15 -105 -59 -166.5t-113.5 -87.5t-159.5 -26q-143 0 -205.5 59t-62.5 170q0 19 1.5 38.5t4.5 40.5l61 429q1 10 4 12.5t10 2.5h143q9 0 13.5 -7t2.5 -15l-63 -454q-1 -12 -2.5 -22.5t-1.5 -20.5q0 -58 29.5 -83t83.5 -25q43 0 78.5 16.5t59.5 52.5t33 94
l63 450q2 9 4.5 11.5t9.5 2.5h114q8 0 12.5 -7t2.5 -15l-63 -450v0zM640 865q-1 -11 -5 -13t-17 -2h-324q-10 0 -14.5 6.5t-3.5 15.5l9 65q2 8 4 9.5t8 1.5h339q6 0 10.5 -6.5t3.5 -12.5z" />
    <glyph glyph-name="umacron" unicode="&#x16b;" horiz-adv-x="592" 
d="M170 -10q-61 0 -99 37t-38 99v15t1 15l50 354q2 12 6.5 16t17.5 4h110q11 0 16 -7t3 -19l-47 -333q-1 -5 -1 -9.5v-7.5q0 -28 15 -40.5t40 -12.5q34 0 64.5 18t58.5 44l51 348q1 12 6.5 15.5t18.5 3.5h108q12 0 17.5 -7t3.5 -19l-72 -490q-1 -9 -3.5 -11.5t-10.5 -2.5
h-119q-7 0 -11.5 3t-3.5 11l8 49q1 6 -3 6t-11 -6q-46 -40 -88.5 -56.5t-87.5 -16.5v0zM526 653q-1 -11 -5 -13t-17 -2h-324q-10 0 -14.5 6.5t-3.5 15.5l9 65q2 8 4 9.5t8 1.5h339q6 0 10.5 -6.5t3.5 -12.5z" />
    <glyph glyph-name="Ubreve" unicode="&#x16c;" horiz-adv-x="721" 
d="M660 270q-15 -105 -59 -166.5t-113.5 -87.5t-159.5 -26q-143 0 -205.5 59t-62.5 170q0 19 1.5 38.5t4.5 40.5l61 429q1 10 4 12.5t10 2.5h143q9 0 13.5 -7t2.5 -15l-63 -454q-1 -12 -2.5 -22.5t-1.5 -20.5q0 -58 29.5 -83t83.5 -25q43 0 78.5 16.5t59.5 52.5t33 94
l63 450q2 9 4.5 11.5t9.5 2.5h114q8 0 12.5 -7t2.5 -15l-63 -450v0zM626 954q10 0 12.5 -8t-1.5 -18q-17 -33 -46 -57.5t-65.5 -37t-78.5 -12.5q-43 0 -78 11.5t-57 36.5t-29 65q-1 8 1 14t13 6h61q8 0 10.5 -6t8.5 -14q8 -9 18.5 -18t24.5 -14.5t31 -5.5q28 0 53 13t41 34
q4 7 10 9t11 2h60v0z" />
    <glyph glyph-name="ubreve" unicode="&#x16d;" horiz-adv-x="592" 
d="M170 -10q-61 0 -99 37t-38 99v15t1 15l50 354q2 12 6.5 16t17.5 4h110q11 0 16 -7t3 -19l-47 -333q-1 -5 -1 -9.5v-7.5q0 -28 15 -40.5t40 -12.5q34 0 64.5 18t58.5 44l51 348q1 12 6.5 15.5t18.5 3.5h108q12 0 17.5 -7t3.5 -19l-72 -490q-1 -9 -3.5 -11.5t-10.5 -2.5
h-119q-7 0 -11.5 3t-3.5 11l8 49q1 6 -3 6t-11 -6q-46 -40 -88.5 -56.5t-87.5 -16.5v0zM513 742q10 0 12.5 -8t-1.5 -18q-17 -33 -46 -57.5t-65.5 -37t-78.5 -12.5q-43 0 -78 11.5t-57 36.5t-29 65q-1 8 1 14t13 6h61q8 0 10.5 -6t8.5 -14q8 -9 18.5 -18t24.5 -14.5t31 -5.5
q28 0 53 13t41 34q4 7 10 9t11 2h60v0z" />
    <glyph glyph-name="Uring" unicode="&#x16e;" horiz-adv-x="721" 
d="M660 270q-15 -105 -59 -166.5t-113.5 -87.5t-159.5 -26q-143 0 -205.5 59t-62.5 170q0 19 1.5 38.5t4.5 40.5l61 429q1 10 4 12.5t10 2.5h143q9 0 13.5 -7t2.5 -15l-63 -454q-1 -12 -2.5 -22.5t-1.5 -20.5q0 -58 29.5 -83t83.5 -25q43 0 78.5 16.5t59.5 52.5t33 94
l63 450q2 9 4.5 11.5t9.5 2.5h114q8 0 12.5 -7t2.5 -15l-63 -450v0zM559 836q-7 -45 -41.5 -74.5t-78.5 -29.5q-33 0 -57.5 16.5t-36.5 44.5t-8 62q6 42 41 70.5t79 28.5q33 0 57.5 -16t37 -42.5t7.5 -59.5v0zM499 852q3 19 -8.5 30.5t-30.5 11.5q-22 0 -42.5 -17t-24.5 -42
q-1 -18 10.5 -31t29.5 -13q24 0 43 18.5t23 42.5v0z" />
    <glyph glyph-name="uring" unicode="&#x16f;" horiz-adv-x="592" 
d="M170 -10q-61 0 -99 37t-38 99v15t1 15l50 354q2 12 6.5 16t17.5 4h110q11 0 16 -7t3 -19l-47 -333q-1 -5 -1 -9.5v-7.5q0 -28 15 -40.5t40 -12.5q34 0 64.5 18t58.5 44l51 348q1 12 6.5 15.5t18.5 3.5h108q12 0 17.5 -7t3.5 -19l-72 -490q-1 -9 -3.5 -11.5t-10.5 -2.5
h-119q-7 0 -11.5 3t-3.5 11l8 49q1 6 -3 6t-11 -6q-46 -40 -88.5 -56.5t-87.5 -16.5v0zM461 685q-7 -45 -41.5 -74.5t-78.5 -29.5q-33 0 -57.5 16.5t-36.5 44.5t-8 62q6 42 41 70.5t79 28.5q33 0 57.5 -16t37 -42.5t7.5 -59.5v0zM401 701q3 19 -8.5 30.5t-30.5 11.5
q-22 0 -42.5 -17t-24.5 -42q-1 -18 10.5 -31t29.5 -13q24 0 43 18.5t23 42.5v0z" />
    <glyph glyph-name="Uhungarumlaut" unicode="&#x170;" horiz-adv-x="721" 
d="M660 270q-15 -105 -59 -166.5t-113.5 -87.5t-159.5 -26q-143 0 -205.5 59t-62.5 170q0 19 1.5 38.5t4.5 40.5l61 429q1 10 4 12.5t10 2.5h143q9 0 13.5 -7t2.5 -15l-63 -454q-1 -12 -2.5 -22.5t-1.5 -20.5q0 -58 29.5 -83t83.5 -25q43 0 78.5 16.5t59.5 52.5t33 94
l63 450q2 9 4.5 11.5t9.5 2.5h114q8 0 12.5 -7t2.5 -15l-63 -450v0zM473 903q5 -8 6.5 -15t-9.5 -15l-151 -91q-10 -6 -15.5 -4.5t-10.5 7.5l-22 29q-5 6 -7 13.5t2 10.5l149 121q6 4 12.5 2t9.5 -8zM669 903q5 -8 7 -15t-10 -15l-150 -91q-11 -6 -16 -4.5t-10 7.5l-22 29
q-5 6 -7 13.5t2 10.5l149 121q6 4 12 2t10 -8z" />
    <glyph glyph-name="uhungarumlaut" unicode="&#x171;" horiz-adv-x="592" 
d="M170 -10q-61 0 -99 37t-38 99v15t1 15l50 354q2 12 6.5 16t17.5 4h110q11 0 16 -7t3 -19l-47 -333q-1 -5 -1 -9.5v-7.5q0 -28 15 -40.5t40 -12.5q34 0 64.5 18t58.5 44l51 348q1 12 6.5 15.5t18.5 3.5h108q12 0 17.5 -7t3.5 -19l-72 -490q-1 -9 -3.5 -11.5t-10.5 -2.5
h-119q-7 0 -11.5 3t-3.5 11l8 49q1 6 -3 6t-11 -6q-46 -40 -88.5 -56.5t-87.5 -16.5v0zM360 691q5 -8 6.5 -15t-9.5 -15l-151 -91q-10 -6 -15.5 -4.5t-10.5 7.5l-22 29q-5 6 -7 13.5t2 10.5l149 121q6 4 12.5 2t9.5 -8zM556 691q5 -8 7 -15t-10 -15l-150 -91
q-11 -6 -16 -4.5t-10 7.5l-22 29q-5 6 -7 13.5t2 10.5l149 121q6 4 12 2t10 -8z" />
    <glyph glyph-name="Uogonek" unicode="&#x172;" horiz-adv-x="721" 
d="M660 270q-15 -105 -59 -166.5t-113.5 -87.5t-159.5 -26q-143 0 -205.5 59t-62.5 170q0 19 1.5 38.5t4.5 40.5l61 429q1 10 4 12.5t10 2.5h143q9 0 13.5 -7t2.5 -15l-63 -454q-1 -12 -2.5 -22.5t-1.5 -20.5q0 -58 29.5 -83t83.5 -25q43 0 78.5 16.5t59.5 52.5t33 94
l63 450q2 9 4.5 11.5t9.5 2.5h114q8 0 12.5 -7t2.5 -15l-63 -450v0zM224 -80q2 17 12 31.5t32.5 28.5t63.5 28l112 -6q-57 -19 -81.5 -38t-26.5 -42q-2 -13 5 -20.5t23 -7.5q22 0 37.5 6t27.5 11q7 4 11 0.5t3 -12.5l-6 -42q-1 -6 -3.5 -11t-7.5 -6q-15 -5 -40.5 -9
t-55.5 -4q-55 0 -83.5 24t-22.5 69v0z" />
    <glyph glyph-name="uogonek" unicode="&#x173;" horiz-adv-x="592" 
d="M170 -10q-61 0 -99 37t-38 99v15t1 15l50 354q2 12 6.5 16t17.5 4h110q11 0 16 -7t3 -19l-47 -333q-1 -5 -1 -9.5v-7.5q0 -28 15 -40.5t40 -12.5q34 0 64.5 18t58.5 44l51 348q1 12 6.5 15.5t18.5 3.5h108q12 0 17.5 -7t3.5 -19l-72 -490q-1 -9 -3.5 -11.5t-10.5 -2.5
h-119q-7 0 -11.5 3t-3.5 11l8 49q1 6 -3 6t-11 -6q-46 -40 -88.5 -56.5t-87.5 -16.5v0zM278 -79q2 17 12 31.5t32.5 28.5t63.5 28l112 -6q-57 -19 -81.5 -38t-26.5 -42q-2 -13 5 -20.5t23 -7.5q22 0 37.5 6t27.5 11q7 4 11 0.5t3 -12.5l-6 -42q-1 -6 -3.5 -11t-7.5 -6
q-15 -5 -40.5 -9t-55.5 -4q-55 0 -83.5 24t-22.5 69v0z" />
    <glyph glyph-name="Wcircumflex" unicode="&#x174;" horiz-adv-x="1084" 
d="M1102 742q16 0 17.5 -7.5t-6.5 -27.5l-302 -690q-6 -11 -11.5 -14t-18.5 -3h-108q-13 0 -20 3.5t-8 14.5l-67 441q-1 7 -3.5 7t-6.5 -7l-191 -442q-5 -11 -11 -14t-19 -3h-113q-24 0 -27 20l-108 694q-2 14 2.5 21t19.5 7h127q13 0 18 -6t6 -15l65 -452q2 -9 5 -9.5
t7 9.5l195 460q4 8 9 10.5t18 2.5h110q13 0 16.5 -5.5t4.5 -15.5l67 -458q1 -6 5 -6t7 8l193 464q3 8 8 10.5t18 2.5h102v0zM645 885q-7 10 -11 10t-14 -10l-61 -55q-7 -6 -11.5 -7.5t-13.5 -1.5h-84q-8 0 -8.5 5.5t5.5 10.5l125 114q7 7 14 8.5t19 1.5h73q9 0 13.5 -5
t8.5 -10l92 -112q6 -9 4 -11t-12 -2h-80q-7 0 -11.5 3t-8.5 9z" />
    <glyph glyph-name="wcircumflex" unicode="&#x175;" horiz-adv-x="818" 
d="M815 530q10 0 14.5 -9t0.5 -18l-233 -491q-3 -9 -7 -10.5t-13 -1.5h-82q-23 0 -24 22l-49 275q-2 11 -6 7t-8 -14l-127 -278q-4 -9 -7.5 -10.5t-13.5 -1.5h-85q-22 0 -23 22l-94 488q-4 20 14 20h118q7 0 13.5 -6.5t6.5 -13.5l51 -284q1 -9 5.5 -5t8.5 14l127 283
q6 12 21 12h84q7 0 13.5 -6.5t6.5 -13.5l48 -284q2 -9 6 -5t8 14l127 283q8 12 22 12h77v0zM481 673q-7 10 -11 10t-14 -10l-61 -55q-7 -6 -11.5 -7.5t-13.5 -1.5h-84q-8 0 -8.5 5.5t5.5 10.5l125 114q7 7 14 8.5t19 1.5h73q9 0 13.5 -5t8.5 -10l92 -112q6 -9 4 -11t-12 -2
h-80q-7 0 -11.5 3t-8.5 9z" />
    <glyph glyph-name="Ycircumflex" unicode="&#x176;" horiz-adv-x="735" 
d="M759 742q11 0 13 -6.5t-3 -14.5l-292 -388q-7 -8 -10.5 -18.5t-6.5 -35.5l-37 -259q-2 -14 -7.5 -17t-19.5 -3h-132q-11 0 -14 5t-2 16l39 274q2 13 1 20t-5 16l-183 391q-5 10 -2.5 15t15.5 5h150q12 0 17 -5.5t10 -15.5l112 -261q5 -13 14 0l189 268q7 10 11.5 12
t16.5 2h126v0zM478 885q-7 10 -11 10t-14 -10l-61 -55q-7 -6 -11.5 -7.5t-13.5 -1.5h-84q-8 0 -8.5 5.5t5.5 10.5l125 114q7 7 14 8.5t19 1.5h73q9 0 13.5 -5t8.5 -10l92 -112q6 -9 4 -11t-12 -2h-80q-7 0 -11.5 3t-8.5 9z" />
    <glyph glyph-name="ycircumflex" unicode="&#x177;" horiz-adv-x="566" 
d="M37 -165q-28 0 -40 4t-10 16l11 77q1 7 9.5 11t25.5 4h66q19 0 35 8t27.5 21t16 27t1.5 26l-128 473q-7 28 15 28h137q16 0 18 -13l70 -298q2 -12 8 -11.5t12 13.5l148 289q6 11 12 15.5t14 4.5h86q19 0 7 -19l-277 -507q-29 -52 -56 -85t-57 -51t-66.5 -25.5t-84.5 -7.5
v0zM377 673q-7 10 -11 10t-14 -10l-61 -55q-7 -6 -11.5 -7.5t-13.5 -1.5h-84q-8 0 -8.5 5.5t5.5 10.5l125 114q7 7 14 8.5t19 1.5h73q9 0 13.5 -5t8.5 -10l92 -112q6 -9 4 -11t-12 -2h-80q-7 0 -11.5 3t-8.5 9z" />
    <glyph glyph-name="Ydieresis" unicode="&#x178;" horiz-adv-x="735" 
d="M759 742q11 0 13 -6.5t-3 -14.5l-292 -388q-7 -8 -10.5 -18.5t-6.5 -35.5l-37 -259q-2 -14 -7.5 -17t-19.5 -3h-132q-11 0 -14 5t-2 16l39 274q2 13 1 20t-5 16l-183 391q-5 10 -2.5 15t15.5 5h150q12 0 17 -5.5t10 -15.5l112 -261q5 -13 14 0l189 268q7 10 11.5 12
t16.5 2h126v0zM424 840q-1 -11 -5.5 -13.5t-17.5 -2.5h-93q-12 0 -16 6.5t-3 16.5l13 94q2 9 4 11t9 2h108q7 0 11.5 -6.5t2.5 -13.5zM627 840q-1 -11 -5.5 -13.5t-17.5 -2.5h-94q-11 0 -15 6.5t-3 16.5l13 94q2 9 4 11t9 2h108q7 0 11.5 -6.5t2.5 -13.5z" />
    <glyph glyph-name="Zacute" unicode="&#x179;" horiz-adv-x="681" 
d="M21 0q-12 0 -17 4.5t-4 16.5l5 40q2 11 5.5 19t14.5 21l412 502q6 7 6.5 8.5t-7.5 1.5h-306q-20 0 -17 24l13 93q2 8 4.5 10t8.5 2h557q14 0 12 -18l-7 -44q-1 -9 -3.5 -15t-10.5 -17l-424 -510q-8 -8 2 -8h340q9 0 12 -2.5t1 -11.5l-15 -103q-1 -7 -4 -10t-13 -3h-565v0
zM580 883q2 -9 -0.5 -14.5t-14.5 -8.5l-240 -62q-11 -3 -16.5 2t-7.5 13l-7 35q-3 14 4 17l249 97q6 3 10.5 0.5t7.5 -12.5z" />
    <glyph glyph-name="zacute" unicode="&#x17a;" horiz-adv-x="519" 
d="M6 0q-12 0 -15 4t-2 15l5 35q2 13 7 20.5t18 22.5l290 318q6 7 4 12.5t-15 5.5h-214q-10 0 -12 5t-1 15l9 62q2 8 8 11.5t13 3.5h412q13 0 11 -14l-6 -41q-1 -10 -6.5 -17.5t-14.5 -18.5l-293 -321q-7 -8 -3.5 -14t11.5 -6h241q16 0 13 -16l-9 -65q-1 -7 -4.5 -12
t-14.5 -5h-432v0zM466 671q2 -9 -0.5 -14.5t-14.5 -8.5l-240 -62q-11 -3 -16.5 2t-7.5 13l-7 35q-3 14 4 17l249 97q6 3 10.5 0.5t7.5 -12.5z" />
    <glyph glyph-name="Zdotaccent" unicode="&#x17b;" horiz-adv-x="681" 
d="M21 0q-12 0 -17 4.5t-4 16.5l5 40q2 11 5.5 19t14.5 21l412 502q6 7 6.5 8.5t-7.5 1.5h-306q-20 0 -17 24l13 93q2 8 4.5 10t8.5 2h557q14 0 12 -18l-7 -44q-1 -9 -3.5 -15t-10.5 -17l-424 -510q-8 -8 2 -8h340q9 0 12 -2.5t1 -11.5l-15 -103q-1 -7 -4 -10t-13 -3h-565v0
zM509 826q-1 -13 -7 -16.5t-20 -3.5h-108q-13 0 -17.5 7.5t-3.5 18.5l15 107q2 10 4.5 12.5t10.5 2.5h125q8 0 13 -7t3 -15z" />
    <glyph glyph-name="zdotaccent" unicode="&#x17c;" horiz-adv-x="519" 
d="M6 0q-12 0 -15 4t-2 15l5 35q2 13 7 20.5t18 22.5l290 318q6 7 4 12.5t-15 5.5h-214q-10 0 -12 5t-1 15l9 62q2 8 8 11.5t13 3.5h412q13 0 11 -14l-6 -41q-1 -10 -6.5 -17.5t-14.5 -18.5l-293 -321q-7 -8 -3.5 -14t11.5 -6h241q16 0 13 -16l-9 -65q-1 -7 -4.5 -12
t-14.5 -5h-432v0zM396 614q-1 -13 -7 -16.5t-20 -3.5h-108q-13 0 -17.5 7.5t-3.5 18.5l15 107q2 10 4.5 12.5t10.5 2.5h125q8 0 13 -7t3 -15z" />
    <glyph glyph-name="Zcaron" unicode="&#x17d;" horiz-adv-x="681" 
d="M21 0q-12 0 -17 4.5t-4 16.5l5 40q2 11 5.5 19t14.5 21l412 502q6 7 6.5 8.5t-7.5 1.5h-306q-20 0 -17 24l13 93q2 8 4.5 10t8.5 2h557q14 0 12 -18l-7 -44q-1 -9 -3.5 -15t-10.5 -17l-424 -510q-8 -8 2 -8h340q9 0 12 -2.5t1 -11.5l-15 -103q-1 -7 -4 -10t-13 -3h-565v0
zM506 950q6 6 10.5 5.5t12.5 -0.5h87q9 0 11 -5.5t-6 -13.5l-124 -114q-5 -4 -10 -6t-15 -2h-73q-12 0 -18.5 5t-10.5 11l-95 112q-4 7 -6 10t6 3h81q9 0 13.5 -2.5t7.5 -9.5l45 -53q10 -12 14.5 -8t15.5 15l54 53v0z" />
    <glyph glyph-name="zcaron" unicode="&#x17e;" horiz-adv-x="519" 
d="M6 0q-12 0 -15 4t-2 15l5 35q2 13 7 20.5t18 22.5l290 318q6 7 4 12.5t-15 5.5h-214q-10 0 -12 5t-1 15l9 62q2 8 8 11.5t13 3.5h412q13 0 11 -14l-6 -41q-1 -10 -6.5 -17.5t-14.5 -18.5l-293 -321q-7 -8 -3.5 -14t11.5 -6h241q16 0 13 -16l-9 -65q-1 -7 -4.5 -12
t-14.5 -5h-432v0zM392 738q6 6 10.5 5.5t12.5 -0.5h87q9 0 11 -5.5t-6 -13.5l-124 -114q-5 -4 -10 -6t-15 -2h-73q-12 0 -18.5 5t-10.5 11l-95 112q-4 7 -6 10t6 3h81q9 0 13.5 -2.5t7.5 -9.5l45 -53q10 -12 14.5 -8t15.5 15l54 53v0z" />
    <glyph glyph-name="uni018F" unicode="&#x18f;" horiz-adv-x="772" 
d="M566 438q2 21 2.5 45.5t-4.5 48t-19 42.5t-39 30.5t-64 11.5q-32 0 -57.5 -8.5t-45 -23.5t-36.5 -34t-30.5 -39.5t-27.5 -40.5q-3 -1 -7 1.5l-12 7.5l-103 52q-14 7 -5 31q20 28 43 55.5t52 51.5t64.5 43t77.5 29.5t92 10.5q70 0 123 -19.5t90 -55.5t58 -84.5t27 -105.5
t-3 -119q-11 -78 -45 -147t-86.5 -120.5t-118.5 -81t-141 -29.5q-89 0 -150 28.5t-96 82.5t-45 128t2 165q2 10 3.5 14t14.5 4h463q8 0 14.5 6.5t8.5 19.5v0zM259 300q-21 0 -25 -23q-4 -31 0 -60.5t17.5 -52.5t39 -36.5t63.5 -13.5q44 0 76 14t54.5 40t37 61t23.5 75z" />
    <glyph glyph-name="florin" unicode="&#x192;" horiz-adv-x="514" 
d="M479 530q10 0 14.5 -7.5t2.5 -14.5l-23 -74q-3 -8 -7.5 -9t-12.5 -1h-82q-5 0 -10 -5t-7 -10l-141 -447q-20 -64 -68 -98.5t-117 -34.5h-99q-11 0 -16.5 8t-2.5 17l19 65q4 12 17 12h46q30 1 47.5 17.5t30.5 57.5l130 413q2 5 2.5 5t-3.5 0h-61q-8 0 -12.5 6t-3.5 14
l24 73q2 7 6.5 10t14.5 3h55q7 0 12.5 5.5t7.5 13.5l19 61q20 64 68.5 98t116.5 34h101q11 0 16.5 -7.5t3.5 -17.5l-20 -65q-4 -13 -18 -13h-52q-21 0 -43 -19t-31 -45l-12 -38q-2 -6 -1.5 -6.5t6.5 -0.5h83v0z" />
    <glyph glyph-name="Ohorn" unicode="&#x1a0;" horiz-adv-x="774" 
d="M355 -10q-95 0 -162 36.5t-102.5 105.5t-35.5 165q0 18 1 38.5t4 41.5q17 117 70 201t135 129t185 45q93 0 160 -37.5t102.5 -107.5t35.5 -167q0 -18 -1 -38t-5 -41q-16 -116 -68.5 -199t-134 -127.5t-184.5 -44.5v0zM360 113q85 0 133.5 62.5t67.5 199.5q4 29 6 53.5
t2 45.5q0 81 -30 118.5t-93 37.5q-84 0 -134.5 -65.5t-70.5 -206.5q-4 -27 -6 -50.5t-2 -43.5q0 -79 31.5 -115t95.5 -36v0zM708 801q9 0 11.5 -8t-1.5 -18q-16 -34 -43.5 -59t-63.5 -38t-78 -13l4 76q29 0 52.5 13t37.5 36q4 7 9.5 9t10.5 2h61v0z" />
    <glyph glyph-name="ohorn" unicode="&#x1a1;" horiz-adv-x="599" 
d="M266 -10q-73 0 -126.5 29.5t-82.5 82t-29 121.5q0 70 24.5 128.5t66.5 100.5t97.5 65t116.5 23q73 0 126.5 -30.5t82 -84t28.5 -123.5q0 -89 -40 -160t-109 -111.5t-155 -40.5v0zM270 92q41 0 74.5 27.5t53.5 81t20 131.5q0 54 -22 81.5t-65 27.5q-41 0 -75 -28t-54 -82
t-20 -132q0 -53 22 -80t66 -27v0zM562 586q9 0 11.5 -8t-1.5 -18q-16 -34 -43.5 -59t-63.5 -38t-78 -13l4 76q29 0 52.5 13t37.5 36q4 7 9.5 9t10.5 2h61v0z" />
    <glyph glyph-name="Uhorn" unicode="&#x1af;" horiz-adv-x="721" 
d="M660 270q-15 -105 -59 -166.5t-113.5 -87.5t-159.5 -26q-143 0 -205.5 59t-62.5 170q0 19 1.5 38.5t4.5 40.5l61 429q1 10 4 12.5t10 2.5h143q9 0 13.5 -7t2.5 -15l-63 -454q-1 -12 -2.5 -22.5t-1.5 -20.5q0 -58 29.5 -83t83.5 -25q43 0 78.5 16.5t59.5 52.5t33 94
l63 450q2 9 4.5 11.5t9.5 2.5h114q8 0 12.5 -7t2.5 -15l-63 -450v0zM837 800q9 0 11.5 -8t-1.5 -18q-16 -34 -43.5 -59t-63.5 -38t-78 -13l4 76q29 0 52.5 13t37.5 36q4 7 9.5 9t10.5 2h61v0z" />
    <glyph glyph-name="uhorn" unicode="&#x1b0;" horiz-adv-x="592" 
d="M170 -10q-61 0 -99 37t-38 99v15t1 15l50 354q2 12 6.5 16t17.5 4h110q11 0 16 -7t3 -19l-47 -333q-1 -5 -1 -9.5v-7.5q0 -28 15 -40.5t40 -12.5q34 0 64.5 18t58.5 44l51 348q1 12 6.5 15.5t18.5 3.5h108q12 0 17.5 -7t3.5 -19l-72 -490q-1 -9 -3.5 -11.5t-10.5 -2.5
h-119q-7 0 -11.5 3t-3.5 11l8 49q1 6 -3 6t-11 -6q-46 -40 -88.5 -56.5t-87.5 -16.5v0zM666 589q9 0 11.5 -8t-1.5 -18q-16 -34 -43.5 -59t-63.5 -38t-78 -13l4 76q29 0 52.5 13t37.5 36q4 7 9.5 9t10.5 2h61v0z" />
    <glyph glyph-name="DZcaron" unicode="&#x1c4;" horiz-adv-x="1413" 
d="M59 0q-12 0 -18 8t-4 21l97 697q2 10 6 13t15 3h211q121 0 201 -37.5t120 -106t40 -159.5q0 -134 -54 -233t-154 -152.5t-241 -53.5h-219v0zM297 123q87 0 142 42t80.5 115t25.5 169q0 59 -20.5 96.5t-59 55t-95.5 17.5h-60q-16 0 -18 -17l-63 -460q-1 -9 1.5 -13.5
t10.5 -4.5h56zM752 0q-12 0 -17 4.5t-4 16.5l5 40q2 11 5.5 19t14.5 21l412 502q6 7 6.5 8.5t-7.5 1.5h-306q-20 0 -17 24l13 93q2 8 4.5 10t8.5 2h557q14 0 12 -18l-7 -44q-1 -9 -3.5 -15t-10.5 -17l-424 -510q-8 -8 2 -8h340q9 0 12 -2.5t1 -11.5l-15 -103q-1 -7 -4 -10
t-13 -3h-565v0zM1237 950q6 6 10.5 5.5t12.5 -0.5h87q9 0 11 -5.5t-6 -13.5l-124 -114q-5 -4 -10 -6t-15 -2h-73q-12 0 -18.5 5t-10.5 11l-95 112q-4 7 -6 10t6 3h81q9 0 13.5 -2.5t7.5 -9.5l45 -53q10 -12 14.5 -8t15.5 15l54 53v0z" />
    <glyph glyph-name="Dzcaron" unicode="&#x1c5;" horiz-adv-x="1271" 
d="M59 0q-12 0 -18 8t-4 21l97 697q2 10 6 13t15 3h211q121 0 201 -37.5t120 -106t40 -159.5q0 -134 -54 -233t-154 -152.5t-241 -53.5h-219v0zM297 123q87 0 142 42t80.5 115t25.5 169q0 59 -20.5 96.5t-59 55t-95.5 17.5h-60q-16 0 -18 -17l-63 -460q-1 -9 1.5 -13.5
t10.5 -4.5h56zM757 0q-12 0 -15 4t-2 15l5 35q2 13 7 20.5t18 22.5l290 318q6 7 4 12.5t-15 5.5h-214q-10 0 -12 5t-1 15l9 62q2 8 8 11.5t13 3.5h412q13 0 11 -14l-6 -41q-1 -10 -6.5 -17.5t-14.5 -18.5l-293 -321q-7 -8 -3.5 -14t11.5 -6h241q16 0 13 -16l-9 -65
q-1 -7 -4.5 -12t-14.5 -5h-432v0zM1144 738q6 6 10.5 5.5t12.5 -0.5h87q9 0 11 -5.5t-6 -13.5l-124 -114q-5 -4 -10 -6t-15 -2h-73q-12 0 -18.5 5t-10.5 11l-95 112q-4 7 -6 10t6 3h81q9 0 13.5 -2.5t7.5 -9.5l45 -53q10 -12 14.5 -8t15.5 15l54 53v0z" />
    <glyph glyph-name="dzcaron" unicode="&#x1c6;" horiz-adv-x="1128" 
d="M389 0q-8 0 -14.5 4t-5.5 14l5 29q2 8 -2 9t-12 -6q-18 -15 -40 -29t-49.5 -22.5t-61.5 -8.5q-81 0 -131 53.5t-50 158.5q0 65 18 125t52 108.5t81.5 76.5t106.5 28q42 0 70.5 -15.5t51.5 -43.5q8 -8 15 -6t10 25l33 227q1 9 6 12t13 3h122q13 0 11 -24l-100 -699
q-1 -11 -6 -15t-18 -4h-105zM420 395q-18 24 -38 35t-47 11q-43 0 -72 -24.5t-46.5 -63t-26 -80.5t-8.5 -77q0 -39 11.5 -63.5t31 -35.5t45.5 -11q30 0 55.5 14t42.5 35.5t19 43.5zM615 0q-12 0 -15 4t-2 15l5 35q2 13 7 20.5t18 22.5l290 318q6 7 4 12.5t-15 5.5h-214
q-10 0 -12 5t-1 15l9 62q2 8 8 11.5t13 3.5h412q13 0 11 -14l-6 -41q-1 -10 -6.5 -17.5t-14.5 -18.5l-293 -321q-7 -8 -3.5 -14t11.5 -6h241q16 0 13 -16l-9 -65q-1 -7 -4.5 -12t-14.5 -5h-432v0zM1001 738q6 6 10.5 5.5t12.5 -0.5h87q9 0 11 -5.5t-6 -13.5l-124 -114
q-5 -4 -10 -6t-15 -2h-73q-12 0 -18.5 5t-10.5 11l-95 112q-4 7 -6 10t6 3h81q9 0 13.5 -2.5t7.5 -9.5l45 -53q10 -12 14.5 -8t15.5 15l54 53v0z" />
    <glyph glyph-name="LJ" unicode="&#x1c7;" horiz-adv-x="1074" 
d="M134 725q3 17 16 17h148q15 0 10 -22l-80 -577q-3 -15 9 -15h321q16 0 13 -20l-13 -95q-1 -8 -5 -10.5t-13 -2.5h-484q-23 0 -20 25l98 700v0zM999 188q-10 -72 -38.5 -115.5t-76 -63t-115.5 -19.5q-36 0 -66.5 5.5t-53.5 12.5q-15 4 -20 8.5t-4 12.5l25 102q1 9 5 12
t12 1q14 -3 29 -6.5t34 -3.5q42 0 67.5 25t33.5 81l69 488q1 9 4 11.5t11 2.5h147q15 0 11 -22l-74 -532v0z" />
    <glyph glyph-name="Lj" unicode="&#x1c8;" horiz-adv-x="892" 
d="M134 725q3 17 16 17h148q15 0 10 -22l-80 -577q-3 -15 9 -15h321q16 0 13 -20l-13 -95q-1 -8 -5 -10.5t-13 -2.5h-484q-23 0 -20 25l98 700v0zM800 1q-12 -88 -59 -129.5t-141 -41.5q-45 0 -58.5 6t-11.5 19l11 79q1 6 4 10.5t11 6.5l42 5q19 2 32 15.5t18 45.5l70 498
q2 10 5 12.5t11 2.5h122q8 0 12.5 -7t3.5 -15l-72 -507v0zM887 615q-2 -13 -7.5 -17t-19.5 -4h-115q-10 0 -13 8t-1 19l15 101q3 20 18 20h127q7 0 9.5 -7t0.5 -16z" />
    <glyph glyph-name="lj" unicode="&#x1c9;" horiz-adv-x="532" 
d="M176 20q-2 -14 -7 -17t-20 -3h-106q-13 0 -18 7t-4 18l103 702q1 10 3.5 12.5t10.5 2.5h126q13 0 10 -19zM439 1q-12 -88 -59 -129.5t-141 -41.5q-45 0 -58.5 6t-11.5 19l11 79q1 6 4 10.5t11 6.5l42 5q19 2 32 15.5t18 45.5l70 498q2 10 5 12.5t11 2.5h122q8 0 12.5 -7
t3.5 -15l-72 -507v0zM526 615q-2 -13 -7.5 -17t-19.5 -4h-115q-10 0 -13 8t-1 19l15 101q3 20 18 20h127q7 0 9.5 -7t0.5 -16z" />
    <glyph glyph-name="NJ" unicode="&#x1ca;" horiz-adv-x="1207" 
d="M744 742q12 0 10 -15l-101 -716q-1 -11 -16 -11h-102q-7 0 -12 4t-11 12l-258 447q-3 6 -7 5t-6 -11l-62 -441q-1 -10 -5 -13t-15 -3h-110q-9 0 -12 6t-2 16l100 705q2 10 5 12.5t12 2.5h121q11 0 16.5 -4.5t9.5 -14.5l236 -417q5 -9 11.5 -7.5t7.5 11.5l58 419q2 9 5 11
t12 2h115zM1131 188q-10 -72 -38.5 -115.5t-76 -63t-115.5 -19.5q-36 0 -66.5 5.5t-53.5 12.5q-15 4 -20 8.5t-4 12.5l25 102q1 9 5 12t12 1q14 -3 29 -6.5t34 -3.5q42 0 67.5 25t33.5 81l69 488q1 9 4 11.5t11 2.5h147q15 0 11 -22l-74 -532v0z" />
    <glyph glyph-name="Nj" unicode="&#x1cb;" horiz-adv-x="1025" 
d="M744 742q12 0 10 -15l-101 -716q-1 -11 -16 -11h-102q-7 0 -12 4t-11 12l-258 447q-3 6 -7 5t-6 -11l-62 -441q-1 -10 -5 -13t-15 -3h-110q-9 0 -12 6t-2 16l100 705q2 10 5 12.5t12 2.5h121q11 0 16.5 -4.5t9.5 -14.5l236 -417q5 -9 11.5 -7.5t7.5 11.5l58 419q2 9 5 11
t12 2h115zM932 1q-12 -88 -59 -129.5t-141 -41.5q-45 0 -58.5 6t-11.5 19l11 79q1 6 4 10.5t11 6.5l42 5q19 2 32 15.5t18 45.5l70 498q2 10 5 12.5t11 2.5h122q8 0 12.5 -7t3.5 -15l-72 -507v0zM1019 615q-2 -13 -7.5 -17t-19.5 -4h-115q-10 0 -13 8t-1 19l15 101
q3 20 18 20h127q7 0 9.5 -7t0.5 -16z" />
    <glyph glyph-name="nj" unicode="&#x1cc;" horiz-adv-x="861" 
d="M36 0q-10 0 -12.5 7.5t-1.5 17.5l69 491q1 9 4 11.5t10 2.5h128q6 0 8.5 -2.5t0.5 -10.5l-7 -50q-1 -12 10 -2q41 34 85 54.5t90 20.5q68 0 106 -37t38 -97q0 -7 -0.5 -14t-1.5 -14l-50 -358q-2 -12 -7 -16t-18 -4h-115q-11 0 -13 7t-1 18l47 334q1 6 1.5 11t0.5 8
q0 25 -14.5 38t-44.5 13q-22 0 -42.5 -8t-40 -22.5t-40.5 -35.5l-50 -344q-2 -13 -7.5 -16t-19.5 -3h-112v0zM769 1q-12 -88 -59 -129.5t-141 -41.5q-45 0 -58.5 6t-11.5 19l11 79q1 6 4 10.5t11 6.5l42 5q19 2 32 15.5t18 45.5l70 498q2 10 5 12.5t11 2.5h122q8 0 12.5 -7
t3.5 -15l-72 -507v0zM856 615q-2 -13 -7.5 -17t-19.5 -4h-115q-10 0 -13 8t-1 19l15 101q3 20 18 20h127q7 0 9.5 -7t0.5 -16z" />
    <glyph glyph-name="uni01EA" unicode="&#x1ea;" horiz-adv-x="774" 
d="M355 -10q-95 0 -162 36.5t-102.5 105.5t-35.5 165q0 18 1 38.5t4 41.5q17 117 70 201t135 129t185 45q93 0 160 -37.5t102.5 -107.5t35.5 -167q0 -18 -1 -38t-5 -41q-16 -116 -68.5 -199t-134 -127.5t-184.5 -44.5v0zM360 113q85 0 133.5 62.5t67.5 199.5q4 29 6 53.5
t2 45.5q0 81 -30 118.5t-93 37.5q-84 0 -134.5 -65.5t-70.5 -206.5q-4 -27 -6 -50.5t-2 -43.5q0 -79 31.5 -115t95.5 -36v0zM237 -80q2 17 12 31.5t32.5 28.5t63.5 28l112 -6q-57 -19 -81.5 -38t-26.5 -42q-2 -13 5 -20.5t23 -7.5q22 0 37.5 6t27.5 11q7 4 11 0.5t3 -12.5
l-6 -42q-1 -6 -3.5 -11t-7.5 -6q-15 -5 -40.5 -9t-55.5 -4q-55 0 -83.5 24t-22.5 69v0z" />
    <glyph glyph-name="uni01EB" unicode="&#x1eb;" horiz-adv-x="599" 
d="M266 -10q-73 0 -126.5 29.5t-82.5 82t-29 121.5q0 70 24.5 128.5t66.5 100.5t97.5 65t116.5 23q73 0 126.5 -30.5t82 -84t28.5 -123.5q0 -89 -40 -160t-109 -111.5t-155 -40.5v0zM270 92q41 0 74.5 27.5t53.5 81t20 131.5q0 54 -22 81.5t-65 27.5q-41 0 -75 -28t-54 -82
t-20 -132q0 -53 22 -80t66 -27v0zM137 -80q2 17 12 31.5t32.5 28.5t63.5 28l112 -6q-57 -19 -81.5 -38t-26.5 -42q-2 -13 5 -20.5t23 -7.5q22 0 37.5 6t27.5 11q7 4 11 0.5t3 -12.5l-6 -42q-1 -6 -3.5 -11t-7.5 -6q-15 -5 -40.5 -9t-55.5 -4q-55 0 -83.5 24t-22.5 69v0z" />
    <glyph glyph-name="DZ" unicode="&#x1f1;" horiz-adv-x="1381" 
d="M59 0q-12 0 -18 8t-4 21l97 697q2 10 6 13t15 3h211q121 0 201 -37.5t120 -106t40 -159.5q0 -134 -54 -233t-154 -152.5t-241 -53.5h-219v0zM297 123q87 0 142 42t80.5 115t25.5 169q0 59 -20.5 96.5t-59 55t-95.5 17.5h-60q-16 0 -18 -17l-63 -460q-1 -9 1.5 -13.5
t10.5 -4.5h56zM720 0q-12 0 -17 4.5t-4 16.5l5 40q2 11 5.5 19t14.5 21l412 502q6 7 6.5 8.5t-7.5 1.5h-306q-20 0 -17 24l13 93q2 8 4.5 10t8.5 2h557q14 0 12 -18l-7 -44q-1 -9 -3.5 -15t-10.5 -17l-424 -510q-8 -8 2 -8h340q9 0 12 -2.5t1 -11.5l-15 -103q-1 -7 -4 -10
t-13 -3h-565v0z" />
    <glyph glyph-name="Dz" unicode="&#x1f2;" horiz-adv-x="1203" 
d="M59 0q-12 0 -18 8t-4 21l97 697q2 10 6 13t15 3h211q121 0 201 -37.5t120 -106t40 -159.5q0 -134 -54 -233t-154 -152.5t-241 -53.5h-219v0zM297 123q87 0 142 42t80.5 115t25.5 169q0 59 -20.5 96.5t-59 55t-95.5 17.5h-60q-16 0 -18 -17l-63 -460q-1 -9 1.5 -13.5
t10.5 -4.5h56zM689 0q-12 0 -15 4t-2 15l5 35q2 13 7 20.5t18 22.5l290 318q6 7 4 12.5t-15 5.5h-214q-10 0 -12 5t-1 15l9 62q2 8 8 11.5t13 3.5h412q13 0 11 -14l-6 -41q-1 -10 -6.5 -17.5t-14.5 -18.5l-293 -321q-7 -8 -3.5 -14t11.5 -6h241q16 0 13 -16l-9 -65
q-1 -7 -4.5 -12t-14.5 -5h-432v0z" />
    <glyph glyph-name="dz" unicode="&#x1f3;" horiz-adv-x="1128" 
d="M389 0q-8 0 -14.5 4t-5.5 14l5 29q2 8 -2 9t-12 -6q-18 -15 -40 -29t-49.5 -22.5t-61.5 -8.5q-81 0 -131 53.5t-50 158.5q0 65 18 125t52 108.5t81.5 76.5t106.5 28q42 0 70.5 -15.5t51.5 -43.5q8 -8 15 -6t10 25l33 227q1 9 6 12t13 3h122q13 0 11 -24l-100 -699
q-1 -11 -6 -15t-18 -4h-105zM420 395q-18 24 -38 35t-47 11q-43 0 -72 -24.5t-46.5 -63t-26 -80.5t-8.5 -77q0 -39 11.5 -63.5t31 -35.5t45.5 -11q30 0 55.5 14t42.5 35.5t19 43.5zM615 0q-12 0 -15 4t-2 15l5 35q2 13 7 20.5t18 22.5l290 318q6 7 4 12.5t-15 5.5h-214
q-10 0 -12 5t-1 15l9 62q2 8 8 11.5t13 3.5h412q13 0 11 -14l-6 -41q-1 -10 -6.5 -17.5t-14.5 -18.5l-293 -321q-7 -8 -3.5 -14t11.5 -6h241q16 0 13 -16l-9 -65q-1 -7 -4.5 -12t-14.5 -5h-432v0z" />
    <glyph glyph-name="Gacute" unicode="&#x1f4;" horiz-adv-x="752" 
d="M345 -10q-91 0 -156.5 38t-100 107.5t-34.5 163.5q0 93 28 175t80 144.5t124.5 98t162.5 35.5q84 0 144.5 -32t94 -82t34.5 -106q0 -19 -7 -20l-137 -20q-5 -1 -7.5 4.5t-5.5 20.5q-3 31 -17.5 56.5t-40.5 40.5t-65 15q-57 0 -96 -32t-64 -84t-36.5 -115t-11.5 -124
q0 -88 34 -124.5t94 -36.5q33 0 60 10t47 27t34.5 38t23.5 42l6 28q7 13 -9 13h-123q-10 0 -9 13l9 82q1 11 10 11l286 -1q12 0 15.5 -3.5t1.5 -13.5l-49 -346q-2 -13 -16 -13h-30q-16 0 -21 15l-17 72q-3 7 -8 6t-12 -8q-18 -22 -47.5 -44t-70.5 -36.5t-98 -14.5v0z
M608 883q2 -9 -0.5 -14.5t-14.5 -8.5l-240 -62q-11 -3 -16.5 2t-7.5 13l-7 35q-3 14 4 17l249 97q6 3 10.5 0.5t7.5 -12.5z" />
    <glyph glyph-name="gacute" unicode="&#x1f5;" horiz-adv-x="633" 
d="M221 -174q-121 0 -190 31t-69 87q0 40 31 65.5t74 40.5q10 3 12 8t-8 8q-22 10 -33.5 25t-11.5 39q0 26 16.5 45t41 32.5t47.5 20.5q11 4 13.5 8.5t-7.5 8.5q-36 15 -56 43.5t-20 67.5q0 48 21.5 82t57.5 56.5t80.5 33t91.5 10.5q72 0 112.5 -15.5t60.5 -34.5q7 -6 16 0
t16 14q15 16 35 27t40 17.5t34 6.5q11 0 17 -3.5t5 -15.5l-10 -68q-1 -14 -5.5 -18.5t-13.5 -3.5q-15 0 -31 -0.5t-24 -2.5q-34 -4 -25 -25q3 -6 4.5 -14.5t1.5 -20.5q0 -47 -24 -79.5t-62.5 -53t-83.5 -30t-88 -9.5q-8 0 -27 -1t-40.5 -5t-37 -12t-15.5 -22q0 -9 13.5 -13
t42.5 -6l142 -8q94 -6 137 -42t43 -96q0 -43 -19.5 -74t-53 -51t-75.5 -31.5t-87.5 -16.5t-88.5 -5v0zM229 -101q40 0 73 5.5t56 15t36 25t13 36.5t-16 30.5t-54 11.5l-152 8q-19 -2 -41 -10.5t-37.5 -23t-15.5 -36.5q0 -31 33.5 -46.5t104.5 -15.5v0zM291 285q31 0 57.5 12
t42.5 36.5t16 58.5q0 31 -23.5 50t-69.5 19q-31 0 -57.5 -14t-43 -38.5t-16.5 -57.5q0 -29 25.5 -47.5t68.5 -18.5v0zM497 671q2 -9 -0.5 -14.5t-14.5 -8.5l-240 -62q-11 -3 -16.5 2t-7.5 13l-7 35q-3 14 4 17l249 97q6 3 10.5 0.5t7.5 -12.5z" />
    <glyph glyph-name="Aringacute" unicode="&#x1fa;" horiz-adv-x="689" 
d="M529 789q-6 -42 -38.5 -67.5t-75.5 -25.5q-47 0 -75.5 31.5t-21.5 80.5q5 41 38.5 66t74.5 25q48 0 76.5 -31.5t21.5 -78.5v0zM475 805q2 20 -9 31t-30 11q-23 0 -43 -17t-24 -42q-2 -17 10 -30t30 -13q24 0 43 18.5t23 41.5v0zM486 742q11 0 19 -8t9 -18l139 -693
q1 -8 -1 -15.5t-11 -7.5h-147q-7 0 -12.5 5t-5.5 13l-28 146q-1 5 -2.5 6t-8.5 1h-228q-6 0 -10.5 -5t-6.5 -9l-71 -148q-3 -6 -6.5 -7.5t-12.5 -1.5h-115q-9 0 -13.5 10t0.5 23l337 693q4 11 8.5 13.5t16.5 2.5h150zM381 559q-1 6 -5.5 2t-7.5 -11l-112 -233
q-4 -8 -4 -10.5t7 -2.5h151q7 0 12 6t4 15zM495 964q10 0 14 -9.5t0 -19.5l-36 -60h-74l25 67q5 16 12.5 19t19.5 3h39z" />
    <glyph glyph-name="aringacute" unicode="&#x1fb;" horiz-adv-x="563" 
d="M321 49q-32 -31 -74.5 -45t-89.5 -14q-71 0 -110.5 36.5t-39.5 93.5t29.5 95.5t76 62.5t102 35t106.5 12l36 3q19 0 22 19l3 21q1 4 1 8.5v7.5q0 30 -18 45t-51 15q-32 0 -63 -13t-54 -49q-3 -5 -7.5 -6.5t-14.5 0.5l-97 23q-6 2 -9.5 9t4.5 24q33 56 97 82t152 26
q75 0 121 -18t67 -50t21 -75q0 -7 -0.5 -14t-1.5 -15l-50 -350q-1 -13 -4 -15.5t-14 -2.5h-103q-10 0 -13 7t-4 19l1 26q-2 18 -21 -3v0zM364 241q1 8 -0.5 10.5t-9.5 1.5l-36 -3q-21 -1 -48 -7t-52 -17.5t-41.5 -31.5t-16.5 -50q0 -23 17 -38t48 -15q28 0 50.5 8t38.5 20
q17 13 28 27.5t13 29.5zM480 877q2 -9 -0.5 -14.5t-14.5 -8.5l-240 -62q-11 -3 -16.5 2t-7.5 13l-7 35q-3 14 4 17l249 97q6 3 10.5 0.5t7.5 -12.5zM432 668q-7 -45 -41.5 -74.5t-78.5 -29.5q-33 0 -57.5 16.5t-36.5 44.5t-8 62q6 42 41 70.5t79 28.5q33 0 57.5 -16
t37 -42.5t7.5 -59.5v0zM372 684q3 19 -8.5 30.5t-30.5 11.5q-22 0 -42.5 -17t-24.5 -42q-1 -18 10.5 -31t29.5 -13q24 0 43 18.5t23 42.5v0z" />
    <glyph glyph-name="AEacute" unicode="&#x1fc;" horiz-adv-x="1077" 
d="M999 128q9 0 14 -5t4 -15l-13 -95q-1 -7 -4.5 -10t-13.5 -3h-496q-12 0 -17.5 7t-4.5 18l20 139q0 6 -0.5 6.5t-6.5 0.5h-216q-6 0 -11.5 -4.5t-7.5 -9.5l-100 -148q-6 -9 -22 -9h-115q-9 0 -13 10t4 23l470 693q6 11 11.5 13.5t16.5 2.5h579q8 0 12.5 -6.5t2.5 -15.5
l-13 -90q-1 -9 -5 -12.5t-15 -3.5h-311q-10 0 -17 -6t-9 -15l-19 -144q-1 -9 1 -11t9 -2h205q9 0 14.5 -6t3.5 -14l-14 -96q-1 -6 -2.5 -8t-10.5 -2h-209q-6 0 -12 -5.5t-7 -11.5l-22 -157q-1 -7 -0.5 -7.5t6.5 -0.5h334v0zM488 304q8 0 15 6.5t7 14.5l36 256q3 19 -8 15.5
t-23 -23.5l-175 -256q-6 -8 -7.5 -10.5t5.5 -2.5h150v0zM935 883q2 -9 -0.5 -14.5t-14.5 -8.5l-240 -62q-11 -3 -16.5 2t-7.5 13l-7 35q-3 14 4 17l249 97q6 3 10.5 0.5t7.5 -12.5z" />
    <glyph glyph-name="aeacute" unicode="&#x1fd;" horiz-adv-x="918" 
d="M537 236q-8 0 -14.5 -7t-8.5 -21q-5 -33 8 -58.5t39.5 -40t61.5 -14.5q29 0 52 8.5t45 25.5t44 39q5 2 7.5 -0.5t10.5 -5.5l66 -31q6 -2 9 -9t-3 -17q-37 -43 -75.5 -68t-82 -36t-96.5 -11q-49 0 -86.5 14t-64 36t-44.5 48q-3 0 -7 -4.5t-6 -8.5q-30 -26 -63.5 -45.5
t-74 -29.5t-90.5 -10q-86 0 -125.5 44t-29.5 115q11 76 84 122t212 53l48 4q7 0 15.5 5t9.5 14l3 21q5 38 -12 57t-58 19q-31 0 -62 -15.5t-54 -51.5q-5 -6 -8 -4.5t-13 3.5l-97 23q-5 2 -7 12.5t2 20.5q25 36 57 60t78 36t111 12q72 -1 114.5 -17.5t60.5 -45.5
q38 33 81.5 48t89.5 15q77 0 132 -34.5t80.5 -99t12.5 -155.5q-1 -9 -3 -11.5t-14 -3.5h-335v0zM668 446q-31 0 -60.5 -15.5t-49.5 -44.5t-26 -70l196 4q10 0 16 5.5t7 17.5q4 23 -4 47t-27.5 40t-51.5 16v0zM362 235q2 8 -0.5 10t-11.5 2l-38 -3q-35 -2 -69 -15
t-56.5 -34.5t-27.5 -52.5q-4 -26 13 -42t54 -15q31 1 58.5 12.5t46.5 30.5t22 41l9 66v0zM652 671q2 -9 -0.5 -14.5t-14.5 -8.5l-240 -62q-11 -3 -16.5 2t-7.5 13l-7 35q-3 14 4 17l249 97q6 3 10.5 0.5t7.5 -12.5z" />
    <glyph glyph-name="Oslashacute" unicode="&#x1fe;" horiz-adv-x="764" 
d="M808 695q4 -5 6 -11t-4 -12l-95 -82q20 -44 26.5 -101.5t-4.5 -127.5q-16 -116 -68.5 -199t-134 -127.5t-184.5 -44.5q-72 0 -126.5 21.5t-90.5 59.5l-73 -70q-11 -10 -18.5 -7t-16.5 13l-28 33q-9 9 -11.5 16t5.5 14l87 75q-19 46 -26 104t3 128q17 117 70 201t135 129
t185 45q71 0 126 -22.5t92 -62.5l80 76q7 7 13.5 5t10.5 -7l41 -46v0zM237 358q-3 -22 -3.5 -42.5t1.5 -38.5l312 291q-14 34 -41 48t-66 14q-84 0 -133.5 -65.5t-69.5 -206.5v0zM556 375q3 23 3 44.5t-3 38.5l-310 -289q15 -30 42.5 -42.5t66.5 -12.5q85 0 133.5 62
t67.5 199v0zM610 883q2 -9 -0.5 -14.5t-14.5 -8.5l-240 -62q-11 -3 -16.5 2t-7.5 13l-7 35q-3 14 4 17l249 97q6 3 10.5 0.5t7.5 -12.5z" />
    <glyph glyph-name="oslashacute" unicode="&#x1ff;" horiz-adv-x="596" 
d="M48 7q-11 -9 -19 -6.5t-15 12.5l-15 18q-7 9 -9.5 16.5t6.5 14.5l553 462q10 7 16 5t10 -7l25 -30q4 -5 6.5 -11t-5.5 -12zM258 -10q-73 0 -126.5 29.5t-82.5 82t-29 121.5q0 70 24.5 128.5t66.5 100.5t97 65t117 23q73 0 126.5 -30.5t82 -84t28.5 -123.5q0 -89 -40 -160
t-109 -111.5t-155 -40.5v0zM261 92q42 0 75.5 27.5t53.5 81t20 131.5q0 54 -22 81.5t-65 27.5q-41 0 -75 -28t-54.5 -82t-20.5 -132q0 -53 22.5 -80t65.5 -27v0zM496 671q2 -9 -0.5 -14.5t-14.5 -8.5l-240 -62q-11 -3 -16.5 2t-7.5 13l-7 35q-3 14 4 17l249 97q6 3 10.5 0.5
t7.5 -12.5z" />
    <glyph glyph-name="uni0200" unicode="&#x200;" horiz-adv-x="771" 
d="M4 0q-9 0 -10 8t7 25l347 693q6 11 13.5 13.5t18.5 2.5h150q11 0 16 -8t6 -18l150 -693q2 -8 -1 -15.5t-12 -7.5h-146q-14 0 -17 18l-31 145q-1 8 -12 8h-242q-11 0 -17 -12l-76 -150q-2 -6 -5.5 -7.5t-12.5 -1.5h-126v0zM461 304q15 0 11 17l-52 231q-1 10 -5.5 10
t-9.5 -10l-116 -233q-4 -10 -2.5 -12.5t8.5 -2.5h166zM290 957q6 5 12.5 4t9.5 -5l116 -125q4 -3 5.5 -8.5t-4.5 -11.5l-31 -29q-6 -5 -11.5 -3t-13.5 8l-125 92q-22 14 -9 27l51 51v0zM486 957q6 5 12.5 4t9.5 -5l116 -125q5 -3 6 -9t-5 -11l-31 -29q-5 -5 -10.5 -3
t-13.5 8l-126 92q-22 14 -8 28l50 50v0z" />
    <glyph glyph-name="uni0201" unicode="&#x201;" horiz-adv-x="563" 
d="M321 49q-32 -31 -74.5 -45t-89.5 -14q-71 0 -110.5 36.5t-39.5 93.5t29.5 95.5t76 62.5t102 35t106.5 12l36 3q19 0 22 19l3 21q1 4 1 8.5v7.5q0 30 -18 45t-51 15q-32 0 -63 -13t-54 -49q-3 -5 -7.5 -6.5t-14.5 0.5l-97 23q-6 2 -9.5 9t4.5 24q33 56 97 82t152 26
q75 0 121 -18t67 -50t21 -75q0 -7 -0.5 -14t-1.5 -15l-50 -350q-1 -13 -4 -15.5t-14 -2.5h-103q-10 0 -13 7t-4 19l1 26q-2 18 -21 -3v0zM364 241q1 8 -0.5 10.5t-9.5 1.5l-36 -3q-21 -1 -48 -7t-52 -17.5t-41.5 -31.5t-16.5 -50q0 -23 17 -38t48 -15q28 0 50.5 8t38.5 20
q17 13 28 27.5t13 29.5zM166 745q6 5 12.5 4t9.5 -5l116 -125q4 -3 5.5 -8.5t-4.5 -11.5l-31 -29q-6 -5 -11.5 -3t-13.5 8l-125 92q-22 14 -9 27l51 51v0zM362 745q6 5 12.5 4t9.5 -5l116 -125q5 -3 6 -9t-5 -11l-31 -29q-5 -5 -10.5 -3t-13.5 8l-126 92q-22 14 -8 28l50 50
v0z" />
    <glyph glyph-name="uni0202" unicode="&#x202;" horiz-adv-x="771" 
d="M4 0q-9 0 -10 8t7 25l347 693q6 11 13.5 13.5t18.5 2.5h150q11 0 16 -8t6 -18l150 -693q2 -8 -1 -15.5t-12 -7.5h-146q-14 0 -17 18l-31 145q-1 8 -12 8h-242q-11 0 -17 -12l-76 -150q-2 -6 -5.5 -7.5t-12.5 -1.5h-126v0zM461 304q15 0 11 17l-52 231q-1 10 -5.5 10
t-9.5 -10l-116 -233q-4 -10 -2.5 -12.5t8.5 -2.5h166zM307 821q-9 0 -12 8.5t1 17.5q17 34 45 58t63.5 36.5t76.5 12.5q44 0 80.5 -12t59.5 -37t29 -64q2 -8 -0.5 -14t-13.5 -6h-61q-7 0 -10 6t-9 14q-7 10 -17.5 18.5t-24.5 14t-32 5.5q-28 0 -53.5 -12.5t-40.5 -34.5
q-4 -7 -9.5 -9t-10.5 -2h-61v0z" />
    <glyph glyph-name="uni0203" unicode="&#x203;" horiz-adv-x="563" 
d="M321 49q-32 -31 -74.5 -45t-89.5 -14q-71 0 -110.5 36.5t-39.5 93.5t29.5 95.5t76 62.5t102 35t106.5 12l36 3q19 0 22 19l3 21q1 4 1 8.5v7.5q0 30 -18 45t-51 15q-32 0 -63 -13t-54 -49q-3 -5 -7.5 -6.5t-14.5 0.5l-97 23q-6 2 -9.5 9t4.5 24q33 56 97 82t152 26
q75 0 121 -18t67 -50t21 -75q0 -7 -0.5 -14t-1.5 -15l-50 -350q-1 -13 -4 -15.5t-14 -2.5h-103q-10 0 -13 7t-4 19l1 26q-2 18 -21 -3v0zM364 241q1 8 -0.5 10.5t-9.5 1.5l-36 -3q-21 -1 -48 -7t-52 -17.5t-41.5 -31.5t-16.5 -50q0 -23 17 -38t48 -15q28 0 50.5 8t38.5 20
q17 13 28 27.5t13 29.5zM183 609q-9 0 -12 8.5t1 17.5q17 34 45 58t63.5 36.5t76.5 12.5q44 0 80.5 -12t59.5 -37t29 -64q2 -8 -0.5 -14t-13.5 -6h-61q-7 0 -10 6t-9 14q-7 10 -17.5 18.5t-24.5 14t-32 5.5q-28 0 -53.5 -12.5t-40.5 -34.5q-4 -7 -9.5 -9t-10.5 -2h-61v0z
" />
    <glyph glyph-name="uni0204" unicode="&#x204;" horiz-adv-x="654" 
d="M135 727q2 10 4.5 12.5t10.5 2.5h507q16 0 12 -22l-13 -89q-1 -10 -5.5 -13.5t-15.5 -3.5h-327q-7 0 -10.5 -3t-5.5 -12l-21 -150q-1 -8 1 -10.5t8 -2.5h219q9 0 11 -3.5t1 -10.5l-14 -101q-1 -11 -14 -11h-221q-11 0 -13 -14l-22 -156q-1 -12 7 -12h347q9 0 11.5 -3
t0.5 -12l-13 -100q-1 -7 -4 -10t-13 -3h-507q-23 0 -20 25l99 702v0zM247 957q6 5 12.5 4t9.5 -5l116 -125q4 -3 5.5 -8.5t-4.5 -11.5l-31 -29q-6 -5 -11.5 -3t-13.5 8l-125 92q-22 14 -9 27l51 51v0zM443 957q6 5 12.5 4t9.5 -5l116 -125q5 -3 6 -9t-5 -11l-31 -29
q-5 -5 -10.5 -3t-13.5 8l-126 92q-22 14 -8 28l50 50v0z" />
    <glyph glyph-name="uni0205" unicode="&#x205;" horiz-adv-x="586" 
d="M269 -10q-72 0 -126 29.5t-84.5 81.5t-30.5 121q0 62 22.5 118.5t63 102t96 71.5t122.5 26q69 0 120.5 -27.5t80 -79.5t28.5 -126q0 -13 -1 -27t-3 -29q-1 -8 -6 -11.5t-17 -3.5h-337q-10 0 -13 -13t-3 -30q0 -48 31 -73t79 -25q38 0 71 15.5t65 50.5q5 5 10.5 4.5
t12.5 -3.5l66 -31q20 -9 7 -26q-40 -44 -78.5 -69.5t-81 -35.5t-94.5 -10v0zM396 316q10 0 17 8.5t7 30.5q0 36 -21.5 63.5t-65.5 27.5q-33 0 -62 -17t-48 -46.5t-23 -66.5h196zM178 745q6 5 12.5 4t9.5 -5l116 -125q4 -3 5.5 -8.5t-4.5 -11.5l-31 -29q-6 -5 -11.5 -3
t-13.5 8l-125 92q-22 14 -9 27l51 51v0zM374 745q6 5 12.5 4t9.5 -5l116 -125q5 -3 6 -9t-5 -11l-31 -29q-5 -5 -10.5 -3t-13.5 8l-126 92q-22 14 -8 28l50 50v0z" />
    <glyph glyph-name="uni0206" unicode="&#x206;" horiz-adv-x="654" 
d="M135 727q2 10 4.5 12.5t10.5 2.5h507q16 0 12 -22l-13 -89q-1 -10 -5.5 -13.5t-15.5 -3.5h-327q-7 0 -10.5 -3t-5.5 -12l-21 -150q-1 -8 1 -10.5t8 -2.5h219q9 0 11 -3.5t1 -10.5l-14 -101q-1 -11 -14 -11h-221q-11 0 -13 -14l-22 -156q-1 -12 7 -12h347q9 0 11.5 -3
t0.5 -12l-13 -100q-1 -7 -4 -10t-13 -3h-507q-23 0 -20 25l99 702v0zM264 821q-9 0 -12 8.5t1 17.5q17 34 45 58t63.5 36.5t76.5 12.5q44 0 80.5 -12t59.5 -37t29 -64q2 -8 -0.5 -14t-13.5 -6h-61q-7 0 -10 6t-9 14q-7 10 -17.5 18.5t-24.5 14t-32 5.5q-28 0 -53.5 -12.5
t-40.5 -34.5q-4 -7 -9.5 -9t-10.5 -2h-61v0z" />
    <glyph glyph-name="uni0207" unicode="&#x207;" horiz-adv-x="586" 
d="M269 -10q-72 0 -126 29.5t-84.5 81.5t-30.5 121q0 62 22.5 118.5t63 102t96 71.5t122.5 26q69 0 120.5 -27.5t80 -79.5t28.5 -126q0 -13 -1 -27t-3 -29q-1 -8 -6 -11.5t-17 -3.5h-337q-10 0 -13 -13t-3 -30q0 -48 31 -73t79 -25q38 0 71 15.5t65 50.5q5 5 10.5 4.5
t12.5 -3.5l66 -31q20 -9 7 -26q-40 -44 -78.5 -69.5t-81 -35.5t-94.5 -10v0zM396 316q10 0 17 8.5t7 30.5q0 36 -21.5 63.5t-65.5 27.5q-33 0 -62 -17t-48 -46.5t-23 -66.5h196zM195 609q-9 0 -12 8.5t1 17.5q17 34 45 58t63.5 36.5t76.5 12.5q44 0 80.5 -12t59.5 -37
t29 -64q2 -8 -0.5 -14t-13.5 -6h-61q-7 0 -10 6t-9 14q-7 10 -17.5 18.5t-24.5 14t-32 5.5q-28 0 -53.5 -12.5t-40.5 -34.5q-4 -7 -9.5 -9t-10.5 -2h-61v0z" />
    <glyph glyph-name="uni0208" unicode="&#x208;" horiz-adv-x="315" 
d="M296 742q15 0 12 -22l-98 -700q-1 -14 -6.5 -17t-19.5 -3h-131q-13 0 -15.5 7t-1.5 18l99 702q2 10 5 12.5t10 2.5h146zM67 957q6 5 12.5 4t9.5 -5l116 -125q4 -3 5.5 -8.5t-4.5 -11.5l-31 -29q-6 -5 -11.5 -3t-13.5 8l-125 92q-22 14 -9 27l51 51v0zM263 957q6 5 12.5 4
t9.5 -5l116 -125q5 -3 6 -9t-5 -11l-31 -29q-5 -5 -10.5 -3t-13.5 8l-126 92q-22 14 -8 28l50 50v0z" />
    <glyph glyph-name="uni0209" unicode="&#x209;" horiz-adv-x="265" 
d="M175 20q-2 -14 -7 -17t-19 -3h-106q-13 0 -17.5 7t-3.5 18l69 490q1 10 4 12.5t10 2.5h123q7 0 12 -7t4 -15zM10 745q6 5 12.5 4t9.5 -5l116 -125q4 -3 5.5 -8.5t-4.5 -11.5l-31 -29q-6 -5 -11.5 -3t-13.5 8l-125 92q-22 14 -9 27l51 51v0zM206 745q6 5 12.5 4t9.5 -5
l116 -125q5 -3 6 -9t-5 -11l-31 -29q-5 -5 -10.5 -3t-13.5 8l-126 92q-22 14 -8 28l50 50v0z" />
    <glyph glyph-name="uni020A" unicode="&#x20a;" horiz-adv-x="315" 
d="M296 742q15 0 12 -22l-98 -700q-1 -14 -6.5 -17t-19.5 -3h-131q-13 0 -15.5 7t-1.5 18l99 702q2 10 5 12.5t10 2.5h146zM84 821q-9 0 -12 8.5t1 17.5q17 34 45 58t63.5 36.5t76.5 12.5q44 0 80.5 -12t59.5 -37t29 -64q2 -8 -0.5 -14t-13.5 -6h-61q-7 0 -10 6t-9 14
q-7 10 -17.5 18.5t-24.5 14t-32 5.5q-28 0 -53.5 -12.5t-40.5 -34.5q-4 -7 -9.5 -9t-10.5 -2h-61v0z" />
    <glyph glyph-name="uni020B" unicode="&#x20b;" horiz-adv-x="265" 
d="M175 20q-2 -14 -7 -17t-19 -3h-106q-13 0 -17.5 7t-3.5 18l69 490q1 10 4 12.5t10 2.5h123q7 0 12 -7t4 -15zM28 609q-9 0 -12 8.5t1 17.5q17 34 45 58t63.5 36.5t76.5 12.5q44 0 80.5 -12t59.5 -37t29 -64q2 -8 -0.5 -14t-13.5 -6h-61q-7 0 -10 6t-9 14
q-7 10 -17.5 18.5t-24.5 14t-32 5.5q-28 0 -53.5 -12.5t-40.5 -34.5q-4 -7 -9.5 -9t-10.5 -2h-61v0z" />
    <glyph glyph-name="uni020C" unicode="&#x20c;" horiz-adv-x="774" 
d="M355 -10q-95 0 -162 36.5t-102.5 105.5t-35.5 165q0 18 1 38.5t4 41.5q17 117 70 201t135 129t185 45q93 0 160 -37.5t102.5 -107.5t35.5 -167q0 -18 -1 -38t-5 -41q-16 -116 -68.5 -199t-134 -127.5t-184.5 -44.5v0zM360 113q85 0 133.5 62.5t67.5 199.5q4 29 6 53.5
t2 45.5q0 81 -30 118.5t-93 37.5q-84 0 -134.5 -65.5t-70.5 -206.5q-4 -27 -6 -50.5t-2 -43.5q0 -79 31.5 -115t95.5 -36v0zM295 957q6 5 12.5 4t9.5 -5l116 -125q4 -3 5.5 -8.5t-4.5 -11.5l-31 -29q-6 -5 -11.5 -3t-13.5 8l-125 92q-22 14 -9 27l51 51v0zM491 957
q6 5 12.5 4t9.5 -5l116 -125q5 -3 6 -9t-5 -11l-31 -29q-5 -5 -10.5 -3t-13.5 8l-126 92q-22 14 -8 28l50 50v0z" />
    <glyph glyph-name="uni020D" unicode="&#x20d;" horiz-adv-x="599" 
d="M266 -10q-73 0 -126.5 29.5t-82.5 82t-29 121.5q0 70 24.5 128.5t66.5 100.5t97.5 65t116.5 23q73 0 126.5 -30.5t82 -84t28.5 -123.5q0 -89 -40 -160t-109 -111.5t-155 -40.5v0zM270 92q41 0 74.5 27.5t53.5 81t20 131.5q0 54 -22 81.5t-65 27.5q-41 0 -75 -28t-54 -82
t-20 -132q0 -53 22 -80t66 -27v0zM178 745q6 5 12.5 4t9.5 -5l116 -125q4 -3 5.5 -8.5t-4.5 -11.5l-31 -29q-6 -5 -11.5 -3t-13.5 8l-125 92q-22 14 -9 27l51 51v0zM374 745q6 5 12.5 4t9.5 -5l116 -125q5 -3 6 -9t-5 -11l-31 -29q-5 -5 -10.5 -3t-13.5 8l-126 92
q-22 14 -8 28l50 50v0z" />
    <glyph glyph-name="uni020E" unicode="&#x20e;" horiz-adv-x="774" 
d="M355 -10q-95 0 -162 36.5t-102.5 105.5t-35.5 165q0 18 1 38.5t4 41.5q17 117 70 201t135 129t185 45q93 0 160 -37.5t102.5 -107.5t35.5 -167q0 -18 -1 -38t-5 -41q-16 -116 -68.5 -199t-134 -127.5t-184.5 -44.5v0zM360 113q85 0 133.5 62.5t67.5 199.5q4 29 6 53.5
t2 45.5q0 81 -30 118.5t-93 37.5q-84 0 -134.5 -65.5t-70.5 -206.5q-4 -27 -6 -50.5t-2 -43.5q0 -79 31.5 -115t95.5 -36v0zM312 821q-9 0 -12 8.5t1 17.5q17 34 45 58t63.5 36.5t76.5 12.5q44 0 80.5 -12t59.5 -37t29 -64q2 -8 -0.5 -14t-13.5 -6h-61q-7 0 -10 6t-9 14
q-7 10 -17.5 18.5t-24.5 14t-32 5.5q-28 0 -53.5 -12.5t-40.5 -34.5q-4 -7 -9.5 -9t-10.5 -2h-61v0z" />
    <glyph glyph-name="uni020F" unicode="&#x20f;" horiz-adv-x="599" 
d="M266 -10q-73 0 -126.5 29.5t-82.5 82t-29 121.5q0 70 24.5 128.5t66.5 100.5t97.5 65t116.5 23q73 0 126.5 -30.5t82 -84t28.5 -123.5q0 -89 -40 -160t-109 -111.5t-155 -40.5v0zM270 92q41 0 74.5 27.5t53.5 81t20 131.5q0 54 -22 81.5t-65 27.5q-41 0 -75 -28t-54 -82
t-20 -132q0 -53 22 -80t66 -27v0zM195 609q-9 0 -12 8.5t1 17.5q17 34 45 58t63.5 36.5t76.5 12.5q44 0 80.5 -12t59.5 -37t29 -64q2 -8 -0.5 -14t-13.5 -6h-61q-7 0 -10 6t-9 14q-7 10 -17.5 18.5t-24.5 14t-32 5.5q-28 0 -53.5 -12.5t-40.5 -34.5q-4 -7 -9.5 -9t-10.5 -2
h-61v0z" />
    <glyph glyph-name="uni0210" unicode="&#x210;" horiz-adv-x="722" 
d="M637 23q8 -23 -14 -23h-147q-8 0 -13.5 5t-7.5 16l-69 281q-1 6 -4 8t-12 2h-106q-12 0 -14 -12l-40 -281q-1 -13 -7.5 -16t-20.5 -3h-127q-13 0 -16.5 7.5t-2.5 17.5l99 702q2 10 4.5 12.5t10.5 2.5h312q124 0 191 -47t67 -133q0 -51 -20 -95.5t-55.5 -78t-84.5 -50.5
q-10 -4 -12.5 -7.5t-1.5 -8.5l91 -299v0zM401 430q42 0 73 15t48 42t17 64t-26.5 55.5t-71.5 18.5h-133q-12 0 -15 -17l-24 -165q-1 -8 2 -10.5t8 -2.5h122v0zM233 957q6 5 12.5 4t9.5 -5l116 -125q4 -3 5.5 -8.5t-4.5 -11.5l-31 -29q-6 -5 -11.5 -3t-13.5 8l-125 92
q-22 14 -9 27l51 51v0zM429 957q6 5 12.5 4t9.5 -5l116 -125q5 -3 6 -9t-5 -11l-31 -29q-5 -5 -10.5 -3t-13.5 8l-126 92q-22 14 -8 28l50 50v0z" />
    <glyph glyph-name="uni0211" unicode="&#x211;" horiz-adv-x="426" 
d="M43 0q-12 0 -17 7.5t-4 17.5l69 491q1 9 4 11.5t10 2.5h119q8 0 12 -5t2 -16l-7 -45q-1 -10 2.5 -10.5t10.5 5.5q23 25 50.5 43t55 28t50.5 10q20 0 30.5 -3t9.5 -12l-16 -112q-1 -11 -3.5 -14t-8.5 -2q-20 3 -38.5 4t-29.5 1q-20 0 -41.5 -7.5t-40.5 -21t-31.5 -30
t-14.5 -32.5l-41 -292q-2 -13 -7 -16t-19 -3h-106v0zM102 745q6 5 12.5 4t9.5 -5l116 -125q4 -3 5.5 -8.5t-4.5 -11.5l-31 -29q-6 -5 -11.5 -3t-13.5 8l-125 92q-22 14 -9 27l51 51v0zM298 745q6 5 12.5 4t9.5 -5l116 -125q5 -3 6 -9t-5 -11l-31 -29q-5 -5 -10.5 -3t-13.5 8
l-126 92q-22 14 -8 28l50 50v0z" />
    <glyph glyph-name="uni0212" unicode="&#x212;" horiz-adv-x="722" 
d="M637 23q8 -23 -14 -23h-147q-8 0 -13.5 5t-7.5 16l-69 281q-1 6 -4 8t-12 2h-106q-12 0 -14 -12l-40 -281q-1 -13 -7.5 -16t-20.5 -3h-127q-13 0 -16.5 7.5t-2.5 17.5l99 702q2 10 4.5 12.5t10.5 2.5h312q124 0 191 -47t67 -133q0 -51 -20 -95.5t-55.5 -78t-84.5 -50.5
q-10 -4 -12.5 -7.5t-1.5 -8.5l91 -299v0zM401 430q42 0 73 15t48 42t17 64t-26.5 55.5t-71.5 18.5h-133q-12 0 -15 -17l-24 -165q-1 -8 2 -10.5t8 -2.5h122v0zM276 821q-9 0 -12 8.5t1 17.5q17 34 45 58t63.5 36.5t76.5 12.5q44 0 80.5 -12t59.5 -37t29 -64q2 -8 -0.5 -14
t-13.5 -6h-61q-7 0 -10 6t-9 14q-7 10 -17.5 18.5t-24.5 14t-32 5.5q-28 0 -53.5 -12.5t-40.5 -34.5q-4 -7 -9.5 -9t-10.5 -2h-61v0z" />
    <glyph glyph-name="uni0213" unicode="&#x213;" horiz-adv-x="426" 
d="M43 0q-12 0 -17 7.5t-4 17.5l69 491q1 9 4 11.5t10 2.5h119q8 0 12 -5t2 -16l-7 -45q-1 -10 2.5 -10.5t10.5 5.5q23 25 50.5 43t55 28t50.5 10q20 0 30.5 -3t9.5 -12l-16 -112q-1 -11 -3.5 -14t-8.5 -2q-20 3 -38.5 4t-29.5 1q-20 0 -41.5 -7.5t-40.5 -21t-31.5 -30
t-14.5 -32.5l-41 -292q-2 -13 -7 -16t-19 -3h-106v0zM119 609q-9 0 -12 8.5t1 17.5q17 34 45 58t63.5 36.5t76.5 12.5q44 0 80.5 -12t59.5 -37t29 -64q2 -8 -0.5 -14t-13.5 -6h-61q-7 0 -10 6t-9 14q-7 10 -17.5 18.5t-24.5 14t-32 5.5q-28 0 -53.5 -12.5t-40.5 -34.5
q-4 -7 -9.5 -9t-10.5 -2h-61v0z" />
    <glyph glyph-name="uni0214" unicode="&#x214;" horiz-adv-x="721" 
d="M660 270q-15 -105 -59 -166.5t-113.5 -87.5t-159.5 -26q-143 0 -205.5 59t-62.5 170q0 19 1.5 38.5t4.5 40.5l61 429q1 10 4 12.5t10 2.5h143q9 0 13.5 -7t2.5 -15l-63 -454q-1 -12 -2.5 -22.5t-1.5 -20.5q0 -58 29.5 -83t83.5 -25q43 0 78.5 16.5t59.5 52.5t33 94
l63 450q2 9 4.5 11.5t9.5 2.5h114q8 0 12.5 -7t2.5 -15l-63 -450v0zM282 957q6 5 12.5 4t9.5 -5l116 -125q4 -3 5.5 -8.5t-4.5 -11.5l-31 -29q-6 -5 -11.5 -3t-13.5 8l-125 92q-22 14 -9 27l51 51v0zM478 957q6 5 12.5 4t9.5 -5l116 -125q5 -3 6 -9t-5 -11l-31 -29
q-5 -5 -10.5 -3t-13.5 8l-126 92q-22 14 -8 28l50 50v0z" />
    <glyph glyph-name="uni0215" unicode="&#x215;" horiz-adv-x="592" 
d="M170 -10q-61 0 -99 37t-38 99v15t1 15l50 354q2 12 6.5 16t17.5 4h110q11 0 16 -7t3 -19l-47 -333q-1 -5 -1 -9.5v-7.5q0 -28 15 -40.5t40 -12.5q34 0 64.5 18t58.5 44l51 348q1 12 6.5 15.5t18.5 3.5h108q12 0 17.5 -7t3.5 -19l-72 -490q-1 -9 -3.5 -11.5t-10.5 -2.5
h-119q-7 0 -11.5 3t-3.5 11l8 49q1 6 -3 6t-11 -6q-46 -40 -88.5 -56.5t-87.5 -16.5v0zM168 745q6 5 12.5 4t9.5 -5l116 -125q4 -3 5.5 -8.5t-4.5 -11.5l-31 -29q-6 -5 -11.5 -3t-13.5 8l-125 92q-22 14 -9 27l51 51v0zM364 745q6 5 12.5 4t9.5 -5l116 -125q5 -3 6 -9
t-5 -11l-31 -29q-5 -5 -10.5 -3t-13.5 8l-126 92q-22 14 -8 28l50 50v0z" />
    <glyph glyph-name="uni0216" unicode="&#x216;" horiz-adv-x="721" 
d="M660 270q-15 -105 -59 -166.5t-113.5 -87.5t-159.5 -26q-143 0 -205.5 59t-62.5 170q0 19 1.5 38.5t4.5 40.5l61 429q1 10 4 12.5t10 2.5h143q9 0 13.5 -7t2.5 -15l-63 -454q-1 -12 -2.5 -22.5t-1.5 -20.5q0 -58 29.5 -83t83.5 -25q43 0 78.5 16.5t59.5 52.5t33 94
l63 450q2 9 4.5 11.5t9.5 2.5h114q8 0 12.5 -7t2.5 -15l-63 -450v0zM299 821q-9 0 -12 8.5t1 17.5q17 34 45 58t63.5 36.5t76.5 12.5q44 0 80.5 -12t59.5 -37t29 -64q2 -8 -0.5 -14t-13.5 -6h-61q-7 0 -10 6t-9 14q-7 10 -17.5 18.5t-24.5 14t-32 5.5q-28 0 -53.5 -12.5
t-40.5 -34.5q-4 -7 -9.5 -9t-10.5 -2h-61v0z" />
    <glyph glyph-name="uni0217" unicode="&#x217;" horiz-adv-x="592" 
d="M170 -10q-61 0 -99 37t-38 99v15t1 15l50 354q2 12 6.5 16t17.5 4h110q11 0 16 -7t3 -19l-47 -333q-1 -5 -1 -9.5v-7.5q0 -28 15 -40.5t40 -12.5q34 0 64.5 18t58.5 44l51 348q1 12 6.5 15.5t18.5 3.5h108q12 0 17.5 -7t3.5 -19l-72 -490q-1 -9 -3.5 -11.5t-10.5 -2.5
h-119q-7 0 -11.5 3t-3.5 11l8 49q1 6 -3 6t-11 -6q-46 -40 -88.5 -56.5t-87.5 -16.5v0zM185 609q-9 0 -12 8.5t1 17.5q17 34 45 58t63.5 36.5t76.5 12.5q44 0 80.5 -12t59.5 -37t29 -64q2 -8 -0.5 -14t-13.5 -6h-61q-7 0 -10 6t-9 14q-7 10 -17.5 18.5t-24.5 14t-32 5.5
q-28 0 -53.5 -12.5t-40.5 -34.5q-4 -7 -9.5 -9t-10.5 -2h-61v0z" />
    <glyph glyph-name="uni0218" unicode="&#x218;" horiz-adv-x="677" 
d="M543 574q-20 22 -56 39t-91 17q-41 0 -72 -11t-48.5 -32.5t-17.5 -50.5q0 -16 9 -29.5t25.5 -24t38.5 -17.5l151 -52q78 -26 115 -66.5t37 -101.5q0 -82 -43.5 -139t-117.5 -86.5t-166 -29.5q-108 0 -180 36t-107 100q-4 10 -4 15.5t8 10.5l79 48q12 8 21 4.5t16 -12.5
q23 -27 45 -46.5t53.5 -29t83.5 -9.5q39 0 70.5 9.5t51 31t19.5 56.5q0 25 -18 42t-58 30l-146 49q-73 24 -110 70.5t-37 106.5q0 57 24.5 103t67.5 79t98.5 50.5t118.5 17.5q60 0 109 -15t85.5 -39t58.5 -55q7 -8 7.5 -14t-6.5 -10l-89 -59q-5 -3 -11 1.5t-14 12.5v0z
M230 -243q-5 0 -5.5 4t3.5 9l42 53q7 9 6 15t-8 6h-24q-6 0 -8.5 3.5t-0.5 13.5l10 64q2 17 15 17h81q14 0 13 -12l-12 -80q-2 -11 -9 -19l-54 -59q-6 -6 -11 -10.5t-15 -4.5h-23v0z" />
    </font>
</defs>
</svg>
