<?xml version="1.0" standalone="no"?>
<!DOCTYPE svg PUBLIC "-//W3C//DTD SVG 1.1//EN" "http://www.w3.org/Graphics/SVG/1.1/DTD/svg11.dtd" >
<svg xmlns="http://www.w3.org/2000/svg" xmlns:xlink="http://www.w3.org/1999/xlink" version="1.1">
<metadata>
Created by FontForge 20170731 at Wed Sep 23 00:34:57 2020
 By Aleksey,,,
Copyright 2020 The LibreFranklin Project Authors (https://github.com/impallari/Libre-Franklin)
</metadata>
<defs>
<font id="LibreFranklin-BlackItalic" horiz-adv-x="600" >
  <font-face 
    font-family="Libre Franklin Black"
    font-weight="900"
    font-style="italic"
    font-stretch="normal"
    units-per-em="1000"
    panose-1="0 0 0 0 0 0 0 0 0 0"
    ascent="800"
    descent="-200"
    x-height="530"
    cap-height="742"
    bbox="-518.333 -246 1498.45 1175.64"
    underline-thickness="50"
    underline-position="-150"
    slope="-8"
    unicode-range="U+000D-FB02"
  />
<missing-glyph horiz-adv-x="612" 
d="M503 -142q-2 -16 -8.5 -19.5t-23.5 -3.5h-448q-16 0 -22 9t-5 22l135 964q2 11 6 14t12 3h471q8 0 14 -8.5t4 -18.5l-135 -962v0zM581 785q2 8 0 10t-9 2h-373q-7 0 -14.5 -8t-9.5 -17l-122 -872q-1 -10 1.5 -12.5t15.5 -2.5h353q14 0 24 8.5t12 21.5zM150 806l53 27
l280 -965l-58 -5z" />
    <glyph glyph-name="fi" unicode="fi" horiz-adv-x="700" 
d="M417 530q13 0 16.5 -4.5t1.5 -13.5l-14 -99q-3 -18 -21 -18h-69q-8 0 -11 -18l-51 -361q-1 -11 -4.5 -13.5t-12.5 -2.5h-163q-8 0 -14 8t-5 18l51 361q2 8 -7 8h-61q-10 0 -12 7.5t-1 17.5l13 94q2 9 5.5 12.5t16.5 3.5h48q8 0 14.5 7t7.5 17l7 53q9 65 54.5 100
t118.5 35h113q14 0 22.5 -6t6.5 -18l-11 -92q-1 -14 -19 -14h-40q-17 0 -35.5 -13t-21.5 -34l-3 -22q-1 -13 14 -13h66v0zM625 23q-2 -16 -8.5 -19.5t-23.5 -3.5h-141q-15 0 -21 9t-5 22l68 482q2 11 5.5 14t12.5 3h169q8 0 10.5 -8.5t1.5 -17.5zM706 597q-2 -15 -9 -19
t-24 -4h-151q-11 0 -14 9.5t-1 22.5l17 113q3 23 20 23h168q8 0 10 -8.5t0 -18.5z" />
    <glyph glyph-name="fl" unicode="fl" horiz-adv-x="702" 
d="M417 530q13 0 16.5 -4.5t1.5 -13.5l-14 -99q-3 -18 -21 -18h-69q-8 0 -11 -18l-51 -361q-1 -11 -4.5 -13.5t-12.5 -2.5h-163q-8 0 -14 8t-5 18l51 361q2 8 -7 8h-61q-10 0 -12 7.5t-1 17.5l13 94q2 9 5.5 12.5t16.5 3.5h48q8 0 14.5 7t7.5 17l7 53q9 65 54.5 100
t118.5 35h113q14 0 22.5 -6t6.5 -18l-11 -92q-1 -14 -19 -14h-40q-17 0 -35.5 -13t-21.5 -34l-3 -22q-1 -13 14 -13h66v0zM626 23q-2 -16 -8.5 -19.5t-23.5 -3.5h-142q-15 0 -21.5 9t-5.5 22l103 694q2 11 5 14t12 3h167q15 0 12 -22z" />
    <glyph glyph-name=".notdef" horiz-adv-x="612" 
d="M503 -142q-2 -16 -8.5 -19.5t-23.5 -3.5h-448q-16 0 -22 9t-5 22l135 964q2 11 6 14t12 3h471q8 0 14 -8.5t4 -18.5l-135 -962v0zM581 785q2 8 0 10t-9 2h-373q-7 0 -14.5 -8t-9.5 -17l-122 -872q-1 -10 1.5 -12.5t15.5 -2.5h353q14 0 24 8.5t12 21.5zM150 806l53 27
l280 -965l-58 -5z" />
    <glyph glyph-name="uni0000" horiz-adv-x="0" 
 />
    <glyph glyph-name="uni0000" horiz-adv-x="0" 
 />
    <glyph glyph-name="nonmarkingreturn" horiz-adv-x="333" 
 />
    <glyph glyph-name="CR" unicode="&#xd;" horiz-adv-x="200" 
 />
    <glyph glyph-name="space" unicode=" " horiz-adv-x="200" 
 />
    <glyph glyph-name="exclam" unicode="!" horiz-adv-x="277" 
d="M207 23q-2 -16 -8 -19.5t-24 -3.5h-150q-15 0 -21.5 9t-5.5 22l21 150q2 11 5.5 13.5t11.5 2.5h173q9 0 15 -8t4 -18zM205 288q-4 -15 -9.5 -18.5t-22.5 -3.5h-69q-15 0 -20.5 9t-4.5 22l11 428q0 11 3.5 14t12.5 3h189q8 0 14.5 -8.5t4.5 -18.5z" />
    <glyph glyph-name="quotedbl" unicode="&#x22;" horiz-adv-x="509" 
d="M425 434q-4 -16 -9.5 -19.5t-23.5 -3.5h-42q-15 0 -21 9t-5 22v284q0 11 4 13.5t12 2.5h145q9 0 15 -8t4 -18zM169 434q-4 -16 -9.5 -19.5t-23.5 -3.5h-42q-15 0 -21 9t-5 22v284q0 11 4 13.5t12 2.5h145q9 0 15 -8t4 -18z" />
    <glyph glyph-name="numbersign" unicode="#" horiz-adv-x="603" 
d="M156 25q-4 -18 -8.5 -22t-22.5 -2l-37 5q-15 2 -24 8.5t-6 20.5l197 688q4 11 7.5 15t11.5 3l60 -6q8 -1 14.5 -8t4.5 -17zM380 25q-4 -18 -8.5 -22t-22.5 -2l-37 5q-15 2 -24 8.5t-6 20.5l197 688q4 11 7.5 15t11.5 3l60 -6q8 -1 14.5 -8t4.5 -17zM562 244
q-2 -15 -8.5 -18.5t-23.5 -3.5h-501q-15 0 -21 9t-5 22l7 48q2 11 7.5 14t14.5 3h523q8 0 11.5 -8.5t2.5 -17.5zM625 454q-2 -15 -9 -18.5t-24 -3.5h-501q-15 0 -21 9t-4 22l7 48q2 11 7.5 14t14.5 3h523q8 0 11.5 -8.5t1.5 -17.5z" />
    <glyph glyph-name="dollar" unicode="$" horiz-adv-x="687" 
d="M649 223q-8 -60 -42 -107.5t-88 -78t-125 -39.5q-17 -1 -23.5 -7.5t-8.5 -18.5l-3 -22q-2 -15 -8 -19t-23 -4h-67q-15 0 -21 9.5t-5 22.5l4 27q2 11 1 12t-9 1q-70 5 -120 27t-91 59q-16 8 -22 17.5t3 18.5l90 87q11 11 19 6t13 -16q23 -19 52 -36t61 -26q13 -1 20.5 5
t8.5 14l18 123q1 8 1.5 10t-4.5 5q-86 11 -133.5 45.5t-63.5 83.5t-8 104q7 50 36 91.5t80.5 72t123.5 46.5q10 1 22.5 8.5t13.5 16.5l4 31q2 8 4.5 9t7.5 1h85q11 0 18 -7.5t5 -20.5l-5 -34q-1 -4 1 -5t6 -4q50 -11 89 -28.5t67 -40.5q11 -2 15 -10.5t-4 -17.5l-79 -87
q-8 -8 -15 -5t-15 16q-13 8 -30 18.5t-35 20.5q-9 1 -16 -6t-8 -12l-16 -115q-1 -5 0 -5t8 -2l65 -16q48 -12 83.5 -43t53 -76t9.5 -99v0zM327 592q2 8 0.5 7.5t-6.5 -3.5q-40 -7 -60.5 -26t-23.5 -42q-2 -14 2.5 -24.5t15.5 -17t28 -10.5q14 -1 22 7.5t10 21.5zM384 138
q-1 -5 2 -2t7 5q39 5 63 25t27 45q3 22 -10 37.5t-51 22.5q-19 0 -22 -19l-16 -114v0z" />
    <glyph glyph-name="percent" unicode="%" horiz-adv-x="963" 
d="M290 753q57 0 99 -32t62 -83t12 -108q-7 -51 -38 -96t-77.5 -72.5t-100.5 -27.5q-58 0 -101 31t-63.5 81t-12.5 106q8 52 40 98t79.5 74.5t100.5 28.5v0zM243 432q23 0 38.5 14t25 40.5t14.5 64.5q8 53 2.5 79t-32.5 26q-22 0 -37.5 -15t-25.5 -43.5t-16 -68.5
q-7 -49 -2 -73t33 -24v0zM748 409q57 0 99 -32t62.5 -83t12.5 -108q-7 -51 -38.5 -96t-78 -72.5t-100.5 -27.5q-58 0 -100.5 31t-63 81t-12.5 106q8 52 39.5 98t79 74.5t100.5 28.5v0zM702 88q23 0 38.5 14t25 40.5t14.5 64.5q5 36 4.5 59t-8.5 34.5t-26 11.5
q-22 0 -37.5 -15t-25.5 -43.5t-16 -68.5q-5 -33 -4.5 -54.5t9 -32t26.5 -10.5v0zM250 3q-5 -7 -11 -7h-17l-52 1q-16 0 -19.5 14t3.5 25l570 706q8 10 13.5 9t13.5 -1h66q8 0 15 -7t-1 -18z" />
    <glyph glyph-name="ampersand" unicode="&#x26;" horiz-adv-x="878" 
d="M461 753q75 0 129.5 -22.5t81.5 -62t20 -90.5q-4 -28 -26 -60.5t-55 -62.5t-72 -50q-25 -3 -17 -16l64 -73q6 -7 12.5 -1.5t13.5 18.5q10 9 19 18t16.5 19.5t14.5 23t14 27.5q6 5 11.5 3.5t15.5 -4.5l96 -32q11 -3 16.5 -15.5t0.5 -26.5q-13 -20 -27.5 -39t-32.5 -42.5
t-44 -56.5q-10 -6 -13.5 -9t1.5 -11q14 -6 28.5 -10t31 -6.5t34.5 -4.5q15 0 22 -8t5 -19l-16 -117q-2 -13 -6.5 -18t-12.5 -5q-54 0 -97 8t-77 23.5t-62 39.5q-12 4 -18.5 -0.5t-14.5 -14.5q-58 -32 -117.5 -46.5t-131.5 -14.5q-127 0 -189 55.5t-48 155.5q8 56 54.5 103.5
t142.5 99.5q14 4 18.5 10t-1.5 19q-25 28 -37.5 66.5t-7.5 76.5q8 51 44 89.5t92.5 60.5t124.5 22v0zM470 638q-20 0 -36 -9t-26 -22.5t-12 -28.5q-1 -4 2.5 -14.5t7.5 -18.5l32 -44q4 -4 11 1.5t10 9.5q23 8 41.5 28.5t22.5 48.5q3 23 -11.5 36t-41.5 13v0zM340 300
q-7 9 -14 4t-12 -12q-26 -11 -45 -33.5t-23 -48.5q-4 -27 16.5 -48.5t54.5 -21.5q23 0 49.5 10t41.5 25q8 2 14 7t1 14l-83 104v0z" />
    <glyph glyph-name="quotesingle" unicode="'" horiz-adv-x="253" 
d="M206 434q-4 -16 -9.5 -19.5t-23.5 -3.5h-42q-15 0 -21 9t-5 22v284q0 11 4 13.5t12 2.5h145q9 0 15 -8t4 -18z" />
    <glyph glyph-name="parenleft" unicode="(" horiz-adv-x="332" 
d="M139 -165q-16 0 -19 23q-32 68 -54.5 135t-30.5 141t4 162q17 121 69 232.5t126 208.5q13 5 29 5h105q9 0 12.5 -8.5t0.5 -16.5q-42 -63 -77 -134.5t-59.5 -149.5t-36.5 -160q-15 -109 -3 -212t48 -219q9 -7 -5 -7h-109v0z" />
    <glyph glyph-name="parenright" unicode=")" horiz-adv-x="332" 
d="M-29 -165q-9 0 -12.5 8.5t-0.5 16.5q42 63 77 134.5t60 149.5t36 160q15 110 3 212.5t-48 218.5q-9 7 5 7h109q16 0 19 -23q32 -68 54.5 -135t30 -141t-4.5 -162q-17 -121 -68.5 -232.5t-125.5 -208.5q-12 -5 -29 -5h-105v0z" />
    <glyph glyph-name="asterisk" unicode="*" horiz-adv-x="521" 
d="M292 426q-2 4 -6.5 -1t-6.5 -9l-93 -127q-4 -6 -11 -3t-14 9l-62 48q-7 6 -10 12.5t3 13.5l111 108q3 4 5.5 7t-4.5 4l-127 37q-7 2 -11 10.5t0 18.5l38 74q4 8 7.5 7.5t10.5 -4.5l119 -58q6 -3 12 3t7 12l9 144q0 5 1.5 7.5t9.5 2.5h90q8 0 13.5 -8.5t3.5 -13.5
l-35 -145q-2 -6 -1.5 -4t7.5 4l137 58q9 4 16 -2.5t8 -17.5l14 -73q2 -9 0 -13.5t-11 -6.5l-135 -36q-6 -1 -10 -6.5t-2 -9.5l76 -105q5 -6 5 -13.5t-11 -15.5l-66 -41q-11 -7 -20 -2t-11 11z" />
    <glyph glyph-name="plus" unicode="+" 
d="M570 325q-1 -15 -8 -18.5t-24 -3.5h-463q-15 0 -21 9t-4 22l13 93q2 11 5 14t12 3h485q8 0 14 -8.5t5 -17.5zM242 113q-15 0 -22 11t-5 28l65 463q2 15 6.5 17.5t17.5 2.5h93q11 0 18 -8t5 -17l-68 -485q-1 -8 -4.5 -10t-12.5 -2h-93z" />
    <glyph glyph-name="comma" unicode="," horiz-adv-x="279" 
d="M-12 -165q-14 0 -4 20l67 108q12 20 8 28.5t-16 8.5h-25q-15 0 -19 4t-2 17l22 149q2 11 8 19.5t14 8.5h175q18 0 15 -19l-21 -141q-1 -7 -4 -13t-6 -9l-136 -153q-15 -17 -25.5 -22.5t-21.5 -5.5h-29v0z" />
    <glyph glyph-name="hyphen" unicode="-" horiz-adv-x="380" 
d="M332 215q-2 -15 -8.5 -18.5t-23.5 -3.5h-239q-15 0 -21 9t-5 22l13 92q2 11 5.5 14t12.5 3h261q8 0 14 -8.5t4 -17.5z" />
    <glyph glyph-name="period" unicode="." horiz-adv-x="279" 
d="M208 23q-2 -16 -8 -19.5t-24 -3.5h-150q-15 0 -21.5 9t-5.5 22l22 154q2 11 5.5 13.5t11.5 2.5h173q9 0 14.5 -8t3.5 -18z" />
    <glyph glyph-name="slash" unicode="/" horiz-adv-x="380" 
d="M-16 0q-11 0 -17 7.5t-2 16.5l349 705q5 8 10.5 10.5t14.5 2.5h83q15 0 20.5 -10.5t-2.5 -27.5l-338 -683q-7 -15 -14.5 -18t-20.5 -3h-83v0z" />
    <glyph glyph-name="zero" unicode="0" horiz-adv-x="722" 
d="M423 753q87 0 151 -41.5t99.5 -114t35.5 -167.5q0 -17 -1 -35t-4 -37q-15 -108 -67 -190.5t-131 -129t-174 -46.5q-89 0 -154 40.5t-100.5 112t-35.5 165.5q0 17 1.5 34.5t3.5 35.5q12 81 45.5 149t84 118.5t113.5 78t133 27.5v0zM337 148q39 0 66 23t45 74t29 134
q5 35 7.5 63t2.5 50q0 58 -17 82.5t-54 24.5q-38 0 -65.5 -25t-46 -78t-30.5 -139q-4 -32 -6.5 -58.5t-2.5 -47.5q0 -56 17.5 -79.5t54.5 -23.5v0z" />
    <glyph glyph-name="one" unicode="1" horiz-adv-x="537" 
d="M475 164q20 0 17 -18l-18 -130q-1 -9 -5.5 -12.5t-17.5 -3.5h-432q-13 0 -16 4.5t-2 14.5l18 132q1 8 5 10.5t15 2.5h93q13 0 14 15l47 334q1 5 -1 7t-10 0l-89 -20q-27 -6 -24 20l14 95q2 13 5 17t13 9l192 89q17 8 27.5 10t24.5 2h91q16 0 13 -21l-77 -548q-1 -9 8 -9
h95v0z" />
    <glyph glyph-name="two" unicode="2" horiz-adv-x="673" 
d="M262 332q77 57 117.5 91.5t55.5 58t15 45.5q0 20 -7 34t-22 21.5t-41 7.5q-41 0 -79.5 -30t-70.5 -84q-5 -10 -16 -4l-142 79q-5 3 -4.5 10.5t11.5 23.5q56 80 139 123.5t180 43.5q86 0 146.5 -26.5t92.5 -74.5t32 -111q0 -52 -18 -91.5t-53.5 -72t-86.5 -65.5l-176 -113
q-8 -5 -8.5 -9t6.5 -4h271q24 0 21 -19l-20 -150q-1 -9 -5.5 -12.5t-17.5 -3.5h-559q-32 0 -27 31l14 99q1 6 4.5 11.5t16.5 17.5t43 34z" />
    <glyph glyph-name="three" unicode="3" horiz-adv-x="685" 
d="M104 628q-11 11 5 26q30 27 76 49.5t100.5 35.5t109.5 13q134 0 207 -50t73 -133q0 -40 -20 -76t-52.5 -62t-69.5 -37q-7 -2 -7.5 -5.5t5.5 -5.5q57 -16 88.5 -57t31.5 -93q0 -86 -46 -140t-125 -78.5t-178 -24.5q-70 0 -128 19t-99.5 52t-62.5 74q-9 18 -2 23l116 75
q8 5 13 4t8 -5q41 -46 76 -66t87 -20q33 0 60.5 11.5t43.5 32.5t16 47q0 19 -11 33.5t-32 23t-50 8.5l-94 2q-13 0 -12 13l17 132q1 9 19 9l67 2q33 1 60 13.5t43 33t16 45.5q0 21 -19 34.5t-51 13.5q-30 0 -55 -8t-51 -23.5t-59 -40.5q-12 -9 -21 0l-93 100v0z" />
    <glyph glyph-name="four" unicode="4" horiz-adv-x="716" 
d="M410 721q14 14 22.5 17.5t28.5 3.5h168q20 0 17 -20l-57 -405q-1 -7 7 -7h79q11 0 15.5 -3t2.5 -14l-17 -118q-1 -10 -5 -13t-17 -3h-75q-13 0 -15 -15l-16 -121q-2 -15 -8.5 -19t-23.5 -4h-171q-30 0 -27 23l18 128q1 8 -9 8h-291q-23 0 -20 19l16 113q2 11 10 24t27 35
l341 371v0zM348 310q14 0 15 13l27 188q3 18 -13 -1l-165 -189q-6 -7 -5.5 -9t6.5 -2h135z" />
    <glyph glyph-name="five" unicode="5" horiz-adv-x="690" 
d="M647 742q15 0 18.5 -6.5t0.5 -20.5l-25 -136q-2 -10 -7 -13.5t-19 -3.5h-304q-10 0 -14.5 -3t-7.5 -14l-18 -74q-1 -4 0.5 -5.5t7.5 -0.5q44 11 71 15t58 4q75 0 132 -25.5t88.5 -73t31.5 -114.5q0 -90 -45 -153t-122 -95.5t-175 -32.5q-75 0 -135.5 19t-103.5 51t-66 71
q-8 14 -6.5 20.5t10.5 11.5l119 76q7 5 14 0t16 -16q26 -31 54 -54t80 -23q42 0 73 15.5t47.5 41.5t16.5 55q0 18 -9.5 33.5t-29.5 25t-53 9.5q-17 0 -33 -3.5t-33.5 -10.5t-39.5 -18q-7 -4 -14 -2.5t-15 5.5l-118 68q-9 5 -9.5 17.5t2.5 26.5l74 309q4 17 11 20.5t33 3.5
h444z" />
    <glyph glyph-name="six" unicode="6" horiz-adv-x="701" 
d="M433 750q47 0 91.5 -14t80 -39t56.5 -57t21 -67q0 -9 -10 -12l-145 -42q-10 -2 -25 25q-13 23 -27.5 37.5t-46.5 14.5q-37 0 -68 -19.5t-51.5 -54t-27.5 -80.5q-1 -4 -1 -6v-4t2 -3t10 3q28 14 63 21.5t74 7.5q73 0 127.5 -25.5t84.5 -70.5t30 -104q0 -61 -28 -110.5
t-75.5 -85t-108 -54.5t-125.5 -19q-93 0 -158.5 37.5t-100.5 105t-35 157.5q0 17 1.5 34.5t3.5 36.5q17 122 71.5 208.5t136.5 132.5t180 46v0zM372 317q-18 0 -38 -5t-36 -12t-24 -12q-13 -8 -16.5 -24.5t-3.5 -38.5t5 -38.5t15 -28t24 -17t32 -5.5q32 0 59 17.5t43 44.5
t16 56q0 33 -23 48t-53 15v0z" />
    <glyph glyph-name="seven" unicode="7" horiz-adv-x="632" 
d="M642 742q19 0 23.5 -11t2.5 -23l-13 -67q-4 -20 -14.5 -39t-23.5 -34q-41 -50 -78.5 -107t-70 -117t-58.5 -117.5t-43.5 -110t-25.5 -94.5q-3 -13 -7.5 -17.5t-16.5 -4.5h-211q-13 0 -19.5 11.5t-1.5 28.5q24 53 51 105t62 110t84.5 129t118.5 164q5 7 4 10.5t-13 3.5
h-299q-16 0 -20 7.5t-1 18.5l34 138q2 10 8.5 13t19.5 3h508z" />
    <glyph glyph-name="eight" unicode="8" horiz-adv-x="693" 
d="M398 752q81 0 143 -26t97 -70.5t35 -100.5q0 -31 -10.5 -54t-28.5 -40.5t-39.5 -30.5t-43.5 -25q-7 -4 -7.5 -6.5t6.5 -7.5q12 -9 30.5 -20t36.5 -28t30.5 -44t12.5 -68q0 -60 -28.5 -105t-79 -75t-115 -45.5t-136.5 -15.5q-84 0 -148.5 20.5t-100.5 61t-36 98.5
q0 38 16 70.5t47.5 60t79.5 48.5q8 3 8.5 7t-7.5 10q-17 13 -35 29t-30 41.5t-12 63.5q0 66 38.5 123.5t109 93t167.5 35.5v0zM402 607q-33 0 -56.5 -11.5t-36 -29t-12.5 -37.5q0 -13 7.5 -25t29.5 -20l61 -22q18 -6 34 0.5t29 20.5t20 31.5t7 33.5q0 27 -22.5 43t-60.5 16
v0zM309 135q43 0 70.5 10.5t41 28.5t13.5 41q0 17 -10.5 29.5t-42.5 24.5l-68 25q-17 6 -35.5 -1t-34 -22.5t-25 -35t-9.5 -39.5q0 -30 25.5 -45.5t74.5 -15.5v0z" />
    <glyph glyph-name="nine" unicode="9" horiz-adv-x="701" 
d="M298 -8q-58 0 -103.5 17t-77 43t-49.5 56t-21 55q-1 13 12 18l142 41q19 5 28 -19q10 -26 26 -41.5t48 -15.5q37 0 68 18.5t51.5 53t27.5 82.5q0 9 -3.5 10t-14.5 -4q-32 -13 -61.5 -19t-68.5 -6q-73 0 -127.5 25.5t-84.5 70.5t-30 104q0 61 28 110.5t75.5 85t108 54.5
t125.5 19q93 0 159 -37.5t100.5 -104.5t34.5 -158q0 -92 -27.5 -175t-79 -146.5t-124 -100t-162.5 -36.5v0zM358 425q19 0 35 4t31 11t29 15q16 8 20 24.5t4 37.5q0 22 -5 38.5t-15 28t-24 17t-32 5.5q-32 0 -59 -17.5t-43 -44.5t-16 -56q0 -33 22.5 -48t52.5 -15v0z" />
    <glyph glyph-name="colon" unicode=":" horiz-adv-x="279" 
d="M254 351q-2 -15 -8 -19t-24 -4h-150q-15 0 -21.5 9.5t-5.5 22.5l21 149q2 11 6 13.5t12 2.5h173q9 0 14.5 -8t3.5 -18zM208 26q-1 -15 -7.5 -19t-24.5 -4h-150q-15 0 -21.5 9.5t-4.5 22.5l21 149q2 11 5.5 13.5t11.5 2.5h173q9 0 14.5 -8t3.5 -18z" />
    <glyph glyph-name="semicolon" unicode=";" horiz-adv-x="279" 
d="M-1 -169q-10 0 -16 10.5t-3 19.5l68 112q8 15 10 21t-10 6h-22q-15 0 -21.5 9t-5.5 22l21 151q2 11 6 13.5t12 2.5h173q9 0 14.5 -8t3.5 -18l-21 -146q-1 -10 -4 -14l-136 -163q-10 -11 -23 -14.5t-24 -3.5h-22v0zM71 321q-15 0 -21.5 9t-5.5 22l22 154q2 11 5.5 13.5
t11.5 2.5h173q9 0 14.5 -8t3.5 -18l-21 -152q-2 -16 -8 -19.5t-24 -3.5h-150v0z" />
    <glyph glyph-name="less" unicode="&#x3c;" horiz-adv-x="599" 
d="M522 108q-3 -19 -12.5 -21t-23.5 4l-420 170q-11 5 -19.5 15t-6.5 23l15 111q2 15 9 21.5t20 10.5l468 171q16 6 27 -6.5t9 -26.5l-13 -96q-2 -16 -12.5 -25t-34.5 -18l-270 -93l235 -94q23 -9 34 -20.5t8 -29.5z" />
    <glyph glyph-name="equal" unicode="=" 
d="M584 421q-2 -15 -8.5 -18.5t-23.5 -3.5h-463q-15 0 -21 9t-5 22l13 93q2 11 5.5 14t12.5 3h485q8 0 14 -8.5t4 -17.5zM550 180q-2 -15 -8.5 -18.5t-23.5 -3.5h-463q-15 0 -21 9t-5 22l13 93q2 11 5.5 14t12.5 3h485q8 0 14 -8.5t4 -17.5z" />
    <glyph glyph-name="greater" unicode="&#x3e;" horiz-adv-x="599" 
d="M48 216q2 18 12 25.5t35 16.5l270 90l-236 97q-46 19 -42 51l14 96q5 30 35 17l420 -171q12 -4 20.5 -14.5t6.5 -25.5l-16 -111q-1 -13 -8 -19t-20 -11l-467 -170q-16 -6 -28 4t-9 29l13 96v0z" />
    <glyph glyph-name="question" unicode="?" horiz-adv-x="545" 
d="M323 23q-2 -16 -8.5 -19.5t-23.5 -3.5h-151q-15 0 -21 9t-5 22l21 150q2 11 5 13.5t12 2.5h173q8 0 14.5 -8t4.5 -18zM52 562q-10 2 -12.5 13t1.5 24q44 76 115 114.5t168 38.5q80 0 136 -25.5t84 -67.5t21 -90q-6 -43 -29.5 -72.5t-55 -51.5l-63 -44t-55 -50t-29.5 -69
q-2 -13 -22 -13h-105q-12 0 -19.5 11t-5.5 29q7 48 27.5 83t46.5 60.5t51.5 45.5t43.5 39.5t21 42.5q3 20 -12.5 31t-38.5 11t-45 -10.5t-41 -29.5t-33 -47q-6 -6 -10 -4.5t-15 3.5z" />
    <glyph glyph-name="at" unicode="@" horiz-adv-x="834" 
d="M630 -54q-36 -21 -101 -40t-146 -19q-94 0 -164.5 30t-115.5 83.5t-62.5 123.5t-6.5 149t49 149t98.5 124t140.5 84.5t176 30.5q71 0 135.5 -19.5t112 -60.5t70 -104t10.5 -150q-10 -73 -42 -128.5t-79.5 -86.5t-105.5 -31q-33 0 -53.5 9.5t-31 21.5t-14.5 21
q-4 2 -8 -4.5t-7 -15.5q-26 -20 -60.5 -33t-72.5 -13q-48 0 -82.5 23.5t-50 66t-7.5 98.5q8 57 39 107.5t80.5 81.5t112.5 31q45 0 65.5 -15.5t32.5 -34.5q5 0 10 6t7 11l2 5q1 4 2.5 3t5.5 -1h87q5 0 8.5 -4.5t2.5 -9.5l-64 -205q-9 -29 -5 -37t14 -8q20 0 42 17t40 52
t25 89q9 64 -5.5 106t-46 66.5t-75 34.5t-93.5 10q-84 0 -147 -24.5t-106 -67t-68 -97.5t-34 -117q-10 -70 3.5 -121.5t47.5 -85.5t85 -51t117 -17q46 0 77.5 7.5t56 20.5t47.5 28q11 3 16 -2t6 -10l34 -53q3 -6 2 -11.5t-6 -12.5v0zM342 247q-3 -26 6.5 -47.5t39.5 -21.5
q28 0 52.5 17.5t40.5 44t20 54.5q3 18 -1 34t-15 26t-31 10q-24 0 -48 -15.5t-41.5 -42t-22.5 -59.5v0z" />
    <glyph glyph-name="A" unicode="A" horiz-adv-x="799" 
d="M-4 0q-11 0 -11.5 10t10.5 32l339 682q6 12 15.5 15t22.5 3h197q13 0 18 -10t7 -22l145 -681q2 -10 -1 -19.5t-14 -9.5h-196q-14 0 -19 22l-23 113q-1 9 -13 9h-210q-12 0 -19 -13l-60 -121q-3 -6 -7 -8t-15 -2h-166v0zM446 314q17 0 12 20l-36 167q-1 10 -6 10t-10 -9
l-83 -172q-4 -10 -2 -13t11 -3h114z" />
    <glyph glyph-name="B" unicode="B" horiz-adv-x="739" 
d="M32 0q-10 0 -12.5 6t-0.5 22l97 694q3 20 24 20h298q143 0 218.5 -45.5t75.5 -131.5q0 -74 -44 -116.5t-111 -65.5q-7 -2 -7.5 -5.5t4.5 -5.5q68 -23 98 -59.5t30 -89.5q0 -69 -29 -113t-78.5 -68t-110 -33t-123.5 -9h-329v0zM366 150q19 0 37.5 7t34 20.5t24.5 31
t9 38.5q0 16 -8 27t-24 17.5t-39 6.5h-99q-10 0 -14 -4.5t-6 -15.5l-16 -112q-1 -10 1.5 -13t9.5 -3h90zM413 452q23 0 44 11.5t35 32t14 45.5t-20 38t-52 13h-87q-13 0 -18.5 -5t-7.5 -16l-13 -103q-1 -10 1 -13t9 -3h95z" />
    <glyph glyph-name="C" unicode="C" horiz-adv-x="737" 
d="M445 752q87 0 150.5 -31.5t99.5 -85.5t39 -124q1 -24 -18 -25l-169 -10q-16 -1 -18 30q-3 40 -19.5 66t-63.5 26q-42 0 -71.5 -22t-49 -58t-30.5 -79t-15.5 -85.5t-4.5 -77.5q0 -68 23 -95t68 -27q53 0 97 27t75 89q8 17 31 11l135 -32q12 -3 -1 -39q-5 -14 -21 -40.5
t-44 -57.5t-69 -58.5t-95 -45.5t-122 -18q-97 0 -166.5 42t-106 115.5t-36.5 169.5q0 70 16.5 134.5t49.5 119t81.5 95.5t112.5 63.5t142 22.5v0z" />
    <glyph glyph-name="D" unicode="D" horiz-adv-x="771" 
d="M48 0q-15 0 -22.5 10t-5.5 26l96 687q2 12 6.5 15.5t18.5 3.5h250q121 0 202.5 -40.5t123.5 -111.5t42 -161q0 -128 -56 -225t-156.5 -150.5t-235.5 -53.5h-263v0zM338 157q64 0 105 39t60.5 103.5t19.5 142.5q0 47 -15 79t-42 48t-65 16h-59q-18 0 -21 -20l-53 -389
q-1 -9 2 -14t11 -5h57z" />
    <glyph glyph-name="E" unicode="E" horiz-adv-x="671" 
d="M117 725q2 11 5 14t12 3h544q19 0 14 -27l-17 -116q-1 -12 -6 -16.5t-19 -4.5h-310q-9 0 -13 -3.5t-6 -14.5l-13 -92q-1 -10 1.5 -12.5t9.5 -2.5h189q11 0 13.5 -4t0.5 -13l-18 -131q-1 -13 -16 -13h-193q-12 0 -15 -16l-14 -99q-1 -13 7 -13h333q11 0 13.5 -4t0.5 -15
l-17 -129q-1 -9 -5 -12.5t-17 -3.5h-538q-28 0 -24 31l98 694v0z" />
    <glyph glyph-name="F" unicode="F" horiz-adv-x="650" 
d="M117 725q2 11 5.5 14t11.5 3h541q14 0 11 -19l-18 -124q-1 -12 -5.5 -16.5t-18.5 -4.5h-309q-7 0 -10 -4t-5 -18l-14 -97q-1 -9 1 -11.5t10 -2.5h195q8 0 10.5 -2.5t1.5 -10.5l-19 -132q-1 -9 -5 -11.5t-15 -2.5h-190q-7 0 -10.5 -3.5t-5.5 -17.5l-34 -242
q-2 -15 -6.5 -19t-19.5 -4h-181q-16 0 -19 5.5t0 25.5l98 694v0z" />
    <glyph glyph-name="G" unicode="G" horiz-adv-x="761" 
d="M349 -10q-96 0 -165 40t-106 111.5t-37 166.5q0 93 30 173.5t85 141.5t130.5 95t166.5 34q92 0 156 -34t98 -86.5t37 -109.5q0 -24 -9 -25l-177 -25q-5 -1 -8 5.5t-7 25.5q-5 25 -15.5 46.5t-30.5 34.5t-54 13q-48 0 -80 -30.5t-51.5 -79t-28 -105t-8.5 -108.5
q0 -76 26.5 -102t69.5 -26q23 0 41.5 5.5t33.5 15t27.5 23.5t22.5 30l5 8q9 14 -10 14h-96q-11 0 -10 16l12 106q1 13 12 13l306 -2q15 0 19 -4t2 -17l-48 -340q-2 -14 -18 -14h-35q-17 0 -25 17l-30 59q-4 7 -10 6t-14 -9q-17 -17 -44 -36.5t-66.5 -33t-96.5 -13.5v0z" />
    <glyph glyph-name="H" unicode="H" horiz-adv-x="762" 
d="M299 297q-7 0 -11.5 -4t-6.5 -17l-36 -253q-2 -16 -8.5 -19.5t-23.5 -3.5h-175q-16 0 -18.5 4.5t-1.5 17.5l99 703q2 11 5.5 14t11.5 3h199q8 0 10 -3.5t0 -13.5l-33 -239q-1 -10 1.5 -13.5t10.5 -3.5h176q8 0 12 8t5 18l33 232q2 10 6 12.5t12 2.5h197q8 0 10 -5.5
t0 -23.5l-98 -694q-1 -13 -5 -16t-20 -3h-175q-17 0 -22 6t-3 22l36 260q1 9 -15 9h-172z" />
    <glyph glyph-name="I" unicode="I" horiz-adv-x="331" 
d="M328 742q17 0 14 -27l-97 -692q-2 -16 -8.5 -19.5t-23.5 -3.5h-174q-16 0 -18.5 9t-1.5 22l98 694q2 11 5.5 14t11.5 3h194z" />
    <glyph glyph-name="J" unicode="J" horiz-adv-x="467" 
d="M412 206q-11 -82 -44 -129t-87 -67t-130 -20q-34 0 -65.5 3.5t-62.5 11.5q-19 5 -25.5 10t-4.5 16l28 131q2 11 6.5 15.5t12.5 2.5q15 -2 28 -3.5t26 -1.5q40 0 66.5 24t33.5 75l64 451q2 11 5.5 14t12.5 3h195q17 0 12 -27l-71 -509v0z" />
    <glyph glyph-name="K" unicode="K" horiz-adv-x="772" 
d="M709 26q10 -26 -17 -26h-195q-23 0 -28 25l-84 278q-3 8 -8.5 1.5t-13.5 -16.5l-84 -90q-4 -4 -7.5 -10t-5.5 -14l-21 -151q-1 -13 -8 -18t-24 -5h-176q-13 0 -16 9t-2 22l98 694q2 11 5.5 14t11.5 3h190q9 0 14.5 -8.5t3.5 -18.5l-35 -253q-2 -12 2 -6.5t10 12.5
l222 258q10 11 17.5 13.5t25.5 2.5h172q17 0 20 -6.5t-8 -17.5l-202 -211q-7 -8 -10.5 -14.5t-1.5 -17.5l155 -449v0z" />
    <glyph glyph-name="L" unicode="L" horiz-adv-x="643" 
d="M116 722q3 20 18 20h196q17 0 12 -27l-75 -534q-3 -17 11 -17h304q18 0 15 -25l-17 -123q-1 -10 -6 -13t-17 -3h-514q-27 0 -24 31l97 691v0z" />
    <glyph glyph-name="M" unicode="M" horiz-adv-x="977" 
d="M35 0q-12 0 -15 6t0 28l97 691q2 12 5 14.5t14 2.5h280q13 0 19 -6t8 -17l60 -316q1 -6 4.5 -5.5t5.5 5.5l141 315q9 24 27 24h296q16 0 13 -16l-99 -703q-2 -16 -8 -19.5t-23 -3.5h-169q-15 0 -22 6t-4 25l62 439q2 8 -1.5 8t-8.5 -10l-209 -455q-4 -8 -9.5 -10.5
t-13.5 -2.5h-105q-9 0 -14.5 4.5t-8.5 18.5l-81 442q-2 11 -7 11t-7 -9l-64 -451q-1 -10 -5.5 -13t-14.5 -3h-143v0z" />
    <glyph glyph-name="N" unicode="N" horiz-adv-x="761" 
d="M762 742q14 0 12 -16l-101 -714q-1 -12 -20 -12h-137q-7 0 -12.5 5t-11.5 15l-225 373q-3 5 -7 4t-6 -12l-52 -366q-1 -12 -5.5 -15.5t-18.5 -3.5h-144q-11 0 -14 7.5t-2 18.5l99 699q2 11 5.5 14t14.5 3h163q12 0 18.5 -6t12.5 -17l195 -332q5 -9 11.5 -7.5t7.5 12.5
l47 335q2 10 5.5 12.5t14.5 2.5h150z" />
    <glyph glyph-name="O" unicode="O" horiz-adv-x="780" 
d="M360 -10q-100 0 -171 38.5t-109 109.5t-38 168q0 17 1 36t4 38q16 114 71.5 197.5t141 129t191.5 45.5q98 0 169 -39.5t109 -111.5t38 -170q0 -17 -1 -35.5t-4 -37.5q-16 -112 -70.5 -195t-139.5 -128t-192 -45v0zM366 146q68 0 106 53.5t55 177.5q4 29 6 53.5t2 45.5
q0 65 -21 93.5t-68 28.5q-68 0 -107 -57.5t-57 -185.5q-4 -28 -6 -51.5t-2 -43.5q0 -62 22 -88t70 -26v0z" />
    <glyph glyph-name="P" unicode="P" horiz-adv-x="731" 
d="M295 266q-10 0 -13.5 -4.5t-4.5 -12.5l-32 -226q-2 -16 -8.5 -19.5t-23.5 -3.5h-177q-23 0 -17 31l98 694q2 11 5 14t12 3h331q76 0 137.5 -24t98.5 -72t37 -119q0 -81 -40.5 -139.5t-109.5 -90t-156 -31.5h-137zM507 526q0 27 -19 41.5t-51 14.5h-93q-13 0 -17.5 -5.5
t-6.5 -16.5l-16 -118q-1 -11 1.5 -13.5t9.5 -2.5h98q27 0 48 15t33.5 38t12.5 47v0z" />
    <glyph glyph-name="Q" unicode="Q" horiz-adv-x="782" 
d="M47 380q16 114 71.5 197.5t141 129t191.5 45.5q99 0 170 -39.5t109 -111.5t38 -170q0 -17 -1 -35.5t-4 -37.5q-12 -86 -47.5 -156.5t-94.5 -122.5q-11 -9 -7 -16q6 -9 19 -16t30 -12t36 -8q9 -1 13 -4.5t2 -11.5l-16 -114q-2 -16 -8.5 -20.5t-30.5 -4.5q-43 0 -81.5 13
t-70.5 40t-57 68q-6 10 -21 6q-19 -5 -35.5 -7t-33.5 -2q-100 0 -171 38.5t-109 109.5t-38 168q0 17 1 36t4 38v0zM282 356q-4 -28 -6 -52t-2 -44q0 -62 22 -88t70 -26q69 0 107 54t55 178q4 29 6 53.5t2 44.5q0 65 -21.5 93.5t-68.5 28.5q-68 0 -107 -57t-57 -185v0z" />
    <glyph glyph-name="R" unicode="R" horiz-adv-x="739" 
d="M667 27q9 -27 -17 -27h-194q-10 0 -16.5 5.5t-9.5 20.5l-58 258q-1 6 -4 8.5t-11 2.5h-60q-13 0 -15 -12l-37 -260q-2 -16 -10.5 -19.5t-25.5 -3.5h-168q-15 0 -19 9t-3 22l98 694q2 11 5 14t12 3h334q134 0 207 -50.5t73 -140.5q0 -49 -19.5 -93t-53.5 -78.5t-80 -52.5
q-13 -5 -15.5 -9.5t-0.5 -10.5l88 -280v0zM417 444q29 0 50.5 13.5t33.5 34.5t12 45q0 29 -21 43t-52 14h-102q-12 0 -15 -20l-17 -115q-1 -10 2 -12.5t9 -2.5h100v0z" />
    <glyph glyph-name="S" unicode="S" horiz-adv-x="701" 
d="M539 552q-18 16 -51 31t-86 15q-33 0 -57.5 -7t-38 -21t-13.5 -34q0 -15 9.5 -25.5t23.5 -17t27 -10.5l160 -52q79 -25 118.5 -66.5t39.5 -105.5q0 -87 -47 -147t-126 -91t-177 -31q-117 0 -195.5 38.5t-113.5 102.5q-5 11 -5.5 17t8.5 11l106 65q14 8 24.5 4t18.5 -14
q23 -25 44 -42.5t51.5 -26t81.5 -8.5q28 0 52.5 6t40 20.5t15.5 40.5q0 20 -16 33t-45 21l-147 45q-76 23 -118 72t-42 115q0 60 26.5 108t72.5 82.5t105 53t125 18.5t119.5 -16t93 -41.5t61.5 -55.5q7 -10 8 -17t-7 -12l-115 -74q-7 -4 -14.5 2t-16.5 14v0z" />
    <glyph glyph-name="T" unicode="T" horiz-adv-x="704" 
d="M93 725q2 10 6 13.5t17 3.5h608q13 0 15.5 -4t0.5 -13l-18 -131q-1 -8 -5.5 -10.5t-14.5 -2.5h-177q-10 0 -13 -3.5t-5 -12.5l-77 -546q-1 -11 -6 -15t-13 -4h-188q-13 0 -17 6t-2 20l77 543q1 12 -10 12h-179q-20 0 -17 16z" />
    <glyph glyph-name="U" unicode="U" horiz-adv-x="728" 
d="M687 287q-16 -115 -64 -180t-122 -91t-168 -26q-156 0 -222 63.5t-66 180.5q0 20 2 41.5t5 43.5l57 406q2 11 5.5 14t11.5 3h190q9 0 14.5 -8.5t3.5 -18.5l-60 -432q-1 -12 -2.5 -22.5t-1.5 -20.5q0 -51 23.5 -71t63.5 -20q33 0 63 14t52 47t30 88l60 427q2 11 5 14t12 3
h150q9 0 14.5 -8.5t3.5 -18.5l-60 -428v0z" />
    <glyph glyph-name="V" unicode="V" horiz-adv-x="751" 
d="M780 742q26 0 14 -25l-333 -697q-6 -13 -14 -16.5t-23 -3.5h-162q-15 0 -23 4t-10 16l-138 698q-6 24 17 24h197q15 0 19 -26l72 -432q3 -17 10 -1l190 443q4 10 10 13t15 3h159v0z" />
    <glyph glyph-name="W" unicode="W" horiz-adv-x="1109" 
d="M1133 742q20 0 21.5 -9.5t-9.5 -35.5l-299 -677q-7 -13 -14 -16.5t-22 -3.5h-138q-15 0 -23 4t-10 17l-57 359q-1 9 -4.5 8.5t-7.5 -8.5l-157 -360q-6 -13 -13 -16.5t-23 -3.5h-145q-28 0 -32 24l-110 683q-3 17 3 26t25 9h167q16 0 22.5 -7.5t7.5 -18.5l54 -367
q2 -10 5 -10.5t7 9.5l160 378q4 10 10 13t22 3h144q16 0 20 -7t5 -19l57 -375q1 -6 5 -6t7 8l157 383q4 10 9.5 13t21.5 3h134v0z" />
    <glyph glyph-name="X" unicode="X" horiz-adv-x="756" 
d="M686 46q15 -29 11 -37.5t-25 -8.5h-180q-15 0 -24 3.5t-14 15.5l-86 194q-5 11 -10 10.5t-13 -12.5l-141 -196q-7 -11 -17.5 -13t-25.5 -2h-149q-21 0 -24.5 13t18.5 43l241 305q10 11 12.5 18t-1.5 18l-161 320q-5 11 -1.5 18t17.5 7h189q17 0 24 -4t12 -17l70 -162
q7 -17 19 0l119 167q8 11 15.5 13.5t23.5 2.5h164q18 0 16.5 -13.5t-9.5 -24.5l-232 -290q-11 -13 -12 -20t3 -16l171 -332v0z" />
    <glyph glyph-name="Y" unicode="Y" horiz-adv-x="774" 
d="M803 742q13 0 15.5 -8t-2.5 -16l-291 -382q-8 -10 -12.5 -22.5t-8.5 -44.5l-35 -246q-2 -16 -8.5 -19.5t-23.5 -3.5h-176q-13 0 -16.5 5.5t-2.5 18.5l38 270q2 16 1 24t-6 19l-181 382q-6 12 -3.5 17.5t18.5 5.5h201q14 0 20 -7t11 -19l93 -222q4 -10 11 0l160 232
q8 11 13.5 13.5t19.5 2.5h165v0z" />
    <glyph glyph-name="Z" unicode="Z" horiz-adv-x="714" 
d="M19 0q-15 0 -21 5.5t-5 20.5l6 50q2 14 6.5 24t17.5 26l372 440q7 8 8.5 9.5t-9.5 1.5h-265q-25 0 -22 30l17 120q2 10 5 12.5t11 2.5h593q17 0 14 -22l-8 -55q-1 -11 -4.5 -18.5t-13.5 -21.5l-386 -450q-9 -9 2 -9h309q11 0 14 -3t1 -14l-19 -133q-1 -9 -5 -12.5
t-17 -3.5h-601v0z" />
    <glyph glyph-name="bracketleft" unicode="[" horiz-adv-x="336" 
d="M19 -165q-13 0 -21.5 10t-7.5 22l121 859q2 11 6 13.5t18 2.5h234q8 0 13 -6t3 -13l-11 -80q-1 -7 -3 -7.5t-9 -0.5h-76q-13 0 -22.5 -9.5t-11.5 -23.5l-90 -645q-2 -13 0.5 -14t14.5 -1h77q9 0 14.5 -7t4.5 -15l-11 -73q-1 -10 -3 -11t-12 -1h-228v0z" />
    <glyph glyph-name="backslash" unicode="\" horiz-adv-x="380" 
d="M246 0q-28 0 -33 31l-146 683q-4 17 -1.5 22.5t17.5 5.5h83q9 0 16.5 -7.5t8.5 -15.5l151 -705q2 -9 0 -11.5t-13 -2.5h-83v0z" />
    <glyph glyph-name="bracketright" unicode="]" horiz-adv-x="336" 
d="M-26 -165q-8 0 -12.5 6t-3.5 13l11 80q1 7 3 7.5t9 0.5h76q13 0 22.5 9.5t11.5 23.5l90 645q2 14 -0.5 14.5t-14.5 0.5h-77q-9 0 -14.5 7t-4.5 15l11 73q2 10 3.5 11t11.5 1h228q14 0 22.5 -10t6.5 -22l-121 -859q-1 -11 -5.5 -13.5t-18.5 -2.5h-234v0z" />
    <glyph glyph-name="asciicircum" unicode="^" horiz-adv-x="475" 
d="M258 324q-3 11 -11 6t-13 -16l-106 -190q-4 -7 -9 -5.5t-15 1.5h-83q-9 0 -13.5 9t-0.5 20l207 360q14 23 36.5 29t43.5 -4t27 -34l107 -364q3 -11 1 -13.5t-13 -2.5h-79q-9 0 -18 3.5t-9 10.5z" />
    <glyph glyph-name="underscore" unicode="_" horiz-adv-x="562" 
d="M465 -138q-1 -15 -8 -18.5t-24 -3.5h-423q-15 0 -21 9t-4 22l13 92q2 11 5 14t12 3h445q8 0 14 -8.5t4 -17.5z" />
    <glyph glyph-name="grave" unicode="`" horiz-adv-x="320" 
d="M104 739q4 9 10.5 11t13.5 -1l222 -101q9 -4 11.5 -9t-1.5 -14l-21 -47q-4 -8 -10 -9t-18 2l-225 56q-16 4 -19.5 10t0.5 17l37 85v0z" />
    <glyph glyph-name="a" unicode="a" horiz-adv-x="573" 
d="M296 40q-25 -27 -65 -38.5t-84 -11.5q-70 0 -109 38t-39 95q0 59 31.5 99t81.5 64.5t108 35t110 10.5h7q19 0 22 20l3 17q1 4 1 7.5v6.5q0 20 -11 29t-34 9q-24 0 -49.5 -8.5t-41.5 -40.5q-3 -6 -8 -8t-18 0l-127 26q-8 2 -12.5 10.5t4.5 31.5q32 59 99.5 83.5
t162.5 24.5q85 0 134.5 -18t70.5 -50t21 -74q0 -7 -0.5 -14t-1.5 -15l-49 -348q-2 -15 -5 -18t-17 -3h-137q-13 0 -16 9t-5 23l-1 12q-2 22 -26 -4v0zM342 230q2 9 1 11t-10 1l-14 -1q-15 -1 -36 -6t-41 -15t-33 -26t-13 -39q0 -16 11 -27.5t33 -11.5q23 0 40 6t27 14
t18.5 19t9.5 22z" />
    <glyph glyph-name="b" unicode="b" horiz-adv-x="616" 
d="M35 0q-16 0 -22 9t-5 22l98 694q2 11 5.5 14t11.5 3h171q9 0 10.5 -8.5t-0.5 -18.5l-30 -215q-1 -8 2.5 -9.5t12.5 5.5q24 18 45.5 27.5t42.5 13t41 3.5q58 0 97.5 -26t60.5 -73.5t21 -114.5q0 -58 -14.5 -117.5t-46 -109t-81.5 -79.5t-120 -30q-29 0 -55.5 10t-49 28.5
t-39.5 45.5q-3 5 -9 5t-11 -14l-16 -44q-4 -13 -10 -17t-16 -4h-94zM229 179q-3 -25 2.5 -41t18.5 -23.5t32 -7.5q36 0 59 25.5t35 63.5t17 77.5t5 67.5q0 44 -13.5 60.5t-39.5 16.5t-47.5 -12.5t-39.5 -31.5z" />
    <glyph glyph-name="c" unicode="c" horiz-adv-x="556" 
d="M329 540q74 0 121.5 -28t71.5 -69.5t25 -83.5q0 -9 -3.5 -12t-16.5 -4l-132 -7q-8 -1 -11 6.5t-5 19.5q-1 11 -3.5 23t-12 20.5t-31.5 8.5q-34 0 -56 -22t-35 -56t-18.5 -70t-5.5 -64q0 -49 18 -68.5t50 -19.5q44 0 68 20t48 60q3 5 18 3l92 -18q8 -1 11 -9.5t-2 -23.5
q-6 -17 -24 -43t-49 -52t-76 -43.5t-104 -17.5q-74 0 -130 30t-87 84t-31 125q0 63 22.5 119.5t63.5 99.5t98 67.5t126 24.5v0z" />
    <glyph glyph-name="d" unicode="d" horiz-adv-x="616" 
d="M370 0q-10 0 -18 4t-6 17l3 19q2 8 -2.5 9.5t-12.5 -5.5q-21 -17 -43 -29.5t-46 -18.5t-53 -6q-79 0 -126 54t-47 158q0 68 18 128.5t51 108t78 74.5t99 27q37 0 64.5 -14t51.5 -46q7 -9 15.5 -7.5t12.5 29.5l32 222q2 11 8 14.5t15 3.5h162q16 0 12 -29l-98 -691
q-1 -13 -7.5 -17.5t-22.5 -4.5h-140zM394 382q-13 19 -26.5 26.5t-33.5 7.5q-36 0 -58.5 -24t-35 -60.5t-17.5 -74.5t-5 -66q0 -30 6.5 -48t19.5 -25.5t31 -7.5q22 0 41 10t32 26.5t15 35.5z" />
    <glyph glyph-name="e" unicode="e" horiz-adv-x="590" 
d="M272 -10q-75 0 -132 30t-89.5 83t-32.5 123q0 62 24 118t66.5 100.5t99 70t122.5 25.5q72 0 126.5 -29t85 -83t30.5 -130q0 -13 -1 -27t-3 -28q-1 -9 -6 -11.5t-18 -2.5h-309q-12 0 -15 -15t-3 -27q0 -34 24 -49.5t61 -15.5q29 0 56 12t58 42q6 6 12.5 5.5t15.5 -4.5
l85 -37q26 -11 8 -32q-44 -48 -84 -73.5t-83.5 -35t-97.5 -9.5v0zM365 327q10 0 17.5 8.5t7.5 26.5q0 20 -12.5 40.5t-44.5 20.5q-20 0 -40.5 -11t-35 -32.5t-18.5 -52.5h126z" />
    <glyph glyph-name="f" unicode="f" horiz-adv-x="418" 
d="M417 530q13 0 16.5 -4.5t1.5 -13.5l-14 -99q-3 -18 -21 -18h-69q-8 0 -11 -18l-51 -361q-1 -11 -4.5 -13.5t-12.5 -2.5h-163q-8 0 -14 8t-5 18l51 361q2 8 -7 8h-61q-10 0 -12 7.5t-1 17.5l13 94q2 9 5.5 12.5t16.5 3.5h48q8 0 14.5 7t7.5 17l7 53q9 65 54.5 100
t118.5 35h113q14 0 22.5 -6t6.5 -18l-11 -92q-1 -14 -19 -14h-40q-17 0 -35.5 -13t-21.5 -34l-3 -22q-1 -13 14 -13h66v0z" />
    <glyph glyph-name="g" unicode="g" horiz-adv-x="653" 
d="M224 -174q-125 0 -199.5 29t-74.5 84q0 38 32.5 59.5t72.5 32.5q12 4 13.5 9.5t-9.5 9.5q-25 9 -38.5 25.5t-13.5 45.5t18.5 50t46 36t52.5 23q13 5 15.5 9.5t-8.5 8.5q-37 13 -59 42.5t-22 70.5q0 48 22.5 81.5t60.5 55t84.5 31t94.5 9.5q77 0 120 -16t64 -36
q8 -7 18.5 1.5t18.5 18.5q16 19 38.5 31t44 18.5t33.5 6.5q11 0 18 -3.5t5 -17.5l-12 -90q-2 -17 -7 -21.5t-14 -3.5q-13 1 -30 1.5t-23 0.5q-36 0 -25 -25q2 -4 2.5 -11t0.5 -15q0 -47 -26 -79t-67.5 -51.5t-88.5 -28.5t-89 -9q-7 0 -23.5 -1t-35.5 -4.5t-32.5 -10.5
t-13.5 -19q0 -7 9 -9t28 -4l151 -9q103 -6 150 -44.5t47 -100.5q0 -45 -22 -77t-58.5 -52t-82 -31.5t-94 -16t-92.5 -4.5v0zM236 -86q42 0 72.5 5t49.5 13t28.5 19t9.5 23q0 14 -13 20.5t-45 7.5l-144 7q-12 0 -31 -5t-34 -15.5t-15 -28.5q0 -21 27.5 -33.5t94.5 -12.5v0z
M297 300q25 0 45 11.5t32 32t12 46.5q0 24 -18.5 39.5t-54.5 15.5q-24 0 -44 -13t-32 -34t-12 -46q0 -21 20 -36.5t52 -15.5v0z" />
    <glyph glyph-name="h" unicode="h" horiz-adv-x="605" 
d="M35 0q-14 0 -20.5 9t-5.5 22l98 694q2 11 7.5 14t14.5 3h160q17 0 14 -22l-33 -235q-3 -16 8 -8q33 25 61.5 38.5t54 19t49.5 5.5q68 0 105.5 -36.5t37.5 -100.5q0 -8 -0.5 -16.5t-2.5 -17.5l-49 -345q-2 -15 -7.5 -19.5t-21.5 -4.5h-147q-28 0 -23 31l46 326q1 3 1 5.5
v4.5q0 17 -10 24.5t-29 7.5q-17 0 -33 -6.5t-29.5 -19t-25.5 -29.5l-47 -321q-2 -16 -8 -19.5t-24 -3.5h-141z" />
    <glyph glyph-name="i" unicode="i" horiz-adv-x="282" 
d="M207 23q-2 -16 -8.5 -19.5t-23.5 -3.5h-141q-15 0 -21 9t-5 22l68 482q2 11 5.5 14t12.5 3h169q8 0 10.5 -8.5t1.5 -17.5zM288 597q-2 -15 -9 -19t-24 -4h-151q-11 0 -14 9.5t-1 22.5l17 113q3 23 20 23h168q8 0 10 -8.5t0 -18.5z" />
    <glyph glyph-name="j" unicode="j" horiz-adv-x="283" 
d="M208 23q-14 -99 -69.5 -146t-159.5 -47q-45 0 -59.5 7.5t-12.5 23.5l14 102q1 8 5 14t14 8l36 7q10 3 20.5 14t14.5 36l66 471q2 11 5.5 14t12.5 3h162q9 0 14.5 -8.5t4.5 -17.5l-68 -481v0zM288 597q-2 -15 -9 -19t-24 -4h-151q-11 0 -14 9.5t-1 22.5l17 113q3 23 20 23
h168q8 0 10 -8.5t0 -18.5z" />
    <glyph glyph-name="k" unicode="k" horiz-adv-x="631" 
d="M579 23q3 -8 0.5 -15.5t-16.5 -7.5h-171q-13 0 -19.5 9.5t-10.5 21.5l-48 168q-6 19 -22 4l-54 -49q-4 -4 -9 -11t-7 -19l-14 -101q-2 -16 -8 -19.5t-23 -3.5h-141q-16 0 -22 9t-5 22l98 694q2 11 5.5 14t11.5 3h170q9 0 11 -8.5t0 -18.5l-52 -375q-1 -4 1 -1.5t8 9.5
l174 169q9 8 17 10.5t15 2.5h137q17 0 23 -11t-5 -22l-150 -129q-7 -8 -11.5 -15t-0.5 -21l118 -309v0z" />
    <glyph glyph-name="l" unicode="l" horiz-adv-x="284" 
d="M208 23q-2 -16 -8.5 -19.5t-23.5 -3.5h-142q-15 0 -21.5 9t-5.5 22l103 694q2 11 5 14t12 3h167q15 0 12 -22z" />
    <glyph glyph-name="m" unicode="m" horiz-adv-x="928" 
d="M34 0q-14 0 -20.5 9t-5.5 22l68 482q2 11 5.5 14t11.5 3h170q9 0 10 -5t-1 -15l-5 -35q-2 -14 9 -5q26 21 53 37t56 25t57 9q50 0 83.5 -24.5t45.5 -68.5q2 -5 6.5 -3.5t14.5 11.5q23 23 53.5 42t63 30.5t60.5 11.5q63 0 101 -37.5t38 -103.5v-15t-2 -17l-48 -343
q-2 -15 -8 -19.5t-22 -4.5h-146q-28 0 -23 31l45 317q1 5 1.5 10t0.5 8q0 17 -10.5 25t-28.5 8q-14 0 -28.5 -5.5t-26.5 -15t-22 -22.5q-5 -7 -9.5 -14.5t-5.5 -14.5l-43 -303q-2 -15 -7.5 -19.5t-21.5 -4.5h-146q-12 0 -18.5 8.5t-4.5 22.5l46 326q3 23 -7 32.5t-31 9.5
q-17 0 -32.5 -6.5t-29.5 -19t-26 -29.5l-47 -321q-2 -16 -8 -19.5t-24 -3.5h-141v0z" />
    <glyph glyph-name="n" unicode="n" horiz-adv-x="604" 
d="M25 0q-13 0 -15.5 9t-1.5 22l68 482q2 11 5 14t12 3h171q6 0 9 -2.5t1 -12.5l-7 -45q-1 -13 12 -1q35 31 77.5 51t85.5 20q65 0 104 -38.5t39 -100.5q0 -7 -0.5 -14t-1.5 -15l-49 -348q-2 -15 -8.5 -19.5t-22.5 -4.5h-153q-13 0 -15 8.5t0 22.5l45 320q1 5 1.5 9t0.5 6
q0 17 -10.5 25t-29.5 8q-17 0 -33 -6.5t-29.5 -19t-25.5 -29.5l-47 -321q-2 -16 -9 -19.5t-25 -3.5h-148v0z" />
    <glyph glyph-name="o" unicode="o" 
d="M268 -10q-76 0 -132 30t-86.5 84t-30.5 124t25 127.5t68.5 98.5t100 63.5t118.5 22.5q77 0 133 -31t86 -85.5t30 -125.5q0 -88 -41 -158t-111.5 -110t-159.5 -40v0zM271 118q31 0 56.5 24t41 73t15.5 124q0 41 -13 59t-42 18q-30 0 -55.5 -24t-41 -73.5t-15.5 -125.5
q0 -40 13 -57.5t41 -17.5v0z" />
    <glyph glyph-name="p" unicode="p" horiz-adv-x="617" 
d="M-5 -165q-8 0 -10 8.5t0 19.5l90 647q2 13 6 16.5t20 3.5h148q14 0 20 -3t4 -16l-3 -21q-1 -6 6 -4.5t14 6.5q23 16 43.5 26.5t43 16t51.5 5.5q74 0 121.5 -52t47.5 -159q0 -55 -12 -114.5t-39.5 -110.5t-73.5 -82.5t-113 -31.5q-37 0 -69 15t-58 46q-10 12 -16 3t-8 -24
l-25 -181q-1 -10 -4 -12t-12 -2h-172v0zM281 111q37 0 60 25.5t35.5 63.5t17.5 77.5t5 67.5q0 30 -7 46t-19.5 22t-31.5 6q-21 0 -40.5 -9t-32 -23t-14.5 -30l-32 -211q11 -18 24.5 -26.5t34.5 -8.5v0z" />
    <glyph glyph-name="q" unicode="q" horiz-adv-x="616" 
d="M329 -165q-15 0 -11 26l23 164q2 8 0 10t-12 -4q-31 -18 -63.5 -29.5t-63.5 -11.5q-86 0 -134.5 56t-48.5 160q0 54 14 112.5t45 109t80 82t118 31.5q39 0 68.5 -11.5t51 -31.5t34.5 -46q3 -6 8 -4t12 17l24 46q5 12 10.5 15.5t14.5 3.5h92q12 0 16 -6t1 -26l-91 -647
q-1 -11 -9 -13.5t-16 -2.5h-163v0zM272 110q26 0 46 10.5t37 26.5l32 203q4 25 -1 41.5t-17.5 25.5t-31.5 9q-36 0 -59 -25.5t-36 -63.5t-18.5 -77.5t-5.5 -68.5q0 -46 14.5 -63.5t39.5 -17.5v0z" />
    <glyph glyph-name="r" unicode="r" horiz-adv-x="454" 
d="M34 0q-15 0 -21 9t-5 22l68 482q2 11 5 14t12 3h159q8 0 13 -6t3 -20l-6 -36q-1 -12 3 -13t11 6q20 22 47 40t55 28.5t49 10.5q20 0 32 -3t10 -14l-20 -146q-2 -15 -5.5 -18.5t-10.5 -2.5q-26 4 -49.5 5.5t-34.5 1.5q-18 0 -36 -6.5t-33 -17.5t-24.5 -24t-11.5 -26
l-37 -266q-2 -16 -8.5 -19.5t-23.5 -3.5h-141v0z" />
    <glyph glyph-name="s" unicode="s" horiz-adv-x="541" 
d="M250 -10q-107 0 -167 35.5t-83 81.5q-9 19 9 28l82 39q13 6 22 5t17 -14q13 -19 36 -36.5t77 -17.5q9 0 24 1t29.5 4.5t25 12t10.5 23.5q0 10 -9.5 16.5t-35.5 12.5l-99 23q-67 16 -104 48t-37 90q0 66 36 110t95 66t128 22q85 0 136.5 -32.5t76.5 -72.5q4 -6 4 -13.5
t-10 -12.5l-84 -37q-10 -4 -16 -1.5t-19 16.5q-12 14 -34.5 25.5t-56.5 11.5q-19 0 -36.5 -3.5t-28.5 -11t-11 -20.5q0 -11 6 -16.5t26 -10.5l103 -22q80 -17 114 -58.5t34 -94.5q0 -51 -22.5 -88.5t-59.5 -61.5t-83.5 -35.5t-94.5 -11.5v0z" />
    <glyph glyph-name="t" unicode="t" horiz-adv-x="462" 
d="M242 0q-69 0 -112.5 32.5t-43.5 87.5v9.5t1 9.5l35 242q1 8 -5 11t-15 3h-50q-16 0 -12 28l13 94q2 10 6 11.5t14 1.5h59q6 0 11.5 5.5t6.5 12.5l38 148q4 14 22 14h147q8 0 11.5 -5.5t1.5 -22.5l-21 -138q-1 -5 3 -9t9 -4h88q10 0 17 -3.5t5 -13.5l-14 -103
q-1 -10 -6 -13t-18 -3h-93q-16 0 -19 -19l-27 -192q-1 -3 -1 -6v-6q0 -19 14 -27t46 -8h43q8 0 14 -9t4 -17l-12 -80q-3 -25 -25 -26q-21 -2 -44.5 -3t-46.5 -1.5t-44 -0.5v0z" />
    <glyph glyph-name="u" unicode="u" horiz-adv-x="601" 
d="M154 -10q-60 0 -97 37.5t-37 102.5q0 8 0.5 17t1.5 16l48 343q2 15 8 19.5t22 4.5h146q13 0 19 -9t4 -23l-46 -322q-1 -4 -1 -7.5v-5.5q0 -18 10 -25.5t26 -7.5q26 0 48.5 14t38.5 31l49 332q2 15 8.5 19t23.5 4h143q14 0 21 -9t5 -23l-72 -482q-1 -10 -4.5 -13t-12.5 -3
h-158q-8 0 -13.5 3t-4.5 13l7 44q1 6 -3.5 6t-12.5 -7q-37 -36 -78.5 -52.5t-88.5 -16.5v0z" />
    <glyph glyph-name="v" unicode="v" horiz-adv-x="591" 
d="M590 530q12 0 17.5 -11.5t0.5 -22.5l-262 -476q-7 -13 -14.5 -16.5t-22.5 -3.5h-94q-15 0 -23.5 8.5t-10.5 21.5l-129 476q-5 24 17 24h169q9 0 16.5 -8.5t8.5 -16.5l56 -231q4 -14 16 11l117 230q10 15 26 15h112v0z" />
    <glyph glyph-name="w" unicode="w" horiz-adv-x="832" 
d="M831 530q12 0 17.5 -11.5t0.5 -22.5l-238 -483q-4 -10 -7.5 -11.5t-14.5 -1.5h-104q-25 0 -27 27l-36 210q-2 11 -7 6t-9 -16l-101 -214q-4 -10 -8 -11.5t-15 -1.5h-107q-24 0 -26 27l-97 479q-5 24 17 24h155q9 0 16.5 -8.5t8.5 -16.5l40 -214q1 -9 6 -4t9 15l96 213
q7 15 25 15h109q8 0 15.5 -8.5t8.5 -16.5l34 -214q1 -9 6 -4t9 15l98 213q10 15 26 15h100v0z" />
    <glyph glyph-name="x" unicode="x" horiz-adv-x="622" 
d="M560 38q14 -24 12 -31t-24 -7h-162q-15 0 -25 7.5t-15 17.5l-62 111q-8 14 -13.5 11t-17.5 -17l-93 -115q-8 -10 -22.5 -12.5t-29.5 -2.5h-115q-21 0 -20 14t26 42l180 196q10 11 12.5 18.5t-2.5 18.5l-126 211q-7 11 -3.5 20.5t20.5 9.5h159q17 0 26 -7t13 -18l52 -98
q4 -7 8.5 -3t9.5 13l75 98q8 11 16 13t25 2h126q19 0 17.5 -11.5t-10.5 -22.5l-164 -186q-10 -11 -12 -18t3 -18l136 -236v0z" />
    <glyph glyph-name="y" unicode="y" horiz-adv-x="589" 
d="M34 -165q-28 0 -38 5.5t-8 19.5l14 102q1 6 10.5 11t25.5 5h71q17 0 30.5 4t22 11t12 15.5t0.5 17.5l-129 470q-9 34 17 34h183q18 0 21 -15l52 -240q3 -13 9 -12t13 14l114 228q7 14 14.5 19.5t16.5 5.5h112q22 0 8 -24l-262 -470q-35 -62 -66.5 -101.5t-66 -61t-77 -30
t-99.5 -8.5v0z" />
    <glyph glyph-name="z" unicode="z" horiz-adv-x="544" 
d="M6 0q-15 0 -19 4.5t-2 19.5l6 40q2 16 8 25t22 28l253 270q6 8 3.5 14.5t-18.5 6.5h-180q-12 0 -14.5 6t-1.5 19l12 79q2 9 9.5 13.5t15.5 4.5h440q17 0 14 -18l-7 -47q-1 -11 -7.5 -20t-17.5 -22l-258 -275q-7 -9 -2.5 -16.5t14.5 -7.5h205q20 0 17 -20l-11 -83
q-1 -9 -6 -15t-18 -6h-457v0z" />
    <glyph glyph-name="braceleft" unicode="{" horiz-adv-x="406" 
d="M243 -165q-31 0 -62.5 9t-57 26.5t-39 44t-8.5 62.5l27 197q4 24 -3 40.5t-27 25t-55 8.5q-8 0 -13 7.5t-4 18.5l8 53q2 11 3 12.5t3 1.5q59 0 88.5 22.5t35.5 67.5l26 181q7 47 38 75.5t74 41.5t82 13h80q8 0 13 -6t3 -13l-11 -80q-1 -7 -3 -7.5t-9 -0.5h-37
q-32 0 -47.5 -9.5t-21 -23t-7.5 -26.5l-27 -190q-6 -34 -26.5 -52.5t-45.5 -26.5t-47 -12q-9 0 -14.5 -2t-2.5 -4q25 -1 51.5 -10.5t43.5 -32.5t12 -65l-27 -192q-4 -28 6.5 -37.5t47.5 -9.5h34q9 0 14.5 -7t4.5 -15l-11 -73q-1 -10 -3 -11t-12 -1h-74v0z" />
    <glyph glyph-name="bar" unicode="|" horiz-adv-x="245" 
d="M24 -165q-15 0 -22 11t-5 28l134 953q2 15 6.5 17.5t17.5 2.5h93q11 0 18 -8t5 -17l-137 -975q-1 -8 -4.5 -10t-12.5 -2h-93z" />
    <glyph glyph-name="braceright" unicode="}" horiz-adv-x="406" 
d="M-26 -165q-8 0 -12.5 6t-3.5 13l11 80q1 7 3 7.5t9 0.5h37q32 0 47.5 9.5t21.5 23t7 26.5l27 190q7 34 27 52.5t45 27t47 11.5q9 0 14.5 2.5t2.5 3.5q-25 1 -51.5 10.5t-43 32.5t-12.5 65l27 192q4 29 -6 38t-48 9h-34q-9 0 -14.5 7t-4.5 15l11 73q2 10 3.5 11t11.5 1h74
q31 0 62.5 -9t57 -26.5t39 -44t8.5 -62.5l-27 -197q-3 -24 3.5 -40.5t26 -25t54.5 -8.5q8 0 13.5 -7.5t3.5 -18.5l-8 -53q-1 -11 -2.5 -12.5t-3.5 -1.5q-59 0 -88 -22.5t-35 -67.5l-26 -181q-6 -46 -37.5 -75t-74 -42t-82.5 -13h-80v0z" />
    <glyph glyph-name="asciitilde" unicode="~" horiz-adv-x="636" 
d="M597 363q-37 -46 -81.5 -66.5t-82.5 -20.5q-33 0 -57.5 11t-45 25t-40.5 25t-44 11q-38 0 -69 -25.5t-58 -56.5q-6 -1 -12 4t-8 11l-33 68q-3 7 -2 14t8 18q49 38 90.5 62.5t87.5 24.5q35 0 59 -10.5t43 -25t37.5 -25t40.5 -10.5q34 0 64 22t51 53q9 6 16.5 -0.5
t11.5 -17.5l26 -54q7 -15 -2 -37v0z" />
    <glyph glyph-name="uni00A0" unicode="&#xa0;" horiz-adv-x="200" 
 />
    <glyph glyph-name="exclamdown" unicode="&#xa1;" horiz-adv-x="277" 
d="M256 347q-1 -10 -4 -12t-12 -2h-173q-8 0 -14.5 8.5t-5.5 19.5l22 150q2 13 6 16t19 3h150q18 0 26 -9.5t6 -25.5l-20 -148v0zM194 -150q0 -10 -3.5 -12.5t-11.5 -2.5h-189q-9 0 -16 9t-4 20l103 381q5 13 8 16t18 3h69q17 0 25 -9.5t6 -24.5l-5 -380v0z" />
    <glyph glyph-name="cent" unicode="&#xa2;" horiz-adv-x="558" 
d="M335 23q-2 -15 -7.5 -19t-22.5 -4h-67q-15 0 -21.5 9.5t-5.5 22.5l20 141q2 15 8 19t22 4h67q15 0 22 -9.5t5 -22.5l-20 -141v0zM412 569q-2 -15 -8 -19t-23 -4h-67q-15 0 -21 9.5t-5 22.5l20 141q2 15 8 19t22 4h67q15 0 22 -9.5t5 -22.5l-20 -141v0zM307 651
q74 0 121.5 -28t71.5 -69.5t25 -83.5q0 -9 -3.5 -12t-16.5 -4l-132 -7q-8 -1 -11 6.5t-5 19.5q-1 11 -3.5 23t-12 20.5t-31.5 8.5q-34 0 -56 -22t-35 -56t-18.5 -70t-5.5 -64q0 -49 18 -68.5t50 -19.5q44 0 68 20t48 60q3 5 18 3l92 -18q8 -1 11 -9.5t-2 -23.5
q-6 -17 -24 -43t-49 -52t-76 -43.5t-104 -17.5q-74 0 -130 30t-87 84t-31 125q0 63 22.5 119.5t63.5 99.5t98 67.5t126 24.5v0z" />
    <glyph glyph-name="sterling" unicode="&#xa3;" horiz-adv-x="664" 
d="M-3 0q-9 0 -14.5 8.5t-4.5 17.5l18 128q2 8 3.5 8.5t9.5 0.5h17q38 0 65 20.5t34 64.5q1 8 2.5 28.5t4.5 66.5q-1 2 -3 1t-7 -1h-82q-6 0 -10.5 6.5t-3.5 13.5l11 77q1 6 2 6h7h59q7 0 13 6.5t7 13.5l5 86q4 51 28 89t62 62.5t85 36.5t96 12q51 0 101 -17t88.5 -54
t53.5 -96q4 -4 3 -6t-9 -4l-143 -40q-7 -2 -14 4t-8 16q-7 17 -16 30t-30 13q-17 0 -31 -9t-23.5 -25.5t-12.5 -38.5q-1 -10 -2 -29t-1 -49q0 -1 10 -1h112q6 0 10.5 -6t3.5 -11l-11 -80q-1 -6 -2 -6h-6h-95q-9 0 -14.5 -6.5t-7.5 -15.5q-4 -25 -9 -46t-13 -43
q-6 -10 -13.5 -20t-16 -20t-18.5 -21q-10 -4 -11.5 -5.5t6.5 -1.5h80q40 0 66 18.5t42 57.5q5 4 9 2.5t14 -3.5l120 -24q11 -2 17 -11.5t2 -23.5q-34 -88 -104.5 -134t-164.5 -46h-366v0z" />
    <glyph glyph-name="currency" unicode="&#xa4;" 
d="M291 126q-36 0 -66.5 10t-52.5 29q-9 0 -15 -4.5t-8 -7.5l-65 -56q-4 -4 -8.5 0t-9.5 10l-51 58q-4 5 -5.5 10t1.5 9l66 57q9 9 9 25q-11 24 -16.5 51t0.5 66q4 30 14.5 59t29.5 60q11 6 7 12l-49 56q-3 4 -5 10t1 10l68 59q5 5 9.5 1.5t8.5 -8.5l50 -57q3 -4 7.5 1
t7.5 9q31 11 62.5 18t58.5 7q37 0 68.5 -10.5t54.5 -29.5q7 2 11 6t5 6l62 53q3 2 5.5 -2.5t2.5 -6.5l58 -68q2 -3 4.5 -6t0.5 -6l-63 -53q-6 -6 -7 -16q14 -25 19 -56t0 -69q-4 -29 -16 -61.5t-34 -63.5q-2 2 -3.5 1t-1.5 -2l46 -54q3 -3 5.5 -6.5t0.5 -6.5l-76 -66
q-3 -3 -5.5 0.5t-4.5 7.5l-47 54q-2 2 -5.5 -3t-5.5 -9q-31 -12 -62 -19.5t-61 -7.5v0zM290 250q37 0 69.5 19t54 49.5t26.5 65.5q4 30 -7.5 55.5t-35.5 41t-57 15.5q-37 0 -69.5 -19t-53.5 -49.5t-26 -65.5q-4 -30 7 -55.5t35 -41t57 -15.5v0z" />
    <glyph glyph-name="yen" unicode="&#xa5;" horiz-adv-x="690" 
d="M759 742q13 0 18.5 -9t-1.5 -19l-288 -378q-8 -10 -12.5 -22.5t-8.5 -44.5l-35 -246q-2 -16 -8.5 -19.5t-23.5 -3.5h-168q-15 0 -21 9t-5 22l37 263q2 16 1 24t-6 19l-181 382q-6 12 -3.5 17.5t18.5 5.5h201q15 0 21 -7t10 -19l93 -222q3 -9 7.5 -4.5t9.5 13.5l154 223
q8 13 14 14.5t20 1.5h157v0zM619 287q-2 -15 -8.5 -18.5t-23.5 -3.5h-468q-15 0 -21 9t-5 22l8 53q2 11 5 14t12 3h490q8 0 14 -8.5t5 -17.5zM595 117q-2 -15 -8.5 -18.5t-23.5 -3.5h-468q-15 0 -21 9t-5 22l8 53q2 11 5 14t12 3h490q8 0 14 -8.5t5 -17.5z" />
    <glyph glyph-name="brokenbar" unicode="&#xa6;" horiz-adv-x="245" 
d="M106 423q-15 0 -22 11t-4 28l51 365q2 15 6.5 17.5t17.5 2.5h93q11 0 18 -8t5 -17l-54 -387q-1 -8 -5 -10t-13 -2h-93zM24 -165q-15 0 -22 11t-5 28l51 365q2 15 6.5 17.5t17.5 2.5h93q11 0 18 -8t6 -17l-55 -387q-1 -8 -4.5 -10t-12.5 -2h-93z" />
    <glyph glyph-name="section" unicode="&#xa7;" horiz-adv-x="517" 
d="M410 221q41 -24 57 -56t9 -79q-7 -51 -38 -89.5t-86 -60t-133 -21.5q-98 0 -155 33t-71 73q-9 12 -9 16.5t4 6.5l99 43q10 5 15 -2t9 -17q17 -13 38.5 -25.5t64.5 -12.5q35 0 59.5 13t27.5 38q2 11 -8 21t-45 23l-66 26q-86 34 -124 75t-28 110q6 44 30.5 76t68.5 54
q-21 16 -34.5 34.5t-18 41.5t-0.5 49q7 46 37 82.5t80 57.5t117 21q85 0 139.5 -32.5t68.5 -73.5q8 -12 8.5 -16.5t-4.5 -6.5l-99 -43q-10 -4 -15 2.5t-9 16.5q-17 13 -36 25.5t-48 12.5q-26 0 -44.5 -13.5t-20.5 -33.5q-1 -7 5 -13t30 -15l66 -26q86 -34 124 -75t28 -110
q-6 -42 -29 -73.5t-64 -56.5v0zM288 283q17 -1 28.5 6.5t18.5 20t9 26.5q1 7 -1 14.5t-14.5 17.5t-42.5 22l-36 12q-19 -1 -32 -10t-20.5 -21.5t-9.5 -26.5t8.5 -22t50.5 -25l41 -14v0z" />
    <glyph glyph-name="dieresis" unicode="&#xa8;" horiz-adv-x="431" 
d="M230 617q-1 -13 -6.5 -15.5t-20.5 -2.5h-120q-13 0 -18 8.5t-4 19.5l14 101q2 10 4.5 12t9.5 2h139q8 0 13 -8t4 -16zM470 617q-1 -13 -6.5 -15.5t-20.5 -2.5h-120q-13 0 -18 8.5t-4 19.5l14 101q2 10 4.5 12t9.5 2h139q8 0 13 -8t4 -16z" />
    <glyph glyph-name="copyright" unicode="&#xa9;" horiz-adv-x="830" 
d="M384 -10q-81 0 -147 30.5t-112 84t-66 125t-9 152.5q11 77 49 144t96.5 118t130 79.5t149.5 28.5q80 0 146.5 -30.5t112.5 -84.5t66.5 -125t8.5 -152q-11 -78 -49.5 -145t-97 -117.5t-130 -79t-148.5 -28.5v0zM383 91q63 0 116.5 20.5t95.5 59t69 92t36 119.5
q9 62 -2.5 111.5t-41 85t-74.5 54.5t-105 19q-64 0 -118 -21t-95.5 -60t-68.5 -92.5t-36 -118.5q-9 -62 2 -112t40.5 -85t75 -53.5t106.5 -18.5v0zM455 584q57 0 94 -22t55.5 -55t19.5 -65q3 -5 2 -6.5t-11 -2.5l-106 -6q-6 -1 -10 6t-3 17q-1 11 -5.5 24t-29.5 13
q-20 0 -37.5 -13t-30 -40.5t-18.5 -71.5q-9 -61 4 -83t43 -22q35 0 54 20.5t37 49.5q2 -1 4 -3t9 -4l70 -14q14 -2 8 -27q-4 -13 -18 -33t-37.5 -39.5t-58 -32.5t-79.5 -13q-63 0 -108.5 28.5t-67.5 78.5t-13 114q9 61 42 106.5t83 70.5t108 25v0z" />
    <glyph glyph-name="ordfeminine" unicode="&#xaa;" horiz-adv-x="384" 
d="M249 752q61 0 94 -14t44.5 -38.5t6.5 -56.5l-24 -174q-2 -13 -2 -23.5v-24.5q4 -7 -4 -7h-23h-73q-10 0 -13 7t-4 14v5q-1 5 -4.5 0t-10.5 -13q-26 -10 -43.5 -14.5t-39.5 -4.5q-55 0 -81.5 30.5t-19.5 76.5q7 47 54 74t138 32l13 1q7 0 12.5 6t6.5 11l1 8
q2 17 -3.5 23.5t-21.5 6.5t-33 -9t-27 -30q-4 -2 -5.5 0.5t-9.5 3.5l-80 17q-3 2 -5 11.5t-1 17.5q23 32 56 48t102 16v0zM171 501q-1 -10 5 -14.5t22 -4.5q14 0 26 6.5t17 13.5q6 1 11.5 6t6.5 12l5 35q1 6 0.5 6t-8.5 -1l-14 -1q-12 -1 -27.5 -8.5t-28 -20t-15.5 -29.5v0z
" />
    <glyph glyph-name="guillemotleft" unicode="&#xab;" horiz-adv-x="513" 
d="M433 68q2 -7 0.5 -7.5t-12.5 -0.5h-73q-5 0 -10 5.5t-5 9.5l-70 165q-4 11 -4.5 22t5.5 21l118 175q5 7 7.5 6t8.5 -1h75q7 0 12.5 -6.5t2.5 -14.5l-83 -177q-3 -7 -5 -13t-2 -13zM225 68q2 -7 0.5 -7.5t-12.5 -0.5h-73q-5 0 -10 5.5t-5 9.5l-70 165q-4 11 -4.5 22
t5.5 21l118 175q5 7 7.5 6t8.5 -1h75q7 0 12.5 -6.5t2.5 -14.5l-83 -177q-3 -7 -5 -13t-2 -13z" />
    <glyph glyph-name="logicalnot" unicode="&#xac;" 
d="M570 325q-1 -15 -8 -18.5t-24 -3.5h-463q-15 0 -21 9t-4 22l13 93q2 11 5 14t12 3h485q8 0 14 -8.5t5 -17.5zM547 161q-1 -14 -6 -17t-22 -3h-106q-13 0 -19.5 8.5t-4.5 20.5l29 209q2 11 5 12.5t10 1.5h127q8 0 13 -7.5t4 -16.5z" />
    <glyph glyph-name="uni00AD" unicode="&#xad;" horiz-adv-x="380" 
d="M295 215q-2 -15 -8.5 -18.5t-23.5 -3.5h-239q-15 0 -21 9t-5 22l13 92q2 11 5.5 14t12.5 3h261q8 0 14 -8.5t4 -17.5z" />
    <glyph glyph-name="registered" unicode="&#xae;" horiz-adv-x="545" 
d="M282 275q-68 0 -119.5 33.5t-76.5 90.5t-16 125q9 64 47 115.5t95 82t121 30.5q68 0 119 -34t76.5 -90.5t15.5 -125.5q-9 -63 -47.5 -114.5t-94.5 -82t-120 -30.5v0zM276 346q51 0 91.5 22t67.5 62.5t34 93.5q7 48 -6.5 83t-45 54.5t-78.5 19.5q-51 0 -92.5 -22.5
t-67.5 -63t-34 -93.5q-10 -73 25 -114.5t106 -41.5v0zM400 399q1 -4 1.5 -4.5t-3.5 -0.5h-62q-3 0 -6 4t-3 8l-17 86q-1 2 -2 1t-6 -1h-18q-2 0 -5.5 -4.5t-4.5 -5.5l-11 -85q-1 -4 -1.5 -3.5t-6.5 0.5h-53q-4 0 -7.5 5t-2.5 9l31 221q1 4 0 2.5t2 -1.5h109q46 0 71 -21
t20 -56q-2 -18 -14 -32t-28 -23q-4 2 -6.5 -1t-3.5 -5l27 -93v0zM319 539q13 0 23 10t11 23q1 7 -4.5 9t-16.5 2h-32q-4 0 -8 -4t-5 -8l-4 -31q-1 -4 -1.5 -2.5t2.5 1.5h35v0z" />
    <glyph glyph-name="macron" unicode="&#xaf;" horiz-adv-x="431" 
d="M473 637q-1 -13 -6.5 -15.5t-20.5 -2.5h-360q-13 0 -18 8.5t-4 19.5l11 81q2 10 4.5 12t9.5 2h379q8 0 13 -8t4 -16z" />
    <glyph glyph-name="degree" unicode="&#xb0;" horiz-adv-x="464" 
d="M470 664q-7 -51 -35 -89.5t-70.5 -60t-92.5 -21.5q-54 0 -94 25t-58.5 68.5t-10.5 99.5q7 51 35 89.5t70.5 60t92.5 21.5q54 0 93.5 -25t58.5 -68.5t11 -99.5v0zM361 685q4 29 -10.5 46t-44.5 17q-35 0 -60.5 -24.5t-30.5 -60.5q-4 -29 10.5 -46.5t44.5 -17.5
q35 0 60.5 24.5t30.5 61.5v0z" />
    <glyph glyph-name="plusminus" unicode="&#xb1;" 
d="M530 37q-2 -15 -8.5 -18.5t-23.5 -3.5h-463q-15 0 -21 9t-5 22l13 93q2 11 5.5 14t12.5 3h485q8 0 14 -8.5t4 -17.5zM584 420q-2 -15 -8.5 -18.5t-23.5 -3.5h-463q-15 0 -21 9t-5 22l13 93q2 11 5.5 14t12.5 3h485q8 0 14 -8.5t4 -17.5zM255 208q-15 0 -22 11t-5 28
l66 463q2 15 6 17.5t17 2.5h93q11 0 18.5 -8t5.5 -17l-68 -485q-1 -8 -5 -10t-13 -2h-93z" />
    <glyph glyph-name="uni00B2" unicode="&#xb2;" horiz-adv-x="452" 
d="M163 593q49 36 74 57.5t34.5 36t9.5 28.5q0 19 -10 29.5t-34 10.5q-26 0 -50 -18.5t-44 -53.5q-4 -6 -10 -2l-90 50q-8 4 5 21q35 50 87 77.5t113 27.5q54 0 92 -17t58.5 -46.5t20.5 -69.5q0 -33 -11.5 -57.5t-33.5 -45t-55 -41.5l-110 -71q-5 -4 -5.5 -6.5t3.5 -2.5h171
q14 0 13 -12l-12 -94q-1 -5 -4 -7.5t-11 -2.5h-352q-19 0 -17 19l9 63q2 5 7.5 11.5t33.5 27.5z" />
    <glyph glyph-name="uni00B3" unicode="&#xb3;" horiz-adv-x="467" 
d="M73 779q-3 3 -2 7.5t6 8.5q28 26 77.5 44t101.5 18q84 0 130.5 -31.5t46.5 -83.5q0 -38 -27.5 -68.5t-62.5 -41.5q-4 -1 -4.5 -3.5t3.5 -3.5q36 -10 55.5 -36t19.5 -58q0 -54 -28.5 -88t-78 -49.5t-112.5 -15.5q-44 0 -80.5 12t-62.5 32.5t-39 46.5q-6 11 -2 14l73 48
q9 5 13 -1q26 -28 48.5 -41t54.5 -13t53.5 16t21.5 41q0 12 -7 21t-20 14.5t-31 5.5l-59 1q-8 0 -8 8l11 83q1 6 12 6l42 1q21 1 38 9t27 21t10 28q0 14 -12 22t-32 8q-28 0 -50.5 -11t-53.5 -34q-7 -6 -13 0l-59 63v0z" />
    <glyph glyph-name="acute" unicode="&#xb4;" horiz-adv-x="320" 
d="M362 653q2 -11 -0.5 -17.5t-17.5 -10.5l-241 -56q-13 -3 -20 3t-9 16l-9 43q-4 17 5 21l252 98q7 3 12.5 0.5t8.5 -16.5z" />
    <glyph glyph-name="uni00B5" unicode="&#xb5;" horiz-adv-x="601" 
d="M258 130q26 0 48.5 14t38.5 31l49 332q2 15 8.5 19t23.5 4h143q14 0 21 -9t5 -23l-72 -482q-1 -10 -4.5 -13t-12.5 -3h-158q-8 0 -14 8t-5 18l7 44q1 6 -4.5 4t-13.5 -13q-15 -19 -31 -31t-32 -20t-32 -14q-13 -2 -19.5 -8.5t-8.5 -15.5l-16 -114q-2 -16 -8.5 -19.5
t-23.5 -3.5h-140q-15 0 -21.5 9t-5.5 22l90 640q2 15 8 19.5t22 4.5h146q13 0 19 -9t4 -23l-46 -325q-2 -15 1.5 -24.5t12.5 -14t21 -4.5v0z" />
    <glyph glyph-name="paragraph" unicode="&#xb6;" horiz-adv-x="631" 
d="M598 633q-7 0 -13 -7t-7 -13l-97 -686q-1 -7 -2 -9.5t-10 -2.5h-84q-10 0 -15.5 8.5t-4.5 15.5l97 688q1 5 -0.5 5.5t-8.5 0.5h-39q-6 0 -12.5 -7t-7.5 -13l-97 -687q-1 -7 -3 -9t-10 -2h-86q-7 0 -12.5 6.5t-4.5 16.5l52 367q0 5 -0.5 5.5t-2.5 1.5q-50 5 -93 30
t-65.5 73t-12.5 121q9 59 42.5 105.5t90 73.5t134.5 27h317q8 0 13 -5.5t3 -13.5l-11 -83q-1 -7 -2.5 -7h-9.5h-38z" />
    <glyph glyph-name="periodcentered" unicode="&#xb7;" horiz-adv-x="279" 
d="M235 304q-1 -14 -6 -17t-21 -3h-133q-13 0 -19.5 8.5t-4.5 19.5l19 137q2 11 5 12.5t10 1.5h153q8 0 13 -7.5t3 -16.5z" />
    <glyph glyph-name="cedilla" unicode="&#xb8;" horiz-adv-x="287" 
d="M219 -148q-5 -37 -45.5 -57t-90.5 -20q-36 0 -68.5 7.5t-55.5 23.5q-7 1 -10.5 5.5t-1.5 9.5l23 41q2 5 4 0.5t3 -7.5q18 -6 37.5 -11t36.5 -5q24 0 41 11t19 27q2 14 -14 21t-65 7q-10 0 -16 4.5t-2 12.5l51 83h83l-25 -54q-3 -4 -5 -4t0 0q41 0 64 -15t31.5 -36.5
t5.5 -43.5v0z" />
    <glyph glyph-name="uni00B9" unicode="&#xb9;" horiz-adv-x="367" 
d="M284 483q12 0 10 -11l-11 -82q-1 -10 -14 -10h-272q-14 0 -11 12l11 83q1 8 13 8h58q8 0 9 10l29 210q1 5 -7 4l-56 -12q-17 -5 -15 12l9 60q2 8 3.5 10.5t8.5 5.5l120 56q11 5 17.5 6.5t15.5 1.5h57q11 0 8 -13l-48 -345q-1 -6 5 -6h60v0z" />
    <glyph glyph-name="ordmasculine" unicode="&#xba;" horiz-adv-x="391" 
d="M255 752q55 0 92.5 -24t55 -66t9.5 -95q-6 -47 -32.5 -83t-66.5 -56t-90 -20q-53 0 -91 23.5t-55 64.5t-10 93q7 50 33.5 86.5t67 56.5t87.5 20v0zM260 674q-28 0 -45 -25.5t-25 -78.5q-7 -45 -0.5 -63.5t28.5 -18.5q29 0 47 26t25 78q6 45 -0.5 63.5t-29.5 18.5v0z" />
    <glyph glyph-name="guillemotright" unicode="&#xbb;" horiz-adv-x="513" 
d="M106 249q3 7 5 13t1 13l-33 177q-1 8 0.5 9.5t8.5 1.5h75q11 0 16 -15l69 -175q4 -10 5 -21t-7 -22l-116 -165q-3 -4 -6.5 -4.5t-8.5 -0.5h-73q-10 0 -16 5.5t-3 12.5l83 171v0zM314 249q3 7 5 13t1 13l-33 177q-1 8 0.5 9.5t8.5 1.5h75q11 0 16 -15l69 -175q4 -10 5 -21
t-7 -22l-116 -165q-3 -4 -6.5 -4.5t-8.5 -0.5h-73q-10 0 -16 5.5t-3 12.5l83 171v0z" />
    <glyph glyph-name="onequarter" unicode="&#xbc;" horiz-adv-x="973" 
d="M333 379q12 0 10 -11l-11 -82q-1 -10 -14 -10h-272q-14 0 -11 12l11 83q1 8 13 8h58q8 0 9 10l29 210q1 5 -7 4l-56 -12q-17 -5 -15 12l9 60q2 8 3.5 10.5t8.5 5.5l120 56q11 5 17.5 6.5t15.5 1.5h57q11 0 8 -13l-48 -345q-1 -6 5 -6h60v0zM276 3q-5 -7 -11 -7h-17l-52 1
q-16 0 -19.5 14t3.5 25l570 706q8 10 13.5 9t13.5 -1h66q8 0 15 -7t-1 -18zM743 454q8 8 13.5 10.5t18.5 2.5h106q13 0 10 -13l-36 -255q0 -4 5 -4h50q12 0 11 -11l-11 -74q-1 -6 -3.5 -8t-10.5 -2h-47q-9 0 -9 -9l-10 -77q-1 -9 -5 -11.5t-15 -2.5h-108q-18 0 -17 14l11 81
q1 5 -5 5h-183q-14 0 -13 12l10 71q1 7 6.5 15t16.5 22l215 234v0zM704 195q9 0 9 8l17 118q2 7 -0.5 6.5t-7.5 -6.5l-104 -119q-6 -7 1 -7h85z" />
    <glyph glyph-name="onehalf" unicode="&#xbd;" horiz-adv-x="1020" 
d="M341 379q12 0 10 -11l-11 -82q-1 -10 -14 -10h-272q-14 0 -11 12l11 83q1 8 13 8h58q8 0 9 10l29 210q1 5 -7 4l-56 -12q-17 -5 -15 12l9 60q2 8 3.5 10.5t8.5 5.5l120 56q11 5 17.5 6.5t15.5 1.5h57q11 0 8 -13l-48 -345q-1 -6 5 -6h60v0zM252 3q-5 -7 -11 -7h-17l-52 1
q-16 0 -19.5 14t3.5 25l570 706q8 10 13.5 9t13.5 -1h66q8 0 15 -7t-1 -18zM715 209q49 36 74 57.5t34.5 36t9.5 28.5q0 19 -10 29.5t-34 10.5q-26 0 -50 -18.5t-44 -53.5q-4 -6 -10 -2l-90 50q-8 4 5 21q35 50 87 77.5t113 27.5q54 0 92 -17t58.5 -46.5t20.5 -69.5
q0 -33 -11.5 -57.5t-33.5 -45t-55 -41.5l-110 -71q-5 -4 -5.5 -6.5t3.5 -2.5h171q14 0 13 -12l-12 -94q-1 -5 -4 -7.5t-11 -2.5h-352q-19 0 -17 19l9 63q2 5 7.5 11.5t33.5 27.5z" />
    <glyph glyph-name="threequarters" unicode="&#xbe;" horiz-adv-x="1063" 
d="M96 674q-3 3 -2 7.5t6 8.5q28 26 77.5 44t101.5 18q84 0 130.5 -31.5t46.5 -83.5q0 -38 -27.5 -68.5t-62.5 -41.5q-4 -1 -4.5 -3.5t3.5 -3.5q36 -10 55.5 -36t19.5 -58q0 -54 -28.5 -88t-78 -49.5t-112.5 -15.5q-44 0 -80.5 12t-62.5 32.5t-39 46.5q-6 11 -2 14l73 48
q9 5 13 -1q26 -28 48.5 -41t54.5 -13t53.5 16t21.5 41q0 12 -7 21t-20 14.5t-31 5.5l-59 1q-8 0 -8 8l11 83q1 6 12 6l42 1q21 1 38 9t27 21t10 28q0 14 -12 22t-32 8q-28 0 -50.5 -11t-53.5 -34q-7 -6 -13 0l-59 63v0zM336 3q-5 -7 -11 -7h-17l-52 1q-16 0 -19.5 14t3.5 25
l570 706q8 10 13.5 9t13.5 -1h66q8 0 15 -7t-1 -18zM833 454q8 8 13.5 10.5t18.5 2.5h106q13 0 10 -13l-36 -255q0 -4 5 -4h50q12 0 11 -11l-11 -74q-1 -6 -3.5 -8t-10.5 -2h-47q-9 0 -9 -9l-10 -77q-1 -9 -5 -11.5t-15 -2.5h-108q-18 0 -17 14l11 81q1 5 -5 5h-183
q-14 0 -13 12l10 71q1 7 6.5 15t16.5 22l215 234v0zM794 195q9 0 9 8l17 118q2 7 -0.5 6.5t-7.5 -6.5l-104 -119q-6 -7 1 -7h85z" />
    <glyph glyph-name="questiondown" unicode="&#xbf;" horiz-adv-x="544" 
d="M221 507q2 16 8.5 19.5t23.5 3.5h151q15 0 21.5 -9t4.5 -22l-21 -150q-1 -11 -4.5 -13.5t-12.5 -2.5h-173q-8 0 -14 8t-5 18zM499 15q9 -2 12 -13t-1 -24q-44 -76 -115 -114.5t-169 -38.5q-89 0 -144.5 26t-79 67.5t-16.5 89.5q5 36 22.5 61.5t41.5 44t50.5 33.5
t50.5 30.5t40.5 34.5t20.5 46q2 13 23 13h105q12 0 19.5 -11t4.5 -29q-5 -39 -24.5 -67.5t-45 -49.5t-51 -39t-43.5 -36.5t-21 -41.5q-2 -16 13.5 -26.5t38.5 -10.5t45.5 10t41.5 28.5t32 43.5q6 6 5 4t10 -4z" />
    <glyph glyph-name="Agrave" unicode="&#xc0;" horiz-adv-x="799" 
d="M-4 0q-11 0 -11.5 10t10.5 32l339 682q6 12 15.5 15t22.5 3h197q13 0 18 -10t7 -22l145 -681q2 -10 -1 -19.5t-14 -9.5h-196q-14 0 -19 22l-23 113q-1 9 -13 9h-210q-12 0 -19 -13l-60 -121q-3 -6 -7 -8t-15 -2h-166v0zM446 314q17 0 12 20l-36 167q-1 10 -6 10t-10 -9
l-83 -172q-4 -10 -2 -13t11 -3h114zM369 951q4 9 10.5 11t13.5 -1l222 -101q9 -4 11.5 -9t-1.5 -14l-21 -47q-4 -8 -10 -9t-18 2l-225 56q-16 4 -19.5 10t0.5 17l37 85v0z" />
    <glyph glyph-name="Aacute" unicode="&#xc1;" horiz-adv-x="799" 
d="M-4 0q-11 0 -11.5 10t10.5 32l339 682q6 12 15.5 15t22.5 3h197q13 0 18 -10t7 -22l145 -681q2 -10 -1 -19.5t-14 -9.5h-196q-14 0 -19 22l-23 113q-1 9 -13 9h-210q-12 0 -19 -13l-60 -121q-3 -6 -7 -8t-15 -2h-166v0zM446 314q17 0 12 20l-36 167q-1 10 -6 10t-10 -9
l-83 -172q-4 -10 -2 -13t11 -3h114zM627 865q2 -11 -0.5 -17.5t-17.5 -10.5l-241 -56q-13 -3 -20 3t-9 16l-9 43q-4 17 5 21l252 98q7 3 12.5 0.5t8.5 -16.5z" />
    <glyph glyph-name="Acircumflex" unicode="&#xc2;" horiz-adv-x="799" 
d="M-4 0q-11 0 -11.5 10t10.5 32l339 682q6 12 15.5 15t22.5 3h197q13 0 18 -10t7 -22l145 -681q2 -10 -1 -19.5t-14 -9.5h-196q-14 0 -19 22l-23 113q-1 9 -13 9h-210q-12 0 -19 -13l-60 -121q-3 -6 -7 -8t-15 -2h-166v0zM446 314q17 0 12 20l-36 167q-1 10 -6 10t-10 -9
l-83 -172q-4 -10 -2 -13t11 -3h114zM498 875q-7 11 -12 11.5t-16 -10.5l-58 -58q-7 -7 -12.5 -9t-15.5 -2h-103q-9 0 -9.5 6.5t5.5 11.5l131 128q8 8 16 9.5t22 1.5h95q11 0 16 -6t9 -11l94 -126q7 -10 4 -12t-14 -2h-96q-9 0 -13.5 3.5t-8.5 10.5z" />
    <glyph glyph-name="Atilde" unicode="&#xc3;" horiz-adv-x="799" 
d="M-4 0q-11 0 -11.5 10t10.5 32l339 682q6 12 15.5 15t22.5 3h197q13 0 18 -10t7 -22l145 -681q2 -10 -1 -19.5t-14 -9.5h-196q-14 0 -19 22l-23 113q-1 9 -13 9h-210q-12 0 -19 -13l-60 -121q-3 -6 -7 -8t-15 -2h-166v0zM446 314q17 0 12 20l-36 167q-1 10 -6 10t-10 -9
l-83 -172q-4 -10 -2 -13t11 -3h114zM666 840q-19 -7 -46 -14.5t-55 -7.5q-31 0 -57 8t-49.5 15.5t-50.5 7.5q-24 0 -38.5 -9t-39.5 -23q-10 -5 -16 1.5t-8 18.5l-10 54q-1 8 -4 17t11 18q21 13 44 22.5t55 9.5q34 0 62.5 -8.5t53 -17t45.5 -8.5q18 0 32.5 7.5t27.5 16.5
t24 11t18 -4.5t8 -17.5l5 -64q1 -9 1.5 -18.5t-13.5 -14.5v0z" />
    <glyph glyph-name="Adieresis" unicode="&#xc4;" horiz-adv-x="799" 
d="M-4 0q-11 0 -11.5 10t10.5 32l339 682q6 12 15.5 15t22.5 3h197q13 0 18 -10t7 -22l145 -681q2 -10 -1 -19.5t-14 -9.5h-196q-14 0 -19 22l-23 113q-1 9 -13 9h-210q-12 0 -19 -13l-60 -121q-3 -6 -7 -8t-15 -2h-166v0zM446 314q17 0 12 20l-36 167q-1 10 -6 10t-10 -9
l-83 -172q-4 -10 -2 -13t11 -3h114zM439 829q-1 -13 -6.5 -15.5t-20.5 -2.5h-120q-13 0 -18 8.5t-4 19.5l14 101q2 10 4.5 12t9.5 2h139q8 0 13 -8t4 -16zM679 829q-1 -13 -6.5 -15.5t-20.5 -2.5h-120q-13 0 -18 8.5t-4 19.5l14 101q2 10 4.5 12t9.5 2h139q8 0 13 -8t4 -16z
" />
    <glyph glyph-name="Aring" unicode="&#xc5;" horiz-adv-x="799" 
d="M-4 0q-11 0 -11.5 10t10.5 32l339 682q6 12 15.5 15t22.5 3h197q13 0 18 -10t7 -22l145 -681q2 -10 -1 -19.5t-14 -9.5h-196q-14 0 -19 22l-23 113q-1 9 -13 9h-210q-12 0 -19 -13l-60 -121q-3 -6 -7 -8t-15 -2h-166v0zM446 314q17 0 12 20l-36 167q-1 10 -6 10t-10 -9
l-83 -172q-4 -10 -2 -13t11 -3h114zM593 832q-7 -46 -42.5 -76t-81.5 -30q-34 0 -60 17.5t-39 47t-8 65.5q6 44 42 73t81 29q35 0 61 -17t39 -45.5t8 -63.5v0zM526 853q2 17 -8 26.5t-27 9.5q-22 0 -42 -17t-24 -41q-1 -16 9.5 -27t26.5 -11q23 0 42 18.5t23 41.5v0z" />
    <glyph glyph-name="AE" unicode="&#xc6;" horiz-adv-x="1123" 
d="M1050 164q11 0 17.5 -7t4.5 -18l-17 -123q-1 -9 -5 -12.5t-17 -3.5h-535q-15 0 -21.5 9t-5.5 22l15 105q1 7 0.5 7.5t-8.5 0.5h-201q-6 0 -12.5 -5.5t-8.5 -10.5l-76 -118q-6 -10 -25 -10h-152q-11 0 -15.5 13t5.5 29l451 682q8 12 14 15t19 3h649q9 0 14.5 -8.5
t3.5 -18.5l-17 -116q-1 -12 -6 -16.5t-19 -4.5h-300q-11 0 -20 -7.5t-11 -17.5l-11 -85q-1 -10 1.5 -12.5t9.5 -2.5h180q11 0 17.5 -8t4.5 -18l-18 -124q-1 -7 -3 -9t-12 -2h-185q-7 0 -14.5 -7t-8.5 -13l-14 -100q-1 -8 -0.5 -8h7.5h325v0zM488 314q9 0 17.5 8t9.5 18
l28 201q3 23 -10.5 18.5t-27.5 -27.5l-132 -202q-7 -10 -9 -13t7 -3h117v0z" />
    <glyph glyph-name="Ccedilla" unicode="&#xc7;" horiz-adv-x="737" 
d="M445 752q87 0 150.5 -31.5t99.5 -85.5t39 -124q1 -24 -18 -25l-169 -10q-16 -1 -18 30q-3 40 -19.5 66t-63.5 26q-42 0 -71.5 -22t-49 -58t-30.5 -79t-15.5 -85.5t-4.5 -77.5q0 -68 23 -95t68 -27q53 0 97 27t75 89q8 17 31 11l135 -32q12 -3 -1 -39q-5 -14 -21 -40.5
t-44 -57.5t-69 -58.5t-95 -45.5t-122 -18q-97 0 -166.5 42t-106 115.5t-36.5 169.5q0 70 16.5 134.5t49.5 119t81.5 95.5t112.5 63.5t142 22.5v0zM463 -148q-5 -37 -45.5 -57t-90.5 -20q-36 0 -68.5 7.5t-55.5 23.5q-7 1 -10.5 5.5t-1.5 9.5l23 41q2 5 4 0.5t3 -7.5
q18 -6 37.5 -11t36.5 -5q24 0 41 11t19 27q2 14 -14 21t-65 7q-10 0 -16 4.5t-2 12.5l51 83h83l-25 -54q-3 -4 -5 -4t0 0q41 0 64 -15t31.5 -36.5t5.5 -43.5v0z" />
    <glyph glyph-name="Egrave" unicode="&#xc8;" horiz-adv-x="671" 
d="M117 725q2 11 5 14t12 3h544q19 0 14 -27l-17 -116q-1 -12 -6 -16.5t-19 -4.5h-310q-9 0 -13 -3.5t-6 -14.5l-13 -92q-1 -10 1.5 -12.5t9.5 -2.5h189q11 0 13.5 -4t0.5 -13l-18 -131q-1 -13 -16 -13h-193q-12 0 -15 -16l-14 -99q-1 -13 7 -13h333q11 0 13.5 -4t0.5 -15
l-17 -129q-1 -9 -5 -12.5t-17 -3.5h-538q-28 0 -24 31l98 694v0zM310 951q4 9 10.5 11t13.5 -1l222 -101q9 -4 11.5 -9t-1.5 -14l-21 -47q-4 -8 -10 -9t-18 2l-225 56q-16 4 -19.5 10t0.5 17l37 85v0z" />
    <glyph glyph-name="Eacute" unicode="&#xc9;" horiz-adv-x="671" 
d="M117 725q2 11 5 14t12 3h544q19 0 14 -27l-17 -116q-1 -12 -6 -16.5t-19 -4.5h-310q-9 0 -13 -3.5t-6 -14.5l-13 -92q-1 -10 1.5 -12.5t9.5 -2.5h189q11 0 13.5 -4t0.5 -13l-18 -131q-1 -13 -16 -13h-193q-12 0 -15 -16l-14 -99q-1 -13 7 -13h333q11 0 13.5 -4t0.5 -15
l-17 -129q-1 -9 -5 -12.5t-17 -3.5h-538q-28 0 -24 31l98 694v0zM568 865q2 -11 -0.5 -17.5t-17.5 -10.5l-241 -56q-13 -3 -20 3t-9 16l-9 43q-4 17 5 21l252 98q7 3 12.5 0.5t8.5 -16.5z" />
    <glyph glyph-name="Ecircumflex" unicode="&#xca;" horiz-adv-x="671" 
d="M117 725q2 11 5 14t12 3h544q19 0 14 -27l-17 -116q-1 -12 -6 -16.5t-19 -4.5h-310q-9 0 -13 -3.5t-6 -14.5l-13 -92q-1 -10 1.5 -12.5t9.5 -2.5h189q11 0 13.5 -4t0.5 -13l-18 -131q-1 -13 -16 -13h-193q-12 0 -15 -16l-14 -99q-1 -13 7 -13h333q11 0 13.5 -4t0.5 -15
l-17 -129q-1 -9 -5 -12.5t-17 -3.5h-538q-28 0 -24 31l98 694v0zM439 875q-7 11 -12 11.5t-16 -10.5l-58 -58q-7 -7 -12.5 -9t-15.5 -2h-103q-9 0 -9.5 6.5t5.5 11.5l131 128q8 8 16 9.5t22 1.5h95q11 0 16 -6t9 -11l94 -126q7 -10 4 -12t-14 -2h-96q-9 0 -13.5 3.5
t-8.5 10.5z" />
    <glyph glyph-name="Edieresis" unicode="&#xcb;" horiz-adv-x="671" 
d="M117 725q2 11 5 14t12 3h544q19 0 14 -27l-17 -116q-1 -12 -6 -16.5t-19 -4.5h-310q-9 0 -13 -3.5t-6 -14.5l-13 -92q-1 -10 1.5 -12.5t9.5 -2.5h189q11 0 13.5 -4t0.5 -13l-18 -131q-1 -13 -16 -13h-193q-12 0 -15 -16l-14 -99q-1 -13 7 -13h333q11 0 13.5 -4t0.5 -15
l-17 -129q-1 -9 -5 -12.5t-17 -3.5h-538q-28 0 -24 31l98 694v0zM380 829q-1 -13 -6.5 -15.5t-20.5 -2.5h-120q-13 0 -18 8.5t-4 19.5l14 101q2 10 4.5 12t9.5 2h139q8 0 13 -8t4 -16zM620 829q-1 -13 -6.5 -15.5t-20.5 -2.5h-120q-13 0 -18 8.5t-4 19.5l14 101q2 10 4.5 12
t9.5 2h139q8 0 13 -8t4 -16z" />
    <glyph glyph-name="Igrave" unicode="&#xcc;" horiz-adv-x="331" 
d="M328 742q17 0 14 -27l-97 -692q-2 -16 -8.5 -19.5t-23.5 -3.5h-174q-16 0 -18.5 9t-1.5 22l98 694q2 11 5.5 14t11.5 3h194zM140 951q4 9 10.5 11t13.5 -1l222 -101q9 -4 11.5 -9t-1.5 -14l-21 -47q-4 -8 -10 -9t-18 2l-225 56q-16 4 -19.5 10t0.5 17l37 85v0z" />
    <glyph glyph-name="Iacute" unicode="&#xcd;" horiz-adv-x="331" 
d="M328 742q17 0 14 -27l-97 -692q-2 -16 -8.5 -19.5t-23.5 -3.5h-174q-16 0 -18.5 9t-1.5 22l98 694q2 11 5.5 14t11.5 3h194zM398 865q2 -11 -0.5 -17.5t-17.5 -10.5l-241 -56q-13 -3 -20 3t-9 16l-9 43q-4 17 5 21l252 98q7 3 12.5 0.5t8.5 -16.5z" />
    <glyph glyph-name="Icircumflex" unicode="&#xce;" horiz-adv-x="331" 
d="M328 742q17 0 14 -27l-97 -692q-2 -16 -8.5 -19.5t-23.5 -3.5h-174q-16 0 -18.5 9t-1.5 22l98 694q2 11 5.5 14t11.5 3h194zM269 875q-7 11 -12 11.5t-16 -10.5l-58 -58q-7 -7 -12.5 -9t-15.5 -2h-103q-9 0 -9.5 6.5t5.5 11.5l131 128q8 8 16 9.5t22 1.5h95q11 0 16 -6
t9 -11l94 -126q7 -10 4 -12t-14 -2h-96q-9 0 -13.5 3.5t-8.5 10.5z" />
    <glyph glyph-name="Idieresis" unicode="&#xcf;" horiz-adv-x="331" 
d="M328 742q17 0 14 -27l-97 -692q-2 -16 -8.5 -19.5t-23.5 -3.5h-174q-16 0 -18.5 9t-1.5 22l98 694q2 11 5.5 14t11.5 3h194zM210 829q-1 -13 -6.5 -15.5t-20.5 -2.5h-120q-13 0 -18 8.5t-4 19.5l14 101q2 10 4.5 12t9.5 2h139q8 0 13 -8t4 -16zM450 829
q-1 -13 -6.5 -15.5t-20.5 -2.5h-120q-13 0 -18 8.5t-4 19.5l14 101q2 10 4.5 12t9.5 2h139q8 0 13 -8t4 -16z" />
    <glyph glyph-name="Eth" unicode="&#xd0;" horiz-adv-x="754" 
d="M419 315q-2 -15 -8.5 -18.5t-23.5 -3.5h-349q-15 0 -21 9t-5 22l13 93q2 11 5.5 14t12.5 3h371q8 0 14 -8.5t4 -17.5zM31 0q-15 0 -22.5 10t-5.5 26l96 687q2 12 6.5 15.5t18.5 3.5h250q121 0 202.5 -40.5t123.5 -111.5t42 -161q0 -128 -56 -225t-156.5 -150.5
t-235.5 -53.5h-263v0zM321 157q64 0 105 39t60.5 103.5t19.5 142.5q0 47 -15 79t-42 48t-65 16h-59q-18 0 -21 -20l-53 -389q-1 -9 2 -14t11 -5h57z" />
    <glyph glyph-name="Ntilde" unicode="&#xd1;" horiz-adv-x="761" 
d="M762 742q14 0 12 -16l-101 -714q-1 -12 -20 -12h-137q-7 0 -12.5 5t-11.5 15l-225 373q-3 5 -7 4t-6 -12l-52 -366q-1 -12 -5.5 -15.5t-18.5 -3.5h-144q-11 0 -14 7.5t-2 18.5l99 699q2 11 5.5 14t14.5 3h163q12 0 18.5 -6t12.5 -17l195 -332q5 -9 11.5 -7.5t7.5 12.5
l47 335q2 10 5.5 12.5t14.5 2.5h150zM652 840q-19 -7 -46 -14.5t-55 -7.5q-31 0 -57 8t-49.5 15.5t-50.5 7.5q-24 0 -38.5 -9t-39.5 -23q-10 -5 -16 1.5t-8 18.5l-10 54q-1 8 -4 17t11 18q21 13 44 22.5t55 9.5q34 0 62.5 -8.5t53 -17t45.5 -8.5q18 0 32.5 7.5t27.5 16.5
t24 11t18 -4.5t8 -17.5l5 -64q1 -9 1.5 -18.5t-13.5 -14.5v0z" />
    <glyph glyph-name="Ograve" unicode="&#xd2;" horiz-adv-x="780" 
d="M360 -10q-100 0 -171 38.5t-109 109.5t-38 168q0 17 1 36t4 38q16 114 71.5 197.5t141 129t191.5 45.5q98 0 169 -39.5t109 -111.5t38 -170q0 -17 -1 -35.5t-4 -37.5q-16 -112 -70.5 -195t-139.5 -128t-192 -45v0zM366 146q68 0 106 53.5t55 177.5q4 29 6 53.5t2 45.5
q0 65 -21 93.5t-68 28.5q-68 0 -107 -57.5t-57 -185.5q-4 -28 -6 -51.5t-2 -43.5q0 -62 22 -88t70 -26v0zM364 951q4 9 10.5 11t13.5 -1l222 -101q9 -4 11.5 -9t-1.5 -14l-21 -47q-4 -8 -10 -9t-18 2l-225 56q-16 4 -19.5 10t0.5 17l37 85v0z" />
    <glyph glyph-name="Oacute" unicode="&#xd3;" horiz-adv-x="780" 
d="M360 -10q-100 0 -171 38.5t-109 109.5t-38 168q0 17 1 36t4 38q16 114 71.5 197.5t141 129t191.5 45.5q98 0 169 -39.5t109 -111.5t38 -170q0 -17 -1 -35.5t-4 -37.5q-16 -112 -70.5 -195t-139.5 -128t-192 -45v0zM366 146q68 0 106 53.5t55 177.5q4 29 6 53.5t2 45.5
q0 65 -21 93.5t-68 28.5q-68 0 -107 -57.5t-57 -185.5q-4 -28 -6 -51.5t-2 -43.5q0 -62 22 -88t70 -26v0zM622 865q2 -11 -0.5 -17.5t-17.5 -10.5l-241 -56q-13 -3 -20 3t-9 16l-9 43q-4 17 5 21l252 98q7 3 12.5 0.5t8.5 -16.5z" />
    <glyph glyph-name="Ocircumflex" unicode="&#xd4;" horiz-adv-x="780" 
d="M360 -10q-100 0 -171 38.5t-109 109.5t-38 168q0 17 1 36t4 38q16 114 71.5 197.5t141 129t191.5 45.5q98 0 169 -39.5t109 -111.5t38 -170q0 -17 -1 -35.5t-4 -37.5q-16 -112 -70.5 -195t-139.5 -128t-192 -45v0zM366 146q68 0 106 53.5t55 177.5q4 29 6 53.5t2 45.5
q0 65 -21 93.5t-68 28.5q-68 0 -107 -57.5t-57 -185.5q-4 -28 -6 -51.5t-2 -43.5q0 -62 22 -88t70 -26v0zM493 875q-7 11 -12 11.5t-16 -10.5l-58 -58q-7 -7 -12.5 -9t-15.5 -2h-103q-9 0 -9.5 6.5t5.5 11.5l131 128q8 8 16 9.5t22 1.5h95q11 0 16 -6t9 -11l94 -126
q7 -10 4 -12t-14 -2h-96q-9 0 -13.5 3.5t-8.5 10.5z" />
    <glyph glyph-name="Otilde" unicode="&#xd5;" horiz-adv-x="780" 
d="M360 -10q-100 0 -171 38.5t-109 109.5t-38 168q0 17 1 36t4 38q16 114 71.5 197.5t141 129t191.5 45.5q98 0 169 -39.5t109 -111.5t38 -170q0 -17 -1 -35.5t-4 -37.5q-16 -112 -70.5 -195t-139.5 -128t-192 -45v0zM366 146q68 0 106 53.5t55 177.5q4 29 6 53.5t2 45.5
q0 65 -21 93.5t-68 28.5q-68 0 -107 -57.5t-57 -185.5q-4 -28 -6 -51.5t-2 -43.5q0 -62 22 -88t70 -26v0zM661 840q-19 -7 -46 -14.5t-55 -7.5q-31 0 -57 8t-49.5 15.5t-50.5 7.5q-24 0 -38.5 -9t-39.5 -23q-10 -5 -16 1.5t-8 18.5l-10 54q-1 8 -4 17t11 18q21 13 44 22.5
t55 9.5q34 0 62.5 -8.5t53 -17t45.5 -8.5q18 0 32.5 7.5t27.5 16.5t24 11t18 -4.5t8 -17.5l5 -64q1 -9 1.5 -18.5t-13.5 -14.5v0z" />
    <glyph glyph-name="Odieresis" unicode="&#xd6;" horiz-adv-x="780" 
d="M360 -10q-100 0 -171 38.5t-109 109.5t-38 168q0 17 1 36t4 38q16 114 71.5 197.5t141 129t191.5 45.5q98 0 169 -39.5t109 -111.5t38 -170q0 -17 -1 -35.5t-4 -37.5q-16 -112 -70.5 -195t-139.5 -128t-192 -45v0zM366 146q68 0 106 53.5t55 177.5q4 29 6 53.5t2 45.5
q0 65 -21 93.5t-68 28.5q-68 0 -107 -57.5t-57 -185.5q-4 -28 -6 -51.5t-2 -43.5q0 -62 22 -88t70 -26v0zM434 829q-1 -13 -6.5 -15.5t-20.5 -2.5h-120q-13 0 -18 8.5t-4 19.5l14 101q2 10 4.5 12t9.5 2h139q8 0 13 -8t4 -16zM674 829q-1 -13 -6.5 -15.5t-20.5 -2.5h-120
q-13 0 -18 8.5t-4 19.5l14 101q2 10 4.5 12t9.5 2h139q8 0 13 -8t4 -16z" />
    <glyph glyph-name="multiply" unicode="&#xd7;" 
d="M461 134q-12 -10 -21.5 -5.5t-19.5 16.5l-319 370q-9 11 -10 19t8 17l75 66q10 8 17.5 4.5t11.5 -9.5l333 -386q5 -5 6.5 -12.5t-5.5 -13.5zM60 202q-10 11 -10.5 21t12.5 22l423 370q12 11 19.5 6.5t14.5 -13.5l58 -66q6 -8 8.5 -15.5t-2.5 -14.5l-441 -385
q-7 -6 -13.5 -1.5t-11.5 10.5z" />
    <glyph glyph-name="Oslash" unicode="&#xd8;" horiz-adv-x="786" 
d="M832 682q5 -6 7.5 -13t-5.5 -14l-92 -75q19 -44 26 -99.5t-3 -122.5q-16 -112 -70.5 -195t-139.5 -128t-192 -45q-72 0 -128 20.5t-94 55.5l-68 -63q-13 -11 -22 -7.5t-19 15.5l-34 40q-10 11 -13 19.5t7 17.5l82 66q-19 45 -26.5 101.5t2.5 124.5q16 114 71.5 197.5
t141 129t191.5 45.5q73 0 129.5 -22t95.5 -60l76 71q9 8 17 5.5t12 -8.5l48 -56v0zM285 355q-1 -5 -2 -13.5t-3 -17.5l249 220q-10 31 -30 42.5t-50 11.5q-68 0 -107 -57.5t-57 -185.5v0zM530 377q1 6 2 14.5t2 17.5l-247 -219q11 -25 31.5 -34.5t50.5 -9.5q68 0 106 53.5
t55 177.5v0z" />
    <glyph glyph-name="Ugrave" unicode="&#xd9;" horiz-adv-x="728" 
d="M687 287q-16 -115 -64 -180t-122 -91t-168 -26q-156 0 -222 63.5t-66 180.5q0 20 2 41.5t5 43.5l57 406q2 11 5.5 14t11.5 3h190q9 0 14.5 -8.5t3.5 -18.5l-60 -432q-1 -12 -2.5 -22.5t-1.5 -20.5q0 -51 23.5 -71t63.5 -20q33 0 63 14t52 47t30 88l60 427q2 11 5 14t12 3
h150q9 0 14.5 -8.5t3.5 -18.5l-60 -428v0zM355 951q4 9 10.5 11t13.5 -1l222 -101q9 -4 11.5 -9t-1.5 -14l-21 -47q-4 -8 -10 -9t-18 2l-225 56q-16 4 -19.5 10t0.5 17l37 85v0z" />
    <glyph glyph-name="Uacute" unicode="&#xda;" horiz-adv-x="728" 
d="M687 287q-16 -115 -64 -180t-122 -91t-168 -26q-156 0 -222 63.5t-66 180.5q0 20 2 41.5t5 43.5l57 406q2 11 5.5 14t11.5 3h190q9 0 14.5 -8.5t3.5 -18.5l-60 -432q-1 -12 -2.5 -22.5t-1.5 -20.5q0 -51 23.5 -71t63.5 -20q33 0 63 14t52 47t30 88l60 427q2 11 5 14t12 3
h150q9 0 14.5 -8.5t3.5 -18.5l-60 -428v0zM613 865q2 -11 -0.5 -17.5t-17.5 -10.5l-241 -56q-13 -3 -20 3t-9 16l-9 43q-4 17 5 21l252 98q7 3 12.5 0.5t8.5 -16.5z" />
    <glyph glyph-name="Ucircumflex" unicode="&#xdb;" horiz-adv-x="728" 
d="M687 287q-16 -115 -64 -180t-122 -91t-168 -26q-156 0 -222 63.5t-66 180.5q0 20 2 41.5t5 43.5l57 406q2 11 5.5 14t11.5 3h190q9 0 14.5 -8.5t3.5 -18.5l-60 -432q-1 -12 -2.5 -22.5t-1.5 -20.5q0 -51 23.5 -71t63.5 -20q33 0 63 14t52 47t30 88l60 427q2 11 5 14t12 3
h150q9 0 14.5 -8.5t3.5 -18.5l-60 -428v0zM484 875q-7 11 -12 11.5t-16 -10.5l-58 -58q-7 -7 -12.5 -9t-15.5 -2h-103q-9 0 -9.5 6.5t5.5 11.5l131 128q8 8 16 9.5t22 1.5h95q11 0 16 -6t9 -11l94 -126q7 -10 4 -12t-14 -2h-96q-9 0 -13.5 3.5t-8.5 10.5z" />
    <glyph glyph-name="Udieresis" unicode="&#xdc;" horiz-adv-x="728" 
d="M687 287q-16 -115 -64 -180t-122 -91t-168 -26q-156 0 -222 63.5t-66 180.5q0 20 2 41.5t5 43.5l57 406q2 11 5.5 14t11.5 3h190q9 0 14.5 -8.5t3.5 -18.5l-60 -432q-1 -12 -2.5 -22.5t-1.5 -20.5q0 -51 23.5 -71t63.5 -20q33 0 63 14t52 47t30 88l60 427q2 11 5 14t12 3
h150q9 0 14.5 -8.5t3.5 -18.5l-60 -428v0zM425 829q-1 -13 -6.5 -15.5t-20.5 -2.5h-120q-13 0 -18 8.5t-4 19.5l14 101q2 10 4.5 12t9.5 2h139q8 0 13 -8t4 -16zM665 829q-1 -13 -6.5 -15.5t-20.5 -2.5h-120q-13 0 -18 8.5t-4 19.5l14 101q2 10 4.5 12t9.5 2h139q8 0 13 -8
t4 -16z" />
    <glyph glyph-name="Yacute" unicode="&#xdd;" horiz-adv-x="774" 
d="M803 742q13 0 15.5 -8t-2.5 -16l-291 -382q-8 -10 -12.5 -22.5t-8.5 -44.5l-35 -246q-2 -16 -8.5 -19.5t-23.5 -3.5h-176q-13 0 -16.5 5.5t-2.5 18.5l38 270q2 16 1 24t-6 19l-181 382q-6 12 -3.5 17.5t18.5 5.5h201q14 0 20 -7t11 -19l93 -222q4 -10 11 0l160 232
q8 11 13.5 13.5t19.5 2.5h165v0zM635 865q2 -11 -0.5 -17.5t-17.5 -10.5l-241 -56q-13 -3 -20 3t-9 16l-9 43q-4 17 5 21l252 98q7 3 12.5 0.5t8.5 -16.5z" />
    <glyph glyph-name="Thorn" unicode="&#xde;" horiz-adv-x="743" 
d="M729 361q-9 -69 -49.5 -118t-105 -75t-146.5 -26h-150q-7 0 -12.5 -6t-6.5 -11l-14 -102q-2 -16 -8.5 -19.5t-23.5 -3.5h-168q-15 0 -21 9t-5 22l98 694q2 11 5.5 14t11.5 3h190q9 0 14.5 -8.5t3.5 -18.5l-14 -101q-1 -6 -0.5 -6h5.5h126q82 0 147.5 -28t100 -82.5
t22.5 -136.5v0zM501 386q5 30 -15 46t-55 16h-99q-13 0 -21 -8t-10 -19l-15 -103q-1 -11 0 -13.5t11 -2.5h111q36 0 62.5 25t30.5 59v0z" />
    <glyph glyph-name="germandbls" unicode="&#xdf;" horiz-adv-x="676" 
d="M406 742q75 0 126.5 -20t76 -58t16.5 -94q-4 -32 -21 -57.5t-49.5 -47.5t-86.5 -44q-4 1 -8.5 -3.5t-5.5 -10.5q0 2 0.5 0.5t0.5 -5.5q40 -16 77 -35.5t65 -46t41.5 -63.5t5.5 -89q-8 -59 -41 -99t-85.5 -59.5t-121.5 -19.5q-45 0 -73 9.5t-44 22.5q-10 2 -13 8.5
t-1 12.5l54 89q5 7 9.5 3t7.5 -10q11 -2 25 -7t33 -5q26 0 48 14t26 42q2 12 -4.5 20t-20.5 16.5t-37 20.5q-31 13 -55 33.5t-35.5 50.5t-6.5 69q5 36 23.5 62t39.5 50q17 13 33.5 26t28 28t13.5 34q2 17 -9.5 27.5t-40.5 10.5q-43 0 -68.5 -26.5t-30.5 -61.5l-73 -512
q2 -11 -0.5 -14t-11.5 -3h-163q-8 0 -14 8t-5 18l47 331q1 5 1 4.5t-5 -0.5h-26q-10 0 -16.5 7.5t-5.5 17.5l13 94q2 9 5.5 12.5t16.5 3.5h18q10 0 15.5 9t7.5 20q7 40 26 78.5t54 70t90 50t134 18.5v0z" />
    <glyph glyph-name="agrave" unicode="&#xe0;" horiz-adv-x="573" 
d="M296 40q-25 -27 -65 -38.5t-84 -11.5q-70 0 -109 38t-39 95q0 59 31.5 99t81.5 64.5t108 35t110 10.5h7q19 0 22 20l3 17q1 4 1 7.5v6.5q0 20 -11 29t-34 9q-24 0 -49.5 -8.5t-41.5 -40.5q-3 -6 -8 -8t-18 0l-127 26q-8 2 -12.5 10.5t4.5 31.5q32 59 99.5 83.5
t162.5 24.5q85 0 134.5 -18t70.5 -50t21 -74q0 -7 -0.5 -14t-1.5 -15l-49 -348q-2 -15 -5 -18t-17 -3h-137q-13 0 -16 9t-5 23l-1 12q-2 22 -26 -4v0zM342 230q2 9 1 11t-10 1l-14 -1q-15 -1 -36 -6t-41 -15t-33 -26t-13 -39q0 -16 11 -27.5t33 -11.5q23 0 40 6t27 14
t18.5 19t9.5 22zM241 739q4 9 10.5 11t13.5 -1l222 -101q9 -4 11.5 -9t-1.5 -14l-21 -47q-4 -8 -10 -9t-18 2l-225 56q-16 4 -19.5 10t0.5 17l37 85v0z" />
    <glyph glyph-name="aacute" unicode="&#xe1;" horiz-adv-x="573" 
d="M296 40q-25 -27 -65 -38.5t-84 -11.5q-70 0 -109 38t-39 95q0 59 31.5 99t81.5 64.5t108 35t110 10.5h7q19 0 22 20l3 17q1 4 1 7.5v6.5q0 20 -11 29t-34 9q-24 0 -49.5 -8.5t-41.5 -40.5q-3 -6 -8 -8t-18 0l-127 26q-8 2 -12.5 10.5t4.5 31.5q32 59 99.5 83.5
t162.5 24.5q85 0 134.5 -18t70.5 -50t21 -74q0 -7 -0.5 -14t-1.5 -15l-49 -348q-2 -15 -5 -18t-17 -3h-137q-13 0 -16 9t-5 23l-1 12q-2 22 -26 -4v0zM342 230q2 9 1 11t-10 1l-14 -1q-15 -1 -36 -6t-41 -15t-33 -26t-13 -39q0 -16 11 -27.5t33 -11.5q23 0 40 6t27 14
t18.5 19t9.5 22zM499 653q2 -11 -0.5 -17.5t-17.5 -10.5l-241 -56q-13 -3 -20 3t-9 16l-9 43q-4 17 5 21l252 98q7 3 12.5 0.5t8.5 -16.5z" />
    <glyph glyph-name="acircumflex" unicode="&#xe2;" horiz-adv-x="573" 
d="M296 40q-25 -27 -65 -38.5t-84 -11.5q-70 0 -109 38t-39 95q0 59 31.5 99t81.5 64.5t108 35t110 10.5h7q19 0 22 20l3 17q1 4 1 7.5v6.5q0 20 -11 29t-34 9q-24 0 -49.5 -8.5t-41.5 -40.5q-3 -6 -8 -8t-18 0l-127 26q-8 2 -12.5 10.5t4.5 31.5q32 59 99.5 83.5
t162.5 24.5q85 0 134.5 -18t70.5 -50t21 -74q0 -7 -0.5 -14t-1.5 -15l-49 -348q-2 -15 -5 -18t-17 -3h-137q-13 0 -16 9t-5 23l-1 12q-2 22 -26 -4v0zM342 230q2 9 1 11t-10 1l-14 -1q-15 -1 -36 -6t-41 -15t-33 -26t-13 -39q0 -16 11 -27.5t33 -11.5q23 0 40 6t27 14
t18.5 19t9.5 22zM370 663q-7 11 -12 11.5t-16 -10.5l-58 -58q-7 -7 -12.5 -9t-15.5 -2h-103q-9 0 -9.5 6.5t5.5 11.5l131 128q8 8 16 9.5t22 1.5h95q11 0 16 -6t9 -11l94 -126q7 -10 4 -12t-14 -2h-96q-9 0 -13.5 3.5t-8.5 10.5z" />
    <glyph glyph-name="atilde" unicode="&#xe3;" horiz-adv-x="573" 
d="M296 40q-25 -27 -65 -38.5t-84 -11.5q-70 0 -109 38t-39 95q0 59 31.5 99t81.5 64.5t108 35t110 10.5h7q19 0 22 20l3 17q1 4 1 7.5v6.5q0 20 -11 29t-34 9q-24 0 -49.5 -8.5t-41.5 -40.5q-3 -6 -8 -8t-18 0l-127 26q-8 2 -12.5 10.5t4.5 31.5q32 59 99.5 83.5
t162.5 24.5q85 0 134.5 -18t70.5 -50t21 -74q0 -7 -0.5 -14t-1.5 -15l-49 -348q-2 -15 -5 -18t-17 -3h-137q-13 0 -16 9t-5 23l-1 12q-2 22 -26 -4v0zM342 230q2 9 1 11t-10 1l-14 -1q-15 -1 -36 -6t-41 -15t-33 -26t-13 -39q0 -16 11 -27.5t33 -11.5q23 0 40 6t27 14
t18.5 19t9.5 22zM538 628q-19 -7 -46 -14.5t-55 -7.5q-31 0 -57 8t-49.5 15.5t-50.5 7.5q-24 0 -38.5 -9t-39.5 -23q-10 -5 -16 1.5t-8 18.5l-10 54q-1 8 -4 17t11 18q21 13 44 22.5t55 9.5q34 0 62.5 -8.5t53 -17t45.5 -8.5q18 0 32.5 7.5t27.5 16.5t24 11t18 -4.5t8 -17.5
l5 -64q1 -9 1.5 -18.5t-13.5 -14.5v0z" />
    <glyph glyph-name="adieresis" unicode="&#xe4;" horiz-adv-x="573" 
d="M296 40q-25 -27 -65 -38.5t-84 -11.5q-70 0 -109 38t-39 95q0 59 31.5 99t81.5 64.5t108 35t110 10.5h7q19 0 22 20l3 17q1 4 1 7.5v6.5q0 20 -11 29t-34 9q-24 0 -49.5 -8.5t-41.5 -40.5q-3 -6 -8 -8t-18 0l-127 26q-8 2 -12.5 10.5t4.5 31.5q32 59 99.5 83.5
t162.5 24.5q85 0 134.5 -18t70.5 -50t21 -74q0 -7 -0.5 -14t-1.5 -15l-49 -348q-2 -15 -5 -18t-17 -3h-137q-13 0 -16 9t-5 23l-1 12q-2 22 -26 -4v0zM342 230q2 9 1 11t-10 1l-14 -1q-15 -1 -36 -6t-41 -15t-33 -26t-13 -39q0 -16 11 -27.5t33 -11.5q23 0 40 6t27 14
t18.5 19t9.5 22zM311 617q-1 -13 -6.5 -15.5t-20.5 -2.5h-120q-13 0 -18 8.5t-4 19.5l14 101q2 10 4.5 12t9.5 2h139q8 0 13 -8t4 -16zM551 617q-1 -13 -6.5 -15.5t-20.5 -2.5h-120q-13 0 -18 8.5t-4 19.5l14 101q2 10 4.5 12t9.5 2h139q8 0 13 -8t4 -16z" />
    <glyph glyph-name="aring" unicode="&#xe5;" horiz-adv-x="573" 
d="M296 40q-25 -27 -65 -38.5t-84 -11.5q-70 0 -109 38t-39 95q0 59 31.5 99t81.5 64.5t108 35t110 10.5h7q19 0 22 20l3 17q1 4 1 7.5v6.5q0 20 -11 29t-34 9q-24 0 -49.5 -8.5t-41.5 -40.5q-3 -6 -8 -8t-18 0l-127 26q-8 2 -12.5 10.5t4.5 31.5q32 59 99.5 83.5
t162.5 24.5q85 0 134.5 -18t70.5 -50t21 -74q0 -7 -0.5 -14t-1.5 -15l-49 -348q-2 -15 -5 -18t-17 -3h-137q-13 0 -16 9t-5 23l-1 12q-2 22 -26 -4v0zM342 230q2 9 1 11t-10 1l-14 -1q-15 -1 -36 -6t-41 -15t-33 -26t-13 -39q0 -16 11 -27.5t33 -11.5q23 0 40 6t27 14
t18.5 19t9.5 22zM472 679q-7 -46 -42.5 -76t-81.5 -30q-34 0 -60 17.5t-39 47t-8 65.5q6 44 42 73t81 29q35 0 61 -17t39 -45.5t8 -63.5v0zM405 700q2 17 -8 26.5t-27 9.5q-22 0 -42 -17t-24 -41q-1 -16 9.5 -27t26.5 -11q23 0 42 18.5t23 41.5v0z" />
    <glyph glyph-name="ae" unicode="&#xe6;" horiz-adv-x="914" 
d="M565 229q-7 0 -14 -7.5t-9 -20.5q-4 -28 6 -45.5t30.5 -25.5t47.5 -8q19 0 37.5 6t39 20.5t44.5 37.5q5 1 8 -2t13 -7l85 -37q8 -3 11.5 -11.5t-3.5 -20.5q-44 -48 -84 -73.5t-83.5 -35t-97.5 -9.5q-44 0 -81.5 11t-67 31t-49.5 47q-4 0 -9 -6t-7 -11q-34 -27 -68.5 -43
t-72.5 -22.5t-82 -6.5q-88 0 -128 46t-30 118q11 77 87.5 123.5t221.5 53.5l23 1q6 0 15 5.5t10 14.5l3 17q4 28 -6.5 40t-37.5 12q-24 0 -49.5 -12.5t-41.5 -44.5q-6 -6 -9.5 -4t-16.5 4l-127 26q-7 2 -9.5 15.5t1.5 26.5q25 36 56 60t79 36t123 12q70 -1 114 -12t67 -28
q38 22 76 31t74 9q81 0 139 -35.5t85 -102t14 -159.5q-1 -9 -2 -11t-14 -3h-311v0zM662 423q-22 0 -43.5 -11t-36.5 -32.5t-19 -52.5l126 5q10 0 17 6t8 19q2 11 -2 26.5t-15.5 27.5t-34.5 12v0zM340 222q2 9 -0.5 10.5t-11.5 1.5l-14 -1q-19 -1 -46 -12t-48.5 -30
t-25.5 -46q-2 -18 9.5 -27.5t37.5 -9.5q21 0 41 7.5t34 21t16 29.5l8 56v0z" />
    <glyph glyph-name="ccedilla" unicode="&#xe7;" horiz-adv-x="556" 
d="M329 540q74 0 121.5 -28t71.5 -69.5t25 -83.5q0 -9 -3.5 -12t-16.5 -4l-132 -7q-8 -1 -11 6.5t-5 19.5q-1 11 -3.5 23t-12 20.5t-31.5 8.5q-34 0 -56 -22t-35 -56t-18.5 -70t-5.5 -64q0 -49 18 -68.5t50 -19.5q44 0 68 20t48 60q3 5 18 3l92 -18q8 -1 11 -9.5t-2 -23.5
q-6 -17 -24 -43t-49 -52t-76 -43.5t-104 -17.5q-74 0 -130 30t-87 84t-31 125q0 63 22.5 119.5t63.5 99.5t98 67.5t126 24.5v0zM377 -148q-5 -37 -45.5 -57t-90.5 -20q-36 0 -68.5 7.5t-55.5 23.5q-7 1 -10.5 5.5t-1.5 9.5l23 41q2 5 4 0.5t3 -7.5q18 -6 37.5 -11t36.5 -5
q24 0 41 11t19 27q2 14 -14 21t-65 7q-10 0 -16 4.5t-2 12.5l51 83h83l-25 -54q-3 -4 -5 -4t0 0q41 0 64 -15t31.5 -36.5t5.5 -43.5v0z" />
    <glyph glyph-name="egrave" unicode="&#xe8;" horiz-adv-x="590" 
d="M272 -10q-75 0 -132 30t-89.5 83t-32.5 123q0 62 24 118t66.5 100.5t99 70t122.5 25.5q72 0 126.5 -29t85 -83t30.5 -130q0 -13 -1 -27t-3 -28q-1 -9 -6 -11.5t-18 -2.5h-309q-12 0 -15 -15t-3 -27q0 -34 24 -49.5t61 -15.5q29 0 56 12t58 42q6 6 12.5 5.5t15.5 -4.5
l85 -37q26 -11 8 -32q-44 -48 -84 -73.5t-83.5 -35t-97.5 -9.5v0zM365 327q10 0 17.5 8.5t7.5 26.5q0 20 -12.5 40.5t-44.5 20.5q-20 0 -40.5 -11t-35 -32.5t-18.5 -52.5h126zM245 739q4 9 10.5 11t13.5 -1l222 -101q9 -4 11.5 -9t-1.5 -14l-21 -47q-4 -8 -10 -9t-18 2
l-225 56q-16 4 -19.5 10t0.5 17l37 85v0z" />
    <glyph glyph-name="eacute" unicode="&#xe9;" horiz-adv-x="590" 
d="M272 -10q-75 0 -132 30t-89.5 83t-32.5 123q0 62 24 118t66.5 100.5t99 70t122.5 25.5q72 0 126.5 -29t85 -83t30.5 -130q0 -13 -1 -27t-3 -28q-1 -9 -6 -11.5t-18 -2.5h-309q-12 0 -15 -15t-3 -27q0 -34 24 -49.5t61 -15.5q29 0 56 12t58 42q6 6 12.5 5.5t15.5 -4.5
l85 -37q26 -11 8 -32q-44 -48 -84 -73.5t-83.5 -35t-97.5 -9.5v0zM365 327q10 0 17.5 8.5t7.5 26.5q0 20 -12.5 40.5t-44.5 20.5q-20 0 -40.5 -11t-35 -32.5t-18.5 -52.5h126zM503 653q2 -11 -0.5 -17.5t-17.5 -10.5l-241 -56q-13 -3 -20 3t-9 16l-9 43q-4 17 5 21l252 98
q7 3 12.5 0.5t8.5 -16.5z" />
    <glyph glyph-name="ecircumflex" unicode="&#xea;" horiz-adv-x="590" 
d="M272 -10q-75 0 -132 30t-89.5 83t-32.5 123q0 62 24 118t66.5 100.5t99 70t122.5 25.5q72 0 126.5 -29t85 -83t30.5 -130q0 -13 -1 -27t-3 -28q-1 -9 -6 -11.5t-18 -2.5h-309q-12 0 -15 -15t-3 -27q0 -34 24 -49.5t61 -15.5q29 0 56 12t58 42q6 6 12.5 5.5t15.5 -4.5
l85 -37q26 -11 8 -32q-44 -48 -84 -73.5t-83.5 -35t-97.5 -9.5v0zM365 327q10 0 17.5 8.5t7.5 26.5q0 20 -12.5 40.5t-44.5 20.5q-20 0 -40.5 -11t-35 -32.5t-18.5 -52.5h126zM374 663q-7 11 -12 11.5t-16 -10.5l-58 -58q-7 -7 -12.5 -9t-15.5 -2h-103q-9 0 -9.5 6.5
t5.5 11.5l131 128q8 8 16 9.5t22 1.5h95q11 0 16 -6t9 -11l94 -126q7 -10 4 -12t-14 -2h-96q-9 0 -13.5 3.5t-8.5 10.5z" />
    <glyph glyph-name="edieresis" unicode="&#xeb;" horiz-adv-x="590" 
d="M272 -10q-75 0 -132 30t-89.5 83t-32.5 123q0 62 24 118t66.5 100.5t99 70t122.5 25.5q72 0 126.5 -29t85 -83t30.5 -130q0 -13 -1 -27t-3 -28q-1 -9 -6 -11.5t-18 -2.5h-309q-12 0 -15 -15t-3 -27q0 -34 24 -49.5t61 -15.5q29 0 56 12t58 42q6 6 12.5 5.5t15.5 -4.5
l85 -37q26 -11 8 -32q-44 -48 -84 -73.5t-83.5 -35t-97.5 -9.5v0zM365 327q10 0 17.5 8.5t7.5 26.5q0 20 -12.5 40.5t-44.5 20.5q-20 0 -40.5 -11t-35 -32.5t-18.5 -52.5h126zM315 617q-1 -13 -6.5 -15.5t-20.5 -2.5h-120q-13 0 -18 8.5t-4 19.5l14 101q2 10 4.5 12t9.5 2
h139q8 0 13 -8t4 -16zM555 617q-1 -13 -6.5 -15.5t-20.5 -2.5h-120q-13 0 -18 8.5t-4 19.5l14 101q2 10 4.5 12t9.5 2h139q8 0 13 -8t4 -16z" />
    <glyph glyph-name="igrave" unicode="&#xec;" horiz-adv-x="282" 
d="M207 23q-2 -16 -8.5 -19.5t-23.5 -3.5h-141q-15 0 -21 9t-5 22l68 482q2 11 5 14t12 3h163q8 0 14 -8.5t5 -17.5zM85 739q4 9 10.5 11t13.5 -1l222 -101q9 -4 11.5 -9t-1.5 -14l-21 -47q-4 -8 -10 -9t-18 2l-225 56q-16 4 -19.5 10t0.5 17l37 85v0z" />
    <glyph glyph-name="iacute" unicode="&#xed;" horiz-adv-x="282" 
d="M207 23q-2 -16 -8.5 -19.5t-23.5 -3.5h-141q-15 0 -21 9t-5 22l68 482q2 11 5 14t12 3h163q8 0 14 -8.5t5 -17.5zM343 653q2 -11 -0.5 -17.5t-17.5 -10.5l-241 -56q-13 -3 -20 3t-9 16l-9 43q-4 17 5 21l252 98q7 3 12.5 0.5t8.5 -16.5z" />
    <glyph glyph-name="icircumflex" unicode="&#xee;" horiz-adv-x="282" 
d="M207 23q-2 -16 -8.5 -19.5t-23.5 -3.5h-141q-15 0 -21 9t-5 22l68 482q2 11 5 14t12 3h163q8 0 14 -8.5t5 -17.5zM214 663q-7 11 -12 11.5t-16 -10.5l-58 -58q-7 -7 -12.5 -9t-15.5 -2h-103q-9 0 -9.5 6.5t5.5 11.5l131 128q8 8 16 9.5t22 1.5h95q11 0 16 -6t9 -11
l94 -126q7 -10 4 -12t-14 -2h-96q-9 0 -13.5 3.5t-8.5 10.5z" />
    <glyph glyph-name="idieresis" unicode="&#xef;" horiz-adv-x="282" 
d="M207 23q-2 -16 -8.5 -19.5t-23.5 -3.5h-141q-15 0 -21 9t-5 22l68 482q2 11 5 14t12 3h163q8 0 14 -8.5t5 -17.5zM155 617q-1 -13 -6.5 -15.5t-20.5 -2.5h-120q-13 0 -18 8.5t-4 19.5l14 101q2 10 4.5 12t9.5 2h139q8 0 13 -8t4 -16zM395 617q-1 -13 -6.5 -15.5
t-20.5 -2.5h-120q-13 0 -18 8.5t-4 19.5l14 101q2 10 4.5 12t9.5 2h139q8 0 13 -8t4 -16z" />
    <glyph glyph-name="eth" unicode="&#xf0;" 
d="M580 271q-12 -87 -55 -150t-109 -97t-148 -34q-84 0 -143.5 36t-87 98t-16.5 139q11 76 54.5 134t109.5 90.5t143 32.5q6 0 9.5 5t4.5 10q-12 16 -25 29t-31 29l-105 -60q-9 -4 -14 1.5t-8 13.5l-13 24q-9 16 -1 19l83 40q-17 10 -35 18.5t-38 17.5q-7 0 -11 5t0 9l95 69
q6 5 8.5 2.5t8.5 -6.5q34 -5 63.5 -16.5t54.5 -25.5l82 48q6 4 11 -1t6 -9l17 -38q2 -4 3.5 -6.5t-3.5 -5.5l-57 -26q84 -65 124 -169t23 -226v0zM271 118q29 0 50.5 17t35.5 50t20 82q7 45 4 73.5t-16.5 42t-38.5 13.5q-28 0 -49.5 -17t-35.5 -50.5t-21 -83.5
q-6 -44 -3 -72.5t16.5 -41.5t37.5 -13v0z" />
    <glyph glyph-name="ntilde" unicode="&#xf1;" horiz-adv-x="604" 
d="M25 0q-13 0 -15.5 9t-1.5 22l68 482q2 11 5 14t12 3h171q6 0 9 -2.5t1 -12.5l-7 -45q-1 -13 12 -1q35 31 77.5 51t85.5 20q65 0 104 -38.5t39 -100.5q0 -7 -0.5 -14t-1.5 -15l-49 -348q-2 -15 -8.5 -19.5t-22.5 -4.5h-153q-13 0 -15 8.5t0 22.5l45 320q1 5 1.5 9t0.5 6
q0 17 -10.5 25t-29.5 8q-17 0 -33 -6.5t-29.5 -19t-25.5 -29.5l-47 -321q-2 -16 -9 -19.5t-25 -3.5h-148v0zM545 628q-19 -7 -46 -14.5t-55 -7.5q-31 0 -57 8t-49.5 15.5t-50.5 7.5q-24 0 -38.5 -9t-39.5 -23q-10 -5 -16 1.5t-8 18.5l-10 54q-1 8 -4 17t11 18q21 13 44 22.5
t55 9.5q34 0 62.5 -8.5t53 -17t45.5 -8.5q18 0 32.5 7.5t27.5 16.5t24 11t18 -4.5t8 -17.5l5 -64q1 -9 1.5 -18.5t-13.5 -14.5v0z" />
    <glyph glyph-name="ograve" unicode="&#xf2;" 
d="M268 -10q-76 0 -132 30t-86.5 84t-30.5 124t25 127.5t68.5 98.5t100 63.5t118.5 22.5q77 0 133 -31t86 -85.5t30 -125.5q0 -88 -41 -158t-111.5 -110t-159.5 -40v0zM271 118q31 0 56.5 24t41 73t15.5 124q0 41 -13 59t-42 18q-30 0 -55.5 -24t-41 -73.5t-15.5 -125.5
q0 -40 13 -57.5t41 -17.5v0zM244 739q4 9 10.5 11t13.5 -1l222 -101q9 -4 11.5 -9t-1.5 -14l-21 -47q-4 -8 -10 -9t-18 2l-225 56q-16 4 -19.5 10t0.5 17l37 85v0z" />
    <glyph glyph-name="oacute" unicode="&#xf3;" 
d="M268 -10q-76 0 -132 30t-86.5 84t-30.5 124t25 127.5t68.5 98.5t100 63.5t118.5 22.5q77 0 133 -31t86 -85.5t30 -125.5q0 -88 -41 -158t-111.5 -110t-159.5 -40v0zM271 118q31 0 56.5 24t41 73t15.5 124q0 41 -13 59t-42 18q-30 0 -55.5 -24t-41 -73.5t-15.5 -125.5
q0 -40 13 -57.5t41 -17.5v0zM502 653q2 -11 -0.5 -17.5t-17.5 -10.5l-241 -56q-13 -3 -20 3t-9 16l-9 43q-4 17 5 21l252 98q7 3 12.5 0.5t8.5 -16.5z" />
    <glyph glyph-name="ocircumflex" unicode="&#xf4;" 
d="M268 -10q-76 0 -132 30t-86.5 84t-30.5 124t25 127.5t68.5 98.5t100 63.5t118.5 22.5q77 0 133 -31t86 -85.5t30 -125.5q0 -88 -41 -158t-111.5 -110t-159.5 -40v0zM271 118q31 0 56.5 24t41 73t15.5 124q0 41 -13 59t-42 18q-30 0 -55.5 -24t-41 -73.5t-15.5 -125.5
q0 -40 13 -57.5t41 -17.5v0zM373 663q-7 11 -12 11.5t-16 -10.5l-58 -58q-7 -7 -12.5 -9t-15.5 -2h-103q-9 0 -9.5 6.5t5.5 11.5l131 128q8 8 16 9.5t22 1.5h95q11 0 16 -6t9 -11l94 -126q7 -10 4 -12t-14 -2h-96q-9 0 -13.5 3.5t-8.5 10.5z" />
    <glyph glyph-name="otilde" unicode="&#xf5;" 
d="M268 -10q-76 0 -132 30t-86.5 84t-30.5 124t25 127.5t68.5 98.5t100 63.5t118.5 22.5q77 0 133 -31t86 -85.5t30 -125.5q0 -88 -41 -158t-111.5 -110t-159.5 -40v0zM271 118q31 0 56.5 24t41 73t15.5 124q0 41 -13 59t-42 18q-30 0 -55.5 -24t-41 -73.5t-15.5 -125.5
q0 -40 13 -57.5t41 -17.5v0zM541 628q-19 -7 -46 -14.5t-55 -7.5q-31 0 -57 8t-49.5 15.5t-50.5 7.5q-24 0 -38.5 -9t-39.5 -23q-10 -5 -16 1.5t-8 18.5l-10 54q-1 8 -4 17t11 18q21 13 44 22.5t55 9.5q34 0 62.5 -8.5t53 -17t45.5 -8.5q18 0 32.5 7.5t27.5 16.5t24 11
t18 -4.5t8 -17.5l5 -64q1 -9 1.5 -18.5t-13.5 -14.5v0z" />
    <glyph glyph-name="odieresis" unicode="&#xf6;" 
d="M268 -10q-76 0 -132 30t-86.5 84t-30.5 124t25 127.5t68.5 98.5t100 63.5t118.5 22.5q77 0 133 -31t86 -85.5t30 -125.5q0 -88 -41 -158t-111.5 -110t-159.5 -40v0zM271 118q31 0 56.5 24t41 73t15.5 124q0 41 -13 59t-42 18q-30 0 -55.5 -24t-41 -73.5t-15.5 -125.5
q0 -40 13 -57.5t41 -17.5v0zM314 617q-1 -13 -6.5 -15.5t-20.5 -2.5h-120q-13 0 -18 8.5t-4 19.5l14 101q2 10 4.5 12t9.5 2h139q8 0 13 -8t4 -16zM554 617q-1 -13 -6.5 -15.5t-20.5 -2.5h-120q-13 0 -18 8.5t-4 19.5l14 101q2 10 4.5 12t9.5 2h139q8 0 13 -8t4 -16z" />
    <glyph glyph-name="divide" unicode="&#xf7;" horiz-adv-x="602" 
d="M371 81q-2 -14 -7 -17t-22 -3h-136q-13 0 -19 8.5t-5 19.5l20 140q2 11 5 12.5t10 1.5h157q8 0 13 -7.5t4 -16.5zM570 325q-1 -15 -8 -18.5t-24 -3.5h-463q-15 0 -21 9t-4 22l13 93q2 11 5 14t12 3h485q8 0 14 -8.5t5 -17.5zM433 524q-1 -14 -6 -17t-22 -3h-136
q-13 0 -19.5 8.5t-4.5 20.5l19 139q2 11 5 12.5t10 1.5h157q8 0 13 -7.5t4 -16.5z" />
    <glyph glyph-name="oslash" unicode="&#xf8;" horiz-adv-x="604" 
d="M61 8q-13 -11 -23 -7.5t-18 15.5l-17 20q-9 11 -12.5 20t6.5 17l549 451q11 8 18.5 5.5t11.5 -8.5l30 -36q5 -6 7.5 -13t-5.5 -14zM261 -10q-76 0 -132 30t-86.5 84t-30.5 124t25 127.5t68.5 98.5t100 63.5t118.5 22.5q77 0 133 -31t86 -85.5t30 -125.5q0 -88 -41 -158
t-111.5 -110t-159.5 -40v0zM264 118q31 0 56.5 24t41 73t15.5 124q0 41 -13 59t-42 18q-30 0 -55.5 -24t-41 -73.5t-15.5 -125.5q0 -40 13 -57.5t41 -17.5v0z" />
    <glyph glyph-name="ugrave" unicode="&#xf9;" horiz-adv-x="601" 
d="M154 -10q-60 0 -97 37.5t-37 102.5q0 8 0.5 17t1.5 16l48 343q2 15 8 19.5t22 4.5h146q13 0 19 -9t4 -23l-46 -322q-1 -4 -1 -7.5v-5.5q0 -18 10 -25.5t26 -7.5q26 0 48.5 14t38.5 31l49 332q2 15 8.5 19t23.5 4h143q14 0 21 -9t5 -23l-72 -482q-1 -10 -4.5 -13t-12.5 -3
h-158q-8 0 -13.5 3t-4.5 13l7 44q1 6 -3.5 6t-12.5 -7q-37 -36 -78.5 -52.5t-88.5 -16.5v0zM243 739q4 9 10.5 11t13.5 -1l222 -101q9 -4 11.5 -9t-1.5 -14l-21 -47q-4 -8 -10 -9t-18 2l-225 56q-16 4 -19.5 10t0.5 17l37 85v0z" />
    <glyph glyph-name="uacute" unicode="&#xfa;" horiz-adv-x="601" 
d="M154 -10q-60 0 -97 37.5t-37 102.5q0 8 0.5 17t1.5 16l48 343q2 15 8 19.5t22 4.5h146q13 0 19 -9t4 -23l-46 -322q-1 -4 -1 -7.5v-5.5q0 -18 10 -25.5t26 -7.5q26 0 48.5 14t38.5 31l49 332q2 15 8.5 19t23.5 4h143q14 0 21 -9t5 -23l-72 -482q-1 -10 -4.5 -13t-12.5 -3
h-158q-8 0 -13.5 3t-4.5 13l7 44q1 6 -3.5 6t-12.5 -7q-37 -36 -78.5 -52.5t-88.5 -16.5v0zM501 653q2 -11 -0.5 -17.5t-17.5 -10.5l-241 -56q-13 -3 -20 3t-9 16l-9 43q-4 17 5 21l252 98q7 3 12.5 0.5t8.5 -16.5z" />
    <glyph glyph-name="ucircumflex" unicode="&#xfb;" horiz-adv-x="601" 
d="M154 -10q-60 0 -97 37.5t-37 102.5q0 8 0.5 17t1.5 16l48 343q2 15 8 19.5t22 4.5h146q13 0 19 -9t4 -23l-46 -322q-1 -4 -1 -7.5v-5.5q0 -18 10 -25.5t26 -7.5q26 0 48.5 14t38.5 31l49 332q2 15 8.5 19t23.5 4h143q14 0 21 -9t5 -23l-72 -482q-1 -10 -4.5 -13t-12.5 -3
h-158q-8 0 -13.5 3t-4.5 13l7 44q1 6 -3.5 6t-12.5 -7q-37 -36 -78.5 -52.5t-88.5 -16.5v0zM372 663q-7 11 -12 11.5t-16 -10.5l-58 -58q-7 -7 -12.5 -9t-15.5 -2h-103q-9 0 -9.5 6.5t5.5 11.5l131 128q8 8 16 9.5t22 1.5h95q11 0 16 -6t9 -11l94 -126q7 -10 4 -12t-14 -2
h-96q-9 0 -13.5 3.5t-8.5 10.5z" />
    <glyph glyph-name="udieresis" unicode="&#xfc;" horiz-adv-x="601" 
d="M154 -10q-60 0 -97 37.5t-37 102.5q0 8 0.5 17t1.5 16l48 343q2 15 8 19.5t22 4.5h146q13 0 19 -9t4 -23l-46 -322q-1 -4 -1 -7.5v-5.5q0 -18 10 -25.5t26 -7.5q26 0 48.5 14t38.5 31l49 332q2 15 8.5 19t23.5 4h143q14 0 21 -9t5 -23l-72 -482q-1 -10 -4.5 -13t-12.5 -3
h-158q-8 0 -13.5 3t-4.5 13l7 44q1 6 -3.5 6t-12.5 -7q-37 -36 -78.5 -52.5t-88.5 -16.5v0zM313 617q-1 -13 -6.5 -15.5t-20.5 -2.5h-120q-13 0 -18 8.5t-4 19.5l14 101q2 10 4.5 12t9.5 2h139q8 0 13 -8t4 -16zM553 617q-1 -13 -6.5 -15.5t-20.5 -2.5h-120q-13 0 -18 8.5
t-4 19.5l14 101q2 10 4.5 12t9.5 2h139q8 0 13 -8t4 -16z" />
    <glyph glyph-name="yacute" unicode="&#xfd;" horiz-adv-x="589" 
d="M34 -165q-28 0 -38 5.5t-8 19.5l14 102q1 6 10.5 11t25.5 5h71q17 0 30.5 4t22 11t12 15.5t0.5 17.5l-129 470q-9 34 17 34h183q18 0 21 -15l52 -240q3 -13 9 -12t13 14l114 228q7 14 14.5 19.5t16.5 5.5h112q22 0 8 -24l-262 -470q-35 -62 -66.5 -101.5t-66 -61t-77 -30
t-99.5 -8.5v0zM528 653q2 -11 -0.5 -17.5t-17.5 -10.5l-241 -56q-13 -3 -20 3t-9 16l-9 43q-4 17 5 21l252 98q7 3 12.5 0.5t8.5 -16.5z" />
    <glyph glyph-name="thorn" unicode="&#xfe;" horiz-adv-x="614" 
d="M279 742q14 0 21 -8.5t5 -21.5l-33 -233q-1 -6 4 0t9 13q22 16 44 26.5t46 16t53 5.5q58 0 99.5 -31t60 -94t4.5 -159q-14 -98 -48.5 -156.5t-82.5 -84t-102 -25.5q-37 0 -67 13t-54 46q-25 14 -30 -19l-25 -181q-1 -10 -4 -12t-12 -2h-163q-8 0 -14.5 8.5t-4.5 19.5
l120 859q2 13 6 16.5t20 3.5h148v0zM222 146q11 -18 24.5 -26.5t34.5 -8.5q27 0 49 15.5t38.5 53.5t25.5 104q8 56 4 85t-18.5 39.5t-38.5 10.5q-21 0 -40.5 -9t-32 -23t-14.5 -30l-32 -211v0z" />
    <glyph glyph-name="ydieresis" unicode="&#xff;" horiz-adv-x="589" 
d="M34 -165q-28 0 -38 5.5t-8 19.5l14 102q1 6 10.5 11t25.5 5h71q17 0 30.5 4t22 11t12 15.5t0.5 17.5l-129 470q-9 34 17 34h183q18 0 21 -15l52 -240q3 -13 9 -12t13 14l114 228q7 14 14.5 19.5t16.5 5.5h112q22 0 8 -24l-262 -470q-35 -62 -66.5 -101.5t-66 -61t-77 -30
t-99.5 -8.5v0zM340 617q-1 -13 -6.5 -15.5t-20.5 -2.5h-120q-13 0 -18 8.5t-4 19.5l14 101q2 10 4.5 12t9.5 2h139q8 0 13 -8t4 -16zM580 617q-1 -13 -6.5 -15.5t-20.5 -2.5h-120q-13 0 -18 8.5t-4 19.5l14 101q2 10 4.5 12t9.5 2h139q8 0 13 -8t4 -16z" />
    <glyph glyph-name="Amacron" unicode="&#x100;" horiz-adv-x="799" 
d="M-4 0q-11 0 -11.5 10t10.5 32l339 682q6 12 15.5 15t22.5 3h197q13 0 18 -10t7 -22l145 -681q2 -10 -1 -19.5t-14 -9.5h-196q-14 0 -19 22l-23 113q-1 9 -13 9h-210q-12 0 -19 -13l-60 -121q-3 -6 -7 -8t-15 -2h-166v0zM446 314q17 0 12 20l-36 167q-1 10 -6 10t-10 -9
l-83 -172q-4 -10 -2 -13t11 -3h114zM682 849q-1 -13 -6.5 -15.5t-20.5 -2.5h-360q-13 0 -18 8.5t-4 19.5l11 81q2 10 4.5 12t9.5 2h379q8 0 13 -8t4 -16z" />
    <glyph glyph-name="amacron" unicode="&#x101;" horiz-adv-x="573" 
d="M296 40q-25 -27 -65 -38.5t-84 -11.5q-70 0 -109 38t-39 95q0 59 31.5 99t81.5 64.5t108 35t110 10.5h7q19 0 22 20l3 17q1 4 1 7.5v6.5q0 20 -11 29t-34 9q-24 0 -49.5 -8.5t-41.5 -40.5q-3 -6 -8 -8t-18 0l-127 26q-8 2 -12.5 10.5t4.5 31.5q32 59 99.5 83.5
t162.5 24.5q85 0 134.5 -18t70.5 -50t21 -74q0 -7 -0.5 -14t-1.5 -15l-49 -348q-2 -15 -5 -18t-17 -3h-137q-13 0 -16 9t-5 23l-1 12q-2 22 -26 -4v0zM342 230q2 9 1 11t-10 1l-14 -1q-15 -1 -36 -6t-41 -15t-33 -26t-13 -39q0 -16 11 -27.5t33 -11.5q23 0 40 6t27 14
t18.5 19t9.5 22zM554 637q-1 -13 -6.5 -15.5t-20.5 -2.5h-360q-13 0 -18 8.5t-4 19.5l11 81q2 10 4.5 12t9.5 2h379q8 0 13 -8t4 -16z" />
    <glyph glyph-name="Abreve" unicode="&#x102;" horiz-adv-x="799" 
d="M-4 0q-11 0 -11.5 10t10.5 32l339 682q6 12 15.5 15t22.5 3h197q13 0 18 -10t7 -22l145 -681q2 -10 -1 -19.5t-14 -9.5h-196q-14 0 -19 22l-23 113q-1 9 -13 9h-210q-12 0 -19 -13l-60 -121q-3 -6 -7 -8t-15 -2h-166v0zM446 314q17 0 12 20l-36 167q-1 10 -6 10t-10 -9
l-83 -172q-4 -10 -2 -13t11 -3h114zM665 954q11 0 14 -10t-2 -21q-21 -41 -54 -67.5t-73 -38.5t-82 -12q-45 0 -84 10.5t-65 37.5t-35 76q-1 10 1 17.5t15 7.5h71q9 0 12.5 -7t10.5 -17q9 -11 21.5 -19.5t27 -12.5t28.5 -4q26 0 53 11t44 36q5 8 12 10.5t13 2.5h72v0z" />
    <glyph glyph-name="abreve" unicode="&#x103;" horiz-adv-x="573" 
d="M296 40q-25 -27 -65 -38.5t-84 -11.5q-70 0 -109 38t-39 95q0 59 31.5 99t81.5 64.5t108 35t110 10.5h7q19 0 22 20l3 17q1 4 1 7.5v6.5q0 20 -11 29t-34 9q-24 0 -49.5 -8.5t-41.5 -40.5q-3 -6 -8 -8t-18 0l-127 26q-8 2 -12.5 10.5t4.5 31.5q32 59 99.5 83.5
t162.5 24.5q85 0 134.5 -18t70.5 -50t21 -74q0 -7 -0.5 -14t-1.5 -15l-49 -348q-2 -15 -5 -18t-17 -3h-137q-13 0 -16 9t-5 23l-1 12q-2 22 -26 -4v0zM342 230q2 9 1 11t-10 1l-14 -1q-15 -1 -36 -6t-41 -15t-33 -26t-13 -39q0 -16 11 -27.5t33 -11.5q23 0 40 6t27 14
t18.5 19t9.5 22zM537 742q11 0 14 -10t-2 -21q-21 -41 -54 -67.5t-73 -38.5t-82 -12q-45 0 -84 10.5t-65 37.5t-35 76q-1 10 1 17.5t15 7.5h71q9 0 12.5 -7t10.5 -17q9 -11 21.5 -19.5t27 -12.5t28.5 -4q26 0 53 11t44 36q5 8 12 10.5t13 2.5h72v0z" />
    <glyph glyph-name="Aogonek" unicode="&#x104;" horiz-adv-x="799" 
d="M-4 0q-11 0 -11.5 10t10.5 32l339 682q6 12 15.5 15t22.5 3h197q13 0 18 -10t7 -22l145 -681q2 -10 -1 -19.5t-14 -9.5h-196q-14 0 -19 22l-23 113q-1 9 -13 9h-210q-12 0 -19 -13l-60 -121q-3 -6 -7 -8t-15 -2h-166v0zM446 314q17 0 12 20l-36 167q-1 10 -6 10t-10 -9
l-83 -172q-4 -10 -2 -13t11 -3h114zM490 -77q2 15 10.5 28.5t29.5 27.5t62 28l143 -4q-58 -18 -81 -36t-25 -38q-1 -11 4 -17t16 -6q20 0 34.5 6.5t28.5 12.5q9 4 13.5 -0.5t2.5 -14.5l-7 -52q-1 -6 -4 -12t-9 -8q-16 -4 -43 -8.5t-60 -4.5q-57 0 -89.5 24.5t-25.5 73.5v0z
" />
    <glyph glyph-name="aogonek" unicode="&#x105;" horiz-adv-x="573" 
d="M296 40q-25 -27 -65 -38.5t-84 -11.5q-70 0 -109 38t-39 95q0 59 31.5 99t81.5 64.5t108 35t110 10.5h7q19 0 22 20l3 17q1 4 1 7.5v6.5q0 20 -11 29t-34 9q-24 0 -49.5 -8.5t-41.5 -40.5q-3 -6 -8 -8t-18 0l-127 26q-8 2 -12.5 10.5t4.5 31.5q32 59 99.5 83.5
t162.5 24.5q85 0 134.5 -18t70.5 -50t21 -74q0 -7 -0.5 -14t-1.5 -15l-49 -348q-2 -15 -5 -18t-17 -3h-137q-13 0 -16 9t-5 23l-1 12q-2 22 -26 -4v0zM342 230q2 9 1 11t-10 1l-14 -1q-15 -1 -36 -6t-41 -15t-33 -26t-13 -39q0 -16 11 -27.5t33 -11.5q23 0 40 6t27 14
t18.5 19t9.5 22zM253 -76q2 15 10.5 28.5t29.5 27.5t62 28l143 -4q-58 -18 -81 -36t-25 -38q-1 -11 4 -17t16 -6q20 0 34.5 6.5t28.5 12.5q9 4 13.5 -0.5t2.5 -14.5l-7 -52q-1 -6 -4 -12t-9 -8q-16 -4 -43 -8.5t-60 -4.5q-57 0 -89.5 24.5t-25.5 73.5v0z" />
    <glyph glyph-name="Cacute" unicode="&#x106;" horiz-adv-x="737" 
d="M445 752q87 0 150.5 -31.5t99.5 -85.5t39 -124q1 -24 -18 -25l-169 -10q-16 -1 -18 30q-3 40 -19.5 66t-63.5 26q-42 0 -71.5 -22t-49 -58t-30.5 -79t-15.5 -85.5t-4.5 -77.5q0 -68 23 -95t68 -27q53 0 97 27t75 89q8 17 31 11l135 -32q12 -3 -1 -39q-5 -14 -21 -40.5
t-44 -57.5t-69 -58.5t-95 -45.5t-122 -18q-97 0 -166.5 42t-106 115.5t-36.5 169.5q0 70 16.5 134.5t49.5 119t81.5 95.5t112.5 63.5t142 22.5v0zM617 865q2 -11 -0.5 -17.5t-17.5 -10.5l-241 -56q-13 -3 -20 3t-9 16l-9 43q-4 17 5 21l252 98q7 3 12.5 0.5t8.5 -16.5z" />
    <glyph glyph-name="cacute" unicode="&#x107;" horiz-adv-x="556" 
d="M329 540q74 0 121.5 -28t71.5 -69.5t25 -83.5q0 -9 -3.5 -12t-16.5 -4l-132 -7q-8 -1 -11 6.5t-5 19.5q-1 11 -3.5 23t-12 20.5t-31.5 8.5q-34 0 -56 -22t-35 -56t-18.5 -70t-5.5 -64q0 -49 18 -68.5t50 -19.5q44 0 68 20t48 60q3 5 18 3l92 -18q8 -1 11 -9.5t-2 -23.5
q-6 -17 -24 -43t-49 -52t-76 -43.5t-104 -17.5q-74 0 -130 30t-87 84t-31 125q0 63 22.5 119.5t63.5 99.5t98 67.5t126 24.5v0zM500 653q2 -11 -0.5 -17.5t-17.5 -10.5l-241 -56q-13 -3 -20 3t-9 16l-9 43q-4 17 5 21l252 98q7 3 12.5 0.5t8.5 -16.5z" />
    <glyph glyph-name="Ccircumflex" unicode="&#x108;" horiz-adv-x="737" 
d="M445 752q87 0 150.5 -31.5t99.5 -85.5t39 -124q1 -24 -18 -25l-169 -10q-16 -1 -18 30q-3 40 -19.5 66t-63.5 26q-42 0 -71.5 -22t-49 -58t-30.5 -79t-15.5 -85.5t-4.5 -77.5q0 -68 23 -95t68 -27q53 0 97 27t75 89q8 17 31 11l135 -32q12 -3 -1 -39q-5 -14 -21 -40.5
t-44 -57.5t-69 -58.5t-95 -45.5t-122 -18q-97 0 -166.5 42t-106 115.5t-36.5 169.5q0 70 16.5 134.5t49.5 119t81.5 95.5t112.5 63.5t142 22.5v0zM488 875q-7 11 -12 11.5t-16 -10.5l-58 -58q-7 -7 -12.5 -9t-15.5 -2h-103q-9 0 -9.5 6.5t5.5 11.5l131 128q8 8 16 9.5
t22 1.5h95q11 0 16 -6t9 -11l94 -126q7 -10 4 -12t-14 -2h-96q-9 0 -13.5 3.5t-8.5 10.5z" />
    <glyph glyph-name="ccircumflex" unicode="&#x109;" horiz-adv-x="556" 
d="M329 540q74 0 121.5 -28t71.5 -69.5t25 -83.5q0 -9 -3.5 -12t-16.5 -4l-132 -7q-8 -1 -11 6.5t-5 19.5q-1 11 -3.5 23t-12 20.5t-31.5 8.5q-34 0 -56 -22t-35 -56t-18.5 -70t-5.5 -64q0 -49 18 -68.5t50 -19.5q44 0 68 20t48 60q3 5 18 3l92 -18q8 -1 11 -9.5t-2 -23.5
q-6 -17 -24 -43t-49 -52t-76 -43.5t-104 -17.5q-74 0 -130 30t-87 84t-31 125q0 63 22.5 119.5t63.5 99.5t98 67.5t126 24.5v0zM371 663q-7 11 -12 11.5t-16 -10.5l-58 -58q-7 -7 -12.5 -9t-15.5 -2h-103q-9 0 -9.5 6.5t5.5 11.5l131 128q8 8 16 9.5t22 1.5h95q11 0 16 -6
t9 -11l94 -126q7 -10 4 -12t-14 -2h-96q-9 0 -13.5 3.5t-8.5 10.5z" />
    <glyph glyph-name="Cdotaccent" unicode="&#x10a;" horiz-adv-x="737" 
d="M445 752q87 0 150.5 -31.5t99.5 -85.5t39 -124q1 -24 -18 -25l-169 -10q-16 -1 -18 30q-3 40 -19.5 66t-63.5 26q-42 0 -71.5 -22t-49 -58t-30.5 -79t-15.5 -85.5t-4.5 -77.5q0 -68 23 -95t68 -27q53 0 97 27t75 89q8 17 31 11l135 -32q12 -3 -1 -39q-5 -14 -21 -40.5
t-44 -57.5t-69 -58.5t-95 -45.5t-122 -18q-97 0 -166.5 42t-106 115.5t-36.5 169.5q0 70 16.5 134.5t49.5 119t81.5 95.5t112.5 63.5t142 22.5v0zM562 809q-2 -15 -9 -19t-24 -4h-141q-15 0 -20.5 9.5t-4.5 22.5l17 119q2 11 5 14t12 3h163q8 0 14 -8.5t4 -18.5z" />
    <glyph glyph-name="cdotaccent" unicode="&#x10b;" horiz-adv-x="556" 
d="M329 540q74 0 121.5 -28t71.5 -69.5t25 -83.5q0 -9 -3.5 -12t-16.5 -4l-132 -7q-8 -1 -11 6.5t-5 19.5q-1 11 -3.5 23t-12 20.5t-31.5 8.5q-34 0 -56 -22t-35 -56t-18.5 -70t-5.5 -64q0 -49 18 -68.5t50 -19.5q44 0 68 20t48 60q3 5 18 3l92 -18q8 -1 11 -9.5t-2 -23.5
q-6 -17 -24 -43t-49 -52t-76 -43.5t-104 -17.5q-74 0 -130 30t-87 84t-31 125q0 63 22.5 119.5t63.5 99.5t98 67.5t126 24.5v0zM445 597q-2 -15 -9 -19t-24 -4h-141q-15 0 -20.5 9.5t-4.5 22.5l17 119q2 11 5 14t12 3h163q8 0 14 -8.5t4 -18.5z" />
    <glyph glyph-name="Ccaron" unicode="&#x10c;" horiz-adv-x="737" 
d="M445 752q87 0 150.5 -31.5t99.5 -85.5t39 -124q1 -24 -18 -25l-169 -10q-16 -1 -18 30q-3 40 -19.5 66t-63.5 26q-42 0 -71.5 -22t-49 -58t-30.5 -79t-15.5 -85.5t-4.5 -77.5q0 -68 23 -95t68 -27q53 0 97 27t75 89q8 17 31 11l135 -32q12 -3 -1 -39q-5 -14 -21 -40.5
t-44 -57.5t-69 -58.5t-95 -45.5t-122 -18q-97 0 -166.5 42t-106 115.5t-36.5 169.5q0 70 16.5 134.5t49.5 119t81.5 95.5t112.5 63.5t142 22.5v0zM535 950q7 7 12 6t14 -1h105q11 0 13.5 -6.5t-6.5 -15.5l-130 -127q-6 -5 -11.5 -7t-16.5 -2h-95q-14 0 -22 6t-12 13l-97 125
q-5 8 -7.5 11t6.5 3h99q10 0 15.5 -3t8.5 -11l41 -54q10 -15 16 -9.5t17 18.5l50 54v0z" />
    <glyph glyph-name="ccaron" unicode="&#x10d;" horiz-adv-x="556" 
d="M329 540q74 0 121.5 -28t71.5 -69.5t25 -83.5q0 -9 -3.5 -12t-16.5 -4l-132 -7q-8 -1 -11 6.5t-5 19.5q-1 11 -3.5 23t-12 20.5t-31.5 8.5q-34 0 -56 -22t-35 -56t-18.5 -70t-5.5 -64q0 -49 18 -68.5t50 -19.5q44 0 68 20t48 60q3 5 18 3l92 -18q8 -1 11 -9.5t-2 -23.5
q-6 -17 -24 -43t-49 -52t-76 -43.5t-104 -17.5q-74 0 -130 30t-87 84t-31 125q0 63 22.5 119.5t63.5 99.5t98 67.5t126 24.5v0zM418 738q7 7 12 6t14 -1h105q11 0 13.5 -6.5t-6.5 -15.5l-130 -127q-6 -5 -11.5 -7t-16.5 -2h-95q-14 0 -22 6t-12 13l-97 125q-5 8 -7.5 11
t6.5 3h99q10 0 15.5 -3t8.5 -11l41 -54q10 -15 16 -9.5t17 18.5l50 54v0z" />
    <glyph glyph-name="Dcaron" unicode="&#x10e;" horiz-adv-x="771" 
d="M48 0q-15 0 -22.5 10t-5.5 26l96 687q2 12 6.5 15.5t18.5 3.5h250q121 0 202.5 -40.5t123.5 -111.5t42 -161q0 -128 -56 -225t-156.5 -150.5t-235.5 -53.5h-263v0zM338 157q64 0 105 39t60.5 103.5t19.5 142.5q0 47 -15 79t-42 48t-65 16h-59q-18 0 -21 -20l-53 -389
q-1 -9 2 -14t11 -5h57zM477 950q7 7 12 6t14 -1h105q11 0 13.5 -6.5t-6.5 -15.5l-130 -127q-6 -5 -11.5 -7t-16.5 -2h-95q-14 0 -22 6t-12 13l-97 125q-5 8 -7.5 11t6.5 3h99q10 0 15.5 -3t8.5 -11l41 -54q10 -15 16 -9.5t17 18.5l50 54v0z" />
    <glyph glyph-name="dcaron" unicode="&#x10f;" horiz-adv-x="788" 
d="M370 0q-10 0 -18 4t-6 17l3 19q2 8 -2.5 9.5t-12.5 -5.5q-21 -17 -43 -29.5t-46 -18.5t-53 -6q-79 0 -126 54t-47 158q0 68 18 128.5t51 108t78 74.5t99 27q37 0 64.5 -14t51.5 -46q7 -9 15.5 -7.5t12.5 29.5l32 222q2 11 8 14.5t15 3.5h162q16 0 12 -29l-98 -691
q-1 -13 -7.5 -17.5t-22.5 -4.5h-140zM394 382q-13 19 -26.5 26.5t-33.5 7.5q-36 0 -58.5 -24t-35 -60.5t-17.5 -74.5t-5 -66q0 -30 6.5 -48t19.5 -25.5t31 -7.5q22 0 41 10t32 26.5t15 35.5zM681 495q-7 0 -11 8t-2 13l43 77l6.5 13t-6.5 4l-11 1q-10 1 -15 7.5t-4 15.5
l14 98q1 8 3 9t8 1h97q6 0 10.5 -6.5t3.5 -12.5l-16 -118q-1 -3 -2 -5.5t-2 -4.5l-50 -89q-4 -9 -9.5 -10t-19.5 -1h-37v0z" />
    <glyph glyph-name="Dcroat" unicode="&#x110;" horiz-adv-x="754" 
d="M419 315q-2 -15 -8.5 -18.5t-23.5 -3.5h-349q-15 0 -21 9t-5 22l13 93q2 11 5.5 14t12.5 3h371q8 0 14 -8.5t4 -17.5zM31 0q-15 0 -22.5 10t-5.5 26l96 687q2 12 6.5 15.5t18.5 3.5h250q121 0 202.5 -40.5t123.5 -111.5t42 -161q0 -128 -56 -225t-156.5 -150.5
t-235.5 -53.5h-263v0zM321 157q64 0 105 39t60.5 103.5t19.5 142.5q0 47 -15 79t-42 48t-65 16h-59q-18 0 -21 -20l-53 -389q-1 -9 2 -14t11 -5h57z" />
    <glyph glyph-name="dcroat" unicode="&#x111;" horiz-adv-x="626" 
d="M697 598q-2 -13 -7.5 -15.5t-20.5 -2.5h-320q-13 0 -18 8.5t-4 19.5l9 65q2 10 4.5 12t9.5 2h339q8 0 13 -8t4 -16zM370 0q-10 0 -18 4t-6 17l3 19q2 8 -2.5 9.5t-12.5 -5.5q-21 -17 -43 -29.5t-46 -18.5t-53 -6q-79 0 -126 54t-47 158q0 68 18 128.5t51 108t78 74.5
t99 27q37 0 64.5 -14t51.5 -46q7 -9 15.5 -7.5t12.5 29.5l32 222q2 11 8 14.5t15 3.5h162q16 0 12 -29l-98 -691q-1 -13 -7.5 -17.5t-22.5 -4.5h-140zM394 382q-13 19 -26.5 26.5t-33.5 7.5q-36 0 -58.5 -24t-35 -60.5t-17.5 -74.5t-5 -66q0 -30 6.5 -48t19.5 -25.5t31 -7.5
q22 0 41 10t32 26.5t15 35.5z" />
    <glyph glyph-name="Emacron" unicode="&#x112;" horiz-adv-x="671" 
d="M117 725q2 11 5 14t12 3h544q19 0 14 -27l-17 -116q-1 -12 -6 -16.5t-19 -4.5h-310q-9 0 -13 -3.5t-6 -14.5l-13 -92q-1 -10 1.5 -12.5t9.5 -2.5h189q11 0 13.5 -4t0.5 -13l-18 -131q-1 -13 -16 -13h-193q-12 0 -15 -16l-14 -99q-1 -13 7 -13h333q11 0 13.5 -4t0.5 -15
l-17 -129q-1 -9 -5 -12.5t-17 -3.5h-538q-28 0 -24 31l98 694v0zM623 849q-1 -13 -6.5 -15.5t-20.5 -2.5h-360q-13 0 -18 8.5t-4 19.5l11 81q2 10 4.5 12t9.5 2h379q8 0 13 -8t4 -16z" />
    <glyph glyph-name="emacron" unicode="&#x113;" horiz-adv-x="590" 
d="M272 -10q-75 0 -132 30t-89.5 83t-32.5 123q0 62 24 118t66.5 100.5t99 70t122.5 25.5q72 0 126.5 -29t85 -83t30.5 -130q0 -13 -1 -27t-3 -28q-1 -9 -6 -11.5t-18 -2.5h-309q-12 0 -15 -15t-3 -27q0 -34 24 -49.5t61 -15.5q29 0 56 12t58 42q6 6 12.5 5.5t15.5 -4.5
l85 -37q26 -11 8 -32q-44 -48 -84 -73.5t-83.5 -35t-97.5 -9.5v0zM365 327q10 0 17.5 8.5t7.5 26.5q0 20 -12.5 40.5t-44.5 20.5q-20 0 -40.5 -11t-35 -32.5t-18.5 -52.5h126zM558 637q-1 -13 -6.5 -15.5t-20.5 -2.5h-360q-13 0 -18 8.5t-4 19.5l11 81q2 10 4.5 12t9.5 2
h379q8 0 13 -8t4 -16z" />
    <glyph glyph-name="Ebreve" unicode="&#x114;" horiz-adv-x="671" 
d="M117 725q2 11 5 14t12 3h544q19 0 14 -27l-17 -116q-1 -12 -6 -16.5t-19 -4.5h-310q-9 0 -13 -3.5t-6 -14.5l-13 -92q-1 -10 1.5 -12.5t9.5 -2.5h189q11 0 13.5 -4t0.5 -13l-18 -131q-1 -13 -16 -13h-193q-12 0 -15 -16l-14 -99q-1 -13 7 -13h333q11 0 13.5 -4t0.5 -15
l-17 -129q-1 -9 -5 -12.5t-17 -3.5h-538q-28 0 -24 31l98 694v0zM606 954q11 0 14 -10t-2 -21q-21 -41 -54 -67.5t-73 -38.5t-82 -12q-45 0 -84 10.5t-65 37.5t-35 76q-1 10 1 17.5t15 7.5h71q9 0 12.5 -7t10.5 -17q9 -11 21.5 -19.5t27 -12.5t28.5 -4q26 0 53 11t44 36
q5 8 12 10.5t13 2.5h72v0z" />
    <glyph glyph-name="ebreve" unicode="&#x115;" horiz-adv-x="590" 
d="M272 -10q-75 0 -132 30t-89.5 83t-32.5 123q0 62 24 118t66.5 100.5t99 70t122.5 25.5q72 0 126.5 -29t85 -83t30.5 -130q0 -13 -1 -27t-3 -28q-1 -9 -6 -11.5t-18 -2.5h-309q-12 0 -15 -15t-3 -27q0 -34 24 -49.5t61 -15.5q29 0 56 12t58 42q6 6 12.5 5.5t15.5 -4.5
l85 -37q26 -11 8 -32q-44 -48 -84 -73.5t-83.5 -35t-97.5 -9.5v0zM365 327q10 0 17.5 8.5t7.5 26.5q0 20 -12.5 40.5t-44.5 20.5q-20 0 -40.5 -11t-35 -32.5t-18.5 -52.5h126zM541 742q11 0 14 -10t-2 -21q-21 -41 -54 -67.5t-73 -38.5t-82 -12q-45 0 -84 10.5t-65 37.5
t-35 76q-1 10 1 17.5t15 7.5h71q9 0 12.5 -7t10.5 -17q9 -11 21.5 -19.5t27 -12.5t28.5 -4q26 0 53 11t44 36q5 8 12 10.5t13 2.5h72v0z" />
    <glyph glyph-name="Edotaccent" unicode="&#x116;" horiz-adv-x="671" 
d="M117 725q2 11 5 14t12 3h544q19 0 14 -27l-17 -116q-1 -12 -6 -16.5t-19 -4.5h-310q-9 0 -13 -3.5t-6 -14.5l-13 -92q-1 -10 1.5 -12.5t9.5 -2.5h189q11 0 13.5 -4t0.5 -13l-18 -131q-1 -13 -16 -13h-193q-12 0 -15 -16l-14 -99q-1 -13 7 -13h333q11 0 13.5 -4t0.5 -15
l-17 -129q-1 -9 -5 -12.5t-17 -3.5h-538q-28 0 -24 31l98 694v0zM513 809q-2 -15 -9 -19t-24 -4h-141q-15 0 -20.5 9.5t-4.5 22.5l17 119q2 11 5 14t12 3h163q8 0 14 -8.5t4 -18.5z" />
    <glyph glyph-name="edotaccent" unicode="&#x117;" horiz-adv-x="590" 
d="M272 -10q-75 0 -132 30t-89.5 83t-32.5 123q0 62 24 118t66.5 100.5t99 70t122.5 25.5q72 0 126.5 -29t85 -83t30.5 -130q0 -13 -1 -27t-3 -28q-1 -9 -6 -11.5t-18 -2.5h-309q-12 0 -15 -15t-3 -27q0 -34 24 -49.5t61 -15.5q29 0 56 12t58 42q6 6 12.5 5.5t15.5 -4.5
l85 -37q26 -11 8 -32q-44 -48 -84 -73.5t-83.5 -35t-97.5 -9.5v0zM365 327q10 0 17.5 8.5t7.5 26.5q0 20 -12.5 40.5t-44.5 20.5q-20 0 -40.5 -11t-35 -32.5t-18.5 -52.5h126zM425 597q-2 -15 -9 -19t-24 -4h-141q-15 0 -20.5 9.5t-4.5 22.5l17 119q2 11 5 14t12 3h163
q8 0 14 -8.5t4 -18.5z" />
    <glyph glyph-name="Eogonek" unicode="&#x118;" horiz-adv-x="671" 
d="M117 725q2 11 5 14t12 3h544q19 0 14 -27l-17 -116q-1 -12 -6 -16.5t-19 -4.5h-310q-9 0 -13 -3.5t-6 -14.5l-13 -92q-1 -10 1.5 -12.5t9.5 -2.5h189q11 0 13.5 -4t0.5 -13l-18 -131q-1 -13 -16 -13h-193q-12 0 -15 -16l-14 -99q-1 -13 7 -13h333q11 0 13.5 -4t0.5 -15
l-17 -129q-1 -9 -5 -12.5t-17 -3.5h-538q-28 0 -24 31l98 694v0zM354 -76q2 15 10.5 28.5t29.5 27.5t62 28l143 -4q-58 -18 -81 -36t-25 -38q-1 -11 4 -17t16 -6q20 0 34.5 6.5t28.5 12.5q9 4 13.5 -0.5t2.5 -14.5l-7 -52q-1 -6 -4 -12t-9 -8q-16 -4 -43 -8.5t-60 -4.5
q-57 0 -89.5 24.5t-25.5 73.5v0z" />
    <glyph glyph-name="eogonek" unicode="&#x119;" horiz-adv-x="590" 
d="M272 -10q-75 0 -132 30t-89.5 83t-32.5 123q0 62 24 118t66.5 100.5t99 70t122.5 25.5q72 0 126.5 -29t85 -83t30.5 -130q0 -13 -1 -27t-3 -28q-1 -9 -6 -11.5t-18 -2.5h-309q-12 0 -15 -15t-3 -27q0 -34 24 -49.5t61 -15.5q29 0 56 12t58 42q6 6 12.5 5.5t15.5 -4.5
l85 -37q26 -11 8 -32q-44 -48 -84 -73.5t-83.5 -35t-97.5 -9.5v0zM365 327q10 0 17.5 8.5t7.5 26.5q0 20 -12.5 40.5t-44.5 20.5q-20 0 -40.5 -11t-35 -32.5t-18.5 -52.5h126zM179 -60q2 15 10.5 28.5t29.5 27.5t62 28l143 -4q-58 -18 -81 -36t-25 -38q-1 -11 4 -17t16 -6
q20 0 34.5 6.5t28.5 12.5q9 4 13.5 -0.5t2.5 -14.5l-7 -52q-1 -6 -4 -12t-9 -8q-16 -4 -43 -8.5t-60 -4.5q-57 0 -89.5 24.5t-25.5 73.5v0z" />
    <glyph glyph-name="Ecaron" unicode="&#x11a;" horiz-adv-x="671" 
d="M117 725q2 11 5 14t12 3h544q19 0 14 -27l-17 -116q-1 -12 -6 -16.5t-19 -4.5h-310q-9 0 -13 -3.5t-6 -14.5l-13 -92q-1 -10 1.5 -12.5t9.5 -2.5h189q11 0 13.5 -4t0.5 -13l-18 -131q-1 -13 -16 -13h-193q-12 0 -15 -16l-14 -99q-1 -13 7 -13h333q11 0 13.5 -4t0.5 -15
l-17 -129q-1 -9 -5 -12.5t-17 -3.5h-538q-28 0 -24 31l98 694v0zM486 950q7 7 12 6t14 -1h105q11 0 13.5 -6.5t-6.5 -15.5l-130 -127q-6 -5 -11.5 -7t-16.5 -2h-95q-14 0 -22 6t-12 13l-97 125q-5 8 -7.5 11t6.5 3h99q10 0 15.5 -3t8.5 -11l41 -54q10 -15 16 -9.5t17 18.5
l50 54v0z" />
    <glyph glyph-name="ecaron" unicode="&#x11b;" horiz-adv-x="590" 
d="M272 -10q-75 0 -132 30t-89.5 83t-32.5 123q0 62 24 118t66.5 100.5t99 70t122.5 25.5q72 0 126.5 -29t85 -83t30.5 -130q0 -13 -1 -27t-3 -28q-1 -9 -6 -11.5t-18 -2.5h-309q-12 0 -15 -15t-3 -27q0 -34 24 -49.5t61 -15.5q29 0 56 12t58 42q6 6 12.5 5.5t15.5 -4.5
l85 -37q26 -11 8 -32q-44 -48 -84 -73.5t-83.5 -35t-97.5 -9.5v0zM365 327q10 0 17.5 8.5t7.5 26.5q0 20 -12.5 40.5t-44.5 20.5q-20 0 -40.5 -11t-35 -32.5t-18.5 -52.5h126zM421 738q7 7 12 6t14 -1h105q11 0 13.5 -6.5t-6.5 -15.5l-130 -127q-6 -5 -11.5 -7t-16.5 -2h-95
q-14 0 -22 6t-12 13l-97 125q-5 8 -7.5 11t6.5 3h99q10 0 15.5 -3t8.5 -11l41 -54q10 -15 16 -9.5t17 18.5l50 54v0z" />
    <glyph glyph-name="Gcircumflex" unicode="&#x11c;" horiz-adv-x="761" 
d="M349 -10q-96 0 -165 40t-106 111.5t-37 166.5q0 93 30 173.5t85 141.5t130.5 95t166.5 34q92 0 156 -34t98 -86.5t37 -109.5q0 -24 -9 -25l-177 -25q-5 -1 -8 5.5t-7 25.5q-5 25 -15.5 46.5t-30.5 34.5t-54 13q-48 0 -80 -30.5t-51.5 -79t-28 -105t-8.5 -108.5
q0 -76 26.5 -102t69.5 -26q23 0 41.5 5.5t33.5 15t27.5 23.5t22.5 30l5 8q9 14 -10 14h-96q-11 0 -10 16l12 106q1 13 12 13l306 -2q15 0 19 -4t2 -17l-48 -340q-2 -14 -18 -14h-35q-17 0 -25 17l-30 59q-4 7 -10 6t-14 -9q-17 -17 -44 -36.5t-66.5 -33t-96.5 -13.5v0z
M485 875q-7 11 -12 11.5t-16 -10.5l-58 -58q-7 -7 -12.5 -9t-15.5 -2h-103q-9 0 -9.5 6.5t5.5 11.5l131 128q8 8 16 9.5t22 1.5h95q11 0 16 -6t9 -11l94 -126q7 -10 4 -12t-14 -2h-96q-9 0 -13.5 3.5t-8.5 10.5z" />
    <glyph glyph-name="gcircumflex" unicode="&#x11d;" horiz-adv-x="653" 
d="M224 -174q-125 0 -199.5 29t-74.5 84q0 38 32.5 59.5t72.5 32.5q12 4 13.5 9.5t-9.5 9.5q-25 9 -38.5 25.5t-13.5 45.5t18.5 50t46 36t52.5 23q13 5 15.5 9.5t-8.5 8.5q-37 13 -59 42.5t-22 70.5q0 48 22.5 81.5t60.5 55t84.5 31t94.5 9.5q77 0 120 -16t64 -36
q8 -7 18.5 1.5t18.5 18.5q16 19 38.5 31t44 18.5t33.5 6.5q11 0 18 -3.5t5 -17.5l-12 -90q-2 -17 -7 -21.5t-14 -3.5q-13 1 -30 1.5t-23 0.5q-36 0 -25 -25q2 -4 2.5 -11t0.5 -15q0 -47 -26 -79t-67.5 -51.5t-88.5 -28.5t-89 -9q-7 0 -23.5 -1t-35.5 -4.5t-32.5 -10.5
t-13.5 -19q0 -7 9 -9t28 -4l151 -9q103 -6 150 -44.5t47 -100.5q0 -45 -22 -77t-58.5 -52t-82 -31.5t-94 -16t-92.5 -4.5v0zM236 -86q42 0 72.5 5t49.5 13t28.5 19t9.5 23q0 14 -13 20.5t-45 7.5l-144 7q-12 0 -31 -5t-34 -15.5t-15 -28.5q0 -21 27.5 -33.5t94.5 -12.5v0z
M297 300q25 0 45 11.5t32 32t12 46.5q0 24 -18.5 39.5t-54.5 15.5q-24 0 -44 -13t-32 -34t-12 -46q0 -21 20 -36.5t52 -15.5v0zM379 663q-7 11 -12 11.5t-16 -10.5l-58 -58q-7 -7 -12.5 -9t-15.5 -2h-103q-9 0 -9.5 6.5t5.5 11.5l131 128q8 8 16 9.5t22 1.5h95q11 0 16 -6
t9 -11l94 -126q7 -10 4 -12t-14 -2h-96q-9 0 -13.5 3.5t-8.5 10.5z" />
    <glyph glyph-name="Gbreve" unicode="&#x11e;" horiz-adv-x="761" 
d="M349 -10q-96 0 -165 40t-106 111.5t-37 166.5q0 93 30 173.5t85 141.5t130.5 95t166.5 34q92 0 156 -34t98 -86.5t37 -109.5q0 -24 -9 -25l-177 -25q-5 -1 -8 5.5t-7 25.5q-5 25 -15.5 46.5t-30.5 34.5t-54 13q-48 0 -80 -30.5t-51.5 -79t-28 -105t-8.5 -108.5
q0 -76 26.5 -102t69.5 -26q23 0 41.5 5.5t33.5 15t27.5 23.5t22.5 30l5 8q9 14 -10 14h-96q-11 0 -10 16l12 106q1 13 12 13l306 -2q15 0 19 -4t2 -17l-48 -340q-2 -14 -18 -14h-35q-17 0 -25 17l-30 59q-4 7 -10 6t-14 -9q-17 -17 -44 -36.5t-66.5 -33t-96.5 -13.5v0z
M652 954q11 0 14 -10t-2 -21q-21 -41 -54 -67.5t-73 -38.5t-82 -12q-45 0 -84 10.5t-65 37.5t-35 76q-1 10 1 17.5t15 7.5h71q9 0 12.5 -7t10.5 -17q9 -11 21.5 -19.5t27 -12.5t28.5 -4q26 0 53 11t44 36q5 8 12 10.5t13 2.5h72v0z" />
    <glyph glyph-name="gbreve" unicode="&#x11f;" horiz-adv-x="653" 
d="M224 -174q-125 0 -199.5 29t-74.5 84q0 38 32.5 59.5t72.5 32.5q12 4 13.5 9.5t-9.5 9.5q-25 9 -38.5 25.5t-13.5 45.5t18.5 50t46 36t52.5 23q13 5 15.5 9.5t-8.5 8.5q-37 13 -59 42.5t-22 70.5q0 48 22.5 81.5t60.5 55t84.5 31t94.5 9.5q77 0 120 -16t64 -36
q8 -7 18.5 1.5t18.5 18.5q16 19 38.5 31t44 18.5t33.5 6.5q11 0 18 -3.5t5 -17.5l-12 -90q-2 -17 -7 -21.5t-14 -3.5q-13 1 -30 1.5t-23 0.5q-36 0 -25 -25q2 -4 2.5 -11t0.5 -15q0 -47 -26 -79t-67.5 -51.5t-88.5 -28.5t-89 -9q-7 0 -23.5 -1t-35.5 -4.5t-32.5 -10.5
t-13.5 -19q0 -7 9 -9t28 -4l151 -9q103 -6 150 -44.5t47 -100.5q0 -45 -22 -77t-58.5 -52t-82 -31.5t-94 -16t-92.5 -4.5v0zM236 -86q42 0 72.5 5t49.5 13t28.5 19t9.5 23q0 14 -13 20.5t-45 7.5l-144 7q-12 0 -31 -5t-34 -15.5t-15 -28.5q0 -21 27.5 -33.5t94.5 -12.5v0z
M297 300q25 0 45 11.5t32 32t12 46.5q0 24 -18.5 39.5t-54.5 15.5q-24 0 -44 -13t-32 -34t-12 -46q0 -21 20 -36.5t52 -15.5v0zM546 742q11 0 14 -10t-2 -21q-21 -41 -54 -67.5t-73 -38.5t-82 -12q-45 0 -84 10.5t-65 37.5t-35 76q-1 10 1 17.5t15 7.5h71q9 0 12.5 -7
t10.5 -17q9 -11 21.5 -19.5t27 -12.5t28.5 -4q26 0 53 11t44 36q5 8 12 10.5t13 2.5h72v0z" />
    <glyph glyph-name="Gdotaccent" unicode="&#x120;" horiz-adv-x="761" 
d="M349 -10q-96 0 -165 40t-106 111.5t-37 166.5q0 93 30 173.5t85 141.5t130.5 95t166.5 34q92 0 156 -34t98 -86.5t37 -109.5q0 -24 -9 -25l-177 -25q-5 -1 -8 5.5t-7 25.5q-5 25 -15.5 46.5t-30.5 34.5t-54 13q-48 0 -80 -30.5t-51.5 -79t-28 -105t-8.5 -108.5
q0 -76 26.5 -102t69.5 -26q23 0 41.5 5.5t33.5 15t27.5 23.5t22.5 30l5 8q9 14 -10 14h-96q-11 0 -10 16l12 106q1 13 12 13l306 -2q15 0 19 -4t2 -17l-48 -340q-2 -14 -18 -14h-35q-17 0 -25 17l-30 59q-4 7 -10 6t-14 -9q-17 -17 -44 -36.5t-66.5 -33t-96.5 -13.5v0z
M559 809q-2 -15 -9 -19t-24 -4h-141q-15 0 -20.5 9.5t-4.5 22.5l17 119q2 11 5 14t12 3h163q8 0 14 -8.5t4 -18.5z" />
    <glyph glyph-name="gdotaccent" unicode="&#x121;" horiz-adv-x="653" 
d="M224 -174q-125 0 -199.5 29t-74.5 84q0 38 32.5 59.5t72.5 32.5q12 4 13.5 9.5t-9.5 9.5q-25 9 -38.5 25.5t-13.5 45.5t18.5 50t46 36t52.5 23q13 5 15.5 9.5t-8.5 8.5q-37 13 -59 42.5t-22 70.5q0 48 22.5 81.5t60.5 55t84.5 31t94.5 9.5q77 0 120 -16t64 -36
q8 -7 18.5 1.5t18.5 18.5q16 19 38.5 31t44 18.5t33.5 6.5q11 0 18 -3.5t5 -17.5l-12 -90q-2 -17 -7 -21.5t-14 -3.5q-13 1 -30 1.5t-23 0.5q-36 0 -25 -25q2 -4 2.5 -11t0.5 -15q0 -47 -26 -79t-67.5 -51.5t-88.5 -28.5t-89 -9q-7 0 -23.5 -1t-35.5 -4.5t-32.5 -10.5
t-13.5 -19q0 -7 9 -9t28 -4l151 -9q103 -6 150 -44.5t47 -100.5q0 -45 -22 -77t-58.5 -52t-82 -31.5t-94 -16t-92.5 -4.5v0zM236 -86q42 0 72.5 5t49.5 13t28.5 19t9.5 23q0 14 -13 20.5t-45 7.5l-144 7q-12 0 -31 -5t-34 -15.5t-15 -28.5q0 -21 27.5 -33.5t94.5 -12.5v0z
M297 300q25 0 45 11.5t32 32t12 46.5q0 24 -18.5 39.5t-54.5 15.5q-24 0 -44 -13t-32 -34t-12 -46q0 -21 20 -36.5t52 -15.5v0zM453 597q-2 -15 -9 -19t-24 -4h-141q-15 0 -20.5 9.5t-4.5 22.5l17 119q2 11 5 14t12 3h163q8 0 14 -8.5t4 -18.5z" />
    <glyph glyph-name="uni0122" unicode="&#x122;" horiz-adv-x="761" 
d="M349 -10q-96 0 -165 40t-106 111.5t-37 166.5q0 93 30 173.5t85 141.5t130.5 95t166.5 34q92 0 156 -34t98 -86.5t37 -109.5q0 -24 -9 -25l-177 -25q-5 -1 -8 5.5t-7 25.5q-5 25 -15.5 46.5t-30.5 34.5t-54 13q-48 0 -80 -30.5t-51.5 -79t-28 -105t-8.5 -108.5
q0 -76 26.5 -102t69.5 -26q23 0 41.5 5.5t33.5 15t27.5 23.5t22.5 30l5 8q9 14 -10 14h-96q-11 0 -10 16l12 106q1 13 12 13l306 -2q15 0 19 -4t2 -17l-48 -340q-2 -14 -18 -14h-35q-17 0 -25 17l-30 59q-4 7 -10 6t-14 -9q-17 -17 -44 -36.5t-66.5 -33t-96.5 -13.5v0z
M258 -246q-5 0 -5.5 5t4.5 11l45 52q9 11 8 18.5t-9 7.5h-30q-8 0 -10.5 4t-0.5 16l10 64q3 19 18 19h96q17 0 16 -14l-12 -82q-2 -13 -12 -23l-60 -59l-13 -13t-17 -6h-28v0z" />
    <glyph glyph-name="uni0123" unicode="&#x123;" horiz-adv-x="653" 
d="M341 599q-17 0 -16 14l12 82q2 13 12 23l60 59q8 8 14 13.5t16 5.5h28q5 0 5.5 -5t-4.5 -11l-45 -52q-9 -10 -8 -18t9 -8h30q8 0 10.5 -4t0.5 -16l-10 -64q-3 -19 -18 -19h-96v0zM224 -174q-125 0 -199.5 29t-74.5 84q0 38 32.5 59.5t72.5 32.5q12 4 13.5 9.5t-9.5 9.5
q-25 9 -38.5 25.5t-13.5 45.5t18.5 50t46 36t52.5 23q13 5 15.5 9.5t-8.5 8.5q-37 13 -59 42.5t-22 70.5q0 48 22.5 81.5t60.5 55t84.5 31t94.5 9.5q77 0 120 -16t64 -36q8 -7 18.5 1.5t18.5 18.5q16 19 38.5 31t44 18.5t33.5 6.5q11 0 18 -3.5t5 -17.5l-12 -90
q-2 -17 -7 -21.5t-14 -3.5q-13 1 -30 1.5t-23 0.5q-36 0 -25 -25q2 -4 2.5 -11t0.5 -15q0 -47 -26 -79t-67.5 -51.5t-88.5 -28.5t-89 -9q-7 0 -23.5 -1t-35.5 -4.5t-32.5 -10.5t-13.5 -19q0 -7 9 -9t28 -4l151 -9q103 -6 150 -44.5t47 -100.5q0 -45 -22 -77t-58.5 -52
t-82 -31.5t-94 -16t-92.5 -4.5v0zM236 -86q42 0 72.5 5t49.5 13t28.5 19t9.5 23q0 14 -13 20.5t-45 7.5l-144 7q-12 0 -31 -5t-34 -15.5t-15 -28.5q0 -21 27.5 -33.5t94.5 -12.5v0zM297 300q25 0 45 11.5t32 32t12 46.5q0 24 -18.5 39.5t-54.5 15.5q-24 0 -44 -13t-32 -34
t-12 -46q0 -21 20 -36.5t52 -15.5v0z" />
    <glyph glyph-name="Hcircumflex" unicode="&#x124;" horiz-adv-x="762" 
d="M299 297q-7 0 -11.5 -4t-6.5 -17l-36 -253q-2 -16 -8.5 -19.5t-23.5 -3.5h-175q-16 0 -18.5 4.5t-1.5 17.5l99 703q2 11 5.5 14t11.5 3h199q8 0 10 -3.5t0 -13.5l-33 -239q-1 -10 1.5 -13.5t10.5 -3.5h176q8 0 12 8t5 18l33 232q2 10 6 12.5t12 2.5h197q8 0 10 -5.5
t0 -23.5l-98 -694q-1 -13 -5 -16t-20 -3h-175q-17 0 -22 6t-3 22l36 260q1 9 -15 9h-172zM483 875q-7 11 -12 11.5t-16 -10.5l-58 -58q-7 -7 -12.5 -9t-15.5 -2h-103q-9 0 -9.5 6.5t5.5 11.5l131 128q8 8 16 9.5t22 1.5h95q11 0 16 -6t9 -11l94 -126q7 -10 4 -12t-14 -2h-96
q-9 0 -13.5 3.5t-8.5 10.5z" />
    <glyph glyph-name="hcircumflex" unicode="&#x125;" horiz-adv-x="605" 
d="M35 0q-14 0 -20.5 9t-5.5 22l98 694q2 11 7.5 14t14.5 3h160q17 0 14 -22l-33 -235q-3 -16 8 -8q33 25 61.5 38.5t54 19t49.5 5.5q68 0 105.5 -36.5t37.5 -100.5q0 -8 -0.5 -16.5t-2.5 -17.5l-49 -345q-2 -15 -7.5 -19.5t-21.5 -4.5h-147q-28 0 -23 31l46 326q1 3 1 5.5
v4.5q0 17 -10 24.5t-29 7.5q-17 0 -33 -6.5t-29.5 -19t-25.5 -29.5l-47 -321q-2 -16 -8 -19.5t-24 -3.5h-141zM364 874q-7 11 -12 11.5t-16 -10.5l-58 -58q-7 -7 -12.5 -9t-15.5 -2h-103q-9 0 -9.5 6.5t5.5 11.5l131 128q8 8 16 9.5t22 1.5h95q11 0 16 -6t9 -11l94 -126
q7 -10 4 -12t-14 -2h-96q-9 0 -13.5 3.5t-8.5 10.5z" />
    <glyph glyph-name="Hbar" unicode="&#x126;" horiz-adv-x="799" 
d="M842 573q-1 -13 -6.5 -15.5t-20.5 -2.5h-748q-13 0 -18 8.5t-4 19.5l8 61q2 10 4.5 12t9.5 2h767q8 0 13 -8t4 -16zM287 297q-7 0 -11.5 -4t-6.5 -17l-36 -253q-2 -16 -8.5 -19.5t-23.5 -3.5h-175q-16 0 -18.5 4.5t-1.5 17.5l99 703q2 11 5.5 14t11.5 3h199q8 0 10 -3.5
t0 -13.5l-33 -239q-1 -10 1.5 -13.5t10.5 -3.5h176q8 0 12 8t5 18l33 232q2 10 6 12.5t12 2.5h197q8 0 10 -5.5t0 -23.5l-98 -694q-1 -13 -5 -16t-20 -3h-175q-17 0 -22 6t-3 22l36 260q1 9 -15 9h-172z" />
    <glyph glyph-name="hbar" unicode="&#x127;" horiz-adv-x="571" 
d="M391 598q-1 -13 -7 -15.5t-21 -2.5h-320q-13 0 -18 8.5t-4 19.5l9 65q2 10 4.5 12t9.5 2h339q8 0 13.5 -8t3.5 -16zM1 0q-14 0 -20.5 9t-5.5 22l98 694q2 11 7.5 14t14.5 3h160q17 0 14 -22l-33 -235q-3 -16 8 -8q33 25 61.5 38.5t54 19t49.5 5.5q68 0 105.5 -36.5
t37.5 -100.5q0 -8 -0.5 -16.5t-2.5 -17.5l-49 -345q-2 -15 -7.5 -19.5t-21.5 -4.5h-147q-28 0 -23 31l46 326q1 3 1 5.5v4.5q0 17 -10 24.5t-29 7.5q-17 0 -33 -6.5t-29.5 -19t-25.5 -29.5l-47 -321q-2 -16 -8 -19.5t-24 -3.5h-141z" />
    <glyph glyph-name="Itilde" unicode="&#x128;" horiz-adv-x="331" 
d="M328 742q17 0 14 -27l-97 -692q-2 -16 -8.5 -19.5t-23.5 -3.5h-174q-16 0 -18.5 9t-1.5 22l98 694q2 11 5.5 14t11.5 3h194zM437 840q-19 -7 -46 -14.5t-55 -7.5q-31 0 -57 8t-49.5 15.5t-50.5 7.5q-24 0 -38.5 -9t-39.5 -23q-10 -5 -16 1.5t-8 18.5l-10 54q-1 8 -4 17
t11 18q21 13 44 22.5t55 9.5q34 0 62.5 -8.5t53 -17t45.5 -8.5q18 0 32.5 7.5t27.5 16.5t24 11t18 -4.5t8 -17.5l5 -64q1 -9 1.5 -18.5t-13.5 -14.5v0z" />
    <glyph glyph-name="itilde" unicode="&#x129;" horiz-adv-x="282" 
d="M207 23q-2 -16 -8.5 -19.5t-23.5 -3.5h-141q-15 0 -21 9t-5 22l68 482q2 11 5 14t12 3h163q8 0 14 -8.5t5 -17.5zM382 628q-19 -7 -46 -14.5t-55 -7.5q-31 0 -57 8t-49.5 15.5t-50.5 7.5q-24 0 -38.5 -9t-39.5 -23q-10 -5 -16 1.5t-8 18.5l-10 54q-1 8 -4 17t11 18
q21 13 44 22.5t55 9.5q34 0 62.5 -8.5t53 -17t45.5 -8.5q18 0 32.5 7.5t27.5 16.5t24 11t18 -4.5t8 -17.5l5 -64q1 -9 1.5 -18.5t-13.5 -14.5v0z" />
    <glyph glyph-name="Imacron" unicode="&#x12a;" horiz-adv-x="331" 
d="M328 742q17 0 14 -27l-97 -692q-2 -16 -8.5 -19.5t-23.5 -3.5h-174q-16 0 -18.5 9t-1.5 22l98 694q2 11 5.5 14t11.5 3h194zM453 849q-1 -13 -6.5 -15.5t-20.5 -2.5h-360q-13 0 -18 8.5t-4 19.5l11 81q2 10 4.5 12t9.5 2h379q8 0 13 -8t4 -16z" />
    <glyph glyph-name="imacron" unicode="&#x12b;" horiz-adv-x="282" 
d="M207 23q-2 -16 -8.5 -19.5t-23.5 -3.5h-141q-15 0 -21 9t-5 22l68 482q2 11 5 14t12 3h163q8 0 14 -8.5t5 -17.5zM398 637q-1 -13 -6.5 -15.5t-20.5 -2.5h-360q-13 0 -18 8.5t-4 19.5l11 81q2 10 4.5 12t9.5 2h379q8 0 13 -8t4 -16z" />
    <glyph glyph-name="Ibreve" unicode="&#x12c;" horiz-adv-x="331" 
d="M328 742q17 0 14 -27l-97 -692q-2 -16 -8.5 -19.5t-23.5 -3.5h-174q-16 0 -18.5 9t-1.5 22l98 694q2 11 5.5 14t11.5 3h194zM436 954q11 0 14 -10t-2 -21q-21 -41 -54 -67.5t-73 -38.5t-82 -12q-45 0 -84 10.5t-65 37.5t-35 76q-1 10 1 17.5t15 7.5h71q9 0 12.5 -7
t10.5 -17q9 -11 21.5 -19.5t27 -12.5t28.5 -4q26 0 53 11t44 36q5 8 12 10.5t13 2.5h72v0z" />
    <glyph glyph-name="ibreve" unicode="&#x12d;" horiz-adv-x="282" 
d="M207 23q-2 -16 -8.5 -19.5t-23.5 -3.5h-141q-15 0 -21 9t-5 22l68 482q2 11 5 14t12 3h163q8 0 14 -8.5t5 -17.5zM381 742q11 0 14 -10t-2 -21q-21 -41 -54 -67.5t-73 -38.5t-82 -12q-45 0 -84 10.5t-65 37.5t-35 76q-1 10 1 17.5t15 7.5h71q9 0 12.5 -7t10.5 -17
q9 -11 21.5 -19.5t27 -12.5t28.5 -4q26 0 53 11t44 36q5 8 12 10.5t13 2.5h72v0z" />
    <glyph glyph-name="Iogonek" unicode="&#x12e;" horiz-adv-x="331" 
d="M328 742q17 0 14 -27l-97 -692q-2 -16 -8.5 -19.5t-23.5 -3.5h-174q-16 0 -18.5 9t-1.5 22l98 694q2 11 5.5 14t11.5 3h194zM-9 -76q2 15 10.5 28.5t29.5 27.5t62 28l143 -4q-58 -18 -81 -36t-25 -38q-1 -11 4 -17t16 -6q20 0 34.5 6.5t28.5 12.5q9 4 13.5 -0.5
t2.5 -14.5l-7 -52q-1 -6 -4 -12t-9 -8q-16 -4 -43 -8.5t-60 -4.5q-57 0 -89.5 24.5t-25.5 73.5v0z" />
    <glyph glyph-name="iogonek" unicode="&#x12f;" horiz-adv-x="282" 
d="M207 23q-2 -16 -8.5 -19.5t-23.5 -3.5h-141q-15 0 -21 9t-5 22l68 482q2 11 5 14t12 3h163q8 0 14 -8.5t5 -17.5zM288 597q-2 -15 -9 -19t-24 -4h-141q-15 0 -20.5 9.5t-4.5 22.5l17 119q2 11 5 14t12 3h163q8 0 14 -8.5t4 -18.5zM-47 -77q2 15 10.5 28.5t29.5 27.5
t62 28l143 -4q-58 -18 -81 -36t-25 -38q-1 -11 4 -17t16 -6q20 0 34.5 6.5t28.5 12.5q9 4 13.5 -0.5t2.5 -14.5l-7 -52q-1 -6 -4 -12t-9 -8q-16 -4 -43 -8.5t-60 -4.5q-57 0 -89.5 24.5t-25.5 73.5v0z" />
    <glyph glyph-name="Idotaccent" unicode="&#x130;" horiz-adv-x="331" 
d="M328 742q17 0 14 -27l-97 -692q-2 -16 -8.5 -19.5t-23.5 -3.5h-174q-16 0 -18.5 9t-1.5 22l98 694q2 11 5.5 14t11.5 3h194zM343 809q-2 -15 -9 -19t-24 -4h-141q-15 0 -20.5 9.5t-4.5 22.5l17 119q2 11 5 14t12 3h163q8 0 14 -8.5t4 -18.5z" />
    <glyph glyph-name="dotlessi" unicode="&#x131;" horiz-adv-x="282" 
d="M207 23q-2 -16 -8.5 -19.5t-23.5 -3.5h-141q-15 0 -21 9t-5 22l68 482q2 11 5 14t12 3h163q8 0 14 -8.5t5 -17.5z" />
    <glyph glyph-name="IJ" unicode="&#x132;" horiz-adv-x="798" 
d="M328 742q17 0 14 -27l-97 -692q-2 -16 -8.5 -19.5t-23.5 -3.5h-174q-16 0 -18.5 9t-1.5 22l98 694q2 11 5.5 14t11.5 3h194zM743 206q-11 -82 -44 -129t-87 -67t-130 -20q-34 0 -65.5 3.5t-62.5 11.5q-19 5 -25.5 10t-4.5 16l28 131q2 11 6.5 15.5t12.5 2.5
q15 -2 28 -3.5t26 -1.5q40 0 66.5 24t33.5 75l64 451q2 11 5.5 14t12.5 3h195q17 0 12 -27l-71 -509v0z" />
    <glyph glyph-name="ij" unicode="&#x133;" horiz-adv-x="565" 
d="M207 23q-2 -16 -8.5 -19.5t-23.5 -3.5h-141q-15 0 -21 9t-5 22l68 482q2 11 5.5 14t12.5 3h169q8 0 10.5 -8.5t1.5 -17.5zM288 597q-2 -15 -9 -19t-24 -4h-151q-11 0 -14 9.5t-1 22.5l17 113q3 23 20 23h168q8 0 10 -8.5t0 -18.5zM490 23q-14 -99 -69.5 -146t-159.5 -47
q-45 0 -59.5 7.5t-12.5 23.5l14 102q1 8 5 14t14 8l36 7q10 3 20.5 14t14.5 36l66 471q2 11 5.5 14t12.5 3h162q9 0 14.5 -8.5t4.5 -17.5l-68 -481v0zM570 597q-2 -15 -9 -19t-24 -4h-151q-11 0 -14 9.5t-1 22.5l17 113q3 23 20 23h168q8 0 10 -8.5t0 -18.5z" />
    <glyph glyph-name="Jcircumflex" unicode="&#x134;" horiz-adv-x="467" 
d="M412 206q-11 -82 -44 -129t-87 -67t-130 -20q-34 0 -65.5 3.5t-62.5 11.5q-19 5 -25.5 10t-4.5 16l28 131q2 11 6.5 15.5t12.5 2.5q15 -2 28 -3.5t26 -1.5q40 0 66.5 24t33.5 75l64 451q2 11 5.5 14t12.5 3h195q17 0 12 -27l-71 -509v0zM409 875q-7 11 -12 11.5
t-16 -10.5l-58 -58q-7 -7 -12.5 -9t-15.5 -2h-103q-9 0 -9.5 6.5t5.5 11.5l131 128q8 8 16 9.5t22 1.5h95q11 0 16 -6t9 -11l94 -126q7 -10 4 -12t-14 -2h-96q-9 0 -13.5 3.5t-8.5 10.5z" />
    <glyph glyph-name="jcircumflex" unicode="&#x135;" horiz-adv-x="273" 
d="M198 23q-9 -66 -42 -108.5t-81.5 -63.5t-105.5 -21q-37 0 -50.5 7.5t-11.5 23.5l14 102q1 8 5 14t14 8l26 7q10 3 20.5 14t14.5 36l66 471q2 11 5.5 14t12.5 3h162q9 0 14.5 -8.5t4.5 -17.5l-68 -481v0zM202 663q-7 11 -12 11.5t-16 -10.5l-58 -58q-7 -7 -12.5 -9
t-15.5 -2h-103q-9 0 -9.5 6.5t5.5 11.5l131 128q8 8 16 9.5t22 1.5h95q11 0 16 -6t9 -11l94 -126q7 -10 4 -12t-14 -2h-96q-9 0 -13.5 3.5t-8.5 10.5z" />
    <glyph glyph-name="uni0136" unicode="&#x136;" horiz-adv-x="772" 
d="M709 26q10 -26 -17 -26h-195q-23 0 -28 25l-84 278q-3 8 -8.5 1.5t-13.5 -16.5l-84 -90q-4 -4 -7.5 -10t-5.5 -14l-21 -151q-1 -13 -8 -18t-24 -5h-176q-13 0 -16 9t-2 22l98 694q2 11 5.5 14t11.5 3h190q9 0 14.5 -8.5t3.5 -18.5l-35 -253q-2 -12 2 -6.5t10 12.5
l222 258q10 11 17.5 13.5t25.5 2.5h172q17 0 20 -6.5t-8 -17.5l-202 -211q-7 -8 -10.5 -14.5t-1.5 -17.5l155 -449v0zM231 -246q-5 0 -5.5 5t4.5 11l45 52q9 11 8 18.5t-9 7.5h-30q-8 0 -10.5 4t-0.5 16l10 64q3 19 18 19h96q17 0 16 -14l-12 -82q-2 -13 -12 -23l-60 -59
l-13 -13t-17 -6h-28v0z" />
    <glyph glyph-name="uni0137" unicode="&#x137;" horiz-adv-x="631" 
d="M579 23q3 -8 0.5 -15.5t-16.5 -7.5h-171q-13 0 -19.5 9.5t-10.5 21.5l-48 168q-6 19 -22 4l-54 -49q-4 -4 -9 -11t-7 -19l-14 -101q-2 -16 -8 -19.5t-23 -3.5h-141q-16 0 -22 9t-5 22l98 694q2 11 5.5 14t11.5 3h170q9 0 11 -8.5t0 -18.5l-52 -375q-1 -4 1 -1.5t8 9.5
l174 169q9 8 17 10.5t15 2.5h137q17 0 23 -11t-5 -22l-150 -129q-7 -8 -11.5 -15t-0.5 -21l118 -309v0zM178 -246q-5 0 -5.5 5t4.5 11l45 52q9 11 8 18.5t-9 7.5h-30q-8 0 -10.5 4t-0.5 16l10 64q3 19 18 19h96q17 0 16 -14l-12 -82q-2 -13 -12 -23l-60 -59l-13 -13t-17 -6
h-28v0z" />
    <glyph glyph-name="kgreenlandic" unicode="&#x138;" horiz-adv-x="631" 
d="M579 23q3 -8 0.5 -15.5t-16.5 -7.5h-171q-13 0 -20.5 9.5t-9.5 21.5l-49 172q-3 10 -7 7t-12 -11l-56 -45q-4 -4 -9 -11t-7 -19l-14 -101q-2 -16 -8 -19.5t-23 -3.5h-141q-16 0 -22 9t-5 22l68 482q2 11 5.5 14t11.5 3h163q9 0 14.5 -8.5t3.5 -18.5l-22 -163
q-1 -4 1 -1.5t8 9.5l174 169q9 8 17 10.5t15 2.5h137q17 0 23 -11t-5 -22l-150 -129q-7 -8 -11.5 -15t-0.5 -21l118 -309v0z" />
    <glyph glyph-name="Lacute" unicode="&#x139;" horiz-adv-x="643" 
d="M116 722q3 20 18 20h196q17 0 12 -27l-75 -534q-3 -17 11 -17h304q18 0 15 -25l-17 -123q-1 -10 -6 -13t-17 -3h-514q-27 0 -24 31l97 691v0zM477 865q2 -11 -0.5 -17.5t-17.5 -10.5l-241 -56q-13 -3 -20 3t-9 16l-9 43q-4 17 5 21l252 98q7 3 12.5 0.5t8.5 -16.5z" />
    <glyph glyph-name="lacute" unicode="&#x13a;" horiz-adv-x="284" 
d="M208 23q-2 -16 -8.5 -19.5t-23.5 -3.5h-142q-15 0 -21.5 9t-5.5 22l103 694q2 11 5 14t12 3h167q15 0 12 -22zM378 865q2 -11 -0.5 -17.5t-17.5 -10.5l-241 -56q-13 -3 -20 3t-9 16l-9 43q-4 17 5 21l252 98q7 3 12.5 0.5t8.5 -16.5z" />
    <glyph glyph-name="uni013B" unicode="&#x13b;" horiz-adv-x="643" 
d="M116 722q3 20 18 20h196q17 0 12 -27l-75 -534q-3 -17 11 -17h304q18 0 15 -25l-17 -123q-1 -10 -6 -13t-17 -3h-514q-27 0 -24 31l97 691v0zM177 -246q-5 0 -5.5 5t4.5 11l45 52q9 11 8 18.5t-9 7.5h-30q-8 0 -10.5 4t-0.5 16l10 64q3 19 18 19h96q17 0 16 -14l-12 -82
q-2 -13 -12 -23l-60 -59l-13 -13t-17 -6h-28v0z" />
    <glyph glyph-name="uni013C" unicode="&#x13c;" horiz-adv-x="284" 
d="M208 23q-2 -16 -8.5 -19.5t-23.5 -3.5h-142q-15 0 -21.5 9t-5.5 22l103 694q2 11 5 14t12 3h167q15 0 12 -22zM22 -246q-5 0 -5.5 5t4.5 11l45 52q9 11 8 18.5t-9 7.5h-30q-8 0 -10.5 4t-0.5 16l10 64q3 19 18 19h96q17 0 16 -14l-12 -82q-2 -13 -12 -23l-60 -59l-13 -13
t-17 -6h-28v0z" />
    <glyph glyph-name="Lcaron" unicode="&#x13d;" horiz-adv-x="643" 
d="M116 722q3 20 18 20h196q17 0 12 -27l-75 -534q-3 -17 11 -17h304q18 0 15 -25l-17 -123q-1 -10 -6 -13t-17 -3h-514q-27 0 -24 31l97 691v0zM454 495q-7 0 -11 8t-2 13l43 77l6.5 13t-6.5 4l-11 1q-10 1 -15 7.5t-4 15.5l14 98q1 8 3 9t8 1h97q6 0 10.5 -6.5t3.5 -12.5
l-16 -118q-1 -3 -2 -5.5t-2 -4.5l-50 -89q-4 -9 -9.5 -10t-19.5 -1h-37v0z" />
    <glyph glyph-name="lcaron" unicode="&#x13e;" horiz-adv-x="457" 
d="M208 23q-2 -16 -8.5 -19.5t-23.5 -3.5h-142q-15 0 -21.5 9t-5.5 22l103 694q2 11 5 14t12 3h167q15 0 12 -22zM350 495q-7 0 -11 8t-2 13l43 77l6.5 13t-6.5 4l-11 1q-10 1 -15 7.5t-4 15.5l14 98q1 8 3 9t8 1h97q6 0 10.5 -6.5t3.5 -12.5l-16 -118q-1 -3 -2 -5.5
t-2 -4.5l-50 -89q-4 -9 -9.5 -10t-19.5 -1h-37v0z" />
    <glyph glyph-name="Ldot" unicode="&#x13f;" horiz-adv-x="616" 
d="M79 722q3 20 18 20h196q17 0 12 -27l-75 -534q-3 -17 11 -17h304q18 0 15 -25l-17 -123q-1 -10 -6 -13t-17 -3h-514q-27 0 -24 31l97 691v0zM545 347q-1 -14 -6 -17t-21 -3h-133q-13 0 -19.5 8.5t-4.5 19.5l19 137q2 11 5 12.5t10 1.5h153q8 0 13 -7.5t3 -16.5z" />
    <glyph glyph-name="ldot" unicode="&#x140;" horiz-adv-x="472" 
d="M208 23q-2 -16 -8.5 -19.5t-23.5 -3.5h-142q-15 0 -21.5 9t-5.5 22l103 694q2 11 5 14t12 3h167q15 0 12 -22zM439 218q-1 -14 -6 -17t-21 -3h-133q-13 0 -19.5 8.5t-4.5 19.5l19 137q2 11 5 12.5t10 1.5h153q8 0 13 -7.5t3 -16.5z" />
    <glyph glyph-name="Lslash" unicode="&#x141;" horiz-adv-x="606" 
d="M430 415q-1 -9 -4.5 -13t-14.5 -7l-418 -114q-16 -4 -21.5 4.5t-4.5 21.5l17 120q2 11 5 13.5t12 4.5l421 109q13 3 19.5 -5.5t4.5 -20.5zM79 722q3 20 18 20h196q17 0 12 -27l-75 -534q-3 -17 11 -17h304q18 0 15 -25l-17 -123q-1 -10 -6 -13t-17 -3h-514q-27 0 -24 31
l97 691v0z" />
    <glyph glyph-name="lslash" unicode="&#x142;" horiz-adv-x="364" 
d="M359 372q-3 -18 -20 -30l-305 -182q-16 -10 -22 -3.5t-5 19.5l17 120q3 19 20 31l306 176q14 8 20.5 1t4.5 -19zM251 23q-2 -16 -8.5 -19.5t-23.5 -3.5h-142q-15 0 -21.5 9t-5.5 22l103 694q2 11 5 14t12 3h167q15 0 12 -22z" />
    <glyph glyph-name="Nacute" unicode="&#x143;" horiz-adv-x="761" 
d="M762 742q14 0 12 -16l-101 -714q-1 -12 -20 -12h-137q-7 0 -12.5 5t-11.5 15l-225 373q-3 5 -7 4t-6 -12l-52 -366q-1 -12 -5.5 -15.5t-18.5 -3.5h-144q-11 0 -14 7.5t-2 18.5l99 699q2 11 5.5 14t14.5 3h163q12 0 18.5 -6t12.5 -17l195 -332q5 -9 11.5 -7.5t7.5 12.5
l47 335q2 10 5.5 12.5t14.5 2.5h150zM613 865q2 -11 -0.5 -17.5t-17.5 -10.5l-241 -56q-13 -3 -20 3t-9 16l-9 43q-4 17 5 21l252 98q7 3 12.5 0.5t8.5 -16.5z" />
    <glyph glyph-name="nacute" unicode="&#x144;" horiz-adv-x="604" 
d="M25 0q-13 0 -15.5 9t-1.5 22l68 482q2 11 5 14t12 3h171q6 0 9 -2.5t1 -12.5l-7 -45q-1 -13 12 -1q35 31 77.5 51t85.5 20q65 0 104 -38.5t39 -100.5q0 -7 -0.5 -14t-1.5 -15l-49 -348q-2 -15 -8.5 -19.5t-22.5 -4.5h-153q-13 0 -15 8.5t0 22.5l45 320q1 5 1.5 9t0.5 6
q0 17 -10.5 25t-29.5 8q-17 0 -33 -6.5t-29.5 -19t-25.5 -29.5l-47 -321q-2 -16 -9 -19.5t-25 -3.5h-148v0zM506 653q2 -11 -0.5 -17.5t-17.5 -10.5l-241 -56q-13 -3 -20 3t-9 16l-9 43q-4 17 5 21l252 98q7 3 12.5 0.5t8.5 -16.5z" />
    <glyph glyph-name="uni0145" unicode="&#x145;" horiz-adv-x="761" 
d="M762 742q14 0 12 -16l-101 -714q-1 -12 -20 -12h-137q-7 0 -12.5 5t-11.5 15l-225 373q-3 5 -7 4t-6 -12l-52 -366q-1 -12 -5.5 -15.5t-18.5 -3.5h-144q-11 0 -14 7.5t-2 18.5l99 699q2 11 5.5 14t14.5 3h163q12 0 18.5 -6t12.5 -17l195 -332q5 -9 11.5 -7.5t7.5 12.5
l47 335q2 10 5.5 12.5t14.5 2.5h150zM228 -246q-5 0 -5.5 5t4.5 11l45 52q9 11 8 18.5t-9 7.5h-30q-8 0 -10.5 4t-0.5 16l10 64q3 19 18 19h96q17 0 16 -14l-12 -82q-2 -13 -12 -23l-60 -59l-13 -13t-17 -6h-28v0z" />
    <glyph glyph-name="uni0146" unicode="&#x146;" horiz-adv-x="604" 
d="M25 0q-13 0 -15.5 9t-1.5 22l68 482q2 11 5 14t12 3h171q6 0 9 -2.5t1 -12.5l-7 -45q-1 -13 12 -1q35 31 77.5 51t85.5 20q65 0 104 -38.5t39 -100.5q0 -7 -0.5 -14t-1.5 -15l-49 -348q-2 -15 -8.5 -19.5t-22.5 -4.5h-153q-13 0 -15 8.5t0 22.5l45 320q1 5 1.5 9t0.5 6
q0 17 -10.5 25t-29.5 8q-17 0 -33 -6.5t-29.5 -19t-25.5 -29.5l-47 -321q-2 -16 -9 -19.5t-25 -3.5h-148v0zM180 -246q-5 0 -5.5 5t4.5 11l45 52q9 11 8 18.5t-9 7.5h-30q-8 0 -10.5 4t-0.5 16l10 64q3 19 18 19h96q17 0 16 -14l-12 -82q-2 -13 -12 -23l-60 -59l-13 -13
t-17 -6h-28v0z" />
    <glyph glyph-name="Ncaron" unicode="&#x147;" horiz-adv-x="761" 
d="M762 742q14 0 12 -16l-101 -714q-1 -12 -20 -12h-137q-7 0 -12.5 5t-11.5 15l-225 373q-3 5 -7 4t-6 -12l-52 -366q-1 -12 -5.5 -15.5t-18.5 -3.5h-144q-11 0 -14 7.5t-2 18.5l99 699q2 11 5.5 14t14.5 3h163q12 0 18.5 -6t12.5 -17l195 -332q5 -9 11.5 -7.5t7.5 12.5
l47 335q2 10 5.5 12.5t14.5 2.5h150zM531 950q7 7 12 6t14 -1h105q11 0 13.5 -6.5t-6.5 -15.5l-130 -127q-6 -5 -11.5 -7t-16.5 -2h-95q-14 0 -22 6t-12 13l-97 125q-5 8 -7.5 11t6.5 3h99q10 0 15.5 -3t8.5 -11l41 -54q10 -15 16 -9.5t17 18.5l50 54v0z" />
    <glyph glyph-name="ncaron" unicode="&#x148;" horiz-adv-x="604" 
d="M25 0q-13 0 -15.5 9t-1.5 22l68 482q2 11 5 14t12 3h171q6 0 9 -2.5t1 -12.5l-7 -45q-1 -13 12 -1q35 31 77.5 51t85.5 20q65 0 104 -38.5t39 -100.5q0 -7 -0.5 -14t-1.5 -15l-49 -348q-2 -15 -8.5 -19.5t-22.5 -4.5h-153q-13 0 -15 8.5t0 22.5l45 320q1 5 1.5 9t0.5 6
q0 17 -10.5 25t-29.5 8q-17 0 -33 -6.5t-29.5 -19t-25.5 -29.5l-47 -321q-2 -16 -9 -19.5t-25 -3.5h-148v0zM424 738q7 7 12 6t14 -1h105q11 0 13.5 -6.5t-6.5 -15.5l-130 -127q-6 -5 -11.5 -7t-16.5 -2h-95q-14 0 -22 6t-12 13l-97 125q-5 8 -7.5 11t6.5 3h99q10 0 15.5 -3
t8.5 -11l41 -54q10 -15 16 -9.5t17 18.5l50 54v0z" />
    <glyph glyph-name="napostrophe" unicode="&#x149;" horiz-adv-x="742" 
d="M71 445q-7 0 -6 3t3 8l47 107q8 22 -10 25l-11 3q-10 1 -12 1.5t-1 9.5l17 118q1 8 8 15t13 7h99q6 0 7.5 -0.5t0.5 -6.5l-19 -138q-1 -3 -3.5 -6t-3.5 -5l-55 -120q-7 -21 -35 -21h-39v0zM163 0q-13 0 -15.5 9t-1.5 22l68 482q2 11 5 14t12 3h171q6 0 9 -2.5t1 -12.5
l-7 -45q-1 -13 12 -1q35 31 77.5 51t85.5 20q65 0 104 -38.5t39 -100.5q0 -7 -0.5 -14t-1.5 -15l-49 -348q-2 -15 -8.5 -19.5t-22.5 -4.5h-153q-13 0 -15 8.5t0 22.5l45 320q1 5 1.5 9t0.5 6q0 17 -10.5 25t-29.5 8q-17 0 -33 -6.5t-29.5 -19t-25.5 -29.5l-47 -321
q-2 -16 -9 -19.5t-25 -3.5h-148v0z" />
    <glyph glyph-name="Eng" unicode="&#x14a;" horiz-adv-x="761" 
d="M757 742q19 0 16 -23l-95 -678q-17 -121 -81 -168.5t-175 -47.5q-34 0 -66 3.5t-62 10.5q-41 5 -33 47l23 97q2 11 6 14t12 1q10 -2 30 -4.5t40 -4.5t29 -2q40 0 54.5 18t22.5 58l2 10l-212 319q-4 5 -8.5 2t-6.5 -14l-51 -364q-1 -12 -4.5 -14t-17.5 -2h-136
q-11 0 -19 7.5t-7 18.5l99 698q2 10 5.5 14t14.5 4h160q13 0 20.5 -6t13.5 -17l201 -293q5 -8 12 -3.5t8 17.5l40 287q2 10 5.5 12.5t14.5 2.5h145v0z" />
    <glyph glyph-name="eng" unicode="&#x14b;" horiz-adv-x="610" 
d="M443 540q73 0 112.5 -47t28.5 -121l-49 -349q-9 -66 -42 -108.5t-81.5 -63.5t-105.5 -21q-37 0 -50.5 7.5t-11.5 23.5l14 102q1 8 5 14t14 8l26 7q10 3 20.5 14t14.5 36l44 315q3 23 -7.5 32.5t-31.5 9.5q-26 0 -47.5 -14.5t-39.5 -40.5l-47 -321q-2 -16 -8 -19.5
t-24 -3.5h-143q-14 0 -20.5 9t-5.5 22l72 482q2 11 5 14t12 3h158q9 0 14.5 -8.5t4.5 -17.5l-7 -45q-1 -6 2 -2t9 13q25 21 52 36.5t55.5 24.5t57.5 9v0z" />
    <glyph glyph-name="Omacron" unicode="&#x14c;" horiz-adv-x="780" 
d="M360 -10q-100 0 -171 38.5t-109 109.5t-38 168q0 17 1 36t4 38q16 114 71.5 197.5t141 129t191.5 45.5q98 0 169 -39.5t109 -111.5t38 -170q0 -17 -1 -35.5t-4 -37.5q-16 -112 -70.5 -195t-139.5 -128t-192 -45v0zM366 146q68 0 106 53.5t55 177.5q4 29 6 53.5t2 45.5
q0 65 -21 93.5t-68 28.5q-68 0 -107 -57.5t-57 -185.5q-4 -28 -6 -51.5t-2 -43.5q0 -62 22 -88t70 -26v0zM677 849q-1 -13 -6.5 -15.5t-20.5 -2.5h-360q-13 0 -18 8.5t-4 19.5l11 81q2 10 4.5 12t9.5 2h379q8 0 13 -8t4 -16z" />
    <glyph glyph-name="omacron" unicode="&#x14d;" 
d="M268 -10q-76 0 -132 30t-86.5 84t-30.5 124t25 127.5t68.5 98.5t100 63.5t118.5 22.5q77 0 133 -31t86 -85.5t30 -125.5q0 -88 -41 -158t-111.5 -110t-159.5 -40v0zM271 118q31 0 56.5 24t41 73t15.5 124q0 41 -13 59t-42 18q-30 0 -55.5 -24t-41 -73.5t-15.5 -125.5
q0 -40 13 -57.5t41 -17.5v0zM557 637q-1 -13 -6.5 -15.5t-20.5 -2.5h-360q-13 0 -18 8.5t-4 19.5l11 81q2 10 4.5 12t9.5 2h379q8 0 13 -8t4 -16z" />
    <glyph glyph-name="Obreve" unicode="&#x14e;" horiz-adv-x="780" 
d="M360 -10q-100 0 -171 38.5t-109 109.5t-38 168q0 17 1 36t4 38q16 114 71.5 197.5t141 129t191.5 45.5q98 0 169 -39.5t109 -111.5t38 -170q0 -17 -1 -35.5t-4 -37.5q-16 -112 -70.5 -195t-139.5 -128t-192 -45v0zM366 146q68 0 106 53.5t55 177.5q4 29 6 53.5t2 45.5
q0 65 -21 93.5t-68 28.5q-68 0 -107 -57.5t-57 -185.5q-4 -28 -6 -51.5t-2 -43.5q0 -62 22 -88t70 -26v0zM660 954q11 0 14 -10t-2 -21q-21 -41 -54 -67.5t-73 -38.5t-82 -12q-45 0 -84 10.5t-65 37.5t-35 76q-1 10 1 17.5t15 7.5h71q9 0 12.5 -7t10.5 -17q9 -11 21.5 -19.5
t27 -12.5t28.5 -4q26 0 53 11t44 36q5 8 12 10.5t13 2.5h72v0z" />
    <glyph glyph-name="obreve" unicode="&#x14f;" 
d="M268 -10q-76 0 -132 30t-86.5 84t-30.5 124t25 127.5t68.5 98.5t100 63.5t118.5 22.5q77 0 133 -31t86 -85.5t30 -125.5q0 -88 -41 -158t-111.5 -110t-159.5 -40v0zM271 118q31 0 56.5 24t41 73t15.5 124q0 41 -13 59t-42 18q-30 0 -55.5 -24t-41 -73.5t-15.5 -125.5
q0 -40 13 -57.5t41 -17.5v0zM540 742q11 0 14 -10t-2 -21q-21 -41 -54 -67.5t-73 -38.5t-82 -12q-45 0 -84 10.5t-65 37.5t-35 76q-1 10 1 17.5t15 7.5h71q9 0 12.5 -7t10.5 -17q9 -11 21.5 -19.5t27 -12.5t28.5 -4q26 0 53 11t44 36q5 8 12 10.5t13 2.5h72v0z" />
    <glyph glyph-name="Ohungarumlaut" unicode="&#x150;" horiz-adv-x="780" 
d="M360 -10q-100 0 -171 38.5t-109 109.5t-38 168q0 17 1 36t4 38q16 114 71.5 197.5t141 129t191.5 45.5q98 0 169 -39.5t109 -111.5t38 -170q0 -17 -1 -35.5t-4 -37.5q-16 -112 -70.5 -195t-139.5 -128t-192 -45v0zM366 146q68 0 106 53.5t55 177.5q4 29 6 53.5t2 45.5
q0 65 -21 93.5t-68 28.5q-68 0 -107 -57.5t-57 -185.5q-4 -28 -6 -51.5t-2 -43.5q0 -62 22 -88t70 -26v0zM471 891q6 -10 8.5 -19t-11.5 -17l-155 -80q-13 -7 -19 -5.5t-12 8.5l-28 35q-6 7 -9 16t2 13l155 117q7 5 14.5 2.5t11.5 -9.5zM690 891q6 -10 8.5 -19t-11.5 -17
l-155 -80q-13 -7 -19 -5.5t-12 8.5l-28 35q-6 7 -9 16t2 13l155 117q7 5 14.5 2.5t11.5 -9.5z" />
    <glyph glyph-name="ohungarumlaut" unicode="&#x151;" 
d="M268 -10q-76 0 -132 30t-86.5 84t-30.5 124t25 127.5t68.5 98.5t100 63.5t118.5 22.5q77 0 133 -31t86 -85.5t30 -125.5q0 -88 -41 -158t-111.5 -110t-159.5 -40v0zM271 118q31 0 56.5 24t41 73t15.5 124q0 41 -13 59t-42 18q-30 0 -55.5 -24t-41 -73.5t-15.5 -125.5
q0 -40 13 -57.5t41 -17.5v0zM351 679q6 -10 8.5 -19t-11.5 -17l-155 -80q-13 -7 -19 -5.5t-12 8.5l-28 35q-6 7 -9 16t2 13l155 117q7 5 14.5 2.5t11.5 -9.5zM570 679q6 -10 8.5 -19t-11.5 -17l-155 -80q-13 -7 -19 -5.5t-12 8.5l-28 35q-6 7 -9 16t2 13l155 117
q7 5 14.5 2.5t11.5 -9.5z" />
    <glyph glyph-name="OE" unicode="&#x152;" horiz-adv-x="1130" 
d="M1057 164q11 0 17.5 -7t4.5 -18l-17 -123q-1 -9 -5 -12.5t-17 -3.5h-458h-10.5h-10.5l-50 -1q-29 -5 -64.5 -7t-74.5 -2q-118 0 -196.5 48.5t-111.5 136t-17 205.5q16 114 72.5 197.5t147 129t208.5 45.5q41 0 74 -3t58 -8l41 1h10.5h10.5h464q9 0 14.5 -8.5t3.5 -18.5
l-17 -116q-1 -12 -6 -16.5t-19 -4.5h-300q-11 0 -20 -7.5t-11 -17.5l-11 -85q-1 -10 1.5 -12.5t9.5 -2.5h180q11 0 17.5 -8t4.5 -18l-18 -124q-1 -7 -3 -9t-12 -2h-185q-7 0 -14.5 -7t-8.5 -13l-14 -100q-1 -8 -0.5 -8h7.5h325v0zM366 146q68 0 106 53.5t55 177.5
q17 120 -1.5 170.5t-79.5 50.5q-68 0 -107 -57.5t-57 -185.5q-16 -116 2 -162.5t82 -46.5v0z" />
    <glyph glyph-name="oe" unicode="&#x153;" horiz-adv-x="940" 
d="M268 -10q-84 0 -143.5 36.5t-86.5 100.5t-16 146q12 81 56 141t110 93t143 33q52 0 92.5 -15t68.5 -41q9 -2 15 3t13 12q38 20 79 30.5t81 10.5q81 0 139 -35.5t85 -102t14 -159.5q-1 -9 -2 -11t-14 -3h-311q-7 0 -14 -7.5t-9 -20.5q-4 -28 6 -45.5t30.5 -25.5t47.5 -8
q29 0 56.5 14.5t64.5 49.5q5 1 8 -2t13 -7l85 -37q8 -3 11.5 -11.5t-3.5 -20.5q-44 -48 -84 -73.5t-83.5 -35t-97.5 -9.5q-52 0 -93 15.5t-70 41.5q-7 0 -12 -5.5t-8 -10.5q-39 -19 -82 -30t-89 -11v0zM271 118q29 0 50.5 17.5t36 52.5t21.5 89q7 50 4.5 80.5t-16 44.5
t-38.5 14q-28 0 -49.5 -17.5t-35.5 -53t-22 -90.5q-7 -49 -4.5 -79.5t16 -44t37.5 -13.5v0zM688 423q-22 0 -43.5 -11t-36.5 -32.5t-19 -52.5l126 5q10 0 17 6t8 19q2 11 -2 26.5t-15.5 27.5t-34.5 12v0z" />
    <glyph glyph-name="Racute" unicode="&#x154;" horiz-adv-x="739" 
d="M667 27q9 -27 -17 -27h-194q-10 0 -16.5 5.5t-9.5 20.5l-58 258q-1 6 -4 8.5t-11 2.5h-60q-13 0 -15 -12l-37 -260q-2 -16 -10.5 -19.5t-25.5 -3.5h-168q-15 0 -19 9t-3 22l98 694q2 11 5 14t12 3h334q134 0 207 -50.5t73 -140.5q0 -49 -19.5 -93t-53.5 -78.5t-80 -52.5
q-13 -5 -15.5 -9.5t-0.5 -10.5l88 -280v0zM417 444q29 0 50.5 13.5t33.5 34.5t12 45q0 29 -21 43t-52 14h-102q-12 0 -15 -20l-17 -115q-1 -10 2 -12.5t9 -2.5h100v0zM590 865q2 -11 -0.5 -17.5t-17.5 -10.5l-241 -56q-13 -3 -20 3t-9 16l-9 43q-4 17 5 21l252 98
q7 3 12.5 0.5t8.5 -16.5z" />
    <glyph glyph-name="racute" unicode="&#x155;" horiz-adv-x="454" 
d="M34 0q-15 0 -21 9t-5 22l68 482q2 11 5 14t12 3h159q8 0 13 -6t3 -20l-6 -36q-1 -12 3 -13t11 6q20 22 47 40t55 28.5t49 10.5q20 0 32 -3t10 -14l-20 -146q-2 -15 -5.5 -18.5t-10.5 -2.5q-26 4 -49.5 5.5t-34.5 1.5q-18 0 -36 -6.5t-33 -17.5t-24.5 -24t-11.5 -26
l-37 -266q-2 -16 -8.5 -19.5t-23.5 -3.5h-141v0zM434 653q2 -11 -0.5 -17.5t-17.5 -10.5l-241 -56q-13 -3 -20 3t-9 16l-9 43q-4 17 5 21l252 98q7 3 12.5 0.5t8.5 -16.5z" />
    <glyph glyph-name="uni0156" unicode="&#x156;" horiz-adv-x="739" 
d="M667 27q9 -27 -17 -27h-194q-10 0 -16.5 5.5t-9.5 20.5l-58 258q-1 6 -4 8.5t-11 2.5h-60q-13 0 -15 -12l-37 -260q-2 -16 -10.5 -19.5t-25.5 -3.5h-168q-15 0 -19 9t-3 22l98 694q2 11 5 14t12 3h334q134 0 207 -50.5t73 -140.5q0 -49 -19.5 -93t-53.5 -78.5t-80 -52.5
q-13 -5 -15.5 -9.5t-0.5 -10.5l88 -280v0zM417 444q29 0 50.5 13.5t33.5 34.5t12 45q0 29 -21 43t-52 14h-102q-12 0 -15 -20l-17 -115q-1 -10 2 -12.5t9 -2.5h100v0zM244 -246q-5 0 -5.5 5t4.5 11l45 52q9 11 8 18.5t-9 7.5h-30q-8 0 -10.5 4t-0.5 16l10 64q3 19 18 19h96
q17 0 16 -14l-12 -82q-2 -13 -12 -23l-60 -59l-13 -13t-17 -6h-28v0z" />
    <glyph glyph-name="uni0157" unicode="&#x157;" horiz-adv-x="454" 
d="M34 0q-15 0 -21 9t-5 22l68 482q2 11 5 14t12 3h159q8 0 13 -6t3 -20l-6 -36q-1 -12 3 -13t11 6q20 22 47 40t55 28.5t49 10.5q20 0 32 -3t10 -14l-20 -146q-2 -15 -5.5 -18.5t-10.5 -2.5q-26 4 -49.5 5.5t-34.5 1.5q-18 0 -36 -6.5t-33 -17.5t-24.5 -24t-11.5 -26
l-37 -266q-2 -16 -8.5 -19.5t-23.5 -3.5h-141v0zM20 -246q-5 0 -5.5 5t4.5 11l45 52q9 11 8 18.5t-9 7.5h-30q-8 0 -10.5 4t-0.5 16l10 64q3 19 18 19h96q17 0 16 -14l-12 -82q-2 -13 -12 -23l-60 -59l-13 -13t-17 -6h-28v0z" />
    <glyph glyph-name="Rcaron" unicode="&#x158;" horiz-adv-x="739" 
d="M667 27q9 -27 -17 -27h-194q-10 0 -16.5 5.5t-9.5 20.5l-58 258q-1 6 -4 8.5t-11 2.5h-60q-13 0 -15 -12l-37 -260q-2 -16 -10.5 -19.5t-25.5 -3.5h-168q-15 0 -19 9t-3 22l98 694q2 11 5 14t12 3h334q134 0 207 -50.5t73 -140.5q0 -49 -19.5 -93t-53.5 -78.5t-80 -52.5
q-13 -5 -15.5 -9.5t-0.5 -10.5l88 -280v0zM417 444q29 0 50.5 13.5t33.5 34.5t12 45q0 29 -21 43t-52 14h-102q-12 0 -15 -20l-17 -115q-1 -10 2 -12.5t9 -2.5h100v0zM508 950q7 7 12 6t14 -1h105q11 0 13.5 -6.5t-6.5 -15.5l-130 -127q-6 -5 -11.5 -7t-16.5 -2h-95
q-14 0 -22 6t-12 13l-97 125q-5 8 -7.5 11t6.5 3h99q10 0 15.5 -3t8.5 -11l41 -54q10 -15 16 -9.5t17 18.5l50 54v0z" />
    <glyph glyph-name="rcaron" unicode="&#x159;" horiz-adv-x="454" 
d="M34 0q-15 0 -21 9t-5 22l68 482q2 11 5 14t12 3h159q8 0 13 -6t3 -20l-6 -36q-1 -12 3 -13t11 6q20 22 47 40t55 28.5t49 10.5q20 0 32 -3t10 -14l-20 -146q-2 -15 -5.5 -18.5t-10.5 -2.5q-26 4 -49.5 5.5t-34.5 1.5q-18 0 -36 -6.5t-33 -17.5t-24.5 -24t-11.5 -26
l-37 -266q-2 -16 -8.5 -19.5t-23.5 -3.5h-141v0zM352 738q7 7 12 6t14 -1h105q11 0 13.5 -6.5t-6.5 -15.5l-130 -127q-6 -5 -11.5 -7t-16.5 -2h-95q-14 0 -22 6t-12 13l-97 125q-5 8 -7.5 11t6.5 3h99q10 0 15.5 -3t8.5 -11l41 -54q10 -15 16 -9.5t17 18.5l50 54v0z" />
    <glyph glyph-name="Sacute" unicode="&#x15a;" horiz-adv-x="701" 
d="M539 552q-18 16 -51 31t-86 15q-33 0 -57.5 -7t-38 -21t-13.5 -34q0 -15 9.5 -25.5t23.5 -17t27 -10.5l160 -52q79 -25 118.5 -66.5t39.5 -105.5q0 -87 -47 -147t-126 -91t-177 -31q-117 0 -195.5 38.5t-113.5 102.5q-5 11 -5.5 17t8.5 11l106 65q14 8 24.5 4t18.5 -14
q23 -25 44 -42.5t51.5 -26t81.5 -8.5q28 0 52.5 6t40 20.5t15.5 40.5q0 20 -16 33t-45 21l-147 45q-76 23 -118 72t-42 115q0 60 26.5 108t72.5 82.5t105 53t125 18.5t119.5 -16t93 -41.5t61.5 -55.5q7 -10 8 -17t-7 -12l-115 -74q-7 -4 -14.5 2t-16.5 14v0zM587 865
q2 -11 -0.5 -17.5t-17.5 -10.5l-241 -56q-13 -3 -20 3t-9 16l-9 43q-4 17 5 21l252 98q7 3 12.5 0.5t8.5 -16.5z" />
    <glyph glyph-name="sacute" unicode="&#x15b;" horiz-adv-x="541" 
d="M250 -10q-107 0 -167 35.5t-83 81.5q-9 19 9 28l82 39q13 6 22 5t17 -14q13 -19 36 -36.5t77 -17.5q9 0 24 1t29.5 4.5t25 12t10.5 23.5q0 10 -9.5 16.5t-35.5 12.5l-99 23q-67 16 -104 48t-37 90q0 66 36 110t95 66t128 22q85 0 136.5 -32.5t76.5 -72.5q4 -6 4 -13.5
t-10 -12.5l-84 -37q-10 -4 -16 -1.5t-19 16.5q-12 14 -34.5 25.5t-56.5 11.5q-19 0 -36.5 -3.5t-28.5 -11t-11 -20.5q0 -11 6 -16.5t26 -10.5l103 -22q80 -17 114 -58.5t34 -94.5q0 -51 -22.5 -88.5t-59.5 -61.5t-83.5 -35.5t-94.5 -11.5v0zM471 653q2 -11 -0.5 -17.5
t-17.5 -10.5l-241 -56q-13 -3 -20 3t-9 16l-9 43q-4 17 5 21l252 98q7 3 12.5 0.5t8.5 -16.5z" />
    <glyph glyph-name="Scircumflex" unicode="&#x15c;" horiz-adv-x="701" 
d="M539 552q-18 16 -51 31t-86 15q-33 0 -57.5 -7t-38 -21t-13.5 -34q0 -15 9.5 -25.5t23.5 -17t27 -10.5l160 -52q79 -25 118.5 -66.5t39.5 -105.5q0 -87 -47 -147t-126 -91t-177 -31q-117 0 -195.5 38.5t-113.5 102.5q-5 11 -5.5 17t8.5 11l106 65q14 8 24.5 4t18.5 -14
q23 -25 44 -42.5t51.5 -26t81.5 -8.5q28 0 52.5 6t40 20.5t15.5 40.5q0 20 -16 33t-45 21l-147 45q-76 23 -118 72t-42 115q0 60 26.5 108t72.5 82.5t105 53t125 18.5t119.5 -16t93 -41.5t61.5 -55.5q7 -10 8 -17t-7 -12l-115 -74q-7 -4 -14.5 2t-16.5 14v0zM458 875
q-7 11 -12 11.5t-16 -10.5l-58 -58q-7 -7 -12.5 -9t-15.5 -2h-103q-9 0 -9.5 6.5t5.5 11.5l131 128q8 8 16 9.5t22 1.5h95q11 0 16 -6t9 -11l94 -126q7 -10 4 -12t-14 -2h-96q-9 0 -13.5 3.5t-8.5 10.5z" />
    <glyph glyph-name="scircumflex" unicode="&#x15d;" horiz-adv-x="541" 
d="M250 -10q-107 0 -167 35.5t-83 81.5q-9 19 9 28l82 39q13 6 22 5t17 -14q13 -19 36 -36.5t77 -17.5q9 0 24 1t29.5 4.5t25 12t10.5 23.5q0 10 -9.5 16.5t-35.5 12.5l-99 23q-67 16 -104 48t-37 90q0 66 36 110t95 66t128 22q85 0 136.5 -32.5t76.5 -72.5q4 -6 4 -13.5
t-10 -12.5l-84 -37q-10 -4 -16 -1.5t-19 16.5q-12 14 -34.5 25.5t-56.5 11.5q-19 0 -36.5 -3.5t-28.5 -11t-11 -20.5q0 -11 6 -16.5t26 -10.5l103 -22q80 -17 114 -58.5t34 -94.5q0 -51 -22.5 -88.5t-59.5 -61.5t-83.5 -35.5t-94.5 -11.5v0zM342 663q-7 11 -12 11.5
t-16 -10.5l-58 -58q-7 -7 -12.5 -9t-15.5 -2h-103q-9 0 -9.5 6.5t5.5 11.5l131 128q8 8 16 9.5t22 1.5h95q11 0 16 -6t9 -11l94 -126q7 -10 4 -12t-14 -2h-96q-9 0 -13.5 3.5t-8.5 10.5z" />
    <glyph glyph-name="Scedilla" unicode="&#x15e;" horiz-adv-x="701" 
d="M539 552q-18 16 -51 31t-86 15q-33 0 -57.5 -7t-38 -21t-13.5 -34q0 -15 9.5 -25.5t23.5 -17t27 -10.5l160 -52q79 -25 118.5 -66.5t39.5 -105.5q0 -87 -47 -147t-126 -91t-177 -31q-117 0 -195.5 38.5t-113.5 102.5q-5 11 -5.5 17t8.5 11l106 65q14 8 24.5 4t18.5 -14
q23 -25 44 -42.5t51.5 -26t81.5 -8.5q28 0 52.5 6t40 20.5t15.5 40.5q0 20 -16 33t-45 21l-147 45q-76 23 -118 72t-42 115q0 60 26.5 108t72.5 82.5t105 53t125 18.5t119.5 -16t93 -41.5t61.5 -55.5q7 -10 8 -17t-7 -12l-115 -74q-7 -4 -14.5 2t-16.5 14v0zM435 -148
q-5 -37 -45.5 -57t-90.5 -20q-36 0 -68.5 7.5t-55.5 23.5q-7 1 -10.5 5.5t-1.5 9.5l23 41q2 5 4 0.5t3 -7.5q18 -6 37.5 -11t36.5 -5q24 0 41 11t19 27q2 14 -14 21t-65 7q-10 0 -16 4.5t-2 12.5l51 83h83l-25 -54q-3 -4 -5 -4t0 0q41 0 64 -15t31.5 -36.5t5.5 -43.5v0z" />
    <glyph glyph-name="scedilla" unicode="&#x15f;" horiz-adv-x="541" 
d="M250 -10q-107 0 -167 35.5t-83 81.5q-9 19 9 28l82 39q13 6 22 5t17 -14q13 -19 36 -36.5t77 -17.5q9 0 24 1t29.5 4.5t25 12t10.5 23.5q0 10 -9.5 16.5t-35.5 12.5l-99 23q-67 16 -104 48t-37 90q0 66 36 110t95 66t128 22q85 0 136.5 -32.5t76.5 -72.5q4 -6 4 -13.5
t-10 -12.5l-84 -37q-10 -4 -16 -1.5t-19 16.5q-12 14 -34.5 25.5t-56.5 11.5q-19 0 -36.5 -3.5t-28.5 -11t-11 -20.5q0 -11 6 -16.5t26 -10.5l103 -22q80 -17 114 -58.5t34 -94.5q0 -51 -22.5 -88.5t-59.5 -61.5t-83.5 -35.5t-94.5 -11.5v0zM348 -148q-5 -37 -45.5 -57
t-90.5 -20q-36 0 -68.5 7.5t-55.5 23.5q-7 1 -10.5 5.5t-1.5 9.5l23 41q2 5 4 0.5t3 -7.5q18 -6 37.5 -11t36.5 -5q24 0 41 11t19 27q2 14 -14 21t-65 7q-10 0 -16 4.5t-2 12.5l51 83h83l-25 -54q-3 -4 -5 -4t0 0q41 0 64 -15t31.5 -36.5t5.5 -43.5v0z" />
    <glyph glyph-name="Scaron" unicode="&#x160;" horiz-adv-x="701" 
d="M539 552q-18 16 -51 31t-86 15q-33 0 -57.5 -7t-38 -21t-13.5 -34q0 -15 9.5 -25.5t23.5 -17t27 -10.5l160 -52q79 -25 118.5 -66.5t39.5 -105.5q0 -87 -47 -147t-126 -91t-177 -31q-117 0 -195.5 38.5t-113.5 102.5q-5 11 -5.5 17t8.5 11l106 65q14 8 24.5 4t18.5 -14
q23 -25 44 -42.5t51.5 -26t81.5 -8.5q28 0 52.5 6t40 20.5t15.5 40.5q0 20 -16 33t-45 21l-147 45q-76 23 -118 72t-42 115q0 60 26.5 108t72.5 82.5t105 53t125 18.5t119.5 -16t93 -41.5t61.5 -55.5q7 -10 8 -17t-7 -12l-115 -74q-7 -4 -14.5 2t-16.5 14v0zM505 950
q7 7 12 6t14 -1h105q11 0 13.5 -6.5t-6.5 -15.5l-130 -127q-6 -5 -11.5 -7t-16.5 -2h-95q-14 0 -22 6t-12 13l-97 125q-5 8 -7.5 11t6.5 3h99q10 0 15.5 -3t8.5 -11l41 -54q10 -15 16 -9.5t17 18.5l50 54v0z" />
    <glyph glyph-name="scaron" unicode="&#x161;" horiz-adv-x="541" 
d="M250 -10q-107 0 -167 35.5t-83 81.5q-9 19 9 28l82 39q13 6 22 5t17 -14q13 -19 36 -36.5t77 -17.5q9 0 24 1t29.5 4.5t25 12t10.5 23.5q0 10 -9.5 16.5t-35.5 12.5l-99 23q-67 16 -104 48t-37 90q0 66 36 110t95 66t128 22q85 0 136.5 -32.5t76.5 -72.5q4 -6 4 -13.5
t-10 -12.5l-84 -37q-10 -4 -16 -1.5t-19 16.5q-12 14 -34.5 25.5t-56.5 11.5q-19 0 -36.5 -3.5t-28.5 -11t-11 -20.5q0 -11 6 -16.5t26 -10.5l103 -22q80 -17 114 -58.5t34 -94.5q0 -51 -22.5 -88.5t-59.5 -61.5t-83.5 -35.5t-94.5 -11.5v0zM389 738q7 7 12 6t14 -1h105
q11 0 13.5 -6.5t-6.5 -15.5l-130 -127q-6 -5 -11.5 -7t-16.5 -2h-95q-14 0 -22 6t-12 13l-97 125q-5 8 -7.5 11t6.5 3h99q10 0 15.5 -3t8.5 -11l41 -54q10 -15 16 -9.5t17 18.5l50 54v0z" />
    <glyph glyph-name="uni0162" unicode="&#x162;" horiz-adv-x="704" 
d="M93 725q2 10 6 13.5t17 3.5h608q13 0 15.5 -4t0.5 -13l-18 -131q-1 -8 -5.5 -10.5t-14.5 -2.5h-177q-10 0 -13 -3.5t-5 -12.5l-77 -546q-1 -11 -6 -15t-13 -4h-188q-13 0 -17 6t-2 20l77 543q1 12 -10 12h-179q-20 0 -17 16zM432 -148q-5 -37 -45.5 -57t-90.5 -20
q-36 0 -68.5 7.5t-55.5 23.5q-7 1 -10.5 5.5t-1.5 9.5l23 41q2 5 4 0.5t3 -7.5q18 -6 37.5 -11t36.5 -5q24 0 41 11t19 27q2 14 -14 21t-65 7q-10 0 -16 4.5t-2 12.5l51 83h83l-25 -54q-3 -4 -5 -4t0 0q41 0 64 -15t31.5 -36.5t5.5 -43.5v0z" />
    <glyph glyph-name="uni0163" unicode="&#x163;" horiz-adv-x="462" 
d="M242 0q-69 0 -112.5 32.5t-43.5 87.5v9.5t1 9.5l35 242q1 8 -5 11t-15 3h-50q-16 0 -12 28l13 94q2 10 6 11.5t14 1.5h59q6 0 11.5 5.5t6.5 12.5l38 148q4 14 22 14h147q8 0 11.5 -5.5t1.5 -22.5l-21 -138q-1 -5 3 -9t9 -4h88q10 0 17 -3.5t5 -13.5l-14 -103
q-1 -10 -6 -13t-18 -3h-93q-16 0 -19 -19l-27 -192q-1 -3 -1 -6v-6q0 -19 14 -27t46 -8h43q8 0 14 -9t4 -17l-12 -80q-3 -25 -25 -26q-21 -2 -44.5 -3t-46.5 -1.5t-44 -0.5v0zM347 -148q-5 -37 -45.5 -57t-90.5 -20q-36 0 -68.5 7.5t-55.5 23.5q-7 1 -10.5 5.5t-1.5 9.5
l23 41q2 5 4 0.5t3 -7.5q18 -6 37.5 -11t36.5 -5q24 0 41 11t19 27q2 14 -14 21t-65 7q-10 0 -16 4.5t-2 12.5l51 83h83l-25 -54q-3 -4 -5 -4t0 0q41 0 64 -15t31.5 -36.5t5.5 -43.5v0z" />
    <glyph glyph-name="Tcaron" unicode="&#x164;" horiz-adv-x="704" 
d="M93 725q2 10 6 13.5t17 3.5h608q13 0 15.5 -4t0.5 -13l-18 -131q-1 -8 -5.5 -10.5t-14.5 -2.5h-177q-10 0 -13 -3.5t-5 -12.5l-77 -546q-1 -11 -6 -15t-13 -4h-188q-13 0 -17 6t-2 20l77 543q1 12 -10 12h-179q-20 0 -17 16zM502 950q7 7 12 6t14 -1h105q11 0 13.5 -6.5
t-6.5 -15.5l-130 -127q-6 -5 -11.5 -7t-16.5 -2h-95q-14 0 -22 6t-12 13l-97 125q-5 8 -7.5 11t6.5 3h99q10 0 15.5 -3t8.5 -11l41 -54q10 -15 16 -9.5t17 18.5l50 54v0z" />
    <glyph glyph-name="tcaron" unicode="&#x165;" horiz-adv-x="565" 
d="M242 0q-69 0 -112.5 32.5t-43.5 87.5v9.5t1 9.5l35 242q1 8 -5 11t-15 3h-50q-16 0 -12 28l13 94q2 10 6 11.5t14 1.5h59q6 0 11.5 5.5t6.5 12.5l38 148q4 14 22 14h147q8 0 11.5 -5.5t1.5 -22.5l-21 -138q-1 -5 3 -9t9 -4h88q10 0 17 -3.5t5 -13.5l-14 -103
q-1 -10 -6 -13t-18 -3h-93q-16 0 -19 -19l-27 -192q-1 -3 -1 -6v-6q0 -19 14 -27t46 -8h43q8 0 14 -9t4 -17l-12 -80q-3 -25 -25 -26q-21 -2 -44.5 -3t-46.5 -1.5t-44 -0.5v0zM467 568q-7 0 -11 8t-2 13l43 77l6.5 13t-6.5 4l-11 1q-10 1 -15 7.5t-4 15.5l14 98q1 8 3 9t8 1
h97q6 0 10.5 -6.5t3.5 -12.5l-16 -118q-1 -3 -2 -5.5t-2 -4.5l-50 -89q-4 -9 -9.5 -10t-19.5 -1h-37v0z" />
    <glyph glyph-name="Tbar" unicode="&#x166;" horiz-adv-x="704" 
d="M576 303q-2 -15 -8.5 -18.5t-23.5 -3.5h-379q-15 0 -20.5 9t-4.5 22l13 93q2 11 5 14t12 3h401q8 0 14 -8.5t4 -17.5zM93 725q2 10 6 13.5t17 3.5h608q13 0 15.5 -4t0.5 -13l-18 -131q-1 -8 -5.5 -10.5t-14.5 -2.5h-177q-10 0 -13 -3.5t-5 -12.5l-77 -546q-1 -11 -6 -15
t-13 -4h-188q-13 0 -17 6t-2 20l77 543q1 12 -10 12h-179q-20 0 -17 16z" />
    <glyph glyph-name="tbar" unicode="&#x167;" horiz-adv-x="462" 
d="M409 249q-1 -13 -7 -15.5t-21 -2.5h-320q-13 0 -18 8.5t-4 19.5l9 65q2 10 4.5 12t9.5 2h339q8 0 13.5 -8t3.5 -16zM242 0q-69 0 -112.5 32.5t-43.5 87.5v9.5t1 9.5l35 242q1 8 -5 11t-15 3h-50q-16 0 -12 28l13 94q2 10 6 11.5t14 1.5h59q6 0 11.5 5.5t6.5 12.5l38 148
q4 14 22 14h147q8 0 11.5 -5.5t1.5 -22.5l-21 -138q-1 -5 3 -9t9 -4h88q10 0 17 -3.5t5 -13.5l-14 -103q-1 -10 -6 -13t-18 -3h-93q-16 0 -19 -19l-27 -192q-1 -3 -1 -6v-6q0 -19 14 -27t46 -8h43q8 0 14 -9t4 -17l-12 -80q-3 -25 -25 -26q-21 -2 -44.5 -3t-46.5 -1.5
t-44 -0.5v0z" />
    <glyph glyph-name="Utilde" unicode="&#x168;" horiz-adv-x="728" 
d="M687 287q-16 -115 -64 -180t-122 -91t-168 -26q-156 0 -222 63.5t-66 180.5q0 20 2 41.5t5 43.5l57 406q2 11 5.5 14t11.5 3h190q9 0 14.5 -8.5t3.5 -18.5l-60 -432q-1 -12 -2.5 -22.5t-1.5 -20.5q0 -51 23.5 -71t63.5 -20q33 0 63 14t52 47t30 88l60 427q2 11 5 14t12 3
h150q9 0 14.5 -8.5t3.5 -18.5l-60 -428v0zM652 840q-19 -7 -46 -14.5t-55 -7.5q-31 0 -57 8t-49.5 15.5t-50.5 7.5q-24 0 -38.5 -9t-39.5 -23q-10 -5 -16 1.5t-8 18.5l-10 54q-1 8 -4 17t11 18q21 13 44 22.5t55 9.5q34 0 62.5 -8.5t53 -17t45.5 -8.5q18 0 32.5 7.5
t27.5 16.5t24 11t18 -4.5t8 -17.5l5 -64q1 -9 1.5 -18.5t-13.5 -14.5v0z" />
    <glyph glyph-name="utilde" unicode="&#x169;" horiz-adv-x="601" 
d="M154 -10q-60 0 -97 37.5t-37 102.5q0 8 0.5 17t1.5 16l48 343q2 15 8 19.5t22 4.5h146q13 0 19 -9t4 -23l-46 -322q-1 -4 -1 -7.5v-5.5q0 -18 10 -25.5t26 -7.5q26 0 48.5 14t38.5 31l49 332q2 15 8.5 19t23.5 4h143q14 0 21 -9t5 -23l-72 -482q-1 -10 -4.5 -13t-12.5 -3
h-158q-8 0 -13.5 3t-4.5 13l7 44q1 6 -3.5 6t-12.5 -7q-37 -36 -78.5 -52.5t-88.5 -16.5v0zM540 628q-19 -7 -46 -14.5t-55 -7.5q-31 0 -57 8t-49.5 15.5t-50.5 7.5q-24 0 -38.5 -9t-39.5 -23q-10 -5 -16 1.5t-8 18.5l-10 54q-1 8 -4 17t11 18q21 13 44 22.5t55 9.5
q34 0 62.5 -8.5t53 -17t45.5 -8.5q18 0 32.5 7.5t27.5 16.5t24 11t18 -4.5t8 -17.5l5 -64q1 -9 1.5 -18.5t-13.5 -14.5v0z" />
    <glyph glyph-name="Umacron" unicode="&#x16a;" horiz-adv-x="728" 
d="M687 287q-16 -115 -64 -180t-122 -91t-168 -26q-156 0 -222 63.5t-66 180.5q0 20 2 41.5t5 43.5l57 406q2 11 5.5 14t11.5 3h190q9 0 14.5 -8.5t3.5 -18.5l-60 -432q-1 -12 -2.5 -22.5t-1.5 -20.5q0 -51 23.5 -71t63.5 -20q33 0 63 14t52 47t30 88l60 427q2 11 5 14t12 3
h150q9 0 14.5 -8.5t3.5 -18.5l-60 -428v0zM668 849q-1 -13 -6.5 -15.5t-20.5 -2.5h-360q-13 0 -18 8.5t-4 19.5l11 81q2 10 4.5 12t9.5 2h379q8 0 13 -8t4 -16z" />
    <glyph glyph-name="umacron" unicode="&#x16b;" horiz-adv-x="601" 
d="M154 -10q-60 0 -97 37.5t-37 102.5q0 8 0.5 17t1.5 16l48 343q2 15 8 19.5t22 4.5h146q13 0 19 -9t4 -23l-46 -322q-1 -4 -1 -7.5v-5.5q0 -18 10 -25.5t26 -7.5q26 0 48.5 14t38.5 31l49 332q2 15 8.5 19t23.5 4h143q14 0 21 -9t5 -23l-72 -482q-1 -10 -4.5 -13t-12.5 -3
h-158q-8 0 -13.5 3t-4.5 13l7 44q1 6 -3.5 6t-12.5 -7q-37 -36 -78.5 -52.5t-88.5 -16.5v0zM556 637q-1 -13 -6.5 -15.5t-20.5 -2.5h-360q-13 0 -18 8.5t-4 19.5l11 81q2 10 4.5 12t9.5 2h379q8 0 13 -8t4 -16z" />
    <glyph glyph-name="Ubreve" unicode="&#x16c;" horiz-adv-x="728" 
d="M687 287q-16 -115 -64 -180t-122 -91t-168 -26q-156 0 -222 63.5t-66 180.5q0 20 2 41.5t5 43.5l57 406q2 11 5.5 14t11.5 3h190q9 0 14.5 -8.5t3.5 -18.5l-60 -432q-1 -12 -2.5 -22.5t-1.5 -20.5q0 -51 23.5 -71t63.5 -20q33 0 63 14t52 47t30 88l60 427q2 11 5 14t12 3
h150q9 0 14.5 -8.5t3.5 -18.5l-60 -428v0zM651 954q11 0 14 -10t-2 -21q-21 -41 -54 -67.5t-73 -38.5t-82 -12q-45 0 -84 10.5t-65 37.5t-35 76q-1 10 1 17.5t15 7.5h71q9 0 12.5 -7t10.5 -17q9 -11 21.5 -19.5t27 -12.5t28.5 -4q26 0 53 11t44 36q5 8 12 10.5t13 2.5h72v0z
" />
    <glyph glyph-name="ubreve" unicode="&#x16d;" horiz-adv-x="601" 
d="M154 -10q-60 0 -97 37.5t-37 102.5q0 8 0.5 17t1.5 16l48 343q2 15 8 19.5t22 4.5h146q13 0 19 -9t4 -23l-46 -322q-1 -4 -1 -7.5v-5.5q0 -18 10 -25.5t26 -7.5q26 0 48.5 14t38.5 31l49 332q2 15 8.5 19t23.5 4h143q14 0 21 -9t5 -23l-72 -482q-1 -10 -4.5 -13t-12.5 -3
h-158q-8 0 -13.5 3t-4.5 13l7 44q1 6 -3.5 6t-12.5 -7q-37 -36 -78.5 -52.5t-88.5 -16.5v0zM539 742q11 0 14 -10t-2 -21q-21 -41 -54 -67.5t-73 -38.5t-82 -12q-45 0 -84 10.5t-65 37.5t-35 76q-1 10 1 17.5t15 7.5h71q9 0 12.5 -7t10.5 -17q9 -11 21.5 -19.5t27 -12.5
t28.5 -4q26 0 53 11t44 36q5 8 12 10.5t13 2.5h72v0z" />
    <glyph glyph-name="Uring" unicode="&#x16e;" horiz-adv-x="728" 
d="M687 287q-16 -115 -64 -180t-122 -91t-168 -26q-156 0 -222 63.5t-66 180.5q0 20 2 41.5t5 43.5l57 406q2 11 5.5 14t11.5 3h190q9 0 14.5 -8.5t3.5 -18.5l-60 -432q-1 -12 -2.5 -22.5t-1.5 -20.5q0 -51 23.5 -71t63.5 -20q33 0 63 14t52 47t30 88l60 427q2 11 5 14t12 3
h150q9 0 14.5 -8.5t3.5 -18.5l-60 -428v0zM565 825q-7 -46 -42.5 -76t-81.5 -30q-34 0 -60 17.5t-39 47t-8 65.5q6 44 42 73t81 29q35 0 61 -17t39 -45.5t8 -63.5v0zM498 846q2 17 -8 26.5t-27 9.5q-22 0 -42 -17t-24 -41q-1 -16 9.5 -27t26.5 -11q23 0 42 18.5t23 41.5v0z
" />
    <glyph glyph-name="uring" unicode="&#x16f;" horiz-adv-x="601" 
d="M154 -10q-60 0 -97 37.5t-37 102.5q0 8 0.5 17t1.5 16l48 343q2 15 8 19.5t22 4.5h146q13 0 19 -9t4 -23l-46 -322q-1 -4 -1 -7.5v-5.5q0 -18 10 -25.5t26 -7.5q26 0 48.5 14t38.5 31l49 332q2 15 8.5 19t23.5 4h143q14 0 21 -9t5 -23l-72 -482q-1 -10 -4.5 -13t-12.5 -3
h-158q-8 0 -13.5 3t-4.5 13l7 44q1 6 -3.5 6t-12.5 -7q-37 -36 -78.5 -52.5t-88.5 -16.5v0zM474 679q-7 -46 -42.5 -76t-81.5 -30q-34 0 -60 17.5t-39 47t-8 65.5q6 44 42 73t81 29q35 0 61 -17t39 -45.5t8 -63.5v0zM407 700q2 17 -8 26.5t-27 9.5q-22 0 -42 -17t-24 -41
q-1 -16 9.5 -27t26.5 -11q23 0 42 18.5t23 41.5v0z" />
    <glyph glyph-name="Uhungarumlaut" unicode="&#x170;" horiz-adv-x="728" 
d="M687 287q-16 -115 -64 -180t-122 -91t-168 -26q-156 0 -222 63.5t-66 180.5q0 20 2 41.5t5 43.5l57 406q2 11 5.5 14t11.5 3h190q9 0 14.5 -8.5t3.5 -18.5l-60 -432q-1 -12 -2.5 -22.5t-1.5 -20.5q0 -51 23.5 -71t63.5 -20q33 0 63 14t52 47t30 88l60 427q2 11 5 14t12 3
h150q9 0 14.5 -8.5t3.5 -18.5l-60 -428v0zM462 891q6 -10 8.5 -19t-11.5 -17l-155 -80q-13 -7 -19 -5.5t-12 8.5l-28 35q-6 7 -9 16t2 13l155 117q7 5 14.5 2.5t11.5 -9.5zM681 891q6 -10 8.5 -19t-11.5 -17l-155 -80q-13 -7 -19 -5.5t-12 8.5l-28 35q-6 7 -9 16t2 13
l155 117q7 5 14.5 2.5t11.5 -9.5z" />
    <glyph glyph-name="uhungarumlaut" unicode="&#x171;" horiz-adv-x="601" 
d="M154 -10q-60 0 -97 37.5t-37 102.5q0 8 0.5 17t1.5 16l48 343q2 15 8 19.5t22 4.5h146q13 0 19 -9t4 -23l-46 -322q-1 -4 -1 -7.5v-5.5q0 -18 10 -25.5t26 -7.5q26 0 48.5 14t38.5 31l49 332q2 15 8.5 19t23.5 4h143q14 0 21 -9t5 -23l-72 -482q-1 -10 -4.5 -13t-12.5 -3
h-158q-8 0 -13.5 3t-4.5 13l7 44q1 6 -3.5 6t-12.5 -7q-37 -36 -78.5 -52.5t-88.5 -16.5v0zM350 679q6 -10 8.5 -19t-11.5 -17l-155 -80q-13 -7 -19 -5.5t-12 8.5l-28 35q-6 7 -9 16t2 13l155 117q7 5 14.5 2.5t11.5 -9.5zM569 679q6 -10 8.5 -19t-11.5 -17l-155 -80
q-13 -7 -19 -5.5t-12 8.5l-28 35q-6 7 -9 16t2 13l155 117q7 5 14.5 2.5t11.5 -9.5z" />
    <glyph glyph-name="Uogonek" unicode="&#x172;" horiz-adv-x="728" 
d="M687 287q-16 -115 -64 -180t-122 -91t-168 -26q-156 0 -222 63.5t-66 180.5q0 20 2 41.5t5 43.5l57 406q2 11 5.5 14t11.5 3h190q9 0 14.5 -8.5t3.5 -18.5l-60 -432q-1 -12 -2.5 -22.5t-1.5 -20.5q0 -51 23.5 -71t63.5 -20q33 0 63 14t52 47t30 88l60 427q2 11 5 14t12 3
h150q9 0 14.5 -8.5t3.5 -18.5l-60 -428v0zM220 -76q2 15 10.5 28.5t29.5 27.5t62 28l143 -4q-58 -18 -81 -36t-25 -38q-1 -11 4 -17t16 -6q20 0 34.5 6.5t28.5 12.5q9 4 13.5 -0.5t2.5 -14.5l-7 -52q-1 -6 -4 -12t-9 -8q-16 -4 -43 -8.5t-60 -4.5q-57 0 -89.5 24.5
t-25.5 73.5v0z" />
    <glyph glyph-name="uogonek" unicode="&#x173;" horiz-adv-x="601" 
d="M154 -10q-60 0 -97 37.5t-37 102.5q0 8 0.5 17t1.5 16l48 343q2 15 8 19.5t22 4.5h146q13 0 19 -9t4 -23l-46 -322q-1 -4 -1 -7.5v-5.5q0 -18 10 -25.5t26 -7.5q26 0 48.5 14t38.5 31l49 332q2 15 8.5 19t23.5 4h143q14 0 21 -9t5 -23l-72 -482q-1 -10 -4.5 -13t-12.5 -3
h-158q-8 0 -13.5 3t-4.5 13l7 44q1 6 -3.5 6t-12.5 -7q-37 -36 -78.5 -52.5t-88.5 -16.5v0zM275 -76q2 15 10.5 28.5t29.5 27.5t62 28l143 -4q-58 -18 -81 -36t-25 -38q-1 -11 4 -17t16 -6q20 0 34.5 6.5t28.5 12.5q9 4 13.5 -0.5t2.5 -14.5l-7 -52q-1 -6 -4 -12t-9 -8
q-16 -4 -43 -8.5t-60 -4.5q-57 0 -89.5 24.5t-25.5 73.5v0z" />
    <glyph glyph-name="Wcircumflex" unicode="&#x174;" horiz-adv-x="1109" 
d="M1133 742q20 0 21.5 -9.5t-9.5 -35.5l-299 -677q-7 -13 -14 -16.5t-22 -3.5h-138q-15 0 -23 4t-10 17l-57 359q-1 9 -4.5 8.5t-7.5 -8.5l-157 -360q-6 -13 -13 -16.5t-23 -3.5h-145q-28 0 -32 24l-110 683q-3 17 3 26t25 9h167q16 0 22.5 -7.5t7.5 -18.5l54 -367
q2 -10 5 -10.5t7 9.5l160 378q4 10 10 13t22 3h144q16 0 20 -7t5 -19l57 -375q1 -6 5 -6t7 8l157 383q4 10 9.5 13t21.5 3h134v0zM659 875q-7 11 -12 11.5t-16 -10.5l-58 -58q-7 -7 -12.5 -9t-15.5 -2h-103q-9 0 -9.5 6.5t5.5 11.5l131 128q8 8 16 9.5t22 1.5h95q11 0 16 -6
t9 -11l94 -126q7 -10 4 -12t-14 -2h-96q-9 0 -13.5 3.5t-8.5 10.5z" />
    <glyph glyph-name="wcircumflex" unicode="&#x175;" horiz-adv-x="832" 
d="M831 530q12 0 17.5 -11.5t0.5 -22.5l-238 -483q-4 -10 -7.5 -11.5t-14.5 -1.5h-104q-25 0 -27 27l-36 210q-2 11 -7 6t-9 -16l-101 -214q-4 -10 -8 -11.5t-15 -1.5h-107q-24 0 -26 27l-97 479q-5 24 17 24h155q9 0 16.5 -8.5t8.5 -16.5l40 -214q1 -9 6 -4t9 15l96 213
q7 15 25 15h109q8 0 15.5 -8.5t8.5 -16.5l34 -214q1 -9 6 -4t9 15l98 213q10 15 26 15h100v0zM488 663q-7 11 -12 11.5t-16 -10.5l-58 -58q-7 -7 -12.5 -9t-15.5 -2h-103q-9 0 -9.5 6.5t5.5 11.5l131 128q8 8 16 9.5t22 1.5h95q11 0 16 -6t9 -11l94 -126q7 -10 4 -12t-14 -2
h-96q-9 0 -13.5 3.5t-8.5 10.5z" />
    <glyph glyph-name="Ycircumflex" unicode="&#x176;" horiz-adv-x="774" 
d="M803 742q13 0 15.5 -8t-2.5 -16l-291 -382q-8 -10 -12.5 -22.5t-8.5 -44.5l-35 -246q-2 -16 -8.5 -19.5t-23.5 -3.5h-176q-13 0 -16.5 5.5t-2.5 18.5l38 270q2 16 1 24t-6 19l-181 382q-6 12 -3.5 17.5t18.5 5.5h201q14 0 20 -7t11 -19l93 -222q4 -10 11 0l160 232
q8 11 13.5 13.5t19.5 2.5h165v0zM506 875q-7 11 -12 11.5t-16 -10.5l-58 -58q-7 -7 -12.5 -9t-15.5 -2h-103q-9 0 -9.5 6.5t5.5 11.5l131 128q8 8 16 9.5t22 1.5h95q11 0 16 -6t9 -11l94 -126q7 -10 4 -12t-14 -2h-96q-9 0 -13.5 3.5t-8.5 10.5z" />
    <glyph glyph-name="ycircumflex" unicode="&#x177;" horiz-adv-x="589" 
d="M34 -165q-28 0 -38 5.5t-8 19.5l14 102q1 6 10.5 11t25.5 5h71q17 0 30.5 4t22 11t12 15.5t0.5 17.5l-129 470q-9 34 17 34h183q18 0 21 -15l52 -240q3 -13 9 -12t13 14l114 228q7 14 14.5 19.5t16.5 5.5h112q22 0 8 -24l-262 -470q-35 -62 -66.5 -101.5t-66 -61t-77 -30
t-99.5 -8.5v0zM399 663q-7 11 -12 11.5t-16 -10.5l-58 -58q-7 -7 -12.5 -9t-15.5 -2h-103q-9 0 -9.5 6.5t5.5 11.5l131 128q8 8 16 9.5t22 1.5h95q11 0 16 -6t9 -11l94 -126q7 -10 4 -12t-14 -2h-96q-9 0 -13.5 3.5t-8.5 10.5z" />
    <glyph glyph-name="Ydieresis" unicode="&#x178;" horiz-adv-x="774" 
d="M803 742q13 0 15.5 -8t-2.5 -16l-291 -382q-8 -10 -12.5 -22.5t-8.5 -44.5l-35 -246q-2 -16 -8.5 -19.5t-23.5 -3.5h-176q-13 0 -16.5 5.5t-2.5 18.5l38 270q2 16 1 24t-6 19l-181 382q-6 12 -3.5 17.5t18.5 5.5h201q14 0 20 -7t11 -19l93 -222q4 -10 11 0l160 232
q8 11 13.5 13.5t19.5 2.5h165v0zM447 829q-1 -13 -6.5 -15.5t-20.5 -2.5h-120q-13 0 -18 8.5t-4 19.5l14 101q2 10 4.5 12t9.5 2h139q8 0 13 -8t4 -16zM687 829q-1 -13 -6.5 -15.5t-20.5 -2.5h-120q-13 0 -18 8.5t-4 19.5l14 101q2 10 4.5 12t9.5 2h139q8 0 13 -8t4 -16z
" />
    <glyph glyph-name="Zacute" unicode="&#x179;" horiz-adv-x="714" 
d="M19 0q-15 0 -21 5.5t-5 20.5l6 50q2 14 6.5 24t17.5 26l372 440q7 8 8.5 9.5t-9.5 1.5h-265q-25 0 -22 30l17 120q2 10 5 12.5t11 2.5h593q17 0 14 -22l-8 -55q-1 -11 -4.5 -18.5t-13.5 -21.5l-386 -450q-9 -9 2 -9h309q11 0 14 -3t1 -14l-19 -133q-1 -9 -5 -12.5
t-17 -3.5h-601v0zM603 865q2 -11 -0.5 -17.5t-17.5 -10.5l-241 -56q-13 -3 -20 3t-9 16l-9 43q-4 17 5 21l252 98q7 3 12.5 0.5t8.5 -16.5z" />
    <glyph glyph-name="zacute" unicode="&#x17a;" horiz-adv-x="544" 
d="M6 0q-15 0 -19 4.5t-2 19.5l6 40q2 16 8 25t22 28l253 270q6 8 3.5 14.5t-18.5 6.5h-180q-12 0 -14.5 6t-1.5 19l12 79q2 9 9.5 13.5t15.5 4.5h440q17 0 14 -18l-7 -47q-1 -11 -7.5 -20t-17.5 -22l-258 -275q-7 -9 -2.5 -16.5t14.5 -7.5h205q20 0 17 -20l-11 -83
q-1 -9 -6 -15t-18 -6h-457v0zM480 653q2 -11 -0.5 -17.5t-17.5 -10.5l-241 -56q-13 -3 -20 3t-9 16l-9 43q-4 17 5 21l252 98q7 3 12.5 0.5t8.5 -16.5z" />
    <glyph glyph-name="Zdotaccent" unicode="&#x17b;" horiz-adv-x="714" 
d="M19 0q-15 0 -21 5.5t-5 20.5l6 50q2 14 6.5 24t17.5 26l372 440q7 8 8.5 9.5t-9.5 1.5h-265q-25 0 -22 30l17 120q2 10 5 12.5t11 2.5h593q17 0 14 -22l-8 -55q-1 -11 -4.5 -18.5t-13.5 -21.5l-386 -450q-9 -9 2 -9h309q11 0 14 -3t1 -14l-19 -133q-1 -9 -5 -12.5
t-17 -3.5h-601v0zM548 809q-2 -15 -9 -19t-24 -4h-141q-15 0 -20.5 9.5t-4.5 22.5l17 119q2 11 5 14t12 3h163q8 0 14 -8.5t4 -18.5z" />
    <glyph glyph-name="zdotaccent" unicode="&#x17c;" horiz-adv-x="544" 
d="M6 0q-15 0 -19 4.5t-2 19.5l6 40q2 16 8 25t22 28l253 270q6 8 3.5 14.5t-18.5 6.5h-180q-12 0 -14.5 6t-1.5 19l12 79q2 9 9.5 13.5t15.5 4.5h440q17 0 14 -18l-7 -47q-1 -11 -7.5 -20t-17.5 -22l-258 -275q-7 -9 -2.5 -16.5t14.5 -7.5h205q20 0 17 -20l-11 -83
q-1 -9 -6 -15t-18 -6h-457v0zM425 597q-2 -15 -9 -19t-24 -4h-141q-15 0 -20.5 9.5t-4.5 22.5l17 119q2 11 5 14t12 3h163q8 0 14 -8.5t4 -18.5z" />
    <glyph glyph-name="Zcaron" unicode="&#x17d;" horiz-adv-x="714" 
d="M19 0q-15 0 -21 5.5t-5 20.5l6 50q2 14 6.5 24t17.5 26l372 440q7 8 8.5 9.5t-9.5 1.5h-265q-25 0 -22 30l17 120q2 10 5 12.5t11 2.5h593q17 0 14 -22l-8 -55q-1 -11 -4.5 -18.5t-13.5 -21.5l-386 -450q-9 -9 2 -9h309q11 0 14 -3t1 -14l-19 -133q-1 -9 -5 -12.5
t-17 -3.5h-601v0zM521 950q7 7 12 6t14 -1h105q11 0 13.5 -6.5t-6.5 -15.5l-130 -127q-6 -5 -11.5 -7t-16.5 -2h-95q-14 0 -22 6t-12 13l-97 125q-5 8 -7.5 11t6.5 3h99q10 0 15.5 -3t8.5 -11l41 -54q10 -15 16 -9.5t17 18.5l50 54v0z" />
    <glyph glyph-name="zcaron" unicode="&#x17e;" horiz-adv-x="544" 
d="M6 0q-15 0 -19 4.5t-2 19.5l6 40q2 16 8 25t22 28l253 270q6 8 3.5 14.5t-18.5 6.5h-180q-12 0 -14.5 6t-1.5 19l12 79q2 9 9.5 13.5t15.5 4.5h440q17 0 14 -18l-7 -47q-1 -11 -7.5 -20t-17.5 -22l-258 -275q-7 -9 -2.5 -16.5t14.5 -7.5h205q20 0 17 -20l-11 -83
q-1 -9 -6 -15t-18 -6h-457v0zM398 738q7 7 12 6t14 -1h105q11 0 13.5 -6.5t-6.5 -15.5l-130 -127q-6 -5 -11.5 -7t-16.5 -2h-95q-14 0 -22 6t-12 13l-97 125q-5 8 -7.5 11t6.5 3h99q10 0 15.5 -3t8.5 -11l41 -54q10 -15 16 -9.5t17 18.5l50 54v0z" />
    <glyph glyph-name="uni018F" unicode="&#x18f;" horiz-adv-x="778" 
d="M534 458q2 16 2 33t-4 32.5t-14.5 28t-29 19.5t-46.5 7q-20 0 -37.5 -4.5t-33.5 -14t-32 -24t-31.5 -33.5t-32.5 -43q-4 -1 -9 2t-16 10l-130 67q-18 10 -5 39q24 35 51.5 63t59 49t66.5 35t74 21t82 7q68 0 122.5 -18t94.5 -52t65 -81.5t33 -106t-1 -125.5
q-12 -81 -50 -150.5t-94.5 -120.5t-124.5 -79.5t-139 -28.5q-89 0 -152.5 27.5t-102 81t-50.5 130t1 174.5q2 13 4 17.5t18 4.5h433q10 0 18.5 8.5t10.5 24.5v0zM303 285q-26 0 -30 -29q-3 -23 0.5 -43t14.5 -35t28.5 -23.5t41.5 -8.5q32 0 56 9.5t41.5 28t30.5 45.5t22 61z
" />
    <glyph glyph-name="florin" unicode="&#x192;" horiz-adv-x="558" 
d="M529 530q13 0 18.5 -9.5t3.5 -18.5l-30 -94q-3 -10 -8.5 -11.5t-15.5 -1.5h-62q-5 0 -11.5 -6t-7.5 -12l-131 -414q-21 -65 -73.5 -100t-125.5 -35h-118q-14 0 -21 10t-4 22l25 83q4 15 21 15h43q26 0 41 15t27 53l116 365q2 5 3 4.5t-4 -0.5h-56q-10 0 -16 7.5t-4 17.5
l30 94q3 9 8.5 12.5t18.5 3.5h48q8 0 15 7t9 17l16 52q21 65 73.5 100.5t125.5 35.5h113q14 0 21 -10t5 -22l-26 -83q-5 -15 -21 -15h-43q-17 0 -37.5 -17.5t-27.5 -38.5l-6 -18q-2 -7 -1.5 -7.5t6.5 -0.5h63v0z" />
    <glyph glyph-name="Ohorn" unicode="&#x1a0;" horiz-adv-x="780" 
d="M360 -10q-100 0 -171 38.5t-109 109.5t-38 168q0 17 1 36t4 38q16 114 71.5 197.5t141 129t191.5 45.5q98 0 169 -39.5t109 -111.5t38 -170q0 -17 -1 -35.5t-4 -37.5q-16 -112 -70.5 -195t-139.5 -128t-192 -45v0zM366 146q68 0 106 53.5t55 177.5q4 29 6 53.5t2 45.5
q0 65 -21 93.5t-68 28.5q-68 0 -107 -57.5t-57 -185.5q-4 -28 -6 -51.5t-2 -43.5q0 -62 22 -88t70 -26v0zM736 799q11 0 14 -10t-2 -21q-21 -41 -54 -67.5t-73 -38.5t-82 -12l3 89q26 0 53.5 10.5t43.5 36.5q5 8 12 10.5t13 2.5h72v0z" />
    <glyph glyph-name="ohorn" unicode="&#x1a1;" 
d="M268 -10q-76 0 -132 30t-86.5 84t-30.5 124t25 127.5t68.5 98.5t100 63.5t118.5 22.5q77 0 133 -31t86 -85.5t30 -125.5q0 -88 -41 -158t-111.5 -110t-159.5 -40v0zM271 118q31 0 56.5 24t41 73t15.5 124q0 41 -13 59t-42 18q-30 0 -55.5 -24t-41 -73.5t-15.5 -125.5
q0 -40 13 -57.5t41 -17.5v0zM579 584q11 0 14 -10t-2 -21q-21 -41 -54 -67.5t-73 -38.5t-82 -12l3 89q26 0 53.5 10.5t43.5 36.5q5 8 12 10.5t13 2.5h72v0z" />
    <glyph glyph-name="Uhorn" unicode="&#x1af;" horiz-adv-x="728" 
d="M687 287q-16 -115 -64 -180t-122 -91t-168 -26q-156 0 -222 63.5t-66 180.5q0 20 2 41.5t5 43.5l57 406q2 11 5.5 14t11.5 3h190q9 0 14.5 -8.5t3.5 -18.5l-60 -432q-1 -12 -2.5 -22.5t-1.5 -20.5q0 -51 23.5 -71t63.5 -20q33 0 63 14t52 47t30 88l60 427q2 11 5 14t12 3
h150q9 0 14.5 -8.5t3.5 -18.5l-60 -428v0zM868 798q11 0 14 -10t-2 -21q-21 -41 -54 -67.5t-73 -38.5t-82 -12l3 89q26 0 53.5 10.5t43.5 36.5q5 8 12 10.5t13 2.5h72v0z" />
    <glyph glyph-name="uhorn" unicode="&#x1b0;" horiz-adv-x="601" 
d="M154 -10q-60 0 -97 37.5t-37 102.5q0 8 0.5 17t1.5 16l48 343q2 15 8 19.5t22 4.5h146q13 0 19 -9t4 -23l-46 -322q-1 -4 -1 -7.5v-5.5q0 -18 10 -25.5t26 -7.5q26 0 48.5 14t38.5 31l49 332q2 15 8.5 19t23.5 4h143q14 0 21 -9t5 -23l-72 -482q-1 -10 -4.5 -13t-12.5 -3
h-158q-8 0 -13.5 3t-4.5 13l7 44q1 6 -3.5 6t-12.5 -7q-37 -36 -78.5 -52.5t-88.5 -16.5v0zM688 589q11 0 14 -10t-2 -21q-21 -41 -54 -67.5t-73 -38.5t-82 -12l3 89q26 0 53.5 10.5t43.5 36.5q5 8 12 10.5t13 2.5h72v0z" />
    <glyph glyph-name="DZcaron" unicode="&#x1c4;" horiz-adv-x="1465" 
d="M48 0q-15 0 -22.5 10t-5.5 26l96 687q2 12 6.5 15.5t18.5 3.5h250q121 0 202.5 -40.5t123.5 -111.5t42 -161q0 -128 -56 -225t-156.5 -150.5t-235.5 -53.5h-263v0zM338 157q64 0 105 39t60.5 103.5t19.5 142.5q0 47 -15 79t-42 48t-65 16h-59q-18 0 -21 -20l-53 -389
q-1 -9 2 -14t11 -5h57zM770 0q-15 0 -21 5.5t-5 20.5l6 50q2 14 6.5 24t17.5 26l372 440q7 8 8.5 9.5t-9.5 1.5h-265q-25 0 -22 30l17 120q2 10 5 12.5t11 2.5h593q17 0 14 -22l-8 -55q-1 -11 -4.5 -18.5t-13.5 -21.5l-386 -450q-9 -9 2 -9h309q11 0 14 -3t1 -14l-19 -133
q-1 -9 -5 -12.5t-17 -3.5h-601v0zM1272 950q7 7 12 6t14 -1h105q11 0 13.5 -6.5t-6.5 -15.5l-130 -127q-6 -5 -11.5 -7t-16.5 -2h-95q-14 0 -22 6t-12 13l-97 125q-5 8 -7.5 11t6.5 3h99q10 0 15.5 -3t8.5 -11l41 -54q10 -15 16 -9.5t17 18.5l50 54v0z" />
    <glyph glyph-name="Dzcaron" unicode="&#x1c5;" horiz-adv-x="1315" 
d="M48 0q-15 0 -22.5 10t-5.5 26l96 687q2 12 6.5 15.5t18.5 3.5h250q121 0 202.5 -40.5t123.5 -111.5t42 -161q0 -128 -56 -225t-156.5 -150.5t-235.5 -53.5h-263v0zM338 157q64 0 105 39t60.5 103.5t19.5 142.5q0 47 -15 79t-42 48t-65 16h-59q-18 0 -21 -20l-53 -389
q-1 -9 2 -14t11 -5h57zM777 0q-15 0 -19 4.5t-2 19.5l6 40q2 16 8 25t22 28l253 270q6 8 3.5 14.5t-18.5 6.5h-180q-12 0 -14.5 6t-1.5 19l12 79q2 9 9.5 13.5t15.5 4.5h440q17 0 14 -18l-7 -47q-1 -11 -7.5 -20t-17.5 -22l-258 -275q-7 -9 -2.5 -16.5t14.5 -7.5h205
q20 0 17 -20l-11 -83q-1 -9 -6 -15t-18 -6h-457v0zM1169 738q7 7 12 6t14 -1h105q11 0 13.5 -6.5t-6.5 -15.5l-130 -127q-6 -5 -11.5 -7t-16.5 -2h-95q-14 0 -22 6t-12 13l-97 125q-5 8 -7.5 11t6.5 3h99q10 0 15.5 -3t8.5 -11l41 -54q10 -15 16 -9.5t17 18.5l50 54v0z" />
    <glyph glyph-name="dzcaron" unicode="&#x1c6;" horiz-adv-x="1160" 
d="M370 0q-10 0 -18 4t-6 17l3 19q2 8 -2.5 9.5t-12.5 -5.5q-21 -17 -43 -29.5t-46 -18.5t-53 -6q-79 0 -126 54t-47 158q0 68 18 128.5t51 108t78 74.5t99 27q37 0 64.5 -14t51.5 -46q7 -9 15.5 -7.5t12.5 29.5l32 222q2 11 8 14.5t15 3.5h162q16 0 12 -29l-98 -691
q-1 -13 -7.5 -17.5t-22.5 -4.5h-140zM394 382q-13 19 -26.5 26.5t-33.5 7.5q-36 0 -58.5 -24t-35 -60.5t-17.5 -74.5t-5 -66q0 -30 6.5 -48t19.5 -25.5t31 -7.5q22 0 41 10t32 26.5t15 35.5zM622 0q-15 0 -19 4.5t-2 19.5l6 40q2 16 8 25t22 28l253 270q6 8 3.5 14.5
t-18.5 6.5h-180q-12 0 -14.5 6t-1.5 19l12 79q2 9 9.5 13.5t15.5 4.5h440q17 0 14 -18l-7 -47q-1 -11 -7.5 -20t-17.5 -22l-258 -275q-7 -9 -2.5 -16.5t14.5 -7.5h205q20 0 17 -20l-11 -83q-1 -9 -6 -15t-18 -6h-457v0zM1014 738q7 7 12 6t14 -1h105q11 0 13.5 -6.5
t-6.5 -15.5l-130 -127q-6 -5 -11.5 -7t-16.5 -2h-95q-14 0 -22 6t-12 13l-97 125q-5 8 -7.5 11t6.5 3h99q10 0 15.5 -3t8.5 -11l41 -54q10 -15 16 -9.5t17 18.5l50 54v0z" />
    <glyph glyph-name="LJ" unicode="&#x1c7;" horiz-adv-x="1110" 
d="M116 722q3 20 18 20h196q17 0 12 -27l-75 -534q-3 -17 11 -17h304q18 0 15 -25l-17 -123q-1 -10 -6 -13t-17 -3h-514q-27 0 -24 31l97 691v0zM1055 206q-11 -82 -44 -129t-87 -67t-130 -20q-34 0 -65.5 3.5t-62.5 11.5q-19 5 -25.5 10t-4.5 16l28 131q2 11 6.5 15.5
t12.5 2.5q15 -2 28 -3.5t26 -1.5q40 0 66.5 24t33.5 75l64 451q2 11 5.5 14t12.5 3h195q17 0 12 -27l-71 -509v0z" />
    <glyph glyph-name="Lj" unicode="&#x1c8;" horiz-adv-x="926" 
d="M116 722q3 20 18 20h196q17 0 12 -27l-75 -534q-3 -17 11 -17h304q18 0 15 -25l-17 -123q-1 -10 -6 -13t-17 -3h-514q-27 0 -24 31l97 691v0zM851 23q-14 -99 -69.5 -146t-159.5 -47q-45 0 -59.5 7.5t-12.5 23.5l14 102q1 8 5 14t14 8l36 7q10 3 20.5 14t14.5 36l66 471
q2 11 5.5 14t12.5 3h162q9 0 14.5 -8.5t4.5 -17.5l-68 -481v0zM931 597q-2 -15 -9 -19t-24 -4h-151q-11 0 -14 9.5t-1 22.5l17 113q3 23 20 23h168q8 0 10 -8.5t0 -18.5z" />
    <glyph glyph-name="lj" unicode="&#x1c9;" horiz-adv-x="567" 
d="M208 23q-2 -16 -8.5 -19.5t-23.5 -3.5h-142q-15 0 -21.5 9t-5.5 22l103 694q2 11 5 14t12 3h167q15 0 12 -22zM492 23q-14 -99 -69.5 -146t-159.5 -47q-45 0 -59.5 7.5t-12.5 23.5l14 102q1 8 5 14t14 8l36 7q10 3 20.5 14t14.5 36l66 471q2 11 5.5 14t12.5 3h162
q9 0 14.5 -8.5t4.5 -17.5l-68 -481v0zM572 597q-2 -15 -9 -19t-24 -4h-151q-11 0 -14 9.5t-1 22.5l17 113q3 23 20 23h168q8 0 10 -8.5t0 -18.5z" />
    <glyph glyph-name="NJ" unicode="&#x1ca;" horiz-adv-x="1228" 
d="M762 742q14 0 12 -16l-101 -714q-1 -12 -20 -12h-137q-7 0 -12.5 5t-11.5 15l-225 373q-3 5 -7 4t-6 -12l-52 -366q-1 -12 -5.5 -15.5t-18.5 -3.5h-144q-11 0 -14 7.5t-2 18.5l99 699q2 11 5.5 14t14.5 3h163q12 0 18.5 -6t12.5 -17l195 -332q5 -9 11.5 -7.5t7.5 12.5
l47 335q2 10 5.5 12.5t14.5 2.5h150zM1173 206q-11 -82 -44 -129t-87 -67t-130 -20q-34 0 -65.5 3.5t-62.5 11.5q-19 5 -25.5 10t-4.5 16l28 131q2 11 6.5 15.5t12.5 2.5q15 -2 28 -3.5t26 -1.5q40 0 66.5 24t33.5 75l64 451q2 11 5.5 14t12.5 3h195q17 0 12 -27l-71 -509v0
z" />
    <glyph glyph-name="Nj" unicode="&#x1cb;" horiz-adv-x="1044" 
d="M762 742q14 0 12 -16l-101 -714q-1 -12 -20 -12h-137q-7 0 -12.5 5t-11.5 15l-225 373q-3 5 -7 4t-6 -12l-52 -366q-1 -12 -5.5 -15.5t-18.5 -3.5h-144q-11 0 -14 7.5t-2 18.5l99 699q2 11 5.5 14t14.5 3h163q12 0 18.5 -6t12.5 -17l195 -332q5 -9 11.5 -7.5t7.5 12.5
l47 335q2 10 5.5 12.5t14.5 2.5h150zM969 23q-14 -99 -69.5 -146t-159.5 -47q-45 0 -59.5 7.5t-12.5 23.5l14 102q1 8 5 14t14 8l36 7q10 3 20.5 14t14.5 36l66 471q2 11 5.5 14t12.5 3h162q9 0 14.5 -8.5t4.5 -17.5l-68 -481v0zM1049 597q-2 -15 -9 -19t-24 -4h-151
q-11 0 -14 9.5t-1 22.5l17 113q3 23 20 23h168q8 0 10 -8.5t0 -18.5z" />
    <glyph glyph-name="nj" unicode="&#x1cc;" horiz-adv-x="887" 
d="M25 0q-13 0 -15.5 9t-1.5 22l68 482q2 11 5 14t12 3h171q6 0 9 -2.5t1 -12.5l-7 -45q-1 -13 12 -1q35 31 77.5 51t85.5 20q65 0 104 -38.5t39 -100.5q0 -7 -0.5 -14t-1.5 -15l-49 -348q-2 -15 -8.5 -19.5t-22.5 -4.5h-153q-13 0 -15 8.5t0 22.5l45 320q1 5 1.5 9t0.5 6
q0 17 -10.5 25t-29.5 8q-17 0 -33 -6.5t-29.5 -19t-25.5 -29.5l-47 -321q-2 -16 -9 -19.5t-25 -3.5h-148v0zM812 23q-14 -99 -69.5 -146t-159.5 -47q-45 0 -59.5 7.5t-12.5 23.5l14 102q1 8 5 14t14 8l36 7q10 3 20.5 14t14.5 36l66 471q2 11 5.5 14t12.5 3h162
q9 0 14.5 -8.5t4.5 -17.5l-68 -481v0zM892 597q-2 -15 -9 -19t-24 -4h-151q-11 0 -14 9.5t-1 22.5l17 113q3 23 20 23h168q8 0 10 -8.5t0 -18.5z" />
    <glyph glyph-name="uni01EA" unicode="&#x1ea;" horiz-adv-x="780" 
d="M360 -10q-100 0 -171 38.5t-109 109.5t-38 168q0 17 1 36t4 38q16 114 71.5 197.5t141 129t191.5 45.5q98 0 169 -39.5t109 -111.5t38 -170q0 -17 -1 -35.5t-4 -37.5q-16 -112 -70.5 -195t-139.5 -128t-192 -45v0zM366 146q68 0 106 53.5t55 177.5q4 29 6 53.5t2 45.5
q0 65 -21 93.5t-68 28.5q-68 0 -107 -57.5t-57 -185.5q-4 -28 -6 -51.5t-2 -43.5q0 -62 22 -88t70 -26v0zM227 -76q2 15 10.5 28.5t29.5 27.5t62 28l143 -4q-58 -18 -81 -36t-25 -38q-1 -11 4 -17t16 -6q20 0 34.5 6.5t28.5 12.5q9 4 13.5 -0.5t2.5 -14.5l-7 -52
q-1 -6 -4 -12t-9 -8q-16 -4 -43 -8.5t-60 -4.5q-57 0 -89.5 24.5t-25.5 73.5v0z" />
    <glyph glyph-name="uni01EB" unicode="&#x1eb;" 
d="M268 -10q-76 0 -132 30t-86.5 84t-30.5 124t25 127.5t68.5 98.5t100 63.5t118.5 22.5q77 0 133 -31t86 -85.5t30 -125.5q0 -88 -41 -158t-111.5 -110t-159.5 -40v0zM271 118q31 0 56.5 24t41 73t15.5 124q0 41 -13 59t-42 18q-30 0 -55.5 -24t-41 -73.5t-15.5 -125.5
q0 -40 13 -57.5t41 -17.5v0zM122 -76q2 15 10.5 28.5t29.5 27.5t62 28l143 -4q-58 -18 -81 -36t-25 -38q-1 -11 4 -17t16 -6q20 0 34.5 6.5t28.5 12.5q9 4 13.5 -0.5t2.5 -14.5l-7 -52q-1 -6 -4 -12t-9 -8q-16 -4 -43 -8.5t-60 -4.5q-57 0 -89.5 24.5t-25.5 73.5v0z" />
    <glyph glyph-name="DZ" unicode="&#x1f1;" horiz-adv-x="1452" 
d="M48 0q-15 0 -22.5 10t-5.5 26l96 687q2 12 6.5 15.5t18.5 3.5h250q121 0 202.5 -40.5t123.5 -111.5t42 -161q0 -128 -56 -225t-156.5 -150.5t-235.5 -53.5h-263v0zM338 157q64 0 105 39t60.5 103.5t19.5 142.5q0 47 -15 79t-42 48t-65 16h-59q-18 0 -21 -20l-53 -389
q-1 -9 2 -14t11 -5h57zM757 0q-15 0 -21 5.5t-5 20.5l6 50q2 14 6.5 24t17.5 26l372 440q7 8 8.5 9.5t-9.5 1.5h-265q-25 0 -22 30l17 120q2 10 5 12.5t11 2.5h593q17 0 14 -22l-8 -55q-1 -11 -4.5 -18.5t-13.5 -21.5l-386 -450q-9 -9 2 -9h309q11 0 14 -3t1 -14l-19 -133
q-1 -9 -5 -12.5t-17 -3.5h-601v0z" />
    <glyph glyph-name="Dz" unicode="&#x1f2;" horiz-adv-x="1255" 
d="M48 0q-15 0 -22.5 10t-5.5 26l96 687q2 12 6.5 15.5t18.5 3.5h250q121 0 202.5 -40.5t123.5 -111.5t42 -161q0 -128 -56 -225t-156.5 -150.5t-235.5 -53.5h-263v0zM338 157q64 0 105 39t60.5 103.5t19.5 142.5q0 47 -15 79t-42 48t-65 16h-59q-18 0 -21 -20l-53 -389
q-1 -9 2 -14t11 -5h57zM717 0q-15 0 -19 4.5t-2 19.5l6 40q2 16 8 25t22 28l253 270q6 8 3.5 14.5t-18.5 6.5h-180q-12 0 -14.5 6t-1.5 19l12 79q2 9 9.5 13.5t15.5 4.5h440q17 0 14 -18l-7 -47q-1 -11 -7.5 -20t-17.5 -22l-258 -275q-7 -9 -2.5 -16.5t14.5 -7.5h205
q20 0 17 -20l-11 -83q-1 -9 -6 -15t-18 -6h-457v0z" />
    <glyph glyph-name="dz" unicode="&#x1f3;" horiz-adv-x="1160" 
d="M370 0q-10 0 -18 4t-6 17l3 19q2 8 -2.5 9.5t-12.5 -5.5q-21 -17 -43 -29.5t-46 -18.5t-53 -6q-79 0 -126 54t-47 158q0 68 18 128.5t51 108t78 74.5t99 27q37 0 64.5 -14t51.5 -46q7 -9 15.5 -7.5t12.5 29.5l32 222q2 11 8 14.5t15 3.5h162q16 0 12 -29l-98 -691
q-1 -13 -7.5 -17.5t-22.5 -4.5h-140zM394 382q-13 19 -26.5 26.5t-33.5 7.5q-36 0 -58.5 -24t-35 -60.5t-17.5 -74.5t-5 -66q0 -30 6.5 -48t19.5 -25.5t31 -7.5q22 0 41 10t32 26.5t15 35.5zM622 0q-15 0 -19 4.5t-2 19.5l6 40q2 16 8 25t22 28l253 270q6 8 3.5 14.5
t-18.5 6.5h-180q-12 0 -14.5 6t-1.5 19l12 79q2 9 9.5 13.5t15.5 4.5h440q17 0 14 -18l-7 -47q-1 -11 -7.5 -20t-17.5 -22l-258 -275q-7 -9 -2.5 -16.5t14.5 -7.5h205q20 0 17 -20l-11 -83q-1 -9 -6 -15t-18 -6h-457v0z" />
    <glyph glyph-name="Gacute" unicode="&#x1f4;" horiz-adv-x="761" 
d="M349 -10q-96 0 -165 40t-106 111.5t-37 166.5q0 93 30 173.5t85 141.5t130.5 95t166.5 34q92 0 156 -34t98 -86.5t37 -109.5q0 -24 -9 -25l-177 -25q-5 -1 -8 5.5t-7 25.5q-5 25 -15.5 46.5t-30.5 34.5t-54 13q-48 0 -80 -30.5t-51.5 -79t-28 -105t-8.5 -108.5
q0 -76 26.5 -102t69.5 -26q23 0 41.5 5.5t33.5 15t27.5 23.5t22.5 30l5 8q9 14 -10 14h-96q-11 0 -10 16l12 106q1 13 12 13l306 -2q15 0 19 -4t2 -17l-48 -340q-2 -14 -18 -14h-35q-17 0 -25 17l-30 59q-4 7 -10 6t-14 -9q-17 -17 -44 -36.5t-66.5 -33t-96.5 -13.5v0z
M614 865q2 -11 -0.5 -17.5t-17.5 -10.5l-241 -56q-13 -3 -20 3t-9 16l-9 43q-4 17 5 21l252 98q7 3 12.5 0.5t8.5 -16.5z" />
    <glyph glyph-name="gacute" unicode="&#x1f5;" horiz-adv-x="653" 
d="M224 -174q-125 0 -199.5 29t-74.5 84q0 38 32.5 59.5t72.5 32.5q12 4 13.5 9.5t-9.5 9.5q-25 9 -38.5 25.5t-13.5 45.5t18.5 50t46 36t52.5 23q13 5 15.5 9.5t-8.5 8.5q-37 13 -59 42.5t-22 70.5q0 48 22.5 81.5t60.5 55t84.5 31t94.5 9.5q77 0 120 -16t64 -36
q8 -7 18.5 1.5t18.5 18.5q16 19 38.5 31t44 18.5t33.5 6.5q11 0 18 -3.5t5 -17.5l-12 -90q-2 -17 -7 -21.5t-14 -3.5q-13 1 -30 1.5t-23 0.5q-36 0 -25 -25q2 -4 2.5 -11t0.5 -15q0 -47 -26 -79t-67.5 -51.5t-88.5 -28.5t-89 -9q-7 0 -23.5 -1t-35.5 -4.5t-32.5 -10.5
t-13.5 -19q0 -7 9 -9t28 -4l151 -9q103 -6 150 -44.5t47 -100.5q0 -45 -22 -77t-58.5 -52t-82 -31.5t-94 -16t-92.5 -4.5v0zM236 -86q42 0 72.5 5t49.5 13t28.5 19t9.5 23q0 14 -13 20.5t-45 7.5l-144 7q-12 0 -31 -5t-34 -15.5t-15 -28.5q0 -21 27.5 -33.5t94.5 -12.5v0z
M297 300q25 0 45 11.5t32 32t12 46.5q0 24 -18.5 39.5t-54.5 15.5q-24 0 -44 -13t-32 -34t-12 -46q0 -21 20 -36.5t52 -15.5v0zM508 653q2 -11 -0.5 -17.5t-17.5 -10.5l-241 -56q-13 -3 -20 3t-9 16l-9 43q-4 17 5 21l252 98q7 3 12.5 0.5t8.5 -16.5z" />
    <glyph glyph-name="Aringacute" unicode="&#x1fa;" horiz-adv-x="710" 
d="M544 785q-6 -43 -39 -67.5t-76 -24.5q-49 0 -79 32.5t-23 83.5q6 41 39.5 65.5t75.5 24.5q49 0 79 -32.5t23 -81.5v0zM484 806q2 17 -8 26.5t-27 9.5q-22 0 -42 -17t-23 -41q-2 -16 9 -27t27 -11q23 0 42 18.5t22 41.5v0zM520 742q13 0 22.5 -10t10.5 -22l137 -681
q2 -10 0 -19.5t-13 -9.5h-196q-7 0 -13.5 6t-7.5 16l-20 115q-1 5 -2.5 6t-9.5 1h-201q-6 0 -11.5 -6t-7.5 -11l-56 -117q-3 -6 -7 -8t-15 -2h-152q-11 0 -16.5 13t1.5 29l331 682q5 12 10 15t18 3h198zM381 510q-1 5 -5.5 -0.5t-6.5 -10.5l-81 -169q-5 -10 -5.5 -13t8.5 -3
h103q8 0 14 7.5t4 17.5zM509 964q12 0 16.5 -11.5t-0.5 -22.5l-34 -55h-88l23 63q7 19 15.5 22.5t22.5 3.5h45z" />
    <glyph glyph-name="aringacute" unicode="&#x1fb;" horiz-adv-x="573" 
d="M296 40q-25 -27 -65 -38.5t-84 -11.5q-70 0 -109 38t-39 95q0 59 31.5 99t81.5 64.5t108 35t110 10.5h7q19 0 22 20l3 17q1 4 1 7.5v6.5q0 20 -11 29t-34 9q-24 0 -49.5 -8.5t-41.5 -40.5q-3 -6 -8 -8t-18 0l-127 26q-8 2 -12.5 10.5t4.5 31.5q32 59 99.5 83.5
t162.5 24.5q85 0 134.5 -18t70.5 -50t21 -74q0 -7 -0.5 -14t-1.5 -15l-49 -348q-2 -15 -5 -18t-17 -3h-137q-13 0 -16 9t-5 23l-1 12q-2 22 -26 -4v0zM342 230q2 9 1 11t-10 1l-14 -1q-15 -1 -36 -6t-41 -15t-33 -26t-13 -39q0 -16 11 -27.5t33 -11.5q23 0 40 6t27 14
t18.5 19t9.5 22zM494 859q2 -11 -0.5 -17.5t-17.5 -10.5l-241 -56q-13 -3 -20 3t-9 16l-9 43q-4 17 5 21l252 98q7 3 12.5 0.5t8.5 -16.5zM441 659q-7 -46 -42.5 -76t-81.5 -30q-34 0 -60 17.5t-39 47t-8 65.5q6 44 42 73t81 29q35 0 61 -17t39 -45.5t8 -63.5v0zM374 680
q2 17 -8 26.5t-27 9.5q-22 0 -42 -17t-24 -41q-1 -16 9.5 -27t26.5 -11q23 0 42 18.5t23 41.5v0z" />
    <glyph glyph-name="AEacute" unicode="&#x1fc;" horiz-adv-x="1123" 
d="M1050 164q11 0 17.5 -7t4.5 -18l-17 -123q-1 -9 -5 -12.5t-17 -3.5h-535q-15 0 -21.5 9t-5.5 22l15 105q1 7 0.5 7.5t-8.5 0.5h-201q-6 0 -12.5 -5.5t-8.5 -10.5l-76 -118q-6 -10 -25 -10h-152q-11 0 -15.5 13t5.5 29l451 682q8 12 14 15t19 3h649q9 0 14.5 -8.5
t3.5 -18.5l-17 -116q-1 -12 -6 -16.5t-19 -4.5h-300q-11 0 -20 -7.5t-11 -17.5l-11 -85q-1 -10 1.5 -12.5t9.5 -2.5h180q11 0 17.5 -8t4.5 -18l-18 -124q-1 -7 -3 -9t-12 -2h-185q-7 0 -14.5 -7t-8.5 -13l-14 -100q-1 -8 -0.5 -8h7.5h325v0zM488 314q9 0 17.5 8t9.5 18
l28 201q3 23 -10.5 18.5t-27.5 -27.5l-132 -202q-7 -10 -9 -13t7 -3h117v0zM949 865q2 -11 -0.5 -17.5t-17.5 -10.5l-241 -56q-13 -3 -20 3t-9 16l-9 43q-4 17 5 21l252 98q7 3 12.5 0.5t8.5 -16.5z" />
    <glyph glyph-name="aeacute" unicode="&#x1fd;" horiz-adv-x="914" 
d="M565 229q-7 0 -14 -7.5t-9 -20.5q-4 -28 6 -45.5t30.5 -25.5t47.5 -8q19 0 37.5 6t39 20.5t44.5 37.5q5 1 8 -2t13 -7l85 -37q8 -3 11.5 -11.5t-3.5 -20.5q-44 -48 -84 -73.5t-83.5 -35t-97.5 -9.5q-44 0 -81.5 11t-67 31t-49.5 47q-4 0 -9 -6t-7 -11q-34 -27 -68.5 -43
t-72.5 -22.5t-82 -6.5q-88 0 -128 46t-30 118q11 77 87.5 123.5t221.5 53.5l23 1q6 0 15 5.5t10 14.5l3 17q4 28 -6.5 40t-37.5 12q-24 0 -49.5 -12.5t-41.5 -44.5q-6 -6 -9.5 -4t-16.5 4l-127 26q-7 2 -9.5 15.5t1.5 26.5q25 36 56 60t79 36t123 12q70 -1 114 -12t67 -28
q38 22 76 31t74 9q81 0 139 -35.5t85 -102t14 -159.5q-1 -9 -2 -11t-14 -3h-311v0zM662 423q-22 0 -43.5 -11t-36.5 -32.5t-19 -52.5l126 5q10 0 17 6t8 19q2 11 -2 26.5t-15.5 27.5t-34.5 12v0zM340 222q2 9 -0.5 10.5t-11.5 1.5l-14 -1q-19 -1 -46 -12t-48.5 -30
t-25.5 -46q-2 -18 9.5 -27.5t37.5 -9.5q21 0 41 7.5t34 21t16 29.5l8 56v0zM657 653q2 -11 -0.5 -17.5t-17.5 -10.5l-241 -56q-13 -3 -20 3t-9 16l-9 43q-4 17 5 21l252 98q7 3 12.5 0.5t8.5 -16.5z" />
    <glyph glyph-name="Oslashacute" unicode="&#x1fe;" horiz-adv-x="786" 
d="M832 682q5 -6 7.5 -13t-5.5 -14l-92 -75q19 -44 26 -99.5t-3 -122.5q-16 -112 -70.5 -195t-139.5 -128t-192 -45q-72 0 -128 20.5t-94 55.5l-68 -63q-13 -11 -22 -7.5t-19 15.5l-34 40q-10 11 -13 19.5t7 17.5l82 66q-19 45 -26.5 101.5t2.5 124.5q16 114 71.5 197.5
t141 129t191.5 45.5q73 0 129.5 -22t95.5 -60l76 71q9 8 17 5.5t12 -8.5l48 -56v0zM285 355q-1 -5 -2 -13.5t-3 -17.5l249 220q-10 31 -30 42.5t-50 11.5q-68 0 -107 -57.5t-57 -185.5v0zM530 377q1 6 2 14.5t2 17.5l-247 -219q11 -25 31.5 -34.5t50.5 -9.5q68 0 106 53.5
t55 177.5v0zM625 865q2 -11 -0.5 -17.5t-17.5 -10.5l-241 -56q-13 -3 -20 3t-9 16l-9 43q-4 17 5 21l252 98q7 3 12.5 0.5t8.5 -16.5z" />
    <glyph glyph-name="oslashacute" unicode="&#x1ff;" horiz-adv-x="604" 
d="M61 8q-13 -11 -23 -7.5t-18 15.5l-17 20q-9 11 -12.5 20t6.5 17l549 451q11 8 18.5 5.5t11.5 -8.5l30 -36q5 -6 7.5 -13t-5.5 -14zM261 -10q-76 0 -132 30t-86.5 84t-30.5 124t25 127.5t68.5 98.5t100 63.5t118.5 22.5q77 0 133 -31t86 -85.5t30 -125.5q0 -88 -41 -158
t-111.5 -110t-159.5 -40v0zM264 118q31 0 56.5 24t41 73t15.5 124q0 41 -13 59t-42 18q-30 0 -55.5 -24t-41 -73.5t-15.5 -125.5q0 -40 13 -57.5t41 -17.5v0zM504 653q2 -11 -0.5 -17.5t-17.5 -10.5l-241 -56q-13 -3 -20 3t-9 16l-9 43q-4 17 5 21l252 98q7 3 12.5 0.5
t8.5 -16.5z" />
    <glyph glyph-name="uni0200" unicode="&#x200;" horiz-adv-x="799" 
d="M-4 0q-11 0 -11.5 10t10.5 32l339 682q6 12 15.5 15t22.5 3h197q13 0 18 -10t7 -22l145 -681q2 -10 -1 -19.5t-14 -9.5h-196q-14 0 -19 22l-23 113q-1 9 -13 9h-210q-12 0 -19 -13l-60 -121q-3 -6 -7 -8t-15 -2h-166v0zM446 314q17 0 12 20l-36 167q-1 10 -6 10t-10 -9
l-83 -172q-4 -10 -2 -13t11 -3h114zM296 955q7 6 14.5 5.5t11.5 -5.5l124 -121q5 -4 6.5 -11t-5.5 -14l-39 -35q-7 -6 -13.5 -3t-16.5 10l-133 80q-28 16 -11 33l62 61v0zM515 955q7 6 14.5 5.5t11.5 -5.5l124 -121q5 -4 6.5 -11t-5.5 -14l-39 -35q-7 -6 -13.5 -3t-16.5 10
l-133 80q-28 16 -11 33l62 61v0z" />
    <glyph glyph-name="uni0201" unicode="&#x201;" horiz-adv-x="573" 
d="M296 40q-25 -27 -65 -38.5t-84 -11.5q-70 0 -109 38t-39 95q0 59 31.5 99t81.5 64.5t108 35t110 10.5h7q19 0 22 20l3 17q1 4 1 7.5v6.5q0 20 -11 29t-34 9q-24 0 -49.5 -8.5t-41.5 -40.5q-3 -6 -8 -8t-18 0l-127 26q-8 2 -12.5 10.5t4.5 31.5q32 59 99.5 83.5
t162.5 24.5q85 0 134.5 -18t70.5 -50t21 -74q0 -7 -0.5 -14t-1.5 -15l-49 -348q-2 -15 -5 -18t-17 -3h-137q-13 0 -16 9t-5 23l-1 12q-2 22 -26 -4v0zM342 230q2 9 1 11t-10 1l-14 -1q-15 -1 -36 -6t-41 -15t-33 -26t-13 -39q0 -16 11 -27.5t33 -11.5q23 0 40 6t27 14
t18.5 19t9.5 22zM168 743q7 6 14.5 5.5t11.5 -5.5l124 -121q5 -4 6.5 -11t-5.5 -14l-39 -35q-7 -6 -13.5 -3t-16.5 10l-133 80q-28 16 -11 33l62 61v0zM387 743q7 6 14.5 5.5t11.5 -5.5l124 -121q5 -4 6.5 -11t-5.5 -14l-39 -35q-7 -6 -13.5 -3t-16.5 10l-133 80
q-28 16 -11 33l62 61v0z" />
    <glyph glyph-name="uni0202" unicode="&#x202;" horiz-adv-x="799" 
d="M-4 0q-11 0 -11.5 10t10.5 32l339 682q6 12 15.5 15t22.5 3h197q13 0 18 -10t7 -22l145 -681q2 -10 -1 -19.5t-14 -9.5h-196q-14 0 -19 22l-23 113q-1 9 -13 9h-210q-12 0 -19 -13l-60 -121q-3 -6 -7 -8t-15 -2h-166v0zM446 314q17 0 12 20l-36 167q-1 10 -6 10t-10 -9
l-83 -172q-4 -10 -2 -13t11 -3h114zM313 805q-10 0 -13.5 10.5t1.5 20.5q21 42 53 68t70.5 38t80.5 12q46 0 86.5 -11.5t68 -38.5t34.5 -74q2 -10 -0.5 -17.5t-15.5 -7.5h-71q-9 0 -12 7t-11 17q-8 12 -20.5 20t-27 12t-29.5 4q-25 0 -52.5 -10.5t-44.5 -36.5
q-5 -8 -12 -10.5t-13 -2.5h-72v0z" />
    <glyph glyph-name="uni0203" unicode="&#x203;" horiz-adv-x="573" 
d="M296 40q-25 -27 -65 -38.5t-84 -11.5q-70 0 -109 38t-39 95q0 59 31.5 99t81.5 64.5t108 35t110 10.5h7q19 0 22 20l3 17q1 4 1 7.5v6.5q0 20 -11 29t-34 9q-24 0 -49.5 -8.5t-41.5 -40.5q-3 -6 -8 -8t-18 0l-127 26q-8 2 -12.5 10.5t4.5 31.5q32 59 99.5 83.5
t162.5 24.5q85 0 134.5 -18t70.5 -50t21 -74q0 -7 -0.5 -14t-1.5 -15l-49 -348q-2 -15 -5 -18t-17 -3h-137q-13 0 -16 9t-5 23l-1 12q-2 22 -26 -4v0zM342 230q2 9 1 11t-10 1l-14 -1q-15 -1 -36 -6t-41 -15t-33 -26t-13 -39q0 -16 11 -27.5t33 -11.5q23 0 40 6t27 14
t18.5 19t9.5 22zM185 593q-10 0 -13.5 10.5t1.5 20.5q21 42 53 68t70.5 38t80.5 12q46 0 86.5 -11.5t68 -38.5t34.5 -74q2 -10 -0.5 -17.5t-15.5 -7.5h-71q-9 0 -12 7t-11 17q-8 12 -20.5 20t-27 12t-29.5 4q-25 0 -52.5 -10.5t-44.5 -36.5q-5 -8 -12 -10.5t-13 -2.5h-72v0z
" />
    <glyph glyph-name="uni0204" unicode="&#x204;" horiz-adv-x="671" 
d="M117 725q2 11 5 14t12 3h544q19 0 14 -27l-17 -116q-1 -12 -6 -16.5t-19 -4.5h-310q-9 0 -13 -3.5t-6 -14.5l-13 -92q-1 -10 1.5 -12.5t9.5 -2.5h189q11 0 13.5 -4t0.5 -13l-18 -131q-1 -13 -16 -13h-193q-12 0 -15 -16l-14 -99q-1 -13 7 -13h333q11 0 13.5 -4t0.5 -15
l-17 -129q-1 -9 -5 -12.5t-17 -3.5h-538q-28 0 -24 31l98 694v0zM237 955q7 6 14.5 5.5t11.5 -5.5l124 -121q5 -4 6.5 -11t-5.5 -14l-39 -35q-7 -6 -13.5 -3t-16.5 10l-133 80q-28 16 -11 33l62 61v0zM456 955q7 6 14.5 5.5t11.5 -5.5l124 -121q5 -4 6.5 -11t-5.5 -14
l-39 -35q-7 -6 -13.5 -3t-16.5 10l-133 80q-28 16 -11 33l62 61v0z" />
    <glyph glyph-name="uni0205" unicode="&#x205;" horiz-adv-x="590" 
d="M272 -10q-75 0 -132 30t-89.5 83t-32.5 123q0 62 24 118t66.5 100.5t99 70t122.5 25.5q72 0 126.5 -29t85 -83t30.5 -130q0 -13 -1 -27t-3 -28q-1 -9 -6 -11.5t-18 -2.5h-309q-12 0 -15 -15t-3 -27q0 -34 24 -49.5t61 -15.5q29 0 56 12t58 42q6 6 12.5 5.5t15.5 -4.5
l85 -37q26 -11 8 -32q-44 -48 -84 -73.5t-83.5 -35t-97.5 -9.5v0zM365 327q10 0 17.5 8.5t7.5 26.5q0 20 -12.5 40.5t-44.5 20.5q-20 0 -40.5 -11t-35 -32.5t-18.5 -52.5h126zM172 743q7 6 14.5 5.5t11.5 -5.5l124 -121q5 -4 6.5 -11t-5.5 -14l-39 -35q-7 -6 -13.5 -3
t-16.5 10l-133 80q-28 16 -11 33l62 61v0zM391 743q7 6 14.5 5.5t11.5 -5.5l124 -121q5 -4 6.5 -11t-5.5 -14l-39 -35q-7 -6 -13.5 -3t-16.5 10l-133 80q-28 16 -11 33l62 61v0z" />
    <glyph glyph-name="uni0206" unicode="&#x206;" horiz-adv-x="671" 
d="M117 725q2 11 5 14t12 3h544q19 0 14 -27l-17 -116q-1 -12 -6 -16.5t-19 -4.5h-310q-9 0 -13 -3.5t-6 -14.5l-13 -92q-1 -10 1.5 -12.5t9.5 -2.5h189q11 0 13.5 -4t0.5 -13l-18 -131q-1 -13 -16 -13h-193q-12 0 -15 -16l-14 -99q-1 -13 7 -13h333q11 0 13.5 -4t0.5 -15
l-17 -129q-1 -9 -5 -12.5t-17 -3.5h-538q-28 0 -24 31l98 694v0zM254 805q-10 0 -13.5 10.5t1.5 20.5q21 42 53 68t70.5 38t80.5 12q46 0 86.5 -11.5t68 -38.5t34.5 -74q2 -10 -0.5 -17.5t-15.5 -7.5h-71q-9 0 -12 7t-11 17q-8 12 -20.5 20t-27 12t-29.5 4
q-25 0 -52.5 -10.5t-44.5 -36.5q-5 -8 -12 -10.5t-13 -2.5h-72v0z" />
    <glyph glyph-name="uni0207" unicode="&#x207;" horiz-adv-x="590" 
d="M272 -10q-75 0 -132 30t-89.5 83t-32.5 123q0 62 24 118t66.5 100.5t99 70t122.5 25.5q72 0 126.5 -29t85 -83t30.5 -130q0 -13 -1 -27t-3 -28q-1 -9 -6 -11.5t-18 -2.5h-309q-12 0 -15 -15t-3 -27q0 -34 24 -49.5t61 -15.5q29 0 56 12t58 42q6 6 12.5 5.5t15.5 -4.5
l85 -37q26 -11 8 -32q-44 -48 -84 -73.5t-83.5 -35t-97.5 -9.5v0zM365 327q10 0 17.5 8.5t7.5 26.5q0 20 -12.5 40.5t-44.5 20.5q-20 0 -40.5 -11t-35 -32.5t-18.5 -52.5h126zM189 593q-10 0 -13.5 10.5t1.5 20.5q21 42 53 68t70.5 38t80.5 12q46 0 86.5 -11.5t68 -38.5
t34.5 -74q2 -10 -0.5 -17.5t-15.5 -7.5h-71q-9 0 -12 7t-11 17q-8 12 -20.5 20t-27 12t-29.5 4q-25 0 -52.5 -10.5t-44.5 -36.5q-5 -8 -12 -10.5t-13 -2.5h-72v0z" />
    <glyph glyph-name="uni0208" unicode="&#x208;" horiz-adv-x="331" 
d="M328 742q17 0 14 -27l-97 -692q-2 -16 -8.5 -19.5t-23.5 -3.5h-174q-16 0 -18.5 9t-1.5 22l98 694q2 11 5.5 14t11.5 3h194zM67 955q7 6 14.5 5.5t11.5 -5.5l124 -121q5 -4 6.5 -11t-5.5 -14l-39 -35q-7 -6 -13.5 -3t-16.5 10l-133 80q-28 16 -11 33l62 61v0zM286 955
q7 6 14.5 5.5t11.5 -5.5l124 -121q5 -4 6.5 -11t-5.5 -14l-39 -35q-7 -6 -13.5 -3t-16.5 10l-133 80q-28 16 -11 33l62 61v0z" />
    <glyph glyph-name="uni0209" unicode="&#x209;" horiz-adv-x="282" 
d="M207 23q-2 -16 -8.5 -19.5t-23.5 -3.5h-141q-15 0 -21 9t-5 22l68 482q2 11 5 14t12 3h163q8 0 14 -8.5t5 -17.5zM12 743q7 6 14.5 5.5t11.5 -5.5l124 -121q5 -4 6.5 -11t-5.5 -14l-39 -35q-7 -6 -13.5 -3t-16.5 10l-133 80q-28 16 -11 33l62 61v0zM231 743q7 6 14.5 5.5
t11.5 -5.5l124 -121q5 -4 6.5 -11t-5.5 -14l-39 -35q-7 -6 -13.5 -3t-16.5 10l-133 80q-28 16 -11 33l62 61v0z" />
    <glyph glyph-name="uni020A" unicode="&#x20a;" horiz-adv-x="331" 
d="M328 742q17 0 14 -27l-97 -692q-2 -16 -8.5 -19.5t-23.5 -3.5h-174q-16 0 -18.5 9t-1.5 22l98 694q2 11 5.5 14t11.5 3h194zM84 805q-10 0 -13.5 10.5t1.5 20.5q21 42 53 68t70.5 38t80.5 12q46 0 86.5 -11.5t68 -38.5t34.5 -74q2 -10 -0.5 -17.5t-15.5 -7.5h-71
q-9 0 -12 7t-11 17q-8 12 -20.5 20t-27 12t-29.5 4q-25 0 -52.5 -10.5t-44.5 -36.5q-5 -8 -12 -10.5t-13 -2.5h-72v0z" />
    <glyph glyph-name="uni020B" unicode="&#x20b;" horiz-adv-x="282" 
d="M207 23q-2 -16 -8.5 -19.5t-23.5 -3.5h-141q-15 0 -21 9t-5 22l68 482q2 11 5 14t12 3h163q8 0 14 -8.5t5 -17.5zM29 593q-10 0 -13.5 10.5t1.5 20.5q21 42 53 68t70.5 38t80.5 12q46 0 86.5 -11.5t68 -38.5t34.5 -74q2 -10 -0.5 -17.5t-15.5 -7.5h-71q-9 0 -12 7t-11 17
q-8 12 -20.5 20t-27 12t-29.5 4q-25 0 -52.5 -10.5t-44.5 -36.5q-5 -8 -12 -10.5t-13 -2.5h-72v0z" />
    <glyph glyph-name="uni020C" unicode="&#x20c;" horiz-adv-x="780" 
d="M360 -10q-100 0 -171 38.5t-109 109.5t-38 168q0 17 1 36t4 38q16 114 71.5 197.5t141 129t191.5 45.5q98 0 169 -39.5t109 -111.5t38 -170q0 -17 -1 -35.5t-4 -37.5q-16 -112 -70.5 -195t-139.5 -128t-192 -45v0zM366 146q68 0 106 53.5t55 177.5q4 29 6 53.5t2 45.5
q0 65 -21 93.5t-68 28.5q-68 0 -107 -57.5t-57 -185.5q-4 -28 -6 -51.5t-2 -43.5q0 -62 22 -88t70 -26v0zM291 955q7 6 14.5 5.5t11.5 -5.5l124 -121q5 -4 6.5 -11t-5.5 -14l-39 -35q-7 -6 -13.5 -3t-16.5 10l-133 80q-28 16 -11 33l62 61v0zM510 955q7 6 14.5 5.5
t11.5 -5.5l124 -121q5 -4 6.5 -11t-5.5 -14l-39 -35q-7 -6 -13.5 -3t-16.5 10l-133 80q-28 16 -11 33l62 61v0z" />
    <glyph glyph-name="uni020D" unicode="&#x20d;" 
d="M268 -10q-76 0 -132 30t-86.5 84t-30.5 124t25 127.5t68.5 98.5t100 63.5t118.5 22.5q77 0 133 -31t86 -85.5t30 -125.5q0 -88 -41 -158t-111.5 -110t-159.5 -40v0zM271 118q31 0 56.5 24t41 73t15.5 124q0 41 -13 59t-42 18q-30 0 -55.5 -24t-41 -73.5t-15.5 -125.5
q0 -40 13 -57.5t41 -17.5v0zM171 743q7 6 14.5 5.5t11.5 -5.5l124 -121q5 -4 6.5 -11t-5.5 -14l-39 -35q-7 -6 -13.5 -3t-16.5 10l-133 80q-28 16 -11 33l62 61v0zM390 743q7 6 14.5 5.5t11.5 -5.5l124 -121q5 -4 6.5 -11t-5.5 -14l-39 -35q-7 -6 -13.5 -3t-16.5 10l-133 80
q-28 16 -11 33l62 61v0z" />
    <glyph glyph-name="uni020E" unicode="&#x20e;" horiz-adv-x="780" 
d="M360 -10q-100 0 -171 38.5t-109 109.5t-38 168q0 17 1 36t4 38q16 114 71.5 197.5t141 129t191.5 45.5q98 0 169 -39.5t109 -111.5t38 -170q0 -17 -1 -35.5t-4 -37.5q-16 -112 -70.5 -195t-139.5 -128t-192 -45v0zM366 146q68 0 106 53.5t55 177.5q4 29 6 53.5t2 45.5
q0 65 -21 93.5t-68 28.5q-68 0 -107 -57.5t-57 -185.5q-4 -28 -6 -51.5t-2 -43.5q0 -62 22 -88t70 -26v0zM308 805q-10 0 -13.5 10.5t1.5 20.5q21 42 53 68t70.5 38t80.5 12q46 0 86.5 -11.5t68 -38.5t34.5 -74q2 -10 -0.5 -17.5t-15.5 -7.5h-71q-9 0 -12 7t-11 17
q-8 12 -20.5 20t-27 12t-29.5 4q-25 0 -52.5 -10.5t-44.5 -36.5q-5 -8 -12 -10.5t-13 -2.5h-72v0z" />
    <glyph glyph-name="uni020F" unicode="&#x20f;" 
d="M268 -10q-76 0 -132 30t-86.5 84t-30.5 124t25 127.5t68.5 98.5t100 63.5t118.5 22.5q77 0 133 -31t86 -85.5t30 -125.5q0 -88 -41 -158t-111.5 -110t-159.5 -40v0zM271 118q31 0 56.5 24t41 73t15.5 124q0 41 -13 59t-42 18q-30 0 -55.5 -24t-41 -73.5t-15.5 -125.5
q0 -40 13 -57.5t41 -17.5v0zM188 593q-10 0 -13.5 10.5t1.5 20.5q21 42 53 68t70.5 38t80.5 12q46 0 86.5 -11.5t68 -38.5t34.5 -74q2 -10 -0.5 -17.5t-15.5 -7.5h-71q-9 0 -12 7t-11 17q-8 12 -20.5 20t-27 12t-29.5 4q-25 0 -52.5 -10.5t-44.5 -36.5q-5 -8 -12 -10.5
t-13 -2.5h-72v0z" />
    <glyph glyph-name="uni0210" unicode="&#x210;" horiz-adv-x="739" 
d="M667 27q9 -27 -17 -27h-194q-10 0 -16.5 5.5t-9.5 20.5l-58 258q-1 6 -4 8.5t-11 2.5h-60q-13 0 -15 -12l-37 -260q-2 -16 -10.5 -19.5t-25.5 -3.5h-168q-15 0 -19 9t-3 22l98 694q2 11 5 14t12 3h334q134 0 207 -50.5t73 -140.5q0 -49 -19.5 -93t-53.5 -78.5t-80 -52.5
q-13 -5 -15.5 -9.5t-0.5 -10.5l88 -280v0zM417 444q29 0 50.5 13.5t33.5 34.5t12 45q0 29 -21 43t-52 14h-102q-12 0 -15 -20l-17 -115q-1 -10 2 -12.5t9 -2.5h100v0zM222 955q7 6 14.5 5.5t11.5 -5.5l124 -121q5 -4 6.5 -11t-5.5 -14l-39 -35q-7 -6 -13.5 -3t-16.5 10
l-133 80q-28 16 -11 33l62 61v0zM441 955q7 6 14.5 5.5t11.5 -5.5l124 -121q5 -4 6.5 -11t-5.5 -14l-39 -35q-7 -6 -13.5 -3t-16.5 10l-133 80q-28 16 -11 33l62 61v0z" />
    <glyph glyph-name="uni0211" unicode="&#x211;" horiz-adv-x="454" 
d="M34 0q-15 0 -21 9t-5 22l68 482q2 11 5 14t12 3h159q8 0 13 -6t3 -20l-6 -36q-1 -12 3 -13t11 6q20 22 47 40t55 28.5t49 10.5q20 0 32 -3t10 -14l-20 -146q-2 -15 -5.5 -18.5t-10.5 -2.5q-26 4 -49.5 5.5t-34.5 1.5q-18 0 -36 -6.5t-33 -17.5t-24.5 -24t-11.5 -26
l-37 -266q-2 -16 -8.5 -19.5t-23.5 -3.5h-141v0zM103 743q7 6 14.5 5.5t11.5 -5.5l124 -121q5 -4 6.5 -11t-5.5 -14l-39 -35q-7 -6 -13.5 -3t-16.5 10l-133 80q-28 16 -11 33l62 61v0zM322 743q7 6 14.5 5.5t11.5 -5.5l124 -121q5 -4 6.5 -11t-5.5 -14l-39 -35
q-7 -6 -13.5 -3t-16.5 10l-133 80q-28 16 -11 33l62 61v0z" />
    <glyph glyph-name="uni0212" unicode="&#x212;" horiz-adv-x="739" 
d="M667 27q9 -27 -17 -27h-194q-10 0 -16.5 5.5t-9.5 20.5l-58 258q-1 6 -4 8.5t-11 2.5h-60q-13 0 -15 -12l-37 -260q-2 -16 -10.5 -19.5t-25.5 -3.5h-168q-15 0 -19 9t-3 22l98 694q2 11 5 14t12 3h334q134 0 207 -50.5t73 -140.5q0 -49 -19.5 -93t-53.5 -78.5t-80 -52.5
q-13 -5 -15.5 -9.5t-0.5 -10.5l88 -280v0zM417 444q29 0 50.5 13.5t33.5 34.5t12 45q0 29 -21 43t-52 14h-102q-12 0 -15 -20l-17 -115q-1 -10 2 -12.5t9 -2.5h100v0zM276 805q-10 0 -13.5 10.5t1.5 20.5q21 42 53 68t70.5 38t80.5 12q46 0 86.5 -11.5t68 -38.5t34.5 -74
q2 -10 -0.5 -17.5t-15.5 -7.5h-71q-9 0 -12 7t-11 17q-8 12 -20.5 20t-27 12t-29.5 4q-25 0 -52.5 -10.5t-44.5 -36.5q-5 -8 -12 -10.5t-13 -2.5h-72v0z" />
    <glyph glyph-name="uni0213" unicode="&#x213;" horiz-adv-x="454" 
d="M34 0q-15 0 -21 9t-5 22l68 482q2 11 5 14t12 3h159q8 0 13 -6t3 -20l-6 -36q-1 -12 3 -13t11 6q20 22 47 40t55 28.5t49 10.5q20 0 32 -3t10 -14l-20 -146q-2 -15 -5.5 -18.5t-10.5 -2.5q-26 4 -49.5 5.5t-34.5 1.5q-18 0 -36 -6.5t-33 -17.5t-24.5 -24t-11.5 -26
l-37 -266q-2 -16 -8.5 -19.5t-23.5 -3.5h-141v0zM120 593q-10 0 -13.5 10.5t1.5 20.5q21 42 53 68t70.5 38t80.5 12q46 0 86.5 -11.5t68 -38.5t34.5 -74q2 -10 -0.5 -17.5t-15.5 -7.5h-71q-9 0 -12 7t-11 17q-8 12 -20.5 20t-27 12t-29.5 4q-25 0 -52.5 -10.5t-44.5 -36.5
q-5 -8 -12 -10.5t-13 -2.5h-72v0z" />
    <glyph glyph-name="uni0214" unicode="&#x214;" horiz-adv-x="728" 
d="M687 287q-16 -115 -64 -180t-122 -91t-168 -26q-156 0 -222 63.5t-66 180.5q0 20 2 41.5t5 43.5l57 406q2 11 5.5 14t11.5 3h190q9 0 14.5 -8.5t3.5 -18.5l-60 -432q-1 -12 -2.5 -22.5t-1.5 -20.5q0 -51 23.5 -71t63.5 -20q33 0 63 14t52 47t30 88l60 427q2 11 5 14t12 3
h150q9 0 14.5 -8.5t3.5 -18.5l-60 -428v0zM282 955q7 6 14.5 5.5t11.5 -5.5l124 -121q5 -4 6.5 -11t-5.5 -14l-39 -35q-7 -6 -13.5 -3t-16.5 10l-133 80q-28 16 -11 33l62 61v0zM501 955q7 6 14.5 5.5t11.5 -5.5l124 -121q5 -4 6.5 -11t-5.5 -14l-39 -35q-7 -6 -13.5 -3
t-16.5 10l-133 80q-28 16 -11 33l62 61v0z" />
    <glyph glyph-name="uni0215" unicode="&#x215;" horiz-adv-x="601" 
d="M154 -10q-60 0 -97 37.5t-37 102.5q0 8 0.5 17t1.5 16l48 343q2 15 8 19.5t22 4.5h146q13 0 19 -9t4 -23l-46 -322q-1 -4 -1 -7.5v-5.5q0 -18 10 -25.5t26 -7.5q26 0 48.5 14t38.5 31l49 332q2 15 8.5 19t23.5 4h143q14 0 21 -9t5 -23l-72 -482q-1 -10 -4.5 -13t-12.5 -3
h-158q-8 0 -13.5 3t-4.5 13l7 44q1 6 -3.5 6t-12.5 -7q-37 -36 -78.5 -52.5t-88.5 -16.5v0zM170 743q7 6 14.5 5.5t11.5 -5.5l124 -121q5 -4 6.5 -11t-5.5 -14l-39 -35q-7 -6 -13.5 -3t-16.5 10l-133 80q-28 16 -11 33l62 61v0zM389 743q7 6 14.5 5.5t11.5 -5.5l124 -121
q5 -4 6.5 -11t-5.5 -14l-39 -35q-7 -6 -13.5 -3t-16.5 10l-133 80q-28 16 -11 33l62 61v0z" />
    <glyph glyph-name="uni0216" unicode="&#x216;" horiz-adv-x="728" 
d="M687 287q-16 -115 -64 -180t-122 -91t-168 -26q-156 0 -222 63.5t-66 180.5q0 20 2 41.5t5 43.5l57 406q2 11 5.5 14t11.5 3h190q9 0 14.5 -8.5t3.5 -18.5l-60 -432q-1 -12 -2.5 -22.5t-1.5 -20.5q0 -51 23.5 -71t63.5 -20q33 0 63 14t52 47t30 88l60 427q2 11 5 14t12 3
h150q9 0 14.5 -8.5t3.5 -18.5l-60 -428v0zM299 805q-10 0 -13.5 10.5t1.5 20.5q21 42 53 68t70.5 38t80.5 12q46 0 86.5 -11.5t68 -38.5t34.5 -74q2 -10 -0.5 -17.5t-15.5 -7.5h-71q-9 0 -12 7t-11 17q-8 12 -20.5 20t-27 12t-29.5 4q-25 0 -52.5 -10.5t-44.5 -36.5
q-5 -8 -12 -10.5t-13 -2.5h-72v0z" />
    <glyph glyph-name="uni0217" unicode="&#x217;" horiz-adv-x="601" 
d="M154 -10q-60 0 -97 37.5t-37 102.5q0 8 0.5 17t1.5 16l48 343q2 15 8 19.5t22 4.5h146q13 0 19 -9t4 -23l-46 -322q-1 -4 -1 -7.5v-5.5q0 -18 10 -25.5t26 -7.5q26 0 48.5 14t38.5 31l49 332q2 15 8.5 19t23.5 4h143q14 0 21 -9t5 -23l-72 -482q-1 -10 -4.5 -13t-12.5 -3
h-158q-8 0 -13.5 3t-4.5 13l7 44q1 6 -3.5 6t-12.5 -7q-37 -36 -78.5 -52.5t-88.5 -16.5v0zM187 593q-10 0 -13.5 10.5t1.5 20.5q21 42 53 68t70.5 38t80.5 12q46 0 86.5 -11.5t68 -38.5t34.5 -74q2 -10 -0.5 -17.5t-15.5 -7.5h-71q-9 0 -12 7t-11 17q-8 12 -20.5 20t-27 12
t-29.5 4q-25 0 -52.5 -10.5t-44.5 -36.5q-5 -8 -12 -10.5t-13 -2.5h-72v0z" />
    <glyph glyph-name="uni0218" unicode="&#x218;" horiz-adv-x="701" 
d="M539 552q-18 16 -51 31t-86 15q-33 0 -57.5 -7t-38 -21t-13.5 -34q0 -15 9.5 -25.5t23.5 -17t27 -10.5l160 -52q79 -25 118.5 -66.5t39.5 -105.5q0 -87 -47 -147t-126 -91t-177 -31q-117 0 -195.5 38.5t-113.5 102.5q-5 11 -5.5 17t8.5 11l106 65q14 8 24.5 4t18.5 -14
q23 -25 44 -42.5t51.5 -26t81.5 -8.5q28 0 52.5 6t40 20.5t15.5 40.5q0 20 -16 33t-45 21l-147 45q-76 23 -118 72t-42 115q0 60 26.5 108t72.5 82.5t105 53t125 18.5t119.5 -16t93 -41.5t61.5 -55.5q7 -10 8 -17t-7 -12l-115 -74q-7 -4 -14.5 2t-16.5 14v0zM231 -246
q-5 0 -5.5 5t4.5 11l45 52q9 11 8 18.5t-9 7.5h-30q-8 0 -10.5 4t-0.5 16l10 64q3 19 18 19h96q17 0 16 -14l-12 -82q-2 -13 -12 -23l-60 -59l-13 -13t-17 -6h-28v0z" />
    </font>
</defs>
</svg>
